<svg width="288" height="56" viewBox="0 0 288 56" fill="none" xmlns="http://www.w3.org/2000/svg">
<path d="M88.2457 18.6047V0.870682H96.7926L96.8249 0.908681C96.8411 0.924681 96.8654 0.940681 96.8715 0.960681C96.8907 1.02589 96.9029 1.09293 96.9079 1.16068C96.9079 14.4527 96.9079 27.7454 96.9079 41.0387C96.8991 41.1469 96.8836 41.2544 96.8613 41.3607H88.2578V38.7827C88.1484 38.8383 88.0453 38.9053 87.9503 38.9827C85.4838 41.8807 82.2746 42.6767 78.6548 42.0347C73.5963 41.1347 70.3042 38.0887 68.7988 33.3107C67.518 29.2447 67.8579 25.2147 70.1039 21.4987C71.9735 18.4027 74.6687 16.3487 78.3391 15.6987C79.9253 15.4117 81.5534 15.4396 83.1285 15.7807C84.7782 16.1502 86.2947 16.9571 87.5153 18.1147C87.6893 18.2747 87.8714 18.4267 88.0535 18.5807C88.1166 18.5949 88.181 18.603 88.2457 18.6047ZM83.0678 34.6307C84.2512 34.6348 85.3959 34.214 86.2891 33.4467C88.2578 31.8067 88.8406 29.6987 88.2376 27.2887C87.2664 23.3967 82.4143 21.8127 79.3346 24.3587C77.7948 25.6347 77.121 27.2867 77.204 29.2707C77.3335 32.2747 79.8 34.6467 83.0678 34.6367V34.6307Z" fill="#0D349A"/>
<path d="M27.4727 42.6966C28.3893 39.2386 31.7097 36.4386 35.2446 36.1226C35.9831 36.0566 36.7257 36.0226 37.4703 36.0186C40.4488 36.0066 43.4272 36.0186 46.4057 36.0186C46.8203 36.0226 47.2316 35.9448 47.6155 35.7897C47.9993 35.6345 48.348 35.4053 48.641 35.1152C48.934 34.8252 49.1656 34.4803 49.322 34.1007C49.4785 33.7211 49.5567 33.3145 49.5521 32.9046C49.5804 30.9466 47.8463 29.6366 46.3834 29.7046C45.4263 29.7526 44.4632 29.7046 43.5021 29.7046H42.717C42.806 29.4026 42.8688 29.1806 42.9335 28.9606C43.4434 27.2686 43.4819 25.5826 42.7312 23.9506C41.7984 21.9166 40.1999 20.7506 37.9256 20.6306C36.5982 20.5606 35.366 20.9806 34.2471 21.6866C33.7088 22.0266 33.201 22.4166 32.6283 22.8166C32.5312 22.5046 32.4462 22.2386 32.3653 21.9706C31.8077 20.0487 30.8628 18.2582 29.5872 16.7066C25.6739 11.9886 17.9647 12.7066 15.0531 18.3946C14.3839 19.688 14.0299 21.118 14.0191 22.5706C14.007 23.8766 14.0191 25.1826 14.0191 26.4886V27.3486C13.7217 27.3666 13.4687 27.3926 13.2097 27.3946C11.8642 27.3946 10.5186 27.3666 9.17508 27.4146C8.12763 27.46 7.13158 27.876 6.36862 28.5868C5.60566 29.2976 5.12664 30.2558 5.01894 31.2867C4.91124 32.3175 5.18203 33.3523 5.78193 34.2022C6.38182 35.0522 7.27084 35.6606 8.28681 35.9166C8.5906 35.9809 8.90088 36.0104 9.2115 36.0046C12.2142 36.0046 15.217 35.9926 18.2197 36.0146C18.7969 36.0334 19.3713 35.9265 19.9021 35.7015C20.4328 35.4765 20.9071 35.1389 21.2912 34.7126C21.4197 34.5616 21.5826 34.4429 21.7666 34.3664C21.9506 34.2899 22.1504 34.2577 22.3495 34.2726C23.9095 34.2926 25.4695 34.2726 27.1125 34.2726C27.0579 34.5186 27.0316 34.7186 26.9689 34.9026C26.3573 36.6925 25.2023 38.2526 23.6613 39.3703C22.1203 40.4879 20.2682 41.1089 18.3573 41.1486C15.3546 41.1926 12.3525 41.1926 9.35112 41.1486C4.7843 41.0726 0.747616 37.5726 0.104174 33.0626C-0.662695 27.7046 2.92075 23.5386 7.02623 22.5566C7.43091 22.4566 7.87201 22.4166 8.29288 22.3366C8.52152 22.2946 8.74612 22.2286 8.95656 22.1766C9.32077 14.6886 14.6545 10.0146 19.7453 8.8286C24.9576 7.6146 31.6288 9.6886 35.0423 16.0766C38.0591 14.9266 40.9607 15.1606 43.6377 17.0306C46.3146 18.9006 47.5529 21.5046 47.8099 24.6706C48.0284 24.7386 48.2288 24.8126 48.4331 24.8706C51.707 25.6926 54.8453 28.9686 54.5337 33.4706C54.4204 35.3118 53.6824 37.0615 52.4388 38.437C51.1952 39.8124 49.5188 40.7332 47.6804 41.0506C47.1337 41.128 46.5815 41.1614 46.0293 41.1506C42.9315 41.1606 39.8316 41.1786 36.7338 41.1506C35.3356 41.1366 34.1398 41.5166 33.1645 42.5306C33.0162 42.6793 32.8187 42.7702 32.6081 42.7866C30.9752 42.8026 29.3423 42.7866 27.7094 42.7866C27.6267 42.7674 27.5471 42.7372 27.4727 42.6966Z" fill="#00B39F"/>
<path d="M116.964 42.3127C114.147 42.3367 111.583 41.9127 109.216 40.6767C105.372 38.6767 102.859 35.6507 102.167 31.3587C101.541 27.4847 102.167 23.8347 104.698 20.6747C106.26 18.6969 108.369 17.2083 110.768 16.3887C114.73 15.0327 118.746 14.9607 122.692 16.3687C126.911 17.8747 129.873 20.7107 131.095 25.0667C131.951 28.1167 131.86 31.1887 130.601 34.1267C128.827 38.2647 125.561 40.7147 121.221 41.8327C119.83 42.1819 118.398 42.3433 116.964 42.3127ZM116.818 23.0287C115.682 23.0048 114.567 23.3405 113.637 23.9867C111.553 25.4347 110.663 27.9047 111.326 30.3867C112.399 34.4047 117.338 35.9507 120.446 33.2307C121.044 32.7138 121.529 32.0815 121.87 31.3727C122.212 30.6638 122.404 29.8933 122.433 29.1087C122.641 25.8047 120.098 23.0367 116.818 23.0287Z" fill="#0D349A"/>
<path d="M275.386 27.8047L287.672 41.3867C287.32 41.4027 287.114 41.4207 286.905 41.4207C283.569 41.4207 280.228 41.4107 276.893 41.4327C276.671 41.4441 276.449 41.4001 276.247 41.3048C276.046 41.2094 275.873 41.0656 275.742 40.8867C274.008 38.7947 272.248 36.7227 270.495 34.6447C270.315 34.4287 270.121 34.2247 269.888 33.9667C269.3 34.6607 268.743 35.3107 268.193 35.9667C266.762 37.6607 265.328 39.3527 263.909 41.0567C263.819 41.1783 263.699 41.2761 263.561 41.3413C263.423 41.4065 263.271 41.4372 263.118 41.4307C259.587 41.4187 256.059 41.4307 252.528 41.4207C252.457 41.4207 252.386 41.4067 252.188 41.3827C253.173 40.1527 254.229 39.0767 255.223 37.9547C256.216 36.8327 257.232 35.7207 258.24 34.6047L261.307 31.2047C262.319 30.0907 263.316 28.9747 264.359 27.8167L254.413 16.4047C254.711 16.3807 254.867 16.3587 255.021 16.3587C258.381 16.3587 261.744 16.3587 265.105 16.3487C265.293 16.3357 265.481 16.3708 265.651 16.4507C265.821 16.5306 265.968 16.6525 266.076 16.8047C267.042 18.0147 268.039 19.2047 269.026 20.4047C269.314 20.7547 269.603 21.1027 269.941 21.5107C270.143 21.2907 270.317 21.1107 270.481 20.9107C271.637 19.5467 272.791 18.18 273.941 16.8107C274.162 16.5487 274.372 16.3547 274.769 16.3567C278.227 16.3727 281.685 16.3667 285.143 16.3687C285.279 16.3815 285.414 16.4015 285.548 16.4287L275.386 27.8047Z" fill="#0D349A"/>
<path d="M250.057 30.5326H231.668C231.699 32.0666 231.929 33.4486 232.882 34.6186C233.564 35.4546 234.501 35.8806 235.535 36.0686C236.008 36.1484 236.486 36.1952 236.966 36.2086C238.653 36.2786 240.013 35.6646 240.962 34.2566C241.034 34.122 241.143 34.0105 241.276 33.935C241.41 33.8596 241.563 33.8233 241.717 33.8306C244.238 33.8446 246.761 33.8306 249.282 33.8426C249.37 33.8517 249.458 33.8677 249.543 33.8906C249.505 34.0766 249.484 34.2566 249.432 34.4246C248.218 38.2006 245.709 40.6806 241.844 41.7406C237.822 42.8426 233.823 42.6966 230.021 40.9586C225.805 39.0286 223.522 35.6386 222.986 31.0826C222.731 28.9824 222.855 26.8541 223.352 24.7966C224.305 20.8566 226.828 18.2566 230.568 16.7966C233.942 15.4659 237.656 15.2271 241.176 16.1146C244.311 16.8686 246.508 18.8146 247.971 21.6226C248.972 23.5204 249.603 25.5879 249.828 27.7166C249.921 28.6046 249.974 29.4966 250.057 30.5326ZM231.887 25.3326H241.846C241.712 24.4232 241.309 23.5734 240.687 22.8906C238.866 20.8426 235.713 21.0306 234.076 22.0106C232.838 22.7566 232.182 23.8886 231.887 25.3306V25.3326Z" fill="#0D349A"/>
<path d="M160.171 16.3887H168.844V17.2627C168.844 21.6087 168.832 25.9528 168.856 30.2968C168.858 31.055 168.951 31.8103 169.133 32.5468C169.477 33.9048 170.402 34.7467 171.78 35.0887C172.834 35.3473 173.938 35.3322 174.985 35.0447C176.215 34.7107 177.069 33.9467 177.431 32.7487C177.634 32.0674 177.74 31.3611 177.745 30.6507C177.773 26.1887 177.759 21.7247 177.761 17.2627V16.3887H186.389C186.409 16.5887 186.447 16.7887 186.447 16.9887C186.447 22.1407 186.461 27.2927 186.435 32.4427C186.426 33.2967 186.331 34.1476 186.15 34.9827C185.573 37.7247 183.936 39.6667 181.417 40.9068C179.943 41.6099 178.358 42.0565 176.731 42.2267C173.964 42.5913 171.156 42.5082 168.417 41.9807C167.19 41.7445 166.004 41.33 164.9 40.7508C161.99 39.1988 160.521 36.7308 160.246 33.5247C160.2 32.9827 160.186 32.4347 160.184 31.8887C160.184 26.9981 160.184 22.1074 160.184 17.2167L160.171 16.3887Z" fill="#0D349A"/>
<path d="M189.511 16.3849H199.268C201.186 20.5849 203.112 24.8049 205.135 29.1849C205.338 28.8089 205.461 28.5749 205.575 28.3309C207.333 24.5609 209.099 20.7929 210.835 17.0089C211.068 16.4989 211.335 16.3209 211.908 16.3269C214.621 16.3609 217.335 16.3409 220.05 16.3409H220.657C220.68 16.3723 220.702 16.4051 220.722 16.4389C220.722 16.4609 220.744 16.4869 220.738 16.5049C220.713 16.5966 220.682 16.6862 220.643 16.7729C216.452 24.9662 212.256 33.1662 208.055 41.3729H202.187L189.511 16.3849Z" fill="#0D349A"/>
<path d="M155.139 33.4447C155.166 33.6607 155.188 33.7527 155.188 33.8447C155.188 36.0027 155.188 38.1627 155.2 40.3207C155.22 40.4836 155.181 40.6482 155.091 40.786C155.001 40.9237 154.865 41.0259 154.706 41.0747C147.244 44.1647 138.614 40.9567 136.227 32.9767C134.928 28.6367 135.435 24.4507 138.311 20.7767C140.684 17.7367 143.837 16.0187 147.726 15.6127C150.093 15.3647 152.363 15.5827 154.542 16.5747C155.026 16.7947 155.212 17.0587 155.204 17.5907C155.174 19.6067 155.192 21.6227 155.19 23.6387C155.19 23.8387 155.17 24.0547 155.152 24.3787L154.304 23.8687C153.487 23.3607 152.569 23.035 151.612 22.9144C150.655 22.7939 149.683 22.8813 148.764 23.1707C146.538 23.8387 145.182 25.3267 144.802 27.5987C144.543 29.1487 144.66 30.6767 145.451 32.0927C147.38 35.5467 151.803 35.6687 154.235 34.0507L155.139 33.4447Z" fill="#0D349A"/>
<path d="M25.7711 46.4188C25.8055 46.0428 25.8217 45.7408 25.8662 45.4408C25.9107 45.1408 25.9795 44.8408 26.0422 44.5228H31.2565C31.0967 45.1448 30.949 45.7228 30.7729 46.4188C31.2322 46.4188 31.562 46.4068 31.8919 46.4188C32.134 46.4154 32.3727 46.4748 32.5844 46.591C32.7961 46.7072 32.9732 46.8761 33.0983 47.0811C33.2233 47.286 33.2919 47.5197 33.2971 47.759C33.3024 47.9983 33.2441 48.2347 33.1282 48.4448C33.0422 48.6144 32.9469 48.7793 32.8429 48.9388L29.6722 54.1088C29.5973 54.2308 29.5285 54.3568 29.4456 54.4728C28.8264 55.3408 27.7864 55.3508 27.1672 54.4868C27.0013 54.2568 26.8657 54.0028 26.716 53.7608C25.7178 52.1394 24.7216 50.5175 23.7274 48.8948C23.6219 48.7369 23.5266 48.5726 23.4421 48.4028C23.3387 48.1943 23.2902 47.9634 23.3014 47.7314C23.3125 47.4995 23.3829 47.2741 23.5059 47.0762C23.6289 46.8784 23.8005 46.7146 24.0048 46.5999C24.2091 46.4853 24.4395 46.4237 24.6744 46.4208C25.0204 46.4048 25.3765 46.4188 25.7711 46.4188Z" fill="#0D349A"/>
<path d="M28.6483 30.9646L28.4196 32.5086H23.2721C23.3814 32.0066 23.4744 31.5546 23.6019 31.0006L22.6206 30.9646C21.3033 30.9066 20.6983 29.8546 21.3741 28.7326C22.5234 26.8193 23.6909 24.9159 24.8766 23.0226C25.5545 21.9406 26.6491 21.9586 27.3331 23.0546C28.5026 24.9293 29.6573 26.8126 30.7971 28.7046C31.4891 29.8506 30.87 30.9226 29.5224 30.9626C29.2411 30.9726 28.9599 30.9646 28.6483 30.9646Z" fill="#0D349A"/>
</svg>
