<svg width="1214" height="23" viewBox="0 0 1214 23" fill="none" xmlns="http://www.w3.org/2000/svg">
<rect y="9.96008" width="1019" height="3" fill="#F80E80"/>
<path d="M1071.93 4.62528V8.07353H1074.87V12.9266C1074.87 18.2519 1079.19 22.5689 1084.51 22.5689V19.1207C1081.48 19.1207 1079.02 16.662 1079.02 13.629V8.07353H1084.51V4.62528C1084.51 4.52311 1080.85 4.58271 1079.02 4.62528V0.155334H1075.06V4.62528H1071.93Z" fill="white"/>
<path d="M1030.87 4.68918H1028V22.5051H1031.96V17.791C1031.96 13.5879 1032.23 7.55337 1036.44 7.57742C1040.76 7.60217 1041.03 13.6508 1041.03 17.9746V22.5051H1044.99V11.458C1044.74 9.06747 1044.17 7.8911 1042.37 6.09402C1039.24 3.3481 1033.68 3.60373 1030.87 6.09402V4.68918Z" fill="white"/>
<path d="M1047.35 8.01086V2.49822C1048.1 2.52482 1048.75 2.57896 1049.35 2.68307C1052.51 3.22679 1054.82 5.81166 1057.02 8.14062L1053.06 11.9686L1050.73 9.63287C1049.49 8.43861 1048.76 8.04007 1047.35 8.01086Z" fill="#ED0C7A"/>
<path d="M1066.8 1.75178V0H1070.18V3.3738H1068.29V1.75178H1066.8Z" fill="#ED0C7A"/>
<path d="M1067.53 16.939L1067.53 22.4389C1066.76 22.412 1066.1 22.3571 1065.48 22.2511C1062.32 21.7055 1059.98 19.1331 1057.76 16.8095L1061.76 12.9904L1064.12 15.3207C1065.37 16.5122 1066.1 16.9098 1067.53 16.939Z" fill="#ED0C7A"/>
<path d="M1047.22 22.5675L1047.16 17.2448C1048.5 17.1409 1049.96 15.9466 1050.52 15.3625C1053.43 12.4847 1059.74 6.2619 1061.71 4.39248C1063.67 2.52306 1066.45 2.4019 1067.59 2.57499V8.15735C1067.31 8.09244 1066.62 8.00156 1066.1 8.15735C1065.59 8.31313 1064.94 8.95791 1064.68 9.26083C1061.04 12.8958 1053.38 20.4124 1051.88 21.3991C1050.38 22.3857 1048.15 22.5891 1047.22 22.5675Z" fill="#ED0C7A"/>
<path d="M1095.56 4.17854C1102.2 4.28083 1104.46 9.54176 1104.76 12.16V22.5692H1100.86V19.3123C1099.07 23.463 1091.41 24.7401 1087.71 19.3123C1084 13.8845 1087.26 4.05083 1095.56 4.17854ZM1095.43 7.49885C1092.47 7.49885 1090.07 10.1867 1090.07 13.5018C1090.07 16.8167 1092.47 19.5037 1095.43 19.5037C1098.4 19.5036 1100.8 16.8166 1100.8 13.5018C1100.8 10.1868 1098.4 7.49903 1095.43 7.49885Z" fill="white"/>
<path d="M1127.54 4.17854C1134.18 4.28096 1136.43 9.54291 1136.73 12.161V22.5692H1132.84V19.3123C1131.05 23.4629 1123.39 24.74 1119.68 19.3123C1115.98 13.8845 1119.24 4.05083 1127.54 4.17854ZM1127.41 7.49885C1124.45 7.4991 1122.04 10.1861 1122.04 13.5008C1122.04 16.8157 1124.45 19.5035 1127.41 19.5037C1130.37 19.5037 1132.77 16.8159 1132.77 13.5008C1132.77 10.1859 1130.37 7.49885 1127.41 7.49885Z" fill="white"/>
<path d="M1111.27 22.505H1107.25V13.9483C1107.25 8.76406 1111.45 4.5614 1116.63 4.5614V8.20121C1113.67 8.20121 1111.27 10.6027 1111.27 13.5652V22.505Z" fill="white"/>
<rect x="1145.73" y="9.96008" width="68" height="3" fill="#F80E80"/>
</svg>
