<svg width="345" height="23" viewBox="0 0 345 23" fill="none" xmlns="http://www.w3.org/2000/svg">
<rect y="9.95996" width="188" height="3" fill="#F80E80"/>
<path d="M240.933 4.62522V8.07346H243.871V12.9265C243.871 18.2518 248.188 22.5689 253.513 22.5689V19.1206C250.48 19.1206 248.021 16.6619 248.021 13.629V8.07346H253.513V4.62522C253.513 4.52305 249.852 4.58265 248.021 4.62522V0.155273H244.062V4.62522H240.933Z" fill="white"/>
<path d="M199.874 4.68882H197V22.5047H200.959V17.7906C200.959 13.5875 201.232 7.553 205.435 7.57706C209.759 7.6018 210.027 13.6504 210.027 17.9742V22.5047H213.986V11.4576C213.739 9.0671 213.169 7.89073 211.368 6.09366C208.239 3.34773 202.683 3.60336 199.874 6.09366V4.68882Z" fill="white"/>
<path d="M216.35 8.01086V2.49822C217.097 2.52482 217.746 2.57896 218.351 2.68307C221.509 3.22679 223.823 5.81166 226.025 8.14062L222.064 11.9686L219.726 9.63287C218.488 8.43861 217.765 8.04007 216.35 8.01086Z" fill="#ED0C7A"/>
<path d="M235.8 1.75178V0H239.176V3.3738H237.293V1.75178H235.8Z" fill="#ED0C7A"/>
<path d="M236.526 16.9393L236.526 22.4392C235.763 22.4123 235.101 22.3575 234.485 22.2514C231.316 21.7058 228.98 19.1334 226.757 16.8098L230.756 12.9907L233.116 15.321C234.366 16.5125 235.097 16.9101 236.526 16.9393Z" fill="#ED0C7A"/>
<path d="M216.222 22.567L216.157 17.2443C217.502 17.1404 218.959 15.9461 219.52 15.362C222.429 12.4842 228.741 6.26141 230.707 4.39199C232.672 2.52257 235.449 2.40141 236.591 2.5745V8.15686C236.311 8.09195 235.621 8.00107 235.104 8.15686C234.586 8.31264 233.94 8.95742 233.681 9.26034C230.038 12.8953 222.378 20.4119 220.878 21.3986C219.377 22.3852 217.149 22.5886 216.222 22.567Z" fill="#ED0C7A"/>
<path d="M264.561 4.17897C271.202 4.28126 273.458 9.54219 273.756 12.1604V22.5696H269.861V19.3128C268.073 23.4634 260.41 24.7405 256.707 19.3128C253.003 13.885 256.26 4.05125 264.561 4.17897ZM264.433 7.49928C261.471 7.49928 259.069 10.1871 259.069 13.5022C259.069 16.8171 261.471 19.5042 264.433 19.5042C267.395 19.504 269.796 16.817 269.797 13.5022C269.797 10.1872 267.396 7.49946 264.433 7.49928Z" fill="white"/>
<path d="M296.537 4.17897C303.177 4.28139 305.434 9.54334 305.732 12.1614V22.5696H301.837V19.3128C300.049 23.4634 292.386 24.7404 288.682 19.3128C284.979 13.885 288.235 4.05125 296.537 4.17897ZM296.408 7.49928C293.446 7.49953 291.045 10.1865 291.045 13.5012C291.045 16.8162 293.446 19.5039 296.408 19.5042C299.37 19.5042 301.772 16.8163 301.772 13.5012C301.772 10.1863 299.37 7.49928 296.408 7.49928Z" fill="white"/>
<path d="M280.269 22.5052H276.246V13.9484C276.246 8.76418 280.449 4.56152 285.633 4.56152V8.20134C282.671 8.20134 280.269 10.6029 280.269 13.5653V22.5052Z" fill="white"/>
<rect x="314.732" y="9.95996" width="30" height="3" fill="#F80E80"/>
</svg>
