<svg width="1280" height="406" viewBox="0 0 1280 406" fill="none" xmlns="http://www.w3.org/2000/svg">
<g clip-path="url(#clip0_64_74789)">
<g opacity="0.5">
<mask id="mask0_64_74789" style="mask-type:luminance" maskUnits="userSpaceOnUse" x="0" y="0" width="609" height="406">
<path d="M609 0H0V406H609V0Z" fill="white"/>
</mask>
<g mask="url(#mask0_64_74789)">
<path d="M438.596 317.445L451.348 317.028L438.596 316.61L442.596 312.341L438.326 316.34L437.908 303.588L437.492 316.34L433.221 312.341L437.22 316.61L424.469 317.028L437.22 317.445L433.221 321.715L437.492 317.715L437.908 330.468L438.326 317.715L442.596 321.715L438.596 317.445Z" fill="#CED7D8"/>
<path d="M587.071 64.5849L592.493 64.4071L587.071 64.2301L588.771 62.4136L586.956 64.1148L586.778 58.6914L586.601 64.1148L584.784 62.4136L586.485 64.2301L581.062 64.4071L586.485 64.5849L584.784 66.4005L586.601 64.6994L586.778 70.1227L586.956 64.6994L588.771 66.4005L587.071 64.5849Z" fill="#CED7D8"/>
<path d="M581.629 372.878L592.125 372.534L581.629 372.191L584.92 368.676L581.405 371.968L581.062 361.472L580.719 371.968L577.204 368.676L580.496 372.191L570 372.534L580.496 372.878L577.204 376.393L580.719 373.1L581.062 383.597L581.405 373.1L584.92 376.393L581.629 372.878Z" fill="#CED7D8"/>
<path d="M535.044 152.392L552.901 151.808L535.044 151.224L540.645 145.244L534.665 150.845L534.081 132.988L533.497 150.845L527.517 145.244L533.118 151.224L515.261 151.808L533.118 152.392L527.517 158.372L533.497 152.771L534.081 170.628L534.665 152.771L540.645 158.372L535.044 152.392Z" fill="#CED7D8"/>
<path d="M288.654 93.2404C288.654 105.277 289.578 107.057 293.691 102.944C289.578 107.057 291.358 107.98 303.395 107.98C291.358 107.98 289.579 108.904 293.691 113.017C289.578 108.904 288.654 110.684 288.654 122.72C288.654 110.684 287.73 108.905 283.617 113.017C287.73 108.904 285.95 107.98 273.914 107.98C285.95 107.98 287.729 107.056 283.617 102.944C287.731 107.057 288.654 105.277 288.654 93.2404Z" fill="#CED7D8"/>
<path d="M334.737 177.788C334.737 185.863 335.356 187.056 338.115 184.297C335.356 187.056 336.551 187.676 344.624 187.676C336.55 187.676 335.356 188.295 338.115 191.055C335.356 188.295 334.737 189.49 334.737 197.564C334.737 189.489 334.117 188.295 331.358 191.055C334.117 188.295 332.923 187.676 324.848 187.676C332.923 187.676 334.116 187.056 331.358 184.297C334.117 187.056 334.737 185.863 334.737 177.788Z" fill="#CED7D8"/>
<path d="M313.008 330.468C313.008 338.542 313.627 339.736 316.387 336.977C313.627 339.736 314.822 340.355 322.896 340.355C314.821 340.355 313.627 340.975 316.387 343.734C313.627 340.975 313.008 342.169 313.008 350.244C313.008 342.169 312.388 340.976 309.629 343.734C312.388 340.975 311.194 340.355 303.12 340.355C311.195 340.355 312.388 339.736 309.629 336.977C312.387 339.736 313.008 338.541 313.008 330.468Z" fill="#CED7D8"/>
<path d="M184.923 243.993C184.923 249.41 185.339 250.211 187.19 248.36C185.339 250.211 186.14 250.626 191.557 250.626C186.14 250.626 185.339 251.042 187.19 252.893C185.339 251.042 184.923 251.843 184.923 257.259C184.923 251.843 184.508 251.042 182.657 252.893C184.508 251.042 183.707 250.626 178.29 250.626C183.707 250.626 184.508 250.211 182.657 248.36C184.508 250.211 184.923 249.409 184.923 243.993Z" fill="#CED7D8"/>
<path d="M83.4321 36.4425C83.4321 41.8594 83.8478 42.66 85.6983 40.8094C83.8478 42.66 84.6484 43.0757 90.0653 43.0757C84.6484 43.0757 83.8478 43.4915 85.6983 45.342C83.8478 43.4915 83.4321 44.2921 83.4321 49.709C83.4321 44.2921 83.0163 43.4915 81.1658 45.342C83.0163 43.4915 82.2157 43.0757 76.7988 43.0757C82.2157 43.0757 83.0163 42.66 81.1658 40.8094C83.0163 42.66 83.4321 41.8585 83.4321 36.4425Z" fill="#CED7D8"/>
<path d="M490.065 320.446L491.264 322.756L493.575 323.956L491.264 325.155L490.065 327.466L488.866 325.155L486.556 323.956L488.866 322.756L490.065 320.446Z" fill="#CED7D8"/>
<path d="M106.418 162.992L107.865 165.78L110.652 167.226L107.865 168.673L106.418 171.46L104.972 168.673L102.184 167.226L104.972 165.78L106.418 162.992Z" fill="white"/>
<path d="M198.865 280.101L201.163 284.526L205.587 286.823L201.163 289.119L198.865 293.545L196.569 289.119L192.145 286.823L196.569 284.526L198.865 280.101Z" fill="#CED7D8"/>
<path d="M363.775 346.707L364.498 348.101L365.891 348.824L364.498 349.547L363.775 350.941L363.051 349.547L361.658 348.824L363.051 348.101L363.775 346.707Z" fill="#CED7D8"/>
<path d="M577.641 271.731L578.364 273.124L579.758 273.848L578.364 274.571L577.641 275.966L576.917 274.571L575.524 273.848L576.917 273.124L577.641 271.731Z" fill="#CED7D8"/>
<path d="M483.344 161.933L483.706 162.63L484.403 162.992L483.706 163.353L483.344 164.05L482.982 163.353L482.286 162.992L482.982 162.63L483.344 161.933Z" fill="#CED7D8"/>
<path d="M128.747 20.1077L129.289 22.456L131.637 22.9992L129.289 23.5424L128.747 25.8907L128.203 23.5424L125.855 22.9992L128.203 22.456L128.747 20.1077Z" fill="#CED7D8"/>
<path d="M170.395 49.6465L171.299 53.5538L175.206 54.4576L171.299 55.3605L170.395 59.2679L169.492 55.3605L165.584 54.4576L169.492 53.5538L170.395 49.6465Z" fill="#CED7D8"/>
<path d="M350.095 241.581L350.999 245.489L354.907 246.392L350.999 247.295L350.095 251.202L349.193 247.295L345.285 246.392L349.193 245.489L350.095 241.581Z" fill="#CED7D8"/>
<path d="M378.445 191.839L378.908 193.846L380.915 194.31L378.908 194.774L378.445 196.78L377.981 194.774L375.975 194.31L377.981 193.846L378.445 191.839Z" fill="#CED7D8"/>
<path d="M173.797 363.713L174.261 365.719L176.267 366.183L174.261 366.646L173.797 368.653L173.334 366.646L171.327 366.183L173.334 365.719L173.797 363.713Z" fill="#CED7D8"/>
<path d="M273.153 130.096L273.438 131.329L274.67 131.614L273.438 131.898L273.153 133.131L272.868 131.898L271.636 131.614L272.868 131.329L273.153 130.096Z" fill="#CED7D8"/>
<path d="M328.392 362.672L329.591 364.983L331.901 366.183L329.591 367.382L328.392 369.692L327.192 367.382L324.881 366.183L327.192 364.983L328.392 362.672Z" fill="#CED7D8"/>
<path d="M357.052 202.709L359.35 207.134L363.774 209.43L359.35 211.727L357.052 216.152L354.756 211.727L350.332 209.43L354.756 207.134L357.052 202.709Z" fill="#CED7D8"/>
<path d="M24.9122 356.991L27.2085 361.416L31.6331 363.713L27.2085 366.009L24.9122 370.434L22.615 366.009L18.1904 363.713L22.615 361.416L24.9122 356.991Z" fill="#CED7D8"/>
<path d="M601.702 185.486L602.425 186.879L603.819 187.603L602.425 188.326L601.702 189.721L600.978 188.326L599.585 187.603L600.978 186.879L601.702 185.486Z" fill="#CED7D8"/>
<path d="M213.376 401.424L214.1 402.817L215.493 403.54L214.1 404.264L213.376 405.657L212.653 404.264L211.259 403.54L212.653 402.817L213.376 401.424Z" fill="white"/>
<path d="M164.526 188.662L164.888 189.358L165.585 189.721L164.888 190.082L164.526 190.779L164.164 190.082L163.468 189.721L164.164 189.358L164.526 188.662Z" fill="#CED7D8"/>
<path d="M350.332 131.614L350.874 133.962L353.223 134.505L350.874 135.048L350.332 137.396L349.789 135.048L347.44 134.505L349.789 133.962L350.332 131.614Z" fill="#CED7D8"/>
<path d="M391.806 345.433L392.71 349.34L396.617 350.244L392.71 351.147L391.806 355.054L390.903 351.147L386.996 350.244L390.903 349.34L391.806 345.433Z" fill="#CED7D8"/>
<path d="M552.901 312.217L553.804 316.125L557.712 317.028L553.804 317.931L552.901 321.839L551.998 317.931L548.09 317.028L551.998 316.125L552.901 312.217Z" fill="#CED7D8"/>
<path d="M288.176 191.839L288.639 193.846L290.646 194.31L288.639 194.774L288.176 196.78L287.711 194.774L285.705 194.31L287.711 193.846L288.176 191.839Z" fill="white"/>
<path d="M74.1947 70.5872L74.6584 72.5936L76.6648 73.0573L74.6584 73.5217L74.1947 75.5282L73.7311 73.5217L71.7246 73.0573L73.7311 72.5936L74.1947 70.5872Z" fill="#CED7D8"/>
<path d="M565.189 293.545L565.474 294.776L566.705 295.061L565.474 295.346L565.189 296.578L564.904 295.346L563.672 295.061L564.904 294.776L565.189 293.545Z" fill="white"/>
<path d="M382.117 382.468L383.316 384.778L385.626 385.977L383.316 387.176L382.117 389.487L380.917 387.176L378.606 385.977L380.917 384.778L382.117 382.468Z" fill="#CED7D8"/>
<path d="M599.214 31.1492L601.511 35.5746L605.936 37.8709L601.511 40.1681L599.214 44.5926L596.917 40.1681L592.493 37.8709L596.917 35.5746L599.214 31.1492Z" fill="#CED7D8"/>
<path d="M531.369 42.9873L533.665 47.4119L538.09 49.709L533.665 52.0054L531.369 56.43L529.072 52.0054L524.647 49.709L529.072 47.4119L531.369 42.9873Z" fill="white"/>
<path d="M586.777 234.311L587.501 235.705L588.895 236.428L587.501 237.152L586.777 238.545L586.054 237.152L584.66 236.428L586.054 235.705L586.777 234.311Z" fill="#CED7D8"/>
<path d="M119.236 238.545L119.959 239.94L121.353 240.663L119.959 241.386L119.236 242.78L118.512 241.386L117.119 240.663L118.512 239.94L119.236 238.545Z" fill="#CED7D8"/>
<path d="M306.237 283.853L306.598 284.55L307.295 284.911L306.598 285.273L306.237 285.97L305.874 285.273L305.178 284.911L305.874 284.55L306.237 283.853Z" fill="white"/>
<path d="M605.936 327.576L606.478 329.925L608.827 330.468L606.478 331.01L605.936 333.359L605.393 331.01L603.044 330.468L605.393 329.925L605.936 327.576Z" fill="white"/>
<path d="M83.4319 252.055L84.3356 255.962L88.243 256.866L84.3356 257.769L83.4319 261.676L82.5289 257.769L78.6216 256.866L82.5289 255.962L83.4319 252.055Z" fill="#CED7D8"/>
<path d="M538.09 365.606L538.993 369.514L542.901 370.417L538.993 371.32L538.09 375.228L537.187 371.32L533.279 370.417L537.187 369.514L538.09 365.606Z" fill="#CED7D8"/>
<path d="M524.647 307.539L525.111 309.546L527.117 310.01L525.111 310.474L524.647 312.48L524.183 310.474L522.177 310.01L524.183 309.546L524.647 307.539Z" fill="#CED7D8"/>
<path d="M218.186 11.4224L218.651 13.4288L220.657 13.8925L218.651 14.3569L218.186 16.3634L217.723 14.3569L215.716 13.8925L217.723 13.4288L218.186 11.4224Z" fill="#CED7D8"/>
<path d="M506.588 283.395L506.873 284.627L508.104 284.911L506.873 285.196L506.588 286.429L506.303 285.196L505.071 284.911L506.303 284.627L506.588 283.395Z" fill="#CED7D8"/>
<path d="M581.15 152.788L582.349 155.099L584.66 156.299L582.349 157.498L581.15 159.808L579.95 157.498L577.64 156.299L579.95 155.099L581.15 152.788Z" fill="white"/>
<path d="M490.065 94.5371L492.362 98.9617L496.787 101.259L492.362 103.555L490.065 107.98L487.769 103.555L483.344 101.259L487.769 98.9617L490.065 94.5371Z" fill="#CED7D8"/>
<path d="M301.877 392.883L304.173 397.308L308.597 399.605L304.173 401.901L301.877 406.327L299.579 401.901L295.155 399.605L299.579 397.308L301.877 392.883Z" fill="white"/>
<path d="M37.9269 207.313L38.6504 208.707L40.0438 209.43L38.6504 210.154L37.9269 211.548L37.2035 210.154L35.8101 209.43L37.2035 208.707L37.9269 207.313Z" fill="#CED7D8"/>
<path d="M68.9265 197.7L69.6499 199.094L71.0433 199.818L69.6499 200.541L68.9265 201.935L68.203 200.541L66.8096 199.818L68.203 199.094L68.9265 197.7Z" fill="#CED7D8"/>
<path d="M320.778 65.2694L321.139 65.9661L321.836 66.3283L321.139 66.6896L320.778 67.3863L320.416 66.6896L319.719 66.3283L320.416 65.9661L320.778 65.2694Z" fill="#CED7D8"/>
<path d="M71.0439 221.371L71.5871 223.719L73.9354 224.262L71.5871 224.805L71.0439 227.154L70.5015 224.805L68.1523 224.262L70.5015 223.719L71.0439 221.371Z" fill="#CED7D8"/>
<path d="M213.377 142.187L214.279 146.094L218.187 146.997L214.279 147.901L213.377 151.808L212.473 147.901L208.565 146.997L212.473 146.094L213.377 142.187Z" fill="#CED7D8"/>
<path d="M101.607 301.755L103.041 307.957L109.243 309.391L103.041 310.825L101.607 317.027L100.173 310.825L93.9712 309.391L100.173 307.957L101.607 301.755Z" fill="#CED7D8"/>
<path d="M552.9 259.206L553.365 261.212L555.371 261.676L553.365 262.14L552.9 264.146L552.437 262.14L550.43 261.676L552.437 261.212L552.9 259.206Z" fill="#CED7D8"/>
<path d="M102.184 15.7179L102.648 17.7243L104.654 18.1888L102.648 18.6525L102.184 20.6589L101.72 18.6525L99.7139 18.1888L101.72 17.7243L102.184 15.7179Z" fill="#CED7D8"/>
<path d="M196.273 214.635L196.558 215.867L197.79 216.152L196.558 216.437L196.273 217.669L195.988 216.437L194.756 216.152L195.988 215.867L196.273 214.635Z" fill="#CED7D8"/>
<path d="M184.923 -6.33447L187.219 -1.90988L191.644 0.387264L187.219 2.6836L184.923 7.109L182.626 2.6836L178.201 0.387264L182.626 -1.90988L184.923 -6.33447Z" fill="#CED7D8"/>
<path d="M9.63971 200.798L11.936 205.223L16.3614 207.52L11.936 209.817L9.63971 214.241L7.34256 209.817L2.91797 207.52L7.34256 205.223L9.63971 200.798Z" fill="#CED7D8"/>
<path d="M196.273 162.992L196.996 164.385L198.39 165.109L196.996 165.832L196.273 167.226L195.549 165.832L194.156 165.109L195.549 164.385L196.273 162.992Z" fill="#CED7D8"/>
<path d="M168.278 236.428L169.001 237.822L170.394 238.545L169.001 239.269L168.278 240.663L167.554 239.269L166.161 238.545L167.554 237.822L168.278 236.428Z" fill="#CED7D8"/>
<path d="M451.348 349.185L451.71 349.882L452.406 350.244L451.71 350.605L451.348 351.302L450.986 350.605L450.29 350.244L450.986 349.882L451.348 349.185Z" fill="#CED7D8"/>
<path d="M176.39 199.818L176.933 202.166L179.281 202.709L176.933 203.252L176.39 205.6L175.846 203.252L173.498 202.709L175.846 202.166L176.39 199.818Z" fill="#CED7D8"/>
<path d="M59.1732 162.992L60.6072 169.194L66.81 170.628L60.6072 172.062L59.1732 178.265L57.7392 172.062L51.5371 170.628L57.7392 169.194L59.1732 162.992Z" fill="#CED7D8"/>
<path d="M17.2752 51.0553L18.7092 57.2582L24.9121 58.6913L18.7092 60.1253L17.2752 66.3282L15.8412 60.1253L9.63916 58.6913L15.8412 57.2582L17.2752 51.0553Z" fill="white"/>
<path d="M116.766 73.0573L117.23 75.0637L119.236 75.5282L117.23 75.9918L116.766 77.9983L116.302 75.9918L114.296 75.5282L116.302 75.0637L116.766 73.0573Z" fill="#CED7D8"/>
<path d="M168.278 12.197L168.742 14.2035L170.748 14.6671L168.742 15.1308L168.278 17.1372L167.815 15.1308L165.808 14.6671L167.815 14.2035L168.278 12.197Z" fill="#CED7D8"/>
<path d="M114.296 99.7412L114.581 100.974L115.812 101.259L114.581 101.544L114.296 102.776L114.011 101.544L112.779 101.259L114.011 100.974L114.296 99.7412Z" fill="#CED7D8"/>
<path opacity="0.8" d="M516.518 119.656L517.717 121.966L520.028 123.165L517.717 124.364L516.518 126.674L515.318 124.364L513.008 123.165L515.318 121.966L516.518 119.656Z" fill="#CED7D8"/>
<path opacity="0.8" d="M132.18 276.68L133.627 279.468L136.414 280.915L133.627 282.362L132.18 285.149L130.733 282.362L127.945 280.915L130.733 279.468L132.18 276.68Z" fill="#CED7D8"/>
<path opacity="0.8" d="M80.656 290.767L82.103 293.555L84.8905 295.002L82.103 296.449L80.656 299.237L79.209 296.449L76.4214 295.002L79.209 293.555L80.656 290.767Z" fill="#CED7D8"/>
<path opacity="0.8" d="M426.512 259.559L427.235 260.952L428.63 261.676L427.235 262.399L426.512 263.793L425.788 262.399L424.395 261.676L425.788 260.952L426.512 259.559Z" fill="#CED7D8"/>
<path opacity="0.8" d="M251.956 376.62L252.68 378.014L254.073 378.738L252.68 379.461L251.956 380.855L251.233 379.461L249.839 378.738L251.233 378.014L251.956 376.62Z" fill="#CED7D8"/>
<path opacity="0.8" d="M555.791 26.7513L556.154 27.448L556.85 27.8102L556.154 28.1715L555.791 28.8682L555.43 28.1715L554.733 27.8102L555.43 27.448L555.791 26.7513Z" fill="#CED7D8"/>
<path opacity="0.8" d="M133.155 324.574L133.697 326.923L136.046 327.466L133.697 328.008L133.155 330.357L132.611 328.008L130.263 327.466L132.611 326.923L133.155 324.574Z" fill="#CED7D8"/>
<path opacity="0.8" d="M284.615 361.372L285.519 365.279L289.427 366.183L285.519 367.086L284.615 370.993L283.713 367.086L279.805 366.183L283.713 365.279L284.615 361.372Z" fill="#CED7D8"/>
<path opacity="0.8" d="M16.3614 247.244L17.2643 251.152L21.1717 252.055L17.2643 252.958L16.3614 256.866L15.4576 252.958L11.5503 252.055L15.4576 251.152L16.3614 247.244Z" fill="#CED7D8"/>
<path opacity="0.8" d="M505.071 -3.79602L505.535 -1.78957L507.541 -1.32592L505.535 -0.861452L505.071 1.145L504.607 -0.861452L502.6 -1.32592L504.607 -1.78957L505.071 -3.79602Z" fill="#CED7D8"/>
<path opacity="0.8" d="M69.7001 272.82L70.1645 274.826L72.171 275.291L70.1645 275.754L69.7001 277.761L69.2364 275.754L67.23 275.291L69.2364 274.826L69.7001 272.82Z" fill="#CED7D8"/>
<path opacity="0.8" d="M131.637 349.425L131.922 350.657L133.155 350.942L131.922 351.227L131.637 352.458L131.353 351.227L130.12 350.942L131.353 350.657L131.637 349.425Z" fill="#CED7D8"/>
<path opacity="0.8" d="M412.866 230.801L414.065 233.111L416.376 234.311L414.065 235.511L412.866 237.821L411.667 235.511L409.356 234.311L411.667 233.111L412.866 230.801Z" fill="#CED7D8"/>
<path opacity="0.8" d="M605.937 280.677L607.384 283.465L610.171 284.911L607.384 286.358L605.937 289.146L604.49 286.358L601.702 284.911L604.49 283.465L605.937 280.677Z" fill="#CED7D8"/>
<path opacity="0.8" d="M382.116 227.095L383.563 229.882L386.35 231.329L383.563 232.776L382.116 235.563L380.669 232.776L377.882 231.329L380.669 229.882L382.116 227.095Z" fill="#CED7D8"/>
<path opacity="0.8" d="M198.391 319.721L199.113 321.115L200.508 321.839L199.113 322.562L198.391 323.956L197.667 322.562L196.273 321.839L197.667 321.115L198.391 319.721Z" fill="white"/>
<path opacity="0.8" d="M363.775 307.275L364.498 308.668L365.891 309.392L364.498 310.115L363.775 311.508L363.051 310.115L361.658 309.392L363.051 308.668L363.775 307.275Z" fill="white"/>
<path opacity="0.8" d="M482.286 76.9395L482.647 77.6362L483.345 77.9983L482.647 78.3596L482.286 79.0563L481.925 78.3596L481.227 77.9983L481.925 77.6362L482.286 76.9395Z" fill="#CED7D8"/>
<path opacity="0.8" d="M247.731 82.2491L248.274 84.5983L250.622 85.1407L248.274 85.6839L247.731 88.0322L247.188 85.6839L244.84 85.1407L247.188 84.5983L247.731 82.2491Z" fill="#CED7D8"/>
<path opacity="0.8" d="M565.188 200.79L566.091 204.697L569.999 205.6L566.091 206.504L565.188 210.411L564.285 206.504L560.378 205.6L564.285 204.697L565.188 200.79Z" fill="#CED7D8"/>
<path opacity="0.8" d="M24.9117 22.999L25.8146 26.9064L29.722 27.8101L25.8146 28.7131L24.9117 32.6204L24.0079 28.7131L20.1006 27.8101L24.0079 26.9064L24.9117 22.999Z" fill="#CED7D8"/>
<path opacity="0.8" d="M311.49 231.841L311.953 233.847L313.96 234.311L311.953 234.775L311.49 236.782L311.026 234.775L309.02 234.311L311.026 233.847L311.49 231.841Z" fill="#CED7D8"/>
<path opacity="0.8" d="M90.0661 337.885L90.5298 339.892L92.5362 340.355L90.5298 340.819L90.0661 342.826L89.6017 340.819L87.5952 340.355L89.6017 339.892L90.0661 337.885Z" fill="#CED7D8"/>
<path opacity="0.8" d="M146.419 210.647L146.703 211.88L147.936 212.164L146.703 212.449L146.419 213.682L146.134 212.449L144.901 212.164L146.134 211.88L146.419 210.647Z" fill="#CED7D8"/>
<path opacity="0.8" d="M153.512 268.955L154.71 271.266L157.021 272.465L154.71 273.664L153.512 275.975L152.312 273.664L150.001 272.465L152.312 271.266L153.512 268.955Z" fill="#CED7D8"/>
<path opacity="0.8" d="M586.777 130.271L588.224 133.058L591.011 134.505L588.224 135.951L586.777 138.739L585.33 135.951L582.543 134.505L585.33 133.058L586.777 130.271Z" fill="#CED7D8"/>
<path opacity="0.8" d="M320.778 167.226L322.224 170.013L325.012 171.46L322.224 172.907L320.778 175.695L319.331 172.907L316.543 171.46L319.331 170.013L320.778 167.226Z" fill="#CED7D8"/>
<path opacity="0.8" d="M584.66 87.8341L585.383 89.2283L586.777 89.9518L585.383 90.6753L584.66 92.0687L583.936 90.6753L582.543 89.9518L583.936 89.2283L584.66 87.8341Z" fill="#CED7D8"/>
<path opacity="0.8" d="M358.105 277.984L358.829 279.378L360.222 280.101L358.829 280.824L358.105 282.218L357.382 280.824L355.988 280.101L357.382 279.378L358.105 277.984Z" fill="#CED7D8"/>
<path opacity="0.8" d="M409.356 53.3988L409.717 54.0955L410.415 54.4577L409.717 54.819L409.356 55.5157L408.994 54.819L408.297 54.4577L408.994 54.0955L409.356 53.3988Z" fill="#CED7D8"/>
<path opacity="0.8" d="M481.827 266.063L482.37 268.412L484.719 268.955L482.37 269.498L481.827 271.846L481.285 269.498L478.936 268.955L481.285 268.412L481.827 266.063Z" fill="white"/>
<path opacity="0.8" d="M24.9117 148.298L25.8146 152.205L29.722 153.109L25.8146 154.012L24.9117 157.919L24.0079 154.012L20.1006 153.109L24.0079 152.205L24.9117 148.298Z" fill="#CED7D8"/>
<path opacity="0.8" d="M101.607 77.4388L102.51 81.3462L106.417 82.2491L102.51 83.1529L101.607 87.0602L100.704 83.1529L96.7964 82.2491L100.704 81.3462L101.607 77.4388Z" fill="#CED7D8"/>
<path opacity="0.8" d="M202.181 362.232L202.644 364.238L204.651 364.702L202.644 365.166L202.181 367.173L201.717 365.166L199.71 364.702L201.717 364.238L202.181 362.232Z" fill="#CED7D8"/>
<path opacity="0.8" d="M269.692 85.364L270.156 87.3705L272.162 87.8341L270.156 88.2986L269.692 90.305L269.229 88.2986L267.222 87.8341L269.229 87.3705L269.692 85.364Z" fill="#CED7D8"/>
<path opacity="0.8" d="M438.967 174.178L439.252 175.41L440.484 175.695L439.252 175.98L438.967 177.212L438.682 175.98L437.45 175.695L438.682 175.41L438.967 174.178Z" fill="#CED7D8"/>
<path opacity="0.8" d="M424.468 375.746L425.668 378.057L427.978 379.256L425.668 380.455L424.468 382.765L423.269 380.455L420.959 379.256L423.269 378.057L424.468 375.746Z" fill="#CED7D8"/>
<path opacity="0.8" d="M41.1387 75.5282L43.4359 79.9528L47.8605 82.2491L43.4359 84.5463L41.1387 88.9709L38.8424 84.5463L34.417 82.2491L38.8424 79.9528L41.1387 75.5282Z" fill="#CED7D8"/>
<path opacity="0.8" d="M334.448 253.32L336.745 257.744L341.169 260.041L336.745 262.338L334.448 266.762L332.151 262.338L327.727 260.041L332.151 257.744L334.448 253.32Z" fill="#CED7D8"/>
<path opacity="0.8" d="M412.841 217.613L413.564 219.006L414.958 219.73L413.564 220.453L412.841 221.847L412.118 220.453L410.724 219.73L412.118 219.006L412.841 217.613Z" fill="#CED7D8"/>
<path opacity="0.8" d="M51.5366 373.629L52.2601 375.022L53.6535 375.746L52.2601 376.469L51.5366 377.863L50.8131 376.469L49.4189 375.746L50.8131 375.022L51.5366 373.629Z" fill="#CED7D8"/>
<path opacity="0.8" d="M294.037 131.728L294.399 132.424L295.095 132.786L294.399 133.148L294.037 133.845L293.675 133.148L292.979 132.786L293.675 132.424L294.037 131.728Z" fill="#CED7D8"/>
<path opacity="0.8" d="M66.81 105.089L67.3524 107.437L69.7007 107.98L67.3524 108.523L66.81 110.871L66.2668 108.523L63.9185 107.98L66.2668 107.437L66.81 105.089Z" fill="#CED7D8"/>
<path opacity="0.8" d="M257.343 18.1888L258.247 22.0962L262.154 22.9991L258.247 23.9021L257.343 27.8102L256.44 23.9021L252.533 22.9991L256.44 22.0962L257.343 18.1888Z" fill="#CED7D8"/>
<path opacity="0.8" d="M83.4324 -7.24878L84.8664 -1.04672L91.0693 0.387269L84.8664 1.82126L83.4324 8.02332L81.9993 1.82126L75.7964 0.387269L81.9993 -1.04672L83.4324 -7.24878Z" fill="#CED7D8"/>
<path opacity="0.8" d="M555.371 105.51L555.835 107.516L557.841 107.98L555.835 108.444L555.371 110.451L554.907 108.444L552.9 107.98L554.907 107.516L555.371 105.51Z" fill="#CED7D8"/>
<path opacity="0.8" d="M106.418 134.926L106.882 136.932L108.889 137.396L106.882 137.861L106.418 139.867L105.954 137.861L103.948 137.396L105.954 136.932L106.418 134.926Z" fill="#CED7D8"/>
<path opacity="0.8" d="M313.007 183.969L313.292 185.201L314.524 185.486L313.292 185.771L313.007 187.003L312.722 185.771L311.49 185.486L312.722 185.201L313.007 183.969Z" fill="#CED7D8"/>
<path opacity="0.8" d="M608.785 392.585L609.984 394.895L612.295 396.094L609.984 397.294L608.785 399.605L607.586 397.294L605.275 396.094L607.586 394.895L608.785 392.585Z" fill="#CED7D8"/>
<path opacity="0.8" d="M513.306 372.534L515.603 376.959L520.028 379.256L515.603 381.552L513.306 385.977L511.01 381.552L506.584 379.256L511.01 376.959L513.306 372.534Z" fill="white"/>
<path opacity="0.8" d="M398.528 22.999L400.824 27.4236L405.25 29.7208L400.824 32.0171L398.528 36.4425L396.231 32.0171L391.806 29.7208L396.231 27.4236L398.528 22.999Z" fill="#CED7D8"/>
<path opacity="0.8" d="M303.993 246.392L304.717 247.786L306.11 248.509L304.717 249.232L303.993 250.626L303.27 249.232L301.876 248.509L303.27 247.786L303.993 246.392Z" fill="#CED7D8"/>
<path opacity="0.8" d="M2.91767 165.109L3.64116 166.503L5.03536 167.226L3.64116 167.949L2.91767 169.343L2.19417 167.949L0.800781 167.226L2.19417 166.503L2.91767 165.109Z" fill="#CED7D8"/>
<path opacity="0.8" d="M295.095 11.7756L295.457 12.4723L296.154 12.8345L295.457 13.1958L295.095 13.8925L294.734 13.1958L294.037 12.8345L294.734 12.4723L295.095 11.7756Z" fill="#CED7D8"/>
<path opacity="0.8" d="M552.9 8.88416L553.444 11.2325L555.792 11.7757L553.444 12.3189L552.9 14.6672L552.358 12.3189L550.01 11.7757L552.358 11.2325L552.9 8.88416Z" fill="white"/>
<path opacity="0.8" d="M173.797 322.831L175.231 329.034L181.434 330.468L175.231 331.902L173.797 338.104L172.363 331.902L166.161 330.468L172.363 329.034L173.797 322.831Z" fill="#CED7D8"/>
<path opacity="0.8" d="M213.376 187.603L214.81 193.806L221.012 195.24L214.81 196.673L213.376 202.876L211.942 196.673L205.74 195.24L211.942 193.806L213.376 187.603Z" fill="#CED7D8"/>
<path opacity="0.8" d="M508.104 175.794L508.568 177.8L510.575 178.265L508.568 178.729L508.104 180.735L507.64 178.729L505.634 178.265L507.64 177.8L508.104 175.794Z" fill="#CED7D8"/>
<path opacity="0.8" d="M409.356 280.324L409.82 282.331L411.826 282.794L409.82 283.258L409.356 285.265L408.893 283.258L406.886 282.794L408.893 282.331L409.356 280.324Z" fill="#CED7D8"/>
<path opacity="0.8" d="M12.5308 131.471L12.8158 132.703L14.0476 132.988L12.8158 133.273L12.5308 134.505L12.2458 133.273L11.0132 132.988L12.2458 132.703L12.5308 131.471Z" fill="#CED7D8"/>
<path opacity="0.4" d="M610.17 88.5591L611.369 90.8692L613.68 92.0685L611.369 93.2679L610.17 95.578L608.971 93.2679L606.661 92.0685L608.971 90.8692L610.17 88.5591Z" fill="#CED7D8"/>
<path opacity="0.4" d="M35.8103 329.891L37.2564 332.678L40.044 334.124L37.2564 335.571L35.8103 338.359L34.3633 335.571L31.5757 334.124L34.3633 332.678L35.8103 329.891Z" fill="#CED7D8"/>
<path opacity="0.4" d="M442.143 113.183L442.866 114.577L444.26 115.301L442.866 116.024L442.143 117.418L441.419 116.024L440.026 115.301L441.419 114.577L442.143 113.183Z" fill="#CED7D8"/>
<path opacity="0.4" d="M266.964 314.136L267.507 316.485L269.856 317.028L267.507 317.571L266.964 319.919L266.421 317.571L264.073 317.028L266.421 316.485L266.964 314.136Z" fill="#CED7D8"/>
<path opacity="0.4" d="M474.919 371.958L475.822 375.865L479.729 376.769L475.822 377.672L474.919 381.579L474.015 377.672L470.108 376.769L474.015 375.865L474.919 371.958Z" fill="#CED7D8"/>
<path opacity="0.4" d="M355.988 85.1406L356.892 89.048L360.799 89.9517L356.892 90.8547L355.988 94.762L355.085 90.8547L351.178 89.9517L355.085 89.048L355.988 85.1406Z" fill="#CED7D8"/>
<path opacity="0.4" d="M419.658 110.713L420.122 112.719L422.129 113.183L420.122 113.648L419.658 115.654L419.194 113.648L417.188 113.183L419.194 112.719L419.658 110.713Z" fill="#CED7D8"/>
<path opacity="0.4" d="M276.712 176.436L277.175 178.444L279.182 178.907L277.175 179.371L276.712 181.377L276.248 179.371L274.242 178.907L276.248 178.444L276.712 176.436Z" fill="#CED7D8"/>
<path opacity="0.4" d="M322.895 31.1038L323.18 32.3356L324.412 32.6206L323.18 32.9056L322.895 34.1374L322.61 32.9056L321.378 32.6206L322.61 32.3356L322.895 31.1038Z" fill="#CED7D8"/>
<path opacity="0.4" d="M520.028 250.662L521.228 252.973L523.538 254.172L521.228 255.371L520.028 257.682L518.829 255.371L516.518 254.172L518.829 252.973L520.028 250.662Z" fill="#CED7D8"/>
<path opacity="0.4" d="M470.108 50.223L471.555 53.0106L474.343 54.4576L471.555 55.9046L470.108 58.6914L468.661 55.9046L465.875 54.4576L468.661 53.0106L470.108 50.223Z" fill="#CED7D8"/>
<path opacity="0.4" d="M355.988 54.4576L357.435 57.2444L360.223 58.6914L357.435 60.1384L355.988 62.926L354.541 60.1384L351.754 58.6914L354.541 57.2444L355.988 54.4576Z" fill="#CED7D8"/>
<path opacity="0.4" d="M108.888 212.517L109.612 213.912L111.005 214.635L109.612 215.359L108.888 216.752L108.165 215.359L106.771 214.635L108.165 213.912L108.888 212.517Z" fill="#CED7D8"/>
<path opacity="0.4" d="M562.719 49.9965L563.08 50.694L563.777 51.0553L563.08 51.4166L562.719 52.1142L562.356 51.4166L561.66 51.0553L562.356 50.694L562.719 49.9965Z" fill="#CED7D8"/>
<path opacity="0.4" d="M424.469 79.3577L425.012 81.7068L427.361 82.2492L425.012 82.7924L424.469 85.1407L423.926 82.7924L421.578 82.2492L423.926 81.7068L424.469 79.3577Z" fill="#CED7D8"/>
<path opacity="0.4" d="M351.754 8.02332L352.657 11.9307L356.565 12.8344L352.657 13.7374L351.754 17.6447L350.851 13.7374L346.943 12.8344L350.851 11.9307L351.754 8.02332Z" fill="white"/>
<path opacity="0.4" d="M96.3938 271.293L97.2975 275.201L101.205 276.104L97.2975 277.007L96.3938 280.915L95.4908 277.007L91.5835 276.104L95.4908 275.201L96.3938 271.293Z" fill="#CED7D8"/>
<path opacity="0.4" d="M54.0072 397.135L54.4709 399.141L56.4773 399.605L54.4709 400.068L54.0072 402.075L53.5436 400.068L51.5371 399.605L53.5436 399.141L54.0072 397.135Z" fill="#CED7D8"/>
<path opacity="0.4" d="M232.428 273.504L232.892 275.511L234.898 275.974L232.892 276.438L232.428 278.445L231.964 276.438L229.958 275.974L231.964 275.511L232.428 273.504Z" fill="#CED7D8"/>
<path opacity="0.4" d="M48.775 225.578L49.0592 226.809L50.2918 227.094L49.0592 227.379L48.775 228.611L48.4899 227.379L47.2573 227.094L48.4899 226.809L48.775 225.578Z" fill="#CED7D8"/>
<path opacity="0.4" d="M273.203 371.717L274.402 374.028L276.712 375.228L274.402 376.427L273.203 378.738L272.003 376.427L269.692 375.228L272.003 374.028L273.203 371.717Z" fill="#CED7D8"/>
<path opacity="0.4" d="M236.663 340.355L238.109 343.143L240.897 344.59L238.109 346.037L236.663 348.824L235.216 346.037L232.428 344.59L235.216 343.143L236.663 340.355Z" fill="#CED7D8"/>
<path opacity="0.4" d="M284.615 54.4576L286.062 57.2444L288.85 58.6914L286.062 60.1384L284.615 62.926L283.169 60.1384L280.381 58.6914L283.169 57.2444L284.615 54.4576Z" fill="#CED7D8"/>
<path opacity="0.4" d="M449.231 100.659L449.955 102.052L451.349 102.776L449.955 103.499L449.231 104.893L448.508 103.499L447.114 102.776L448.508 102.052L449.231 100.659Z" fill="#CED7D8"/>
<path opacity="0.4" d="M412.866 0.0861816L413.228 0.782878L413.924 1.14503L413.228 1.50637L412.866 2.20307L412.504 1.50637L411.808 1.14503L412.504 0.782878L412.866 0.0861816Z" fill="#CED7D8"/>
<path opacity="0.4" d="M17.2748 390.312L17.8181 392.661L20.1664 393.204L17.8181 393.746L17.2748 396.095L16.7324 393.746L14.3833 393.204L16.7324 392.661L17.2748 390.312Z" fill="#CED7D8"/>
<path opacity="0.4" d="M419.659 80.3304L420.562 84.2378L424.469 85.1407L420.562 86.0445L419.659 89.9518L418.755 86.0445L414.848 85.1407L418.755 84.2378L419.659 80.3304Z" fill="white"/>
<path opacity="0.4" d="M391.162 143.488L392.065 147.395L395.972 148.298L392.065 149.202L391.162 153.109L390.258 149.202L386.351 148.298L390.258 147.395L391.162 143.488Z" fill="#CED7D8"/>
<path opacity="0.4" d="M587.13 233.958L587.594 235.965L589.6 236.428L587.594 236.892L587.13 238.898L586.667 236.892L584.66 236.428L586.667 235.965L587.13 233.958Z" fill="#CED7D8"/>
<path opacity="0.4" d="M257.344 40.6049L257.807 42.6113L259.814 43.0758L257.807 43.5394L257.344 45.5459L256.88 43.5394L254.874 43.0758L256.88 42.6113L257.344 40.6049Z" fill="#CED7D8"/>
<path opacity="0.4" d="M405.25 193.722L405.534 194.955L406.766 195.24L405.534 195.525L405.25 196.756L404.965 195.525L403.732 195.24L404.965 194.955L405.25 193.722Z" fill="#CED7D8"/>
<path opacity="0.4" d="M386.35 148.298L387.55 150.609L389.861 151.808L387.55 153.008L386.35 155.318L385.151 153.008L382.841 151.808L385.151 150.609L386.35 148.298Z" fill="#CED7D8"/>
<path opacity="0.4" d="M101.607 368.3L103.054 371.087L105.841 372.534L103.054 373.981L101.607 376.769L100.16 373.981L97.3721 372.534L100.16 371.087L101.607 368.3Z" fill="white"/>
<path opacity="0.4" d="M391.161 80.1323L391.885 81.5257L393.278 82.2492L391.885 82.9727L391.161 84.3669L390.438 82.9727L389.043 82.2492L390.438 81.5257L391.161 80.1323Z" fill="#CED7D8"/>
<path opacity="0.4" d="M463.18 25.6925L463.904 27.0859L465.298 27.8102L463.904 28.5329L463.18 29.9271L462.457 28.5329L461.063 27.8102L462.457 27.0859L463.18 25.6925Z" fill="#CED7D8"/>
<path opacity="0.4" d="M437.908 11.7756L438.27 12.4723L438.967 12.8345L438.27 13.1958L437.908 13.8925L437.547 13.1958L436.85 12.8345L437.547 12.4723L437.908 11.7756Z" fill="#CED7D8"/>
<path opacity="0.4" d="M17.2748 306.5L17.8181 308.848L20.1664 309.392L17.8181 309.935L17.2748 312.283L16.7324 309.935L14.3833 309.392L16.7324 308.848L17.2748 306.5Z" fill="#CED7D8"/>
<path opacity="0.4" d="M470.108 123.165L471.012 127.072L474.919 127.975L471.012 128.879L470.108 132.786L469.205 128.879L465.298 127.975L469.205 127.072L470.108 123.165Z" fill="#CED7D8"/>
<path opacity="0.4" d="M262.154 275.291L263.057 279.198L266.965 280.101L263.057 281.005L262.154 284.911L261.251 281.005L257.343 280.101L261.251 279.198L262.154 275.291Z" fill="#CED7D8"/>
<path opacity="0.4" d="M428.983 134.505L429.447 136.511L431.453 136.975L429.447 137.439L428.983 139.446L428.519 137.439L426.512 136.975L428.519 136.511L428.983 134.505Z" fill="#CED7D8"/>
<path opacity="0.4" d="M520.029 67.6526L520.492 69.659L522.499 70.1227L520.492 70.5863L520.029 72.5928L519.565 70.5863L517.558 70.1227L519.565 69.659L520.029 67.6526Z" fill="#CED7D8"/>
<path opacity="0.4" d="M239.554 228.107L239.839 229.339L241.072 229.624L239.839 229.909L239.554 231.141L239.27 229.909L238.037 229.624L239.27 229.339L239.554 228.107Z" fill="#CED7D8"/>
<path opacity="0.4" d="M339.825 302.99L341.025 305.301L343.336 306.5L341.025 307.699L339.825 310.01L338.626 307.699L336.316 306.5L338.626 305.301L339.825 302.99Z" fill="#CED7D8"/>
<path opacity="0.4" d="M599.214 -6.33447L601.511 -1.90988L605.936 0.387264L601.511 2.6836L599.214 7.109L596.917 2.6836L592.493 0.387264L596.917 -1.90988L599.214 -6.33447Z" fill="#CED7D8"/>
<path opacity="0.4" d="M493.153 22.999L495.449 27.4236L499.874 29.7208L495.449 32.0171L493.153 36.4425L490.856 32.0171L486.431 29.7208L490.856 27.4236L493.153 22.999Z" fill="#CED7D8"/>
<path opacity="0.4" d="M322.895 278.56L323.618 279.954L325.012 280.678L323.618 281.401L322.895 282.794L322.171 281.401L320.778 280.678L322.171 279.954L322.895 278.56Z" fill="#CED7D8"/>
<path opacity="0.4" d="M375.146 98.6832L375.509 99.3799L376.205 99.7413L375.509 100.103L375.146 100.8L374.785 100.103L374.088 99.7413L374.785 99.3799L375.146 98.6832Z" fill="#CED7D8"/>
<path opacity="0.4" d="M262.154 197.898L263.057 201.806L266.965 202.709L263.057 203.612L262.154 207.52L261.251 203.612L257.343 202.709L261.251 201.806L262.154 197.898Z" fill="#CED7D8"/>
<path opacity="0.4" d="M41.1385 272.465L42.5725 278.667L48.7754 280.101L42.5725 281.535L41.1385 287.737L39.7045 281.535L33.5024 280.101L39.7045 278.667L41.1385 272.465Z" fill="white"/>
<path opacity="0.4" d="M280.562 224.683L281.025 226.689L283.032 227.154L281.025 227.617L280.562 229.624L280.097 227.617L278.091 227.154L280.097 226.689L280.562 224.683Z" fill="#CED7D8"/>
<path opacity="0.4" d="M218.186 238.192L218.651 240.199L220.657 240.663L218.651 241.127L218.186 243.133L217.723 241.127L215.716 240.663L217.723 240.199L218.186 238.192Z" fill="#CED7D8"/>
<path opacity="0.4" d="M481.827 34.8373L482.112 36.0691L483.345 36.3541L482.112 36.6391L481.827 37.8709L481.542 36.6391L480.311 36.3541L481.542 36.0691L481.827 34.8373Z" fill="white"/>
</g>
<mask id="mask1_64_74789" style="mask-type:luminance" maskUnits="userSpaceOnUse" x="609" y="0" width="609" height="406">
<path d="M609 406L1218 406L1218 0L609 -5.32405e-05L609 406Z" fill="white"/>
</mask>
<g mask="url(#mask1_64_74789)">
<path d="M779.404 88.555L766.652 88.9723L779.404 89.3897L775.404 93.6592L779.674 89.6601L780.092 102.412L780.508 89.6601L784.779 93.6592L780.78 89.3897L793.531 88.9723L780.78 88.555L784.779 84.2847L780.508 88.2846L780.092 75.5321L779.674 88.2846L775.404 84.2847L779.404 88.555Z" fill="#CED7D8"/>
<path d="M630.929 341.415L625.507 341.593L630.929 341.77L629.229 343.586L631.044 341.885L631.222 347.309L631.399 341.885L633.216 343.586L631.515 341.77L636.938 341.593L631.515 341.415L633.216 339.599L631.399 341.301L631.222 335.877L631.044 341.301L629.229 339.599L630.929 341.415Z" fill="#CED7D8"/>
<path d="M636.371 33.1223L625.875 33.4657L636.371 33.8092L633.08 37.3244L636.595 34.0317L636.938 44.5284L637.281 34.0317L640.796 37.3244L637.504 33.8092L648 33.4657L637.504 33.1223L640.796 29.6071L637.281 32.8998L636.938 22.4031L636.595 32.8998L633.08 29.6071L636.371 33.1223Z" fill="#CED7D8"/>
<path d="M682.956 253.608L665.1 254.192L682.956 254.776L677.356 260.756L683.335 255.155L683.919 273.012L684.504 255.155L690.483 260.756L684.882 254.776L702.74 254.192L684.882 253.608L690.483 247.628L684.504 253.229L683.919 235.372L683.335 253.229L677.356 247.628L682.956 253.608Z" fill="#CED7D8"/>
<path d="M929.346 312.76C929.346 300.723 928.422 298.943 924.309 303.056C928.422 298.943 926.642 298.02 914.605 298.02C926.642 298.02 928.421 297.096 924.309 292.983C928.422 297.096 929.346 295.316 929.346 283.28C929.346 295.316 930.27 297.095 934.383 292.983C930.27 297.096 932.05 298.02 944.086 298.02C932.05 298.02 930.271 298.944 934.383 303.056C930.269 298.943 929.346 300.723 929.346 312.76Z" fill="#CED7D8"/>
<path d="M883.263 228.212C883.263 220.137 882.644 218.944 879.885 221.703C882.644 218.944 881.449 218.324 873.376 218.324C881.45 218.324 882.644 217.704 879.885 214.945C882.644 217.704 883.263 216.51 883.263 208.436C883.263 216.511 883.883 217.704 886.642 214.945C883.883 217.704 885.077 218.324 893.152 218.324C885.077 218.324 883.884 218.944 886.642 221.703C883.883 218.944 883.263 220.137 883.263 228.212Z" fill="#CED7D8"/>
<path d="M904.992 75.5321C904.992 67.4576 904.373 66.2639 901.613 69.0231C904.373 66.2639 903.178 65.6444 895.104 65.6444C903.179 65.6444 904.373 65.0248 901.613 62.2657C904.373 65.0248 904.992 63.8304 904.992 55.7559C904.992 63.8304 905.612 65.024 908.371 62.2657C905.612 65.0248 906.806 65.6444 914.88 65.6444C906.805 65.6444 905.612 66.2639 908.371 69.0231C905.613 66.2639 904.992 67.4584 904.992 75.5321Z" fill="#CED7D8"/>
<path d="M1033.08 162.007C1033.08 156.59 1032.66 155.789 1030.81 157.64C1032.66 155.789 1031.86 155.374 1026.44 155.374C1031.86 155.374 1032.66 154.958 1030.81 153.107C1032.66 154.958 1033.08 154.157 1033.08 148.741C1033.08 154.157 1033.49 154.958 1035.34 153.107C1033.49 154.958 1034.29 155.374 1039.71 155.374C1034.29 155.374 1033.49 155.789 1035.34 157.64C1033.49 155.789 1033.08 156.591 1033.08 162.007Z" fill="#CED7D8"/>
<path d="M1134.57 369.557C1134.57 364.141 1134.15 363.34 1132.3 365.19C1134.15 363.34 1133.35 362.924 1127.93 362.924C1133.35 362.924 1134.15 362.508 1132.3 360.658C1134.15 362.508 1134.57 361.708 1134.57 356.291C1134.57 361.708 1134.98 362.508 1136.83 360.658C1134.98 362.508 1135.78 362.924 1141.2 362.924C1135.78 362.924 1134.98 363.34 1136.83 365.19C1134.98 363.34 1134.57 364.141 1134.57 369.557Z" fill="#CED7D8"/>
<path d="M727.935 85.5538L726.736 83.2437L724.425 82.0444L726.736 80.845L727.935 78.5341L729.134 80.845L731.444 82.0444L729.134 83.2437L727.935 85.5538Z" fill="#CED7D8"/>
<path d="M1111.58 243.008L1110.14 240.22L1107.35 238.774L1110.14 237.327L1111.58 234.54L1113.03 237.327L1115.82 238.774L1113.03 240.22L1111.58 243.008Z" fill="white"/>
<path d="M1019.13 125.899L1016.84 121.474L1012.41 119.177L1016.84 116.881L1019.13 112.455L1021.43 116.881L1025.86 119.177L1021.43 121.474L1019.13 125.899Z" fill="#CED7D8"/>
<path d="M854.225 59.293L853.502 57.8988L852.109 57.1761L853.502 56.4526L854.225 55.0584L854.949 56.4526L856.342 57.1761L854.949 57.8988L854.225 59.293Z" fill="#CED7D8"/>
<path d="M640.359 134.269L639.636 132.876L638.242 132.152L639.636 131.429L640.359 130.034L641.083 131.429L642.476 132.152L641.083 132.876L640.359 134.269Z" fill="#CED7D8"/>
<path d="M734.656 244.067L734.294 243.37L733.597 243.008L734.294 242.647L734.656 241.95L735.018 242.647L735.714 243.008L735.018 243.37L734.656 244.067Z" fill="#CED7D8"/>
<path d="M1089.25 385.892L1088.71 383.544L1086.36 383.001L1088.71 382.458L1089.25 380.109L1089.8 382.458L1092.15 383.001L1089.8 383.544L1089.25 385.892Z" fill="#CED7D8"/>
<path d="M1047.61 356.354L1046.7 352.446L1042.79 351.542L1046.7 350.639L1047.61 346.732L1048.51 350.639L1052.42 351.542L1048.51 352.446L1047.61 356.354Z" fill="#CED7D8"/>
<path d="M867.905 164.419L867.001 160.511L863.093 159.608L867.001 158.705L867.905 154.798L868.807 158.705L872.715 159.608L868.807 160.511L867.905 164.419Z" fill="#CED7D8"/>
<path d="M839.555 214.161L839.092 212.154L837.085 211.69L839.092 211.226L839.555 209.22L840.019 211.226L842.025 211.69L840.019 212.154L839.555 214.161Z" fill="#CED7D8"/>
<path d="M1044.2 42.2874L1043.74 40.2809L1041.73 39.8173L1043.74 39.3536L1044.2 37.3471L1044.67 39.3536L1046.67 39.8173L1044.67 40.2809L1044.2 42.2874Z" fill="#CED7D8"/>
<path d="M944.847 275.904L944.562 274.671L943.33 274.386L944.562 274.102L944.847 272.869L945.132 274.102L946.364 274.386L945.132 274.671L944.847 275.904Z" fill="#CED7D8"/>
<path d="M889.608 43.3275L888.409 41.0166L886.099 39.8172L888.409 38.6179L889.608 36.3078L890.808 38.6179L893.119 39.8172L890.808 41.0166L889.608 43.3275Z" fill="#CED7D8"/>
<path d="M860.948 203.291L858.65 198.866L854.226 196.57L858.65 194.272L860.948 189.848L863.244 194.272L867.668 196.57L863.244 198.866L860.948 203.291Z" fill="#CED7D8"/>
<path d="M1193.09 49.009L1190.79 44.5845L1186.37 42.2873L1190.79 39.991L1193.09 35.5664L1195.38 39.991L1199.81 42.2873L1195.38 44.5845L1193.09 49.009Z" fill="#CED7D8"/>
<path d="M616.298 220.514L615.575 219.121L614.181 218.397L615.575 217.674L616.298 216.279L617.022 217.674L618.415 218.397L617.022 219.121L616.298 220.514Z" fill="#CED7D8"/>
<path d="M1004.62 4.57642L1003.9 3.18305L1002.51 2.45954L1003.9 1.73605L1004.62 0.342656L1005.35 1.73605L1006.74 2.45954L1005.35 3.18305L1004.62 4.57642Z" fill="white"/>
<path d="M1053.47 217.338L1053.11 216.642L1052.42 216.279L1053.11 215.918L1053.47 215.221L1053.84 215.918L1054.53 216.279L1053.84 216.642L1053.47 217.338Z" fill="#CED7D8"/>
<path d="M867.668 274.386L867.126 272.038L864.777 271.495L867.126 270.952L867.668 268.604L868.211 270.952L870.56 271.495L868.211 272.038L867.668 274.386Z" fill="#CED7D8"/>
<path d="M826.194 60.567L825.29 56.6597L821.383 55.7559L825.29 54.853L826.194 50.9456L827.097 54.853L831.004 55.7559L827.097 56.6597L826.194 60.567Z" fill="#CED7D8"/>
<path d="M665.099 93.7826L664.196 89.8752L660.288 88.9723L664.196 88.0686L665.099 84.1612L666.002 88.0686L669.91 88.9723L666.002 89.8752L665.099 93.7826Z" fill="#CED7D8"/>
<path d="M929.824 214.161L929.361 212.154L927.354 211.69L929.361 211.226L929.824 209.22L930.289 211.226L932.295 211.69L930.289 212.154L929.824 214.161Z" fill="white"/>
<path d="M1143.81 335.413L1143.34 333.406L1141.34 332.943L1143.34 332.478L1143.81 330.472L1144.27 332.478L1146.28 332.943L1144.27 333.406L1143.81 335.413Z" fill="#CED7D8"/>
<path d="M652.811 112.455L652.526 111.224L651.295 110.938L652.526 110.653L652.811 109.422L653.096 110.653L654.328 110.938L653.096 111.224L652.811 112.455Z" fill="white"/>
<path d="M835.883 23.5325L834.684 21.2223L832.374 20.023L834.684 18.8237L835.883 16.5127L837.083 18.8237L839.394 20.023L837.083 21.2223L835.883 23.5325Z" fill="#CED7D8"/>
<path d="M618.786 374.851L616.489 370.425L612.064 368.129L616.489 365.832L618.786 361.407L621.083 365.832L625.507 368.129L621.083 370.425L618.786 374.851Z" fill="#CED7D8"/>
<path d="M686.631 363.013L684.335 358.588L679.91 356.291L684.335 353.995L686.631 349.57L688.928 353.995L693.353 356.291L688.928 358.588L686.631 363.013Z" fill="white"/>
<path d="M631.223 171.689L630.499 170.295L629.105 169.572L630.499 168.848L631.223 167.455L631.946 168.848L633.34 169.572L631.946 170.295L631.223 171.689Z" fill="#CED7D8"/>
<path d="M1098.76 167.455L1098.04 166.06L1096.65 165.337L1098.04 164.614L1098.76 163.22L1099.49 164.614L1100.88 165.337L1099.49 166.06L1098.76 167.455Z" fill="#CED7D8"/>
<path d="M911.763 122.147L911.402 121.45L910.705 121.089L911.402 120.727L911.763 120.03L912.126 120.727L912.822 121.089L912.126 121.45L911.763 122.147Z" fill="white"/>
<path d="M612.064 78.4236L611.522 76.0753L609.173 75.532L611.522 74.9896L612.064 72.6413L612.607 74.9896L614.956 75.532L612.607 76.0753L612.064 78.4236Z" fill="white"/>
<path d="M1134.57 153.945L1133.66 150.038L1129.76 149.134L1133.66 148.231L1134.57 144.324L1135.47 148.231L1139.38 149.134L1135.47 150.038L1134.57 153.945Z" fill="#CED7D8"/>
<path d="M679.91 40.3937L679.007 36.4863L675.099 35.5826L679.007 34.6796L679.91 30.7723L680.813 34.6796L684.721 35.5826L680.813 36.4863L679.91 40.3937Z" fill="#CED7D8"/>
<path d="M693.353 98.4606L692.889 96.4541L690.883 95.9897L692.889 95.526L693.353 93.5196L693.817 95.526L695.823 95.9897L693.817 96.4541L693.353 98.4606Z" fill="#CED7D8"/>
<path d="M999.814 394.578L999.349 392.571L997.343 392.107L999.349 391.643L999.814 389.636L1000.28 391.643L1002.28 392.107L1000.28 392.571L999.814 394.578Z" fill="#CED7D8"/>
<path d="M711.412 122.605L711.127 121.373L709.896 121.089L711.127 120.804L711.412 119.571L711.697 120.804L712.929 121.089L711.697 121.373L711.412 122.605Z" fill="#CED7D8"/>
<path d="M636.85 253.212L635.651 250.901L633.34 249.701L635.651 248.502L636.85 246.192L638.05 248.502L640.36 249.701L638.05 250.901L636.85 253.212Z" fill="white"/>
<path d="M727.935 311.463L725.638 307.038L721.213 304.741L725.638 302.445L727.935 298.02L730.231 302.445L734.656 304.741L730.231 307.038L727.935 311.463Z" fill="#CED7D8"/>
<path d="M916.124 13.1169L913.828 8.69235L909.403 6.39522L913.828 4.09888L916.124 -0.32653L918.421 4.09888L922.846 6.39522L918.421 8.69235L916.124 13.1169Z" fill="white"/>
<path d="M1180.07 198.687L1179.35 197.293L1177.96 196.57L1179.35 195.846L1180.07 194.452L1180.8 195.846L1182.19 196.57L1180.8 197.293L1180.07 198.687Z" fill="#CED7D8"/>
<path d="M1149.07 208.3L1148.35 206.906L1146.96 206.182L1148.35 205.459L1149.07 204.065L1149.8 205.459L1151.19 206.182L1149.8 206.906L1149.07 208.3Z" fill="#CED7D8"/>
<path d="M897.222 340.731L896.861 340.034L896.164 339.672L896.861 339.31L897.222 338.614L897.584 339.31L898.281 339.672L897.584 340.034L897.222 340.731Z" fill="#CED7D8"/>
<path d="M1146.96 184.629L1146.41 182.281L1144.06 181.738L1146.41 181.195L1146.96 178.846L1147.5 181.195L1149.85 181.738L1147.5 182.281L1146.96 184.629Z" fill="#CED7D8"/>
<path d="M1004.62 263.813L1003.72 259.906L999.813 259.003L1003.72 258.099L1004.62 254.192L1005.53 258.099L1009.43 259.003L1005.53 259.906L1004.62 263.813Z" fill="#CED7D8"/>
<path d="M1116.39 104.245L1114.96 98.0424L1108.76 96.6085L1114.96 95.1745L1116.39 88.9724L1117.83 95.1745L1124.03 96.6085L1117.83 98.0424L1116.39 104.245Z" fill="#CED7D8"/>
<path d="M665.1 146.794L664.635 144.788L662.629 144.324L664.635 143.86L665.1 141.854L665.563 143.86L667.57 144.324L665.563 144.788L665.1 146.794Z" fill="#CED7D8"/>
<path d="M1115.82 390.282L1115.35 388.276L1113.35 387.811L1115.35 387.347L1115.82 385.341L1116.28 387.347L1118.29 387.811L1116.28 388.276L1115.82 390.282Z" fill="#CED7D8"/>
<path d="M1021.73 191.365L1021.44 190.133L1020.21 189.848L1021.44 189.563L1021.73 188.331L1022.01 189.563L1023.24 189.848L1022.01 190.133L1021.73 191.365Z" fill="#CED7D8"/>
<path d="M1033.08 412.334L1030.78 407.91L1026.36 405.613L1030.78 403.316L1033.08 398.891L1035.37 403.316L1039.8 405.613L1035.37 407.91L1033.08 412.334Z" fill="#CED7D8"/>
<path d="M1208.36 205.202L1206.06 200.777L1201.64 198.48L1206.06 196.183L1208.36 191.759L1210.66 196.183L1215.08 198.48L1210.66 200.777L1208.36 205.202Z" fill="#CED7D8"/>
<path d="M1021.73 243.008L1021 241.615L1019.61 240.891L1021 240.168L1021.73 238.774L1022.45 240.168L1023.84 240.891L1022.45 241.615L1021.73 243.008Z" fill="#CED7D8"/>
<path d="M1049.72 169.572L1049 168.178L1047.61 167.455L1049 166.731L1049.72 165.337L1050.45 166.731L1051.84 167.455L1050.45 168.178L1049.72 169.572Z" fill="#CED7D8"/>
<path d="M766.652 56.8147L766.291 56.118L765.594 55.7559L766.291 55.3945L766.652 54.6978L767.014 55.3945L767.711 55.7559L767.014 56.118L766.652 56.8147Z" fill="#CED7D8"/>
<path d="M1041.61 206.182L1041.07 203.834L1038.72 203.291L1041.07 202.748L1041.61 200.4L1042.15 202.748L1044.5 203.291L1042.15 203.834L1041.61 206.182Z" fill="#CED7D8"/>
<path d="M1158.83 243.008L1157.39 236.806L1151.19 235.372L1157.39 233.938L1158.83 227.735L1160.26 233.938L1166.46 235.372L1160.26 236.806L1158.83 243.008Z" fill="#CED7D8"/>
<path d="M1200.72 354.945L1199.29 348.742L1193.09 347.309L1199.29 345.875L1200.72 339.672L1202.16 345.875L1208.36 347.309L1202.16 348.742L1200.72 354.945Z" fill="white"/>
<path d="M1101.23 332.943L1100.77 330.936L1098.76 330.472L1100.77 330.008L1101.23 328.002L1101.7 330.008L1103.7 330.472L1101.7 330.936L1101.23 332.943Z" fill="#CED7D8"/>
<path d="M1049.72 393.803L1049.26 391.796L1047.25 391.333L1049.26 390.869L1049.72 388.863L1050.19 390.869L1052.19 391.333L1050.19 391.796L1049.72 393.803Z" fill="#CED7D8"/>
<path d="M1103.7 306.259L1103.42 305.026L1102.19 304.741L1103.42 304.456L1103.7 303.224L1103.99 304.456L1105.22 304.741L1103.99 305.026L1103.7 306.259Z" fill="#CED7D8"/>
<path opacity="0.8" d="M701.482 286.344L700.283 284.034L697.972 282.835L700.283 281.636L701.482 279.325L702.682 281.636L704.992 282.835L702.682 284.034L701.482 286.344Z" fill="#CED7D8"/>
<path opacity="0.8" d="M1085.82 129.32L1084.37 126.532L1081.59 125.085L1084.37 123.638L1085.82 120.851L1087.27 123.638L1090.05 125.085L1087.27 126.532L1085.82 129.32Z" fill="#CED7D8"/>
<path opacity="0.8" d="M1137.34 115.233L1135.9 112.445L1133.11 110.998L1135.9 109.551L1137.34 106.763L1138.79 109.551L1141.58 110.998L1138.79 112.445L1137.34 115.233Z" fill="#CED7D8"/>
<path opacity="0.8" d="M791.488 146.441L790.765 145.047L789.37 144.324L790.765 143.6L791.488 142.207L792.212 143.6L793.605 144.324L792.212 145.047L791.488 146.441Z" fill="#CED7D8"/>
<path opacity="0.8" d="M966.044 29.3798L965.32 27.9855L963.927 27.2621L965.32 26.5394L966.044 25.1452L966.767 26.5394L968.161 27.2621L966.767 27.9855L966.044 29.3798Z" fill="#CED7D8"/>
<path opacity="0.8" d="M662.209 379.249L661.846 378.552L661.15 378.19L661.846 377.828L662.209 377.132L662.57 377.828L663.267 378.19L662.57 378.552L662.209 379.249Z" fill="#CED7D8"/>
<path opacity="0.8" d="M1084.85 81.4257L1084.3 79.0773L1081.95 78.5341L1084.3 77.9917L1084.85 75.6426L1085.39 77.9917L1087.74 78.5341L1085.39 79.0773L1084.85 81.4257Z" fill="#CED7D8"/>
<path opacity="0.8" d="M933.385 44.6283L932.481 40.7209L928.573 39.8172L932.481 38.9143L933.385 35.0069L934.287 38.9143L938.195 39.8172L934.287 40.7209L933.385 44.6283Z" fill="#CED7D8"/>
<path opacity="0.8" d="M1201.64 158.756L1200.74 154.848L1196.83 153.945L1200.74 153.042L1201.64 149.134L1202.54 153.042L1206.45 153.945L1202.54 154.848L1201.64 158.756Z" fill="#CED7D8"/>
<path opacity="0.8" d="M712.929 409.796L712.465 407.79L710.459 407.326L712.465 406.861L712.929 404.855L713.393 406.861L715.4 407.326L713.393 407.79L712.929 409.796Z" fill="#CED7D8"/>
<path opacity="0.8" d="M1148.3 133.18L1147.84 131.174L1145.83 130.709L1147.84 130.246L1148.3 128.239L1148.76 130.246L1150.77 130.709L1148.76 131.174L1148.3 133.18Z" fill="#CED7D8"/>
<path opacity="0.8" d="M1086.36 56.5752L1086.08 55.3434L1084.85 55.0584L1086.08 54.7733L1086.36 53.5415L1086.65 54.7733L1087.88 55.0584L1086.65 55.3434L1086.36 56.5752Z" fill="#CED7D8"/>
<path opacity="0.8" d="M805.134 175.199L803.935 172.888L801.624 171.689L803.935 170.489L805.134 168.179L806.333 170.489L808.644 171.689L806.333 172.888L805.134 175.199Z" fill="#CED7D8"/>
<path opacity="0.8" d="M612.063 125.322L610.616 122.535L607.829 121.089L610.616 119.642L612.063 116.854L613.51 119.642L616.298 121.089L613.51 122.535L612.063 125.322Z" fill="#CED7D8"/>
<path opacity="0.8" d="M835.884 178.905L834.437 176.118L831.65 174.671L834.437 173.224L835.884 170.437L837.331 173.224L840.118 174.671L837.331 176.118L835.884 178.905Z" fill="#CED7D8"/>
<path opacity="0.8" d="M1019.61 86.2791L1018.89 84.8848L1017.49 84.1614L1018.89 83.4379L1019.61 82.0445L1020.33 83.4379L1021.73 84.1614L1020.33 84.8848L1019.61 86.2791Z" fill="white"/>
<path opacity="0.8" d="M854.225 98.7253L853.502 97.3319L852.109 96.6085L853.502 95.885L854.225 94.4916L854.949 95.885L856.342 96.6085L854.949 97.3319L854.225 98.7253Z" fill="white"/>
<path opacity="0.8" d="M735.714 329.06L735.353 328.364L734.655 328.002L735.353 327.64L735.714 326.944L736.075 327.64L736.773 328.002L736.075 328.364L735.714 329.06Z" fill="#CED7D8"/>
<path opacity="0.8" d="M970.269 323.751L969.726 321.402L967.378 320.859L969.726 320.316L970.269 317.968L970.812 320.316L973.16 320.859L970.812 321.402L970.269 323.751Z" fill="#CED7D8"/>
<path opacity="0.8" d="M652.812 205.21L651.909 201.303L648.001 200.4L651.909 199.496L652.812 195.589L653.715 199.496L657.622 200.4L653.715 201.303L652.812 205.21Z" fill="#CED7D8"/>
<path opacity="0.8" d="M1193.09 383.001L1192.19 379.094L1188.28 378.19L1192.19 377.287L1193.09 373.379L1193.99 377.287L1197.9 378.19L1193.99 379.094L1193.09 383.001Z" fill="#CED7D8"/>
<path opacity="0.8" d="M906.51 174.159L906.047 172.153L904.04 171.689L906.047 171.225L906.51 169.218L906.974 171.225L908.98 171.689L906.974 172.153L906.51 174.159Z" fill="#CED7D8"/>
<path opacity="0.8" d="M1127.93 68.1146L1127.47 66.1082L1125.46 65.6445L1127.47 65.1809L1127.93 63.1744L1128.4 65.1809L1130.41 65.6445L1128.4 66.1082L1127.93 68.1146Z" fill="#CED7D8"/>
<path opacity="0.8" d="M1071.58 195.353L1071.3 194.12L1070.06 193.836L1071.3 193.551L1071.58 192.318L1071.87 193.551L1073.1 193.836L1071.87 194.12L1071.58 195.353Z" fill="#CED7D8"/>
<path opacity="0.8" d="M1064.49 137.045L1063.29 134.734L1060.98 133.535L1063.29 132.336L1064.49 130.025L1065.69 132.336L1068 133.535L1065.69 134.734L1064.49 137.045Z" fill="#CED7D8"/>
<path opacity="0.8" d="M631.223 275.729L629.776 272.942L626.989 271.495L629.776 270.048L631.223 267.261L632.67 270.048L635.457 271.495L632.67 272.942L631.223 275.729Z" fill="#CED7D8"/>
<path opacity="0.8" d="M897.222 238.774L895.776 235.987L892.988 234.54L895.776 233.093L897.222 230.305L898.669 233.093L901.457 234.54L898.669 235.987L897.222 238.774Z" fill="#CED7D8"/>
<path opacity="0.8" d="M633.34 318.166L632.617 316.772L631.223 316.048L632.617 315.325L633.34 313.931L634.064 315.325L635.457 316.048L634.064 316.772L633.34 318.166Z" fill="#CED7D8"/>
<path opacity="0.8" d="M859.895 128.016L859.171 126.622L857.778 125.899L859.171 125.175L859.895 123.782L860.618 125.175L862.012 125.899L860.618 126.622L859.895 128.016Z" fill="#CED7D8"/>
<path opacity="0.8" d="M808.644 352.601L808.283 351.904L807.585 351.542L808.283 351.181L808.644 350.484L809.006 351.181L809.703 351.542L809.006 351.904L808.644 352.601Z" fill="#CED7D8"/>
<path opacity="0.8" d="M736.173 139.937L735.63 137.588L733.281 137.045L735.63 136.502L736.173 134.154L736.715 136.502L739.064 137.045L736.715 137.588L736.173 139.937Z" fill="white"/>
<path opacity="0.8" d="M1193.09 257.702L1192.19 253.795L1188.28 252.891L1192.19 251.988L1193.09 248.081L1193.99 251.988L1197.9 252.891L1193.99 253.795L1193.09 257.702Z" fill="#CED7D8"/>
<path opacity="0.8" d="M1116.39 328.561L1115.49 324.654L1111.58 323.751L1115.49 322.847L1116.39 318.94L1117.3 322.847L1121.2 323.751L1117.3 324.654L1116.39 328.561Z" fill="#CED7D8"/>
<path opacity="0.8" d="M1015.82 43.7683L1015.36 41.7619L1013.35 41.2974L1015.36 40.8337L1015.82 38.8273L1016.28 40.8337L1018.29 41.2974L1016.28 41.7619L1015.82 43.7683Z" fill="#CED7D8"/>
<path opacity="0.8" d="M948.308 320.636L947.844 318.63L945.838 318.166L947.844 317.701L948.308 315.695L948.771 317.701L950.778 318.166L948.771 318.63L948.308 320.636Z" fill="#CED7D8"/>
<path opacity="0.8" d="M779.033 231.822L778.748 230.59L777.516 230.305L778.748 230.02L779.033 228.788L779.318 230.02L780.55 230.305L779.318 230.59L779.033 231.822Z" fill="#CED7D8"/>
<path opacity="0.8" d="M793.532 30.2542L792.332 27.9432L790.022 26.7439L792.332 25.5446L793.532 23.2344L794.731 25.5446L797.041 26.7439L794.731 27.9432L793.532 30.2542Z" fill="#CED7D8"/>
<path opacity="0.8" d="M1176.86 330.472L1174.56 326.047L1170.14 323.751L1174.56 321.454L1176.86 317.029L1179.16 321.454L1183.58 323.751L1179.16 326.047L1176.86 330.472Z" fill="#CED7D8"/>
<path opacity="0.8" d="M883.552 152.68L881.255 148.256L876.831 145.959L881.255 143.662L883.552 139.238L885.849 143.662L890.273 145.959L885.849 148.256L883.552 152.68Z" fill="#CED7D8"/>
<path opacity="0.8" d="M805.16 188.387L804.436 186.994L803.042 186.27L804.436 185.547L805.16 184.153L805.883 185.547L807.277 186.27L805.883 186.994L805.16 188.387Z" fill="#CED7D8"/>
<path opacity="0.8" d="M1166.46 32.3711L1165.74 30.9777L1164.35 30.2542L1165.74 29.5307L1166.46 28.1365L1167.19 29.5307L1168.58 30.2542L1167.19 30.9777L1166.46 32.3711Z" fill="#CED7D8"/>
<path opacity="0.8" d="M923.963 274.272L923.601 273.576L922.905 273.213L923.601 272.852L923.963 272.155L924.325 272.852L925.021 273.213L924.325 273.576L923.963 274.272Z" fill="#CED7D8"/>
<path opacity="0.8" d="M1151.19 300.911L1150.65 298.563L1148.3 298.02L1150.65 297.477L1151.19 295.129L1151.73 297.477L1154.08 298.02L1151.73 298.563L1151.19 300.911Z" fill="#CED7D8"/>
<path opacity="0.8" d="M960.657 387.811L959.754 383.904L955.846 383.001L959.754 382.098L960.657 378.19L961.56 382.098L965.468 383.001L961.56 383.904L960.657 387.811Z" fill="#CED7D8"/>
<path opacity="0.8" d="M1134.57 413.249L1133.13 407.047L1126.93 405.613L1133.13 404.179L1134.57 397.977L1136 404.179L1142.2 405.613L1136 407.047L1134.57 413.249Z" fill="#CED7D8"/>
<path opacity="0.8" d="M662.629 300.49L662.165 298.484L660.159 298.02L662.165 297.556L662.629 295.549L663.093 297.556L665.1 298.02L663.093 298.484L662.629 300.49Z" fill="#CED7D8"/>
<path opacity="0.8" d="M1111.58 271.074L1111.12 269.068L1109.11 268.604L1111.12 268.139L1111.58 266.133L1112.05 268.139L1114.05 268.604L1112.05 269.068L1111.58 271.074Z" fill="#CED7D8"/>
<path opacity="0.8" d="M904.993 222.031L904.708 220.799L903.476 220.514L904.708 220.229L904.993 218.997L905.278 220.229L906.51 220.514L905.278 220.799L904.993 222.031Z" fill="#CED7D8"/>
<path opacity="0.8" d="M609.216 13.4149L608.016 11.1048L605.705 9.90546L608.016 8.70612L609.216 6.39519L610.414 8.70612L612.725 9.90546L610.414 11.1048L609.216 13.4149Z" fill="#CED7D8"/>
<path opacity="0.8" d="M704.694 33.4657L702.397 29.0411L697.972 26.744L702.397 24.4476L704.694 20.023L706.99 24.4476L711.416 26.744L706.99 29.0411L704.694 33.4657Z" fill="white"/>
<path opacity="0.8" d="M819.472 383.001L817.176 378.576L812.75 376.279L817.176 373.983L819.472 369.557L821.769 373.983L826.194 376.279L821.769 378.576L819.472 383.001Z" fill="#CED7D8"/>
<path opacity="0.8" d="M914.007 159.608L913.283 158.214L911.89 157.491L913.283 156.768L914.007 155.374L914.73 156.768L916.124 157.491L914.73 158.214L914.007 159.608Z" fill="#CED7D8"/>
<path opacity="0.8" d="M1215.08 240.891L1214.36 239.497L1212.96 238.774L1214.36 238.051L1215.08 236.657L1215.81 238.051L1217.2 238.774L1215.81 239.497L1215.08 240.891Z" fill="#CED7D8"/>
<path opacity="0.8" d="M922.905 394.224L922.543 393.528L921.846 393.165L922.543 392.804L922.905 392.107L923.266 392.804L923.963 393.165L923.266 393.528L922.905 394.224Z" fill="#CED7D8"/>
<path opacity="0.8" d="M665.1 397.116L664.556 394.768L662.208 394.224L664.556 393.681L665.1 391.333L665.642 393.681L667.99 394.224L665.642 394.768L665.1 397.116Z" fill="white"/>
<path opacity="0.8" d="M1044.2 83.1689L1042.77 76.9661L1036.57 75.5321L1042.77 74.0981L1044.2 67.896L1045.64 74.0981L1051.84 75.5321L1045.64 76.9661L1044.2 83.1689Z" fill="#CED7D8"/>
<path opacity="0.8" d="M1004.62 218.397L1003.19 212.194L996.988 210.76L1003.19 209.327L1004.62 203.124L1006.06 209.327L1012.26 210.76L1006.06 212.194L1004.62 218.397Z" fill="#CED7D8"/>
<path opacity="0.8" d="M709.896 230.206L709.432 228.2L707.425 227.735L709.432 227.271L709.896 225.265L710.36 227.271L712.366 227.735L710.36 228.2L709.896 230.206Z" fill="#CED7D8"/>
<path opacity="0.8" d="M808.644 125.676L808.18 123.669L806.174 123.205L808.18 122.742L808.644 120.735L809.107 122.742L811.114 123.205L809.107 123.669L808.644 125.676Z" fill="#CED7D8"/>
<path opacity="0.8" d="M1205.47 274.529L1205.18 273.297L1203.95 273.012L1205.18 272.727L1205.47 271.495L1205.75 272.727L1206.99 273.012L1205.75 273.297L1205.47 274.529Z" fill="#CED7D8"/>
<path opacity="0.4" d="M607.83 317.441L606.631 315.131L604.32 313.931L606.631 312.732L607.83 310.422L609.029 312.732L611.339 313.931L609.029 315.131L607.83 317.441Z" fill="#CED7D8"/>
<path opacity="0.4" d="M1182.19 76.1095L1180.74 73.3219L1177.96 71.8757L1180.74 70.4287L1182.19 67.6412L1183.64 70.4287L1186.42 71.8757L1183.64 73.3219L1182.19 76.1095Z" fill="#CED7D8"/>
<path opacity="0.4" d="M775.857 292.817L775.134 291.423L773.74 290.699L775.134 289.976L775.857 288.582L776.581 289.976L777.974 290.699L776.581 291.423L775.857 292.817Z" fill="#CED7D8"/>
<path opacity="0.4" d="M951.036 91.8639L950.493 89.5148L948.144 88.9724L950.493 88.4291L951.036 86.0808L951.579 88.4291L953.927 88.9724L951.579 89.5148L951.036 91.8639Z" fill="#CED7D8"/>
<path opacity="0.4" d="M743.081 34.0421L742.178 30.1348L738.271 29.231L742.178 28.3281L743.081 24.4207L743.985 28.3281L747.892 29.231L743.985 30.1348L743.081 34.0421Z" fill="#CED7D8"/>
<path opacity="0.4" d="M862.012 320.859L861.108 316.952L857.201 316.048L861.108 315.145L862.012 311.238L862.915 315.145L866.822 316.048L862.915 316.952L862.012 320.859Z" fill="#CED7D8"/>
<path opacity="0.4" d="M798.342 295.287L797.878 293.281L795.871 292.817L797.878 292.352L798.342 290.346L798.806 292.352L800.813 292.817L798.806 293.281L798.342 295.287Z" fill="#CED7D8"/>
<path opacity="0.4" d="M941.288 229.564L940.825 227.556L938.818 227.093L940.825 226.629L941.288 224.623L941.752 226.629L943.758 227.093L941.752 227.556L941.288 229.564Z" fill="#CED7D8"/>
<path opacity="0.4" d="M895.105 374.896L894.82 373.664L893.588 373.379L894.82 373.094L895.105 371.863L895.39 373.094L896.622 373.379L895.39 373.664L895.105 374.896Z" fill="#CED7D8"/>
<path opacity="0.4" d="M697.972 155.338L696.772 153.027L694.462 151.828L696.772 150.629L697.972 148.318L699.171 150.629L701.482 151.828L699.171 153.027L697.972 155.338Z" fill="#CED7D8"/>
<path opacity="0.4" d="M747.892 355.777L746.445 352.989L743.657 351.542L746.445 350.095L747.892 347.309L749.339 350.095L752.125 351.542L749.339 352.989L747.892 355.777Z" fill="#CED7D8"/>
<path opacity="0.4" d="M862.012 351.542L860.565 348.756L857.777 347.309L860.565 345.862L862.012 343.074L863.459 345.862L866.246 347.309L863.459 348.756L862.012 351.542Z" fill="#CED7D8"/>
<path opacity="0.4" d="M1109.11 193.482L1108.39 192.088L1106.99 191.365L1108.39 190.641L1109.11 189.248L1109.84 190.641L1111.23 191.365L1109.84 192.088L1109.11 193.482Z" fill="#CED7D8"/>
<path opacity="0.4" d="M655.281 356.003L654.92 355.306L654.223 354.945L654.92 354.583L655.281 353.886L655.644 354.583L656.34 354.945L655.644 355.306L655.281 356.003Z" fill="#CED7D8"/>
<path opacity="0.4" d="M793.531 326.642L792.988 324.293L790.639 323.751L792.988 323.208L793.531 320.859L794.074 323.208L796.422 323.751L794.074 324.293L793.531 326.642Z" fill="#CED7D8"/>
<path opacity="0.4" d="M866.246 397.977L865.343 394.069L861.435 393.165L865.343 392.263L866.246 388.355L867.149 392.263L871.057 393.165L867.149 394.069L866.246 397.977Z" fill="white"/>
<path opacity="0.4" d="M1121.61 134.707L1120.7 130.799L1116.8 129.896L1120.7 128.993L1121.61 125.085L1122.51 128.993L1126.42 129.896L1122.51 130.799L1121.61 134.707Z" fill="#CED7D8"/>
<path opacity="0.4" d="M1163.99 8.86536L1163.53 6.8589L1161.52 6.39526L1163.53 5.93159L1163.99 3.92516L1164.46 5.93159L1166.46 6.39526L1164.46 6.8589L1163.99 8.86536Z" fill="#CED7D8"/>
<path opacity="0.4" d="M985.572 132.496L985.108 130.489L983.102 130.026L985.108 129.562L985.572 127.555L986.036 129.562L988.042 130.026L986.036 130.489L985.572 132.496Z" fill="#CED7D8"/>
<path opacity="0.4" d="M1169.23 180.422L1168.94 179.19L1167.71 178.905L1168.94 178.62L1169.23 177.389L1169.51 178.62L1170.74 178.905L1169.51 179.19L1169.23 180.422Z" fill="#CED7D8"/>
<path opacity="0.4" d="M944.797 34.2826L943.598 31.9716L941.288 30.7723L943.598 29.573L944.797 27.262L945.997 29.573L948.308 30.7723L945.997 31.9716L944.797 34.2826Z" fill="#CED7D8"/>
<path opacity="0.4" d="M981.337 65.6444L979.891 62.8568L977.103 61.4098L979.891 59.9629L981.337 57.1761L982.784 59.9629L985.572 61.4098L982.784 62.8568L981.337 65.6444Z" fill="#CED7D8"/>
<path opacity="0.4" d="M933.385 351.542L931.938 348.756L929.15 347.309L931.938 345.862L933.385 343.074L934.831 345.862L937.619 347.309L934.831 348.756L933.385 351.542Z" fill="#CED7D8"/>
<path opacity="0.4" d="M768.769 305.341L768.045 303.948L766.651 303.224L768.045 302.501L768.769 301.107L769.492 302.501L770.886 303.224L769.492 303.948L768.769 305.341Z" fill="#CED7D8"/>
<path opacity="0.4" d="M805.135 405.914L804.773 405.217L804.076 404.855L804.773 404.494L805.135 403.797L805.496 404.494L806.193 404.855L805.496 405.217L805.135 405.914Z" fill="#CED7D8"/>
<path opacity="0.4" d="M1200.73 15.6877L1200.18 13.3394L1197.83 12.7962L1200.18 12.2538L1200.73 9.90549L1201.27 12.2538L1203.62 12.7962L1201.27 13.3394L1200.73 15.6877Z" fill="#CED7D8"/>
<path opacity="0.4" d="M798.341 325.67L797.438 321.762L793.531 320.859L797.438 319.956L798.341 316.048L799.245 319.956L803.152 320.859L799.245 321.762L798.341 325.67Z" fill="white"/>
<path opacity="0.4" d="M826.838 262.512L825.935 258.605L822.028 257.702L825.935 256.798L826.838 252.891L827.742 256.798L831.649 257.702L827.742 258.605L826.838 262.512Z" fill="#CED7D8"/>
<path opacity="0.4" d="M630.87 172.042L630.406 170.035L628.4 169.572L630.406 169.108L630.87 167.101L631.333 169.108L633.34 169.572L631.333 170.035L630.87 172.042Z" fill="#CED7D8"/>
<path opacity="0.4" d="M960.656 365.395L960.193 363.389L958.186 362.924L960.193 362.461L960.656 360.454L961.12 362.461L963.126 362.924L961.12 363.389L960.656 365.395Z" fill="#CED7D8"/>
<path opacity="0.4" d="M812.75 212.278L812.466 211.045L811.234 210.76L812.466 210.475L812.75 209.243L813.035 210.475L814.268 210.76L813.035 211.045L812.75 212.278Z" fill="#CED7D8"/>
<path opacity="0.4" d="M831.65 257.702L830.45 255.391L828.139 254.192L830.45 252.992L831.65 250.682L832.849 252.992L835.159 254.192L832.849 255.391L831.65 257.702Z" fill="#CED7D8"/>
<path opacity="0.4" d="M1116.39 37.7003L1114.95 34.9127L1112.16 33.4657L1114.95 32.0188L1116.39 29.2312L1117.84 32.0188L1120.63 33.4657L1117.84 34.9127L1116.39 37.7003Z" fill="white"/>
<path opacity="0.4" d="M826.839 325.868L826.115 324.474L824.722 323.751L826.115 323.027L826.839 321.633L827.562 323.027L828.957 323.751L827.562 324.474L826.839 325.868Z" fill="#CED7D8"/>
<path opacity="0.4" d="M754.82 380.307L754.096 378.914L752.702 378.19L754.096 377.467L754.82 376.073L755.543 377.467L756.937 378.19L755.543 378.914L754.82 380.307Z" fill="#CED7D8"/>
<path opacity="0.4" d="M780.092 394.224L779.73 393.528L779.033 393.165L779.73 392.804L780.092 392.107L780.453 392.804L781.15 393.165L780.453 393.528L780.092 394.224Z" fill="#CED7D8"/>
<path opacity="0.4" d="M1200.73 99.5L1200.18 97.1517L1197.83 96.6085L1200.18 96.0653L1200.73 93.717L1201.27 96.0653L1203.62 96.6085L1201.27 97.1517L1200.73 99.5Z" fill="#CED7D8"/>
<path opacity="0.4" d="M747.892 282.835L746.988 278.928L743.081 278.025L746.988 277.121L747.892 273.214L748.795 277.121L752.702 278.025L748.795 278.928L747.892 282.835Z" fill="#CED7D8"/>
<path opacity="0.4" d="M955.846 130.709L954.943 126.802L951.035 125.899L954.943 124.995L955.846 121.089L956.749 124.995L960.657 125.899L956.749 126.802L955.846 130.709Z" fill="#CED7D8"/>
<path opacity="0.4" d="M789.017 271.495L788.553 269.489L786.547 269.024L788.553 268.561L789.017 266.554L789.481 268.561L791.488 269.024L789.481 269.489L789.017 271.495Z" fill="#CED7D8"/>
<path opacity="0.4" d="M697.971 338.347L697.508 336.341L695.501 335.877L697.508 335.414L697.971 333.407L698.435 335.414L700.442 335.877L698.435 336.341L697.971 338.347Z" fill="#CED7D8"/>
<path opacity="0.4" d="M978.446 177.893L978.161 176.661L976.928 176.376L978.161 176.091L978.446 174.859L978.73 176.091L979.963 176.376L978.73 176.661L978.446 177.893Z" fill="#CED7D8"/>
<path opacity="0.4" d="M878.175 103.01L876.975 100.699L874.664 99.5L876.975 98.3007L878.175 95.9898L879.374 98.3007L881.684 99.5L879.374 100.699L878.175 103.01Z" fill="#CED7D8"/>
<path opacity="0.4" d="M618.786 412.334L616.489 407.91L612.064 405.613L616.489 403.316L618.786 398.891L621.083 403.316L625.507 405.613L621.083 407.91L618.786 412.334Z" fill="#CED7D8"/>
<path opacity="0.4" d="M724.847 383.001L722.551 378.576L718.126 376.279L722.551 373.983L724.847 369.557L727.144 373.983L731.569 376.279L727.144 378.576L724.847 383.001Z" fill="#CED7D8"/>
<path opacity="0.4" d="M895.105 127.44L894.382 126.046L892.988 125.322L894.382 124.599L895.105 123.206L895.829 124.599L897.222 125.322L895.829 126.046L895.105 127.44Z" fill="#CED7D8"/>
<path opacity="0.4" d="M842.854 307.317L842.491 306.62L841.795 306.259L842.491 305.897L842.854 305.2L843.215 305.897L843.912 306.259L843.215 306.62L842.854 307.317Z" fill="#CED7D8"/>
<path opacity="0.4" d="M955.846 208.102L954.943 204.194L951.035 203.291L954.943 202.388L955.846 198.48L956.749 202.388L960.657 203.291L956.749 204.194L955.846 208.102Z" fill="#CED7D8"/>
<path opacity="0.4" d="M1176.86 133.535L1175.43 127.333L1169.22 125.899L1175.43 124.465L1176.86 118.263L1178.3 124.465L1184.5 125.899L1178.3 127.333L1176.86 133.535Z" fill="white"/>
<path opacity="0.4" d="M937.438 181.317L936.975 179.311L934.968 178.846L936.975 178.383L937.438 176.376L937.903 178.383L939.909 178.846L937.903 179.311L937.438 181.317Z" fill="#CED7D8"/>
<path opacity="0.4" d="M999.814 167.808L999.349 165.801L997.343 165.337L999.349 164.873L999.814 162.867L1000.28 164.873L1002.28 165.337L1000.28 165.801L999.814 167.808Z" fill="#CED7D8"/>
<path opacity="0.4" d="M736.173 371.163L735.888 369.931L734.655 369.646L735.888 369.361L736.173 368.129L736.458 369.361L737.689 369.646L736.458 369.931L736.173 371.163Z" fill="white"/>
</g>
<mask id="mask2_64_74789" style="mask-type:luminance" maskUnits="userSpaceOnUse" x="1218" y="0" width="609" height="406">
<path d="M1827 0H1218V406H1827V0Z" fill="white"/>
</mask>
<g mask="url(#mask2_64_74789)">
<path d="M1242.91 356.991L1245.21 361.416L1249.63 363.713L1245.21 366.009L1242.91 370.434L1240.62 366.009L1236.19 363.713L1240.62 361.416L1242.91 356.991Z" fill="#CED7D8"/>
<path d="M1255.93 207.313L1256.65 208.707L1258.04 209.43L1256.65 210.154L1255.93 211.548L1255.2 210.154L1253.81 209.43L1255.2 208.707L1255.93 207.313Z" fill="#CED7D8"/>
<path d="M1227.64 200.798L1229.94 205.223L1234.36 207.52L1229.94 209.817L1227.64 214.241L1225.34 209.817L1220.92 207.52L1225.34 205.223L1227.64 200.798Z" fill="#CED7D8"/>
<path d="M1277.17 162.992L1278.61 169.194L1284.81 170.628L1278.61 172.062L1277.17 178.265L1275.74 172.062L1269.54 170.628L1275.74 169.194L1277.17 162.992Z" fill="#CED7D8"/>
<path d="M1235.28 51.0553L1236.71 57.2582L1242.91 58.6913L1236.71 60.1253L1235.28 66.3282L1233.84 60.1253L1227.64 58.6913L1233.84 57.2582L1235.28 51.0553Z" fill="white"/>
<path opacity="0.8" d="M1234.36 247.244L1235.26 251.152L1239.17 252.055L1235.26 252.958L1234.36 256.866L1233.46 252.958L1229.55 252.055L1233.46 251.152L1234.36 247.244Z" fill="#CED7D8"/>
<path opacity="0.8" d="M1242.91 22.999L1243.81 26.9064L1247.72 27.8101L1243.81 28.7131L1242.91 32.6204L1242.01 28.7131L1238.1 27.8101L1242.01 26.9064L1242.91 22.999Z" fill="#CED7D8"/>
<path opacity="0.8" d="M1242.91 148.298L1243.81 152.205L1247.72 153.109L1243.81 154.012L1242.91 157.919L1242.01 154.012L1238.1 153.109L1242.01 152.205L1242.91 148.298Z" fill="#CED7D8"/>
<path opacity="0.8" d="M1259.14 75.5282L1261.44 79.9528L1265.86 82.2491L1261.44 84.5463L1259.14 88.9709L1256.84 84.5463L1252.42 82.2491L1256.84 79.9528L1259.14 75.5282Z" fill="#CED7D8"/>
<path opacity="0.8" d="M1269.54 373.629L1270.26 375.022L1271.65 375.746L1270.26 376.469L1269.54 377.863L1268.81 376.469L1267.42 375.746L1268.81 375.022L1269.54 373.629Z" fill="#CED7D8"/>
<path opacity="0.8" d="M1220.92 165.109L1221.64 166.503L1223.04 167.226L1221.64 167.949L1220.92 169.343L1220.19 167.949L1218.8 167.226L1220.19 166.503L1220.92 165.109Z" fill="#CED7D8"/>
<path opacity="0.8" d="M1230.53 131.471L1230.82 132.703L1232.05 132.988L1230.82 133.273L1230.53 134.505L1230.25 133.273L1229.01 132.988L1230.25 132.703L1230.53 131.471Z" fill="#CED7D8"/>
<path opacity="0.4" d="M1253.81 329.891L1255.26 332.678L1258.04 334.124L1255.26 335.571L1253.81 338.359L1252.36 335.571L1249.58 334.124L1252.36 332.678L1253.81 329.891Z" fill="#CED7D8"/>
<path opacity="0.4" d="M1272.01 397.135L1272.47 399.141L1274.48 399.605L1272.47 400.068L1272.01 402.075L1271.54 400.068L1269.54 399.605L1271.54 399.141L1272.01 397.135Z" fill="#CED7D8"/>
<path opacity="0.4" d="M1266.77 225.578L1267.06 226.809L1268.29 227.094L1267.06 227.379L1266.77 228.611L1266.49 227.379L1265.26 227.094L1266.49 226.809L1266.77 225.578Z" fill="#CED7D8"/>
<path opacity="0.4" d="M1235.27 390.312L1235.82 392.661L1238.17 393.204L1235.82 393.746L1235.27 396.095L1234.73 393.746L1232.38 393.204L1234.73 392.661L1235.27 390.312Z" fill="#CED7D8"/>
<path opacity="0.4" d="M1235.27 306.5L1235.82 308.848L1238.17 309.392L1235.82 309.935L1235.27 312.283L1234.73 309.935L1232.38 309.392L1234.73 308.848L1235.27 306.5Z" fill="#CED7D8"/>
<path opacity="0.4" d="M1259.14 272.465L1260.57 278.667L1266.78 280.101L1260.57 281.535L1259.14 287.737L1257.7 281.535L1251.5 280.101L1257.7 278.667L1259.14 272.465Z" fill="white"/>
</g>
</g>
</g>
<defs>
<clipPath id="clip0_64_74789">
<rect width="1280" height="406" fill="white"/>
</clipPath>
</defs>
</svg>
