<svg width="150" height="208" viewBox="0 0 150 208" fill="none" xmlns="http://www.w3.org/2000/svg">
<path d="M75.4878 126.394C75.4878 126.398 75.4868 126.403 75.4868 126.407C75.4868 133.762 82.7183 139.725 91.64 139.725C100.561 139.725 107.792 133.762 107.792 126.407C107.792 126.403 107.791 126.398 107.791 126.394H75.4878Z" fill="#8A4117"/>
<path d="M91.6405 117.803C82.7198 117.803 75.4873 121.649 75.4873 126.394C75.4873 131.14 82.7198 134.987 91.6405 134.987C100.561 134.987 107.793 131.14 107.793 126.394C107.793 121.649 100.561 117.803 91.6405 117.803Z" fill="#BA653F"/>
<path d="M102.659 121.14C102.71 121.405 102.738 121.673 102.738 121.945C102.738 126.204 96.245 129.658 88.2371 129.658C83.8232 129.658 79.8782 128.606 77.2178 126.951C77.9744 130.833 84.1417 133.86 91.6402 133.86C99.6481 133.86 106.141 130.407 106.141 126.147C106.141 124.234 104.826 122.488 102.659 121.14Z" fill="#8A4117"/>
<path opacity="0.8" d="M102.738 121.946C102.738 121.674 102.71 121.406 102.659 121.141C99.9993 119.486 96.0532 118.434 91.6403 118.434C83.6314 118.434 77.1387 121.887 77.1387 126.147C77.1387 126.419 77.1664 126.687 77.2178 126.951C79.8772 128.606 83.8233 129.658 88.2372 129.658C96.2461 129.659 102.738 126.206 102.738 121.946Z" fill="#8A4117"/>
<path d="M79.4369 121.538C79.4102 121.538 79.3835 121.533 79.3577 121.522C79.2529 121.478 79.2015 121.357 79.245 121.251L91.6796 81.1422L104.394 121.25C104.439 121.355 104.389 121.477 104.283 121.522C104.176 121.565 104.056 121.518 104.011 121.411L91.6836 82.2182L79.6287 121.41C79.5951 121.489 79.518 121.538 79.4369 121.538Z" fill="#362813"/>
<path d="M103.208 132.028C103.118 132.028 103.034 131.969 103.009 131.878L91.6798 82.4319L80.4369 131.877C80.4063 131.987 80.2905 132.051 80.1807 132.019C80.071 131.989 80.0067 131.873 80.0383 131.763L91.6778 80.9237L103.406 131.763C103.438 131.873 103.375 131.988 103.265 132.019C103.245 132.026 103.226 132.028 103.208 132.028Z" fill="#362813"/>
<path d="M0.000965816 82.5095C0.000965816 82.5135 0 82.5184 0 82.5224C0 89.8775 7.2315 95.8402 16.1522 95.8402C25.073 95.8402 32.3046 89.8775 32.3046 82.5224C32.3046 82.5184 32.3036 82.5135 32.3036 82.5095H0.000965816Z" fill="#8A4117"/>
<path d="M16.1533 73.9182C7.23253 73.9182 0 77.7643 0 82.5105C0 87.2557 7.23154 91.1029 16.1533 91.1029C25.074 91.1029 32.3055 87.2557 32.3055 82.5105C32.3055 77.7643 25.074 73.9182 16.1533 73.9182Z" fill="#BA653F"/>
<path d="M27.1714 77.2552C27.2228 77.5192 27.2505 77.7883 27.2505 78.0602C27.2505 82.3198 20.7578 85.7734 12.7499 85.7734C8.336 85.7734 4.39087 84.7211 1.73047 83.0665C2.48705 86.9483 8.6544 89.9756 16.152 89.9756C24.1599 89.9756 30.6527 86.5221 30.6527 82.2625C30.6537 80.3498 29.3383 78.6032 27.1714 77.2552Z" fill="#8A4117"/>
<path opacity="0.8" d="M27.2506 78.0617C27.2506 77.7897 27.2229 77.5217 27.1714 77.2567C24.512 75.6021 20.5659 74.5498 16.153 74.5498C8.14415 74.5498 1.65137 78.0024 1.65137 82.263C1.65137 82.535 1.67908 82.803 1.7305 83.067C4.38991 84.7216 8.33603 85.7739 12.7499 85.7739C20.7588 85.7749 27.2506 82.3213 27.2506 78.0617Z" fill="#8A4117"/>
<path d="M3.94971 77.6555C3.92301 77.6555 3.89629 77.6505 3.87058 77.6397C3.76475 77.5961 3.7143 77.4745 3.75782 77.3687L16.1925 37.2599L28.907 77.3677C28.9515 77.4735 28.9021 77.5952 28.7973 77.6397C28.6895 77.6832 28.5698 77.6357 28.5253 77.5289L16.1974 38.336L4.14258 77.5269C4.10796 77.607 4.03081 77.6555 3.94971 77.6555Z" fill="#362813"/>
<path d="M27.7207 88.1475C27.6307 88.1475 27.5476 88.0881 27.5219 87.9971L16.193 38.5513L4.95005 87.9961C4.91939 88.1059 4.80371 88.1702 4.69393 88.1386C4.58415 88.1079 4.51988 87.9932 4.55153 87.8824L16.191 37.0431L27.9195 87.8824C27.9512 87.9922 27.8879 88.1069 27.7781 88.1386C27.7583 88.1445 27.7395 88.1475 27.7207 88.1475Z" fill="#362813"/>
<path d="M13.6764 34.6247L50.4661 62.4204V50.7404L13.6764 29.4998L12.3047 30.3978L13.6764 34.6247Z" fill="#F4A817"/>
<path d="M12.3047 35.5212L49.0943 63.3179V51.6369L12.3047 30.3972V35.5212Z" fill="#FFC641"/>
<path d="M54.9614 132.853C44.0449 132.853 35.1943 137.56 35.1943 143.367C35.1943 149.174 44.0439 153.881 54.9614 153.881C65.8779 153.881 74.7275 149.174 74.7275 143.367C74.7275 137.56 65.8779 132.853 54.9614 132.853Z" fill="#F4A817"/>
<path d="M74.7275 140.991H35.1943V143.368H74.7275V140.991Z" fill="#F4A817"/>
<path d="M54.9614 130.751C44.0449 130.751 35.1943 135.458 35.1943 141.265C35.1943 147.071 44.0439 151.779 54.9614 151.779C65.8779 151.779 74.7275 147.071 74.7275 141.265C74.7275 135.458 65.8779 130.751 54.9614 130.751Z" fill="#FFC641"/>
<path d="M54.961 131.102C45.6713 131.102 38.1401 135.107 38.1401 140.049C38.1401 144.99 45.6713 148.997 54.961 148.997C64.2506 148.997 71.7818 144.99 71.7818 140.049C71.7818 135.108 64.2506 131.102 54.961 131.102Z" fill="#F4A817"/>
<path opacity="0.5" d="M54.9615 130.549C46.8696 130.549 40.3096 134.038 40.3096 138.343C40.3096 142.647 46.8696 146.136 54.9615 146.136C63.0535 146.136 69.6135 142.646 69.6135 138.343C69.6135 134.038 63.0535 130.549 54.9615 130.549Z" fill="#FFC641"/>
<path d="M54.9571 132.328C51.6528 132.328 48.9746 133.752 48.9746 135.51C48.9746 137.267 51.6528 138.691 54.9571 138.691C58.2613 138.691 60.9395 137.266 60.9395 135.51C60.9385 133.752 58.2603 132.328 54.9571 132.328Z" fill="#F4A817"/>
<path d="M60.9167 133.795H48.9746V135.248H60.9167V133.795Z" fill="#F4A817"/>
<path d="M54.9571 130.611C51.6528 130.611 48.9746 132.035 48.9746 133.793C48.9746 135.55 51.6528 136.974 54.9571 136.974C58.2613 136.974 60.9395 135.549 60.9395 133.793C60.9385 132.036 58.2603 130.611 54.9571 130.611Z" fill="#FFC641"/>
<path d="M54.9573 131.764C53.5727 131.764 52.4502 132.362 52.4502 133.097C52.4502 133.834 53.5727 134.431 54.9573 134.431C56.3419 134.431 57.4643 133.833 57.4643 133.097C57.4643 132.362 56.3419 131.764 54.9573 131.764Z" fill="#F4A817"/>
<path d="M57.4668 67.8629H52.4526V133.068H57.4668V67.8629Z" fill="#F4A817"/>
<path d="M54.9597 66.5283C53.5751 66.5283 52.4526 67.1256 52.4526 67.8614C52.4526 68.5982 53.5751 69.1946 54.9597 69.1946C56.3443 69.1946 57.4668 68.5973 57.4668 67.8614C57.4668 67.1256 56.3443 66.5283 54.9597 66.5283Z" fill="#FFC641"/>
<path d="M55.602 68.1653L57.9628 69.5281C59.2534 70.2728 60.3315 69.5865 60.4521 67.9437L61.3462 55.7702C61.4836 53.894 60.3304 51.5383 58.8568 50.6877L54.3134 48.0649C52.7992 47.1907 51.6332 48.2973 51.8359 50.4148L53.1236 63.8483C53.2917 65.5978 54.3509 67.4423 55.602 68.1653Z" fill="#EA940A"/>
<path d="M48.335 50.4236L52.7439 47.9006L59.5076 69.6981L55.0809 72.2378L48.335 50.4236Z" fill="#EA940A"/>
<path d="M51.1833 70.6944L53.544 72.0572C54.8347 72.8019 55.9127 72.1156 56.0334 70.4729L56.9274 58.2993C57.0649 56.4232 55.9117 54.0674 54.4381 53.2169L49.8946 50.594C48.3805 49.7198 47.2135 50.8265 47.4172 52.9439L48.7049 66.3774C48.873 68.1279 49.9313 69.9724 51.1833 70.6944Z" fill="#FFC641"/>
<path opacity="0.5" d="M50.3512 68.6329L52.1927 69.6961C53.1995 70.2766 54.0402 69.7416 54.1351 68.4598L54.8324 58.9635C54.9402 57.4998 54.0402 55.6622 52.891 54.9986L49.3474 52.9524C48.1665 52.2709 47.2567 53.1334 47.4149 54.786L48.4197 65.2654C48.5493 66.6302 49.3751 68.0692 50.3512 68.6329Z" fill="#F4A817"/>
<path d="M54.8398 49.1282C53.1882 49.1282 51.8491 49.8403 51.8491 50.7195C51.8491 51.5978 53.1882 52.3108 54.8398 52.3108C56.4915 52.3108 57.8306 51.5988 57.8306 50.7195C57.8306 49.8403 56.4915 49.1282 54.8398 49.1282Z" fill="#F4A817"/>
<path d="M57.8206 49.8628H51.8491V50.5887H57.8206V49.8628Z" fill="#F4A817"/>
<path d="M54.8398 48.2698C53.1882 48.2698 51.8491 48.9818 51.8491 49.8611C51.8491 50.7393 53.1882 51.4524 54.8398 51.4524C56.4915 51.4524 57.8306 50.7403 57.8306 49.8611C57.8306 48.9818 56.4915 48.2698 54.8398 48.2698Z" fill="#FFC641"/>
<path d="M54.8424 48.8479C54.1501 48.8479 53.5884 49.1466 53.5884 49.5145C53.5884 49.8824 54.1501 50.1811 54.8424 50.1811C55.5347 50.1811 56.0965 49.8824 56.0965 49.5145C56.0955 49.1466 55.5347 48.8479 54.8424 48.8479Z" fill="#EA940A"/>
<path d="M56.0955 41.6196H53.5884V49.5127H56.0955V41.6196Z" fill="#EA940A"/>
<path d="M54.8424 40.9533C54.1501 40.9533 53.5884 41.252 53.5884 41.6199C53.5884 41.9878 54.1501 42.2865 54.8424 42.2865C55.5347 42.2865 56.0965 41.9878 56.0965 41.6199C56.0955 41.251 55.5347 40.9533 54.8424 40.9533Z" fill="#FFC641"/>
<path d="M54.8341 46.5533C56.0839 46.5533 57.097 46.0145 57.097 45.3497C57.097 44.685 56.0839 44.1461 54.8341 44.1461C53.5844 44.1461 52.5713 44.685 52.5713 45.3497C52.5713 46.0145 53.5844 46.5533 54.8341 46.5533Z" fill="#F4A817"/>
<path d="M57.0996 45.4164L52.5808 45.4312L51.937 39.7504H57.7474L57.0996 45.4164Z" fill="#F4A817"/>
<path d="M54.8416 38.2068C53.2375 38.2068 51.937 38.8991 51.937 39.7516C51.937 40.6051 53.2375 41.2974 54.8416 41.2974C56.4458 41.2974 57.7463 40.6051 57.7463 39.7516C57.7463 38.8991 56.4458 38.2068 54.8416 38.2068Z" fill="#FFC641"/>
<path opacity="0.5" d="M54.8345 38.2036C53.6962 38.2036 52.7725 38.6952 52.7725 39.3004C52.7725 39.9057 53.6952 40.3972 54.8345 40.3972C55.9739 40.3972 56.8966 39.9057 56.8966 39.3004C56.8966 38.6952 55.9729 38.2036 54.8345 38.2036Z" fill="#F4A817"/>
<path d="M96.2424 82.2696L59.4528 67.585L58.0811 56.8019L59.4528 55.9039L96.2424 77.1446V82.2696Z" fill="#F4A817"/>
<path d="M94.8707 83.1664L58.0811 68.4818V56.8018L94.8707 78.0424V83.1664Z" fill="#FFC641"/>
<path d="M94.8691 78.0438V83.1678L96.2409 82.2707V77.1458L94.8691 78.0438Z" fill="#EA940A"/>
<path d="M140.321 165.392C171.547 187.316 108.961 221.023 81.3528 202.365C53.7446 183.707 118.333 149.954 140.321 165.392Z" fill="black" fill-opacity="0.3"/>
<path d="M122.761 66.7512L139.998 77.8077L146.418 68.9178L128.337 57.5686C127.012 34.7755 123.696 31.7434 123.696 31.7434L120.658 30.021C121.843 32.3372 124.682 48.5925 122.944 53.549C122.172 55.7389 122.323 60.3543 122.761 66.7512Z" fill="#D31F5E"/>
<path d="M139.024 75.7184C139.024 77.8598 140.654 78.6831 142.753 77.6745C142.888 77.6156 143.022 77.5398 143.155 77.464C145.431 76.1459 147.286 73.2233 147.286 70.9471C147.286 70.5681 147.236 70.2417 147.143 69.9469C146.707 68.5867 145.322 68.1677 143.625 68.9552C143.473 69.0226 143.313 69.1068 143.155 69.1994C141.466 70.1743 140.022 72.0209 139.376 73.836C139.15 74.4824 139.024 75.1204 139.024 75.7184Z" fill="#22202E"/>
<path d="M125.798 86.4782C125.789 86.4319 125.76 86.2803 125.732 86.0444C125.779 86.1855 125.798 86.3372 125.798 86.4782Z" fill="#3A3C55"/>
<path d="M125.799 86.4766C125.799 86.4853 125.799 86.4961 125.799 86.4961H125.79C125.799 86.4852 125.799 86.4853 125.799 86.4766Z" fill="#3A3C55"/>
<path d="M126.561 88.4632C126.483 87.3536 126.407 86.2734 126.329 85.2416C126.434 86.1197 126.502 86.9871 126.542 87.8947C126.55 88.0568 126.55 88.2505 126.561 88.4632Z" fill="#22202E"/>
<path d="M123.02 182.143C121.095 182.511 119.173 181.825 117.815 180.469C115.758 177.594 114.799 172.404 114.231 171.202C113.5 169.631 113.125 167.824 113.125 167.824C113.125 167.824 113.323 161.242 111.769 155.999C110.213 150.759 109.727 142.435 109.727 138.94C109.727 135.444 112.241 127.197 112.241 127.197C112.241 127.197 112.854 118.307 112.669 118.048C113.008 118.202 123.816 119.928 123.816 119.928L123.373 122.935L122.938 129.437C122.938 129.437 122.239 132.511 121.544 133.493C120.845 134.465 120.459 138.801 120.232 141.528C120.004 144.256 118.383 166.42 119.51 170.174C119.739 170.941 120.992 173.101 121.994 176.154C122.99 179.205 125.201 180.991 125.201 180.991C125.77 181.589 123.373 182.075 123.02 182.143Z" fill="#F6B098"/>
<path d="M114.316 183.136L117.412 181.873L115.477 177.268L114.533 177.822L114.316 183.136Z" fill="#22202E"/>
<path d="M103.291 188.722L105.963 187.777L106.159 183.703L103.508 183.408L103.291 188.722Z" fill="#22202E"/>
<path d="M99.9106 179.04C99.9106 179.04 101.404 180.811 101.764 182.908C102.122 185.006 101.764 187.694 101.764 187.694L103.292 188.722L103.509 183.408C103.509 183.408 100.509 179.049 99.9106 179.04Z" fill="#22202E"/>
<path d="M111.277 173.172C111.277 173.172 111.277 174.779 112.789 177.322C113.876 179.152 112.789 182.108 112.789 182.108L114.318 183.136L114.535 177.821C114.535 177.821 112.141 173.557 111.277 173.172Z" fill="#22202E"/>
<path d="M114.963 187.08C114.963 187.08 117.414 189.369 116.757 191.519C116.757 191.519 116.811 192.234 114.963 192.354C113.114 192.474 105.466 191.519 104.87 190.622C104.272 189.725 104.035 184.707 102.78 182.856C101.525 181.005 99.9117 179.039 99.9117 179.039C99.9117 179.039 98.3115 176.594 100.754 173.452L111.034 186.141L114.963 187.08Z" fill="#22202E"/>
<path d="M100.755 173.453C100.755 173.453 100.953 166.871 99.3971 161.63C97.8432 156.387 97.3525 148.07 97.3525 144.574C97.3525 141.079 99.8688 132.831 99.8688 132.831C99.8688 132.831 100.498 123.605 100.288 123.674C100.079 123.744 112.905 124.91 112.905 124.91L112.233 128.361L110.565 135.07C110.565 135.07 109.866 138.146 109.167 139.123C108.468 140.102 108.089 144.435 107.86 147.162C107.63 149.889 106.158 170.511 107.744 175.074C108.209 176.415 110.508 179.675 111.195 181.246C111.852 182.751 114.964 187.082 114.964 187.082C114.964 187.082 111.252 189.07 107.626 187.897C104 186.724 102.591 178.405 101.861 176.834C101.13 175.259 100.755 173.453 100.755 173.453Z" fill="#FFD1C2"/>
<path d="M113.13 167.826C113.13 167.826 115.059 174.602 117.927 179.165C120.792 183.728 125.202 180.994 125.202 180.994C125.202 180.994 129.914 184.559 129.964 185.081C130.017 185.602 128.349 187.113 121.209 185.863C121.209 185.863 118.291 185.343 117.927 184.768C117.562 184.195 116.257 179.293 113.692 177.055C110.78 174.511 111.197 172.305 111.269 171.155C111.38 169.357 113.13 167.826 113.13 167.826Z" fill="#22202E"/>
<path d="M93.7954 38.4262L94.1344 39.2032C94.1344 39.2032 94.9009 39.6222 95.2483 41.7405C95.2778 41.9384 95.2988 42.1679 95.3283 42.3974C95.3872 42.9743 95.4483 43.5723 95.5178 44.2292C95.5978 44.8967 95.6673 45.5832 95.7557 46.2991C96.4316 52.279 97.3981 59.6128 98.3035 61.8427C98.8109 63.0871 99.1984 64.4389 99.4679 65.7928C99.8153 67.4541 99.9964 69.086 100.034 70.4293C100.074 71.4148 100.024 72.2506 99.9248 72.8381C99.8343 73.295 99.5164 73.893 99.0889 74.51C99.07 74.5289 99.0594 74.5605 99.0383 74.5794C98.7688 74.9584 98.472 75.3543 98.1519 75.7333C98.0319 75.8828 97.8929 76.0323 97.7729 76.1713C96.6885 77.7126 95.5347 79.8624 94.8861 82.6586C94.6082 83.823 94.4292 85.1075 94.3892 86.4993C94.3197 88.508 94.3197 91.3148 94.3787 94.45C94.3892 95.1659 94.3976 95.8924 94.4081 96.6293C94.4186 97.2273 94.4376 97.8127 94.4481 98.4212C94.6482 106.641 94.4187 115.835 94.3492 118.492C94.3197 118.502 94.2902 118.511 94.2902 118.532C94.2902 119.258 94.7471 129.148 94.7471 129.188C94.7471 131.528 96.3095 133.875 99.3942 135.657C100.5 136.303 101.742 136.832 103.066 137.238C103.285 137.308 103.534 137.377 103.774 137.436C109.655 139.068 116.919 138.472 121.796 135.655C125 133.804 126.531 131.357 126.413 128.927C126.413 128.917 126.424 128.917 126.424 128.908C126.413 128.738 127.169 99.1161 126.424 87.1752C126.424 87.1647 126.413 87.1457 126.424 87.1246C126.354 86.0402 126.274 84.9853 126.205 83.9809C126.194 83.9704 126.194 83.962 126.205 83.9515C126.055 82.7682 125.847 81.5932 125.617 80.3088C125.358 78.8959 125.059 77.3525 124.752 75.5733C124.474 73.9815 124.186 72.1812 123.906 70.1008C123.906 70.0819 123.895 70.0608 123.895 70.0419C122.861 62.0721 126.114 53.7129 126.82 50.1713C127.517 46.5981 126.213 45.1452 124.293 41.6836C122.781 38.9779 122.263 33.5644 121.337 31.1366C121.337 31.1261 121.337 31.1177 121.337 31.1177C121.168 30.7387 120.819 30.3618 120.65 30.0228L116.869 29.2668H112.302L104.42 30.0038L103.913 30.3134C103.915 30.307 94.8398 37.7988 93.7954 38.4262Z" fill="#22202E"/>
<path d="M119.438 60.8857C119.438 60.8857 122.026 81.31 119.438 82.9229C116.853 84.5358 102.221 85.8708 97.5968 78.796C97.5968 78.796 95.289 75.9471 95.4806 75.9239C95.6723 75.9028 98.3674 67.8089 98.3674 67.8089L92.7876 39.9076L99.9761 33.536C99.9761 33.536 108.146 42.7185 108.384 43.1228C108.622 43.5271 115.059 49.2775 115.059 49.2775L119.438 60.8857Z" fill="#ED117B"/>
<path d="M94.2879 103.586C94.448 104.95 97.4653 107.153 97.0884 107.597C96.8904 108.351 98.1601 109.835 98.1601 109.835C98.1601 109.835 98.1601 109.835 98.1517 109.835C97.878 109.759 93.0035 108.424 92.1276 107.944H92.1192C91.3106 107.483 90.9147 105.891 90.8768 105.695C90.8663 105.687 90.8663 105.677 90.8663 105.677C90.2662 104.681 90.2788 98.3827 90.4052 98.3827V98.3743C90.4052 98.2985 90.3863 97.7994 90.3673 96.9993C90.3568 96.774 90.3484 96.5298 90.3484 96.2645C90.3378 96.256 90.3378 96.256 90.3378 96.2455V96.0202C90.3294 95.7949 90.3294 95.5486 90.3189 95.3043C90.1967 90.0803 90.0746 79.6702 90.8748 75.6253C90.8748 75.6253 90.9505 59.5027 91.3253 54.7967C91.6917 50.0991 96.7831 49.1221 96.7831 49.1221L101.253 54.9294C101.253 54.9294 100.474 60.1871 99.6888 64.5099C98.8276 69.2475 98.1349 74.0125 97.5916 78.7964C97.1263 82.9023 96.5262 87.6799 95.8797 91.5121C95.6165 93.0555 95.446 94.2789 95.3533 95.3528C95.326 95.6076 95.3071 95.8518 95.2965 96.0876C95.2881 96.1529 95.2776 96.2203 95.2776 96.2855C95.2586 96.5403 95.2502 96.7846 95.2397 97.0204C95.2207 97.4815 95.2102 97.9342 95.2102 98.3848L95.5344 99.1365C95.6165 100.893 94.1763 102.56 94.2879 103.586Z" fill="#FFD1C2"/>
<path d="M122.761 14.2033C122.734 14.1001 122.29 12.3861 121.397 11.1817C121.066 10.7396 120.681 10.3627 120.23 10.1563C120.043 10.0721 119.853 10.0236 119.647 10.0047C119.647 10.0047 119.506 10.3332 118.931 10.8996C118.649 11.068 118.367 11.1817 118.101 11.2575C117.735 11.2385 117.377 11.266 117.038 11.4176C115.777 11.4365 114.684 10.9564 113.715 11.5502C112.199 12.4914 111.437 13.2262 110.252 15.7761C109.772 16.8015 107.277 15.8035 106.422 16.6226C106.544 15.5129 105.952 10.1563 105.952 10.1563L118.828 8.55603C118.828 8.55603 122.471 9.95833 122.669 11.7376C122.713 12.2176 122.751 13.1126 122.761 14.2033Z" fill="#FFD1C2"/>
<path d="M105.876 138.603C105.884 138.816 105.821 139.044 105.695 139.271C105.562 139.498 105.396 139.679 105.215 139.783L102.189 141.52C102.008 141.629 101.844 141.646 101.717 141.566C101.591 141.488 101.521 141.339 101.521 141.134V141.126L101.654 137.706L101.701 136.174L102.244 121.561V121.512C102.252 121.449 102.221 121.394 102.181 121.38L101.559 121.011L101.591 120.525C101.629 119.998 101.999 119.386 102.44 119.133L104.309 118.055C104.318 118.055 104.333 118.046 104.341 118.038C104.49 117.96 104.623 117.943 104.735 117.992C104.749 117.992 104.758 118 104.781 118.015C104.804 118.032 104.827 118.046 104.853 118.07C104.869 118.093 104.893 118.116 104.907 118.147C104.916 118.164 104.922 118.179 104.93 118.194C104.939 118.217 104.947 118.24 104.954 118.272C104.962 118.312 104.968 118.358 104.968 118.406L105.04 119.916L105.048 120.137L105.876 138.603Z" fill="#002879"/>
<path d="M105.876 138.603C105.884 138.816 105.821 139.044 105.695 139.271C105.562 139.498 105.396 139.679 105.215 139.783L102.189 141.52C102.008 141.629 101.844 141.646 101.717 141.566C101.591 141.488 101.521 141.339 101.521 141.134V141.126L101.654 137.706L101.701 136.174L102.244 121.561V121.512C102.252 121.449 102.221 121.394 102.181 121.38L101.559 121.011L101.591 120.525C101.629 119.998 101.999 119.386 102.44 119.133L104.309 118.055C104.318 118.055 104.333 118.046 104.341 118.038C104.49 117.96 104.623 117.943 104.735 117.992C104.749 117.992 104.758 118 104.781 118.015C104.804 118.032 104.827 118.046 104.853 118.07C104.869 118.093 104.893 118.116 104.907 118.147C104.916 118.164 104.922 118.179 104.93 118.194C104.939 118.217 104.947 118.24 104.954 118.272C104.962 118.312 104.968 118.358 104.968 118.406L105.04 119.916L105.048 120.137L105.876 138.603Z" fill="#002879"/>
<path d="M105.876 138.603C105.884 138.816 105.821 139.044 105.695 139.271C105.562 139.498 105.396 139.679 105.215 139.783L102.189 141.52C102.008 141.629 101.844 141.646 101.717 141.566C101.591 141.488 101.521 141.339 101.521 141.134V141.126L101.654 137.706L101.701 136.174L102.244 121.561V121.512C102.252 121.449 102.221 121.394 102.181 121.38L101.559 121.011L101.591 120.525C101.629 119.998 101.999 119.386 102.44 119.133L104.309 118.055C104.318 118.055 104.333 118.046 104.341 118.038C104.49 117.96 104.623 117.943 104.735 117.992C104.749 117.992 104.758 118 104.781 118.015C104.804 118.032 104.827 118.046 104.853 118.07C104.869 118.093 104.893 118.116 104.907 118.147C104.916 118.164 104.922 118.179 104.93 118.194C104.939 118.217 104.947 118.24 104.954 118.272C104.962 118.312 104.968 118.358 104.968 118.406L105.04 119.916L105.048 120.137L105.876 138.603Z" fill="#3A3C55"/>
<path d="M105.876 138.603C105.884 138.816 105.821 139.044 105.695 139.271C105.562 139.498 105.396 139.679 105.215 139.783L102.189 141.52C102.008 141.629 101.844 141.646 101.717 141.566C101.591 141.488 101.521 141.339 101.521 141.134V141.126L101.654 137.706L101.701 136.174L102.244 121.561V121.512C102.252 121.449 102.221 121.394 102.181 121.38L101.559 121.011L101.591 120.525C101.629 119.998 101.999 119.386 102.44 119.133L104.309 118.055C104.318 118.055 104.333 118.046 104.341 118.038C104.49 117.96 104.623 117.943 104.735 117.992C104.749 117.992 104.758 118 104.781 118.015C104.804 118.032 104.827 118.046 104.853 118.07C104.869 118.093 104.893 118.116 104.907 118.147C104.916 118.164 104.922 118.179 104.93 118.194C104.939 118.217 104.947 118.24 104.954 118.272C104.962 118.312 104.968 118.358 104.968 118.406L105.04 119.916L105.048 120.137L105.876 138.603Z" fill="#22202E"/>
<path d="M102.181 121.38C102.141 121.363 102.088 121.363 102.025 121.397C101.926 121.456 101.84 121.611 101.833 121.734L101.311 135.953L101.252 137.479L101.13 140.907L101.117 141.221L101.111 141.349C101.105 141.686 101.214 141.947 101.418 142.07L80.9751 130.188C80.773 130.065 80.6614 129.804 80.6677 129.467L80.8994 123.195L85.3948 125.806V125.812L100.391 134.525L100.397 134.531H100.404C100.439 134.548 100.49 134.548 100.555 134.521C100.654 134.462 100.747 134.312 100.753 134.184L101.53 121.561L101.553 121.125L101.56 121.016L102.181 121.38Z" fill="#22202E"/>
<path d="M100.405 134.532H100.399L100.392 134.525C100.382 134.513 100.369 134.502 100.362 134.485C100.375 134.504 100.386 134.521 100.405 134.532Z" fill="#005389"/>
<path d="M100.405 134.532H100.398L100.392 134.525C100.381 134.512 100.368 134.502 100.362 134.485C100.375 134.504 100.385 134.521 100.405 134.532Z" fill="#005389"/>
<path d="M105.029 117.488C105.023 117.488 105.023 117.488 105.016 117.488C104.888 117.425 104.732 117.425 104.557 117.477C104.477 117.5 104.389 117.534 104.303 117.587L104.17 117.663L103.926 117.801L102.435 118.665L84.5963 108.297L81.9917 106.783L83.8594 105.703C84.1605 105.534 84.4342 105.517 84.6321 105.627L105.029 117.488Z" fill="#22202E"/>
<path d="M102.444 118.7C101.791 119.077 101.242 119.982 101.193 120.759V120.831L101.185 120.941L101.162 121.372L100.36 134.421V134.444C100.36 134.475 100.36 134.499 100.376 134.522C100.385 134.539 100.391 134.553 100.408 134.562L91.8003 129.563L91.3518 129.304L87.7049 127.19L85.4098 125.853V125.844L80.9143 123.236L79.971 122.686C79.931 122.663 79.9078 122.615 79.9163 122.545L80.7501 108.884C80.7985 108.113 81.3544 107.201 82.0008 106.825L84.6097 108.334L102.444 118.7Z" fill="#3A3C55"/>
<path d="M106.287 138.349C106.3 138.674 106.195 139.063 105.99 139.427C105.782 139.792 105.508 140.082 105.213 140.251L102.196 141.996C101.901 142.165 101.628 142.188 101.419 142.066C101.217 141.944 101.105 141.683 101.112 141.346L101.118 141.217L101.131 140.904L101.253 137.476L101.312 135.949L101.834 121.73C101.84 121.608 101.927 121.452 102.025 121.393C102.089 121.357 102.141 121.357 102.181 121.376C102.221 121.393 102.251 121.446 102.244 121.515L101.705 136.174L101.653 137.707L101.524 141.125V141.131C101.518 141.333 101.588 141.485 101.716 141.567C101.842 141.643 102.013 141.626 102.192 141.52L105.213 139.779C105.392 139.674 105.561 139.495 105.696 139.27C105.818 139.044 105.881 138.811 105.875 138.602L104.967 118.407C104.967 118.355 104.961 118.315 104.95 118.275C104.944 118.245 104.938 118.222 104.927 118.199C104.921 118.182 104.917 118.163 104.904 118.146C104.893 118.117 104.87 118.094 104.851 118.07C104.828 118.047 104.805 118.024 104.775 118.011C104.759 117.999 104.746 117.995 104.735 117.988C104.626 117.948 104.491 117.959 104.342 118.041C104.331 118.047 104.319 118.051 104.306 118.058L102.438 119.132C101.998 119.386 101.625 119.997 101.592 120.523L101.558 121.01L101.552 121.119L101.529 121.555L100.752 134.178C100.745 134.307 100.653 134.456 100.554 134.515C100.49 134.545 100.438 134.545 100.402 134.526C100.385 134.515 100.373 134.496 100.362 134.479C100.349 134.456 100.345 134.433 100.345 134.403V134.38L101.145 121.332V121.326L101.175 120.896L101.181 120.787L101.185 120.717C101.232 119.94 101.783 119.035 102.432 118.658L103.923 117.794L104.167 117.656L104.3 117.58C104.386 117.527 104.474 117.493 104.554 117.47C104.729 117.418 104.885 117.424 105.013 117.481C105.02 117.481 105.02 117.481 105.026 117.481C105.234 117.58 105.369 117.805 105.38 118.142L106.287 138.349Z" fill="#22202E"/>
<path d="M100.409 134.533H100.402L100.396 134.527C100.385 134.514 100.372 134.503 100.366 134.486C100.379 134.505 100.389 134.522 100.409 134.533Z" fill="#005389"/>
<path d="M91.2563 131.352L91.6606 131.165C91.7385 131.118 91.7849 131.026 91.7849 130.885V130.339L91.7996 129.531L91.349 129.265L91.3342 131.116C91.3342 131.148 91.3343 131.179 91.3195 131.209C91.3195 131.224 91.3195 131.24 91.3195 131.24C91.3048 131.272 91.3047 131.304 91.2879 131.318C91.2711 131.337 91.2711 131.352 91.2563 131.352Z" fill="#FF8400"/>
<path d="M91.1616 131.26C91.1616 131.274 91.208 131.369 91.208 131.384H91.2227L91.2543 131.352C91.269 131.352 91.269 131.338 91.2858 131.321C91.3006 131.306 91.3006 131.274 91.3174 131.243C91.3174 131.243 91.3174 131.228 91.3174 131.211C91.3027 131.226 91.2858 131.243 91.2858 131.258C91.269 131.291 91.1764 131.243 91.1616 131.26Z" fill="#FF9F00"/>
<path d="M91.3418 129.265L91.3334 131.124C91.3334 131.171 91.325 131.219 91.3187 131.251C91.3019 131.282 91.2955 131.306 91.2787 131.329C91.2702 131.346 91.2619 131.352 91.2471 131.36L91.2155 131.383C91.1439 131.432 91.0344 131.432 90.9165 131.36L88.1034 129.733C87.876 129.598 87.6865 129.276 87.6865 129.017L87.6949 127.115L91.3418 129.265Z" fill="#FFAD00"/>
<path d="M88.9264 107.897L89.9182 107.32L89.9161 109.609L88.9243 110.186L88.9264 107.897Z" fill="#3A3C55"/>
<path d="M89.5714 106.5L90.5632 105.923C90.1652 106.154 89.921 106.637 89.921 107.321L88.9292 107.898C88.9313 107.216 89.1755 106.731 89.5714 106.5Z" fill="#3A3C55"/>
<path d="M89.0527 105.93L90.0445 105.353C90.4867 105.096 91.091 105.113 91.7669 105.459L90.7752 106.036C90.0993 105.69 89.4949 105.673 89.0527 105.93Z" fill="#303251"/>
<path d="M90.7759 106.035L91.7676 105.458C91.8328 105.489 91.9003 105.527 91.9656 105.565L90.9738 106.142C90.9064 106.104 90.8412 106.066 90.7759 106.035Z" fill="#303251"/>
<path d="M90.981 106.141L91.9748 105.564L95.2806 107.472L94.2868 108.049L90.981 106.141Z" fill="#3A3C55"/>
<path d="M96.9299 112.515L97.9237 111.938L97.9195 114.227L96.9277 114.804L96.9299 112.515Z" fill="#002879"/>
<path d="M94.2876 108.049L95.2793 107.472C95.3446 107.51 95.412 107.548 95.4773 107.594L94.4855 108.171C94.4202 108.127 94.355 108.089 94.2876 108.049Z" fill="#3A3C55"/>
<path d="M94.4854 108.173L95.4771 107.596C96.8521 108.48 97.928 110.39 97.9238 111.937L96.932 112.514C96.9362 110.967 95.8624 109.057 94.4854 108.173Z" fill="#002879"/>
<path d="M96.9299 112.515L97.9237 111.938L97.9195 114.227L96.9277 114.804L96.9299 112.515Z" fill="#3A3C55"/>
<path d="M94.4854 108.173L95.4771 107.596C96.8521 108.48 97.928 110.39 97.9238 111.937L96.932 112.514C96.9362 110.967 95.8624 109.057 94.4854 108.173Z" fill="#3A3C55"/>
<path d="M94.2858 108.051C94.3511 108.089 94.4185 108.127 94.4838 108.173C95.8587 109.057 96.9347 110.967 96.9304 112.515L96.9283 114.804L96.244 114.416L96.2462 112.127C96.263 111.138 95.5766 109.879 94.3743 109.106C94.3174 109.07 94.2584 109.032 94.1974 108.996L90.8958 106.863C90.8368 106.83 90.7758 106.798 90.7189 106.769C89.5166 106.154 89.0029 106.811 88.9376 107.899L88.9355 110.188L88.3164 109.834L88.3185 107.546C88.3227 106 89.405 105.335 90.7821 106.038C90.8474 106.07 90.9148 106.107 90.98 106.145L94.2858 108.051Z" fill="#22202E"/>
<path d="M102.243 121.56V121.512C102.252 121.448 102.22 121.394 102.18 121.379L101.559 121.01L101.591 120.524C101.629 119.998 101.999 119.385 102.439 119.132L104.309 118.054C104.317 118.054 104.332 118.046 104.341 118.037C104.49 117.959 104.623 117.943 104.734 117.991C104.749 117.991 104.757 117.999 104.781 118.014C104.804 118.031 104.827 118.046 104.852 118.069C104.869 118.092 104.892 118.115 104.907 118.147C104.915 118.164 104.922 118.178 104.93 118.193C104.939 118.216 104.947 118.239 104.953 118.271C104.962 118.311 104.968 118.357 104.968 118.406L105.04 119.915L105.048 120.137C103.814 120.939 102.37 121.512 102.243 121.56Z" fill="#002879"/>
<path d="M102.243 121.56V121.512C102.252 121.448 102.22 121.394 102.18 121.379L101.559 121.01L101.591 120.524C101.629 119.998 101.999 119.385 102.439 119.132L104.309 118.054C104.317 118.054 104.332 118.046 104.341 118.037C104.49 117.959 104.623 117.943 104.734 117.991C104.749 117.991 104.757 117.999 104.781 118.014C104.804 118.031 104.827 118.046 104.852 118.069C104.869 118.092 104.892 118.115 104.907 118.147C104.915 118.164 104.922 118.178 104.93 118.193C104.939 118.216 104.947 118.239 104.953 118.271C104.962 118.311 104.968 118.357 104.968 118.406L105.04 119.915L105.048 120.137C103.814 120.939 102.37 121.512 102.243 121.56Z" fill="#22202E"/>
<path d="M98.3075 111.054C97.8801 113.307 97.0336 111.551 97.0336 111.551C97.0336 111.551 96.642 108.374 95.6713 107.37C95.1217 106.803 94.1174 107.728 94.1258 107.877C94.1342 107.991 94.2332 108.49 94.4522 109.153L94.6606 109.303C95.7976 110.185 96.0566 111.158 96.0566 111.158L95.2165 111.248L95.1996 111.24C94.9027 111.082 91.0789 109.128 90.6431 108.734C90.2936 108.42 89.2471 107.111 89.1755 105.879C89.106 104.647 90.0577 100.249 90.1609 100.213L90.342 99.2947C90.6389 99.4442 90.9568 100.038 91.3064 100.116C91.997 100.255 92.7551 100.274 93.4541 100.16C93.9784 100.063 94.4753 99.899 94.9027 99.6526C95.1744 99.4947 95.3828 99.3199 95.5408 99.1283C96.0482 100.124 96.5367 101.442 96.6146 101.826C96.7346 102.466 98.735 108.804 98.3075 111.054Z" fill="#FFD1C2"/>
<path d="M114.17 31.7045C114.147 31.5677 119.851 42.521 120.455 44.496C121.059 46.4711 120.929 52.3879 120.929 52.3879L119.438 60.886C119.438 60.886 116.145 50.358 115.061 49.2778C113.976 48.1977 108.386 37.7223 108.386 37.7223C108.386 37.7223 111.422 39.1794 113.201 39.2573C113.201 39.2573 115.027 36.878 114.17 31.7045Z" fill="#DFEEFA"/>
<path d="M87.9991 98.3811C87.9991 98.3811 89.2815 65.8643 90.4101 55.0815C90.8101 51.2619 92.7389 39.9801 92.7873 39.9064C92.9936 39.1526 93.4084 38.6178 93.9832 38.3167C94.4065 38.0998 94.9244 38.005 95.4972 38.0535C95.8088 38.0998 96.1373 38.1672 96.4847 38.2788C96.87 38.3925 97.2743 38.5799 97.6997 38.8157C100.477 40.4349 102.726 43.9829 102.726 46.7602C102.726 47.1371 99.5147 66.8834 99.083 71.1031C98.3861 77.9252 97.268 98.478 97.268 98.478C97.289 98.697 97.2785 98.9138 97.2091 99.1307V99.1349C97.0385 99.6466 96.6111 100.133 95.9267 100.529C94.1054 101.582 91.1512 101.582 89.3278 100.529C88.3086 99.9393 87.8791 99.1497 87.9991 98.3811Z" fill="#D31F5E"/>
<path d="M103.064 28.3285L104.178 28.0463C104.178 28.0463 103.993 29.535 103.967 29.8171C103.967 29.8171 103.325 28.9054 103.064 28.3285Z" fill="#F3F9FF"/>
<path d="M102.623 21.6998C102.682 21.8893 103.897 22.7252 103.956 22.9337C104.204 24.0876 104.214 25.6394 104.155 27.1933C104.105 28.1977 104.035 29.2041 103.947 30.099C103.856 31.0339 103.977 31.9499 104.265 32.8258C104.684 34.0302 105.448 35.0957 106.514 35.86C108.325 37.1844 113.201 39.2542 113.201 39.2542C113.201 39.2542 115.271 34.4471 114.376 32.2278L114.197 31.7498C114.168 31.6993 114.157 31.6698 114.157 31.6698L114.168 31.6109L114.456 29.8295L114.467 29.8C114.467 29.8 115.471 30.038 116.686 29.9791C116.985 29.9685 117.303 29.9496 117.621 29.8885C117.89 29.838 118.168 29.68 118.438 29.44C119.792 28.2651 121.154 25.1109 121.931 23.2516C122.607 21.6093 122.796 17.1811 122.777 14.2165C122.777 14.2165 122.777 14.2165 122.777 14.206C122.748 14.0965 122.3 12.3846 121.415 11.1802C121.076 10.7422 120.699 10.3653 120.24 10.1548C120.051 10.0642 119.861 10.0263 119.663 10.0052C119.663 10.0052 119.514 10.3338 118.947 10.9002C118.659 11.0686 118.381 11.1781 118.111 11.2581C117.754 11.2391 117.396 11.2687 117.057 11.4182C115.793 11.4371 114.698 10.9507 113.732 11.5466C112.209 12.492 111.454 13.2184 110.268 15.7746C109.78 16.8001 107.293 15.8041 106.438 16.6211C106.409 16.8106 106.368 16.8696 106.299 16.7811C105.832 16.1452 105.562 15.1998 103.732 15.7662C101.915 16.3263 101.597 18.6951 102.623 21.6998Z" fill="#FFC9BC"/>
<path d="M122.757 6.08243C120.528 2.03546 115.379 1.07527 113.11 0.849973C112.64 0.80365 112.29 0.793109 112.122 0.784687C111.473 0.597288 110.823 0.445698 110.193 0.350946C109.244 0.20987 108.292 0.237254 107.361 0.388858C103.577 1.00159 100.209 3.78731 98.8336 6.77937C97.6945 9.28294 97.9387 11.9465 98.2314 13.4436C98.3914 14.2711 98.2587 15.1197 97.8734 15.8629L97.1006 17.3221C96.2163 19.7499 97.7134 23.2052 100.348 24.936V24.9465C100.714 26.6499 102.354 28.6377 104.02 29.0988C104.074 28.7598 104.243 27.6775 104.289 27.149C104.354 25.5971 104.188 24.0895 103.944 22.942C103.887 22.7251 102.674 21.8871 102.607 21.6997C101.581 18.6971 101.901 16.3262 103.719 15.7703C105.544 15.206 106.169 16.6378 106.233 16.802C106.296 16.9662 106.401 17.0378 106.401 17.0378C107.258 16.2188 109.77 16.8063 110.25 15.7808C111.436 13.2309 112.198 12.4961 113.714 11.5549C114.682 10.9632 115.775 11.4433 117.037 11.4222C117.376 11.4117 117.733 11.3759 118.1 11.2622C118.363 11.1864 118.645 11.0748 118.929 10.9042C119.504 10.3399 119.645 10.0094 119.645 10.0094C119.852 10.0283 120.041 10.0746 120.229 10.1609C120.681 10.3673 121.067 10.7442 121.395 11.1864C122.29 12.3908 122.732 14.1047 122.76 14.2079C122.871 14.0753 123.861 12.7403 123.937 10.6136C123.989 9.3566 123.716 7.82377 122.757 6.08243Z" fill="#FFAD00"/>
<path d="M120.152 9.51642C120.251 10.1755 120.062 10.8282 119.573 11.2683C119.085 11.6852 118.493 11.7568 118.003 11.7673C117.11 11.7778 116.103 12.0916 115.648 12.9822C115.924 12.0116 116.962 11.4283 117.941 11.2452C118.4 11.1567 118.803 10.9861 119.015 10.7124C119.22 10.4618 119.236 10.0555 119.135 9.77544L120.152 9.51642Z" fill="#FFAD00"/>
<path d="M113.196 39.2553C113.196 39.2553 111.398 37.6088 110.794 36.1433C110.794 36.1433 105.402 32.8416 103.064 28.3314L100.773 32.3132C100.773 32.3132 104.153 38.7563 110.796 40.2618V38.8111C110.796 38.8111 111.714 39.2848 113.196 39.2553Z" fill="white"/>
<path d="M108.385 37.7199C108.385 37.7199 114.262 46.9804 116.091 49.4566C118.325 52.4781 119.437 60.8837 119.437 60.8837C119.437 60.8837 114.984 51.1979 112.623 49.7177L113.198 48.5996L111.712 48.5343C111.712 48.5343 103.988 41.331 101.938 35.429L108.385 37.7199Z" fill="#D31F5E"/>
<path d="M110.795 36.1404V38.8061C110.795 38.8061 112.16 39.5663 113.198 39.2525L110.795 36.1404Z" fill="#F3F9FF"/>
<path d="M114.151 31.6623C114.151 31.6623 115.244 36.3768 113.202 39.2551L113.667 35.7746C113.667 35.7746 115.903 33.4711 114.45 29.8031L114.151 31.6623Z" fill="#F3F9FF"/>
<path d="M113.662 35.7746C113.662 35.7746 115.412 37.8086 115.749 38.7562C115.749 38.7562 116.715 31.8097 114.445 29.8031C114.445 29.8031 115.774 32.8899 113.662 35.7746Z" fill="white"/>
<path d="M108.383 37.7211C108.383 37.7211 103.351 32.4107 102.53 29.2607L99.9756 33.533L103.863 39.2561L107.36 39.3318L108.383 37.7211Z" fill="#D31F5E"/>
<path d="M120.404 47.3722C121.179 54.0596 119.44 60.886 119.44 60.886C119.44 60.886 120.286 81.0155 120.943 81.902C121.4 82.5189 123.959 81.6135 125.451 80.5881C126.009 80.2091 126.287 79.5437 126.159 78.8868C125.78 76.9854 125.045 73.3638 124.567 69.3252C124.001 64.4992 126.119 53.7122 126.826 50.1706C127.523 46.5974 126.22 45.1445 124.3 41.6829C122.788 38.9772 122.27 33.5636 121.343 31.1359C121.343 31.1254 121.343 31.1169 121.343 31.1169C121.175 30.7379 120.825 30.361 120.657 30.022C120.657 30.022 119.573 29.7041 118.438 29.4451C118.168 29.683 117.89 29.8431 117.621 29.8936C117.303 29.9525 116.985 29.9736 116.686 29.9841C115.471 30.0431 114.467 29.8052 114.467 29.8052L114.456 29.8346C114.555 30.302 115.73 35.4376 115.73 35.4376C115.73 35.4376 119.627 40.6848 120.404 47.3722Z" fill="#ED117B"/>
<path d="M114.164 31.6097L114.175 31.7003L114.194 31.7508L114.373 32.2288L115.059 34.0101C115.059 34.0101 119.975 44.3697 120.403 47.3744C120.82 50.3791 119.439 60.8881 119.439 60.8881C119.439 60.8881 122.881 49.1073 122.921 47.5154L121.917 47.128L122.702 46.1826C122.702 46.1826 118.464 33.4563 116.682 29.9821C115.467 30.041 114.463 29.8031 114.463 29.8031L114.164 31.6097Z" fill="#D31F5E"/>
<path d="M133.534 98.6208L149.324 89.5036V65.5818L133.534 74.6991V98.6208Z" fill="#DFEEFA"/>
<path d="M149.327 75.0655C149.327 75.0655 147.851 76.1436 147.79 77.4322C147.729 78.7187 147.851 81.355 148.28 81.5382C148.71 81.7214 149.327 81.7824 149.327 81.7824C149.327 81.7824 150.057 81.6245 149.996 78.424C149.935 75.2235 150.005 73.6421 149.327 73.3305V75.0655Z" fill="#F6B098"/>
<path d="M119.436 60.8864C119.499 64.0321 119.694 67.1695 119.819 70.3132C120.031 73.4505 120.455 79.1293 120.73 82.2625C120.669 79.1167 120.191 73.4421 120.067 70.3005C119.852 67.1611 119.711 64.0195 119.436 60.8864Z" fill="#22202E"/>
<path d="M116.776 72.22C116.79 72.7064 116.773 73.1992 116.653 73.6582C116.546 74.1214 116.247 74.532 115.803 74.6331C114.87 74.8921 113.912 75.0373 112.95 75.1068C111.985 75.1847 111.017 75.149 110.052 75.0584C109.09 74.9553 108.128 74.7973 107.193 74.5215C109.016 75.2227 111.01 75.4627 112.966 75.3469C113.946 75.2816 114.918 75.1048 115.862 74.8331C116.394 74.6921 116.71 74.1656 116.786 73.6856C116.881 73.1971 116.832 72.7022 116.776 72.22Z" fill="#22202E"/>
</svg>
