<svg width="139" height="224" viewBox="0 0 139 224" fill="none" xmlns="http://www.w3.org/2000/svg">
<path d="M68.0015 6.10352e-05L68.0879 63.2304L138.827 104.007L138.74 40.7765L68.0015 6.10352e-05Z" fill="#7C7CD6"/>
<path d="M59.394 4.02631L59.4806 67.2567L130.22 108.033L130.133 44.8027L59.394 4.02631Z" fill="#DBDBF3"/>
<path d="M138.74 40.7767L130.133 44.803L130.219 108.033L138.826 104.007L138.74 40.7767Z" fill="#7C7CD6"/>
<path d="M68.0013 6.10352e-05L59.394 4.02639L130.133 44.8028L138.74 40.7765L68.0013 6.10352e-05Z" fill="#AFAFE0"/>
<path d="M65.1387 27.1327L67.7732 25.6017L72.6844 27.6174L70.0501 29.1484L65.1387 27.1327Z" fill="#E09927"/>
<path d="M75.7847 37.2637L78.4191 35.7327L79.2419 41.8361L76.6077 43.3671L75.7847 37.2637Z" fill="#E09927"/>
<path d="M72.2603 25.3027L74.8947 23.7719L77.0757 30.1525L74.4414 31.6834L72.2603 25.3027Z" fill="#E09927"/>
<path d="M74.4409 31.6832L77.0752 30.1522L81.9818 33.8049L79.3475 35.3359L74.4409 31.6832Z" fill="#E4AB3C"/>
<path d="M72.2601 25.3024L74.4413 31.6832L79.3479 35.3359L75.7843 37.2639L76.6073 43.3673L72.2236 38.1787L67.8249 38.2966L68.6798 33.1622L65.1387 27.1323L70.0501 29.148L72.2601 25.3024Z" fill="#F9BB41"/>
<path d="M69.6393 29.162L69.7244 29.0142L65.1387 27.1323L65.28 27.373L69.6393 29.162Z" fill="url(#paint0_linear_68_23208)"/>
<path d="M79.3478 35.3361L74.4412 31.6833L72.26 25.3025L71.9995 25.7561L74.0304 31.6976L78.9373 35.3503L75.3737 37.2783L76.1162 42.7863L76.6072 43.3674L75.7842 37.264L79.3478 35.3361Z" fill="url(#paint1_linear_68_23208)"/>
<path d="M117.676 49.5226C117.675 49.4994 117.674 49.476 117.672 49.4523C117.671 49.4289 117.669 49.4052 117.667 49.3815C117.665 49.3579 117.662 49.3342 117.659 49.3103C117.656 49.2859 117.652 49.2614 117.649 49.237C117.648 49.2356 117.648 49.2341 117.648 49.2327C117.648 49.232 117.648 49.2315 117.648 49.2308C117.644 49.2083 117.64 49.1858 117.636 49.1631C117.631 49.1377 117.626 49.1124 117.621 49.0867C117.615 49.0611 117.609 49.0358 117.603 49.0102C117.596 48.9843 117.589 48.9584 117.582 48.9323C117.577 48.9108 117.57 48.8896 117.564 48.8683C117.563 48.8671 117.563 48.8656 117.562 48.8644C117.561 48.8613 117.56 48.8582 117.56 48.855C117.552 48.8296 117.544 48.8043 117.535 48.7791C117.527 48.754 117.518 48.7291 117.509 48.7042C117.5 48.6803 117.492 48.6562 117.482 48.6322C117.473 48.6083 117.463 48.5844 117.453 48.5607C117.445 48.5416 117.437 48.5225 117.429 48.5034C117.428 48.5022 117.428 48.501 117.427 48.4996C117.426 48.4964 117.424 48.4933 117.423 48.4901C117.412 48.4662 117.402 48.4426 117.391 48.4189C117.378 48.3928 117.366 48.3669 117.353 48.3411C117.338 48.3116 117.323 48.2821 117.307 48.2529C117.29 48.2207 117.272 48.1893 117.254 48.1577C117.251 48.1524 117.248 48.1468 117.245 48.1415C117.241 48.1354 117.238 48.1289 117.234 48.1229C117.2 48.0634 117.163 48.0052 117.125 47.9479C117.095 47.9032 117.064 47.8592 117.032 47.8162C117.032 47.8158 117.032 47.8155 117.031 47.815L117.031 47.8146C117.01 47.7856 116.988 47.7568 116.966 47.7285C116.947 47.7048 116.928 47.6814 116.909 47.6584C116.89 47.636 116.871 47.6138 116.852 47.592C116.833 47.5705 116.814 47.5492 116.795 47.5285C116.791 47.5248 116.788 47.5212 116.784 47.5176C116.783 47.5159 116.781 47.5144 116.78 47.5127C116.765 47.4968 116.75 47.4808 116.734 47.4651C116.714 47.4444 116.693 47.4238 116.672 47.4038C116.651 47.3832 116.63 47.3632 116.608 47.3439C116.586 47.3245 116.565 47.3054 116.543 47.2868C116.532 47.2779 116.521 47.2694 116.511 47.2607C116.508 47.2585 116.506 47.2566 116.503 47.2544C116.494 47.2474 116.486 47.2402 116.477 47.2334C116.456 47.2165 116.435 47.2003 116.413 47.1844C116.392 47.1689 116.371 47.1537 116.349 47.1392C116.329 47.1252 116.308 47.1114 116.287 47.0981C116.267 47.0851 116.246 47.0725 116.225 47.0602C116.221 47.0573 116.216 47.0546 116.211 47.0517L86.9521 30.245C86.9366 30.236 86.9212 30.2273 86.9059 30.2191C86.8859 30.2082 86.8661 30.1981 86.8462 30.1882C86.8264 30.1785 86.8069 30.1691 86.7873 30.1604C86.7677 30.1517 86.7484 30.1435 86.729 30.1358C86.7095 30.1278 86.6897 30.1205 86.6703 30.1135C86.666 30.1121 86.6616 30.1109 86.6573 30.1092C86.6556 30.1087 86.6541 30.1082 86.6527 30.1077C86.6389 30.1031 86.6254 30.0985 86.6119 30.0944C86.5916 30.0884 86.5715 30.0826 86.5515 30.0778C86.5312 30.0727 86.5111 30.0683 86.4913 30.0645C86.4695 30.0604 86.4483 30.0567 86.427 30.0538C86.4115 30.0517 86.3965 30.0505 86.3816 30.0492C86.3796 30.049 86.3775 30.0488 86.3755 30.0485C86.371 30.0483 86.3663 30.0473 86.3617 30.0471C86.3383 30.0454 86.3151 30.0447 86.2924 30.0447C86.2666 30.0447 86.241 30.0461 86.2161 30.0483C86.1871 30.0509 86.1588 30.055 86.1313 30.0606C86.1303 30.0608 86.1293 30.0611 86.1284 30.0613C86.1269 30.0616 86.1257 30.0623 86.1242 30.0625C86.0914 30.0695 86.059 30.078 86.0281 30.0891C85.9863 30.1039 85.9464 30.1222 85.9087 30.1444L84.3115 31.1025C84.3775 31.0641 84.45 31.037 84.5273 31.0206C84.529 31.0204 84.5299 31.0196 84.5316 31.0194C84.6092 31.0037 84.6918 30.9991 84.7786 31.0064C84.7807 31.0066 84.7827 31.0068 84.7846 31.0068C84.8711 31.0146 84.9618 31.0339 85.0555 31.0656C85.0572 31.066 85.0586 31.0665 85.0603 31.067C85.1558 31.0996 85.2542 31.1443 85.3552 31.2026L114.614 48.0093C114.714 48.0671 114.811 48.1354 114.906 48.2118C114.908 48.214 114.911 48.2161 114.914 48.2183C115.007 48.2944 115.097 48.3788 115.183 48.4699C115.184 48.4715 115.186 48.473 115.187 48.4747C115.274 48.5677 115.357 48.6673 115.435 48.7724L115.435 48.7726C115.512 48.8768 115.583 48.986 115.648 49.0986C115.651 49.1039 115.654 49.1095 115.657 49.1148C115.721 49.2259 115.779 49.3405 115.83 49.4567C115.831 49.4579 115.832 49.4593 115.832 49.4605C115.884 49.5797 115.929 49.7005 115.965 49.8215C115.966 49.8228 115.966 49.8242 115.967 49.8254C116.003 49.9467 116.032 50.068 116.051 50.1879C116.051 50.1886 116.051 50.1891 116.051 50.1898C116.07 50.3104 116.08 50.4295 116.08 50.5452C116.08 50.6593 116.069 50.7646 116.05 50.8613C116.049 50.8642 116.049 50.8671 116.048 50.87C116.029 50.9654 116.001 51.0524 115.965 51.13C115.964 51.1309 115.964 51.1322 115.963 51.1331C115.933 51.1981 115.893 51.2523 115.853 51.304C115.839 51.3209 115.826 51.3392 115.812 51.3547C115.763 51.4064 115.71 51.4528 115.651 51.4874L117.247 50.5293C117.307 50.4947 117.36 50.4486 117.409 50.3966C117.423 50.3809 117.436 50.363 117.45 50.3459C117.467 50.3234 117.487 50.3043 117.503 50.2794C117.523 50.2478 117.542 50.2142 117.559 50.1787C117.559 50.1775 117.56 50.1763 117.56 50.1751C117.561 50.1741 117.561 50.1729 117.562 50.1717C117.573 50.147 117.584 50.1217 117.594 50.0951C117.603 50.0702 117.612 50.0443 117.62 50.0178C117.627 49.9933 117.633 49.9685 117.639 49.9428C117.642 49.9327 117.643 49.9221 117.645 49.9117C117.646 49.9088 117.647 49.9059 117.647 49.9027C117.65 49.8921 117.652 49.8817 117.654 49.8708C117.658 49.8479 117.661 49.8247 117.664 49.801C117.667 49.7778 117.67 49.7544 117.672 49.7304C117.673 49.7077 117.675 49.6848 117.676 49.6616C117.677 49.6384 117.678 49.6147 117.678 49.591C117.678 49.5896 117.678 49.5881 117.678 49.5869C117.677 49.5664 117.676 49.5446 117.676 49.5226Z" fill="#ACACCD"/>
<path d="M114.614 48.0096C115.424 48.4774 116.082 49.6175 116.08 50.5458C116.077 51.4771 115.415 51.8545 114.604 51.3867L85.3457 34.58C84.5379 34.1136 83.8797 32.9736 83.8823 32.0423C83.885 31.114 84.5474 30.7365 85.3554 31.2029L114.614 48.0096Z" fill="white"/>
<path d="M114.613 48.01L85.3546 31.2033C84.9559 30.9732 84.5932 30.9493 84.3271 31.0948C84.5734 31.0237 84.8781 31.0713 85.2079 31.2617L114.467 48.0685C115.277 48.5363 115.935 49.6763 115.933 50.6046C115.931 51.0763 115.76 51.4052 115.487 51.5547C115.844 51.4518 116.078 51.0968 116.079 50.5459C116.082 49.6178 115.424 48.478 114.613 48.01Z" fill="white"/>
<path d="M117.676 56.4627C117.675 56.4395 117.674 56.416 117.672 56.3924C117.671 56.3689 117.669 56.3453 117.667 56.3216C117.665 56.2979 117.662 56.2742 117.659 56.2503C117.656 56.2259 117.652 56.2015 117.649 56.1771C117.648 56.1756 117.648 56.1742 117.648 56.1727C117.648 56.1722 117.648 56.1715 117.648 56.1708C117.644 56.1483 117.64 56.1259 117.636 56.1031C117.631 56.0778 117.626 56.0524 117.621 56.0268C117.615 56.0012 117.609 55.9758 117.603 55.9502C117.596 55.9243 117.589 55.8985 117.582 55.8724C117.577 55.8509 117.57 55.8296 117.564 55.8083C117.563 55.8071 117.563 55.8057 117.562 55.8045C117.561 55.8013 117.56 55.7982 117.56 55.7951C117.552 55.7697 117.544 55.7446 117.535 55.7192C117.527 55.6941 117.518 55.6692 117.509 55.6443C117.5 55.6204 117.492 55.5962 117.482 55.5723C117.473 55.5483 117.463 55.5244 117.453 55.5007C117.445 55.4817 117.437 55.4626 117.429 55.4435C117.428 55.4423 117.428 55.4411 117.427 55.4396C117.426 55.4365 117.424 55.4333 117.423 55.4302C117.412 55.4063 117.402 55.3826 117.391 55.3589C117.378 55.3328 117.366 55.307 117.353 55.2811C117.338 55.2516 117.323 55.2221 117.307 55.1929C117.29 55.1608 117.272 55.1294 117.254 55.0977C117.251 55.0924 117.248 55.0868 117.245 55.0815C117.241 55.0752 117.238 55.069 117.234 55.0629C117.2 55.0035 117.163 54.9452 117.125 54.888C117.095 54.8433 117.064 54.7993 117.032 54.756C117.032 54.7556 117.032 54.7553 117.032 54.7553L117.031 54.7546C117.01 54.7256 116.988 54.6968 116.966 54.6686C116.947 54.6449 116.928 54.6215 116.909 54.5985C116.89 54.576 116.871 54.5538 116.852 54.532C116.833 54.5105 116.814 54.4893 116.795 54.4685C116.791 54.4649 116.788 54.4612 116.784 54.4576C116.783 54.4559 116.781 54.4545 116.78 54.4528C116.765 54.4368 116.75 54.4209 116.734 54.4052C116.714 54.3844 116.693 54.3639 116.672 54.344C116.651 54.3235 116.63 54.3035 116.608 54.2839C116.586 54.2646 116.565 54.2455 116.543 54.2269C116.532 54.2179 116.521 54.2095 116.511 54.2008C116.508 54.1986 116.506 54.1967 116.503 54.1945C116.494 54.1875 116.486 54.1802 116.477 54.1735C116.456 54.1568 116.435 54.1404 116.413 54.1244C116.392 54.1089 116.371 54.0937 116.349 54.0792C116.329 54.0652 116.308 54.0514 116.287 54.0381C116.267 54.0251 116.246 54.0125 116.225 54.0002C116.221 53.9973 116.216 53.9946 116.211 53.9917L86.9521 37.185C86.9366 37.1761 86.9212 37.1674 86.9059 37.1592C86.8859 37.1483 86.8661 37.1381 86.8462 37.1282C86.8264 37.1183 86.8069 37.1091 86.7873 37.1004C86.7677 37.0917 86.7484 37.0835 86.729 37.0758C86.7095 37.0678 86.6897 37.0606 86.6703 37.0536C86.666 37.0521 86.6616 37.0507 86.6573 37.0492C86.6556 37.0487 86.6541 37.0482 86.6527 37.0478C86.6389 37.0432 86.6254 37.0386 86.6119 37.0345C86.5916 37.0284 86.5715 37.0229 86.5515 37.0178C86.5312 37.0127 86.5111 37.0084 86.4913 37.0045C86.4695 37.0004 86.4483 36.9968 86.427 36.9939C86.4115 36.9917 86.3965 36.9905 86.3816 36.9893C86.3796 36.989 86.3775 36.9888 86.3755 36.9886C86.371 36.9881 86.3663 36.9874 86.3617 36.9871C86.3383 36.9854 86.3151 36.9847 86.2924 36.9847C86.2666 36.9849 86.241 36.9859 86.2161 36.9883C86.1871 36.991 86.1588 36.9951 86.1313 37.0006C86.1303 37.0009 86.1293 37.0011 86.1284 37.0014C86.1269 37.0016 86.1257 37.0023 86.1242 37.0026C86.0914 37.0096 86.059 37.018 86.0281 37.0292C85.9863 37.0439 85.9464 37.0625 85.9087 37.0845L84.3115 38.0426C84.3775 38.0041 84.45 37.9771 84.5273 37.9607C84.529 37.9604 84.5299 37.9599 84.5316 37.9594C84.6092 37.9437 84.6918 37.9391 84.7786 37.9464C84.7807 37.9466 84.7827 37.9469 84.7846 37.9471C84.8711 37.9548 84.9618 37.9742 85.0555 38.0056C85.0572 38.0061 85.0586 38.0066 85.0603 38.0073C85.1558 38.0397 85.2542 38.0846 85.3552 38.1428L114.614 54.9496C114.714 55.0073 114.811 55.0755 114.906 55.1521C114.908 55.1542 114.911 55.1564 114.914 55.1586C115.007 55.2347 115.097 55.319 115.183 55.4101C115.184 55.4118 115.186 55.4133 115.187 55.415C115.274 55.508 115.357 55.6075 115.435 55.7127L115.435 55.7129C115.512 55.8171 115.583 55.9263 115.648 56.0389C115.651 56.0442 115.654 56.0497 115.657 56.055C115.721 56.1662 115.779 56.2807 115.83 56.397C115.831 56.3982 115.832 56.3994 115.832 56.4008C115.884 56.52 115.929 56.6408 115.965 56.7618C115.966 56.763 115.966 56.7645 115.967 56.7657C116.003 56.887 116.032 57.0083 116.051 57.1281C116.051 57.1289 116.051 57.1294 116.051 57.1301C116.07 57.2507 116.08 57.3698 116.08 57.4855C116.08 57.5996 116.069 57.7047 116.05 57.8016C116.049 57.8045 116.049 57.8074 116.048 57.8103C116.029 57.9057 116.001 57.9927 115.965 58.0703C115.964 58.0715 115.964 58.0724 115.963 58.0734C115.933 58.1384 115.893 58.1925 115.853 58.2442C115.839 58.2614 115.826 58.2795 115.812 58.295C115.763 58.3469 115.71 58.3928 115.651 58.4276L117.247 57.4696C117.307 57.4348 117.36 57.3889 117.409 57.3369C117.423 57.3212 117.436 57.3033 117.45 57.2862C117.467 57.2639 117.487 57.2446 117.503 57.2197C117.523 57.1881 117.542 57.1545 117.559 57.119C117.559 57.1177 117.56 57.1165 117.56 57.1153C117.561 57.1144 117.561 57.1132 117.562 57.112C117.573 57.0873 117.584 57.0619 117.594 57.0354C117.603 57.0105 117.612 56.9846 117.62 56.958C117.627 56.9336 117.633 56.9087 117.639 56.8831C117.642 56.873 117.643 56.8623 117.645 56.852C117.646 56.8491 117.647 56.8462 117.647 56.843C117.65 56.8324 117.652 56.822 117.654 56.8111C117.658 56.7884 117.661 56.765 117.664 56.7413C117.667 56.7181 117.67 56.6947 117.672 56.6707C117.673 56.648 117.675 56.6251 117.676 56.6019C117.677 56.5787 117.678 56.5552 117.678 56.5313C117.678 56.5299 117.678 56.5284 117.678 56.527C117.677 56.5064 117.676 56.4844 117.676 56.4627Z" fill="#ACACCD"/>
<path d="M114.614 54.9506C115.424 55.4184 116.082 56.5584 116.08 57.4867C116.077 58.418 115.415 58.7954 114.604 58.3276L85.3457 41.5209C84.5379 41.0545 83.8797 39.9145 83.8823 38.9832C83.885 38.0549 84.5474 37.6775 85.3554 38.1438L114.614 54.9506Z" fill="white"/>
<path d="M114.613 54.95L85.3546 38.1433C84.9559 37.9133 84.5932 37.8893 84.3271 38.0348C84.5734 37.9638 84.8781 38.0114 85.2079 38.2018L114.467 55.0085C115.277 55.4763 115.935 56.6163 115.933 57.5447C115.931 58.0163 115.76 58.3452 115.487 58.4948C115.844 58.3918 116.078 58.0366 116.079 57.486C116.082 56.5578 115.424 55.4178 114.613 54.95Z" fill="white"/>
<path d="M117.676 63.4011C117.675 63.3779 117.674 63.3545 117.672 63.3308C117.671 63.3074 117.669 63.2837 117.667 63.26C117.665 63.2363 117.662 63.2124 117.659 63.1887C117.656 63.1643 117.652 63.1399 117.649 63.1155C117.648 63.1141 117.648 63.1126 117.648 63.1112C117.648 63.1104 117.648 63.1099 117.648 63.1092C117.644 63.0868 117.64 63.0643 117.636 63.0416C117.631 63.0162 117.626 62.9908 117.621 62.9652C117.615 62.9396 117.609 62.9142 117.603 62.8886C117.596 62.8628 117.589 62.8367 117.582 62.8108C117.577 62.7895 117.57 62.768 117.564 62.7468C117.563 62.7453 117.563 62.7441 117.562 62.7429C117.561 62.7398 117.56 62.7366 117.56 62.7335C117.552 62.7081 117.544 62.683 117.535 62.6576C117.527 62.6325 117.518 62.6076 117.509 62.5827C117.5 62.5588 117.492 62.5346 117.482 62.5107C117.473 62.4868 117.463 62.4629 117.453 62.4392C117.445 62.4201 117.437 62.401 117.429 62.3819C117.428 62.3807 117.428 62.3795 117.427 62.378C117.426 62.3749 117.424 62.3718 117.423 62.3686C117.412 62.3447 117.402 62.321 117.391 62.2973C117.378 62.2712 117.366 62.2454 117.353 62.2195C117.338 62.1901 117.323 62.1606 117.307 62.1313C117.29 62.0992 117.272 62.0675 117.254 62.0361C117.251 62.0308 117.248 62.0253 117.245 62.0199C117.241 62.0137 117.238 62.0074 117.234 62.0013C117.2 61.9421 117.163 61.8837 117.125 61.8264C117.095 61.7817 117.064 61.7377 117.032 61.6947C117.032 61.6945 117.032 61.694 117.032 61.694L117.031 61.6933C117.01 61.664 116.988 61.6355 116.966 61.6072C116.947 61.5836 116.928 61.5601 116.909 61.5372C116.89 61.5147 116.871 61.4925 116.852 61.4707C116.833 61.4492 116.814 61.4279 116.795 61.4072C116.791 61.4035 116.788 61.3999 116.784 61.3963C116.783 61.3946 116.781 61.3931 116.78 61.3915C116.765 61.3755 116.75 61.3596 116.734 61.3441C116.714 61.3233 116.693 61.3028 116.672 61.2827C116.651 61.2622 116.63 61.2424 116.608 61.2228C116.586 61.2035 116.565 61.1844 116.543 61.1658C116.532 61.1568 116.521 61.1484 116.511 61.1397C116.508 61.1375 116.506 61.1356 116.503 61.1334C116.494 61.1264 116.486 61.1191 116.477 61.1124C116.456 61.0957 116.435 61.0793 116.413 61.0633C116.392 61.0479 116.371 61.0326 116.349 61.0181C116.329 61.0041 116.308 60.9904 116.287 60.9771C116.267 60.964 116.246 60.9514 116.225 60.9391C116.221 60.9362 116.216 60.9336 116.211 60.9307L86.9521 44.1239C86.9366 44.115 86.9212 44.1065 86.9059 44.0981C86.8859 44.0872 86.8661 44.077 86.8462 44.0671C86.8264 44.0575 86.8069 44.048 86.7873 44.0393C86.7677 44.0306 86.7484 44.0224 86.729 44.0145C86.7095 44.0065 86.6897 43.9992 86.6703 43.9925C86.666 43.991 86.6616 43.9896 86.6573 43.9881C86.6556 43.9876 86.6541 43.9872 86.6527 43.9867C86.6389 43.9821 86.6254 43.9775 86.6119 43.9734C86.5916 43.9673 86.5715 43.9618 86.5515 43.9567C86.5312 43.9516 86.5111 43.9473 86.4913 43.9434C86.4695 43.9393 86.4483 43.9357 86.427 43.9328C86.4115 43.9309 86.3965 43.9297 86.3816 43.9282C86.3796 43.928 86.3775 43.9277 86.3755 43.9277C86.371 43.9272 86.3663 43.9265 86.3617 43.9263C86.3383 43.9246 86.3151 43.9239 86.2924 43.9239C86.2666 43.9239 86.241 43.9251 86.2161 43.9275C86.1871 43.9301 86.1588 43.9342 86.1313 43.9398C86.1303 43.94 86.1293 43.9403 86.1284 43.9405C86.1269 43.9408 86.1257 43.9415 86.1242 43.9417C86.0914 43.9487 86.059 43.9572 86.0281 43.9681C85.9863 43.9828 85.9464 44.0014 85.9087 44.0234L84.3115 44.9815C84.3775 44.9431 84.45 44.916 84.5273 44.8996C84.529 44.8993 84.5299 44.8986 84.5316 44.8983C84.6092 44.8824 84.6918 44.8781 84.7786 44.8853C84.7807 44.8856 84.7827 44.8858 84.7846 44.886C84.8711 44.8938 84.9618 44.9131 85.0555 44.9445C85.0572 44.945 85.0586 44.9455 85.0603 44.946C85.1558 44.9783 85.2542 45.0233 85.3552 45.0815L114.614 61.8883C114.714 61.946 114.811 62.0141 114.906 62.0907C114.908 62.0929 114.911 62.0951 114.914 62.0973C115.007 62.1734 115.097 62.2577 115.183 62.3488C115.184 62.3505 115.186 62.3519 115.187 62.3536C115.274 62.4464 115.357 62.5462 115.435 62.6513L115.435 62.6516C115.512 62.7557 115.583 62.8649 115.648 62.9775C115.651 62.9829 115.654 62.9884 115.657 62.9937C115.721 63.1049 115.779 63.2192 115.83 63.3356C115.831 63.3368 115.832 63.3383 115.832 63.3395C115.884 63.4586 115.929 63.5794 115.965 63.7005C115.966 63.7017 115.966 63.7032 115.967 63.7044C116.003 63.8257 116.032 63.947 116.051 64.0668C116.051 64.0675 116.051 64.068 116.051 64.0687C116.07 64.1893 116.08 64.3084 116.08 64.4242C116.08 64.5382 116.069 64.6433 116.05 64.7402C116.049 64.7431 116.049 64.746 116.048 64.7489C116.029 64.8444 116.001 64.9314 115.965 65.0089C115.964 65.0099 115.964 65.0111 115.963 65.0121C115.933 65.0771 115.893 65.1312 115.853 65.1829C115.839 65.1998 115.826 65.2182 115.812 65.2337C115.763 65.2854 115.71 65.3318 115.651 65.3663L117.247 64.4082C117.307 64.3737 117.36 64.3275 117.409 64.2756C117.423 64.2599 117.436 64.242 117.45 64.2248C117.467 64.2024 117.487 64.1833 117.503 64.1584C117.523 64.127 117.542 64.0931 117.559 64.0576C117.559 64.0564 117.56 64.0552 117.56 64.054C117.561 64.053 117.561 64.0518 117.562 64.0506C117.573 64.026 117.584 64.0006 117.594 63.974C117.603 63.9491 117.612 63.9233 117.62 63.8967C117.627 63.8723 117.633 63.8474 117.639 63.8218C117.642 63.8116 117.643 63.801 117.645 63.7906C117.646 63.7877 117.647 63.7846 117.647 63.7817C117.65 63.7711 117.652 63.7607 117.654 63.7498C117.658 63.7271 117.661 63.7036 117.664 63.68C117.667 63.6568 117.67 63.6333 117.672 63.6094C117.673 63.5867 117.675 63.5637 117.676 63.5405C117.677 63.5173 117.678 63.4939 117.678 63.47C117.678 63.4685 117.678 63.4673 117.678 63.4659C117.677 63.4449 117.676 63.4231 117.676 63.4011Z" fill="#ACACCD"/>
<path d="M114.614 61.8888C115.424 62.3566 116.082 63.4966 116.08 64.425C116.077 65.3562 115.415 65.7337 114.604 65.2659L85.3457 48.4592C84.5379 47.9928 83.8797 46.8528 83.8823 45.9215C83.885 44.9932 84.5474 44.6157 85.3554 45.0821L114.614 61.8888Z" fill="white"/>
<path d="M114.613 61.8885L85.3546 45.0818C84.9559 44.8515 84.5932 44.8275 84.3271 44.9732C84.5734 44.9022 84.8781 44.9498 85.2079 45.1402L114.467 61.947C115.277 62.4148 115.935 63.5548 115.933 64.4831C115.931 64.9548 115.76 65.2837 115.487 65.4332C115.844 65.3303 116.078 64.9753 116.079 64.4244C116.082 63.4963 115.424 62.3565 114.613 61.8885Z" fill="white"/>
<path d="M65.1387 51.0671L67.7732 49.5362L72.6844 51.5519L70.0501 53.0828L65.1387 51.0671Z" fill="#E09927"/>
<path d="M75.7847 61.1986L78.4191 59.6676L79.2419 65.7707L76.6077 67.3017L75.7847 61.1986Z" fill="#E09927"/>
<path d="M72.2603 49.2378L74.8947 47.7068L77.0757 54.0874L74.4414 55.6183L72.2603 49.2378Z" fill="#E09927"/>
<path d="M74.4409 55.6181L77.0752 54.0871L81.9818 57.7399L79.3475 59.2708L74.4409 55.6181Z" fill="#E4AB3C"/>
<path d="M72.2601 49.2373L74.4413 55.6178L79.3479 59.2706L75.7843 61.1988L76.6073 67.302L72.2236 62.1136L67.8249 62.2316L68.6798 57.0969L65.1387 51.0669L70.0501 53.0826L72.2601 49.2373Z" fill="#F9BB41"/>
<path d="M69.6393 53.096L69.7244 52.9481L65.1387 51.0661L65.28 51.3067L69.6393 53.096Z" fill="url(#paint2_linear_68_23208)"/>
<path d="M79.3478 59.2704L74.4412 55.6177L72.26 49.2371L71.9995 49.6905L74.0304 55.6319L78.9373 59.2847L75.3737 61.2127L76.1162 66.7207L76.6072 67.3018L75.7842 61.1987L79.3478 59.2704Z" fill="url(#paint3_linear_68_23208)"/>
<path d="M117.676 73.4573C117.675 73.4338 117.674 73.4104 117.672 73.3869C117.671 73.3635 117.669 73.3398 117.667 73.3162C117.665 73.2925 117.662 73.2688 117.659 73.2449C117.656 73.2205 117.652 73.1961 117.649 73.1717C117.648 73.1702 117.648 73.1688 117.648 73.1673C117.648 73.1666 117.648 73.1661 117.648 73.1654C117.644 73.1429 117.64 73.1204 117.636 73.098C117.631 73.0726 117.626 73.0472 117.621 73.0216C117.615 72.996 117.609 72.9706 117.603 72.945C117.596 72.9191 117.589 72.8933 117.582 72.8672C117.577 72.8459 117.57 72.8244 117.564 72.8032C117.563 72.8019 117.563 72.8005 117.562 72.7993C117.561 72.7962 117.56 72.793 117.56 72.7899C117.552 72.7645 117.544 72.7394 117.535 72.714C117.527 72.6889 117.518 72.664 117.509 72.6391C117.5 72.6149 117.492 72.591 117.482 72.5671C117.473 72.5432 117.463 72.5192 117.453 72.4956C117.445 72.4765 117.437 72.4574 117.429 72.4383C117.428 72.4371 117.428 72.4356 117.427 72.4344C117.426 72.4313 117.424 72.4281 117.423 72.4248C117.412 72.4008 117.402 72.3772 117.391 72.3535C117.378 72.3274 117.366 72.3015 117.353 72.2757C117.338 72.2462 117.323 72.2167 117.307 72.1875C117.29 72.1553 117.272 72.1239 117.254 72.0923C117.251 72.087 117.248 72.0814 117.245 72.0761C117.241 72.0698 117.238 72.0635 117.234 72.0575C117.2 71.998 117.163 71.9398 117.125 71.8825C117.095 71.8378 117.064 71.7939 117.032 71.7509C117.032 71.7504 117.032 71.7501 117.031 71.7496L117.031 71.7492C117.01 71.7199 116.988 71.6912 116.966 71.6629C116.947 71.6392 116.928 71.6158 116.909 71.5928C116.89 71.5704 116.871 71.5481 116.852 71.5261C116.833 71.5046 116.814 71.4834 116.795 71.4626C116.791 71.459 116.788 71.4553 116.784 71.4517C116.783 71.45 116.781 71.4486 116.78 71.4469C116.765 71.4309 116.75 71.415 116.734 71.3993C116.714 71.3785 116.693 71.358 116.672 71.3379C116.651 71.3176 116.63 71.2975 116.608 71.2777C116.586 71.2584 116.565 71.2393 116.543 71.2207C116.532 71.2118 116.521 71.2033 116.511 71.1946C116.508 71.1924 116.506 71.1905 116.503 71.1883C116.494 71.1813 116.486 71.1741 116.477 71.1673C116.456 71.1506 116.435 71.1342 116.413 71.1183C116.392 71.1028 116.371 71.0876 116.349 71.0731C116.329 71.0591 116.308 71.0453 116.287 71.032C116.267 71.019 116.246 71.0064 116.225 70.9941C116.221 70.9914 116.216 70.9885 116.211 70.9856L86.9521 54.1789C86.9366 54.1699 86.9212 54.1612 86.9059 54.153C86.8859 54.1421 86.8661 54.132 86.8462 54.1221C86.8264 54.1124 86.8069 54.103 86.7873 54.0943C86.7677 54.0856 86.7484 54.0774 86.729 54.0696C86.7095 54.0617 86.6897 54.0544 86.6703 54.0474C86.666 54.046 86.6616 54.0448 86.6573 54.0431C86.6556 54.0426 86.6541 54.0421 86.6527 54.0416C86.6389 54.037 86.6254 54.0324 86.6119 54.0283C86.5916 54.0223 86.5715 54.0167 86.5515 54.0117C86.5312 54.0066 86.5111 54.0022 86.4913 53.9984C86.4695 53.994 86.4483 53.9906 86.427 53.9877C86.4115 53.9858 86.3965 53.9844 86.3816 53.9831C86.3796 53.9829 86.3775 53.9827 86.3755 53.9827C86.371 53.9822 86.3663 53.9815 86.3617 53.9812C86.3383 53.9795 86.3151 53.9788 86.2924 53.979C86.2666 53.979 86.241 53.9802 86.2161 53.9827C86.1871 53.9853 86.1588 53.9894 86.1313 53.995C86.1303 53.9952 86.1293 53.9955 86.1284 53.9957C86.1269 53.9959 86.1257 53.9964 86.1242 53.9969C86.0914 54.0039 86.059 54.0124 86.0281 54.0235C85.9863 54.0382 85.9464 54.0568 85.9087 54.0788L84.3115 55.0369C84.3775 54.9985 84.45 54.9714 84.5273 54.955C84.529 54.9547 84.5299 54.954 84.5316 54.9538C84.6092 54.9381 84.6918 54.9335 84.7786 54.9407C84.7807 54.941 84.7827 54.9412 84.7846 54.9412C84.8711 54.9489 84.9618 54.9683 85.0555 54.9997C85.0572 55.0002 85.0586 55.0006 85.0603 55.0011C85.1558 55.0337 85.2542 55.0785 85.3552 55.1367L114.614 71.9434C114.714 72.0012 114.811 72.0696 114.906 72.1459C114.908 72.1481 114.911 72.1503 114.914 72.1524C115.007 72.2286 115.097 72.3129 115.183 72.4042C115.184 72.4059 115.186 72.4074 115.187 72.4091C115.274 72.5021 115.357 72.6016 115.435 72.7067L115.435 72.707C115.512 72.8111 115.583 72.9203 115.648 73.0329C115.651 73.0383 115.654 73.0438 115.657 73.0491C115.721 73.1603 115.779 73.2746 115.83 73.3911C115.831 73.3923 115.832 73.3935 115.832 73.3949C115.884 73.514 115.929 73.6349 115.965 73.7559C115.966 73.7571 115.966 73.7586 115.967 73.7598C116.003 73.8811 116.032 74.0024 116.051 74.1222C116.051 74.123 116.051 74.1234 116.051 74.1242C116.07 74.245 116.08 74.3639 116.08 74.4798C116.08 74.5939 116.069 74.6992 116.05 74.7959C116.049 74.7988 116.049 74.8017 116.048 74.8046C116.029 74.9 116.001 74.987 115.965 75.0646C115.964 75.0656 115.964 75.0668 115.963 75.0677C115.933 75.1327 115.893 75.1869 115.853 75.2386C115.839 75.2555 115.826 75.2738 115.812 75.2893C115.763 75.341 115.71 75.3872 115.651 75.422L117.247 74.4639C117.307 74.4291 117.36 74.3832 117.409 74.3312C117.423 74.3155 117.436 74.2977 117.45 74.2805C117.467 74.258 117.487 74.2389 117.503 74.214C117.523 74.1826 117.542 74.1488 117.559 74.1133C117.559 74.1121 117.56 74.1109 117.56 74.1097C117.561 74.1087 117.561 74.1075 117.562 74.1063C117.573 74.0816 117.584 74.0563 117.594 74.0297C117.603 74.0048 117.612 73.9789 117.62 73.9526C117.627 73.9282 117.633 73.9033 117.639 73.8777C117.642 73.8676 117.643 73.8569 117.645 73.8465C117.646 73.8436 117.647 73.8407 117.647 73.8378C117.65 73.8272 117.652 73.8168 117.654 73.8059C117.658 73.7832 117.661 73.7598 117.664 73.7361C117.667 73.7129 117.67 73.6895 117.672 73.6656C117.673 73.6428 117.675 73.6199 117.676 73.5967C117.677 73.5735 117.678 73.55 117.678 73.5261C117.678 73.5247 117.678 73.5232 117.678 73.522C117.677 73.501 117.676 73.4792 117.676 73.4573Z" fill="#ACACCD"/>
<path d="M114.614 71.9453C115.424 72.4131 116.082 73.5531 116.08 74.4815C116.077 75.4127 115.415 75.7901 114.604 75.3223L85.3457 58.5156C84.5379 58.0492 83.8797 56.9092 83.8823 55.978C83.885 55.0496 84.5474 54.6722 85.3554 55.1385L114.614 71.9453Z" fill="white"/>
<path d="M114.613 71.9453L85.3546 55.1385C84.9559 54.9083 84.5932 54.8846 84.3271 55.03C84.5734 54.959 84.8781 55.0066 85.2079 55.197L114.467 72.0037C115.277 72.4715 115.935 73.6116 115.933 74.5399C115.931 75.0116 115.76 75.3402 115.487 75.49C115.844 75.3868 116.078 75.0319 116.079 74.4812C116.082 73.5531 115.424 72.4131 114.613 71.9453Z" fill="white"/>
<path d="M117.676 80.3974C117.675 80.3742 117.674 80.3508 117.672 80.3271C117.671 80.3037 117.669 80.28 117.667 80.2563C117.665 80.2327 117.662 80.209 117.659 80.185C117.656 80.1606 117.652 80.1362 117.649 80.1118C117.648 80.1104 117.648 80.1089 117.648 80.1075C117.648 80.1068 117.648 80.1063 117.648 80.1055C117.644 80.0831 117.64 80.0606 117.636 80.0379C117.631 80.0125 117.626 79.9871 117.621 79.9615C117.615 79.9359 117.609 79.9105 117.603 79.8849C117.596 79.8591 117.589 79.833 117.582 79.8071C117.577 79.7856 117.57 79.7644 117.564 79.7429C117.563 79.7417 117.563 79.7402 117.562 79.739C117.561 79.7358 117.56 79.7327 117.56 79.7296C117.552 79.7042 117.544 79.6791 117.535 79.6537C117.527 79.6286 117.518 79.6037 117.509 79.5788C117.5 79.5546 117.492 79.5307 117.482 79.5068C117.473 79.4829 117.463 79.4589 117.453 79.4353C117.445 79.4162 117.437 79.3971 117.429 79.378C117.428 79.3768 117.428 79.3756 117.427 79.3741C117.426 79.371 117.424 79.3678 117.423 79.3647C117.412 79.3408 117.402 79.3171 117.391 79.2934C117.378 79.2673 117.366 79.2415 117.353 79.2156C117.338 79.1861 117.323 79.1567 117.307 79.1274C117.29 79.0953 117.272 79.0639 117.254 79.0322C117.251 79.0269 117.248 79.0213 117.245 79.016C117.241 79.0098 117.238 79.0035 117.234 78.9974C117.2 78.938 117.163 78.8797 117.125 78.8225C117.095 78.7778 117.064 78.7338 117.032 78.6908C117.032 78.6903 117.032 78.6901 117.031 78.6896L117.031 78.6891C117.01 78.6601 116.988 78.6313 116.966 78.6031C116.947 78.5794 116.928 78.556 116.909 78.533C116.89 78.5105 116.871 78.4883 116.852 78.4663C116.833 78.4448 116.814 78.4235 116.795 78.4028C116.791 78.3991 116.788 78.3955 116.784 78.3919C116.783 78.3902 116.781 78.3887 116.78 78.3871C116.765 78.3711 116.75 78.3552 116.734 78.3395C116.714 78.3187 116.693 78.2981 116.672 78.2781C116.651 78.2575 116.63 78.2377 116.608 78.2179C116.586 78.1986 116.565 78.1795 116.543 78.1609C116.532 78.152 116.521 78.1435 116.511 78.1348C116.508 78.1326 116.506 78.1307 116.503 78.1285C116.494 78.1215 116.486 78.1143 116.477 78.1075C116.456 78.0906 116.435 78.0744 116.413 78.0584C116.392 78.043 116.371 78.028 116.349 78.0133C116.329 77.9992 116.308 77.9855 116.287 77.9722C116.267 77.9591 116.246 77.9466 116.225 77.9342C116.221 77.9313 116.216 77.9287 116.211 77.9258L86.9521 61.119C86.9366 61.1101 86.9212 61.1014 86.9059 61.0932C86.8859 61.0823 86.8661 61.0722 86.8462 61.0623C86.8264 61.0526 86.8069 61.0432 86.7873 61.0345C86.7677 61.0258 86.7484 61.0176 86.729 61.0098C86.7095 61.0018 86.6897 60.9946 86.6703 60.9876C86.666 60.9861 86.6616 60.9849 86.6573 60.9832C86.6556 60.9828 86.6541 60.9823 86.6527 60.9818C86.6389 60.9772 86.6254 60.9726 86.6119 60.9685C86.5916 60.9625 86.5715 60.9569 86.5515 60.9518C86.5312 60.9468 86.5111 60.9424 86.4913 60.9385C86.4695 60.9342 86.4483 60.9308 86.427 60.9279C86.4115 60.926 86.3965 60.9245 86.3816 60.9233C86.3796 60.9231 86.3775 60.9228 86.3755 60.9226C86.371 60.9221 86.3663 60.9214 86.3617 60.9211C86.3383 60.9194 86.3151 60.9187 86.2924 60.919C86.2666 60.919 86.241 60.9202 86.2161 60.9226C86.1871 60.9253 86.1588 60.9294 86.1313 60.9349C86.1303 60.9352 86.1293 60.9356 86.1284 60.9356C86.1269 60.9359 86.1257 60.9364 86.1242 60.9368C86.0914 60.9439 86.059 60.9523 86.0281 60.9634C85.9863 60.9782 85.9464 60.9968 85.9087 61.0188L84.3115 61.9768C84.3775 61.9384 84.45 61.9114 84.5273 61.8949C84.529 61.8947 84.5299 61.894 84.5316 61.8937C84.6092 61.878 84.6918 61.8734 84.7786 61.8807C84.7807 61.8809 84.7827 61.8811 84.7846 61.8814C84.8711 61.8891 84.9618 61.9085 85.0555 61.9399C85.0572 61.9403 85.0586 61.9408 85.0603 61.9413C85.1558 61.9737 85.2542 62.0186 85.3552 62.0769L114.614 78.8836C114.714 78.9414 114.811 79.0097 114.906 79.0861C114.908 79.0883 114.911 79.0904 114.914 79.0926C115.007 79.1687 115.097 79.2531 115.183 79.3442C115.184 79.3459 115.186 79.3473 115.187 79.349C115.274 79.442 115.357 79.5416 115.435 79.6467L115.435 79.6469C115.512 79.7511 115.583 79.8603 115.648 79.9729C115.651 79.9782 115.654 79.9838 115.657 79.9891C115.721 80.1002 115.779 80.2148 115.83 80.331C115.831 80.3322 115.832 80.3334 115.832 80.3348C115.884 80.454 115.929 80.5748 115.965 80.6959C115.966 80.6971 115.966 80.6985 115.967 80.6997C116.003 80.821 116.032 80.9423 116.051 81.0622C116.051 81.0629 116.051 81.0634 116.051 81.0634C116.07 81.1847 116.08 81.3038 116.08 81.4195C116.08 81.5336 116.069 81.6389 116.05 81.7356C116.049 81.7385 116.049 81.7414 116.048 81.7443C116.029 81.8397 116.001 81.9267 115.965 82.0043C115.964 82.0053 115.964 82.0065 115.963 82.0074C115.933 82.0724 115.893 82.1266 115.853 82.1783C115.839 82.1954 115.826 82.2136 115.812 82.229C115.763 82.2807 115.71 82.3269 115.651 82.3617L117.247 81.4036C117.307 81.369 117.36 81.3229 117.409 81.2709C117.423 81.2552 117.436 81.2373 117.45 81.2202C117.467 81.1977 117.487 81.1786 117.503 81.1537C117.523 81.1221 117.542 81.0885 117.559 81.053C117.559 81.0518 117.56 81.0506 117.56 81.0491C117.561 81.0482 117.561 81.0469 117.562 81.0457C117.573 81.0211 117.584 80.9957 117.594 80.9691C117.603 80.9442 117.612 80.9184 117.62 80.8918C117.627 80.8674 117.633 80.8425 117.639 80.8169C117.642 80.8068 117.643 80.7961 117.645 80.7857C117.646 80.7828 117.647 80.7797 117.647 80.7768C117.65 80.7662 117.652 80.7558 117.654 80.7449C117.658 80.7219 117.661 80.6988 117.664 80.6751C117.667 80.6521 117.67 80.6284 117.672 80.6045C117.673 80.582 117.675 80.5591 117.676 80.5357C117.677 80.5125 117.678 80.489 117.678 80.4651C117.678 80.4636 117.678 80.4622 117.678 80.461C117.677 80.4412 117.676 80.4194 117.676 80.3974Z" fill="#ACACCD"/>
<path d="M114.614 78.8843C115.424 79.3521 116.082 80.4922 116.08 81.4205C116.077 82.3518 115.415 82.7292 114.604 82.2614L85.3457 65.4547C84.5379 64.9883 83.8797 63.8483 83.8823 62.917C83.885 61.9887 84.5474 61.6113 85.3554 62.0776L114.614 78.8843Z" fill="white"/>
<path d="M114.613 78.8848L85.3546 62.078C84.9559 61.8478 84.5932 61.8241 84.3271 61.9695C84.5734 61.8985 84.8781 61.9461 85.2079 62.1365L114.467 78.9433C115.277 79.4111 115.935 80.5511 115.933 81.4794C115.931 81.9511 115.76 82.28 115.487 82.4295C115.844 82.3266 116.078 81.9716 116.079 81.4207C116.082 80.4926 115.424 79.3526 114.613 78.8848Z" fill="white"/>
<path d="M117.676 87.3369C117.675 87.3137 117.674 87.29 117.673 87.2665C117.671 87.2431 117.669 87.2194 117.667 87.1957C117.665 87.1721 117.662 87.1484 117.659 87.1245C117.656 87.1001 117.653 87.0757 117.649 87.0513C117.649 87.0498 117.648 87.0484 117.648 87.0469C117.648 87.0462 117.648 87.0457 117.648 87.0457C117.644 87.0227 117.64 87 117.636 86.9776C117.631 86.9522 117.626 86.9268 117.621 86.9014C117.615 86.8758 117.609 86.8505 117.603 86.8248C117.596 86.799 117.589 86.7729 117.582 86.747C117.577 86.7255 117.57 86.7043 117.564 86.683C117.563 86.6818 117.563 86.6803 117.562 86.6791C117.561 86.676 117.56 86.6728 117.56 86.6697C117.552 86.6443 117.544 86.619 117.535 86.5938C117.527 86.5687 117.518 86.5438 117.509 86.5189C117.5 86.4948 117.491 86.4708 117.482 86.4469C117.473 86.423 117.463 86.3991 117.453 86.3754C117.445 86.3563 117.437 86.3372 117.429 86.3181C117.428 86.3169 117.428 86.3157 117.427 86.3143C117.426 86.3111 117.424 86.308 117.423 86.3049C117.412 86.2809 117.402 86.2572 117.391 86.2336C117.378 86.2075 117.366 86.1816 117.353 86.1558C117.338 86.1263 117.323 86.0968 117.307 86.0676C117.29 86.0354 117.272 86.004 117.254 85.9724C117.251 85.967 117.248 85.9615 117.245 85.9562C117.241 85.9499 117.238 85.9436 117.234 85.9376C117.2 85.8781 117.163 85.8199 117.125 85.7626C117.095 85.7179 117.064 85.674 117.032 85.6309C117.032 85.6305 117.032 85.6302 117.032 85.6302L117.031 85.6295C117.01 85.6005 116.988 85.5717 116.966 85.5432C116.947 85.5195 116.928 85.4961 116.909 85.4732C116.89 85.4507 116.871 85.4284 116.852 85.4065C116.833 85.385 116.814 85.3637 116.795 85.3429C116.791 85.3393 116.788 85.3357 116.784 85.332C116.783 85.3303 116.781 85.3289 116.78 85.3272C116.765 85.3113 116.75 85.2953 116.734 85.2796C116.714 85.2588 116.693 85.2383 116.672 85.2182C116.651 85.1977 116.63 85.1776 116.608 85.1581C116.586 85.1387 116.565 85.1196 116.543 85.101C116.532 85.0921 116.521 85.0836 116.511 85.0749C116.508 85.0728 116.506 85.0708 116.503 85.0687C116.494 85.0616 116.486 85.0544 116.477 85.0476C116.456 85.0307 116.435 85.0145 116.413 84.9986C116.392 84.9831 116.371 84.9679 116.349 84.9534C116.329 84.9394 116.308 84.9256 116.287 84.9123C116.267 84.8993 116.246 84.8867 116.225 84.8744C116.221 84.8715 116.216 84.8688 116.211 84.8662L86.9521 68.0594C86.9366 68.0505 86.9212 68.0418 86.9059 68.0336C86.8859 68.0227 86.8661 68.0126 86.8462 68.0026C86.8264 67.993 86.8068 67.9836 86.7873 67.9749C86.7677 67.9662 86.7484 67.9579 86.729 67.9502C86.7095 67.9422 86.6897 67.935 86.6703 67.928C86.666 67.9265 86.6616 67.9251 86.6573 67.9236C86.6556 67.9231 86.6541 67.9227 86.6527 67.9222C86.6389 67.9176 86.6254 67.9128 86.6119 67.9089C86.5916 67.9029 86.5715 67.8973 86.5515 67.8922C86.5312 67.8871 86.5111 67.8828 86.4913 67.8789C86.4695 67.8748 86.4483 67.8712 86.427 67.8683C86.4115 67.8661 86.3965 67.8649 86.3816 67.8637C86.3796 67.8635 86.3775 67.8632 86.3755 67.8632C86.371 67.8627 86.3663 67.862 86.3617 67.8618C86.3383 67.8601 86.3151 67.8594 86.2924 67.8594C86.2666 67.8596 86.241 67.8608 86.2161 67.863C86.1871 67.8656 86.1588 67.8697 86.1313 67.8753C86.1303 67.8755 86.1293 67.8758 86.1284 67.876C86.1269 67.8763 86.1257 67.8768 86.1242 67.8772C86.0914 67.8842 86.059 67.8927 86.0281 67.9038C85.9863 67.9186 85.9464 67.9372 85.9087 67.9592L84.3115 68.9172C84.3775 68.8788 84.45 68.8517 84.5273 68.8353C84.529 68.8351 84.5299 68.8343 84.5316 68.8341C84.6092 68.8181 84.6918 68.8138 84.7786 68.821C84.7807 68.8213 84.7827 68.8215 84.7846 68.8218C84.8711 68.8295 84.9617 68.8488 85.0555 68.8803C85.0572 68.8807 85.0586 68.8812 85.0603 68.8819C85.1558 68.9143 85.2541 68.9593 85.3551 69.0175L114.614 85.8242C114.714 85.882 114.811 85.9501 114.906 86.0267C114.908 86.0289 114.911 86.0311 114.914 86.0333C115.007 86.1094 115.097 86.1937 115.183 86.2848C115.184 86.2865 115.186 86.2879 115.187 86.2896C115.274 86.3826 115.357 86.4822 115.435 86.5873C115.435 86.5876 115.435 86.5876 115.435 86.5876C115.512 86.6917 115.583 86.8009 115.648 86.9135C115.651 86.9188 115.654 86.9244 115.657 86.9297C115.721 87.0409 115.779 87.1552 115.83 87.2716C115.831 87.2728 115.832 87.274 115.832 87.2755C115.884 87.3946 115.929 87.5154 115.965 87.6365C115.966 87.6377 115.966 87.6391 115.967 87.6406C116.003 87.7619 116.032 87.8832 116.051 88.003C116.051 88.0038 116.051 88.0042 116.051 88.005C116.07 88.1258 116.08 88.2447 116.08 88.3604C116.08 88.4745 116.069 88.5798 116.05 88.6765C116.049 88.6794 116.049 88.6823 116.048 88.6852C116.029 88.7806 116.001 88.8676 115.965 88.9452C115.964 88.9461 115.964 88.9473 115.963 88.9483C115.933 89.0133 115.893 89.0674 115.853 89.1191C115.839 89.1363 115.826 89.1544 115.812 89.1699C115.763 89.2216 115.71 89.2677 115.651 89.3025L117.247 88.3445C117.307 88.3099 117.36 88.2638 117.409 88.2118C117.423 88.1961 117.436 88.1782 117.45 88.1611C117.467 88.1386 117.487 88.1195 117.503 88.0946C117.523 88.063 117.542 88.0294 117.559 87.9939C117.559 87.9927 117.56 87.9914 117.56 87.9902C117.561 87.9893 117.561 87.9881 117.562 87.9871C117.573 87.9624 117.584 87.9371 117.594 87.9105C117.603 87.8856 117.612 87.8598 117.62 87.8334C117.627 87.809 117.633 87.7841 117.639 87.7585C117.642 87.7484 117.643 87.7377 117.645 87.7273C117.646 87.7244 117.647 87.7215 117.647 87.7184C117.65 87.7078 117.652 87.6974 117.654 87.6865C117.658 87.6635 117.661 87.6403 117.664 87.6167C117.667 87.5937 117.67 87.57 117.672 87.5461C117.673 87.5236 117.675 87.5004 117.676 87.4773C117.677 87.4541 117.678 87.4306 117.678 87.4067C117.678 87.4052 117.678 87.4038 117.678 87.4026C117.677 87.3808 117.677 87.3589 117.676 87.3369Z" fill="#ACACCD"/>
<path d="M114.614 85.8239C115.424 86.2917 116.082 87.4317 116.08 88.3601C116.077 89.2913 115.415 89.6687 114.604 89.2009L85.3457 72.3942C84.5379 71.9279 83.8797 70.7878 83.8823 69.8566C83.885 68.9282 84.5474 68.5508 85.3554 69.0171L114.614 85.8239Z" fill="white"/>
<path d="M114.613 85.8243L85.3546 69.0176C84.9559 68.7873 84.5932 68.7636 84.3271 68.9091C84.5734 68.838 84.8781 68.8856 85.2079 69.0761L114.467 85.8828C115.277 86.3506 115.935 87.4906 115.933 88.419C115.931 88.8906 115.76 89.2195 115.487 89.3691C115.844 89.2661 116.078 88.9112 116.079 88.3602C116.082 87.4319 115.424 86.2921 114.613 85.8243Z" fill="white"/>
<path d="M99.981 90.6023L99.5215 116.708L130.22 108.033L99.981 90.6023Z" fill="#AFAFE0"/>
<path d="M129.816 44.9801L129.902 107.85L130.22 108.033L130.133 44.8027L59.394 4.02631L59.3945 4.38683L129.816 44.9801Z" fill="url(#paint4_linear_68_23208)"/>
<path opacity="0.3" d="M99.981 90.6023L129.902 107.85L120.234 110.919L99.981 90.6023Z" fill="#7C7CD6"/>
<path d="M85.623 196.046C126.307 210.501 44.7645 232.724 8.79354 220.423C-27.1769 208.122 56.9744 185.868 85.623 196.046Z" fill="black" fill-opacity="0.3"/>
<path d="M62.7316 37.493C62.7316 37.493 66.0829 34.6235 69.7973 38.7568C73.5122 42.8895 67.2714 47.3705 70.8333 52.5796C74.3952 57.7886 68.1922 57.4285 72.3261 61.2022C76.4594 64.9765 69.7112 66.5679 71.1697 69.4302C72.6287 72.2926 65.3038 76.2247 62.699 68.3094C60.0942 60.3941 52.52 58.4484 52.52 58.4484C52.52 58.4484 55.755 45.4291 56.0184 45.2789C56.2819 45.1288 62.7316 37.493 62.7316 37.493Z" fill="black"/>
<path d="M25.7636 154.284C25.7636 154.284 27.4273 145.981 34.9997 146.842C42.5721 147.703 41.0697 156.7 39.8249 162.43C38.58 168.16 29.2187 197.846 27.8694 201.958C26.2769 206.811 20.2329 207.369 20.7159 201.988C20.9758 199.09 21.3484 195.993 21.778 191.249C22.9878 177.895 24.7394 159.246 25.7636 154.284Z" fill="#F29B79"/>
<path d="M20.89 201.215C20.89 201.215 10.3591 204.805 9.80911 207.778C9.25907 210.753 29.041 209.125 29.8752 207.555C30.7095 205.985 28.2274 200.523 28.2274 200.523C28.2274 200.523 26.216 205.17 20.89 201.215Z" fill="#0A1416"/>
<path d="M25.8847 153.776C25.9316 158.235 27.9175 162.309 33.2156 162.819C38.5142 163.33 40.7132 158.109 43.3507 145.573C43.5975 144.401 43.9933 142.979 44.4929 141.359C45.6238 137.699 47.2901 133.028 48.9894 127.948C50.7291 122.747 52.5026 117.119 53.7694 111.709C56.5778 99.7199 56.5172 88.6699 56.5172 88.6699L45.5041 85.852C45.5041 85.852 37.025 100.648 33.4216 113.86C29.8187 127.071 25.8372 149.317 25.8847 153.776Z" fill="#F29B79"/>
<path d="M46.8538 160.949C46.8538 160.949 41.84 154.124 47.5789 149.109C53.3178 144.094 58.9529 151.267 62.3481 156.048C65.7433 160.829 81.3699 187.749 83.4988 191.517C86.0117 195.964 82.3507 200.805 78.701 196.823C76.7352 194.678 74.6976 192.316 71.4817 188.801C62.4294 178.909 49.8301 165.049 46.8538 160.949Z" fill="#F29B79"/>
<path d="M44.9362 156.056C46.6415 160.175 50.0028 163.216 55.1092 161.715C60.2168 160.214 60.3111 154.55 58.086 141.933C57.8777 140.754 57.7152 139.287 57.5752 137.597C57.2601 133.779 57.0655 128.824 56.7486 123.476C56.4247 118.002 55.9725 112.118 55.1317 106.626C53.2685 94.4537 49.0937 84.2225 49.0937 84.2225L37.8236 85.7124C37.8236 85.7124 35.4709 102.603 37.0516 116.205C38.6323 129.809 43.2297 151.935 44.9362 156.056Z" fill="#F29B79"/>
<path d="M76.8707 194.844C76.8707 194.844 69.8097 203.442 70.9086 206.261C72.0075 209.078 87.9658 197.275 87.8477 195.502C87.7297 193.728 82.7425 190.392 82.7425 190.392C82.7425 190.392 83.4807 195.401 76.8707 194.844Z" fill="#0A1416"/>
<path d="M38.0357 85.8757C38.0357 85.8757 18.048 116.595 15.9434 151.654C15.9434 151.654 47.4694 167.449 67.5034 156.253C87.5374 145.057 92.8515 144.695 92.8515 144.695C92.8515 144.695 70.0745 96.5703 57.0249 88.8151C43.4465 80.7461 53.5791 73.3061 38.0357 85.8757Z" fill="#2B4047"/>
<path d="M20.2252 50.6767C20.0662 51.7975 19.223 54.4119 16.5286 53.2934C12.1971 51.4955 4.66324 36.1152 4.93025 33.673C5.19726 31.2307 6.64511 31.2153 9.74241 34.4419C12.8397 37.6692 20.9443 45.6136 20.2252 50.6767Z" fill="#D31F5E"/>
<path d="M8.11749 32.8193C8.35839 33.7532 6.28106 35.4277 4.91575 34.6189C3.55045 33.8102 -0.270771 28.9535 0.0152253 27.7935C0.301222 26.6335 3.33264 26.452 6.09826 29.9718C6.09826 29.9718 5.16907 27.4868 6.43825 27.6897C7.05 27.787 7.3491 29.8448 8.11749 32.8193Z" fill="#F29B79"/>
<path d="M16.2493 53.1849C20.4497 56.2277 33.9022 65.5564 40.1058 66.7253C46.3093 67.8948 48.2976 60.8552 45.2175 57.6618C42.1374 54.4678 26.4995 50.0087 21.5705 48.3206C16.2731 46.5062 12.605 50.5457 16.2493 53.1849Z" fill="#D31F5E"/>
<path d="M47.4661 43.5024C46.3916 49.5113 49.8852 55.1624 55.2693 56.1254C60.6534 57.0884 65.8898 52.9978 66.9644 46.9895C68.039 40.9806 64.5452 35.3295 59.1611 34.3665C53.7764 33.4035 48.5407 37.4941 47.4661 43.5024Z" fill="black"/>
<path d="M37.8605 76.6101C38.4052 79.3763 38.4591 81.6328 38.3689 83.2277C38.2722 84.9389 38.01 85.8883 38.01 85.8883C39.3438 89.2414 41.7131 90.8892 44.3399 91.5697C46.3211 92.0836 48.4489 92.0473 50.3886 91.778C51.1451 91.6729 51.8725 91.5329 52.5519 91.3763C55.1977 90.7651 57.1813 89.2212 57.2353 88.883C57.6477 86.2503 58.6753 83.7487 59.9564 81.4275C63.8233 74.4165 70.0001 69.0513 68.5422 66.7301C66.539 63.5415 59.35 61.0547 59.35 61.0547L53.1405 57.8856C53.1405 57.8856 46.5376 56.0569 44.433 56.6894C43.1555 57.0733 42.3327 58.9608 41.1394 60.4068C39.4691 62.4313 37.5727 64.3893 37.0766 67.1745C36.1486 72.383 37.7928 76.2653 37.8605 76.6101Z" fill="#ED117B"/>
<path d="M53.4428 51.991L52.0567 59.7414C51.9256 60.476 52.0395 61.1963 52.3404 61.8211C52.7996 62.774 53.6938 63.5009 54.8146 63.7008C55.7788 63.8729 56.7204 63.6225 57.4491 63.082C58.1225 62.5818 58.6145 61.8341 58.7735 60.9429L60.1596 53.1925C60.4913 51.3377 59.2565 49.5648 57.4017 49.2331C56.4743 49.0669 55.567 49.293 54.8508 49.792C54.1346 50.291 53.6089 51.063 53.4428 51.991Z" fill="#F29B79"/>
<g opacity="0.25">
<path d="M52.7032 56.0994L51.9966 60.0505C53.4224 60.1069 57.9017 59.9793 59.1578 56.2857C60.4377 52.5221 54.4815 55.2242 52.7032 56.0994Z" fill="black"/>
</g>
<path d="M47.3784 45.6502C46.3976 51.1357 49.2071 56.2273 53.6542 57.0224C58.1014 57.8175 62.5017 54.0159 63.4825 48.5303C64.4634 43.0447 61.6539 37.9532 57.2067 37.1581C52.7595 36.3624 48.3592 40.1646 47.3784 45.6502Z" fill="#F29B79"/>
<path d="M61.7846 50.6847C60.57 52.1254 60.3836 53.9666 61.3686 54.7967C62.3535 55.6274 64.1367 55.1331 65.3513 53.6924C66.5664 52.2518 66.7521 50.4106 65.7672 49.5805C64.7828 48.7498 62.9992 49.2441 61.7846 50.6847Z" fill="#F29B79"/>
<path d="M63.3667 49.3394C63.3667 49.3394 61.1546 47.4626 61.6376 43.105C61.6376 43.105 62.1265 46.3329 56.8979 45.7532C51.6692 45.1735 50.3164 42.7988 47.46 43.5322C47.46 43.5322 51.6663 33.2642 59.5478 36.5698C67.4293 39.8754 63.3667 49.3394 63.3667 49.3394Z" fill="black"/>
<path d="M42.2095 76.3634C43.1915 76.9271 45.3061 78.6793 43.2685 80.7673C39.9926 84.1233 22.9153 85.4163 20.746 84.2622C18.5767 83.1081 19.0994 81.7582 23.2452 80.0784C27.3903 78.3981 37.7741 73.818 42.2095 76.3634Z" fill="#D31F5E"/>
<path d="M21.1347 80.9845C22.0918 81.1067 22.8762 83.6569 21.6183 84.6253C20.3603 85.5936 14.4333 87.341 13.462 86.645C12.4906 85.949 13.4466 83.0671 17.7407 81.8032C17.7407 81.8032 15.0884 81.7445 15.747 80.6415C16.0662 80.1093 18.0878 80.5946 21.1347 80.9845Z" fill="#F29B79"/>
<path d="M40.6128 82.146C45.6966 81.1177 61.6722 77.5446 66.7352 73.7738C71.7983 70.0037 67.9681 63.7717 63.5322 63.8737C59.0963 63.9752 45.2214 72.4554 40.6401 74.9368C35.7171 77.6033 36.2029 83.0378 40.6128 82.146Z" fill="#D31F5E"/>
<defs>
<linearGradient id="paint0_linear_68_23208" x1="65.1387" y1="28.1472" x2="69.7244" y2="28.1472" gradientUnits="userSpaceOnUse">
<stop stop-color="#F9BB41"/>
<stop offset="1" stop-color="#FEF1D7"/>
</linearGradient>
<linearGradient id="paint1_linear_68_23208" x1="71.9995" y1="34.335" x2="79.3479" y2="34.335" gradientUnits="userSpaceOnUse">
<stop stop-color="#F9BB41"/>
<stop offset="1" stop-color="#FEF1D7"/>
</linearGradient>
<linearGradient id="paint2_linear_68_23208" x1="65.1387" y1="52.081" x2="69.7244" y2="52.081" gradientUnits="userSpaceOnUse">
<stop stop-color="#F9BB41"/>
<stop offset="1" stop-color="#FEF1D7"/>
</linearGradient>
<linearGradient id="paint3_linear_68_23208" x1="71.9995" y1="58.2694" x2="79.3479" y2="58.2694" gradientUnits="userSpaceOnUse">
<stop stop-color="#F9BB41"/>
<stop offset="1" stop-color="#FEF1D7"/>
</linearGradient>
<linearGradient id="paint4_linear_68_23208" x1="59.3941" y1="56.0297" x2="130.22" y2="56.0297" gradientUnits="userSpaceOnUse">
<stop stop-color="#ACACE5"/>
<stop offset="1" stop-color="white"/>
</linearGradient>
</defs>
</svg>
