<svg width="80" height="80" viewBox="0 0 80 80" fill="none" xmlns="http://www.w3.org/2000/svg">
<path d="M40 73.3333L39.1667 63.3333H38.3333C30.4444 63.3333 23.75 60.5833 18.25 55.0833C12.75 49.5833 10 42.8889 10 35C10 27.1111 12.75 20.4167 18.25 14.9167C23.75 9.41666 30.4444 6.66666 38.3333 6.66666C42.2778 6.66666 45.9589 7.40221 49.3767 8.87332C52.7944 10.3444 55.7944 12.3722 58.3767 14.9567C60.9589 17.5411 62.9856 20.5411 64.4567 23.9567C65.9278 27.3722 66.6644 31.0533 66.6667 35C66.6667 39.1667 65.9867 43.1667 64.6267 47C63.2667 50.8333 61.4044 54.3889 59.04 57.6667C56.6756 60.9444 53.87 63.9167 50.6233 66.5833C47.3767 69.25 43.8356 71.5 40 73.3333ZM46.6667 61.1667C50.6111 57.8333 53.82 53.9311 56.2933 49.46C58.7667 44.9889 60.0022 40.1689 60 35C60 28.9444 57.9022 23.82 53.7067 19.6267C49.5111 15.4333 44.3867 13.3355 38.3333 13.3333C32.28 13.3311 27.1556 15.4289 22.96 19.6267C18.7644 23.8244 16.6667 28.9489 16.6667 35C16.6667 41.0511 18.7644 46.1767 22.96 50.3767C27.1556 54.5767 32.28 56.6733 38.3333 56.6667H46.6667V61.1667ZM38.25 53.25C39.1944 53.25 40 52.9167 40.6667 52.25C41.3333 51.5833 41.6667 50.7778 41.6667 49.8333C41.6667 48.8889 41.3333 48.0833 40.6667 47.4167C40 46.75 39.1944 46.4167 38.25 46.4167C37.3056 46.4167 36.5 46.75 35.8333 47.4167C35.1667 48.0833 34.8333 48.8889 34.8333 49.8333C34.8333 50.7778 35.1667 51.5833 35.8333 52.25C36.5 52.9167 37.3056 53.25 38.25 53.25ZM35.8333 42.6667H40.8333C40.8333 41 41 39.8333 41.3333 39.1667C41.6667 38.5 42.7222 37.2778 44.5 35.5C45.5 34.5 46.3333 33.4167 47 32.25C47.6667 31.0833 48 29.8333 48 28.5C48 25.6667 47.0422 23.5422 45.1267 22.1267C43.2111 20.7111 40.9467 20.0022 38.3333 20C35.8889 20 33.8333 20.6811 32.1667 22.0433C30.5 23.4055 29.3333 25.0578 28.6667 27L33.3333 28.8333C33.6111 27.8889 34.1389 26.9589 34.9167 26.0433C35.6944 25.1278 36.8333 24.6689 38.3333 24.6667C39.8333 24.6644 40.9589 25.0811 41.71 25.9167C42.4611 26.7522 42.8356 27.6689 42.8333 28.6667C42.8333 29.6111 42.5556 30.4589 42 31.21C41.4444 31.9611 40.7778 32.7244 40 33.5C38.0556 35.1667 36.8756 36.4867 36.46 37.46C36.0444 38.4333 35.8356 40.1689 35.8333 42.6667Z" fill="white"/>
</svg>
