<svg width="34" height="33" viewBox="0 0 34 33" fill="none" xmlns="http://www.w3.org/2000/svg">
<path d="M0.939461 11.5671V3.60725C2.01851 3.64566 2.9562 3.72382 3.82935 3.87415C8.38956 4.65925 11.7308 8.39161 14.9094 11.7545L9.19016 17.2818L5.81487 13.9092C4.02724 12.1847 2.98295 11.6093 0.939461 11.5671Z" fill="#ED0C7A"/>
<path d="M29.0244 2.52944V0H33.8998V4.87152H31.1808V2.52944H29.0244Z" fill="#ED0C7A"/>
<path d="M30.0718 24.4586L30.0718 32.4001C28.9706 32.3614 28.0152 32.2821 27.1255 32.1289C22.5499 31.3412 19.1764 27.6268 15.9671 24.2717L21.7415 18.7571L25.1494 22.122C26.9543 23.8424 28.0086 24.4165 30.0718 24.4586Z" fill="#ED0C7A"/>
<path d="M0.754504 32.5856L0.661133 24.9001C2.60325 24.75 4.70721 23.0256 5.51643 22.1821C9.71813 18.0269 18.8311 9.04157 21.6696 6.34226C24.5081 3.64295 28.5168 3.468 30.1664 3.71794V11.7785C29.7618 11.6847 28.7658 11.5535 28.0189 11.7785C27.2719 12.0034 26.3382 12.9344 25.9647 13.3718C20.7048 18.6204 9.64343 29.4739 7.47722 30.8985C5.31101 32.3232 2.09282 32.6168 0.754504 32.5856Z" fill="#ED0C7A"/>
</svg>
