<svg width="26" height="26" viewBox="0 0 26 26" fill="none" xmlns="http://www.w3.org/2000/svg">
<path d="M0.472517 9.10278V2.83874C1.2959 2.86852 2.013 2.92867 2.68073 3.04358C6.24269 3.65655 8.83033 6.60386 11.292 9.25023L6.86257 13.6L4.24846 10.9459C2.86396 9.58884 2.05517 9.13598 0.472517 9.10278Z" fill="#ED0C7A" fill-opacity="0.48"/>
<path d="M22.2239 1.99056V0H25.9998V3.83367H23.894V1.99056H22.2239Z" fill="#ED0C7A" fill-opacity="0.48"/>
<path d="M23.125 18.9123L23.125 25.1974C22.259 25.1668 21.5074 25.1044 20.8074 24.9839C17.192 24.3614 14.5311 21.4197 11.9997 18.7644L16.5544 14.4L19.2424 17.063C20.666 18.4246 21.4977 18.879 23.125 18.9123Z" fill="#ED0C7A" fill-opacity="0.48"/>
<path d="M0.0734175 25.1983L0 19.2521C1.52708 19.136 3.18143 17.8018 3.81771 17.1492C7.1215 13.9343 14.2871 6.98249 16.5189 4.89406C18.7508 2.80563 21.9029 2.67027 23.1999 2.86364V9.09999C22.8818 9.02748 22.0987 8.92596 21.5113 9.09999C20.924 9.27403 20.1898 9.99435 19.8961 10.3327C15.7603 14.3936 7.06277 22.7908 5.35948 23.893C3.65619 24.9953 1.12574 25.2225 0.0734175 25.1983Z" fill="#ED0C7A" fill-opacity="0.48"/>
</svg>
