<svg width="716" height="51" viewBox="0 0 716 51" fill="none" xmlns="http://www.w3.org/2000/svg">
<path d="M296.535 40.8398L273.176 17.0703V40H269.816V9.00391L293.176 32.7148V9.84375H296.535V40.8398ZM317.031 31.9531C317.031 34.9349 316.426 37.1224 315.215 38.5156C314.017 39.9089 312.142 40.6055 309.59 40.6055C307.025 40.6055 305.143 39.9089 303.945 38.5156C302.747 37.1224 302.148 34.9349 302.148 31.9531V21.3281H305.352V31.8359C305.352 33.8281 305.671 35.2734 306.309 36.1719C306.96 37.0703 308.053 37.5195 309.59 37.5195C311.126 37.5195 312.207 37.0768 312.832 36.1914C313.47 35.306 313.789 33.8542 313.789 31.8359V21.3281H317.031V31.9531ZM335.652 28.8867C335.483 27.2852 334.884 26.0417 333.855 25.1562C332.827 24.2578 331.492 23.8086 329.852 23.8086C328.276 23.8086 326.941 24.2708 325.848 25.1953C324.754 26.1068 324.109 27.3372 323.914 28.8867H335.652ZM338.836 31.1523H323.836C323.953 33.1706 324.546 34.7396 325.613 35.8594C326.694 36.9661 328.133 37.5195 329.93 37.5195C331.297 37.5195 332.456 37.2526 333.406 36.7188C334.37 36.1719 335.132 35.3581 335.691 34.2773L338.367 35.6836C337.508 37.3112 336.362 38.5417 334.93 39.375C333.51 40.1953 331.831 40.6055 329.891 40.6055C327.078 40.6055 324.832 39.6875 323.152 37.8516C321.486 36.0156 320.652 33.5872 320.652 30.5664C320.652 27.7539 321.538 25.4167 323.309 23.5547C325.079 21.6927 327.26 20.7617 329.852 20.7617C332.508 20.7617 334.669 21.6146 336.336 23.3203C338.003 25.026 338.836 27.2656 338.836 30.0391V31.1523ZM353.727 34.9609C353.727 36.6797 353.102 38.0534 351.852 39.082C350.602 40.0977 348.896 40.6055 346.734 40.6055C345.107 40.6055 343.727 40.2799 342.594 39.6289C341.474 38.9648 340.654 38.0078 340.133 36.7578L342.848 35.0391C343.225 35.9375 343.753 36.6081 344.43 37.0508C345.107 37.4935 345.94 37.7148 346.93 37.7148C348.023 37.7148 348.896 37.487 349.547 37.0312C350.198 36.5755 350.523 35.9505 350.523 35.1562C350.523 34.2839 350.224 33.6198 349.625 33.1641C349.039 32.7083 347.887 32.1745 346.168 31.5625C344.488 30.9375 343.225 30.1628 342.379 29.2383C341.546 28.3138 341.129 27.2201 341.129 25.957C341.129 24.3424 341.663 23.0729 342.73 22.1484C343.811 21.224 345.315 20.7617 347.242 20.7617C348.648 20.7617 349.82 21.0482 350.758 21.6211C351.695 22.194 352.444 23.0794 353.004 24.2773L350.367 25.8789C350.029 25.0977 349.599 24.5247 349.078 24.1602C348.557 23.7826 347.906 23.5938 347.125 23.5938C346.227 23.5938 345.523 23.8021 345.016 24.2188C344.508 24.6224 344.254 25.1758 344.254 25.8789C344.254 26.5951 344.514 27.194 345.035 27.6758C345.569 28.1576 346.533 28.6263 347.926 29.082C349.983 29.7461 351.461 30.5404 352.359 31.4648C353.271 32.3763 353.727 33.5417 353.727 34.9609ZM363.734 24.1992H360.766V40H357.582V24.1992H355.336V21.3281H357.582V13.7695H360.766V21.3281H363.734V24.1992ZM376.965 21.1133L376.203 24.2773C375.969 24.1341 375.715 24.0299 375.441 23.9648C375.168 23.8867 374.875 23.8477 374.562 23.8477C372.987 23.8477 371.796 24.5247 370.988 25.8789C370.194 27.2201 369.797 29.2318 369.797 31.9141V40H366.613V21.3281H369.797V24.6094C370.253 23.2682 370.91 22.2917 371.77 21.6797C372.629 21.0677 373.775 20.7617 375.207 20.7617C375.546 20.7617 375.871 20.7943 376.184 20.8594C376.509 20.9245 376.77 21.0091 376.965 21.1133ZM393.34 30.6055C393.34 28.6393 392.689 27.0182 391.387 25.7422C390.085 24.4531 388.477 23.8086 386.562 23.8086C384.635 23.8086 383.027 24.4531 381.738 25.7422C380.449 27.0182 379.805 28.6393 379.805 30.6055C379.805 32.5846 380.456 34.2383 381.758 35.5664C383.073 36.8945 384.674 37.5586 386.562 37.5586C388.49 37.5586 390.098 36.8945 391.387 35.5664C392.689 34.2383 393.34 32.5846 393.34 30.6055ZM396.523 30.6055C396.523 33.3789 395.553 35.7422 393.613 37.6953C391.673 39.6354 389.31 40.6055 386.523 40.6055C383.763 40.6055 381.419 39.6354 379.492 37.6953C377.578 35.7552 376.621 33.3919 376.621 30.6055C376.621 27.819 377.572 25.4818 379.473 23.5938C381.374 21.7057 383.724 20.7617 386.523 20.7617C389.349 20.7617 391.719 21.7122 393.633 23.6133C395.56 25.5013 396.523 27.832 396.523 30.6055ZM411.297 34.9609C411.297 36.6797 410.672 38.0534 409.422 39.082C408.172 40.0977 406.466 40.6055 404.305 40.6055C402.677 40.6055 401.297 40.2799 400.164 39.6289C399.044 38.9648 398.224 38.0078 397.703 36.7578L400.418 35.0391C400.796 35.9375 401.323 36.6081 402 37.0508C402.677 37.4935 403.51 37.7148 404.5 37.7148C405.594 37.7148 406.466 37.487 407.117 37.0312C407.768 36.5755 408.094 35.9505 408.094 35.1562C408.094 34.2839 407.794 33.6198 407.195 33.1641C406.609 32.7083 405.457 32.1745 403.738 31.5625C402.059 30.9375 400.796 30.1628 399.949 29.2383C399.116 28.3138 398.699 27.2201 398.699 25.957C398.699 24.3424 399.233 23.0729 400.301 22.1484C401.382 21.224 402.885 20.7617 404.812 20.7617C406.219 20.7617 407.391 21.0482 408.328 21.6211C409.266 22.194 410.014 23.0794 410.574 24.2773L407.938 25.8789C407.599 25.0977 407.169 24.5247 406.648 24.1602C406.128 23.7826 405.477 23.5938 404.695 23.5938C403.797 23.5938 403.094 23.8021 402.586 24.2188C402.078 24.6224 401.824 25.1758 401.824 25.8789C401.824 26.5951 402.085 27.194 402.605 27.6758C403.139 28.1576 404.103 28.6263 405.496 29.082C407.553 29.7461 409.031 30.5404 409.93 31.4648C410.841 32.3763 411.297 33.5417 411.297 34.9609ZM439.418 18.2812C439.418 16.4323 438.858 15.0911 437.738 14.2578C436.618 13.4245 434.783 13.0078 432.23 13.0078H430.746V23.5156H432.23C434.861 23.5156 436.716 23.112 437.797 22.3047C438.878 21.4974 439.418 20.1562 439.418 18.2812ZM442.777 18.2812C442.777 21.0286 441.872 23.1185 440.062 24.5508C438.253 25.9701 435.609 26.6797 432.133 26.6797H430.746V40H427.387V9.84375H432.133C435.701 9.84375 438.363 10.5469 440.121 11.9531C441.892 13.3594 442.777 15.4688 442.777 18.2812ZM457.199 21.1133L456.438 24.2773C456.203 24.1341 455.949 24.0299 455.676 23.9648C455.402 23.8867 455.109 23.8477 454.797 23.8477C453.221 23.8477 452.03 24.5247 451.223 25.8789C450.428 27.2201 450.031 29.2318 450.031 31.9141V40H446.848V21.3281H450.031V24.6094C450.487 23.2682 451.145 22.2917 452.004 21.6797C452.863 21.0677 454.009 20.7617 455.441 20.7617C455.78 20.7617 456.105 20.7943 456.418 20.8594C456.743 20.9245 457.004 21.0091 457.199 21.1133ZM462.676 40H459.473V21.3281H462.676V40ZM463.281 13.9648C463.281 14.5638 463.06 15.0781 462.617 15.5078C462.188 15.9375 461.673 16.1523 461.074 16.1523C460.475 16.1523 459.961 15.9375 459.531 15.5078C459.102 15.0781 458.887 14.5638 458.887 13.9648C458.887 13.3659 459.102 12.8516 459.531 12.4219C459.961 11.9792 460.475 11.7578 461.074 11.7578C461.673 11.7578 462.188 11.9792 462.617 12.4219C463.06 12.8516 463.281 13.3659 463.281 13.9648ZM484.168 40H480.965V28.8477C480.965 27.0378 480.639 25.7096 479.988 24.8633C479.35 24.0169 478.328 23.5938 476.922 23.5938C475.32 23.5938 474.096 24.2253 473.25 25.4883C472.417 26.7513 472 28.6003 472 31.0352V40H468.816V21.3281H472V24.082C472.56 22.9753 473.341 22.1484 474.344 21.6016C475.346 21.0417 476.57 20.7617 478.016 20.7617C479.93 20.7617 481.434 21.3932 482.527 22.6562C483.621 23.9193 484.168 25.6901 484.168 27.9688V40ZM503.844 39.2383C502.997 39.694 502.079 40.0326 501.09 40.2539C500.1 40.4883 499.046 40.6055 497.926 40.6055C494.944 40.6055 492.503 39.6875 490.602 37.8516C488.714 36.0026 487.77 33.6263 487.77 30.7227C487.77 27.793 488.74 25.4036 490.68 23.5547C492.633 21.6927 495.152 20.7617 498.238 20.7617C499.306 20.7617 500.276 20.8659 501.148 21.0742C502.021 21.2826 502.841 21.6016 503.609 22.0312V25.4492C502.867 24.9284 502.027 24.5247 501.09 24.2383C500.165 23.9518 499.254 23.8086 498.355 23.8086C496.142 23.8086 494.358 24.4466 493.004 25.7227C491.663 26.9987 490.992 28.7044 490.992 30.8398C490.992 32.832 491.669 34.4466 493.023 35.6836C494.391 36.9076 496.168 37.5195 498.355 37.5195C499.397 37.5195 500.393 37.3763 501.344 37.0898C502.307 36.7904 503.141 36.3737 503.844 35.8398V39.2383ZM510.629 40H507.426V21.3281H510.629V40ZM511.234 13.9648C511.234 14.5638 511.013 15.0781 510.57 15.5078C510.141 15.9375 509.626 16.1523 509.027 16.1523C508.428 16.1523 507.914 15.9375 507.484 15.5078C507.055 15.0781 506.84 14.5638 506.84 13.9648C506.84 13.3659 507.055 12.8516 507.484 12.4219C507.914 11.9792 508.428 11.7578 509.027 11.7578C509.626 11.7578 510.141 11.9792 510.57 12.4219C511.013 12.8516 511.234 13.3659 511.234 13.9648ZM532.355 30.5664C532.355 28.5352 531.776 26.901 530.617 25.6641C529.458 24.4271 527.948 23.8086 526.086 23.8086C524.198 23.8086 522.688 24.4076 521.555 25.6055C520.435 26.7904 519.875 28.4049 519.875 30.4492C519.875 32.5195 520.474 34.2188 521.672 35.5469C522.883 36.862 524.406 37.5195 526.242 37.5195C528.026 37.5195 529.491 36.875 530.637 35.5859C531.783 34.2969 532.355 32.6237 532.355 30.5664ZM535.598 30.5273C535.598 33.4701 534.758 35.8854 533.078 37.7734C531.398 39.6615 529.25 40.6055 526.633 40.6055C525.083 40.6055 523.729 40.293 522.57 39.668C521.411 39.0299 520.513 38.112 519.875 36.9141V50.3906H516.672V21.3281H519.875V24.1602C520.552 23.0664 521.464 22.2266 522.609 21.6406C523.755 21.0547 525.07 20.7617 526.555 20.7617C529.211 20.7617 531.379 21.6732 533.059 23.4961C534.751 25.306 535.598 27.6497 535.598 30.5273ZM542.793 40H539.59V21.3281H542.793V40ZM543.398 13.9648C543.398 14.5638 543.177 15.0781 542.734 15.5078C542.305 15.9375 541.79 16.1523 541.191 16.1523C540.592 16.1523 540.078 15.9375 539.648 15.5078C539.219 15.0781 539.004 14.5638 539.004 13.9648C539.004 13.3659 539.219 12.8516 539.648 12.4219C540.078 11.9792 540.592 11.7578 541.191 11.7578C541.79 11.7578 542.305 11.9792 542.734 12.4219C543.177 12.8516 543.398 13.3659 543.398 13.9648ZM563.426 30.6055C563.426 28.6393 562.775 27.0182 561.473 25.7422C560.171 24.4531 558.562 23.8086 556.648 23.8086C554.721 23.8086 553.113 24.4531 551.824 25.7422C550.535 27.0182 549.891 28.6393 549.891 30.6055C549.891 32.5846 550.542 34.2383 551.844 35.5664C553.159 36.8945 554.76 37.5586 556.648 37.5586C558.576 37.5586 560.184 36.8945 561.473 35.5664C562.775 34.2383 563.426 32.5846 563.426 30.6055ZM566.609 30.6055C566.609 33.3789 565.639 35.7422 563.699 37.6953C561.759 39.6354 559.396 40.6055 556.609 40.6055C553.849 40.6055 551.505 39.6354 549.578 37.6953C547.664 35.7552 546.707 33.3919 546.707 30.6055C546.707 27.819 547.658 25.4818 549.559 23.5938C551.46 21.7057 553.81 20.7617 556.609 20.7617C559.435 20.7617 561.805 21.7122 563.719 23.6133C565.646 25.5013 566.609 27.832 566.609 30.6055ZM581.383 34.9609C581.383 36.6797 580.758 38.0534 579.508 39.082C578.258 40.0977 576.552 40.6055 574.391 40.6055C572.763 40.6055 571.383 40.2799 570.25 39.6289C569.13 38.9648 568.31 38.0078 567.789 36.7578L570.504 35.0391C570.882 35.9375 571.409 36.6081 572.086 37.0508C572.763 37.4935 573.596 37.7148 574.586 37.7148C575.68 37.7148 576.552 37.487 577.203 37.0312C577.854 36.5755 578.18 35.9505 578.18 35.1562C578.18 34.2839 577.88 33.6198 577.281 33.1641C576.695 32.7083 575.543 32.1745 573.824 31.5625C572.145 30.9375 570.882 30.1628 570.035 29.2383C569.202 28.3138 568.785 27.2201 568.785 25.957C568.785 24.3424 569.319 23.0729 570.387 22.1484C571.467 21.224 572.971 20.7617 574.898 20.7617C576.305 20.7617 577.477 21.0482 578.414 21.6211C579.352 22.194 580.1 23.0794 580.66 24.2773L578.023 25.8789C577.685 25.0977 577.255 24.5247 576.734 24.1602C576.214 23.7826 575.562 23.5938 574.781 23.5938C573.883 23.5938 573.18 23.8021 572.672 24.2188C572.164 24.6224 571.91 25.1758 571.91 25.8789C571.91 26.5951 572.171 27.194 572.691 27.6758C573.225 28.1576 574.189 28.6263 575.582 29.082C577.639 29.7461 579.117 30.5404 580.016 31.4648C580.927 32.3763 581.383 33.5417 581.383 34.9609Z" fill="white"/>
<path d="M705.38 37L701.253 41.128C700.878 41.503 700.667 42.0117 700.667 42.5422C700.667 43.0727 700.878 43.5815 701.253 43.9567C701.628 44.3319 702.136 44.5427 702.667 44.5428C703.197 44.543 703.706 44.3324 704.081 43.9573L711.624 36.4147C711.81 36.2289 711.957 36.0084 712.058 35.7657C712.158 35.5229 712.21 35.2628 712.21 35C712.21 34.7373 712.158 34.4771 712.058 34.2343C711.957 33.9916 711.81 33.7711 711.624 33.5853L704.083 26.0427C703.897 25.8569 703.676 25.7095 703.434 25.609C703.191 25.5085 702.931 25.4567 702.668 25.4567C702.405 25.4567 702.145 25.5085 701.902 25.609C701.66 25.7095 701.439 25.8569 701.253 26.0427C701.068 26.2285 700.92 26.449 700.82 26.6917C700.719 26.9345 700.667 27.1946 700.667 27.4573C700.667 27.7201 700.719 27.9802 700.82 28.223C700.92 28.4657 701.068 28.6862 701.253 28.872L705.38 33H690C689.47 33 688.961 33.2107 688.586 33.5858C688.211 33.9609 688 34.4696 688 35C688 35.5304 688.211 36.0392 688.586 36.4142C688.961 36.7893 689.47 37 690 37H705.38Z" fill="white"/>
<rect x="632" y="33" width="59" height="4" fill="white"/>
<rect y="25" width="219" height="4" fill="white"/>
</svg>
