<svg width="301" height="33" viewBox="0 0 301 33" fill="none" xmlns="http://www.w3.org/2000/svg">
<g clip-path="url(#clip0_204_4247)">
<path d="M75.6211 26.5039L61.6055 12.2422V26H59.5898V7.40234L73.6055 21.6289V7.90625H75.6211V26.5039ZM87.7188 21.1719C87.7188 22.9609 87.3555 24.2734 86.6289 25.1094C85.9102 25.9453 84.7852 26.3633 83.2539 26.3633C81.7148 26.3633 80.5859 25.9453 79.8672 25.1094C79.1484 24.2734 78.7891 22.9609 78.7891 21.1719V14.7969H80.7109V21.1016C80.7109 22.2969 80.9023 23.1641 81.2852 23.7031C81.6758 24.2422 82.332 24.5117 83.2539 24.5117C84.1758 24.5117 84.8242 24.2461 85.1992 23.7148C85.582 23.1836 85.7734 22.3125 85.7734 21.1016V14.7969H87.7188V21.1719ZM98.6914 19.332C98.5898 18.3711 98.2305 17.625 97.6133 17.0938C96.9961 16.5547 96.1953 16.2852 95.2109 16.2852C94.2656 16.2852 93.4648 16.5625 92.8086 17.1172C92.1523 17.6641 91.7656 18.4023 91.6484 19.332H98.6914ZM100.602 20.6914H91.6016C91.6719 21.9023 92.0273 22.8438 92.668 23.5156C93.3164 24.1797 94.1797 24.5117 95.2578 24.5117C96.0781 24.5117 96.7734 24.3516 97.3438 24.0312C97.9219 23.7031 98.3789 23.2148 98.7148 22.5664L100.32 23.4102C99.8047 24.3867 99.1172 25.125 98.2578 25.625C97.4062 26.1172 96.3984 26.3633 95.2344 26.3633C93.5469 26.3633 92.1992 25.8125 91.1914 24.7109C90.1914 23.6094 89.6914 22.1523 89.6914 20.3398C89.6914 18.6523 90.2227 17.25 91.2852 16.1328C92.3477 15.0156 93.6562 14.457 95.2109 14.457C96.8047 14.457 98.1016 14.9688 99.1016 15.9922C100.102 17.0156 100.602 18.3594 100.602 20.0234V20.6914ZM109.336 22.9766C109.336 24.0078 108.961 24.832 108.211 25.4492C107.461 26.0586 106.438 26.3633 105.141 26.3633C104.164 26.3633 103.336 26.168 102.656 25.7773C101.984 25.3789 101.492 24.8047 101.18 24.0547L102.809 23.0234C103.035 23.5625 103.352 23.9648 103.758 24.2305C104.164 24.4961 104.664 24.6289 105.258 24.6289C105.914 24.6289 106.438 24.4922 106.828 24.2188C107.219 23.9453 107.414 23.5703 107.414 23.0938C107.414 22.5703 107.234 22.1719 106.875 21.8984C106.523 21.625 105.832 21.3047 104.801 20.9375C103.793 20.5625 103.035 20.0977 102.527 19.543C102.027 18.9883 101.777 18.332 101.777 17.5742C101.777 16.6055 102.098 15.8438 102.738 15.2891C103.387 14.7344 104.289 14.457 105.445 14.457C106.289 14.457 106.992 14.6289 107.555 14.9727C108.117 15.3164 108.566 15.8477 108.902 16.5664L107.32 17.5273C107.117 17.0586 106.859 16.7148 106.547 16.4961C106.234 16.2695 105.844 16.1562 105.375 16.1562C104.836 16.1562 104.414 16.2812 104.109 16.5312C103.805 16.7734 103.652 17.1055 103.652 17.5273C103.652 17.957 103.809 18.3164 104.121 18.6055C104.441 18.8945 105.02 19.1758 105.855 19.4492C107.09 19.8477 107.977 20.3242 108.516 20.8789C109.062 21.4258 109.336 22.125 109.336 22.9766ZM115.141 16.5195H113.359V26H111.449V16.5195H110.102V14.7969H111.449V10.2617H113.359V14.7969H115.141V16.5195ZM122.879 14.668L122.422 16.5664C122.281 16.4805 122.129 16.418 121.965 16.3789C121.801 16.332 121.625 16.3086 121.438 16.3086C120.492 16.3086 119.777 16.7148 119.293 17.5273C118.816 18.332 118.578 19.5391 118.578 21.1484V26H116.668V14.7969H118.578V16.7656C118.852 15.9609 119.246 15.375 119.762 15.0078C120.277 14.6406 120.965 14.457 121.824 14.457C122.027 14.457 122.223 14.4766 122.41 14.5156C122.605 14.5547 122.762 14.6055 122.879 14.668ZM132.504 20.3633C132.504 19.1836 132.113 18.2109 131.332 17.4453C130.551 16.6719 129.586 16.2852 128.438 16.2852C127.281 16.2852 126.316 16.6719 125.543 17.4453C124.77 18.2109 124.383 19.1836 124.383 20.3633C124.383 21.5508 124.773 22.543 125.555 23.3398C126.344 24.1367 127.305 24.5352 128.438 24.5352C129.594 24.5352 130.559 24.1367 131.332 23.3398C132.113 22.543 132.504 21.5508 132.504 20.3633ZM134.414 20.3633C134.414 22.0273 133.832 23.4453 132.668 24.6172C131.504 25.7812 130.086 26.3633 128.414 26.3633C126.758 26.3633 125.352 25.7812 124.195 24.6172C123.047 23.4531 122.473 22.0352 122.473 20.3633C122.473 18.6914 123.043 17.2891 124.184 16.1562C125.324 15.0234 126.734 14.457 128.414 14.457C130.109 14.457 131.531 15.0273 132.68 16.168C133.836 17.3008 134.414 18.6992 134.414 20.3633ZM143.078 22.9766C143.078 24.0078 142.703 24.832 141.953 25.4492C141.203 26.0586 140.18 26.3633 138.883 26.3633C137.906 26.3633 137.078 26.168 136.398 25.7773C135.727 25.3789 135.234 24.8047 134.922 24.0547L136.551 23.0234C136.777 23.5625 137.094 23.9648 137.5 24.2305C137.906 24.4961 138.406 24.6289 139 24.6289C139.656 24.6289 140.18 24.4922 140.57 24.2188C140.961 23.9453 141.156 23.5703 141.156 23.0938C141.156 22.5703 140.977 22.1719 140.617 21.8984C140.266 21.625 139.574 21.3047 138.543 20.9375C137.535 20.5625 136.777 20.0977 136.27 19.543C135.77 18.9883 135.52 18.332 135.52 17.5742C135.52 16.6055 135.84 15.8438 136.48 15.2891C137.129 14.7344 138.031 14.457 139.188 14.457C140.031 14.457 140.734 14.6289 141.297 14.9727C141.859 15.3164 142.309 15.8477 142.645 16.5664L141.062 17.5273C140.859 17.0586 140.602 16.7148 140.289 16.4961C139.977 16.2695 139.586 16.1562 139.117 16.1562C138.578 16.1562 138.156 16.2812 137.852 16.5312C137.547 16.7734 137.395 17.1055 137.395 17.5273C137.395 17.957 137.551 18.3164 137.863 18.6055C138.184 18.8945 138.762 19.1758 139.598 19.4492C140.832 19.8477 141.719 20.3242 142.258 20.8789C142.805 21.4258 143.078 22.125 143.078 22.9766ZM159.551 12.9688C159.551 11.8594 159.215 11.0547 158.543 10.5547C157.871 10.0547 156.77 9.80469 155.238 9.80469H154.348V16.1094H155.238C156.816 16.1094 157.93 15.8672 158.578 15.3828C159.227 14.8984 159.551 14.0938 159.551 12.9688ZM161.566 12.9688C161.566 14.6172 161.023 15.8711 159.938 16.7305C158.852 17.582 157.266 18.0078 155.18 18.0078H154.348V26H152.332V7.90625H155.18C157.32 7.90625 158.918 8.32812 159.973 9.17188C161.035 10.0156 161.566 11.2812 161.566 12.9688ZM170.02 14.668L169.562 16.5664C169.422 16.4805 169.27 16.418 169.105 16.3789C168.941 16.332 168.766 16.3086 168.578 16.3086C167.633 16.3086 166.918 16.7148 166.434 17.5273C165.957 18.332 165.719 19.5391 165.719 21.1484V26H163.809V14.7969H165.719V16.7656C165.992 15.9609 166.387 15.375 166.902 15.0078C167.418 14.6406 168.105 14.457 168.965 14.457C169.168 14.457 169.363 14.4766 169.551 14.5156C169.746 14.5547 169.902 14.6055 170.02 14.668ZM173.105 26H171.184V14.7969H173.105V26ZM173.469 10.3789C173.469 10.7383 173.336 11.0469 173.07 11.3047C172.812 11.5625 172.504 11.6914 172.145 11.6914C171.785 11.6914 171.477 11.5625 171.219 11.3047C170.961 11.0469 170.832 10.7383 170.832 10.3789C170.832 10.0195 170.961 9.71094 171.219 9.45312C171.477 9.1875 171.785 9.05469 172.145 9.05469C172.504 9.05469 172.812 9.1875 173.07 9.45312C173.336 9.71094 173.469 10.0195 173.469 10.3789ZM185.801 26H183.879V19.3086C183.879 18.2227 183.684 17.4258 183.293 16.918C182.91 16.4102 182.297 16.1562 181.453 16.1562C180.492 16.1562 179.758 16.5352 179.25 17.293C178.75 18.0508 178.5 19.1602 178.5 20.6211V26H176.59V14.7969H178.5V16.4492C178.836 15.7852 179.305 15.2891 179.906 14.9609C180.508 14.625 181.242 14.457 182.109 14.457C183.258 14.457 184.16 14.8359 184.816 15.5938C185.473 16.3516 185.801 17.4141 185.801 18.7812V26ZM197.406 25.543C196.898 25.8164 196.348 26.0195 195.754 26.1523C195.16 26.293 194.527 26.3633 193.855 26.3633C192.066 26.3633 190.602 25.8125 189.461 24.7109C188.328 23.6016 187.762 22.1758 187.762 20.4336C187.762 18.6758 188.344 17.2422 189.508 16.1328C190.68 15.0156 192.191 14.457 194.043 14.457C194.684 14.457 195.266 14.5195 195.789 14.6445C196.312 14.7695 196.805 14.9609 197.266 15.2188V17.2695C196.82 16.957 196.316 16.7148 195.754 16.543C195.199 16.3711 194.652 16.2852 194.113 16.2852C192.785 16.2852 191.715 16.668 190.902 17.4336C190.098 18.1992 189.695 19.2227 189.695 20.5039C189.695 21.6992 190.102 22.668 190.914 23.4102C191.734 24.1445 192.801 24.5117 194.113 24.5117C194.738 24.5117 195.336 24.4258 195.906 24.2539C196.484 24.0742 196.984 23.8242 197.406 23.5039V25.543ZM201.277 26H199.355V14.7969H201.277V26ZM201.641 10.3789C201.641 10.7383 201.508 11.0469 201.242 11.3047C200.984 11.5625 200.676 11.6914 200.316 11.6914C199.957 11.6914 199.648 11.5625 199.391 11.3047C199.133 11.0469 199.004 10.7383 199.004 10.3789C199.004 10.0195 199.133 9.71094 199.391 9.45312C199.648 9.1875 199.957 9.05469 200.316 9.05469C200.676 9.05469 200.984 9.1875 201.242 9.45312C201.508 9.71094 201.641 10.0195 201.641 10.3789ZM214.113 20.3398C214.113 19.1211 213.766 18.1406 213.07 17.3984C212.375 16.6562 211.469 16.2852 210.352 16.2852C209.219 16.2852 208.312 16.6445 207.633 17.3633C206.961 18.0742 206.625 19.043 206.625 20.2695C206.625 21.5117 206.984 22.5312 207.703 23.3281C208.43 24.1172 209.344 24.5117 210.445 24.5117C211.516 24.5117 212.395 24.125 213.082 23.3516C213.77 22.5781 214.113 21.5742 214.113 20.3398ZM216.059 20.3164C216.059 22.082 215.555 23.5312 214.547 24.6641C213.539 25.7969 212.25 26.3633 210.68 26.3633C209.75 26.3633 208.938 26.1758 208.242 25.8008C207.547 25.418 207.008 24.8672 206.625 24.1484V32.2344H204.703V14.7969H206.625V16.4961C207.031 15.8398 207.578 15.3359 208.266 14.9844C208.953 14.6328 209.742 14.457 210.633 14.457C212.227 14.457 213.527 15.0039 214.535 16.0977C215.551 17.1836 216.059 18.5898 216.059 20.3164ZM220.176 26H218.254V14.7969H220.176V26ZM220.539 10.3789C220.539 10.7383 220.406 11.0469 220.141 11.3047C219.883 11.5625 219.574 11.6914 219.215 11.6914C218.855 11.6914 218.547 11.5625 218.289 11.3047C218.031 11.0469 217.902 10.7383 217.902 10.3789C217.902 10.0195 218.031 9.71094 218.289 9.45312C218.547 9.1875 218.855 9.05469 219.215 9.05469C219.574 9.05469 219.883 9.1875 220.141 9.45312C220.406 9.71094 220.539 10.0195 220.539 10.3789ZM232.355 20.3633C232.355 19.1836 231.965 18.2109 231.184 17.4453C230.402 16.6719 229.438 16.2852 228.289 16.2852C227.133 16.2852 226.168 16.6719 225.395 17.4453C224.621 18.2109 224.234 19.1836 224.234 20.3633C224.234 21.5508 224.625 22.543 225.406 23.3398C226.195 24.1367 227.156 24.5352 228.289 24.5352C229.445 24.5352 230.41 24.1367 231.184 23.3398C231.965 22.543 232.355 21.5508 232.355 20.3633ZM234.266 20.3633C234.266 22.0273 233.684 23.4453 232.52 24.6172C231.355 25.7812 229.938 26.3633 228.266 26.3633C226.609 26.3633 225.203 25.7812 224.047 24.6172C222.898 23.4531 222.324 22.0352 222.324 20.3633C222.324 18.6914 222.895 17.2891 224.035 16.1562C225.176 15.0234 226.586 14.457 228.266 14.457C229.961 14.457 231.383 15.0273 232.531 16.168C233.688 17.3008 234.266 18.6992 234.266 20.3633ZM242.93 22.9766C242.93 24.0078 242.555 24.832 241.805 25.4492C241.055 26.0586 240.031 26.3633 238.734 26.3633C237.758 26.3633 236.93 26.168 236.25 25.7773C235.578 25.3789 235.086 24.8047 234.773 24.0547L236.402 23.0234C236.629 23.5625 236.945 23.9648 237.352 24.2305C237.758 24.4961 238.258 24.6289 238.852 24.6289C239.508 24.6289 240.031 24.4922 240.422 24.2188C240.812 23.9453 241.008 23.5703 241.008 23.0938C241.008 22.5703 240.828 22.1719 240.469 21.8984C240.117 21.625 239.426 21.3047 238.395 20.9375C237.387 20.5625 236.629 20.0977 236.121 19.543C235.621 18.9883 235.371 18.332 235.371 17.5742C235.371 16.6055 235.691 15.8438 236.332 15.2891C236.98 14.7344 237.883 14.457 239.039 14.457C239.883 14.457 240.586 14.6289 241.148 14.9727C241.711 15.3164 242.16 15.8477 242.496 16.5664L240.914 17.5273C240.711 17.0586 240.453 16.7148 240.141 16.4961C239.828 16.2695 239.438 16.1562 238.969 16.1562C238.43 16.1562 238.008 16.2812 237.703 16.5312C237.398 16.7734 237.246 17.1055 237.246 17.5273C237.246 17.957 237.402 18.3164 237.715 18.6055C238.035 18.8945 238.613 19.1758 239.449 19.4492C240.684 19.8477 241.57 20.3242 242.109 20.8789C242.656 21.4258 242.93 22.125 242.93 22.9766Z" fill="white"/>
<rect x="5" y="14.5" width="39" height="4" fill="white"/>
<rect x="254" y="14.5" width="39" height="4" fill="white"/>
</g>
<defs>
<clipPath id="clip0_204_4247">
<rect width="301" height="33" fill="white"/>
</clipPath>
</defs>
</svg>
