<svg width="184" height="26" viewBox="0 0 184 26" fill="none" xmlns="http://www.w3.org/2000/svg">
<path d="M16.6211 19.5039L2.60547 5.24219V19H0.589844V0.402344L14.6055 14.6289V0.90625H16.6211V19.5039ZM28.7188 14.1719C28.7188 15.9609 28.3555 17.2734 27.6289 18.1094C26.9102 18.9453 25.7852 19.3633 24.2539 19.3633C22.7148 19.3633 21.5859 18.9453 20.8672 18.1094C20.1484 17.2734 19.7891 15.9609 19.7891 14.1719V7.79688H21.7109V14.1016C21.7109 15.2969 21.9023 16.1641 22.2852 16.7031C22.6758 17.2422 23.332 17.5117 24.2539 17.5117C25.1758 17.5117 25.8242 17.2461 26.1992 16.7148C26.582 16.1836 26.7734 15.3125 26.7734 14.1016V7.79688H28.7188V14.1719ZM39.6914 12.332C39.5898 11.3711 39.2305 10.625 38.6133 10.0938C37.9961 9.55469 37.1953 9.28516 36.2109 9.28516C35.2656 9.28516 34.4648 9.5625 33.8086 10.1172C33.1523 10.6641 32.7656 11.4023 32.6484 12.332H39.6914ZM41.6016 13.6914H32.6016C32.6719 14.9023 33.0273 15.8438 33.668 16.5156C34.3164 17.1797 35.1797 17.5117 36.2578 17.5117C37.0781 17.5117 37.7734 17.3516 38.3438 17.0312C38.9219 16.7031 39.3789 16.2148 39.7148 15.5664L41.3203 16.4102C40.8047 17.3867 40.1172 18.125 39.2578 18.625C38.4062 19.1172 37.3984 19.3633 36.2344 19.3633C34.5469 19.3633 33.1992 18.8125 32.1914 17.7109C31.1914 16.6094 30.6914 15.1523 30.6914 13.3398C30.6914 11.6523 31.2227 10.25 32.2852 9.13281C33.3477 8.01562 34.6562 7.45703 36.2109 7.45703C37.8047 7.45703 39.1016 7.96875 40.1016 8.99219C41.1016 10.0156 41.6016 11.3594 41.6016 13.0234V13.6914ZM50.3359 15.9766C50.3359 17.0078 49.9609 17.832 49.2109 18.4492C48.4609 19.0586 47.4375 19.3633 46.1406 19.3633C45.1641 19.3633 44.3359 19.168 43.6562 18.7773C42.9844 18.3789 42.4922 17.8047 42.1797 17.0547L43.8086 16.0234C44.0352 16.5625 44.3516 16.9648 44.7578 17.2305C45.1641 17.4961 45.6641 17.6289 46.2578 17.6289C46.9141 17.6289 47.4375 17.4922 47.8281 17.2188C48.2188 16.9453 48.4141 16.5703 48.4141 16.0938C48.4141 15.5703 48.2344 15.1719 47.875 14.8984C47.5234 14.625 46.832 14.3047 45.8008 13.9375C44.793 13.5625 44.0352 13.0977 43.5273 12.543C43.0273 11.9883 42.7773 11.332 42.7773 10.5742C42.7773 9.60547 43.0977 8.84375 43.7383 8.28906C44.3867 7.73438 45.2891 7.45703 46.4453 7.45703C47.2891 7.45703 47.9922 7.62891 48.5547 7.97266C49.1172 8.31641 49.5664 8.84766 49.9023 9.56641L48.3203 10.5273C48.1172 10.0586 47.8594 9.71484 47.5469 9.49609C47.2344 9.26953 46.8438 9.15625 46.375 9.15625C45.8359 9.15625 45.4141 9.28125 45.1094 9.53125C44.8047 9.77344 44.6523 10.1055 44.6523 10.5273C44.6523 10.957 44.8086 11.3164 45.1211 11.6055C45.4414 11.8945 46.0195 12.1758 46.8555 12.4492C48.0898 12.8477 48.9766 13.3242 49.5156 13.8789C50.0625 14.4258 50.3359 15.125 50.3359 15.9766ZM56.1406 9.51953H54.3594V19H52.4492V9.51953H51.1016V7.79688H52.4492V3.26172H54.3594V7.79688H56.1406V9.51953ZM63.8789 7.66797L63.4219 9.56641C63.2812 9.48047 63.1289 9.41797 62.9648 9.37891C62.8008 9.33203 62.625 9.30859 62.4375 9.30859C61.4922 9.30859 60.7773 9.71484 60.293 10.5273C59.8164 11.332 59.5781 12.5391 59.5781 14.1484V19H57.668V7.79688H59.5781V9.76562C59.8516 8.96094 60.2461 8.375 60.7617 8.00781C61.2773 7.64062 61.9648 7.45703 62.8242 7.45703C63.0273 7.45703 63.2227 7.47656 63.4102 7.51562C63.6055 7.55469 63.7617 7.60547 63.8789 7.66797ZM73.5039 13.3633C73.5039 12.1836 73.1133 11.2109 72.332 10.4453C71.5508 9.67188 70.5859 9.28516 69.4375 9.28516C68.2812 9.28516 67.3164 9.67188 66.543 10.4453C65.7695 11.2109 65.3828 12.1836 65.3828 13.3633C65.3828 14.5508 65.7734 15.543 66.5547 16.3398C67.3438 17.1367 68.3047 17.5352 69.4375 17.5352C70.5938 17.5352 71.5586 17.1367 72.332 16.3398C73.1133 15.543 73.5039 14.5508 73.5039 13.3633ZM75.4141 13.3633C75.4141 15.0273 74.832 16.4453 73.668 17.6172C72.5039 18.7812 71.0859 19.3633 69.4141 19.3633C67.7578 19.3633 66.3516 18.7812 65.1953 17.6172C64.0469 16.4531 63.4727 15.0352 63.4727 13.3633C63.4727 11.6914 64.043 10.2891 65.1836 9.15625C66.3242 8.02344 67.7344 7.45703 69.4141 7.45703C71.1094 7.45703 72.5312 8.02734 73.6797 9.16797C74.8359 10.3008 75.4141 11.6992 75.4141 13.3633ZM84.0781 15.9766C84.0781 17.0078 83.7031 17.832 82.9531 18.4492C82.2031 19.0586 81.1797 19.3633 79.8828 19.3633C78.9062 19.3633 78.0781 19.168 77.3984 18.7773C76.7266 18.3789 76.2344 17.8047 75.9219 17.0547L77.5508 16.0234C77.7773 16.5625 78.0938 16.9648 78.5 17.2305C78.9062 17.4961 79.4062 17.6289 80 17.6289C80.6562 17.6289 81.1797 17.4922 81.5703 17.2188C81.9609 16.9453 82.1562 16.5703 82.1562 16.0938C82.1562 15.5703 81.9766 15.1719 81.6172 14.8984C81.2656 14.625 80.5742 14.3047 79.543 13.9375C78.5352 13.5625 77.7773 13.0977 77.2695 12.543C76.7695 11.9883 76.5195 11.332 76.5195 10.5742C76.5195 9.60547 76.8398 8.84375 77.4805 8.28906C78.1289 7.73438 79.0312 7.45703 80.1875 7.45703C81.0312 7.45703 81.7344 7.62891 82.2969 7.97266C82.8594 8.31641 83.3086 8.84766 83.6445 9.56641L82.0625 10.5273C81.8594 10.0586 81.6016 9.71484 81.2891 9.49609C80.9766 9.26953 80.5859 9.15625 80.1172 9.15625C79.5781 9.15625 79.1562 9.28125 78.8516 9.53125C78.5469 9.77344 78.3945 10.1055 78.3945 10.5273C78.3945 10.957 78.5508 11.3164 78.8633 11.6055C79.1836 11.8945 79.7617 12.1758 80.5977 12.4492C81.832 12.8477 82.7188 13.3242 83.2578 13.8789C83.8047 14.4258 84.0781 15.125 84.0781 15.9766ZM100.551 5.96875C100.551 4.85938 100.215 4.05469 99.543 3.55469C98.8711 3.05469 97.7695 2.80469 96.2383 2.80469H95.3477V9.10938H96.2383C97.8164 9.10938 98.9297 8.86719 99.5781 8.38281C100.227 7.89844 100.551 7.09375 100.551 5.96875ZM102.566 5.96875C102.566 7.61719 102.023 8.87109 100.938 9.73047C99.8516 10.582 98.2656 11.0078 96.1797 11.0078H95.3477V19H93.332V0.90625H96.1797C98.3203 0.90625 99.918 1.32812 100.973 2.17188C102.035 3.01562 102.566 4.28125 102.566 5.96875ZM111.02 7.66797L110.562 9.56641C110.422 9.48047 110.27 9.41797 110.105 9.37891C109.941 9.33203 109.766 9.30859 109.578 9.30859C108.633 9.30859 107.918 9.71484 107.434 10.5273C106.957 11.332 106.719 12.5391 106.719 14.1484V19H104.809V7.79688H106.719V9.76562C106.992 8.96094 107.387 8.375 107.902 8.00781C108.418 7.64062 109.105 7.45703 109.965 7.45703C110.168 7.45703 110.363 7.47656 110.551 7.51562C110.746 7.55469 110.902 7.60547 111.02 7.66797ZM114.105 19H112.184V7.79688H114.105V19ZM114.469 3.37891C114.469 3.73828 114.336 4.04688 114.07 4.30469C113.812 4.5625 113.504 4.69141 113.145 4.69141C112.785 4.69141 112.477 4.5625 112.219 4.30469C111.961 4.04688 111.832 3.73828 111.832 3.37891C111.832 3.01953 111.961 2.71094 112.219 2.45312C112.477 2.1875 112.785 2.05469 113.145 2.05469C113.504 2.05469 113.812 2.1875 114.07 2.45312C114.336 2.71094 114.469 3.01953 114.469 3.37891ZM126.801 19H124.879V12.3086C124.879 11.2227 124.684 10.4258 124.293 9.91797C123.91 9.41016 123.297 9.15625 122.453 9.15625C121.492 9.15625 120.758 9.53516 120.25 10.293C119.75 11.0508 119.5 12.1602 119.5 13.6211V19H117.59V7.79688H119.5V9.44922C119.836 8.78516 120.305 8.28906 120.906 7.96094C121.508 7.625 122.242 7.45703 123.109 7.45703C124.258 7.45703 125.16 7.83594 125.816 8.59375C126.473 9.35156 126.801 10.4141 126.801 11.7812V19ZM138.406 18.543C137.898 18.8164 137.348 19.0195 136.754 19.1523C136.16 19.293 135.527 19.3633 134.855 19.3633C133.066 19.3633 131.602 18.8125 130.461 17.7109C129.328 16.6016 128.762 15.1758 128.762 13.4336C128.762 11.6758 129.344 10.2422 130.508 9.13281C131.68 8.01562 133.191 7.45703 135.043 7.45703C135.684 7.45703 136.266 7.51953 136.789 7.64453C137.312 7.76953 137.805 7.96094 138.266 8.21875V10.2695C137.82 9.95703 137.316 9.71484 136.754 9.54297C136.199 9.37109 135.652 9.28516 135.113 9.28516C133.785 9.28516 132.715 9.66797 131.902 10.4336C131.098 11.1992 130.695 12.2227 130.695 13.5039C130.695 14.6992 131.102 15.668 131.914 16.4102C132.734 17.1445 133.801 17.5117 135.113 17.5117C135.738 17.5117 136.336 17.4258 136.906 17.2539C137.484 17.0742 137.984 16.8242 138.406 16.5039V18.543ZM142.277 19H140.355V7.79688H142.277V19ZM142.641 3.37891C142.641 3.73828 142.508 4.04688 142.242 4.30469C141.984 4.5625 141.676 4.69141 141.316 4.69141C140.957 4.69141 140.648 4.5625 140.391 4.30469C140.133 4.04688 140.004 3.73828 140.004 3.37891C140.004 3.01953 140.133 2.71094 140.391 2.45312C140.648 2.1875 140.957 2.05469 141.316 2.05469C141.676 2.05469 141.984 2.1875 142.242 2.45312C142.508 2.71094 142.641 3.01953 142.641 3.37891ZM155.113 13.3398C155.113 12.1211 154.766 11.1406 154.07 10.3984C153.375 9.65625 152.469 9.28516 151.352 9.28516C150.219 9.28516 149.312 9.64453 148.633 10.3633C147.961 11.0742 147.625 12.043 147.625 13.2695C147.625 14.5117 147.984 15.5312 148.703 16.3281C149.43 17.1172 150.344 17.5117 151.445 17.5117C152.516 17.5117 153.395 17.125 154.082 16.3516C154.77 15.5781 155.113 14.5742 155.113 13.3398ZM157.059 13.3164C157.059 15.082 156.555 16.5312 155.547 17.6641C154.539 18.7969 153.25 19.3633 151.68 19.3633C150.75 19.3633 149.938 19.1758 149.242 18.8008C148.547 18.418 148.008 17.8672 147.625 17.1484V25.2344H145.703V7.79688H147.625V9.49609C148.031 8.83984 148.578 8.33594 149.266 7.98438C149.953 7.63281 150.742 7.45703 151.633 7.45703C153.227 7.45703 154.527 8.00391 155.535 9.09766C156.551 10.1836 157.059 11.5898 157.059 13.3164ZM161.176 19H159.254V7.79688H161.176V19ZM161.539 3.37891C161.539 3.73828 161.406 4.04688 161.141 4.30469C160.883 4.5625 160.574 4.69141 160.215 4.69141C159.855 4.69141 159.547 4.5625 159.289 4.30469C159.031 4.04688 158.902 3.73828 158.902 3.37891C158.902 3.01953 159.031 2.71094 159.289 2.45312C159.547 2.1875 159.855 2.05469 160.215 2.05469C160.574 2.05469 160.883 2.1875 161.141 2.45312C161.406 2.71094 161.539 3.01953 161.539 3.37891ZM173.355 13.3633C173.355 12.1836 172.965 11.2109 172.184 10.4453C171.402 9.67188 170.438 9.28516 169.289 9.28516C168.133 9.28516 167.168 9.67188 166.395 10.4453C165.621 11.2109 165.234 12.1836 165.234 13.3633C165.234 14.5508 165.625 15.543 166.406 16.3398C167.195 17.1367 168.156 17.5352 169.289 17.5352C170.445 17.5352 171.41 17.1367 172.184 16.3398C172.965 15.543 173.355 14.5508 173.355 13.3633ZM175.266 13.3633C175.266 15.0273 174.684 16.4453 173.52 17.6172C172.355 18.7812 170.938 19.3633 169.266 19.3633C167.609 19.3633 166.203 18.7812 165.047 17.6172C163.898 16.4531 163.324 15.0352 163.324 13.3633C163.324 11.6914 163.895 10.2891 165.035 9.15625C166.176 8.02344 167.586 7.45703 169.266 7.45703C170.961 7.45703 172.383 8.02734 173.531 9.16797C174.688 10.3008 175.266 11.6992 175.266 13.3633ZM183.93 15.9766C183.93 17.0078 183.555 17.832 182.805 18.4492C182.055 19.0586 181.031 19.3633 179.734 19.3633C178.758 19.3633 177.93 19.168 177.25 18.7773C176.578 18.3789 176.086 17.8047 175.773 17.0547L177.402 16.0234C177.629 16.5625 177.945 16.9648 178.352 17.2305C178.758 17.4961 179.258 17.6289 179.852 17.6289C180.508 17.6289 181.031 17.4922 181.422 17.2188C181.812 16.9453 182.008 16.5703 182.008 16.0938C182.008 15.5703 181.828 15.1719 181.469 14.8984C181.117 14.625 180.426 14.3047 179.395 13.9375C178.387 13.5625 177.629 13.0977 177.121 12.543C176.621 11.9883 176.371 11.332 176.371 10.5742C176.371 9.60547 176.691 8.84375 177.332 8.28906C177.98 7.73438 178.883 7.45703 180.039 7.45703C180.883 7.45703 181.586 7.62891 182.148 7.97266C182.711 8.31641 183.16 8.84766 183.496 9.56641L181.914 10.5273C181.711 10.0586 181.453 9.71484 181.141 9.49609C180.828 9.26953 180.438 9.15625 179.969 9.15625C179.43 9.15625 179.008 9.28125 178.703 9.53125C178.398 9.77344 178.246 10.1055 178.246 10.5273C178.246 10.957 178.402 11.3164 178.715 11.6055C179.035 11.8945 179.613 12.1758 180.449 12.4492C181.684 12.8477 182.57 13.3242 183.109 13.8789C183.656 14.4258 183.93 15.125 183.93 15.9766Z" fill="white"/>
</svg>
