<svg width="157" height="34" viewBox="0 0 157 34" fill="none" xmlns="http://www.w3.org/2000/svg">
<path d="M63.436 6.67888V11.6579H67.6774V18.6654C67.6774 26.3547 73.9109 32.5882 81.6002 32.5882V27.6092C77.2208 27.6092 73.6707 24.059 73.6707 19.6796V11.6579H81.6002V6.67888C81.6002 6.53136 76.3138 6.61741 73.6707 6.67888V0.224609H67.954V6.67888H63.436Z" fill="white"/>
<path d="M4.14918 6.77087H0V32.4958H5.71664V25.6889C5.71664 19.6199 6.11073 10.9065 12.1796 10.9413C18.4228 10.977 18.8096 19.7107 18.8096 25.954V32.4958H24.5262V16.5445C24.1697 13.0928 23.3467 11.3942 20.7459 8.79936C16.2279 4.83444 8.20615 5.20356 4.14918 8.79936V6.77087Z" fill="white"/>
<path d="M27.9395 11.5671V3.60725C29.0185 3.64566 29.9562 3.72382 30.8294 3.87415C35.3896 4.65925 38.7308 8.39161 41.9094 11.7545L36.1902 17.2818L32.8149 13.9092C31.0272 12.1847 29.9829 11.6093 27.9395 11.5671Z" fill="#ED0C7A"/>
<path d="M56.0244 2.52944V0H60.8998V4.87152H58.1808V2.52944H56.0244Z" fill="#ED0C7A"/>
<path d="M57.0718 24.4586L57.0718 32.4001C55.9706 32.3614 55.0152 32.2821 54.1255 32.1289C49.5499 31.3412 46.1764 27.6268 42.9671 24.2717L48.7415 18.7571L52.1494 22.122C53.9543 23.8424 55.0086 24.4165 57.0718 24.4586Z" fill="#ED0C7A"/>
<path d="M27.7545 32.5856L27.6611 24.9001C29.6033 24.75 31.7072 23.0256 32.5164 22.1821C36.7181 18.0269 45.8311 9.04157 48.6696 6.34226C51.5081 3.64295 55.5168 3.468 57.1664 3.71794V11.7785C56.7618 11.6847 55.7658 11.5535 55.0189 11.7785C54.2719 12.0034 53.3382 12.9344 52.9647 13.3718C47.7048 18.6204 36.6434 29.4739 34.4772 30.8985C32.311 32.3232 29.0928 32.6168 27.7545 32.5856Z" fill="#ED0C7A"/>
<path d="M97.5522 6.03303C107.141 6.18055 110.399 13.7781 110.83 17.5584V32.5877H105.206V27.8856C102.624 33.8785 91.5592 35.7224 86.2114 27.8856C80.8636 20.0483 85.5659 5.84879 97.5522 6.03303ZM97.3676 10.8279C93.0901 10.8279 89.6225 14.7082 89.6225 19.4949C89.6227 24.2816 93.0902 28.1619 97.3676 28.1619C101.645 28.1618 105.113 24.2815 105.113 19.4949C105.113 14.7082 101.645 10.828 97.3676 10.8279Z" fill="white"/>
<path d="M143.723 6.03302C153.312 6.18055 156.57 13.7781 157 17.5584V32.5877H151.376V27.8856C148.794 33.8785 137.73 35.7224 132.382 27.8856C127.034 20.0483 131.736 5.84882 143.723 6.03302ZM143.538 10.8279C139.261 10.8279 135.793 14.7082 135.793 19.4949C135.793 24.2816 139.261 28.1619 143.538 28.1619C147.815 28.1619 151.283 24.2815 151.283 19.4949C151.283 14.7082 147.816 10.828 143.538 10.8279Z" fill="white"/>
<path d="M120.234 32.4957H114.425V20.1404C114.425 12.6547 120.494 6.58643 127.979 6.58643V11.842C123.702 11.842 120.234 15.3097 120.234 19.5872V32.4957Z" fill="white"/>
</svg>
