<svg width="185" height="224" viewBox="0 0 185 224" fill="none" xmlns="http://www.w3.org/2000/svg">
<path d="M8.60742 0L8.6939 63.2304L79.4328 104.007L79.3463 40.7764L8.60742 0Z" fill="#7C7CD6"/>
<path d="M0 4.02625L0.0865417 67.2566L70.8256 108.033L70.7391 44.8027L0 4.02625Z" fill="#DBDBF3"/>
<path d="M79.3462 40.7766L70.7393 44.8029L70.8257 108.033L79.4327 104.007L79.3462 40.7766Z" fill="#7C7CD6"/>
<path d="M8.60721 0L0 4.02633L70.7391 44.8028L79.346 40.7764L8.60721 0Z" fill="#AFAFE0"/>
<path d="M5.74463 27.1326L8.37917 25.6016L13.2903 27.6173L10.6561 29.1483L5.74463 27.1326Z" fill="#E09927"/>
<path d="M16.3906 37.2636L19.0251 35.7326L19.8479 41.836L17.2136 43.367L16.3906 37.2636Z" fill="#E09927"/>
<path d="M12.8662 25.3026L15.5007 23.7718L17.6817 30.1524L15.0474 31.6834L12.8662 25.3026Z" fill="#E09927"/>
<path d="M15.0469 31.6831L17.6812 30.1521L22.5877 33.8049L19.9535 35.3359L15.0469 31.6831Z" fill="#E4AB3C"/>
<path d="M12.8661 25.3023L15.0472 31.6831L19.9539 35.3359L16.3903 37.2638L17.2133 43.3672L12.8295 38.1787L8.4309 38.2966L9.28576 33.1621L5.74463 27.1322L10.6561 29.1479L12.8661 25.3023Z" fill="#F9BB41"/>
<path d="M10.2453 29.162L10.3303 29.0141L5.74463 27.1323L5.88597 27.3729L10.2453 29.162Z" fill="url(#paint0_linear_125_12695)"/>
<path d="M19.9538 35.336L15.0472 31.6832L12.866 25.3025L12.6055 25.756L14.6364 31.6975L19.5433 35.3503L15.9797 37.2782L16.7222 42.7863L17.2132 43.3674L16.3902 37.264L19.9538 35.336Z" fill="url(#paint1_linear_125_12695)"/>
<path d="M58.2816 49.5226C58.2808 49.4994 58.2799 49.4759 58.2784 49.4523C58.2768 49.4288 58.2751 49.4052 58.2727 49.3815C58.2705 49.3578 58.2678 49.3341 58.2649 49.3102C58.2618 49.2858 58.2584 49.2614 58.2545 49.237C58.2543 49.2355 58.254 49.2341 58.2538 49.2326C58.2538 49.2319 58.2535 49.2314 58.2535 49.2307C58.2499 49.2082 58.2461 49.1858 58.242 49.163C58.2372 49.1377 58.2321 49.1123 58.2265 49.0867C58.221 49.0611 58.2149 49.0357 58.2086 49.0101C58.2021 48.9842 58.1953 48.9584 58.1883 48.9323C58.1825 48.9108 58.176 48.8895 58.1695 48.8682C58.1692 48.867 58.1687 48.8656 58.1682 48.8644C58.1673 48.8612 58.1663 48.8581 58.1656 48.855C58.1579 48.8296 58.1497 48.8042 58.1412 48.7791C58.1328 48.7539 58.124 48.7291 58.1151 48.7042C58.1064 48.6802 58.0975 48.6561 58.0881 48.6322C58.0787 48.6082 58.0692 48.5843 58.059 48.5606C58.0513 48.5416 58.0428 48.5225 58.0346 48.5034C58.0341 48.5022 58.0337 48.501 58.033 48.4995C58.0315 48.4964 58.0303 48.4932 58.0288 48.4901C58.0185 48.4662 58.0076 48.4425 57.9965 48.4188C57.9844 48.3927 57.9716 48.3669 57.9588 48.341C57.944 48.3115 57.9288 48.282 57.9133 48.2528C57.8962 48.2207 57.8781 48.1893 57.86 48.1576C57.8568 48.1523 57.8539 48.1467 57.851 48.1414C57.8474 48.1354 57.844 48.1289 57.8404 48.1228C57.8056 48.0634 57.7689 48.0051 57.7307 47.9479C57.7007 47.9032 57.6698 47.8592 57.6381 47.8162C57.6379 47.8157 57.6376 47.8154 57.6374 47.815L57.6371 47.8145C57.6156 47.7855 57.5939 47.7567 57.5717 47.7285C57.553 47.7048 57.534 47.6813 57.5149 47.6584C57.4963 47.6359 57.4772 47.6137 57.4581 47.5919C57.4392 47.5704 57.4201 47.5492 57.4008 47.5284C57.3974 47.5248 57.3938 47.5212 57.3904 47.5175C57.389 47.5158 57.3873 47.5144 57.3859 47.5127C57.3707 47.4967 57.3559 47.4808 57.3404 47.4651C57.3199 47.4443 57.2994 47.4238 57.2783 47.4037C57.2571 47.3832 57.2356 47.3631 57.2138 47.3438C57.1921 47.3245 57.1706 47.3054 57.1486 47.2868C57.1382 47.2778 57.1273 47.2694 57.1167 47.2607C57.114 47.2585 57.1116 47.2566 57.109 47.2544C57.1003 47.2474 57.0918 47.2401 57.0833 47.2334C57.0621 47.2164 57.0406 47.2003 57.0191 47.1843C56.9981 47.1688 56.9768 47.1536 56.9552 47.1391C56.9347 47.1251 56.914 47.1113 56.8932 47.098C56.8726 47.085 56.8521 47.0724 56.8313 47.0601C56.8265 47.0572 56.8216 47.0545 56.8168 47.0516L27.558 30.2449C27.5426 30.236 27.5271 30.2273 27.5119 30.2191C27.4918 30.2082 27.472 30.198 27.4522 30.1881C27.4324 30.1785 27.4128 30.169 27.3933 30.1603C27.3737 30.1516 27.3543 30.1434 27.335 30.1357C27.3154 30.1277 27.2956 30.1205 27.2763 30.1135C27.2719 30.112 27.2676 30.1108 27.2632 30.1091C27.2616 30.1086 27.2601 30.1081 27.2586 30.1077C27.2449 30.1031 27.2314 30.0985 27.2178 30.0944C27.1975 30.0883 27.1775 30.0825 27.1574 30.0777C27.1371 30.0726 27.1171 30.0683 27.0972 30.0644C27.0755 30.0603 27.0542 30.0567 27.0329 30.0538C27.0175 30.0516 27.0025 30.0504 26.9875 30.0492C26.9856 30.0489 26.9834 30.0487 26.9815 30.0485C26.9769 30.0482 26.9723 30.0473 26.9677 30.047C26.9443 30.0453 26.9211 30.0446 26.8984 30.0446C26.8725 30.0446 26.8469 30.0461 26.822 30.0482C26.7931 30.0509 26.7648 30.055 26.7372 30.0605C26.7362 30.0608 26.7353 30.061 26.7343 30.0613C26.7329 30.0615 26.7316 30.0622 26.7302 30.0625C26.6973 30.0695 26.665 30.0779 26.634 30.0891C26.5922 30.1038 26.5523 30.1222 26.5146 30.1444L24.9175 31.1025C24.9834 31.064 25.056 31.037 25.1333 31.0206C25.135 31.0203 25.1359 31.0196 25.1376 31.0193C25.2151 31.0036 25.2978 30.999 25.3845 31.0063C25.3867 31.0065 25.3887 31.0068 25.3906 31.0068C25.4771 31.0145 25.5677 31.0338 25.6615 31.0655C25.6632 31.066 25.6646 31.0665 25.6663 31.067C25.7617 31.0996 25.8601 31.1443 25.9611 31.2025L55.2199 48.0092C55.3199 48.067 55.4173 48.1354 55.5118 48.2117C55.5144 48.2139 55.5171 48.2161 55.5197 48.2183C55.6128 48.2944 55.7029 48.3787 55.7887 48.4698C55.7901 48.4715 55.7918 48.4729 55.7933 48.4746C55.8803 48.5677 55.9631 48.6672 56.0407 48.7723L56.0409 48.7726C56.1175 48.8767 56.1888 48.9859 56.2541 49.0985C56.2572 49.1038 56.2601 49.1094 56.2633 49.1147C56.3271 49.2259 56.3852 49.3404 56.4362 49.4566C56.4367 49.4578 56.4375 49.4593 56.4379 49.4605C56.4899 49.5796 56.5348 49.7004 56.5713 49.8215C56.5716 49.8227 56.572 49.8241 56.5725 49.8253C56.609 49.9466 56.6375 50.0679 56.6569 50.1878C56.6569 50.1885 56.6571 50.189 56.6571 50.1897C56.6764 50.3103 56.6864 50.4294 56.6861 50.5452C56.6856 50.6592 56.6752 50.7646 56.6559 50.8612C56.6554 50.8641 56.6547 50.867 56.6542 50.8699C56.6349 50.9654 56.6066 51.0524 56.5706 51.1299C56.5701 51.1309 56.5696 51.1321 56.5691 51.1331C56.5387 51.1981 56.4993 51.2522 56.4585 51.3039C56.4449 51.3208 56.4321 51.3392 56.4176 51.3546C56.3691 51.4064 56.3162 51.4527 56.2565 51.4873L57.8534 50.5292C57.9131 50.4947 57.9658 50.4485 58.0146 50.3966C58.0293 50.3809 58.0419 50.363 58.0557 50.3458C58.0733 50.3234 58.0934 50.3043 58.1093 50.2794C58.1294 50.2477 58.148 50.2141 58.1649 50.1786C58.1654 50.1774 58.1659 50.1762 58.1664 50.175C58.1668 50.174 58.1673 50.1728 58.1678 50.1716C58.1791 50.147 58.1903 50.1216 58.1999 50.095C58.2091 50.0701 58.2176 50.0443 58.2255 50.0177C58.2328 49.9933 58.2393 49.9684 58.2451 49.9428C58.2475 49.9326 58.2492 49.922 58.2514 49.9116C58.2521 49.9087 58.2526 49.9058 58.2533 49.9027C58.2555 49.892 58.2579 49.8816 58.2599 49.8708C58.2637 49.8478 58.2673 49.8246 58.2702 49.8009C58.2731 49.7777 58.2756 49.7543 58.2775 49.7304C58.2794 49.7077 58.2809 49.6847 58.2819 49.6615C58.2828 49.6383 58.2835 49.6147 58.2835 49.591C58.2835 49.5895 58.2835 49.5881 58.2835 49.5869C58.2828 49.5663 58.2823 49.5446 58.2816 49.5226Z" fill="#ACACCD"/>
<path d="M55.2198 48.0096C56.0303 48.4774 56.6882 49.6174 56.6858 50.5458C56.6831 51.477 56.0206 51.8544 55.2104 51.3866L25.9517 34.5799C25.1439 34.1135 24.4856 32.9735 24.4883 32.0423C24.4909 31.1139 25.1533 30.7365 25.9613 31.2028L55.2198 48.0096Z" fill="white"/>
<path d="M55.2193 48.0099L25.9605 31.2032C25.5618 30.9732 25.1991 30.9492 24.9331 31.0947C25.1793 31.0237 25.484 31.0713 25.8139 31.2617L55.0727 48.0684C55.8831 48.5362 56.5411 49.6762 56.5386 50.6046C56.5372 51.0763 56.3664 51.4051 56.0931 51.5547C56.4502 51.4517 56.6836 51.0968 56.6853 50.5459C56.6879 49.6178 56.0298 48.478 55.2193 48.0099Z" fill="white"/>
<path d="M58.2816 56.4626C58.2808 56.4394 58.2799 56.416 58.2784 56.3923C58.2768 56.3689 58.2751 56.3452 58.2727 56.3215C58.2705 56.2978 58.2678 56.2742 58.2649 56.2502C58.2618 56.2258 58.2584 56.2014 58.2545 56.177C58.2543 56.1756 58.254 56.1741 58.2538 56.1727C58.2538 56.1722 58.2535 56.1715 58.2535 56.1707C58.2499 56.1483 58.2461 56.1258 58.242 56.1031C58.2372 56.0777 58.2321 56.0523 58.2265 56.0267C58.221 56.0011 58.2149 55.9757 58.2086 55.9501C58.2021 55.9243 58.1953 55.8984 58.1883 55.8723C58.1825 55.8508 58.176 55.8295 58.1695 55.8083C58.1692 55.8071 58.1687 55.8056 58.1682 55.8044C58.1673 55.8013 58.1663 55.7981 58.1656 55.795C58.1579 55.7696 58.1497 55.7445 58.1412 55.7191C58.1328 55.694 58.124 55.6691 58.1151 55.6442C58.1064 55.6203 58.0975 55.5961 58.0881 55.5722C58.0787 55.5483 58.0692 55.5244 58.059 55.5007C58.0513 55.4816 58.0428 55.4625 58.0346 55.4434C58.0341 55.4422 58.0337 55.441 58.033 55.4395C58.0315 55.4364 58.0303 55.4333 58.0288 55.4301C58.0185 55.4062 58.0076 55.3825 57.9965 55.3588C57.9844 55.3328 57.9716 55.3069 57.9588 55.281C57.944 55.2516 57.9288 55.2221 57.9133 55.1928C57.8962 55.1607 57.8781 55.1293 57.86 55.0976C57.8568 55.0923 57.8539 55.0868 57.851 55.0815C57.8474 55.0752 57.844 55.0689 57.8404 55.0629C57.8056 55.0034 57.7689 54.9452 57.7307 54.8879C57.7007 54.8432 57.6698 54.7992 57.6381 54.756C57.6379 54.7555 57.6377 54.7553 57.6377 54.7553L57.6371 54.7545C57.6156 54.7255 57.5939 54.6968 57.5717 54.6685C57.553 54.6448 57.534 54.6214 57.5149 54.5984C57.4963 54.576 57.4772 54.5537 57.4581 54.532C57.4392 54.5105 57.4201 54.4892 57.4008 54.4684C57.3974 54.4648 57.3938 54.4612 57.3904 54.4576C57.389 54.4559 57.3873 54.4544 57.3859 54.4527C57.3707 54.4368 57.3559 54.4208 57.3404 54.4051C57.3199 54.3843 57.2994 54.3638 57.2783 54.344C57.2571 54.3234 57.2356 54.3034 57.2138 54.2838C57.1921 54.2645 57.1706 54.2454 57.1486 54.2268C57.1382 54.2179 57.1273 54.2094 57.1167 54.2007C57.114 54.1985 57.1116 54.1966 57.109 54.1944C57.1003 54.1874 57.0918 54.1802 57.0833 54.1734C57.0621 54.1567 57.0406 54.1403 57.0191 54.1243C56.9981 54.1089 56.9768 54.0937 56.9552 54.0792C56.9347 54.0651 56.914 54.0514 56.8932 54.0381C56.8726 54.025 56.8521 54.0125 56.8313 54.0002C56.8265 53.9973 56.8216 53.9946 56.8168 53.9917L27.558 37.1849C27.5426 37.176 27.5271 37.1673 27.5119 37.1591C27.4918 37.1482 27.472 37.1381 27.4522 37.1282C27.4324 37.1183 27.4128 37.1091 27.3933 37.1004C27.3737 37.0917 27.3543 37.0835 27.335 37.0757C27.3154 37.0678 27.2956 37.0605 27.2763 37.0535C27.2719 37.052 27.2676 37.0506 27.2632 37.0491C27.2616 37.0487 27.2601 37.0482 27.2586 37.0477C27.2449 37.0431 27.2314 37.0385 27.2178 37.0344C27.1975 37.0284 27.1775 37.0228 27.1574 37.0177C27.1371 37.0127 27.1171 37.0083 27.0972 37.0044C27.0755 37.0003 27.0542 36.9967 27.0329 36.9938C27.0175 36.9916 27.0025 36.9904 26.9875 36.9892C26.9856 36.989 26.9834 36.9887 26.9815 36.9885C26.9769 36.988 26.9723 36.9873 26.9677 36.9871C26.9443 36.9854 26.9211 36.9846 26.8984 36.9846C26.8725 36.9849 26.8469 36.9858 26.822 36.9883C26.7931 36.9909 26.7648 36.995 26.7372 37.0006C26.7362 37.0008 26.7353 37.0011 26.7343 37.0013C26.7329 37.0015 26.7316 37.0023 26.7302 37.0025C26.6973 37.0095 26.665 37.018 26.634 37.0291C26.5922 37.0438 26.5523 37.0624 26.5146 37.0844L24.9175 38.0425C24.9834 38.0041 25.056 37.977 25.1333 37.9606C25.135 37.9604 25.1359 37.9599 25.1376 37.9594C25.2151 37.9437 25.2978 37.9391 25.3845 37.9463C25.3867 37.9466 25.3887 37.9468 25.3906 37.9471C25.4771 37.9548 25.5677 37.9741 25.6615 38.0055C25.6632 38.006 25.6646 38.0065 25.6663 38.0072C25.7617 38.0396 25.8601 38.0845 25.9611 38.1428L55.2199 54.9495C55.3199 55.0073 55.4173 55.0754 55.5118 55.152C55.5144 55.1542 55.5171 55.1564 55.5197 55.1585C55.6128 55.2347 55.7029 55.319 55.7887 55.4101C55.7901 55.4118 55.7918 55.4132 55.7933 55.4149C55.8803 55.5079 55.9631 55.6075 56.0407 55.7126L56.0409 55.7128C56.1175 55.817 56.1888 55.9262 56.2541 56.0388C56.2572 56.0441 56.2601 56.0497 56.2633 56.055C56.3271 56.1661 56.3852 56.2807 56.4362 56.3969C56.4367 56.3981 56.4375 56.3993 56.4379 56.4008C56.4899 56.5199 56.5348 56.6407 56.5713 56.7618C56.5716 56.763 56.572 56.7644 56.5725 56.7656C56.609 56.8869 56.6375 57.0082 56.6569 57.1281C56.6569 57.1288 56.6571 57.1293 56.6571 57.13C56.6764 57.2506 56.6864 57.3697 56.6861 57.4855C56.6856 57.5995 56.6752 57.7046 56.6559 57.8015C56.6554 57.8044 56.6547 57.8073 56.6542 57.8102C56.6349 57.9057 56.6066 57.9926 56.5706 58.0702C56.5701 58.0714 56.5696 58.0724 56.5691 58.0733C56.5387 58.1383 56.4993 58.1925 56.4585 58.2442C56.4449 58.2613 56.4321 58.2795 56.4176 58.2949C56.3691 58.3469 56.3162 58.3928 56.2565 58.4276L57.8534 57.4695C57.9131 57.4347 57.9658 57.3888 58.0146 57.3368C58.0293 57.3211 58.0419 57.3033 58.0557 57.2861C58.0733 57.2639 58.0934 57.2445 58.1093 57.2197C58.1294 57.188 58.148 57.1544 58.1649 57.1189C58.1654 57.1177 58.1659 57.1165 58.1664 57.1153C58.1668 57.1143 58.1673 57.1131 58.1678 57.1119C58.1791 57.0872 58.1903 57.0619 58.1999 57.0353C58.2091 57.0104 58.2176 56.9845 58.2255 56.958C58.2328 56.9336 58.2393 56.9087 58.2451 56.8831C58.2475 56.8729 58.2492 56.8623 58.2514 56.8519C58.2521 56.849 58.2526 56.8461 58.2533 56.843C58.2555 56.8323 58.2579 56.8219 58.2599 56.8111C58.2637 56.7883 58.2673 56.7649 58.2702 56.7412C58.2731 56.718 58.2756 56.6946 58.2775 56.6707C58.2794 56.648 58.2809 56.625 58.2819 56.6018C58.2828 56.5786 58.2835 56.5552 58.2835 56.5312C58.2835 56.5298 58.2835 56.5283 58.2835 56.5269C58.2828 56.5064 58.2823 56.4844 58.2816 56.4626Z" fill="#ACACCD"/>
<path d="M55.2198 54.9505C56.0303 55.4183 56.6882 56.5583 56.6858 57.4867C56.6831 58.4179 56.0206 58.7954 55.2104 58.3276L25.9517 41.5208C25.1439 41.0545 24.4856 39.9144 24.4883 38.9832C24.4909 38.0548 25.1533 37.6774 25.9613 38.1438L55.2198 54.9505Z" fill="white"/>
<path d="M55.2193 54.95L25.9605 38.1432C25.5618 37.9132 25.1991 37.8893 24.9331 38.0347C25.1793 37.9637 25.484 38.0113 25.8139 38.2017L55.0727 55.0084C55.8831 55.4762 56.5411 56.6163 56.5386 57.5446C56.5372 58.0163 56.3664 58.3452 56.0931 58.4947C56.4502 58.3918 56.6836 58.0366 56.6853 57.4859C56.6879 56.5578 56.0298 55.4178 55.2193 54.95Z" fill="white"/>
<path d="M58.2816 63.4011C58.2808 63.3779 58.2799 63.3544 58.2784 63.3307C58.2768 63.3073 58.2751 63.2836 58.2727 63.2599C58.2705 63.2363 58.2678 63.2123 58.2649 63.1887C58.2618 63.1642 58.2584 63.1398 58.2545 63.1154C58.2543 63.114 58.254 63.1125 58.2538 63.1111C58.2538 63.1104 58.2535 63.1099 58.2535 63.1092C58.2499 63.0867 58.2461 63.0642 58.242 63.0415C58.2372 63.0161 58.2321 62.9908 58.2265 62.9651C58.221 62.9395 58.2149 62.9142 58.2086 62.8885C58.2021 62.8627 58.1953 62.8366 58.1883 62.8107C58.1825 62.7895 58.176 62.768 58.1695 62.7467C58.1692 62.7453 58.1687 62.7441 58.1682 62.7428C58.1673 62.7397 58.1663 62.7366 58.1656 62.7334C58.1579 62.7081 58.1497 62.6829 58.1412 62.6575C58.1328 62.6324 58.124 62.6075 58.1151 62.5826C58.1064 62.5587 58.0975 62.5346 58.0881 62.5106C58.0787 62.4867 58.0692 62.4628 58.059 62.4391C58.0513 62.42 58.0428 62.4009 58.0346 62.3818C58.0341 62.3806 58.0337 62.3794 58.033 62.378C58.0315 62.3748 58.0303 62.3717 58.0288 62.3686C58.0185 62.3446 58.0076 62.321 57.9965 62.2973C57.9844 62.2712 57.9716 62.2453 57.9588 62.2195C57.944 62.19 57.9288 62.1605 57.9133 62.1313C57.8962 62.0991 57.8781 62.0675 57.86 62.0361C57.8568 62.0308 57.8539 62.0252 57.851 62.0199C57.8474 62.0136 57.844 62.0073 57.8404 62.0013C57.8056 61.9421 57.7689 61.8836 57.7307 61.8263C57.7007 61.7816 57.6698 61.7377 57.6381 61.6946C57.6379 61.6944 57.6377 61.6939 57.6377 61.6939L57.6371 61.6932C57.6156 61.664 57.5939 61.6354 57.5717 61.6072C57.553 61.5835 57.534 61.5601 57.5149 61.5371C57.4963 61.5146 57.4772 61.4924 57.4581 61.4706C57.4392 61.4491 57.4201 61.4279 57.4008 61.4071C57.3974 61.4035 57.3938 61.3999 57.3904 61.3962C57.389 61.3945 57.3873 61.3931 57.3859 61.3914C57.3707 61.3754 57.3559 61.3595 57.3404 61.344C57.3199 61.3233 57.2994 61.3027 57.2783 61.2827C57.2571 61.2621 57.2356 61.2423 57.2138 61.2227C57.1921 61.2034 57.1706 61.1843 57.1486 61.1657C57.1382 61.1568 57.1273 61.1483 57.1167 61.1396C57.114 61.1374 57.1116 61.1355 57.109 61.1333C57.1003 61.1263 57.0918 61.1191 57.0833 61.1123C57.0621 61.0956 57.0406 61.0792 57.0191 61.0633C56.9981 61.0478 56.9768 61.0326 56.9552 61.0181C56.9347 61.0041 56.914 60.9903 56.8932 60.977C56.8726 60.964 56.8521 60.9514 56.8313 60.9391C56.8265 60.9362 56.8216 60.9335 56.8168 60.9306L27.558 44.1239C27.5426 44.1149 27.5271 44.1065 27.5119 44.098C27.4918 44.0871 27.472 44.077 27.4522 44.0671C27.4324 44.0574 27.4128 44.048 27.3933 44.0393C27.3737 44.0306 27.3543 44.0224 27.335 44.0144C27.3154 44.0064 27.2956 43.9992 27.2763 43.9924C27.2719 43.991 27.2676 43.9895 27.2632 43.9881C27.2616 43.9876 27.2601 43.9871 27.2586 43.9866C27.2449 43.982 27.2314 43.9774 27.2178 43.9733C27.1975 43.9673 27.1775 43.9617 27.1574 43.9567C27.1371 43.9516 27.1171 43.9472 27.0972 43.9434C27.0755 43.9393 27.0542 43.9356 27.0329 43.9327C27.0175 43.9308 27.0025 43.9296 26.9875 43.9281C26.9856 43.9279 26.9834 43.9277 26.9815 43.9277C26.9769 43.9272 26.9723 43.9265 26.9677 43.9262C26.9443 43.9245 26.9211 43.9238 26.8984 43.9238C26.8725 43.9238 26.8469 43.925 26.822 43.9274C26.7931 43.9301 26.7648 43.9342 26.7372 43.9397C26.7362 43.94 26.7353 43.9402 26.7343 43.9405C26.7329 43.9407 26.7316 43.9414 26.7302 43.9417C26.6973 43.9487 26.665 43.9571 26.634 43.968C26.5922 43.9827 26.5523 44.0014 26.5146 44.0233L24.9175 44.9814C24.9834 44.943 25.056 44.9159 25.1333 44.8995C25.135 44.8993 25.1359 44.8985 25.1376 44.8983C25.2151 44.8823 25.2978 44.878 25.3845 44.8853C25.3867 44.8855 25.3887 44.8857 25.3906 44.886C25.4771 44.8937 25.5677 44.913 25.6615 44.9444C25.6632 44.9449 25.6646 44.9454 25.6663 44.9459C25.7617 44.9783 25.8601 45.0232 25.9611 45.0815L55.2199 61.8882C55.3199 61.9459 55.4173 62.0141 55.5118 62.0907C55.5144 62.0928 55.5171 62.095 55.5197 62.0972C55.6128 62.1733 55.7029 62.2577 55.7887 62.3487C55.7901 62.3504 55.7918 62.3519 55.7933 62.3536C55.8803 62.4464 55.9631 62.5462 56.0407 62.6513L56.0409 62.6515C56.1175 62.7557 56.1888 62.8649 56.2541 62.9775C56.2572 62.9828 56.2601 62.9883 56.2633 62.9937C56.3271 63.1048 56.3852 63.2191 56.4362 63.3356C56.4367 63.3368 56.4375 63.3382 56.4379 63.3394C56.4899 63.4586 56.5348 63.5794 56.5713 63.7004C56.5716 63.7016 56.572 63.7031 56.5725 63.7043C56.609 63.8256 56.6375 63.9469 56.6569 64.0668C56.6569 64.0675 56.6571 64.068 56.6571 64.0687C56.6764 64.1893 56.6864 64.3084 56.6861 64.4241C56.6856 64.5382 56.6752 64.6433 56.6559 64.7402C56.6554 64.7431 56.6547 64.746 56.6542 64.7489C56.6349 64.8443 56.6066 64.9313 56.5706 65.0089C56.5701 65.0098 56.5696 65.011 56.5691 65.012C56.5387 65.077 56.4993 65.1311 56.4585 65.1828C56.4449 65.1998 56.4321 65.2181 56.4176 65.2336C56.3691 65.2853 56.3162 65.3317 56.2565 65.3662L57.8534 64.4082C57.9131 64.3736 57.9658 64.3275 58.0146 64.2755C58.0293 64.2598 58.0419 64.2419 58.0557 64.2248C58.0733 64.2023 58.0934 64.1832 58.1093 64.1583C58.1294 64.1269 58.148 64.0931 58.1649 64.0576C58.1654 64.0564 58.1659 64.0551 58.1664 64.0539C58.1668 64.053 58.1673 64.0518 58.1678 64.0506C58.1791 64.0259 58.1903 64.0005 58.1999 63.974C58.2091 63.9491 58.2176 63.9232 58.2255 63.8966C58.2328 63.8722 58.2393 63.8473 58.2451 63.8217C58.2475 63.8116 58.2492 63.801 58.2514 63.7906C58.2521 63.7877 58.2526 63.7845 58.2533 63.7816C58.2555 63.771 58.2579 63.7606 58.2599 63.7497C58.2637 63.727 58.2673 63.7036 58.2702 63.6799C58.2731 63.6567 58.2756 63.6333 58.2775 63.6093C58.2794 63.5866 58.2809 63.5637 58.2819 63.5405C58.2828 63.5173 58.2835 63.4938 58.2835 63.4699C58.2835 63.4685 58.2835 63.4673 58.2835 63.4658C58.2828 63.4448 58.2823 63.423 58.2816 63.4011Z" fill="#ACACCD"/>
<path d="M55.2198 61.8888C56.0303 62.3566 56.6882 63.4966 56.6858 64.4249C56.6831 65.3562 56.0206 65.7336 55.2104 65.2658L25.9517 48.4591C25.1439 47.9927 24.4856 46.8527 24.4883 45.9215C24.4909 44.9931 25.1533 44.6157 25.9613 45.082L55.2198 61.8888Z" fill="white"/>
<path d="M55.2193 61.8884L25.9605 45.0817C25.5618 44.8514 25.1991 44.8275 24.9331 44.9732C25.1793 44.9021 25.484 44.9498 25.8139 45.1402L55.0727 61.9469C55.8831 62.4147 56.5411 63.5547 56.5386 64.4831C56.5372 64.9547 56.3664 65.2836 56.0931 65.4332C56.4502 65.3302 56.6836 64.9753 56.6853 64.4244C56.6879 63.4962 56.0298 62.3565 55.2193 61.8884Z" fill="white"/>
<path d="M5.74463 51.0671L8.37917 49.5361L13.2903 51.5518L10.6561 53.0828L5.74463 51.0671Z" fill="#E09927"/>
<path d="M16.3906 61.1985L19.0251 59.6675L19.8479 65.7707L17.2136 67.3016L16.3906 61.1985Z" fill="#E09927"/>
<path d="M12.8662 49.2377L15.5007 47.7067L17.6817 54.0873L15.0474 55.6183L12.8662 49.2377Z" fill="#E09927"/>
<path d="M15.0469 55.618L17.6812 54.087L22.5877 57.7398L19.9535 59.2708L15.0469 55.618Z" fill="#E4AB3C"/>
<path d="M12.8661 49.2372L15.0472 55.6178L19.9539 59.2705L16.3903 61.1988L17.2133 67.3019L12.8295 62.1136L8.4309 62.2315L9.28576 57.0968L5.74463 51.0669L10.6561 53.0826L12.8661 49.2372Z" fill="#F9BB41"/>
<path d="M10.2453 53.0959L10.3303 52.9481L5.74463 51.066L5.88597 51.3066L10.2453 53.0959Z" fill="url(#paint2_linear_125_12695)"/>
<path d="M19.9538 59.2704L15.0472 55.6176L12.866 49.2371L12.6055 49.6904L14.6364 55.6319L19.5433 59.2846L15.9797 61.2126L16.7222 66.7206L17.2132 67.3018L16.3902 61.1986L19.9538 59.2704Z" fill="url(#paint3_linear_125_12695)"/>
<path d="M58.2816 73.4572C58.2808 73.4338 58.2799 73.4103 58.2784 73.3869C58.2768 73.3634 58.2751 73.3398 58.2727 73.3161C58.2705 73.2924 58.2678 73.2687 58.2649 73.2448C58.2618 73.2204 58.2584 73.196 58.2545 73.1716C58.2543 73.1701 58.254 73.1687 58.2538 73.1672C58.2538 73.1665 58.2535 73.166 58.2535 73.1653C58.2499 73.1428 58.2461 73.1204 58.242 73.0979C58.2372 73.0725 58.2321 73.0471 58.2265 73.0215C58.221 72.9959 58.2149 72.9706 58.2086 72.9449C58.2021 72.9191 58.1953 72.8932 58.1883 72.8671C58.1825 72.8459 58.176 72.8244 58.1695 72.8031C58.1692 72.8019 58.1687 72.8004 58.1682 72.7992C58.1673 72.7961 58.1663 72.7929 58.1656 72.7898C58.1579 72.7644 58.1497 72.7393 58.1412 72.7139C58.1328 72.6888 58.124 72.6639 58.1151 72.639C58.1064 72.6149 58.0975 72.5909 58.0881 72.567C58.0787 72.5431 58.0692 72.5192 58.059 72.4955C58.0513 72.4764 58.0428 72.4573 58.0346 72.4382C58.0341 72.437 58.0337 72.4356 58.033 72.4344C58.0315 72.4312 58.0303 72.4281 58.0288 72.4247C58.0185 72.4008 58.0076 72.3771 57.9965 72.3534C57.9844 72.3273 57.9716 72.3015 57.9588 72.2756C57.944 72.2461 57.9288 72.2167 57.9133 72.1874C57.8962 72.1553 57.8781 72.1239 57.86 72.0922C57.8568 72.0869 57.8539 72.0813 57.851 72.076C57.8474 72.0697 57.844 72.0635 57.8404 72.0574C57.8056 71.998 57.7689 71.9397 57.7307 71.8825C57.7007 71.8378 57.6698 71.7938 57.6381 71.7508C57.6379 71.7503 57.6376 71.7501 57.6374 71.7496L57.6371 71.7491C57.6156 71.7199 57.5939 71.6911 57.5717 71.6628C57.553 71.6392 57.534 71.6157 57.5149 71.5928C57.4963 71.5703 57.4772 71.5481 57.4581 71.5261C57.4392 71.5046 57.4201 71.4833 57.4008 71.4625C57.3974 71.4589 57.3938 71.4553 57.3904 71.4517C57.389 71.45 57.3873 71.4485 57.3859 71.4468C57.3707 71.4309 57.3559 71.4149 57.3404 71.3992C57.3199 71.3784 57.2994 71.3579 57.2783 71.3378C57.2571 71.3175 57.2356 71.2975 57.2138 71.2777C57.1921 71.2583 57.1706 71.2392 57.1486 71.2206C57.1382 71.2117 57.1273 71.2033 57.1167 71.1946C57.114 71.1924 57.1116 71.1904 57.109 71.1883C57.1003 71.1813 57.0918 71.174 57.0833 71.1673C57.0621 71.1506 57.0406 71.1341 57.0191 71.1182C56.9981 71.1027 56.9768 71.0875 56.9552 71.073C56.9347 71.059 56.914 71.0452 56.8932 71.0319C56.8726 71.0189 56.8521 71.0063 56.8313 70.994C56.8265 70.9913 56.8216 70.9884 56.8168 70.9855L27.558 54.1788C27.5426 54.1699 27.5271 54.1612 27.5119 54.1529C27.4918 54.1421 27.472 54.1319 27.4522 54.122C27.4324 54.1123 27.4128 54.1029 27.3933 54.0942C27.3737 54.0855 27.3543 54.0773 27.335 54.0696C27.3154 54.0616 27.2956 54.0544 27.2763 54.0474C27.2719 54.0459 27.2676 54.0447 27.2632 54.043C27.2616 54.0425 27.2601 54.042 27.2586 54.0416C27.2449 54.037 27.2314 54.0324 27.2178 54.0283C27.1975 54.0222 27.1775 54.0167 27.1574 54.0116C27.1371 54.0065 27.1171 54.0022 27.0972 53.9983C27.0755 53.994 27.0542 53.9906 27.0329 53.9877C27.0175 53.9857 27.0025 53.9843 26.9875 53.9831C26.9856 53.9828 26.9834 53.9826 26.9815 53.9826C26.9769 53.9821 26.9723 53.9814 26.9677 53.9811C26.9443 53.9795 26.9211 53.9787 26.8984 53.979C26.8725 53.979 26.8469 53.9802 26.822 53.9826C26.7931 53.9853 26.7648 53.9894 26.7372 53.9949C26.7362 53.9952 26.7353 53.9954 26.7343 53.9956C26.7329 53.9959 26.7316 53.9964 26.7302 53.9969C26.6973 54.0039 26.665 54.0123 26.634 54.0234C26.5922 54.0382 26.5523 54.0568 26.5146 54.0788L24.9175 55.0368C24.9834 54.9984 25.056 54.9714 25.1333 54.9549C25.135 54.9547 25.1359 54.954 25.1376 54.9537C25.2151 54.938 25.2978 54.9334 25.3845 54.9407C25.3867 54.9409 25.3887 54.9411 25.3906 54.9411C25.4771 54.9489 25.5677 54.9682 25.6615 54.9996C25.6632 55.0001 25.6646 55.0006 25.6663 55.0011C25.7617 55.0337 25.8601 55.0784 25.9611 55.1366L55.2199 71.9434C55.3199 72.0011 55.4173 72.0695 55.5118 72.1459C55.5144 72.148 55.5171 72.1502 55.5197 72.1524C55.6128 72.2285 55.7029 72.3128 55.7887 72.4042C55.7901 72.4059 55.7918 72.4073 55.7933 72.409C55.8803 72.502 55.9631 72.6016 56.0407 72.7067L56.0409 72.7069C56.1175 72.8111 56.1888 72.9203 56.2541 73.0329C56.2572 73.0382 56.2601 73.0438 56.2633 73.0491C56.3271 73.1602 56.3852 73.2745 56.4362 73.391C56.4367 73.3922 56.4375 73.3934 56.4379 73.3949C56.4899 73.514 56.5348 73.6348 56.5713 73.7558C56.5716 73.7571 56.572 73.7585 56.5725 73.7597C56.609 73.881 56.6375 74.0023 56.6569 74.1222C56.6569 74.1229 56.6571 74.1234 56.6571 74.1241C56.6764 74.2449 56.6864 74.3638 56.6861 74.4798C56.6856 74.5938 56.6752 74.6992 56.6559 74.7958C56.6554 74.7987 56.6547 74.8016 56.6542 74.8045C56.6349 74.9 56.6066 74.987 56.5706 75.0645C56.5701 75.0655 56.5696 75.0667 56.5691 75.0677C56.5387 75.1327 56.4993 75.1868 56.4585 75.2385C56.4449 75.2554 56.4321 75.2738 56.4176 75.2893C56.3691 75.341 56.3162 75.3871 56.2565 75.4219L57.8534 74.4638C57.9131 74.4291 57.9658 74.3831 58.0146 74.3312C58.0293 74.3155 58.0419 74.2976 58.0557 74.2804C58.0733 74.258 58.0934 74.2389 58.1093 74.214C58.1294 74.1826 58.148 74.1487 58.1649 74.1132C58.1654 74.112 58.1659 74.1108 58.1664 74.1096C58.1668 74.1086 58.1673 74.1074 58.1678 74.1062C58.1791 74.0816 58.1903 74.0562 58.1999 74.0296C58.2091 74.0047 58.2176 73.9789 58.2255 73.9525C58.2328 73.9281 58.2393 73.9033 58.2451 73.8776C58.2475 73.8675 58.2492 73.8569 58.2514 73.8465C58.2521 73.8436 58.2526 73.8407 58.2533 73.8378C58.2555 73.8271 58.2579 73.8167 58.2599 73.8059C58.2637 73.7832 58.2673 73.7597 58.2702 73.736C58.2731 73.7128 58.2756 73.6894 58.2775 73.6655C58.2794 73.6428 58.2809 73.6198 58.2819 73.5966C58.2828 73.5734 58.2835 73.55 58.2835 73.5261C58.2835 73.5246 58.2835 73.5232 58.2835 73.522C58.2828 73.5009 58.2823 73.4792 58.2816 73.4572Z" fill="#ACACCD"/>
<path d="M55.2198 71.9452C56.0303 72.413 56.6882 73.5531 56.6858 74.4814C56.6831 75.4127 56.0206 75.7901 55.2104 75.3223L25.9517 58.5155C25.1439 58.0492 24.4856 56.9092 24.4883 55.9779C24.4909 55.0496 25.1533 54.6721 25.9613 55.1385L55.2198 71.9452Z" fill="white"/>
<path d="M55.2193 71.9452L25.9605 55.1385C25.5618 54.9082 25.1991 54.8845 24.9331 55.03C25.1793 54.9589 25.484 55.0065 25.8139 55.1969L55.0727 72.0037C55.8831 72.4715 56.5411 73.6115 56.5386 74.5399C56.5372 75.0115 56.3664 75.3402 56.0931 75.49C56.4502 75.3868 56.6836 75.0318 56.6853 74.4811C56.6879 73.553 56.0298 72.413 55.2193 71.9452Z" fill="white"/>
<path d="M58.2816 80.3974C58.2808 80.3742 58.2799 80.3507 58.2784 80.3271C58.2768 80.3036 58.2751 80.2799 58.2727 80.2563C58.2705 80.2326 58.2678 80.2089 58.2649 80.185C58.2618 80.1606 58.2584 80.1362 58.2545 80.1118C58.2543 80.1103 58.254 80.1089 58.2538 80.1074C58.2538 80.1067 58.2535 80.1062 58.2535 80.1055C58.2499 80.083 58.2461 80.0605 58.242 80.0378C58.2372 80.0124 58.2321 79.9871 58.2265 79.9615C58.221 79.9359 58.2149 79.9105 58.2086 79.8849C58.2021 79.859 58.1953 79.8329 58.1883 79.8071C58.1825 79.7856 58.176 79.7643 58.1695 79.7428C58.1692 79.7416 58.1687 79.7401 58.1682 79.7389C58.1673 79.7358 58.1663 79.7326 58.1656 79.7295C58.1579 79.7041 58.1497 79.679 58.1412 79.6536C58.1328 79.6285 58.124 79.6036 58.1151 79.5787C58.1064 79.5546 58.0975 79.5306 58.0881 79.5067C58.0787 79.4828 58.0692 79.4589 58.059 79.4352C58.0513 79.4161 58.0428 79.397 58.0346 79.3779C58.0341 79.3767 58.0337 79.3755 58.033 79.3741C58.0315 79.3709 58.0303 79.3678 58.0288 79.3646C58.0185 79.3407 58.0076 79.317 57.9965 79.2934C57.9844 79.2673 57.9716 79.2414 57.9588 79.2156C57.944 79.1861 57.9288 79.1566 57.9133 79.1274C57.8962 79.0952 57.8781 79.0638 57.86 79.0322C57.8568 79.0268 57.8539 79.0213 57.851 79.016C57.8474 79.0097 57.844 79.0034 57.8404 78.9974C57.8056 78.9379 57.7689 78.8797 57.7307 78.8224C57.7007 78.7777 57.6698 78.7337 57.6381 78.6907C57.6379 78.6902 57.6376 78.69 57.6374 78.6895L57.6371 78.689C57.6156 78.66 57.5939 78.6313 57.5717 78.603C57.553 78.5793 57.534 78.5559 57.5149 78.5329C57.4963 78.5105 57.4772 78.4882 57.4581 78.4663C57.4392 78.4447 57.4201 78.4235 57.4008 78.4027C57.3974 78.3991 57.3938 78.3955 57.3904 78.3918C57.389 78.3901 57.3873 78.3887 57.3859 78.387C57.3707 78.371 57.3559 78.3551 57.3404 78.3394C57.3199 78.3186 57.2994 78.2981 57.2783 78.278C57.2571 78.2575 57.2356 78.2377 57.2138 78.2179C57.1921 78.1985 57.1706 78.1794 57.1486 78.1608C57.1382 78.1519 57.1273 78.1434 57.1167 78.1347C57.114 78.1326 57.1116 78.1306 57.109 78.1284C57.1003 78.1214 57.0918 78.1142 57.0833 78.1074C57.0621 78.0905 57.0406 78.0743 57.0191 78.0584C56.9981 78.0429 56.9768 78.0279 56.9552 78.0132C56.9347 77.9992 56.914 77.9854 56.8932 77.9721C56.8726 77.9591 56.8521 77.9465 56.8313 77.9342C56.8265 77.9313 56.8216 77.9286 56.8168 77.9257L27.558 61.119C27.5426 61.11 27.5271 61.1013 27.5119 61.0931C27.4918 61.0823 27.472 61.0721 27.4522 61.0622C27.4324 61.0525 27.4128 61.0431 27.3933 61.0344C27.3737 61.0257 27.3543 61.0175 27.335 61.0098C27.3154 61.0018 27.2956 60.9945 27.2763 60.9875C27.2719 60.9861 27.2676 60.9849 27.2632 60.9832C27.2616 60.9827 27.2601 60.9822 27.2586 60.9817C27.2449 60.9771 27.2314 60.9726 27.2178 60.9684C27.1975 60.9624 27.1775 60.9568 27.1574 60.9518C27.1371 60.9467 27.1171 60.9423 27.0972 60.9385C27.0755 60.9341 27.0542 60.9307 27.0329 60.9278C27.0175 60.9259 27.0025 60.9245 26.9875 60.9233C26.9856 60.923 26.9834 60.9228 26.9815 60.9225C26.9769 60.9221 26.9723 60.9213 26.9677 60.9211C26.9443 60.9194 26.9211 60.9187 26.8984 60.9189C26.8725 60.9189 26.8469 60.9201 26.822 60.9225C26.7931 60.9252 26.7648 60.9293 26.7372 60.9349C26.7362 60.9351 26.7353 60.9356 26.7343 60.9356C26.7329 60.9358 26.7316 60.9363 26.7302 60.9368C26.6973 60.9438 26.665 60.9523 26.634 60.9634C26.5922 60.9781 26.5523 60.9967 26.5146 61.0187L24.9175 61.9768C24.9834 61.9384 25.056 61.9113 25.1333 61.8949C25.135 61.8946 25.1359 61.8939 25.1376 61.8937C25.2151 61.8779 25.2978 61.8734 25.3845 61.8806C25.3867 61.8808 25.3887 61.8811 25.3906 61.8813C25.4771 61.8891 25.5677 61.9084 25.6615 61.9398C25.6632 61.9403 25.6646 61.9408 25.6663 61.9413C25.7617 61.9736 25.8601 62.0186 25.9611 62.0768L55.2199 78.8835C55.3199 78.9413 55.4173 79.0097 55.5118 79.086C55.5144 79.0882 55.5171 79.0904 55.5197 79.0926C55.6128 79.1687 55.7029 79.253 55.7887 79.3441C55.7901 79.3458 55.7918 79.3472 55.7933 79.3489C55.8803 79.442 55.9631 79.5415 56.0407 79.6466L56.0409 79.6469C56.1175 79.751 56.1888 79.8602 56.2541 79.9728C56.2572 79.9781 56.2601 79.9837 56.2633 79.989C56.3271 80.1002 56.3852 80.2147 56.4362 80.3309C56.4367 80.3321 56.4375 80.3333 56.4379 80.3348C56.4899 80.4539 56.5348 80.5747 56.5713 80.6958C56.5716 80.697 56.572 80.6984 56.5725 80.6997C56.609 80.821 56.6375 80.9423 56.6569 81.0621C56.6569 81.0628 56.6571 81.0633 56.6571 81.0633C56.6764 81.1846 56.6864 81.3037 56.6861 81.4195C56.6856 81.5335 56.6752 81.6389 56.6559 81.7355C56.6554 81.7384 56.6547 81.7413 56.6542 81.7442C56.6349 81.8397 56.6066 81.9267 56.5706 82.0042C56.5701 82.0052 56.5696 82.0064 56.5691 82.0074C56.5387 82.0724 56.4993 82.1265 56.4585 82.1782C56.4449 82.1954 56.4321 82.2135 56.4176 82.229C56.3691 82.2807 56.3162 82.3268 56.2565 82.3616L57.8534 81.4035C57.9131 81.369 57.9658 81.3228 58.0146 81.2709C58.0293 81.2552 58.0419 81.2373 58.0557 81.2201C58.0733 81.1977 58.0934 81.1786 58.1093 81.1537C58.1294 81.122 58.148 81.0885 58.1649 81.0529C58.1654 81.0517 58.1659 81.0505 58.1664 81.0491C58.1668 81.0481 58.1673 81.0469 58.1678 81.0457C58.1791 81.021 58.1903 80.9957 58.1999 80.9691C58.2091 80.9442 58.2176 80.9183 58.2255 80.8918C58.2328 80.8674 58.2393 80.8425 58.2451 80.8168C58.2475 80.8067 58.2492 80.7961 58.2514 80.7857C58.2521 80.7828 58.2526 80.7796 58.2533 80.7767C58.2555 80.7661 58.2579 80.7557 58.2599 80.7448C58.2637 80.7219 58.2673 80.6987 58.2702 80.675C58.2731 80.6521 58.2756 80.6284 58.2775 80.6045C58.2794 80.582 58.2809 80.559 58.2819 80.5356C58.2828 80.5124 58.2835 80.4889 58.2835 80.465C58.2835 80.4636 58.2835 80.4621 58.2835 80.4609C58.2828 80.4411 58.2823 80.4194 58.2816 80.3974Z" fill="#ACACCD"/>
<path d="M55.2198 78.8843C56.0303 79.3521 56.6882 80.4921 56.6858 81.4204C56.6831 82.3517 56.0206 82.7291 55.2104 82.2613L25.9517 65.4546C25.1439 64.9883 24.4856 63.8482 24.4883 62.917C24.4909 61.9886 25.1533 61.6112 25.9613 62.0775L55.2198 78.8843Z" fill="white"/>
<path d="M55.2193 78.8847L25.9605 62.078C25.5618 61.8477 25.1991 61.824 24.9331 61.9695C25.1793 61.8984 25.484 61.946 25.8139 62.1365L55.0727 78.9432C55.8831 79.411 56.5411 80.551 56.5386 81.4794C56.5372 81.951 56.3664 82.2799 56.0931 82.4295C56.4502 82.3265 56.6836 81.9716 56.6853 81.4207C56.6879 80.4925 56.0298 79.3525 55.2193 78.8847Z" fill="white"/>
<path d="M58.2818 87.3368C58.2811 87.3136 58.2801 87.2899 58.2787 87.2665C58.277 87.243 58.2753 87.2194 58.2729 87.1957C58.2707 87.172 58.2681 87.1483 58.2652 87.1244C58.262 87.1 58.2587 87.0756 58.2548 87.0512C58.2545 87.0497 58.2543 87.0483 58.254 87.0468C58.254 87.0461 58.2538 87.0456 58.2538 87.0456C58.2502 87.0227 58.2463 87 58.242 86.9775C58.2372 86.9521 58.232 86.9268 58.2265 86.9014C58.2209 86.8758 58.2149 86.8504 58.2086 86.8248C58.2021 86.7989 58.1953 86.7728 58.1883 86.747C58.1825 86.7255 58.176 86.7042 58.1695 86.6829C58.1692 86.6817 58.1687 86.6803 58.1682 86.6791C58.1673 86.6759 58.1663 86.6728 58.1656 86.6696C58.1579 86.6443 58.1497 86.6189 58.1412 86.5938C58.1328 86.5687 58.124 86.5438 58.1151 86.5189C58.1064 86.4947 58.0974 86.4708 58.088 86.4469C58.0786 86.4229 58.0692 86.399 58.059 86.3753C58.0513 86.3563 58.0428 86.3372 58.0346 86.3181C58.0341 86.3169 58.0337 86.3157 58.033 86.3142C58.0315 86.3111 58.0303 86.3079 58.0288 86.3048C58.0185 86.2809 58.0076 86.2572 57.9965 86.2335C57.9844 86.2074 57.9716 86.1816 57.9588 86.1557C57.944 86.1262 57.9288 86.0967 57.9133 86.0675C57.8962 86.0354 57.8781 86.004 57.86 85.9723C57.8568 85.967 57.8539 85.9614 57.851 85.9561C57.8474 85.9498 57.844 85.9435 57.8404 85.9375C57.8056 85.8781 57.7688 85.8198 57.7306 85.7626C57.7007 85.7179 57.6698 85.6739 57.6381 85.6309C57.6379 85.6304 57.6376 85.6301 57.6376 85.6301L57.6371 85.6294C57.6156 85.6004 57.5939 85.5717 57.5717 85.5432C57.553 85.5195 57.534 85.496 57.5149 85.4731C57.4963 85.4506 57.4772 85.4284 57.4581 85.4064C57.4392 85.3849 57.4201 85.3636 57.4008 85.3428C57.3974 85.3392 57.3938 85.3356 57.3904 85.332C57.389 85.3303 57.3873 85.3288 57.3858 85.3271C57.3706 85.3112 57.3559 85.2952 57.3404 85.2795C57.3199 85.2588 57.2994 85.2382 57.2783 85.2182C57.2571 85.1976 57.2356 85.1776 57.2138 85.158C57.1921 85.1387 57.1706 85.1196 57.1486 85.101C57.1382 85.092 57.1273 85.0836 57.1167 85.0749C57.114 85.0727 57.1116 85.0708 57.1089 85.0686C57.1002 85.0616 57.0918 85.0543 57.0833 85.0476C57.0621 85.0307 57.0406 85.0145 57.0191 84.9985C56.9981 84.9831 56.9768 84.9678 56.9552 84.9533C56.9347 84.9393 56.914 84.9256 56.8932 84.9123C56.8726 84.8992 56.8521 84.8866 56.8313 84.8743C56.8265 84.8714 56.8216 84.8688 56.8168 84.8661L27.558 68.0594C27.5426 68.0504 27.5271 68.0417 27.5119 68.0335C27.4918 68.0226 27.472 68.0125 27.4522 68.0026C27.4324 67.9929 27.4128 67.9835 27.3932 67.9748C27.3736 67.9661 27.3543 67.9579 27.335 67.9501C27.3154 67.9422 27.2956 67.9349 27.2763 67.9279C27.2719 67.9265 27.2676 67.925 27.2632 67.9236C27.2616 67.9231 27.2601 67.9226 27.2586 67.9221C27.2449 67.9175 27.2314 67.9127 27.2178 67.9088C27.1975 67.9028 27.1775 67.8972 27.1574 67.8921C27.1371 67.8871 27.1171 67.8827 27.0972 67.8789C27.0755 67.8748 27.0542 67.8711 27.0329 67.8682C27.0175 67.8661 27.0025 67.8648 26.9875 67.8636C26.9856 67.8634 26.9834 67.8632 26.9815 67.8632C26.9769 67.8627 26.9723 67.862 26.9677 67.8617C26.9443 67.86 26.9211 67.8593 26.8984 67.8593C26.8725 67.8595 26.8469 67.8607 26.822 67.8629C26.7931 67.8656 26.7648 67.8697 26.7372 67.8752C26.7362 67.8755 26.7353 67.8757 26.7343 67.876C26.7329 67.8762 26.7316 67.8767 26.7302 67.8772C26.6973 67.8842 26.665 67.8926 26.634 67.9038C26.5922 67.9185 26.5523 67.9371 26.5146 67.9591L24.9175 68.9172C24.9834 68.8787 25.056 68.8517 25.1333 68.8352C25.135 68.835 25.1359 68.8343 25.1376 68.834C25.2151 68.8181 25.2978 68.8137 25.3845 68.821C25.3867 68.8212 25.3887 68.8215 25.3906 68.8217C25.4771 68.8295 25.5677 68.8488 25.6614 68.8802C25.6631 68.8807 25.6646 68.8812 25.6663 68.8819C25.7617 68.9143 25.8601 68.9592 25.9611 69.0174L55.2199 85.8242C55.3199 85.8819 55.4173 85.9501 55.5118 86.0267C55.5144 86.0288 55.5171 86.031 55.5197 86.0332C55.6128 86.1093 55.7029 86.1936 55.7887 86.2847C55.7901 86.2864 55.7918 86.2879 55.7933 86.2896C55.8803 86.3826 55.9631 86.4821 56.0407 86.5872C56.0407 86.5875 56.0409 86.5875 56.0409 86.5875C56.1175 86.6916 56.1888 86.8009 56.2541 86.9135C56.2572 86.9188 56.2601 86.9243 56.2632 86.9297C56.327 87.0408 56.3852 87.1551 56.4362 87.2716C56.4367 87.2728 56.4375 87.274 56.4379 87.2754C56.4899 87.3945 56.5348 87.5154 56.5713 87.6364C56.5716 87.6376 56.572 87.6391 56.5725 87.6405C56.609 87.7618 56.6375 87.8831 56.6569 88.003C56.6569 88.0037 56.6571 88.0042 56.6571 88.0049C56.6764 88.1257 56.6863 88.2446 56.6861 88.3603C56.6856 88.4744 56.6752 88.5797 56.6559 88.6764C56.6554 88.6793 56.6547 88.6822 56.6542 88.6851C56.6349 88.7805 56.6066 88.8675 56.5706 88.9451C56.5701 88.9461 56.5696 88.9473 56.5691 88.9482C56.5387 89.0132 56.4993 89.0674 56.4585 89.1191C56.4449 89.1362 56.4321 89.1544 56.4176 89.1698C56.3691 89.2215 56.3162 89.2677 56.2565 89.3025L57.8534 88.3444C57.9131 88.3099 57.9658 88.2637 58.0146 88.2117C58.0293 88.196 58.0419 88.1782 58.0557 88.161C58.0733 88.1385 58.0934 88.1194 58.1093 88.0946C58.1294 88.0629 58.148 88.0293 58.1649 87.9938C58.1654 87.9926 58.1659 87.9914 58.1664 87.9902C58.1668 87.9892 58.1673 87.988 58.1678 87.987C58.1791 87.9624 58.1903 87.937 58.1999 87.9104C58.2091 87.8855 58.2176 87.8597 58.2255 87.8334C58.2328 87.809 58.2393 87.7841 58.2451 87.7585C58.2475 87.7483 58.2492 87.7377 58.2514 87.7273C58.2521 87.7244 58.2526 87.7215 58.2533 87.7183C58.2555 87.7077 58.2579 87.6973 58.2599 87.6864C58.2637 87.6635 58.2673 87.6403 58.2702 87.6166C58.2731 87.5936 58.2756 87.57 58.2775 87.546C58.2794 87.5236 58.2808 87.5004 58.2818 87.4772C58.2828 87.454 58.2835 87.4306 58.2835 87.4066C58.2835 87.4052 58.2835 87.4037 58.2835 87.4025C58.283 87.3808 58.2825 87.3588 58.2818 87.3368Z" fill="#ACACCD"/>
<path d="M55.2198 85.8238C56.0303 86.2916 56.6882 87.4317 56.6858 88.36C56.6831 89.2913 56.0206 89.6687 55.2104 89.2009L25.9517 72.3941C25.1439 71.9278 24.4856 70.7878 24.4883 69.8565C24.4909 68.9282 25.1533 68.5507 25.9613 69.0171L55.2198 85.8238Z" fill="white"/>
<path d="M55.2193 85.8243L25.9605 69.0175C25.5618 68.7872 25.1991 68.7636 24.9331 68.909C25.1793 68.838 25.484 68.8856 25.8139 69.076L55.0727 85.8827C55.8831 86.3505 56.5411 87.4906 56.5386 88.4189C56.5372 88.8906 56.3664 89.2194 56.0931 89.369C56.4502 89.2661 56.6836 88.9111 56.6853 88.3602C56.6879 87.4318 56.0298 86.2921 55.2193 85.8243Z" fill="white"/>
<path d="M40.587 90.6023L40.1274 116.708L70.8258 108.033L40.587 90.6023Z" fill="#AFAFE0"/>
<path d="M70.4221 44.98L70.5081 107.85L70.8256 108.033L70.7391 44.8027L0 4.02625L0.000471938 4.38677L70.4221 44.98Z" fill="url(#paint4_linear_125_12695)"/>
<path opacity="0.3" d="M40.5869 90.6023L70.5083 107.85L60.8398 110.919L40.5869 90.6023Z" fill="#7C7CD6"/>
<path d="M173.623 196.046C214.307 210.501 132.765 232.724 96.7935 220.423C60.8231 208.121 144.974 185.867 173.623 196.046Z" fill="black" fill-opacity="0.3"/>
<path d="M150.732 37.4929C150.732 37.4929 154.083 34.6235 157.797 38.7568C161.512 42.8895 155.271 47.3705 158.833 52.5795C162.395 57.7886 156.192 57.4284 160.326 61.2021C164.459 64.9765 157.711 66.5678 159.17 69.4302C160.629 72.2925 153.304 76.2247 150.699 68.3093C148.094 60.394 140.52 58.4484 140.52 58.4484C140.52 58.4484 143.755 45.429 144.018 45.2789C144.282 45.1288 150.732 37.4929 150.732 37.4929Z" fill="black"/>
<path d="M113.764 154.284C113.764 154.284 115.427 145.981 123 146.842C130.572 147.703 129.07 156.7 127.825 162.43C126.58 168.16 117.219 197.846 115.869 201.958C114.277 206.811 108.233 207.369 108.716 201.988C108.976 199.09 109.348 195.993 109.778 191.249C110.988 177.895 112.739 159.246 113.764 154.284Z" fill="#F29B79"/>
<path d="M108.89 201.215C108.89 201.215 98.3591 204.804 97.8091 207.778C97.2591 210.753 117.041 209.125 117.875 207.555C118.709 205.985 116.227 200.523 116.227 200.523C116.227 200.523 114.216 205.17 108.89 201.215Z" fill="#0A1416"/>
<path d="M113.885 153.776C113.932 158.235 115.918 162.309 121.216 162.819C126.514 163.33 128.713 158.109 131.351 145.573C131.598 144.401 131.993 142.979 132.493 141.359C133.624 137.699 135.29 133.028 136.989 127.947C138.729 122.747 140.503 117.119 141.769 111.709C144.578 99.7198 144.517 88.6698 144.517 88.6698L133.504 85.852C133.504 85.852 125.025 100.648 121.422 113.859C117.819 127.071 113.837 149.317 113.885 153.776Z" fill="#F29B79"/>
<path d="M134.854 160.948C134.854 160.948 129.84 154.124 135.579 149.109C141.318 144.094 146.953 151.267 150.348 156.048C153.743 160.829 169.37 187.749 171.499 191.517C174.012 195.964 170.351 200.805 166.701 196.823C164.735 194.678 162.698 192.316 159.482 188.801C150.429 178.909 137.83 165.049 134.854 160.948Z" fill="#F29B79"/>
<path d="M132.936 156.056C134.641 160.175 138.003 163.216 143.109 161.714C148.217 160.214 148.311 154.55 146.086 141.933C145.878 140.754 145.715 139.287 145.575 137.597C145.26 133.779 145.065 128.824 144.749 123.476C144.425 118.002 143.972 112.118 143.132 106.626C141.269 94.4536 137.094 84.2224 137.094 84.2224L125.824 85.7123C125.824 85.7123 123.471 102.603 125.052 116.205C126.632 129.809 131.23 151.935 132.936 156.056Z" fill="#F29B79"/>
<path d="M164.871 194.844C164.871 194.844 157.81 203.442 158.909 206.26C160.008 209.078 175.966 197.275 175.848 195.502C175.73 193.728 170.743 190.392 170.743 190.392C170.743 190.392 171.481 195.401 164.871 194.844Z" fill="#0A1416"/>
<path d="M126.036 85.8756C126.036 85.8756 106.048 116.595 103.943 151.654C103.943 151.654 135.469 167.449 155.503 156.253C175.537 145.057 180.851 144.695 180.851 144.695C180.851 144.695 158.074 96.5702 145.025 88.8151C131.447 80.7461 141.579 73.306 126.036 85.8756Z" fill="#2B4047"/>
<path d="M108.225 50.6766C108.066 51.7975 107.223 54.4118 104.529 53.2933C100.197 51.4955 92.6632 36.1151 92.9303 33.6729C93.1973 31.2307 94.6451 31.2152 97.7424 34.4419C100.84 37.6691 108.944 45.6135 108.225 50.6766Z" fill="#D31F5E"/>
<path d="M96.1175 32.8192C96.3584 33.7531 94.2811 35.4276 92.9158 34.6189C91.5504 33.8101 87.7292 28.9535 88.0152 27.7935C88.3012 26.6335 91.3326 26.4519 94.0983 29.9717C94.0983 29.9717 93.1691 27.4867 94.4383 27.6896C95.05 27.787 95.3491 29.8447 96.1175 32.8192Z" fill="#F29B79"/>
<path d="M104.249 53.1849C108.45 56.2276 121.902 65.5563 128.106 66.7252C134.309 67.8947 136.298 60.8552 133.218 57.6617C130.137 54.4677 114.5 50.0087 109.571 48.3206C104.273 46.5061 100.605 50.5456 104.249 53.1849Z" fill="#D31F5E"/>
<path d="M135.466 43.5023C134.392 49.5112 137.885 55.1623 143.269 56.1254C148.653 57.0884 153.89 52.9978 154.964 46.9895C156.039 40.9806 152.545 35.3295 147.161 34.3665C141.776 33.4034 136.541 37.494 135.466 43.5023Z" fill="black"/>
<path d="M125.86 76.61C126.405 79.3762 126.459 81.6327 126.369 83.2277C126.272 84.9389 126.01 85.8883 126.01 85.8883C127.344 89.2413 129.713 90.8891 132.34 91.5697C134.321 92.0835 136.449 92.0473 138.389 91.7779C139.145 91.6729 139.873 91.5329 140.552 91.3762C143.198 90.7651 145.181 89.2211 145.235 88.8829C145.648 86.2502 146.675 83.7487 147.956 81.4275C151.823 74.4164 158 69.0513 156.542 66.7301C154.539 63.5414 147.35 61.0546 147.35 61.0546L141.141 57.8855C141.141 57.8855 134.538 56.0568 132.433 56.6893C131.156 57.0732 130.333 58.9607 129.139 60.4067C127.469 62.4312 125.573 64.3893 125.077 67.1745C124.149 72.3829 125.793 76.2653 125.86 76.61Z" fill="#ED117B"/>
<path d="M141.443 51.9909L140.057 59.7413C139.926 60.4759 140.04 61.1962 140.34 61.821C140.8 62.774 141.694 63.5008 142.815 63.7008C143.779 63.8728 144.72 63.6225 145.449 63.0819C146.123 62.5817 146.615 61.8341 146.774 60.9429L148.16 53.1925C148.491 51.3376 147.257 49.5647 145.402 49.233C144.474 49.0669 143.567 49.293 142.851 49.792C142.135 50.291 141.609 51.0629 141.443 51.9909Z" fill="#F29B79"/>
<g opacity="0.25">
<path d="M140.703 56.0993L139.997 60.0504C141.422 60.1068 145.902 59.9793 147.158 56.2856C148.438 52.522 142.481 55.2241 140.703 56.0993Z" fill="black"/>
</g>
<path d="M135.378 45.6501C134.398 51.1357 137.207 56.2272 141.654 57.0223C146.101 57.8174 150.502 54.0158 151.483 48.5302C152.463 43.0447 149.654 37.9531 145.207 37.158C140.76 36.3623 136.359 40.1645 135.378 45.6501Z" fill="#F29B79"/>
<path d="M149.785 50.6847C148.57 52.1253 148.384 53.9665 149.369 54.7966C150.354 55.6273 152.137 55.133 153.351 53.6924C154.566 52.2517 154.752 50.4105 153.767 49.5804C152.783 48.7497 150.999 49.244 149.785 50.6847Z" fill="#F29B79"/>
<path d="M151.367 49.3393C151.367 49.3393 149.155 47.4625 149.638 43.105C149.638 43.105 150.126 46.3328 144.898 45.7531C139.669 45.1734 138.316 42.7988 135.46 43.5322C135.46 43.5322 139.666 33.2642 147.548 36.5697C155.429 39.8753 151.367 49.3393 151.367 49.3393Z" fill="black"/>
<path d="M130.209 76.3634C131.191 76.9271 133.306 78.6792 131.269 80.7673C127.993 84.1233 110.915 85.4162 108.746 84.2621C106.577 83.108 107.099 81.7582 111.245 80.0784C115.39 78.398 125.774 73.8179 130.209 76.3634Z" fill="#D31F5E"/>
<path d="M109.135 80.9844C110.092 81.1066 110.876 83.6568 109.618 84.6252C108.36 85.5936 102.433 87.3409 101.462 86.6449C100.491 85.9489 101.447 83.067 105.741 81.8032C105.741 81.8032 103.088 81.7445 103.747 80.6414C104.066 80.1092 106.088 80.5946 109.135 80.9844Z" fill="#F29B79"/>
<path d="M128.613 82.1459C133.697 81.1177 149.672 77.5445 154.735 73.7738C159.798 70.0036 155.968 63.7716 151.532 63.8737C147.096 63.9751 133.221 72.4553 128.64 74.9367C123.717 77.6033 124.203 83.0378 128.613 82.1459Z" fill="#D31F5E"/>
<defs>
<linearGradient id="paint0_linear_125_12695" x1="5.74468" y1="28.1471" x2="10.3303" y2="28.1471" gradientUnits="userSpaceOnUse">
<stop stop-color="#F9BB41"/>
<stop offset="1" stop-color="#FEF1D7"/>
</linearGradient>
<linearGradient id="paint1_linear_125_12695" x1="12.6055" y1="34.3349" x2="19.9538" y2="34.3349" gradientUnits="userSpaceOnUse">
<stop stop-color="#F9BB41"/>
<stop offset="1" stop-color="#FEF1D7"/>
</linearGradient>
<linearGradient id="paint2_linear_125_12695" x1="5.74468" y1="52.081" x2="10.3303" y2="52.081" gradientUnits="userSpaceOnUse">
<stop stop-color="#F9BB41"/>
<stop offset="1" stop-color="#FEF1D7"/>
</linearGradient>
<linearGradient id="paint3_linear_125_12695" x1="12.6055" y1="58.2694" x2="19.9538" y2="58.2694" gradientUnits="userSpaceOnUse">
<stop stop-color="#F9BB41"/>
<stop offset="1" stop-color="#FEF1D7"/>
</linearGradient>
<linearGradient id="paint4_linear_125_12695" x1="4.83265e-05" y1="56.0296" x2="70.8255" y2="56.0296" gradientUnits="userSpaceOnUse">
<stop stop-color="#ACACE5"/>
<stop offset="1" stop-color="white"/>
</linearGradient>
</defs>
</svg>
