<svg width="203" height="236" viewBox="0 0 203 236" fill="none" xmlns="http://www.w3.org/2000/svg">
<path d="M186.71 175.803C224.71 202.484 148.546 243.503 114.947 220.798C81.3488 198.092 159.95 157.015 186.71 175.803Z" fill="black" fill-opacity="0.3"/>
<path d="M75.7924 41.0593C81.9745 66.8363 80.2058 79.275 72.7809 94.6L8.43091 132.097C15.846 116.771 17.6147 104.332 11.4327 78.5565C4.39579 49.2012 6.52027 40.0385 9.76806 38.1615C12.4366 36.6065 15.8488 39.9556 15.5817 41.0593L71.1556 8.68677C70.8069 14.7493 71.8922 24.8133 75.7924 41.0593Z" fill="#B3B3B3"/>
<path d="M78.2769 41.0593C84.459 66.8363 83.4565 82.9445 76.033 98.271L11.6831 135.768C19.0982 120.442 20.1006 104.334 13.9186 78.5565C6.88028 49.2012 9.00616 40.0385 12.254 38.1615C14.9225 36.6065 18.3347 39.9556 18.0676 41.0593L73.6414 8.68677C73.2914 14.7493 74.3768 24.8133 78.2769 41.0593Z" fill="#CCCCCC"/>
<path d="M107.996 206.608L112.49 203.999L95.2836 116.196L90.7915 118.807L107.996 206.608Z" fill="#4D4D4D"/>
<path d="M93.7175 119.637L98.211 117.026L97.6557 114.186L93.1636 116.797L93.7175 119.637Z" fill="#4D4D4D"/>
<path d="M93.1636 116.798L97.6557 114.187L94.72 113.352L90.2266 115.961L93.1636 116.798Z" fill="#CCCCCC"/>
<path d="M52.5073 175.434L56.9994 172.823L85.7122 81.4617L81.2187 84.0726L52.5073 175.434Z" fill="#4D4D4D"/>
<path d="M81.1393 83.658L85.6314 81.0471L82.9164 78.5262L78.4243 81.1371L81.1393 83.658Z" fill="#A79681"/>
<path d="M81.2193 84.0729L85.7128 81.462L85.6312 81.0472L81.1392 83.6581L81.2193 84.0729Z" fill="#4D4D4D"/>
<path d="M69.1647 8.4616L66.2402 7.63489L81.1394 83.6585L105.072 205.784L107.996 206.609L90.7914 118.808L93.7185 119.639L93.1646 116.799L90.2276 115.962L69.1647 8.4616Z" fill="#E6E6E6"/>
<path d="M78.4238 81.1379L49.6211 172.766L52.5075 175.435L81.2189 84.0736L81.1387 83.6588L78.4238 81.1379Z" fill="#E6E6E6"/>
<path d="M69.1642 8.46079L73.6563 5.84991L70.7318 5.02319L66.2397 7.63408L69.1642 8.46079Z" fill="#4D4D4D"/>
<path d="M69.1642 8.46079L73.6563 5.84991L70.7318 5.02319L66.2397 7.63408L69.1642 8.46079Z" fill="#333333"/>
<path d="M90.2274 115.961L94.7209 113.352L73.6566 5.84985L69.1646 8.46074L90.2274 115.961Z" fill="#4D4D4D"/>
<path d="M95.1911 144.492C95.1714 144.043 95.1812 143.598 95.2107 143.158C94.8873 142.847 94.5386 142.57 94.1717 142.36L66.6063 126.445C64.9992 125.517 63.6973 126.069 63.6973 127.676C63.6973 129.283 65.0006 131.337 66.6063 132.265L94.1717 148.179C94.8339 148.561 95.4385 148.679 95.9264 148.589C95.5088 147.285 95.2543 145.91 95.1911 144.492Z" fill="#E6E6E6"/>
<path d="M58.3752 235.258L62.8687 232.647L45.6624 144.846L41.1689 147.457L58.3752 235.258Z" fill="#4D4D4D"/>
<path d="M44.0965 148.287L98.2109 117.026L97.6555 114.186L43.5425 145.447L44.0965 148.287Z" fill="#4D4D4D"/>
<path d="M43.543 145.446L97.6561 114.186L94.7204 113.351L40.606 144.61L43.543 145.446Z" fill="#CCCCCC"/>
<path d="M2.88623 204.082L7.37832 201.472L36.0897 110.109L31.5976 112.72L2.88623 204.082Z" fill="#4D4D4D"/>
<path d="M31.5167 112.307L36.0102 109.696L33.2953 107.173L28.8018 109.784L31.5167 112.307Z" fill="#A79681"/>
<path d="M31.5981 112.721L36.0902 110.11L36.0101 109.697L31.5166 112.308L31.5981 112.721Z" fill="#4D4D4D"/>
<path d="M19.5436 37.111L16.6191 36.2843L31.5168 112.308L55.4507 234.432L58.375 235.259L41.1688 147.457L44.0974 148.288L43.5434 145.448L40.6064 144.612L19.5436 37.111Z" fill="#E6E6E6"/>
<path d="M28.8013 109.785L0 201.415L2.88643 204.084L31.5978 112.721L31.5163 112.307L28.8013 109.785Z" fill="#E6E6E6"/>
<path d="M19.5436 37.1102L24.0356 34.4993L21.1112 33.6726L16.6191 36.2835L19.5436 37.1102Z" fill="#4D4D4D"/>
<path d="M19.5436 37.1102L24.0356 34.4993L21.1112 33.6726L16.6191 36.2835L19.5436 37.1102Z" fill="#333333"/>
<path d="M40.6062 144.611L45.0998 142L24.0355 34.4993L19.5435 37.1102L40.6062 144.611Z" fill="#4D4D4D"/>
<path d="M15.5854 41.0593L79.9408 3.56204L78.1904 3.06714L13.8335 40.563L15.5854 41.0593Z" fill="#4D4D4D"/>
<path d="M36.6567 148.564L101.014 111.069L79.9409 3.56238L15.5854 41.0596L36.6567 148.564Z" fill="white"/>
<path d="M76.3023 83.04C69.8714 86.704 66.2172 95.6066 68.1462 102.88C68.7887 105.305 70.0176 107.353 71.6738 108.782L75.4038 103.027C74.504 102.227 73.8643 101.129 73.517 99.8217C72.478 95.9018 74.4394 91.0906 77.9135 89.1124C78.9582 88.5163 80.0323 88.2407 81.0938 88.266L82.1961 81.4681C80.253 81.3978 78.2144 81.9504 76.3023 83.04Z" fill="#FFC366"/>
<path d="M82.1944 81.4677L81.0921 88.2655C83.4795 88.333 85.3916 90.0342 86.089 92.6592C87.1336 96.5973 85.1497 101.399 81.6925 103.368C81.4506 103.506 81.206 103.626 80.96 103.744L81.9484 110.124C82.4137 109.925 82.8566 109.714 83.3079 109.458C89.7234 105.804 93.3775 96.901 91.4429 89.6082C90.1466 84.7225 86.5993 81.6026 82.1944 81.4677Z" fill="#D93035"/>
<path d="M75.3992 103.011L71.6748 108.784C74.4544 111.181 78.2814 111.684 81.951 110.125L80.9626 103.745C78.9802 104.58 76.9092 104.311 75.3992 103.011Z" fill="#1F575E"/>
<path d="M75.3992 103.011L71.6748 108.784C74.4544 111.181 78.2814 111.684 81.951 110.125L80.9626 103.745C78.9802 104.58 76.9092 104.311 75.3992 103.011Z" fill="#1F575E"/>
<path d="M55.095 100.505L53.2279 107.213C55.2047 107.618 56.74 109.221 57.3445 111.5C58.3835 115.42 56.4054 120.241 52.9481 122.209C52.6908 122.355 52.4448 122.475 52.21 122.566L53.2208 128.958C53.6694 128.765 54.1081 128.536 54.5594 128.28C60.9748 124.626 64.6275 115.723 62.6985 108.449C61.5822 104.238 58.7435 101.28 55.095 100.505Z" fill="#1F575E"/>
<path d="M55.095 100.505L53.2279 107.213C55.2047 107.618 56.74 109.221 57.3445 111.5C58.3835 115.42 56.4054 120.241 52.9481 122.209C52.6908 122.355 52.4448 122.475 52.21 122.566L53.2208 128.958C53.6694 128.765 54.1081 128.536 54.5594 128.28C60.9748 124.626 64.6275 115.723 62.6985 108.449C61.5822 104.238 58.7435 101.28 55.095 100.505Z" fill="#1F575E"/>
<path d="M39.5132 112.865C38.709 115.905 38.671 118.968 39.4007 121.721C41.1849 128.449 47.1167 131.553 53.22 128.958L52.2091 122.566C48.936 123.969 45.7318 122.289 44.7701 118.662C44.3736 117.167 44.3821 115.525 44.8193 113.891L39.5132 112.865Z" fill="#FFC366"/>
<path d="M47.5511 101.862C43.7732 104.015 40.7757 108.136 39.5132 112.864L44.8193 113.89C45.5054 111.316 47.1251 109.114 49.1665 107.952C50.5008 107.191 51.9124 106.932 53.227 107.212L55.0941 100.504C52.6393 99.9713 50.0439 100.442 47.5511 101.862Z" fill="#D93035"/>
<path d="M15.5854 41.0591L13.8335 40.5627L34.9048 148.069L36.6567 148.564L15.5854 41.0591Z" fill="#4D4D4D"/>
<path d="M44.944 171.785C44.6994 171.572 44.4449 171.378 44.1792 171.224L16.6137 155.31C16.213 155.078 15.8306 154.938 15.4833 154.885C15.2795 155.67 15.001 156.434 14.6144 157.168C14.4836 157.57 14.3248 157.958 14.1519 158.335C14.6664 159.453 15.5719 160.527 16.6123 161.128L44.1778 177.042C44.9876 177.51 45.7201 177.6 46.2474 177.369C45.4895 175.646 45.0326 173.755 44.944 171.785Z" fill="#E6E6E6"/>
<path d="M73.9719 0.757503C73.9621 0.747661 9.75977 38.1535 9.75977 38.1535C12.4367 36.6084 15.8505 39.956 15.5833 41.0611L71.1571 8.68858L79.9431 3.56382C80.2088 2.43202 76.6573 -1.01824 73.9719 0.757503Z" fill="#E6E6E6"/>
<path d="M190.08 62.7721C190.189 62.6104 193.091 58.5556 193.091 58.5556C193.091 58.5556 196.925 55.634 198.926 51.6635C200.765 48.015 201.347 46.5781 201.347 46.5781C201.801 45.2284 201.457 44.4622 200.445 45.66L201.95 41.7683C202.326 40.5381 201.717 39.9293 200.928 40.8418L199.259 43.3388L201.131 39.7648C201.623 38.4151 200.713 37.7641 199.816 38.8411L194.867 45.8977L198.019 39.1673C198.49 37.9483 197.436 37.3887 196.657 38.5557L190.942 47.7381L190.566 47.5061C190.566 47.5061 190.344 43.298 189.925 42.4165C189.501 40.8347 188.058 40.8643 188.207 42.5796C188.207 42.5796 188.719 46.3082 188.215 47.5089C187.712 48.7096 187.976 53.9243 188.446 56.0713C188.916 58.2182 187.238 60.8347 187.238 60.8347L190.08 62.7721Z" fill="#FFB294"/>
<path d="M193.05 58.761C191.239 64.1768 190.563 71.0816 184.385 70.7258C183.724 70.6752 183.048 70.5403 182.372 70.3026C175.28 67.9673 167.462 56.4918 162.909 48.8771C160.523 44.8827 159.033 41.9386 159.033 41.9386L159.151 31.5133C163.297 31.3277 166.293 34.6275 168.934 38.9593L183.641 59.7593L188.55 56.3414C189.732 58.2197 193.05 58.761 193.05 58.761Z" fill="#ED117B"/>
<path opacity="0.5" d="M182.37 70.3027C175.278 67.9674 167.46 56.4919 162.907 48.8771L164.024 40.1447C164.024 40.1447 166.563 46.7288 172.436 51.1281C174.636 52.7703 177.123 56.3246 176.937 61.5871C176.786 65.8177 180.797 69.1681 182.37 70.3027Z" fill="#D31F5E"/>
<path d="M169.699 139.324C168.878 141.572 168.23 144.093 167.726 146.701C167.38 148.445 167.106 150.246 166.875 152.019C165.736 161.11 165.953 169.64 165.953 169.64L157.538 171.801C157.538 171.801 157.437 170.677 155.896 161.08C155.536 158.79 155.089 156.009 154.542 152.651C154.441 152.047 154.355 151.456 154.297 150.88C153.289 141.817 156.343 136.068 157.265 130.679C157.625 128.619 157.683 126.644 157.106 124.57C155.953 120.377 154.311 112.006 153.013 104.973C151.803 98.6043 150.91 93.346 150.91 93.346C150.91 93.346 167.221 78.1587 170.866 93.2167C174.512 108.259 175.434 118.302 169.699 139.324Z" fill="#FFB294"/>
<path d="M179.058 178.809C176.593 178.036 174.137 177.604 171.987 176.19C168.209 173.705 166.049 168.789 165.064 164.831C165.082 164.905 159.343 168.385 158.855 168.758C157.66 169.672 157.923 170.418 157.539 171.796C157.309 172.626 157.043 173.847 156.829 175.096C161.626 179.376 168.404 182.789 174.176 181.957C176.016 181.693 176.783 179.698 179.058 178.809Z" fill="#FFB294"/>
<path d="M184.858 182.018C183.023 180.271 181.038 179.431 179.06 178.81C176.505 179.572 176.146 181.823 174.177 181.958C167.012 182.451 157.564 177.464 157.091 173.706C156.442 175.812 156.421 177.925 156.447 178.887C156.498 180.709 157.334 182.64 158.979 183.423C160.546 184.169 162.38 183.724 164.113 183.632C170.837 183.276 177.256 188.481 183.82 186.978C186.694 186.319 186.468 183.551 184.858 182.018Z" fill="#1F575E"/>
<path opacity="0.5" d="M167.726 146.702C167.38 148.445 167.106 150.246 166.875 152.019C165.607 152.898 164.108 153.431 162.74 154.166C161.069 155.045 159.57 156.242 158.331 157.667C157.726 158.359 156.862 160.405 155.896 161.082C155.536 158.792 155.089 156.011 154.542 152.654C154.441 152.049 154.355 151.458 154.297 150.882C155.176 149.858 156.458 149.326 157.712 148.88C160.939 147.726 164.311 146.99 167.726 146.702Z" fill="#F2946F"/>
<path d="M159.701 112.523C159.758 118.129 158.85 124.323 157.28 130.635C155.594 137.421 153.187 144.28 150.435 150.619C149.095 153.688 147.668 156.642 146.229 159.408C145.493 160.777 144.759 162.117 144.024 163.385C135.927 177.448 135.033 194.017 135.033 194.017H127.642C127.642 194.017 128.175 191.481 126.561 173.701C126.417 172.043 126.374 170.502 126.459 169.075C127.036 157.146 134.528 152.822 136.401 146.958C136.703 146.008 136.862 145.014 136.819 143.932C136.473 135.474 137.812 110.85 137.812 110.85C137.812 110.85 146.573 105.087 153.014 104.971C156.717 104.915 159.643 106.701 159.701 112.523Z" fill="#FFB294"/>
<path d="M134.435 208.633C136.216 209.523 139.312 207.762 141.438 206.679C137.12 201.114 133.555 193.797 134.909 186.986C134.864 187.216 131.446 186.801 131.163 186.761C129.577 186.53 129.244 186.003 129.137 187.57C128.97 190.018 128.33 191.85 127.116 193.91C126.275 200.458 130.349 204.548 134.435 208.633Z" fill="#FFB294"/>
<path d="M147.143 214.076C146.636 212.588 144.567 211.096 141.439 206.679C138.493 205.596 136.217 209.523 134.435 208.633C130.35 204.547 126.275 200.457 127.116 193.908C127.01 194.087 126.93 194.256 126.816 194.438C122.074 202.022 125.298 203.406 127.789 206.658C131.659 211.707 130.144 216.836 143.958 217.276C144.923 217.307 145.999 217.295 146.694 216.628C147.351 215.995 147.435 214.939 147.143 214.076Z" fill="#1F575E"/>
<path opacity="0.5" d="M150.435 150.619C149.095 153.688 147.668 156.642 146.228 159.408C144.067 160.646 141.3 160.906 138.794 161.411C134.947 162.204 131.2 163.86 128.419 166.627C127.685 167.363 127.007 168.184 126.46 169.077C127.037 157.147 134.529 152.823 136.402 146.959C136.503 146.916 136.603 146.873 136.704 146.844C140.278 145.677 144.125 147.162 147.598 148.617C148.678 149.077 149.859 149.639 150.435 150.619Z" fill="#F2946F"/>
<path d="M166.905 91.171C159.09 93.7763 148.938 94.0027 142.798 87.6435C140.581 93.4867 131.311 100.973 137.547 119.133L159.22 115.066C159.22 115.066 171.467 107.261 171.946 91.4114C171.996 89.7791 172.004 88.2255 171.993 86.7197C170.543 88.4491 168.893 89.9788 166.905 91.171Z" fill="#F2946F"/>
<path d="M170.16 146.715C170.146 149.466 158.417 153.011 147.611 152.838C139.817 152.736 132.511 150.719 130.408 145.085C133.88 139.278 132.354 136.742 132.756 129.985C133.505 117.752 129.356 100.073 142.64 87.796C142.683 87.7383 142.741 87.6807 142.799 87.6371C146.055 84.6691 144.902 87.7524 148.1 88.4005C153.475 89.4958 159.052 89.597 164.483 88.7324C165.894 88.5018 171.056 85.8375 171.992 86.7162C171.996 88.1967 172.594 90.5193 172.782 91.384C176.659 109.167 176.01 128.474 170.16 146.715Z" fill="#1F575E"/>
<path d="M169.699 65.4806C169.699 65.4806 171.89 73.6071 171.99 86.7192C166.256 91.0678 149.369 94.4014 142.798 87.6415C143.114 86.7909 143.302 85.9698 143.245 85.1628C143.058 81.8053 139.73 73.4637 136.631 66.3157C133.85 59.9185 131.242 54.4859 131.242 54.4859L130.407 49.5003L145.29 36.7777L159.167 31.6866C159.167 31.6866 162.826 33.6508 164.021 40.1351C165.216 46.6195 167.522 47.7766 172.002 52.8718C179.042 60.8746 169.699 65.4806 169.699 65.4806Z" fill="#ED117B"/>
<path d="M144.237 19.9946C145.678 20.3981 150.321 20.7932 152.838 20.7932C155.155 11.4716 144.911 7.705 137.445 10.1317C133.327 11.4702 135.373 15.9215 137.909 16.7707C139.014 17.1405 140.461 17.9559 141.504 18.5605C142.362 19.0582 143.212 19.7078 144.237 19.9946Z" fill="black"/>
<path opacity="0.5" d="M162.272 62.2085C163.838 65.0148 166.882 66.3139 169.701 65.4774C170.175 66.8932 171.688 75.3459 171.702 79.2531C170.299 70.335 166.944 70.6162 165.183 71.8619C164.121 72.6113 163.432 73.7642 162.693 74.8327C157.963 81.6503 148.162 78.6204 145.042 73.244C160.302 80.5902 164.572 69.67 162.272 62.2085Z" fill="#D31F5E"/>
<path opacity="0.5" d="M141.487 88.9203C142.797 87.6409 143.302 85.9678 143.244 85.1608C143.057 81.8033 139.729 73.4617 136.631 66.3137C132.615 57.7176 136.999 54.6315 137.2 54.7623C137.2 54.7623 138.796 60.9612 143.272 75.3485C144.815 80.2328 148.507 89.4082 144.618 97.0398C143.25 96.275 142.495 89.9579 141.487 88.9203Z" fill="#D31F5E"/>
<path opacity="0.5" d="M147.611 152.838C139.817 152.737 132.511 150.719 130.408 145.085C133.88 139.279 132.354 136.742 132.756 129.985C133.505 117.752 129.356 100.073 142.64 87.7964C144.397 88.3447 145.737 89.6691 145.695 91.8161C145.58 96.9015 142.063 102.449 140.262 107.089C137.135 115.172 135.608 124.004 136.92 132.564C138.115 140.273 141.775 147.737 147.611 152.838Z" fill="#162B35"/>
<path opacity="0.5" d="M165.982 136.944C168.741 131.658 170.595 125.956 172.436 120.285C171.338 125.865 170.238 131.445 169.14 137.026C168.496 140.297 167.812 143.669 165.942 146.429C164.776 148.15 157.257 153.495 157.711 148.877C157.876 147.199 160.706 144.927 161.668 143.701C163.321 141.596 164.745 139.316 165.982 136.944Z" fill="#162B35"/>
<path d="M139.648 41.6007C140.154 43.2092 140.478 44.4296 142.72 45.6288C147.526 48.2004 152.305 54.4907 156.905 51.7251C162.356 47.0418 152.121 34.3769 150.913 30.6524C150.755 30.1646 138.255 27.5284 137.607 28.1315C136.126 29.5066 139.142 39.9923 139.648 41.6007Z" fill="#FFB294"/>
<path opacity="0.5" d="M155.543 42.9879C155.638 41.5468 154.722 36.0649 152.101 34.2625C148.978 32.1142 143.017 34.1064 141.275 36.4488C140.115 38.0108 141.163 38.7911 142.332 39.9806C146.155 43.8653 155.163 48.7426 155.543 42.9879Z" fill="#F2946F"/>
<path d="M156.353 38.5298C157.853 36.1031 156.283 25.3882 151.83 19.1569C145.672 10.5397 135.614 10.0504 131.907 13.9253C127.474 18.5608 129.221 37.8015 140.249 36.4588C141.779 36.2732 142.24 36.0412 143.476 37.0788C149.395 42.0475 154.944 40.8074 156.353 38.5298Z" fill="#FFB294"/>
<path d="M147.944 25.7264C147.142 30.2901 142.783 40.3161 148.96 44.915C142.083 45.6588 134.915 42.5319 130.782 36.9854C123.504 27.2195 127.334 13.493 134.381 10.7134C138.046 9.26806 143.032 9.75172 145.803 12.8786C148.288 15.6807 148.816 20.7759 147.944 25.7264Z" fill="black"/>
<path d="M130.407 49.5006C122.784 56.4967 124.076 69.5666 119.121 77.1786L100.619 90.479C100.679 92.1845 101.219 95.2636 103.159 95.5546C111.512 93.7732 119.663 88.7736 125.823 84.0973C132.329 76.2872 134.76 71.2074 138.043 57.1421C140.644 51.1625 135.678 50.3442 130.407 49.5006Z" fill="#ED117B"/>
<path d="M103.244 95.1329L102.204 95.7951L98.6854 98.5607C97.7166 99.3227 96.4625 99.6222 95.2534 99.3818L94.7149 99.2749C93.9712 99.6826 93.0769 99.7023 92.3163 99.3297L90.8049 98.5902L88.4063 97.8043L84.1954 96.0398C83.1142 95.4971 83.6893 94.908 84.6116 94.8194L88.6847 94.9361L90.736 94.6844L93.3314 92.0004L92.5329 91.1175L89.8432 91.2707L88.381 91.566C87.0707 91.7516 86.8963 90.8124 87.8889 90.2584L90.6868 89.0746L95.5163 88.6753L100.472 90.6099C102.373 90.3793 104.313 93.7523 103.244 95.1329Z" fill="#FFB294"/>
<path d="M38.5321 82.0677L37.9571 82.4023L37.7827 81.5334L38.3592 81.2002L38.5321 82.0677Z" fill="#1F575E"/>
<path d="M39.7075 87.9377L39.131 88.2723L38.8372 86.8045L39.4122 86.4699L39.7075 87.9377ZM39.1197 85.0034L38.5433 85.338L38.2495 83.8702L38.8259 83.537L39.1197 85.0034Z" fill="#1F575E"/>
<path d="M40.1742 90.2767L39.5992 90.6099L39.4263 89.7425L40.0013 89.4078L40.1742 90.2767Z" fill="#1F575E"/>
<path d="M48.993 76.002L48.4166 76.3352L48.2437 75.4677L48.8187 75.1345L48.993 76.002Z" fill="#1F575E"/>
<path d="M50.1671 81.873L49.5921 82.2077L49.2983 80.7398L49.8747 80.4052L50.1671 81.873ZM49.5809 78.9374L49.0058 79.272L48.7119 77.8042L49.2884 77.4709L49.5809 78.9374Z" fill="#1F575E"/>
<path d="M50.6352 84.2098L50.0587 84.5444L49.8857 83.6769L50.4608 83.3423L50.6352 84.2098Z" fill="#1F575E"/>
<path d="M61.4169 54.5934L60.8404 54.9266L60.6675 54.0592L61.2425 53.726L61.4169 54.5934Z" fill="#1F575E"/>
<path d="M65.0669 72.8346L64.4904 73.1693L64.1248 71.3443L64.6999 71.0097L65.0669 72.8346ZM64.3371 69.1861L63.7607 69.5208L63.3952 67.6972L63.9716 67.3626L64.3371 69.1861ZM63.6075 65.5377L63.031 65.8723L62.6655 64.0473L63.2405 63.7141L63.6075 65.5377ZM62.8763 61.8892L62.3013 62.2238L61.9357 60.4002L62.5122 60.0656L62.8763 61.8892ZM62.1467 58.2407L61.5716 58.5753L61.2061 56.7517L61.7826 56.4171L62.1467 58.2407Z" fill="#1F575E"/>
<path d="M65.6044 75.5263L65.0279 75.8609L64.855 74.9934L65.43 74.6588L65.6044 75.5263Z" fill="#1F575E"/>
<path d="M69.9877 34.5329L69.4126 34.8675L69.2383 34L69.8147 33.6654L69.9877 34.5329Z" fill="#1F575E"/>
<path d="M76.354 66.3488L75.7776 66.6834L75.4232 64.9161L75.9997 64.5815L76.354 66.3488ZM75.6468 62.8142L75.0717 63.1488L74.7174 61.3815L75.2939 61.0469L75.6468 62.8142ZM74.9396 59.2795L74.3646 59.6128L74.0102 57.8455L74.5853 57.5108L74.9396 59.2795ZM74.2324 55.7435L73.6559 56.0781L73.303 54.3108L73.8794 53.9762L74.2324 55.7435ZM73.5252 52.2089L72.9487 52.5421L72.5944 50.7748L73.1709 50.4402L73.5252 52.2089ZM72.818 48.6729L72.2429 49.0075L71.8887 47.2402L72.4651 46.907L72.818 48.6729ZM72.1094 45.1383L71.5343 45.4729L71.18 43.7056L71.7565 43.371L72.1094 45.1383ZM71.4022 41.6023L70.8271 41.9355L70.4728 40.1682L71.0492 39.8336L71.4022 41.6023ZM70.695 38.0677L70.1199 38.4009L69.7656 36.6336L70.342 36.299L70.695 38.0677Z" fill="#1F575E"/>
<path d="M76.8816 68.9874L76.3052 69.3206L76.1323 68.4531L76.7087 68.1199L76.8816 68.9874Z" fill="#1F575E"/>
<path d="M35.3097 91.8148L34.2158 91.7557L37.6323 80.9944L48.2108 74.2191L49.5606 59.8543L60.62 53.4402L68.2586 35.486L69.292 35.7151L61.3904 54.2852L50.639 60.5207L49.2935 74.8335L38.5097 81.7396L35.3097 91.8148Z" fill="#D93035"/>
<path d="M69.721 37.236L71.2564 29.7703L66.7207 36.5724L69.721 37.236Z" fill="#D93035"/>
<path d="M84.5699 64.8501L33.8987 94.2391L26.2095 55.8139L26.7859 55.4807L34.3584 93.3266L84.4532 64.2722L84.5699 64.8501Z" fill="#1F575E"/>
</svg>
