<svg width="201" height="250" viewBox="0 0 201 250" fill="none" xmlns="http://www.w3.org/2000/svg">
<path d="M176.894 182.192C228.708 184.232 146.104 242.582 100.492 241.362C54.8788 240.142 140.409 180.755 176.894 182.192Z" fill="black" fill-opacity="0.3"/>
<path d="M178.974 152.07C169.719 157.404 153.81 140.504 154.033 125.418C154.094 121.798 155.133 119.048 156.874 117.323C157.318 116.865 157.821 116.467 158.37 116.163C158.508 116.087 158.645 116.01 158.798 115.934C159.485 115.568 160.066 115.277 160.631 115.048C160.86 114.957 161.089 114.849 161.303 114.774L161.395 114.728C161.564 114.666 161.747 114.606 161.944 114.545C162.143 114.469 162.356 114.407 162.555 114.346C162.983 114.208 163.411 114.087 163.777 113.995C174.839 111.017 187.757 118.886 189.207 131.468C190.118 139.055 186.494 148.318 178.974 152.07Z" fill="#E6E6E6"/>
<path d="M179.217 151.918C180.913 151.071 183.216 148.116 183.31 142.801C183.516 128.985 169.871 112.961 160.172 115.432C159.79 115.539 159.424 115.661 159.087 115.798C159.577 115.553 160.126 115.279 160.63 115.05C160.859 114.958 161.087 114.851 161.302 114.775L161.394 114.729C161.563 114.668 161.746 114.608 161.943 114.546C162.142 114.47 162.355 114.409 162.554 114.347C162.982 114.21 163.41 114.088 163.776 113.997C174.838 111.018 187.756 118.887 189.206 131.47C190.221 138.696 186.827 147.604 179.217 151.918Z" fill="#ED3940"/>
<path d="M178.974 152.07C178.596 152.287 103.67 195.34 103.235 195.34C99.2188 196.595 94.9314 194.551 91.5959 191.934C91.0924 191.536 90.5872 191.108 90.1153 190.65C89.2755 189.902 88.4815 189.076 87.7333 188.191C87.2755 187.687 86.8477 187.168 86.4499 186.633C84.5714 184.173 82.9976 181.425 81.8216 178.568C81.5611 177.941 81.3322 177.316 81.1191 176.674C80.7371 175.573 80.4309 174.475 80.202 173.375C80.0646 172.734 79.9431 172.075 79.8657 171.45C79.6968 170.304 79.621 169.19 79.6368 168.105C79.6368 167.815 79.6527 167.54 79.6669 167.265C79.6827 167.098 79.6826 166.913 79.7126 166.746C79.7584 166.089 79.85 165.479 79.9873 164.898C80.0173 164.685 80.0788 164.486 80.1246 164.287C80.2004 163.966 80.3078 163.646 80.4151 163.34C80.4609 163.202 80.5224 163.049 80.5824 162.912C80.7355 162.53 80.9029 162.148 81.1018 161.812C81.1318 161.75 81.1775 161.69 81.2091 161.628C81.7442 160.711 82.4009 159.949 83.1791 159.368C83.438 159.169 83.6984 158.986 83.9731 158.833L93.2282 153.518C93.274 153.502 99.5361 149.914 99.5361 149.914C100.071 149.608 100.605 149.303 101.14 148.983C101.216 148.953 105.355 146.569 105.355 146.569C105.385 146.553 117.756 139.451 117.756 139.451C117.772 139.451 158.367 116.16 158.367 116.16C157.818 116.466 157.313 116.862 156.871 117.32C155.13 119.045 154.091 121.795 154.029 125.415C153.808 140.528 169.736 157.393 178.974 152.07Z" fill="#E6E6E6"/>
<path d="M81.2139 161.625C80.2383 163.285 79.6731 165.465 79.6337 168.1C79.4411 180.752 91.0245 195.731 100.767 195.717C96.0964 195.723 91.4255 195.729 86.7546 195.737C85.4412 195.739 83.9573 195.298 82.3914 194.369C77.1696 191.268 73.0101 183.892 73.1001 177.895C73.1253 176.193 73.4916 174.783 74.1214 173.712C76.4861 169.682 78.8492 165.653 81.2139 161.625Z" fill="#E6E6E6"/>
<path d="M74.1211 173.711C76.4858 169.682 78.8488 165.654 81.2135 161.625C83.6729 157.434 88.7353 156.545 94.5239 159.983L82.7211 172.65C78.9815 170.429 75.7107 171.003 74.1211 173.711Z" fill="#246F89"/>
<path d="M183.311 142.799C183.217 148.026 181.014 151.052 178.973 152.07C129.212 180.597 104.561 194.743 104.561 194.743C106.53 193.669 108.272 190.806 108.272 189.748C110.95 181.718 105.06 166.233 94.5263 159.981C90.4174 157.538 86.6762 157.277 83.9722 158.835L93.2272 153.52C93.273 153.505 99.5352 149.917 99.5352 149.917L101.047 149.031C101.077 149.015 101.109 149.001 101.139 148.985C101.215 148.955 105.354 146.572 105.354 146.572C105.384 146.556 117.755 139.454 117.755 139.454C117.771 139.454 158.366 116.162 158.366 116.162C158.504 116.087 158.641 116.009 158.794 115.933C158.886 115.888 158.977 115.842 159.085 115.796C159.421 115.659 159.787 115.536 160.169 115.43C169.806 112.975 183.517 128.886 183.311 142.799Z" fill="#E6E6E6"/>
<path d="M82.7214 172.65C87.9433 175.75 92.1027 183.126 92.0128 189.123C91.9212 195.12 87.6149 197.469 82.3914 194.367C77.1696 191.267 73.0101 183.89 73.1001 177.894C73.1916 171.897 77.4995 169.548 82.7214 172.65Z" fill="#E6E6E6"/>
<path d="M100.768 195.717C96.0967 195.724 91.4258 195.73 86.7549 195.738C89.8189 195.733 91.9483 193.323 92.013 189.125C92.1046 183.128 87.9451 175.752 82.7217 172.651L94.5245 159.985C109.986 169.164 114.288 195.698 100.768 195.717Z" fill="#246F89"/>
<path d="M0.0806511 231.126C2.3443 235.062 54.0136 212.952 88.1515 193.242C89.5627 192.419 90.4561 190.692 90.4939 188.222C90.5697 183.188 87.078 176.995 82.6943 174.392C80.4623 173.066 78.4307 172.934 76.9626 173.781C42.9148 193.431 -2.16405 227.222 0.0806511 231.126Z" fill="#FF7F17"/>
<path d="M87.0674 180.861C88.1803 182.788 88.7832 184.853 88.7264 186.528C88.7027 187.191 88.5765 187.584 88.4991 187.745L86.7564 188.751C60.9849 203.444 29.0918 217.957 12.0166 224.244C26.061 212.546 54.7401 192.062 80.4059 177.082L81.8961 176.225C82.0887 176.239 82.5306 176.34 83.1747 176.706C84.5875 177.51 86.0066 179.024 87.0674 180.861Z" fill="#FFFF00"/>
<path d="M86.0396 181.468C86.8178 182.816 87.2898 184.233 87.334 185.356C87.3513 185.801 87.2914 186.058 87.2519 186.162L86.2258 186.756C71.0322 195.397 52.0564 203.624 41.8242 207.032C49.9269 199.842 66.6359 187.449 81.749 178.609L82.6267 178.104C82.7467 178.123 83.0229 178.211 83.4381 178.489C84.3489 179.097 85.2976 180.181 86.0396 181.468Z" fill="white"/>
<path d="M121.451 185C130.561 179.775 124.411 157.958 111.406 150.235C107.299 147.797 103.477 147.629 100.772 149.181L92.6753 153.808C95.3809 152.256 99.1237 152.517 103.231 154.957C116.223 162.671 122.393 184.493 113.277 189.721L121.451 185Z" fill="#ED3940"/>
<path d="M137.649 175.649C146.758 170.424 140.608 148.607 127.603 140.884C123.495 138.445 119.674 138.278 116.968 139.83C116.971 139.828 104.513 146.971 104.513 146.971C107.219 145.419 110.962 145.68 115.069 148.12C128.061 155.835 134.231 177.657 125.115 182.885L137.649 175.649Z" fill="#246F89"/>
<path d="M178.974 152.07L132.407 178.769C138.6 174.642 134.71 153.404 120.876 145.167C116.767 142.74 113.025 142.463 110.321 144.021L118.981 139.057L156.874 117.323L160.174 115.429L161.304 114.772L161.396 114.727C161.564 114.665 161.747 114.605 161.945 114.543C162.144 114.468 162.357 114.406 162.556 114.345C162.984 114.207 163.411 114.086 163.777 113.994C174.84 111.015 187.757 118.885 189.208 131.467C190.375 139.789 185.658 148.735 178.974 152.07Z" fill="#CCCCCC"/>
<path d="M169.829 21.173L173.327 21.9955C173.327 21.9955 180.014 23.724 182.424 25.0421C184.833 26.3602 187.062 27.361 187.062 27.361C187.801 27.8519 187.562 28.5654 186.426 28.4518C186.426 28.4518 185.381 28.7706 184.743 28.4518C184.743 28.4518 183.925 28.4518 183.288 28.1329C182.651 27.814 181.515 27.8598 181.515 27.8598C181.515 27.8598 182.652 29.0879 183.425 29.3152C184.199 29.5425 184.926 30.6791 184.426 31.0879C183.925 31.4968 182.607 31.0422 182.017 30.7249C181.425 30.406 180.153 29.3152 179.425 28.9064C178.697 28.4975 175.242 27.724 174.514 27.1779C173.786 26.6317 172.213 26.2118 172.213 26.2118L169.059 24.4501L169.829 21.173Z" fill="#F4C1A8"/>
<path d="M141.867 15.0274L147.179 9.91766C147.179 9.91766 165.054 15.4363 173.237 21.7174C173.237 21.7174 174.055 26.543 170.691 26.8161C167.327 27.0892 152.05 22.6329 152.05 22.6329L141.865 21.7758L141.867 15.0274Z" fill="#ED117B"/>
<path d="M155.234 123.361C155.234 123.361 159.021 122.615 163.756 122.412C168.066 122.221 170.942 119.838 170.445 117.153C170.4 116.886 170.318 116.613 170.205 116.34C168.905 113.339 163.859 114.943 161.917 114.534C159.976 114.125 159.223 112.45 159.223 112.45C158.028 109.674 152.883 106.995 150.335 112.57C148.11 115.08 147.117 118.828 147.117 118.828C147.057 119.116 147.013 119.39 146.986 119.652C146.34 125.876 155.234 123.361 155.234 123.361Z" fill="#2B4047"/>
<path d="M146.984 119.65C147.552 124.341 155.233 122.171 155.233 122.171C161.848 120.856 169.516 122.064 170.444 117.151C170.4 116.884 170.318 116.611 170.204 116.338C168.905 113.337 163.859 114.941 161.917 114.532C159.975 114.124 159.222 112.449 159.222 112.449C158.027 109.672 152.883 106.993 150.335 112.569C148.109 115.079 147.116 118.826 147.116 118.826C147.055 119.116 147.011 119.388 146.984 119.65Z" fill="white"/>
<path d="M117.451 133.286C117.586 134.001 120.485 139.221 124.03 142.768C127.577 146.315 132.213 147.062 135.078 144.64C136.142 143.74 136.458 142.758 136.246 141.721C135.891 139.964 134.054 138.045 131.806 136.053C128.227 132.878 128.259 129.096 128.259 129.096C127.953 123.821 122.088 124.218 119.361 127.694C117.986 129.451 117.473 130.679 117.326 131.557C117.184 132.413 117.386 132.93 117.451 133.286Z" fill="#2B4047"/>
<path d="M117.326 131.555C117.364 131.795 117.424 131.986 117.452 132.14C117.588 132.855 120.486 138.07 124.032 141.617C127.579 145.164 132.215 145.916 135.08 143.494C135.746 142.932 136.117 142.337 136.248 141.721C135.893 139.964 134.056 138.045 131.808 136.053C128.229 132.878 128.261 129.096 128.261 129.096C127.955 123.821 122.09 124.218 119.362 127.694C117.986 129.45 117.473 130.678 117.326 131.555Z" fill="white"/>
<path d="M119.361 127.692C119.361 127.692 121.773 133.388 126.225 132.39C130.683 131.386 132.275 127.845 132.275 127.845C132.275 127.845 139.865 116.748 143.777 112.477C147.688 108.199 147.595 107.021 148.235 103.381C148.868 99.7424 146.598 91.1977 146.156 86.9198C145.878 84.2521 146.014 79.7122 146.953 77.0665C146.997 76.9355 147.019 76.8802 147.04 76.8266C147.602 75.3869 148.43 74.6055 149.598 75.1896C152.872 76.8266 159.507 82.4683 158.726 84.6499C157.946 86.8314 152.053 100.287 151.049 102.196C150.143 103.926 147.666 108.879 148.233 112.84C148.288 113.249 148.38 113.642 148.506 114.019C149.87 118.111 155.054 118.477 158.726 115.989C162.397 113.501 163.237 108.47 164.33 105.836C165.42 103.201 168.51 97.0131 171.253 92.0154C173.992 87.013 175.602 81.6491 174.783 77.0113C173.965 72.3735 159.419 59.3662 156.964 57.5493C155.714 56.6274 152.419 54.3353 149.479 52.3116C146.647 50.3526 144.143 48.6399 144.143 48.6399L132.02 54.1948L122.319 58.6416C122.319 58.6416 121.682 62.0071 121.316 67.6441C121.211 69.2369 121.627 71.1911 122.308 73.2306C124.043 78.4083 127.508 84.11 128.681 85.7407C130.318 88.0106 133.412 103.015 132.277 104.292C131.148 105.563 125.409 113.654 122.773 118.477C121.704 120.425 120.94 122.313 120.409 123.861C119.634 126.149 119.361 127.692 119.361 127.692Z" fill="#2B4047"/>
<path d="M122.306 73.2309C123.894 73.9886 130.381 70.9231 136.3 67.3492C139.978 65.1345 143.431 62.7288 145.358 60.9166C146.995 59.3838 148.97 57.5006 149.477 52.3119C149.69 50.173 149.645 47.472 149.23 44.0024C148.684 39.4514 153.595 33.636 154.506 26.3573C155.412 19.0849 152.869 7.80769 145.356 10.256C137.844 12.7059 125.95 31.4529 122.305 45.4531C121.099 50.0751 120.133 54.4003 119.566 58.2141C118.401 65.9632 118.87 71.5892 122.306 73.2309Z" fill="#ED117B"/>
<path d="M163.69 6.00316C163.69 6.00316 165.69 6.95819 164.963 10.6125C164.235 14.2669 162.385 23.2347 157.177 22.428C157.177 22.428 152.869 24.2702 151.96 28.9064C151.96 28.9064 148.686 22.9332 146.323 21.1904C146.323 21.1904 145.308 19.9939 147.18 16.9031C147.18 16.9031 144.945 8.74195 147.18 6.00316C149.414 3.26279 163.69 6.00316 163.69 6.00316Z" fill="#F4C1A8"/>
<path d="M164.509 1.74755C166.713 2.7673 168.284 6.17382 165.123 9.08309C161.963 11.9924 162.964 12.3775 161.69 13.4573C160.416 14.537 159.507 16.8448 159.507 16.8448H156.687C156.687 16.8448 156.687 20.0919 153.687 20.9065C150.686 21.721 147.136 20.5387 146.046 18.9933C146.046 18.9933 141.851 8.34907 147.178 3.76021C152.506 -0.828647 158.871 -0.86022 164.509 1.74755Z" fill="black"/>
<path d="M158.842 15.4303C158.806 14.8241 158.429 14.1927 157.834 14.068C157.209 13.937 156.609 14.3932 156.224 14.9031C155.628 15.6908 155.308 16.6821 155.327 17.6687C155.338 18.2007 155.478 18.7863 155.92 19.0831C156.421 19.4193 157.133 19.2425 157.581 18.8384C158.029 18.4359 158.328 17.8439 158.47 17.2677C158.617 16.6679 158.88 16.0617 158.842 15.4303Z" fill="#F4C1A8"/>
<path opacity="0.5" d="M133.41 81.6932C132.875 74.4634 136.182 67.5999 136.302 67.3489C130.382 70.9227 123.895 73.9883 122.308 73.2306C124.043 78.4082 127.508 84.11 128.681 85.7406C130.318 88.0106 133.412 103.015 132.277 104.292C131.148 105.563 125.408 113.654 122.772 118.477C121.704 120.425 120.94 122.313 120.409 123.861C122.897 117.848 136.411 105.016 136.308 102.289C136.209 99.5609 133.956 89.0587 133.41 81.6932Z" fill="#2B4047"/>
<path opacity="0.5" d="M122.307 73.2306C123.895 73.9883 130.381 70.9228 136.301 67.3489C136.305 67.3442 132.591 63.5509 131.909 57.2778C131.8 56.2738 131.854 55.2367 132.018 54.1948C132.875 48.7551 136.836 43.3644 136.836 43.3644L119.568 58.2154C118.402 65.963 118.87 71.5889 122.307 73.2306Z" fill="#BA2D42"/>
<path d="M113.086 75.5101C113.086 75.5101 111.176 78.784 111.495 80.4652C111.814 82.1479 111.904 83.8748 111.768 84.8756C111.632 85.8764 111.151 87.9222 111.46 88.65C111.768 89.3777 110.859 90.2411 110.041 89.1504C109.224 88.0596 109.678 85.6491 109.678 85.6491L108.087 88.7415L105.222 95.2878C104.955 95.8782 103.95 95.9476 104.059 94.9673L106.199 88.7021L105.926 88.5805L102.687 95.1441C102.295 95.7187 101.476 95.4851 101.629 94.65L104.392 87.8638L104.101 87.6934L100.98 94.0534C100.605 94.5822 99.8896 94.2743 100.093 93.5072L102.924 86.5331L102.633 86.3279L99.7002 91.6824C99.3418 92.1433 98.6093 91.8702 98.8303 91.1204C98.8303 91.1204 101.661 84.3342 102.292 83.3287C102.924 82.3231 104.935 79.507 106.077 78.4335C107.22 77.3601 107.8 73.7468 107.8 73.7468L113.086 75.5101Z" fill="#F4C1A8"/>
<path d="M136.838 43.3645C136.838 43.3645 129.499 52.0939 125.908 55.3678C122.316 58.6417 115.405 73.9174 114.586 75.8275C113.768 77.7375 113.085 78.5552 110.63 78.4195C108.176 78.2837 106.266 75.8275 106.266 75.8275C106.266 75.8275 111.312 56.0498 113.085 52.0939C114.858 48.138 128.362 32.8608 128.362 32.8608C136.002 26.9965 142.14 37.6359 136.838 43.3645Z" fill="#ED117B"/>
<path opacity="0.5" d="M149.914 66.2802C149.308 70.3828 147.46 75.6583 147.038 76.8265C147.6 75.3868 148.429 74.6054 149.597 75.1895C152.871 76.8265 159.506 82.4682 158.724 84.6498C157.944 86.8314 152.052 100.287 151.048 102.195C150.142 103.926 147.665 108.879 148.232 112.84C147.647 107.296 160.006 89.8748 161.779 86.7382C163.551 83.6016 162.325 81.8273 158.713 77.0585C155.103 72.2976 149.914 66.2802 149.914 66.2802Z" fill="#2B4047"/>
</svg>
