<svg width="255" height="270" viewBox="0 0 255 270" fill="none" xmlns="http://www.w3.org/2000/svg">
<path opacity="0.3" d="M41.3608 171.425L160.427 112.026L140.137 101.903L21.0649 161.302L41.3608 171.425Z" fill="black"/>
<path d="M125.509 109.206L145.798 119.329L148.86 44.5877L145.798 40.8101L125.509 30.6903V109.206Z" fill="#C84030"/>
<path d="M145.798 40.8098L153.114 42.0951L160.427 33.513L140.141 23.3903L125.509 30.69L145.798 40.8098Z" fill="#FA5C52"/>
<path d="M145.798 119.328L160.427 112.026V33.5131L145.798 40.8099V119.328Z" fill="#991F16"/>
<path d="M99.3916 122.233L119.688 132.356L122.746 99.678L119.688 64.4008L99.3916 54.2752V122.233Z" fill="#EF8F2D"/>
<path d="M119.688 64.4005L127.007 65.6799L134.323 57.0978L114.03 46.978L99.3916 54.2748L119.688 64.4005Z" fill="#FDBD6F"/>
<path d="M119.688 132.355L134.323 125.056V57.0979L119.688 64.4005V132.355Z" fill="#D66B24"/>
<path d="M73.2803 135.257L93.5761 145.38L96.6348 91.4876L93.5761 87.7072L73.2803 77.5816V135.257Z" fill="#FFC654"/>
<path d="M93.5761 87.7071L100.895 88.9837L108.208 80.4045L87.9154 70.2876L73.2803 77.5815L93.5761 87.7071Z" fill="#FFEC7A"/>
<path d="M93.5762 145.379L108.208 138.077V80.4043L93.5762 87.707V145.379Z" fill="#E09D38"/>
<path d="M47.1758 148.281L67.465 158.412L70.5304 137.676L67.465 111.753L47.1758 101.633V148.281Z" fill="#E3BD5E"/>
<path d="M67.4649 111.753L74.7843 113.029L82.0968 104.447L61.8076 94.3275L47.1758 101.633L67.4649 111.753Z" fill="#FBE979"/>
<path d="M67.4648 158.412L82.0967 151.101V104.448L67.4648 111.753V158.412Z" fill="#CC934C"/>
<path d="M21.0649 161.302L41.3608 171.425L44.4195 157.342L41.3608 131.418L21.0649 121.29V161.302Z" fill="#B4C342"/>
<path d="M41.3608 131.419L48.6767 132.698L55.9926 124.113L35.7001 113.99L21.0649 121.29L41.3608 131.419Z" fill="#DDE65C"/>
<path d="M41.3608 171.425L55.9927 164.131V124.113L41.3608 131.419V171.425Z" fill="#92A145"/>
<path d="M159.393 30.2203L153.373 27.2174L135.222 14.6518L158.275 7.57837L159.393 30.2203Z" fill="#C84030"/>
<path d="M141.242 17.6575L135.222 14.6518L159.98 6.10352e-05L166 3.00582L152.107 15.5308L141.242 17.6575Z" fill="#FA5C52"/>
<path d="M85.102 68.1781L79.082 65.1753L123.572 42.9801L133.527 45.983L110.27 58.8852L85.102 68.1781Z" fill="#FA5C52"/>
<path d="M129.595 45.9829L123.571 42.98L141.782 19.1921L147.802 22.2008L139.707 37.0497L129.595 45.9829Z" fill="#C84030"/>
<path d="M50.5131 113.352L44.4897 110.346L79.0818 65.1753L85.1017 68.1781L74.7842 87.8433L50.5131 113.352Z" fill="#C84030"/>
<path d="M6.0267 143.882L0.00338124 140.88L0 132.547L7.45696 133.731L10.0153 136.261L6.0267 143.882Z" fill="#C84030"/>
<path d="M6.01994 135.547L0 132.547L44.4898 110.346L50.5131 113.352L31.1875 126.254L6.01994 135.547Z" fill="#FA5C52"/>
<path d="M166 3.00565L141.242 17.6573L147.803 22.2008L129.595 45.983L85.1019 68.1781L50.5133 113.352L6.02686 135.547V143.882L53.4679 120.213L88.0598 75.0397L132.546 52.8417L153.168 25.9145L159.393 30.2201L166 3.00565Z" fill="#991F16"/>
<path d="M244.633 193.23C281.172 215.482 207.938 249.691 175.633 230.755C143.328 211.819 218.904 177.561 244.633 193.23Z" fill="#B3B3B3"/>
<path d="M171.244 76.8388L173.363 74.1058L177.748 71.8357L180.798 72.2418L179.43 73.5169H178.246L177.851 73.9068L181.596 74.3372V75.5718L178.058 75.9494L176.958 76.4612L181.789 76.8388L180.798 78.0895L179.378 78.4591L180.798 79.5475L180.229 80.2865L176.709 80.8469L173.809 79.5475L171.244 76.8388Z" fill="#F0C6B4"/>
<path d="M194.209 78.463L175.407 87.8479V63.3847L194.209 53.9998V78.463Z" fill="white"/>
<path d="M181.366 74.292L178.64 72.9357L179.754 71.2666L182.954 69.6666L181.366 74.292Z" fill="#EB5C44"/>
<path d="M182.954 69.6666L185.215 70.7956L185.21 73.9834L182.954 77.3662L181.366 74.292L182.954 69.6666Z" fill="#EB5C44"/>
<path d="M181.366 74.2925L182.954 77.3667L179.754 78.9667L177.498 77.8337V74.6499L178.64 72.9362L181.366 74.2925Z" fill="#FFEC7A"/>
<path d="M192.123 74.7634L177.498 82.0691V81.4031L192.123 74.1055V74.7634Z" fill="#F4EFE9"/>
<path d="M192.123 76.2336L177.498 83.5352V82.8692L192.123 75.5717V76.2336Z" fill="#F4EFE9"/>
<path d="M186.093 80.7133L177.498 84.9976V84.3397L186.093 80.0513V80.7133Z" fill="#F4EFE9"/>
<path d="M192.123 63.2737L177.498 70.5713V64.1387L192.123 56.8412V63.2737Z" fill="#BAF3FF"/>
<path d="M179.026 63.9796L178.137 64.4222L178.058 64.6334V64.8811L178.137 65.0192L179.026 64.5765L179.11 64.3572V64.1217L179.026 63.9796Z" fill="#FFEC7A"/>
<path d="M179.026 64.9865L178.137 65.4332L178.058 65.6485V65.888L178.137 66.0262L179.026 65.5916L179.11 65.3723V65.1246L179.026 64.9865Z" fill="#EB5C44"/>
<path d="M177.498 70.5713L182.578 64.8454L184.411 64.1549L186.944 60.8372L189.195 60.7032L192.123 56.8412V58.2463L191.296 62.7336L177.498 70.5713Z" fill="#EB5C44"/>
<path d="M177.498 70.5711L180.003 67.0097L184.209 65.7792L188.701 61.7914L190.562 61.2594L192.123 58.2462V60.0776V63.2736L177.498 70.5711Z" fill="#FFEC7A"/>
<path d="M190.309 67.9808L186.982 69.6458L186.784 70.1372V70.7138L186.982 71.0225L190.309 69.3615L190.492 68.862V68.2894L190.309 67.9808Z" fill="#FFEC7A"/>
<path d="M190.309 70.317L186.982 71.9738L186.784 72.4733V73.046L186.982 73.3546L190.309 71.6936L190.492 71.1982L190.497 70.6256L190.309 70.317Z" fill="#EB5C44"/>
<path d="M207.654 95.2101L200.906 88.5786L196.569 89.3583L194.6 89.2731L191.15 90.3817H190.013V89.1025L192.922 87.0599L192.729 86.069L190.22 85.805L189.082 83.2669L189.675 82.0689L185.628 78.3775L185.788 77.1511L192.123 80.6354L197.212 80.3715L202.34 83.9938L211.658 89.8254L212.777 91.9127L211.644 95.1492L209.6 95.9614L207.654 95.2101Z" fill="#F0C6B4"/>
<path d="M211.644 86.0689L212.584 91.0639L214.313 92.4649L221.602 91.0233L225.249 88.9319L225.902 86.3857L225.347 83.0476L223.82 80.0384L218.251 79.2262L210.337 82.4628L211.644 86.0689Z" fill="#F0C6B4"/>
<path d="M227.584 88.8261L231.147 87.0596H236.866L241.194 89.2484L241.594 95.287L239.136 99.8353L233.741 98.743L227.584 88.8261Z" fill="#ED117B"/>
<path d="M232.923 215.581V216.43L231.278 218.59H227.27L224.845 214.785L224.323 212.178L220.507 208.316L219.718 204.685V203.833L222.998 203.037L232.923 215.581Z" fill="#E2D5C5"/>
<path d="M197.367 208.901L192.851 210.099L185.534 211.009V211.861L186.422 214.838L191.004 217.567L200.647 218.099L202.029 218.948L207.945 219.569L210.892 218.152V217.303L197.367 208.901Z" fill="#E2D5C5"/>
<path d="M232.467 210.131L232.923 215.581L231.278 217.737H227.27L224.845 213.936L224.323 211.329L220.507 207.459L219.718 203.833L220.437 202.696L222.998 202.188L232.467 210.131Z" fill="#AC8854"/>
<path d="M197.367 208.048L192.851 209.246L187.606 209.051L185.534 211.008L186.422 213.989L191.004 216.71L200.647 217.242L202.029 218.099L207.945 218.724L210.892 217.303V210.456L197.367 208.048Z" fill="#AC8854"/>
<path d="M232.829 144.498L231.307 174.968L234.69 183.305V207.488L231.795 211.009L225.992 210.891L222.462 207.24L219.182 179.561L214.003 158.708L212.875 150.041L232.829 144.498Z" fill="#203136"/>
<path d="M228.736 126.061L233.426 142.244L232.148 147.093L215.963 153.635L209.182 178.265L211.639 187.223L212.072 210.241L207.306 213.116L198.838 212.409L196.145 208.693L195.779 177.753L194.581 163.101L195.882 135.43L197.259 131.34L228.736 126.061Z" fill="#2B4047"/>
<path d="M227.021 121.975L228.736 126.061L225.785 128.895L213.322 133.724H200.22L197.259 131.34L197.01 125.208L227.021 121.975Z" fill="#0A0808"/>
<path d="M227.857 88.5785H234.474L238.661 94.1095L239.15 100.843L234.681 111.685L229.291 119.011V121.395L224.305 126.288L212.786 130.439H200.178L196.935 128.148L195.45 124.424L196.935 111.868V105.594L199.022 102.073L202.17 98.276L209.6 94.1095L227.857 88.5785Z" fill="#ED117B"/>
<path d="M183.175 101.764H179.03V98.048L173.513 84.1677L176.074 82.1778L177.263 79.6843L179.88 78.657L181.262 76.5534L180.144 76.2772L178.339 77.1503L175.355 77.6904L171.243 76.8376L167.845 83.1402L168.254 102.442L171.21 107.725L174.697 111.015L181.253 111.701L184.815 109.09L183.175 101.764Z" fill="#F0C6B4"/>
<path d="M206.733 104.152L207.25 108.855L204.848 112.124L200.314 113.712L182.15 112.855L179.086 108.936L179.03 104.079L183.109 100.778L199.265 100.461L203.603 101.196L206.733 104.152Z" fill="#ED117B"/>
<path d="M227.857 88.5786L223.426 92.5826L216.034 93.8618L209.6 94.1096V89.5979L215.094 90.1948L222.538 88.5786L226.386 86.0689L227.857 88.5786Z" fill="#ED117B"/>
<path d="M206.531 68.9804L204.553 73.951L205.441 75.6282L205.173 78.881L207.043 84.875L209.544 86.0689H211.644L213.834 83.2668L216.109 79.5389L211.907 68.2372L206.531 68.9804Z" fill="#F0C6B4"/>
<path d="M216.884 63.9209L209.952 64.4813L210.483 64.8224L206.042 67.5189L205.44 68.9524L206.498 68.3758L206.766 73.4804L208.227 75.7667V78.0612L208.824 78.9262L210.615 77.781L212.804 80.4734L214.426 84.8835L216.287 85.8054H220.229L222.415 84.7739L223.815 83.3932V84.1973L226.038 82.5323L227.857 77.3261V71.4134L226.339 68.5504L227.857 68.4367L225.869 67.9778L226.663 66.658L225.202 67.3484L221.888 65.1676L216.884 63.9209Z" fill="#CC934C"/>
<path d="M179.03 101.765L176.163 103.47L175.806 102.39L179.03 101.765Z" fill="#C7A495"/>
<path d="M140.898 226.228C177.436 248.479 104.203 282.688 71.8975 263.752C39.5924 244.816 115.169 210.559 140.898 226.228Z" fill="black" fill-opacity="0.3"/>
<path d="M167.094 138.378L170.455 137.136L175.694 136.868L181.122 138.025V138.914L175.798 139.231L177.884 141.728L180.812 143.17H184.017V144.449L177.814 145.542L169.754 142.155L166.498 141.201L167.094 138.378Z" fill="#F0C6B4"/>
<path d="M165.116 145.781L169.754 142.154L169.458 140.538L167.823 138.581L165.755 138.024L161.276 140.94L165.116 145.781Z" fill="white"/>
<path d="M127.586 129.549H133.291L149.137 147.828L163.988 138.727L166.474 139.32L168.217 141.753L168.367 144.01L152.183 156.246L146.769 157.529L129.748 142.406L126.251 141.513L123.568 132.205L127.586 129.549Z" fill="#ED117B"/>
<path d="M114.179 245.794L114.898 248.215L118.07 248.515L122.905 241.279L122.459 237.291L120.979 236.142L119.113 236.54L114.179 245.794Z" fill="#362C29"/>
<path d="M113.775 205.27V208.693L112.017 217.81L114.7 234.74L113.972 243.061L114.179 245.794L117.736 246.229L120.979 241.059V230.529L124.113 215.715L123.568 203.146L118.07 200.726L113.775 205.27Z" fill="#F0C6B4"/>
<path d="M100.785 244.482L96.5698 243.69L93.0171 245.794L93.8911 249.165L104.188 255.747H108.436L108.906 253.165L100.785 244.482Z" fill="#362C29"/>
<path d="M98.2384 206.423L98.8493 212.551L101.387 241.278L100.785 244.482L97.3407 244.92L95.7993 246.151L96.5607 248.636L101.598 251.844L105.753 254.127L108.906 253.164L107.379 249.907L108.046 243.292L111.242 224.652L108.591 215.174L108.948 207.962L105.048 201.939H100.673L98.2384 206.423Z" fill="#F0C6B4"/>
<path d="M93.666 180.962L97.4302 206.152L105.649 209.043L124.029 203L130.397 181.063L127.079 169.575L97.4302 170.72L93.666 180.962Z" fill="#2B4047"/>
<path d="M89.8217 164.848L92.5098 166.074L94.7091 164.174L99.2112 162.168L97.839 157.822H94.1311L92.1573 159.536L89.4082 161.94L89.8217 164.848Z" fill="#F0C6B4"/>
<path d="M82.4385 162.626L89.2761 165.193L91.17 164.116L92.5093 161.562L92.1568 159.536L86.2966 156.762L82.4385 162.626Z" fill="white"/>
<path d="M95.7993 129.058H93.6564L67.0859 151.677L69.1161 158.183L86.8845 164.847L89.0181 163.608L90.5312 160.713L90.1365 158.431L79.8731 152.822L94.6855 142.272L98.6518 135.807L95.7993 129.058Z" fill="#ED117B"/>
<path d="M102.712 128.356L95.7992 129.058L93.6562 134.142L94.6854 142.272L99.2015 155.255L94.7324 163.674L93.6562 181.241L100.832 184.722L110.302 185.205L111.787 175.065L113.591 185.168L126.251 184.149L130.396 181.063L129.846 163.381L126.153 155.511L129.748 142.406L130.396 134.029L128.502 129.891L121.66 127.3L102.712 128.356Z" fill="#ED117B"/>
<path d="M115.09 99.3202L108.591 98.5324L103.229 103.803L97.5381 123.004L103.126 130.119H107.773L106.321 131.069L118.244 130.452L117.229 131.601L123.568 129.059L122.906 130.724L127.878 122.484L123.103 103.803L119.16 99.1537L115.09 99.3202Z" fill="#5E4439"/>
<path d="M115.09 99.3199V103.982L115.598 105.728L116.213 103.803L115.09 99.3199Z" fill="#403531"/>
<path d="M102.406 158.355L106.983 160.548L120.273 160.974L107.186 162.396L102.406 158.355Z" fill="#693121"/>
</svg>
