<svg width="257" height="363" viewBox="0 0 257 363" fill="none" xmlns="http://www.w3.org/2000/svg">
<path d="M91.1756 320.162C134.498 341.93 47.6675 375.397 9.3638 356.872C-28.9393 338.347 60.6692 304.833 91.1756 320.162Z" fill="black" fill-opacity="0.3"/>
<path d="M81.8024 99.3277C82.5849 99.2811 83.356 99.0565 83.9942 98.6454C85.5865 97.6227 85.7605 95.8366 84.3851 94.6535C84.2335 94.523 69.2995 81.4542 73.338 67.7182C75.9425 58.8592 85.8959 51.4245 102.923 45.6231C146.019 30.9381 199.115 65.4196 199.646 65.7702C201.222 66.8081 203.637 66.7023 205.036 65.5339C206.436 64.3647 206.295 62.5759 204.721 61.5362C202.403 60.0065 147.388 24.2436 99.7361 40.4745C80.3877 47.0681 68.9925 55.841 65.8665 66.5516C61.0442 83.074 77.8907 97.7425 78.6111 98.3585C79.4365 99.0668 80.6336 99.3968 81.8024 99.3277Z" fill="#ACACCD"/>
<path d="M83.9024 102.608C83.9106 102.525 83.9207 102.443 83.9326 102.36C83.9456 102.268 83.9623 102.176 83.9797 102.084C83.9916 102.02 84.0028 101.958 84.0169 101.894C84.0299 101.835 84.0455 101.776 84.0604 101.717C84.0812 101.635 84.1024 101.553 84.1262 101.47C84.1399 101.423 84.1548 101.375 84.1697 101.328C84.1987 101.235 84.2295 101.143 84.2626 101.051C84.2763 101.013 84.2893 100.975 84.3034 100.937C84.351 100.81 84.4015 100.683 84.4565 100.557C84.4629 100.542 84.4699 100.528 84.4766 100.513C84.5264 100.401 84.5792 100.289 84.6345 100.178C84.652 100.143 84.6695 100.109 84.6873 100.074C84.7412 99.9688 84.7973 99.8651 84.8556 99.7626C84.8671 99.7425 84.8779 99.7221 84.8894 99.702C84.9589 99.582 85.0321 99.4638 85.1076 99.3475C85.1295 99.3137 85.1522 99.281 85.1745 99.2475C85.2302 99.1639 85.2874 99.0814 85.3461 99.0004C85.3777 98.9566 85.4101 98.9131 85.4424 98.87C85.4933 98.802 85.5461 98.7358 85.5988 98.6697C85.6431 98.6147 85.6876 98.5597 85.733 98.5062C85.7761 98.4553 85.8207 98.4062 85.8649 98.3568C85.9403 98.2724 86.0176 98.1903 86.0961 98.1104C86.1447 98.061 86.1931 98.0116 86.2425 97.964C86.2811 97.9268 86.3205 97.8904 86.3599 97.8548C86.4242 97.796 86.4892 97.7396 86.555 97.6842C86.5944 97.6511 86.6337 97.6177 86.6739 97.5861C86.7452 97.5292 86.8177 97.4753 86.8909 97.4226C86.9259 97.3973 86.9604 97.3706 86.9961 97.3464C87.1046 97.2717 87.2146 97.2011 87.3257 97.1368C87.4327 97.0751 87.5382 97.0216 87.6427 96.9722C87.6702 96.9592 87.6973 96.9469 87.7248 96.9347C87.7824 96.909 87.8389 96.8882 87.8957 96.8663C87.9779 96.8343 88.0596 96.8061 88.1399 96.7819C88.1915 96.7663 88.2428 96.7511 88.2937 96.7388C88.3413 96.7273 88.3885 96.7173 88.4353 96.7084C88.497 96.6968 88.5583 96.6872 88.6181 96.6801C88.6531 96.676 88.688 96.6719 88.7222 96.6697C88.7976 96.6645 88.872 96.663 88.9444 96.6653C88.9611 96.666 88.9782 96.6649 88.9945 96.6656C89.0822 96.6705 89.1674 96.682 89.2502 96.698C89.2711 96.702 89.2907 96.7072 89.3112 96.7121C89.3762 96.7269 89.4397 96.7451 89.5014 96.7671C89.5207 96.7738 89.5408 96.7801 89.5598 96.7879C89.6382 96.8187 89.7144 96.8537 89.7865 96.8956L82.5658 92.7727C82.5595 92.769 82.5532 92.7653 82.5468 92.7619C82.4907 92.7303 82.4328 92.7021 82.3729 92.6772C82.3618 92.6727 82.3499 92.6697 82.3391 92.6653C82.3198 92.6579 82.3001 92.6515 82.2804 92.6445C82.2503 92.6337 82.221 92.6218 82.1905 92.6125C82.1578 92.6032 82.1239 92.5969 82.0905 92.5895C82.0701 92.5847 82.0504 92.5794 82.0296 92.5754C82.0184 92.5731 82.0077 92.5694 81.9965 92.5676C81.9285 92.5557 81.8587 92.5475 81.7873 92.543C81.7828 92.5427 81.7784 92.543 81.7739 92.543C81.7576 92.5423 81.7401 92.543 81.7238 92.5427C81.6691 92.5408 81.6148 92.539 81.5584 92.5412C81.5398 92.5419 81.5201 92.5456 81.5015 92.5467C81.4673 92.549 81.4324 92.5531 81.3978 92.5572C81.3651 92.5609 81.3335 92.562 81.3008 92.5668C81.2726 92.5713 81.2429 92.5798 81.2143 92.5854C81.1675 92.5943 81.1206 92.604 81.0731 92.6155C81.0474 92.6218 81.0225 92.6248 80.9965 92.6318C80.9712 92.6389 80.9445 92.6508 80.9192 92.6586C80.8389 92.6828 80.7576 92.711 80.6754 92.7426C80.6465 92.7537 80.6186 92.76 80.5896 92.7723C80.5614 92.7838 80.5324 92.7987 80.5041 92.8113C80.477 92.8232 80.4499 92.8359 80.4224 92.8485C80.3176 92.8979 80.2124 92.9511 80.1054 93.0131C79.9939 93.0774 79.8843 93.148 79.7754 93.2227C79.7401 93.2469 79.7056 93.2736 79.6703 93.2992C79.5974 93.352 79.5246 93.4055 79.4532 93.4628C79.4131 93.4947 79.3737 93.5282 79.3343 93.5612C79.2685 93.6166 79.2035 93.6731 79.1392 93.7318C79.0998 93.7678 79.0608 93.8039 79.0222 93.841C78.998 93.8641 78.9731 93.8856 78.9493 93.9091C78.9241 93.9343 78.9007 93.9626 78.8754 93.9878C78.797 94.0677 78.7201 94.1495 78.6446 94.2338C78.6205 94.2606 78.5948 94.2847 78.5714 94.3119C78.5513 94.3349 78.5328 94.3594 78.5131 94.3829C78.4674 94.4367 78.4228 94.4917 78.3785 94.5467C78.3495 94.5828 78.3191 94.617 78.2905 94.6538C78.2671 94.6839 78.2452 94.7158 78.2221 94.7463C78.1894 94.7894 78.1575 94.8329 78.1259 94.8767C78.1043 94.9068 78.0813 94.9358 78.0597 94.9663C78.0237 95.0176 77.9895 95.0707 77.9545 95.1231C77.9319 95.1569 77.9092 95.19 77.8869 95.2238C77.878 95.2379 77.868 95.2513 77.859 95.2654C77.7974 95.3617 77.7379 95.4594 77.6803 95.5582C77.6766 95.5649 77.6729 95.5716 77.6692 95.5783C77.6576 95.598 77.6472 95.6181 77.6361 95.6378C77.596 95.708 77.5558 95.7786 77.5179 95.8499C77.5005 95.883 77.4845 95.9168 77.4674 95.9499C77.4496 95.9845 77.4321 96.019 77.415 96.0536C77.3998 96.0841 77.3838 96.1138 77.3689 96.1443C77.3299 96.2249 77.2935 96.3063 77.2574 96.3877C77.2507 96.4029 77.2433 96.4178 77.237 96.4326C77.2351 96.4367 77.2333 96.4408 77.2314 96.4449C77.1868 96.5478 77.1445 96.6515 77.1043 96.7556C77.0969 96.7745 77.0909 96.7935 77.0839 96.8124C77.0697 96.8503 77.0564 96.8882 77.043 96.9265C77.0244 96.9785 77.0043 97.0302 76.9869 97.0822C76.9735 97.1227 76.9627 97.1632 76.9497 97.2037C76.9349 97.2513 76.92 97.2988 76.9063 97.3464C76.8977 97.3761 76.8873 97.4055 76.8791 97.4352C76.8646 97.4884 76.8535 97.5407 76.8405 97.5939C76.8256 97.653 76.8104 97.7117 76.7974 97.7704C76.7929 97.7912 76.7866 97.8116 76.7822 97.8325C76.7732 97.8752 76.7684 97.9176 76.7602 97.9599C76.7424 98.0521 76.726 98.1439 76.713 98.2353C76.7093 98.2609 76.7034 98.2866 76.7 98.3122C76.6926 98.3702 76.6889 98.427 76.6829 98.4846C76.6788 98.5255 76.674 98.566 76.671 98.6069C76.6614 98.7355 76.6554 98.8633 76.6558 98.9896C76.658 99.8075 76.8754 100.443 77.2459 100.862C77.3693 101.002 77.5098 101.117 77.6651 101.208L84.8857 105.331C84.2648 104.97 83.8798 104.203 83.8768 103.113C83.8764 102.987 83.8824 102.859 83.8921 102.73C83.8932 102.69 83.8984 102.649 83.9024 102.608Z" fill="#F9BB41"/>
<path d="M87.3253 97.1371C89.2364 96.0338 90.7901 96.9212 90.796 99.1174C90.8024 101.314 89.2591 103.987 87.3476 105.09C85.4364 106.193 83.8808 105.309 83.8745 103.113C83.8686 100.917 85.4141 98.2408 87.3253 97.1371Z" fill="#6F6F84"/>
<path d="M122.905 113.872L106.627 104.154C102.541 101.715 97.4617 101.651 93.315 103.986L75.8418 103.395C70.9016 106.177 72.944 122.505 77.8258 125.389L93.4313 134.609L122.905 113.872Z" fill="#9090AB"/>
<path d="M122.905 102.852L106.627 93.1344C102.541 90.6952 97.4617 90.6309 93.315 92.9661L77.9576 101.615C73.0175 104.397 72.9439 111.485 77.8253 114.369L93.4309 123.589L122.905 102.852Z" fill="#9B9BBC"/>
<path d="M92.9175 128.235L92.9517 142.596C92.9524 142.847 92.9758 143.079 93.0174 143.292C93.0186 143.298 93.02 143.305 93.0215 143.311C93.0643 143.52 93.1256 143.711 93.2043 143.881C93.2058 143.884 93.207 143.887 93.2085 143.89C93.2754 144.033 93.3615 144.153 93.4515 144.266C93.4812 144.303 93.5091 144.343 93.541 144.377C93.6477 144.49 93.7636 144.592 93.8944 144.668L84.7024 139.326C84.5716 139.25 84.456 139.149 84.349 139.035C84.3167 139.001 84.2892 138.961 84.2595 138.924C84.2208 138.876 84.177 138.834 84.1428 138.78C84.0986 138.711 84.0577 138.637 84.0205 138.559C84.019 138.555 84.0179 138.552 84.016 138.549C84.0149 138.546 84.0134 138.542 84.0123 138.539C83.9878 138.486 83.9644 138.432 83.9428 138.375C83.9224 138.32 83.9038 138.264 83.8864 138.205C83.8708 138.151 83.8563 138.096 83.8436 138.04C83.8381 138.017 83.8339 137.993 83.8291 137.969C83.8276 137.963 83.8266 137.957 83.8254 137.95C83.821 137.927 83.8157 137.905 83.8116 137.881C83.8027 137.831 83.7953 137.78 83.7886 137.727C83.782 137.676 83.7767 137.625 83.7723 137.572C83.7682 137.522 83.7652 137.471 83.763 137.42C83.7611 137.368 83.7596 137.316 83.7593 137.264C83.7593 137.261 83.7593 137.257 83.7593 137.254L83.7251 122.893L92.9175 128.235Z" fill="#9090AB"/>
<path d="M96.1383 122.657C94.352 123.689 92.912 126.183 92.918 128.235L92.9522 142.597C92.9581 144.644 94.4074 145.475 96.1937 144.444L134.285 122.452C136.067 121.423 137.511 118.921 137.506 116.874L137.472 102.512C137.466 100.46 136.012 99.6362 134.23 100.665L96.1383 122.657Z" fill="#9090AB"/>
<path d="M95.0449 140.074L95.0501 142.593V142.677C95.0817 142.661 95.113 142.645 95.1445 142.625L133.234 120.633C134.378 119.977 135.412 118.188 135.406 116.876L135.37 102.515V102.431C135.343 102.446 135.312 102.462 135.281 102.483L133.281 103.637L133.308 115.48C133.313 116.792 132.279 118.581 131.135 119.237L95.0449 140.074Z" fill="#ACACCD"/>
<path d="M95.0191 128.231L95.0454 140.074L131.136 119.238C132.28 118.582 133.313 116.793 133.308 115.481L133.282 103.638L97.1863 124.474C96.0473 125.136 95.0139 126.925 95.0191 128.231Z" fill="#75728C"/>
<path d="M83.7273 122.747C83.7288 122.695 83.7314 122.643 83.7348 122.591C83.7381 122.538 83.7422 122.486 83.7474 122.433C83.7526 122.38 83.7581 122.328 83.7652 122.274C83.7719 122.221 83.7797 122.166 83.7882 122.112C83.7968 122.058 83.8061 122.003 83.8165 121.949C83.8269 121.892 83.8384 121.836 83.8507 121.78C83.863 121.723 83.876 121.667 83.8901 121.61C83.9042 121.553 83.9191 121.496 83.935 121.439C83.9506 121.382 83.9674 121.325 83.9848 121.268C84.0019 121.213 84.0198 121.157 84.0384 121.101C84.0566 121.046 84.0759 120.991 84.0956 120.937C84.1149 120.884 84.1346 120.831 84.155 120.778C84.1755 120.726 84.1963 120.674 84.2182 120.622C84.2397 120.57 84.2617 120.519 84.2844 120.467C84.3074 120.415 84.3312 120.363 84.3553 120.311C84.3821 120.254 84.4096 120.198 84.4375 120.142C84.4698 120.077 84.5032 120.012 84.537 119.949C84.5879 119.853 84.6411 119.758 84.6961 119.665C84.7722 119.535 84.8522 119.408 84.9354 119.284C85.0012 119.185 85.0696 119.088 85.1398 118.992C85.1866 118.929 85.2346 118.866 85.2832 118.804C85.3237 118.753 85.3654 118.701 85.407 118.651C85.4482 118.602 85.4898 118.553 85.5318 118.505C85.5731 118.458 85.6151 118.412 85.6574 118.366C85.7009 118.319 85.7451 118.273 85.7897 118.227C85.8347 118.182 85.88 118.137 85.9261 118.092C85.9729 118.047 86.0205 118.003 86.068 117.96C86.1156 117.917 86.1636 117.875 86.2119 117.835C86.2595 117.795 86.3074 117.755 86.3557 117.717C86.4025 117.68 86.4501 117.644 86.4976 117.609C86.5441 117.575 86.5913 117.541 86.6385 117.509C86.6842 117.478 86.7299 117.447 86.7763 117.418C86.8217 117.389 86.8674 117.361 86.9135 117.334C86.9164 117.332 86.9332 117.322 86.9454 117.315L86.974 117.299C86.9974 117.285 87.0208 117.272 87.0257 117.269L125.037 95.323C125.071 95.3033 125.106 95.284 125.14 95.2654C125.184 95.2413 125.228 95.2186 125.272 95.197C125.301 95.1829 125.329 95.1699 125.357 95.1565C125.364 95.1536 125.371 95.1502 125.377 95.1473C125.385 95.1435 125.394 95.1391 125.402 95.1354C125.446 95.116 125.489 95.0978 125.531 95.0807C125.575 95.0633 125.619 95.0469 125.662 95.0317C125.67 95.0291 125.677 95.0269 125.685 95.0243C125.691 95.022 125.697 95.0202 125.704 95.0179C125.733 95.0083 125.763 94.9979 125.792 94.9893C125.836 94.9759 125.881 94.9637 125.925 94.9525C125.946 94.9473 125.967 94.9432 125.988 94.9384C125.998 94.9362 126.007 94.934 126.016 94.9321C126.03 94.9291 126.044 94.9254 126.057 94.9228C126.105 94.9135 126.152 94.9057 126.199 94.8994C126.228 94.8953 126.256 94.8935 126.285 94.8905C126.294 94.8897 126.304 94.8882 126.314 94.8875C126.323 94.8868 126.333 94.8853 126.343 94.8845C126.394 94.8808 126.444 94.8793 126.495 94.8797C126.517 94.8797 126.538 94.8819 126.56 94.8827C126.577 94.8834 126.593 94.8842 126.61 94.8853C126.627 94.8864 126.645 94.886 126.662 94.8879C126.726 94.8938 126.788 94.9027 126.849 94.915C126.849 94.915 126.851 94.9157 126.852 94.9157C126.865 94.9183 126.878 94.9235 126.891 94.9265C126.954 94.9406 127.015 94.9559 127.074 94.9771C127.079 94.9789 127.084 94.9819 127.088 94.9834C127.175 95.015 127.257 95.0525 127.336 95.0978L136.528 100.44C136.45 100.394 136.366 100.357 136.28 100.325C136.217 100.302 136.15 100.284 136.083 100.268C136.07 100.265 136.058 100.26 136.044 100.258C135.966 100.242 135.885 100.233 135.802 100.227C135.785 100.226 135.769 100.225 135.752 100.224C135.672 100.222 135.59 100.223 135.506 100.229C135.496 100.23 135.487 100.232 135.477 100.232C135.389 100.241 135.3 100.254 135.209 100.274C135.2 100.275 135.19 100.278 135.181 100.28C135.088 100.301 134.993 100.327 134.897 100.359C134.89 100.362 134.884 100.363 134.877 100.366C134.777 100.4 134.674 100.441 134.57 100.489C134.564 100.492 134.557 100.495 134.55 100.498C134.445 100.547 134.338 100.602 134.23 100.664L96.1382 122.657C96.1274 122.663 96.117 122.669 96.1062 122.675C96.0602 122.703 96.0144 122.73 95.9691 122.759C95.923 122.789 95.877 122.819 95.8312 122.85C95.7841 122.883 95.7372 122.916 95.6904 122.95C95.6428 122.986 95.5952 123.022 95.5481 123.059C95.4997 123.097 95.4518 123.136 95.4043 123.176C95.3559 123.217 95.308 123.259 95.2605 123.302C95.2125 123.345 95.1653 123.389 95.1185 123.434C95.0724 123.478 95.0271 123.523 94.9821 123.569C94.9375 123.614 94.8933 123.66 94.8498 123.707C94.8075 123.753 94.7655 123.799 94.7242 123.847C94.6822 123.895 94.6406 123.943 94.5997 123.993C94.5577 124.043 94.5165 124.094 94.4756 124.146C94.4269 124.208 94.379 124.27 94.3322 124.334C94.2619 124.429 94.194 124.526 94.1278 124.625C94.0446 124.75 93.9647 124.877 93.8885 125.006C93.8335 125.1 93.7804 125.194 93.7294 125.29C93.6953 125.354 93.6618 125.419 93.6295 125.483C93.6012 125.539 93.5741 125.596 93.5477 125.653C93.5232 125.704 93.4998 125.756 93.4764 125.809C93.4537 125.86 93.4318 125.911 93.4102 125.963C93.3887 126.015 93.3675 126.067 93.347 126.119C93.3266 126.172 93.3065 126.225 93.2876 126.278C93.2679 126.333 93.2486 126.387 93.2304 126.442C93.2118 126.498 93.1939 126.554 93.1768 126.609C93.1594 126.666 93.1427 126.723 93.1267 126.78C93.1111 126.837 93.0958 126.894 93.0817 126.951C93.0676 127.008 93.0546 127.064 93.0424 127.121C93.0297 127.177 93.0186 127.233 93.0078 127.289C92.9978 127.344 92.9881 127.398 92.9795 127.453C92.971 127.507 92.9632 127.561 92.9565 127.615C92.9498 127.668 92.9438 127.721 92.939 127.774C92.9338 127.827 92.9298 127.879 92.9264 127.931C92.9231 127.984 92.9208 128.036 92.919 128.088C92.9175 128.137 92.9171 128.186 92.9171 128.234L83.7251 122.892C83.7255 122.845 83.7258 122.796 83.7273 122.747Z" fill="#ACACCD"/>
<path d="M120.058 119.312C120.283 121.044 121.679 121.673 123.363 120.703C125.2 119.643 126.685 117.072 126.68 114.957C126.674 112.963 125.347 112.092 123.647 112.89C123.673 113.052 123.683 113.226 123.683 113.409C123.689 115.518 122.204 118.095 120.362 119.155C120.257 119.213 120.157 119.271 120.058 119.312Z" fill="#ACACCD"/>
<path d="M120.021 118.803C120.021 118.981 120.031 119.154 120.058 119.312C120.157 119.27 120.257 119.212 120.362 119.154C122.204 118.095 123.689 115.518 123.684 113.409C123.684 113.225 123.673 113.052 123.647 112.889C123.547 112.936 123.442 112.989 123.338 113.052C121.501 114.112 120.016 116.688 120.021 118.803Z" fill="#4A4568"/>
<path d="M104.278 128.377C104.503 130.109 105.899 130.738 107.584 129.768C109.42 128.708 110.905 126.137 110.9 124.022C110.895 122.028 109.567 121.157 107.867 121.955C107.893 122.117 107.904 122.291 107.904 122.474C107.909 124.583 106.424 127.16 104.583 128.22C104.477 128.277 104.378 128.335 104.278 128.377Z" fill="#ACACCD"/>
<path d="M104.241 127.868C104.241 128.046 104.252 128.219 104.278 128.377C104.378 128.335 104.477 128.277 104.582 128.22C106.424 127.16 107.909 124.583 107.904 122.474C107.904 122.29 107.893 122.117 107.867 121.954C107.767 122.002 107.662 122.054 107.557 122.117C105.721 123.177 104.236 125.753 104.241 127.868Z" fill="#4A4568"/>
<path d="M137.773 127.991C137.777 127.942 137.783 127.894 137.79 127.845C137.798 127.791 137.808 127.737 137.818 127.683C137.825 127.646 137.831 127.609 137.84 127.571C137.848 127.537 137.857 127.502 137.865 127.467C137.878 127.419 137.89 127.371 137.904 127.323C137.912 127.295 137.921 127.266 137.93 127.239C137.947 127.184 137.965 127.13 137.984 127.076C137.992 127.053 138 127.031 138.009 127.009C138.036 126.934 138.067 126.859 138.099 126.785C138.102 126.777 138.106 126.768 138.11 126.76C138.14 126.693 138.171 126.628 138.203 126.563C138.214 126.542 138.224 126.522 138.234 126.501C138.266 126.44 138.299 126.379 138.333 126.318C138.34 126.307 138.346 126.295 138.353 126.283C138.394 126.212 138.437 126.143 138.481 126.074C138.494 126.055 138.507 126.035 138.52 126.016C138.553 125.967 138.587 125.918 138.621 125.87C138.64 125.845 138.659 125.819 138.677 125.794C138.708 125.754 138.738 125.715 138.77 125.676C138.796 125.644 138.822 125.612 138.848 125.58C138.874 125.551 138.9 125.522 138.926 125.493C138.97 125.443 139.015 125.395 139.061 125.348C139.09 125.319 139.118 125.29 139.147 125.262C139.17 125.24 139.193 125.219 139.216 125.198C139.254 125.163 139.292 125.13 139.331 125.098C139.354 125.078 139.377 125.059 139.401 125.04C139.443 125.006 139.485 124.975 139.528 124.944C139.549 124.929 139.569 124.913 139.59 124.899C139.654 124.855 139.718 124.813 139.783 124.776C139.846 124.739 139.908 124.708 139.97 124.679C139.986 124.671 140.002 124.664 140.018 124.657C140.052 124.642 140.085 124.63 140.119 124.617C140.167 124.599 140.215 124.582 140.262 124.568C140.292 124.559 140.323 124.55 140.352 124.543C140.38 124.536 140.408 124.53 140.436 124.525C140.472 124.518 140.508 124.512 140.543 124.508C140.564 124.506 140.584 124.504 140.604 124.502C140.648 124.499 140.692 124.498 140.735 124.5C140.744 124.5 140.754 124.499 140.764 124.5C140.816 124.503 140.866 124.51 140.914 124.519C140.926 124.521 140.938 124.525 140.95 124.527C140.988 124.536 141.025 124.547 141.062 124.56C141.073 124.564 141.085 124.567 141.096 124.572C141.142 124.59 141.187 124.611 141.229 124.635L128.084 116.996C128.08 116.993 128.076 116.992 128.073 116.989C128.04 116.971 128.006 116.954 127.97 116.939C127.964 116.937 127.957 116.935 127.95 116.932C127.939 116.928 127.927 116.924 127.916 116.92C127.898 116.914 127.881 116.907 127.863 116.902C127.844 116.896 127.824 116.893 127.804 116.888C127.792 116.886 127.78 116.882 127.768 116.88C127.762 116.879 127.756 116.877 127.749 116.876C127.709 116.869 127.668 116.864 127.626 116.861C127.624 116.861 127.621 116.861 127.621 116.861C127.609 116.86 127.599 116.861 127.589 116.861C127.557 116.86 127.525 116.858 127.492 116.86C127.481 116.86 127.469 116.863 127.458 116.863C127.438 116.865 127.418 116.867 127.397 116.87C127.378 116.872 127.359 116.872 127.34 116.875C127.323 116.878 127.306 116.883 127.289 116.886C127.262 116.891 127.234 116.897 127.206 116.904C127.191 116.908 127.177 116.909 127.161 116.913C127.147 116.918 127.131 116.925 127.116 116.929C127.069 116.943 127.021 116.96 126.973 116.979C126.956 116.985 126.939 116.989 126.922 116.996C126.905 117.003 126.889 117.012 126.872 117.019C126.856 117.026 126.84 117.034 126.824 117.041C126.763 117.07 126.701 117.101 126.638 117.138C126.572 117.175 126.508 117.217 126.444 117.261C126.423 117.275 126.403 117.291 126.383 117.306C126.34 117.336 126.297 117.368 126.255 117.401C126.232 117.42 126.209 117.44 126.185 117.459C126.147 117.492 126.108 117.525 126.07 117.56C126.047 117.581 126.024 117.602 126.002 117.624C125.988 117.637 125.973 117.65 125.959 117.664C125.944 117.679 125.93 117.695 125.915 117.71C125.869 117.757 125.824 117.805 125.78 117.855C125.766 117.87 125.751 117.885 125.737 117.901C125.725 117.914 125.714 117.929 125.703 117.942C125.676 117.974 125.649 118.006 125.623 118.039C125.606 118.06 125.589 118.08 125.572 118.102C125.558 118.119 125.545 118.138 125.532 118.156C125.513 118.181 125.494 118.207 125.475 118.232C125.463 118.25 125.449 118.267 125.437 118.285C125.415 118.315 125.395 118.346 125.375 118.377C125.362 118.397 125.348 118.417 125.335 118.436C125.33 118.444 125.324 118.452 125.319 118.461C125.283 118.517 125.247 118.575 125.214 118.633C125.211 118.637 125.209 118.641 125.207 118.645C125.2 118.656 125.194 118.668 125.187 118.68C125.164 118.721 125.14 118.763 125.118 118.805C125.108 118.824 125.098 118.844 125.088 118.863C125.078 118.884 125.067 118.904 125.057 118.924C125.049 118.942 125.039 118.96 125.03 118.977C125.007 119.025 124.986 119.073 124.965 119.12C124.961 119.129 124.957 119.138 124.953 119.147C124.952 119.149 124.95 119.152 124.949 119.154C124.923 119.214 124.898 119.275 124.875 119.336C124.87 119.347 124.867 119.359 124.863 119.37C124.854 119.392 124.847 119.414 124.839 119.437C124.827 119.467 124.816 119.498 124.806 119.528C124.798 119.552 124.791 119.576 124.784 119.6C124.775 119.628 124.766 119.656 124.758 119.684C124.753 119.701 124.747 119.718 124.742 119.736C124.734 119.767 124.727 119.798 124.719 119.829C124.711 119.864 124.701 119.898 124.694 119.933C124.691 119.945 124.687 119.957 124.685 119.969C124.679 119.994 124.677 120.019 124.672 120.044C124.662 120.099 124.652 120.152 124.644 120.206C124.642 120.221 124.638 120.236 124.636 120.251C124.632 120.285 124.63 120.319 124.626 120.352C124.624 120.376 124.621 120.4 124.619 120.424C124.614 120.499 124.61 120.575 124.61 120.648C124.612 121.129 124.739 121.503 124.957 121.749C125.03 121.831 125.112 121.899 125.203 121.952L138.349 129.591C137.984 129.379 137.758 128.929 137.756 128.288C137.756 128.214 137.759 128.139 137.765 128.063C137.767 128.039 137.77 128.015 137.773 127.991Z" fill="#F9BB41"/>
<path d="M139.784 124.777C140.907 124.128 141.82 124.65 141.823 125.94C141.827 127.231 140.92 128.801 139.797 129.45C138.674 130.098 137.761 129.579 137.757 128.288C137.753 126.998 138.661 125.425 139.784 124.777Z" fill="#6F6F84"/>
<path d="M122.619 137.69C122.624 137.642 122.63 137.593 122.637 137.544C122.644 137.491 122.654 137.436 122.664 137.382C122.671 137.345 122.678 137.308 122.686 137.271C122.694 137.237 122.703 137.202 122.712 137.167C122.724 137.119 122.736 137.071 122.75 137.022C122.758 136.994 122.767 136.966 122.776 136.938C122.793 136.884 122.811 136.829 122.83 136.775C122.839 136.753 122.846 136.73 122.855 136.708C122.883 136.633 122.912 136.559 122.945 136.485C122.948 136.476 122.952 136.468 122.956 136.459C122.986 136.393 123.017 136.327 123.049 136.262C123.059 136.242 123.07 136.221 123.08 136.201C123.112 136.139 123.145 136.078 123.179 136.018C123.186 136.006 123.192 135.994 123.199 135.982C123.24 135.912 123.283 135.842 123.327 135.774C123.34 135.754 123.353 135.735 123.366 135.715C123.399 135.666 123.433 135.617 123.467 135.57C123.486 135.544 123.505 135.518 123.524 135.493C123.554 135.453 123.584 135.414 123.616 135.376C123.642 135.343 123.668 135.311 123.695 135.28C123.72 135.25 123.746 135.221 123.772 135.192C123.816 135.142 123.861 135.094 123.907 135.047C123.936 135.018 123.964 134.989 123.994 134.961C124.016 134.94 124.039 134.918 124.062 134.897C124.1 134.863 124.139 134.829 124.177 134.797C124.201 134.777 124.224 134.758 124.247 134.739C124.289 134.705 124.332 134.674 124.375 134.643C124.395 134.628 124.415 134.612 124.436 134.598C124.5 134.554 124.565 134.513 124.63 134.475C124.693 134.439 124.755 134.407 124.816 134.378C124.832 134.371 124.848 134.364 124.864 134.356C124.898 134.341 124.932 134.329 124.965 134.316C125.013 134.298 125.061 134.281 125.108 134.267C125.139 134.258 125.169 134.249 125.199 134.242C125.227 134.235 125.255 134.229 125.282 134.224C125.318 134.217 125.354 134.211 125.389 134.207C125.41 134.205 125.43 134.203 125.45 134.201C125.495 134.199 125.538 134.197 125.581 134.199C125.591 134.199 125.601 134.199 125.61 134.199C125.662 134.202 125.712 134.209 125.761 134.218C125.772 134.22 125.784 134.224 125.796 134.226C125.835 134.235 125.872 134.246 125.908 134.259C125.92 134.263 125.931 134.267 125.943 134.271C125.989 134.289 126.033 134.31 126.076 134.334L112.931 126.695C112.927 126.692 112.923 126.691 112.919 126.688C112.886 126.67 112.853 126.653 112.817 126.639C112.811 126.636 112.804 126.634 112.797 126.632C112.786 126.627 112.774 126.623 112.763 126.619C112.746 126.613 112.728 126.606 112.71 126.601C112.691 126.595 112.671 126.592 112.651 126.587C112.639 126.585 112.627 126.581 112.615 126.579C112.609 126.578 112.602 126.576 112.596 126.575C112.556 126.568 112.515 126.563 112.473 126.56H112.465C112.456 126.559 112.446 126.56 112.436 126.56C112.404 126.559 112.372 126.558 112.339 126.559C112.328 126.559 112.317 126.562 112.306 126.562C112.285 126.564 112.265 126.566 112.245 126.568C112.225 126.571 112.207 126.571 112.187 126.574C112.171 126.577 112.154 126.582 112.136 126.585C112.109 126.59 112.081 126.595 112.054 126.603C112.038 126.606 112.024 126.608 112.009 126.612C111.994 126.616 111.978 126.623 111.963 126.628C111.916 126.642 111.868 126.659 111.82 126.677C111.803 126.684 111.786 126.688 111.769 126.695C111.753 126.701 111.736 126.71 111.719 126.718C111.703 126.725 111.687 126.732 111.671 126.74C111.61 126.769 111.548 126.8 111.485 126.836C111.42 126.874 111.355 126.915 111.291 126.959C111.271 126.973 111.25 126.989 111.23 127.004C111.187 127.035 111.144 127.067 111.102 127.1C111.079 127.119 111.056 127.138 111.032 127.158C110.994 127.19 110.956 127.224 110.918 127.258C110.895 127.28 110.872 127.301 110.849 127.323C110.835 127.336 110.82 127.349 110.806 127.362C110.791 127.377 110.777 127.394 110.763 127.409C110.717 127.456 110.671 127.504 110.627 127.553C110.613 127.569 110.598 127.584 110.584 127.6C110.572 127.613 110.561 127.627 110.55 127.641C110.523 127.673 110.497 127.705 110.471 127.737C110.453 127.759 110.436 127.779 110.419 127.801C110.405 127.818 110.392 127.837 110.379 127.855C110.36 127.88 110.341 127.906 110.322 127.931C110.31 127.949 110.296 127.966 110.284 127.984C110.262 128.014 110.242 128.045 110.222 128.076C110.209 128.096 110.195 128.116 110.182 128.135C110.177 128.144 110.171 128.152 110.166 128.16C110.13 128.216 110.094 128.274 110.061 128.332C110.058 128.336 110.056 128.34 110.054 128.344C110.047 128.355 110.041 128.367 110.035 128.379C110.011 128.42 109.987 128.462 109.965 128.504C109.955 128.523 109.945 128.543 109.935 128.562C109.925 128.583 109.915 128.603 109.905 128.623C109.896 128.641 109.886 128.659 109.877 128.676C109.855 128.724 109.833 128.772 109.812 128.82C109.808 128.828 109.804 128.837 109.8 128.846C109.799 128.848 109.798 128.851 109.796 128.853C109.77 128.914 109.746 128.974 109.722 129.035C109.718 129.047 109.714 129.058 109.71 129.069C109.701 129.091 109.694 129.113 109.686 129.136C109.675 129.166 109.663 129.197 109.653 129.227C109.645 129.251 109.639 129.275 109.631 129.299C109.622 129.326 109.613 129.354 109.605 129.382C109.6 129.4 109.594 129.417 109.589 129.434C109.581 129.465 109.574 129.496 109.566 129.527C109.558 129.562 109.549 129.597 109.541 129.631C109.539 129.643 109.535 129.655 109.532 129.668C109.527 129.693 109.524 129.717 109.519 129.743C109.509 129.797 109.499 129.851 109.491 129.904C109.489 129.919 109.485 129.934 109.484 129.949C109.479 129.983 109.477 130.017 109.474 130.05C109.471 130.074 109.468 130.098 109.466 130.122C109.461 130.198 109.457 130.273 109.458 130.347C109.459 130.827 109.586 131.201 109.804 131.447C109.877 131.529 109.959 131.597 110.05 131.65L123.195 139.29C122.831 139.078 122.605 138.627 122.603 137.986C122.603 137.912 122.606 137.837 122.612 137.762C122.614 137.738 122.616 137.714 122.619 137.69Z" fill="#F9BB41"/>
<path d="M124.63 134.475C125.753 133.827 126.666 134.349 126.669 135.639C126.673 136.929 125.766 138.5 124.644 139.148C123.521 139.797 122.607 139.277 122.603 137.987C122.599 136.696 123.507 135.124 124.63 134.475Z" fill="#6F6F84"/>
<path d="M120.389 144.913L120.416 154.641C120.417 154.843 120.436 155.029 120.469 155.2C120.471 155.206 120.472 155.211 120.473 155.216C120.507 155.384 120.556 155.538 120.62 155.675C120.621 155.677 120.622 155.68 120.623 155.682C120.677 155.797 120.746 155.893 120.819 155.985C120.843 156.015 120.865 156.047 120.891 156.074C120.977 156.166 121.07 156.247 121.175 156.308L113.779 152.01C113.674 151.949 113.58 151.867 113.494 151.776C113.468 151.748 113.446 151.717 113.422 151.686C113.391 151.647 113.356 151.614 113.328 151.57C113.293 151.514 113.26 151.455 113.23 151.392C113.229 151.39 113.228 151.387 113.227 151.384C113.226 151.381 113.225 151.379 113.224 151.376C113.204 151.333 113.185 151.29 113.168 151.244C113.152 151.2 113.137 151.154 113.123 151.107C113.11 151.064 113.099 151.02 113.088 150.974C113.084 150.956 113.08 150.937 113.077 150.918C113.076 150.912 113.075 150.908 113.074 150.902C113.07 150.884 113.066 150.866 113.063 150.847C113.056 150.807 113.049 150.765 113.044 150.723C113.039 150.682 113.034 150.641 113.031 150.598C113.028 150.558 113.025 150.517 113.024 150.476C113.022 150.435 113.021 150.393 113.021 150.35C113.021 150.348 113.021 150.345 113.021 150.343L112.993 140.615L120.389 144.913Z" fill="#9090AB"/>
<path d="M122.98 140.424C121.543 141.254 120.384 143.261 120.389 144.912L120.417 154.64C120.421 156.288 121.588 156.956 123.025 156.126L153.676 138.43C155.11 137.602 156.272 135.59 156.267 133.942L156.239 124.214C156.235 122.563 155.065 121.9 153.631 122.728L122.98 140.424Z" fill="#75728C"/>
<path d="M112.994 140.497C112.995 140.455 112.997 140.413 113 140.371C113.002 140.329 113.006 140.286 113.01 140.244C113.014 140.201 113.018 140.159 113.024 140.116C113.03 140.073 113.035 140.029 113.042 139.985C113.05 139.941 113.057 139.897 113.065 139.854C113.074 139.808 113.083 139.763 113.093 139.718C113.102 139.673 113.113 139.627 113.125 139.582C113.136 139.536 113.148 139.49 113.161 139.444C113.174 139.398 113.187 139.352 113.201 139.306C113.215 139.261 113.229 139.217 113.244 139.172C113.259 139.128 113.274 139.083 113.29 139.039C113.306 138.997 113.322 138.954 113.338 138.912C113.355 138.87 113.372 138.828 113.389 138.786C113.407 138.744 113.424 138.703 113.442 138.662C113.461 138.62 113.48 138.578 113.5 138.536C113.521 138.491 113.543 138.445 113.566 138.4C113.592 138.348 113.618 138.296 113.646 138.245C113.687 138.168 113.73 138.092 113.774 138.016C113.835 137.912 113.9 137.81 113.967 137.71C114.02 137.63 114.075 137.552 114.132 137.475C114.169 137.424 114.208 137.374 114.247 137.324C114.28 137.283 114.313 137.241 114.346 137.201C114.38 137.161 114.413 137.122 114.447 137.083C114.48 137.045 114.514 137.008 114.548 136.971C114.583 136.933 114.618 136.896 114.654 136.86C114.69 136.823 114.727 136.787 114.764 136.751C114.802 136.715 114.84 136.679 114.878 136.645C114.916 136.61 114.955 136.577 114.994 136.544C115.032 136.511 115.071 136.48 115.11 136.449C115.148 136.419 115.186 136.39 115.224 136.362C115.261 136.334 115.299 136.307 115.337 136.281C115.374 136.256 115.411 136.232 115.448 136.208C115.484 136.184 115.521 136.162 115.558 136.14C115.56 136.139 115.574 136.131 115.584 136.125L115.607 136.112C115.626 136.101 115.644 136.09 115.649 136.088L146.235 118.429C146.262 118.413 146.29 118.398 146.317 118.383C146.353 118.363 146.388 118.345 146.423 118.328C146.446 118.316 146.469 118.306 146.493 118.295C146.498 118.293 146.503 118.29 146.508 118.288C146.515 118.285 146.522 118.281 146.529 118.278C146.564 118.262 146.598 118.248 146.633 118.234C146.668 118.22 146.703 118.207 146.738 118.194C146.744 118.192 146.75 118.191 146.756 118.188C146.761 118.186 146.766 118.185 146.772 118.183C146.795 118.175 146.819 118.167 146.842 118.16C146.878 118.149 146.914 118.139 146.95 118.13C146.967 118.126 146.984 118.123 147.001 118.119C147.008 118.117 147.016 118.115 147.024 118.114C147.034 118.112 147.045 118.109 147.057 118.107C147.095 118.099 147.133 118.093 147.17 118.088C147.194 118.085 147.216 118.083 147.239 118.081C147.247 118.08 147.255 118.079 147.263 118.078C147.271 118.078 147.278 118.076 147.286 118.076C147.328 118.073 147.368 118.072 147.409 118.072C147.426 118.072 147.443 118.074 147.461 118.074C147.474 118.075 147.488 118.075 147.501 118.076C147.515 118.077 147.529 118.077 147.543 118.078C147.594 118.083 147.644 118.09 147.693 118.1C147.694 118.1 147.695 118.101 147.695 118.101C147.707 118.103 147.717 118.107 147.728 118.11C147.778 118.121 147.828 118.133 147.875 118.15C147.879 118.152 147.883 118.154 147.887 118.155C147.956 118.181 148.023 118.211 148.086 118.247L155.482 122.546C155.419 122.509 155.352 122.479 155.283 122.454C155.232 122.435 155.179 122.42 155.125 122.408C155.114 122.405 155.104 122.402 155.093 122.399C155.03 122.387 154.965 122.379 154.899 122.375C154.885 122.374 154.872 122.373 154.858 122.373C154.793 122.37 154.728 122.371 154.66 122.377C154.653 122.377 154.645 122.379 154.637 122.379C154.566 122.386 154.495 122.397 154.421 122.412C154.414 122.414 154.406 122.416 154.398 122.418C154.323 122.434 154.247 122.455 154.169 122.481C154.164 122.483 154.159 122.485 154.154 122.487C154.073 122.515 153.99 122.548 153.907 122.586C153.902 122.588 153.896 122.591 153.89 122.593C153.806 122.633 153.72 122.677 153.633 122.727L122.982 140.423C122.974 140.428 122.965 140.433 122.957 140.438C122.919 140.46 122.883 140.482 122.846 140.506C122.809 140.529 122.772 140.554 122.735 140.579C122.698 140.605 122.66 140.632 122.622 140.66C122.584 140.688 122.546 140.717 122.508 140.747C122.469 140.778 122.43 140.809 122.392 140.841C122.353 140.874 122.314 140.908 122.276 140.942C122.237 140.977 122.2 141.013 122.162 141.049C122.125 141.084 122.088 141.12 122.052 141.157C122.016 141.194 121.981 141.231 121.946 141.269C121.912 141.306 121.878 141.343 121.845 141.381C121.811 141.42 121.777 141.459 121.744 141.498C121.711 141.539 121.677 141.58 121.644 141.622C121.605 141.672 121.567 141.722 121.529 141.773C121.473 141.85 121.417 141.928 121.364 142.007C121.297 142.108 121.233 142.21 121.172 142.314C121.128 142.389 121.085 142.466 121.044 142.543C121.016 142.594 120.99 142.646 120.963 142.698C120.941 142.743 120.919 142.789 120.897 142.834C120.878 142.876 120.859 142.918 120.84 142.96C120.822 143.001 120.804 143.042 120.787 143.084C120.77 143.126 120.753 143.168 120.736 143.21C120.72 143.253 120.704 143.295 120.688 143.337C120.672 143.382 120.657 143.426 120.642 143.47C120.627 143.515 120.613 143.559 120.599 143.604C120.585 143.65 120.572 143.696 120.559 143.741C120.546 143.787 120.534 143.833 120.523 143.879C120.512 143.925 120.501 143.97 120.491 144.016C120.481 144.061 120.472 144.106 120.463 144.151C120.455 144.195 120.448 144.239 120.441 144.283C120.434 144.327 120.428 144.37 120.422 144.414C120.417 144.456 120.412 144.499 120.408 144.541C120.404 144.584 120.401 144.626 120.398 144.668C120.395 144.71 120.393 144.753 120.392 144.794C120.391 144.834 120.39 144.873 120.39 144.912L112.994 140.613C112.992 140.575 112.993 140.536 112.994 140.497Z" fill="#ACACCD"/>
<path d="M136.495 150.218C136.832 150.414 137.185 150.595 137.545 150.769C137.639 150.815 137.735 150.859 137.831 150.904C138.156 151.054 138.488 151.196 138.828 151.329C138.873 151.347 138.916 151.366 138.961 151.383C139.325 151.522 139.699 151.647 140.078 151.766C140.341 151.849 140.61 151.922 140.879 151.995C141.083 152.05 141.285 152.11 141.491 152.16C141.774 152.228 142.063 152.285 142.351 152.343C142.561 152.386 142.769 152.434 142.981 152.471C143.069 152.486 143.158 152.499 143.246 152.513C143.603 152.572 143.962 152.623 144.324 152.666C144.428 152.678 144.533 152.692 144.638 152.703C144.845 152.726 145.055 152.738 145.263 152.756C145.613 152.785 145.963 152.81 146.316 152.826C146.541 152.836 146.765 152.84 146.991 152.844C147.275 152.85 147.56 152.852 147.844 152.849C148.083 152.845 148.321 152.838 148.558 152.829C148.821 152.818 149.084 152.805 149.346 152.786C149.587 152.77 149.828 152.749 150.067 152.726C150.327 152.701 150.586 152.672 150.844 152.639C151.077 152.61 151.31 152.577 151.542 152.541C151.818 152.498 152.093 152.449 152.366 152.397C152.582 152.356 152.798 152.313 153.012 152.267C153.339 152.195 153.66 152.114 153.979 152.03C154.186 151.975 154.396 151.924 154.599 151.863C154.71 151.83 154.819 151.795 154.928 151.761C155.249 151.66 155.565 151.552 155.875 151.437C155.964 151.404 156.056 151.373 156.144 151.339C156.427 151.229 156.7 151.108 156.973 150.986C157.106 150.927 157.244 150.874 157.374 150.812C157.767 150.625 158.149 150.428 158.516 150.215L166.346 145.695C169.414 143.923 170.948 141.597 170.941 139.273L171.001 150.215C171.008 152.539 169.475 154.866 166.406 156.637L158.577 161.157C158.21 161.369 157.827 161.567 157.434 161.753C157.303 161.816 157.164 161.87 157.031 161.929C156.798 162.033 156.57 162.14 156.33 162.235C156.289 162.251 156.246 162.264 156.205 162.28C156.116 162.315 156.025 162.346 155.934 162.379C155.624 162.494 155.309 162.602 154.988 162.702C154.879 162.737 154.77 162.772 154.659 162.805C154.585 162.827 154.513 162.852 154.439 162.873C154.308 162.91 154.171 162.936 154.04 162.971C153.72 163.056 153.399 163.136 153.072 163.208C152.985 163.227 152.901 163.253 152.814 163.271C152.686 163.298 152.555 163.314 152.427 163.339C152.153 163.391 151.878 163.439 151.601 163.482C151.49 163.5 151.381 163.524 151.269 163.54C151.148 163.557 151.025 163.565 150.905 163.58C150.646 163.614 150.387 163.642 150.126 163.667C150.002 163.679 149.879 163.699 149.754 163.709C149.639 163.719 149.523 163.72 149.407 163.728C149.144 163.746 148.881 163.76 148.617 163.77C148.484 163.775 148.352 163.788 148.22 163.791C148.115 163.794 148.009 163.788 147.904 163.79C147.619 163.793 147.335 163.791 147.05 163.786C146.908 163.783 146.766 163.789 146.624 163.784C146.541 163.781 146.459 163.771 146.376 163.767C146.022 163.752 145.671 163.726 145.32 163.697C145.18 163.685 145.037 163.683 144.897 163.669C144.83 163.662 144.764 163.652 144.697 163.645C144.592 163.634 144.487 163.62 144.382 163.607C144.021 163.564 143.662 163.513 143.306 163.455C143.217 163.44 143.128 163.428 143.04 163.413C142.997 163.405 142.954 163.4 142.911 163.392C142.742 163.362 142.578 163.319 142.41 163.285C142.122 163.227 141.834 163.17 141.551 163.101C141.343 163.051 141.142 162.992 140.937 162.936C140.668 162.863 140.399 162.79 140.137 162.708C140.08 162.69 140.02 162.677 139.964 162.658C139.644 162.554 139.329 162.443 139.02 162.324C138.975 162.307 138.931 162.288 138.887 162.27C138.547 162.138 138.215 161.994 137.89 161.845C137.794 161.8 137.699 161.756 137.604 161.71C137.244 161.536 136.891 161.355 136.553 161.159L123.251 153.382L123.19 142.44L136.495 150.218Z" fill="#9090AB"/>
<path d="M123.192 142.44L136.495 150.217C142.556 153.74 152.416 153.738 158.517 150.216L166.346 145.695C172.444 142.175 172.479 136.463 166.418 132.941L153.115 125.164L123.192 142.44Z" fill="#ACACCD"/>
<path d="M158.885 156.839L158.898 161.318C158.898 161.411 158.907 161.496 158.922 161.575C158.923 161.578 158.923 161.58 158.924 161.583C158.939 161.66 158.962 161.73 158.991 161.794C158.992 161.795 158.992 161.796 158.993 161.797C159.017 161.85 159.049 161.894 159.083 161.936C159.094 161.95 159.104 161.965 159.116 161.978C159.156 162.02 159.199 162.057 159.247 162.085L155.842 160.107C155.794 160.078 155.751 160.041 155.711 159.999C155.699 159.986 155.689 159.972 155.678 159.958C155.664 159.939 155.648 159.924 155.635 159.904C155.619 159.878 155.603 159.851 155.59 159.822C155.589 159.821 155.589 159.819 155.588 159.818C155.588 159.817 155.588 159.816 155.587 159.814C155.578 159.795 155.569 159.775 155.561 159.754C155.554 159.733 155.547 159.712 155.54 159.69C155.534 159.671 155.529 159.65 155.524 159.629C155.522 159.621 155.521 159.612 155.519 159.603C155.519 159.601 155.518 159.599 155.518 159.596C155.516 159.587 155.514 159.579 155.512 159.571C155.509 159.552 155.506 159.533 155.504 159.513C155.501 159.495 155.499 159.476 155.498 159.456C155.496 159.437 155.495 159.419 155.495 159.399C155.494 159.38 155.493 159.361 155.493 159.342C155.493 159.341 155.493 159.34 155.493 159.338L155.48 154.86L158.885 156.839Z" fill="#9090AB"/>
<path d="M160.078 154.773C159.416 155.155 158.883 156.078 158.885 156.839L158.897 161.317C158.9 162.075 159.436 162.383 160.098 162.001L171.201 155.42C171.861 155.039 172.396 154.112 172.394 153.354L172.381 148.876C172.379 148.115 171.841 147.81 171.181 148.192L160.078 154.773Z" fill="#75728C"/>
<path d="M155.481 154.807C155.481 154.788 155.482 154.768 155.483 154.749C155.484 154.73 155.486 154.71 155.488 154.691C155.49 154.671 155.492 154.652 155.494 154.632C155.497 154.612 155.5 154.592 155.503 154.572C155.506 154.552 155.51 154.531 155.513 154.511C155.517 154.49 155.521 154.47 155.526 154.449C155.53 154.428 155.535 154.407 155.54 154.386C155.546 154.365 155.551 154.344 155.557 154.322C155.563 154.301 155.569 154.28 155.576 154.259C155.582 154.238 155.589 154.218 155.595 154.197C155.602 154.177 155.609 154.157 155.617 154.136C155.624 154.116 155.631 154.097 155.639 154.077C155.646 154.058 155.654 154.039 155.662 154.02C155.67 154.001 155.678 153.981 155.686 153.962C155.695 153.943 155.704 153.924 155.713 153.904C155.723 153.883 155.733 153.862 155.743 153.842C155.755 153.817 155.768 153.794 155.78 153.77C155.799 153.734 155.819 153.699 155.839 153.665C155.867 153.617 155.897 153.569 155.928 153.523C155.953 153.487 155.978 153.451 156.004 153.416C156.021 153.392 156.039 153.369 156.057 153.346C156.072 153.326 156.087 153.308 156.103 153.289C156.118 153.271 156.134 153.252 156.149 153.235C156.165 153.218 156.18 153.2 156.196 153.183C156.212 153.166 156.228 153.149 156.245 153.132C156.262 153.115 156.278 153.099 156.296 153.082C156.313 153.066 156.33 153.049 156.348 153.033C156.366 153.017 156.384 153.002 156.401 152.987C156.419 152.972 156.437 152.957 156.455 152.943C156.472 152.93 156.489 152.916 156.507 152.903C156.524 152.891 156.542 152.878 156.559 152.866C156.576 152.855 156.593 152.843 156.61 152.832C156.627 152.821 156.644 152.811 156.661 152.801C156.662 152.8 156.669 152.797 156.673 152.794L156.684 152.788C156.692 152.784 156.701 152.778 156.703 152.777L167.776 146.213C167.789 146.206 167.801 146.199 167.814 146.192C167.83 146.183 167.847 146.175 167.863 146.167C167.874 146.162 167.884 146.157 167.895 146.152C167.897 146.151 167.9 146.15 167.902 146.149C167.905 146.147 167.909 146.146 167.912 146.144C167.928 146.137 167.943 146.13 167.959 146.124C167.976 146.117 167.992 146.111 168.008 146.105C168.011 146.104 168.013 146.104 168.016 146.103C168.018 146.102 168.021 146.101 168.023 146.101C168.034 146.097 168.045 146.093 168.055 146.09C168.072 146.085 168.088 146.08 168.105 146.076C168.113 146.074 168.12 146.073 168.128 146.071C168.132 146.07 168.135 146.069 168.139 146.069C168.143 146.068 168.149 146.066 168.154 146.065C168.172 146.062 168.189 146.059 168.206 146.057C168.217 146.055 168.227 146.055 168.238 146.053C168.242 146.053 168.245 146.053 168.245 146.053C168.252 146.052 168.256 146.052 168.256 146.052C168.279 146.05 168.297 146.049 168.316 146.049C168.324 146.049 168.332 146.05 168.34 146.05C168.346 146.05 168.352 146.051 168.359 146.051C168.365 146.052 168.372 146.052 168.378 146.052C168.401 146.055 168.424 146.058 168.447 146.062L168.448 146.063C168.453 146.064 168.458 146.066 168.463 146.067C168.486 146.072 168.509 146.078 168.531 146.085C168.532 146.086 168.534 146.087 168.536 146.088C168.568 146.099 168.598 146.114 168.628 146.13L172.033 148.109C172.004 148.092 171.973 148.078 171.941 148.067C171.917 148.058 171.893 148.051 171.868 148.046C171.863 148.044 171.858 148.043 171.853 148.041C171.824 148.036 171.794 148.032 171.764 148.03C171.757 148.03 171.751 148.03 171.751 148.03C171.715 148.028 171.685 148.028 171.654 148.031C171.654 148.031 171.647 148.032 171.643 148.032C171.611 148.035 171.578 148.04 171.544 148.047C171.541 148.048 171.537 148.049 171.534 148.05C171.499 148.057 171.464 148.067 171.428 148.079C171.426 148.08 171.424 148.081 171.421 148.081C171.384 148.094 171.346 148.109 171.307 148.127C171.305 148.128 171.302 148.129 171.3 148.13C171.261 148.149 171.221 148.169 171.181 148.192L160.078 154.773C160.074 154.775 160.07 154.778 160.066 154.78C160.049 154.79 160.032 154.801 160.015 154.811C159.998 154.822 159.981 154.834 159.964 154.845C159.947 154.857 159.929 154.87 159.912 154.882C159.895 154.895 159.877 154.909 159.86 154.922C159.842 154.937 159.824 154.951 159.806 154.966C159.788 154.981 159.77 154.996 159.753 155.012C159.735 155.028 159.718 155.045 159.7 155.061C159.683 155.078 159.666 155.095 159.65 155.111C159.633 155.128 159.617 155.145 159.601 155.163C159.585 155.18 159.569 155.197 159.554 155.214C159.539 155.232 159.523 155.25 159.508 155.268C159.492 155.287 159.477 155.306 159.462 155.325C159.444 155.348 159.426 155.371 159.409 155.395C159.383 155.43 159.358 155.466 159.333 155.503C159.302 155.549 159.273 155.596 159.245 155.644C159.224 155.678 159.204 155.714 159.185 155.749C159.173 155.773 159.161 155.797 159.148 155.821C159.138 155.841 159.128 155.862 159.118 155.883C159.109 155.902 159.1 155.922 159.091 155.941C159.083 155.96 159.075 155.979 159.067 155.998C159.059 156.018 159.051 156.037 159.044 156.056C159.036 156.076 159.029 156.095 159.022 156.115C159.014 156.135 159.007 156.155 159 156.176C158.993 156.196 158.987 156.217 158.981 156.238C158.974 156.259 158.968 156.28 158.962 156.301C158.956 156.322 158.951 156.343 158.945 156.364C158.94 156.385 158.935 156.406 158.931 156.427C158.926 156.448 158.922 156.469 158.918 156.49C158.914 156.51 158.91 156.53 158.907 156.55C158.904 156.57 158.902 156.59 158.899 156.61C158.896 156.63 158.895 156.65 158.893 156.669C158.891 156.688 158.889 156.708 158.888 156.727C158.887 156.747 158.886 156.766 158.885 156.785C158.885 156.804 158.885 156.821 158.885 156.84L155.479 154.861C155.48 154.843 155.48 154.825 155.481 154.807Z" fill="#ACACCD"/>
<path d="M170.396 160.923C170.404 160.841 170.414 160.758 170.426 160.675C170.439 160.584 170.456 160.491 170.473 160.399C170.485 160.336 170.496 160.273 170.511 160.21C170.524 160.151 170.539 160.092 170.554 160.033C170.575 159.951 170.596 159.868 170.62 159.786C170.634 159.738 170.648 159.691 170.663 159.643C170.692 159.551 170.723 159.459 170.756 159.366C170.77 159.328 170.783 159.29 170.797 159.252C170.845 159.125 170.896 158.998 170.95 158.872C170.957 158.858 170.964 158.843 170.97 158.828C171.02 158.716 171.073 158.604 171.128 158.493C171.146 158.459 171.163 158.424 171.181 158.389C171.235 158.284 171.291 158.181 171.349 158.078C171.361 158.058 171.372 158.038 171.383 158.017C171.453 157.897 171.526 157.779 171.601 157.663C171.623 157.629 171.645 157.596 171.668 157.563C171.724 157.479 171.781 157.397 171.839 157.316C171.871 157.272 171.903 157.229 171.936 157.185C171.987 157.117 172.039 157.051 172.092 156.985C172.136 156.93 172.181 156.875 172.226 156.822C172.269 156.771 172.314 156.722 172.358 156.673C172.434 156.588 172.511 156.506 172.589 156.426C172.638 156.377 172.686 156.327 172.736 156.28C172.774 156.243 172.814 156.206 172.853 156.171C172.917 156.112 172.983 156.055 173.048 156C173.088 155.967 173.127 155.933 173.167 155.902C173.239 155.845 173.311 155.791 173.384 155.738C173.419 155.713 173.454 155.686 173.489 155.662C173.598 155.588 173.708 155.517 173.819 155.453C173.926 155.391 174.032 155.337 174.136 155.288C174.163 155.275 174.191 155.263 174.218 155.25C174.276 155.225 174.332 155.204 174.389 155.182C174.471 155.15 174.553 155.122 174.633 155.098C174.685 155.083 174.736 155.067 174.787 155.055C174.835 155.044 174.882 155.033 174.929 155.025C174.99 155.013 175.052 155.003 175.112 154.996C175.147 154.993 175.181 154.988 175.216 154.986C175.291 154.981 175.366 154.979 175.438 154.981C175.455 154.982 175.472 154.981 175.488 154.982C175.576 154.987 175.661 154.998 175.744 155.014C175.764 155.018 175.784 155.023 175.805 155.028C175.87 155.043 175.933 155.061 175.995 155.083C176.014 155.09 176.034 155.096 176.053 155.104C176.132 155.135 176.208 155.17 176.28 155.212L169.059 151.089C169.053 151.085 169.047 151.081 169.04 151.078C168.984 151.047 168.926 151.018 168.867 150.993C168.855 150.989 168.844 150.986 168.832 150.981C168.813 150.974 168.793 150.968 168.774 150.961C168.744 150.95 168.715 150.938 168.684 150.929C168.651 150.919 168.617 150.913 168.584 150.906C168.563 150.901 168.544 150.896 168.523 150.892C168.512 150.889 168.501 150.886 168.49 150.884C168.422 150.872 168.352 150.864 168.281 150.859C168.281 150.859 168.272 150.859 168.267 150.859C168.251 150.858 168.233 150.859 168.217 150.859C168.162 150.857 168.108 150.855 168.052 150.858C168.033 150.858 168.013 150.862 167.994 150.863C167.96 150.866 167.926 150.87 167.891 150.874C167.858 150.877 167.826 150.879 167.794 150.883C167.766 150.888 167.736 150.896 167.707 150.902C167.66 150.911 167.614 150.921 167.566 150.932C167.54 150.938 167.515 150.941 167.489 150.948C167.464 150.955 167.437 150.967 167.412 150.975C167.332 150.999 167.251 151.028 167.168 151.059C167.139 151.07 167.111 151.077 167.082 151.089C167.054 151.101 167.025 151.115 166.997 151.128C166.97 151.14 166.943 151.152 166.915 151.165C166.811 151.214 166.705 151.268 166.598 151.33C166.487 151.394 166.377 151.465 166.268 151.539C166.233 151.563 166.198 151.59 166.163 151.615C166.09 151.668 166.018 151.722 165.947 151.779C165.906 151.811 165.867 151.844 165.828 151.877C165.762 151.933 165.697 151.989 165.633 152.048C165.593 152.084 165.554 152.12 165.516 152.157C165.491 152.18 165.466 152.202 165.443 152.225C165.417 152.25 165.394 152.279 165.369 152.304C165.29 152.384 165.213 152.466 165.138 152.55C165.114 152.577 165.088 152.601 165.064 152.628C165.044 152.651 165.026 152.676 165.006 152.699C164.96 152.753 164.916 152.808 164.871 152.863C164.842 152.899 164.812 152.934 164.783 152.97C164.76 153 164.738 153.032 164.715 153.063C164.683 153.106 164.65 153.149 164.619 153.193C164.597 153.223 164.574 153.252 164.553 153.283C164.517 153.334 164.482 153.387 164.448 153.44C164.425 153.473 164.402 153.507 164.38 153.54C164.371 153.554 164.361 153.568 164.352 153.582C164.291 153.678 164.231 153.776 164.174 153.875C164.17 153.882 164.166 153.889 164.162 153.895C164.151 153.915 164.14 153.935 164.129 153.955C164.089 154.025 164.049 154.096 164.011 154.167C163.994 154.2 163.978 154.234 163.961 154.267C163.943 154.301 163.925 154.336 163.908 154.371C163.893 154.401 163.877 154.431 163.862 154.461C163.824 154.542 163.787 154.623 163.751 154.705C163.744 154.72 163.737 154.735 163.73 154.75C163.728 154.754 163.727 154.758 163.725 154.761C163.68 154.864 163.638 154.968 163.598 155.072C163.59 155.091 163.584 155.11 163.577 155.129C163.563 155.167 163.55 155.205 163.536 155.243C163.518 155.295 163.498 155.347 163.481 155.399C163.467 155.439 163.456 155.48 163.443 155.52C163.428 155.568 163.414 155.615 163.4 155.663C163.391 155.693 163.381 155.722 163.373 155.752C163.358 155.805 163.347 155.857 163.334 155.91C163.319 155.97 163.304 156.028 163.291 156.087C163.287 156.108 163.28 156.129 163.276 156.149C163.267 156.192 163.262 156.234 163.254 156.277C163.236 156.369 163.22 156.461 163.206 156.552C163.203 156.578 163.197 156.603 163.193 156.629C163.186 156.687 163.182 156.744 163.177 156.801C163.172 156.842 163.168 156.883 163.165 156.923C163.155 157.052 163.149 157.18 163.149 157.306C163.152 158.124 163.369 158.76 163.74 159.179C163.863 159.319 164.003 159.434 164.159 159.525L171.379 163.648C170.758 163.287 170.373 162.52 170.371 161.43C170.37 161.304 170.376 161.176 170.386 161.047C170.387 161.006 170.392 160.964 170.396 160.923Z" fill="#F9BB41"/>
<path d="M173.819 155.451C175.73 154.348 177.284 155.236 177.29 157.432C177.296 159.628 175.753 162.301 173.841 163.405C171.93 164.508 170.374 163.624 170.368 161.428C170.362 159.232 171.908 156.555 173.819 155.451Z" fill="#EAA211"/>
<path d="M152.931 198.098C162.768 197.084 171.682 194.281 178.731 188.476C188.091 180.768 191.691 173.518 189.43 166.928C185.638 155.882 166.626 151.15 165.819 150.953C163.569 150.405 160.819 151.163 159.679 152.646C158.54 154.126 159.437 155.768 161.682 156.317C161.854 156.359 177.633 160.335 180.494 168.759C182.141 173.61 179.18 179.195 171.691 185.361C157.853 196.757 132.152 192.752 107.295 188.878C85.7838 185.526 65.469 182.361 53.809 190.189C51.9935 191.408 51.9401 193.21 53.691 194.214C55.4404 195.216 58.3328 195.042 60.1511 193.821C67.6915 188.757 85.4022 191.517 104.148 194.439C120.272 196.952 137.705 199.669 152.931 198.098Z" fill="#ACACCD"/>
<path d="M66.8123 194.395C60.4521 193.789 39.4659 192.056 32.7785 188.088C26.0912 184.12 29.8681 177.084 35.3159 176.638C40.7638 176.192 59.9205 183.114 65.8524 185.566C72.2258 188.201 72.33 194.921 66.8123 194.395Z" fill="#D31F5E"/>
<path d="M64.931 191.233C65.2807 192.583 66.6749 195.666 69.8177 193.925C74.8715 191.126 81.9653 171.257 81.3008 168.304C80.6364 165.351 78.8621 165.533 75.5165 169.911C72.1709 174.29 63.3503 185.135 64.931 191.233Z" fill="#D31F5E"/>
<path d="M77.2816 167.698C77.1153 168.874 79.8905 170.636 81.4502 169.457C83.0099 168.278 87.0154 161.805 86.5048 160.424C85.9942 159.043 82.2592 159.241 79.3596 163.932C79.3596 163.932 80.1532 160.762 78.6284 161.186C77.8924 161.391 77.8108 163.951 77.2816 167.698Z" fill="#F29B79"/>
<path d="M26.1985 279.067C26.1503 280.397 26.1596 281.599 26.235 282.68C26.5536 287.239 28.0442 289.643 31.2981 290.457C36.9231 291.864 40.4459 288.405 42.1191 283.845C42.1308 283.813 42.1432 283.78 42.1549 283.746C42.3795 283.105 42.6468 282.121 42.9413 280.86C43.026 280.497 43.1146 280.11 43.2048 279.702C43.6307 277.765 44.1016 275.349 44.5889 272.626C45.0692 269.945 45.5634 266.968 46.0422 263.86C46.2753 262.347 46.5046 260.804 46.7277 259.25C47.682 252.574 48.5057 245.691 48.9231 240.124C50.0367 225.25 46.7245 206.972 46.7245 206.972L34.6196 206.155C34.6196 206.155 23.2554 216.946 21.7703 230.276C20.1562 244.767 28.146 261.857 27.1777 269.061C26.65 272.996 26.2987 276.308 26.1985 279.067Z" fill="#2B4047"/>
<path d="M26.0241 330.357C26.0264 330.468 26.0319 330.578 26.0397 330.687C26.4034 336.015 32.3113 338.285 33.4754 332.636C33.5803 332.125 33.6844 331.607 33.7886 331.077C34.3202 328.383 34.8727 325.349 35.7431 321.102C37.9502 310.343 40.7798 296.366 42.2564 287.757C42.7429 284.917 43.0825 282.662 43.2045 281.299C43.2045 281.299 43.2651 280.663 43.2053 279.701C43.1081 278.131 42.6939 275.692 41.18 273.71C40.0897 272.282 38.4312 271.092 35.9109 270.635C28.8319 269.35 26.9411 276.583 26.2355 282.679C26.1267 283.616 26.0467 284.527 25.9791 285.375C25.4762 291.743 25.9091 325.644 26.0241 330.357Z" fill="#2B4047"/>
<path d="M33.7349 331.063C33.7349 331.063 44.9095 334.34 45.619 337.425C46.3293 340.511 25.5693 339.702 24.6259 338.099C23.6824 336.495 26.0309 330.67 26.0309 330.67C26.0309 330.67 28.3446 335.44 33.7349 331.063Z" fill="black"/>
<g opacity="0.35">
<path d="M35.1719 254.478C37.2398 261.076 40.2241 266.985 41.1807 273.71C41.6711 277.162 42.0014 280.538 42.156 283.745C42.2221 285.116 42.2563 286.456 42.2571 287.757C42.7436 284.917 43.0832 282.662 43.2052 281.299C43.2052 281.299 43.2658 280.663 43.2059 279.701C43.6318 277.764 44.1028 275.348 44.59 272.626C45.0703 269.944 45.5646 266.967 46.0433 263.859C46.2765 262.346 46.5058 260.804 46.7288 259.249C45.9983 254.373 45.3796 250.446 45.2623 250.299C44.9467 249.905 34.62 235.558 34.62 235.558C34.62 235.558 31.4664 242.652 35.1719 254.478Z" fill="black"/>
</g>
<path d="M54.7996 206.315C54.7996 206.315 60.8692 223.106 61.5787 238.005C62.2883 252.903 61.2632 277.498 60.1596 282.228C59.0561 286.958 55.9817 290.82 50.2269 290.111C44.4721 289.401 43.3686 283.331 43.5263 269.378C43.6087 262.11 33.9169 246.04 33.7513 231.461C33.599 218.049 42.9745 205.762 42.9745 205.762L54.7996 206.315Z" fill="#2B4047"/>
<path d="M60.476 280.966C60.476 280.966 60.3968 271.743 52.1202 271.112C43.8427 270.482 43.6064 280.414 43.7642 286.799C43.922 293.184 47.8536 326.859 48.4551 331.535C49.1646 337.053 55.5162 338.888 56.1014 333.033C56.417 329.88 56.6532 326.49 57.1654 321.327C58.607 306.794 60.5545 286.484 60.476 280.966Z" fill="#2B4047"/>
<path d="M51.4619 172.242C57.9275 172.115 63.0389 165.382 62.8786 157.204C62.7182 149.026 57.3469 142.499 50.8813 142.626C44.4157 142.753 39.3043 149.485 39.4646 157.663C39.6249 165.841 44.9963 172.368 51.4619 172.242Z" fill="#F29B79"/>
<path d="M43.7055 179.63H47.055C48.6116 179.63 49.8737 178.368 49.8737 176.811V163.687C49.8737 162.13 48.6116 160.868 47.055 160.868H43.7055C42.1489 160.868 40.8867 162.13 40.8867 163.687V176.811C40.8867 178.368 42.1489 179.63 43.7055 179.63Z" fill="#F29B79"/>
<path d="M34.4215 206.274C42.6306 209.171 49.2138 208.435 52.5827 207.669C54.1635 207.31 55.0362 206.944 55.0362 206.944C55.0362 206.944 55.7031 204.125 56.2471 202.153C56.4771 201.316 56.7367 200.355 57.0048 199.315C57.3716 197.894 57.7555 196.327 58.1106 194.727C59.3121 189.319 60.1864 183.553 58.9383 181.915C57.2417 179.689 53.1221 177.534 50.6041 176.361C49.3785 175.79 48.5323 175.451 48.5323 175.451C48.5323 175.451 44.3745 174.684 39.9005 174.966C36.3893 175.187 32.6839 176.055 30.6377 178.446C25.9872 183.886 34.4215 206.274 34.4215 206.274Z" fill="#ED117B"/>
<path d="M64.8339 217.763C65.1526 219.121 66.4737 222.236 69.6569 220.568C74.7744 217.887 82.3291 198.188 81.733 195.221C81.137 192.254 79.3588 192.394 75.913 196.693C72.4679 200.993 63.3954 211.631 64.8339 217.763Z" fill="#ED117B"/>
<path d="M77.729 194.522C77.5355 195.695 80.2687 197.521 81.8548 196.378C83.4418 195.236 87.5964 188.858 87.1184 187.466C86.6405 186.074 82.9009 186.184 79.8941 190.807C79.8941 190.807 80.7614 187.656 79.2266 188.044C78.4859 188.231 78.3445 190.788 77.729 194.522Z" fill="#F29B79"/>
<path d="M56.1964 331.439C56.1964 331.439 67.6493 333.545 68.6744 336.541C69.6994 339.536 48.9666 340.876 47.8631 339.379C46.7595 337.881 48.4934 331.845 48.4934 331.845C48.4934 331.845 51.2864 336.349 56.1964 331.439Z" fill="black"/>
<path d="M37.5124 167.075L37.5139 167.075C38.5778 167.832 39.8975 168.315 41.4992 168.442C55.4164 169.548 53.0554 162.039 53.0554 162.039C53.0554 162.039 69.6817 163.347 70.6415 152.706C71.4474 143.773 63.5298 146.432 63.5298 146.432C63.5298 146.432 58.7153 135.637 46.8366 137.54C46.6648 137.567 46.4986 137.641 46.3245 137.639C40.2448 137.54 36.3242 141.431 34.3502 146.472C31.4608 153.843 32.7384 163.675 37.5124 167.075Z" fill="#664FC6"/>
<path d="M49.8715 156.987C51.8074 156.566 53.8606 158.449 54.4574 161.192C55.0543 163.936 53.9694 166.501 52.0343 166.923C50.0985 167.345 48.0452 165.462 47.4484 162.718C46.8508 159.974 47.9356 157.408 49.8715 156.987Z" fill="#F29B79"/>
<path d="M39.9014 174.968C43.2206 179.366 49.144 177.031 50.605 176.362C49.3794 175.791 48.5332 175.452 48.5332 175.452C48.5332 175.452 44.3754 174.685 39.9014 174.968Z" fill="#F29B79"/>
<path d="M37.5124 167.075L37.5139 167.076C34.567 160.709 43.076 153.414 46.8397 147.102C50.6104 140.777 46.3182 137.643 46.3182 137.643C46.3182 137.643 37.4013 143.66 34.3502 146.471C31.4608 153.843 32.7384 163.675 37.5124 167.075Z" fill="#422B9D"/>
<path d="M46.3181 137.643C43.8926 134.856 37.6576 132.254 28.7056 143.782C19.7536 155.31 26.4418 166.127 19.836 171.759C13.2303 177.391 19.7195 184.148 13.7844 191.516C7.8493 198.883 18.2297 206.949 22.9361 197.203C27.6417 187.457 22.9081 181.75 30.5498 178.608C38.1915 175.466 32.2035 160.592 36.9558 154.862C41.7088 149.132 50.0927 141.981 46.3181 137.643Z" fill="#664FC6"/>
<path d="M51.4888 193.465L52.583 207.671C54.1637 207.312 55.0364 206.946 55.0364 206.946C55.0364 206.946 55.7033 204.126 56.2473 202.155C56.4773 201.318 56.7369 200.357 57.005 199.317L51.4888 193.465Z" fill="#D31F5E"/>
<path d="M64.8552 219.061C61.4116 213.679 50.8945 196.473 49.8967 188.761C48.8988 181.05 57.6969 179.104 61.4062 183.118C65.1155 187.133 69.4893 206.681 71.2153 212.862C73.0704 219.506 67.8426 223.73 64.8552 219.061Z" fill="#ED117B"/>
<path d="M247.99 189.203C273.9 208.158 212.796 217.898 189.801 201.586C166.807 185.274 229.745 175.856 247.99 189.203Z" fill="#B3B3B3"/>
<path d="M224.06 89.8794C224.06 89.8794 223.984 124.718 224.213 130.862C224.443 137.007 221.703 143.327 213.575 140.72C208.524 139.1 209.596 131.471 209.06 123.639C208.524 115.807 206.458 85.9638 206.458 85.9638C206.458 85.9638 221.075 71.5827 224.06 89.8794Z" fill="#2B4047"/>
<path d="M224.213 130.838C224.213 130.838 223.448 123.951 216.101 124.18C208.754 124.41 209.443 134.589 211.586 153.032C213.729 171.476 213.5 179.818 215.49 183.873C216.872 186.691 222.148 186.016 222.453 182.878C222.759 179.741 224.596 134.512 224.213 130.838Z" fill="#2B4047"/>
<path d="M222.683 179.435C222.683 179.435 218.977 183.316 214.286 179.577C214.286 179.577 210.887 181.785 206.765 183.797C203.268 185.503 198.952 186.807 198.882 189.231C198.729 194.511 220.923 190.455 223.449 189.078C225.973 187.7 222.683 179.435 222.683 179.435Z" fill="black"/>
<path d="M241.891 143.325C241.891 143.325 241.049 136.446 233.704 136.759C226.361 137.071 227.164 147.242 229.515 165.66C231.865 184.078 231.73 192.422 233.765 196.456C235.179 199.258 240.447 198.523 240.717 195.383C240.988 192.241 242.315 146.994 241.891 143.325Z" fill="#2B4047"/>
<path d="M240.908 191.937C240.908 191.937 237.245 195.86 232.514 192.174C232.514 192.174 229.139 194.421 225.04 196.478C221.563 198.224 217.262 199.576 217.219 202.001C217.125 207.283 239.271 202.977 241.781 201.571C244.292 200.164 240.908 191.937 240.908 191.937Z" fill="black"/>
<path d="M241.968 101.129C241.968 101.129 241.892 135.968 242.121 142.112C242.35 148.257 239.611 154.577 231.483 151.97C226.432 150.349 227.503 142.72 226.968 134.888C226.432 127.056 224.366 97.213 224.366 97.213C224.366 97.213 238.983 82.8319 241.968 101.129Z" fill="#2B4047"/>
<path d="M210.284 28.5453C210.284 28.5453 214.246 30.6391 212.189 39.1125C210.131 47.5865 201.5 64.7519 196.49 66.6899C191.481 68.6278 185.678 63.2584 190.04 54.6537C194.401 46.049 200.142 31.826 204.114 29.4551C208.084 27.0835 210.284 28.5453 210.284 28.5453Z" fill="#D31F5E"/>
<path d="M189.61 55.6716C189.61 55.6716 176.647 68.3283 170.814 75.2555C164.981 82.1834 164.742 83.4641 167.214 86.1077C169.686 88.7513 177.16 82.3876 182.616 78.6675C188.072 74.9474 201.284 67.583 200.578 61.1298C199.874 54.6759 192.852 52.8585 189.61 55.6716Z" fill="#D31F5E"/>
<path d="M166.212 81.1267C167.918 80.2378 172.105 83.5207 171.148 86.5373C170.191 89.5539 162.475 99.1629 160.092 99.129C157.71 99.0958 155.994 93.2884 161.588 86.3309C161.588 86.3309 157.178 89.2537 157.001 86.6975C156.916 85.4644 160.779 83.9572 166.212 81.1267Z" fill="#F29B79"/>
<path d="M226.279 29.053C220.08 27.4462 211.343 27.3394 209.124 28.3344C206.904 29.3294 202.62 33.1432 202.178 52.7336C201.681 74.7511 200.642 86.6033 201.789 89.0528C202.937 91.5016 213.269 111.17 244.57 100.839C244.57 100.839 245.488 55.6095 246.023 48.4154C246.56 41.2212 232.478 30.6598 226.279 29.053Z" fill="#ED117B"/>
<path d="M223.626 71.2246C223.626 71.2246 210.663 83.8813 204.83 90.8085C198.998 97.7357 198.758 99.0171 201.231 101.661C203.703 104.304 211.177 97.9406 216.633 94.2205C222.089 90.5004 235.301 83.136 234.595 76.6828C233.89 70.2297 226.869 68.4122 223.626 71.2246Z" fill="#D31F5E"/>
<path d="M221.8 21.8732L221.196 26.4534L220.522 31.5602C220.509 31.6554 220.502 31.75 220.497 31.8445C220.448 32.773 220.764 33.649 221.328 34.3207C221.88 34.978 222.672 35.4383 223.59 35.5595C224.197 35.6396 224.788 35.5617 225.323 35.3575C226.507 34.9058 227.412 33.8358 227.59 32.4909L228.867 22.8033C229.008 21.7326 228.657 20.7095 227.99 19.962C227.442 19.348 226.679 18.9194 225.8 18.804C224.74 18.664 223.727 19.0053 222.981 19.6597C222.355 20.2109 221.918 20.9815 221.8 21.8732Z" fill="#F29B79"/>
<path d="M200.228 96.6797C201.934 95.7908 206.121 99.0736 205.164 102.091C204.208 105.108 196.491 114.717 194.109 114.683C191.726 114.649 190.011 108.842 195.604 101.885C195.604 101.885 191.194 104.807 191.017 102.251C190.932 101.017 194.795 99.5101 200.228 96.6797Z" fill="#F29B79"/>
<g opacity="0.25">
<path d="M221.197 26.4531L220.523 31.5599C220.51 31.6552 220.502 31.7497 220.497 31.8442C221.321 31.2562 225.545 28.0981 224.804 25.5801C224.33 23.9668 222.583 25.1609 221.197 26.4531Z" fill="black"/>
</g>
<path d="M213.774 16.7879C212.458 22.5614 214.648 27.9849 218.667 28.902C222.686 29.819 227.011 25.8818 228.329 20.1083C229.645 14.3348 227.455 8.9112 223.436 7.99416C219.417 7.07713 215.092 11.0144 213.774 16.7879Z" fill="#F29B79"/>
<path d="M227.907 22.0638C227.907 22.0638 224.323 19.6194 226.795 13.97C226.795 13.97 213.931 17.8401 212.244 9.02331C210.557 0.207223 217.385 -1.19394 220.624 1.46769C223.937 4.18994 227.701 0.27144 234.063 6.75201C238.491 11.2629 237.801 27.2363 228.436 25.8604C228.436 25.8604 227.169 25.2983 227.907 22.0638Z" fill="#422B9D"/>
<path d="M226.857 21.2745C225.504 22.5747 225.185 24.4376 226.144 25.4362C227.102 26.4348 228.977 26.1894 230.33 24.89C231.683 23.5898 232.003 21.7269 231.043 20.7283C230.084 19.7298 228.21 19.9751 226.857 21.2745Z" fill="#F29B79"/>
<path d="M244.954 43.3287C244.954 43.3287 248.917 45.4225 246.859 53.8959C244.801 62.3699 236.17 79.5353 231.161 81.4725C226.151 83.4105 220.348 78.0411 224.71 69.4364C229.072 60.8317 234.813 46.6086 238.784 44.2378C242.755 41.8669 244.954 43.3287 244.954 43.3287Z" fill="#D31F5E"/>
</svg>
