<svg width="223" height="249" viewBox="0 0 223 249" fill="none" xmlns="http://www.w3.org/2000/svg">
<path d="M186.363 160.337C186.363 160.337 187.386 164.033 187.26 166.171C187.131 168.309 186.607 168.818 185.941 169.54C185.275 170.262 184.493 169.95 184.493 169.95C184.493 169.95 184.187 174.359 182.035 176.141C179.883 177.923 175.979 178.092 174.187 177.445C172.395 176.798 173.573 173.641 175.328 170.544C177.082 167.448 179.32 164.118 179.879 161.321C184.17 160.747 186.363 160.337 186.363 160.337Z" fill="#672A5C"/>
<path d="M165.647 150.641C165.647 150.641 165.841 152.228 166.353 153.886C166.865 155.545 166.235 157.858 166.235 157.858C166.235 157.858 165.865 158.877 164.283 159.179C162.809 159.46 161.617 159.116 161.617 159.116C161.617 159.116 160.167 160.818 158.274 162.12C156.379 163.422 152.201 164.432 151.064 164.264C149.231 163.991 148.249 162.604 148.388 161.708C148.529 160.813 150.69 158.332 152.46 157.257C153.613 156.558 156.231 154.2 157.015 153.378C158.315 152.018 159.274 150.519 159.274 150.519L165.647 150.641Z" fill="#672A5C"/>
<path d="M154.29 131.585C153.11 124.85 151.737 125.304 151.767 119.044C151.782 115.97 152.915 108.934 155.204 94.332C156.394 86.7471 158.251 85.4764 160.709 80.6951C160.964 80.2022 168.87 84.1371 172.476 85.9922C172.801 86.1607 175.947 94.2447 174.57 100.559C174.041 102.98 165.865 119.364 163.052 122.4C170.077 129.137 168.366 135.345 166.236 152.085C164.439 154.429 161.182 154.204 157.921 152.355C157.923 148.915 155.082 136.108 154.29 131.585Z" fill="#203136"/>
<path d="M168.148 100.278C163.728 95.0263 164.638 91.0393 166.76 84.7918C166.876 84.4507 185.252 82.061 185.477 82.4437C192.447 94.3087 191.505 113.32 186.424 124.935C188.794 130.559 187.659 131.487 189.43 138.907C190.957 145.307 190.135 152.34 189.751 160.337C187.233 162.009 180.051 162.912 178.794 159.894C174.469 149.865 171.15 139.787 174.09 129.059C172.762 125.686 168.499 108.796 168.148 100.278Z" fill="#2B4047"/>
<path d="M165.011 36.5247C164.491 35.645 163.59 35.4619 162.669 35.5721C159.247 35.9839 158.106 35.7032 155.416 38.7812C153.012 41.5348 151.247 43.7082 151.121 46.8257C143.331 56.846 142.875 60.0447 143.386 63.4887C143.549 64.5806 150.414 66.234 151.705 65.4708C153.069 64.6617 156.016 56.4134 157.136 55.3111C158.061 54.4023 163.185 49.2632 163.697 46.7945C164.121 44.7522 164.557 42.714 164.949 40.6655C165.178 39.4592 165.72 37.7206 165.011 36.5247Z" fill="#203136"/>
<path d="M164.508 37.8742C168.969 36.0607 174.277 38.4046 174.082 38.1925C173.947 38.0469 180.273 41.6012 180.281 41.6241C184.795 43.2588 189.427 44.4442 192.084 50.3383C193.377 53.2062 188.722 59.3478 186.78 67.6668C185.906 71.4083 185.816 76.7449 187.24 79.2302C188.236 80.9689 190.433 83.5728 183.99 85.5402C182.116 86.1122 173.408 89.3816 168.331 88.4665C165.982 88.0422 154.688 81.9651 158.134 79.642C159.046 79.0264 159.793 77.8056 159.138 76.6804C158.588 75.7383 157.596 74.0205 158.016 72.1529C159.046 67.5628 158.209 65.7576 157.513 62.1679C154.245 58.8444 157.132 53.8364 159.136 48.4831C160.491 44.8456 159.932 39.7335 164.508 37.8742Z" fill="white"/>
<path d="M165.578 36.9166C165.578 36.8542 165.574 36.7835 165.572 36.717C168.219 37.11 171.709 35.6355 174 34.0819C175.231 37.0019 175.531 38.1125 177.394 41.0595C176.396 41.1074 174.428 43.7694 172.795 46.5688C172.101 47.7563 169.107 50.8302 167.225 50.121C164.324 49.0271 165.775 46.7705 165.69 43.5968C165.628 41.3715 165.583 39.1399 165.578 36.9166Z" fill="#FFB9A4"/>
<path d="M163.475 59.9006C163.968 57.3467 164.722 54.9612 165.255 53.4284C165.37 53.0998 164.373 50.1341 164.373 50.1341L167.231 49.0381L168.899 50.9868C168.899 50.9868 167.951 53.154 166.848 53.7217C166.908 56.5564 167.013 61.7454 167.077 66.4519C167.178 73.9682 167.077 79.3734 167.077 79.3734C167.077 79.3734 165.255 81.8795 163.407 83.0567C162.124 80.823 161.623 77.9821 161.623 77.9821C161.623 77.9821 162.647 64.2037 163.475 59.9006Z" fill="#ED117B"/>
<path d="M179.635 41.1129C179.635 41.1129 174.86 43.1115 172.86 44.7213C170.181 46.8759 168.903 47.4562 167.569 48.6999C167.443 48.39 167.081 42.5396 167.081 42.5396C167.081 42.5396 164.847 42.8121 164.867 42.8516C164.886 42.8911 163.588 44.0495 163.081 46.3747C162.573 48.6999 163.477 51.5158 163.477 51.5158L167.19 49.3134L169.732 53.7183C169.732 53.7183 174.691 49.5941 176.952 47.0797C179.216 44.5653 179.635 41.1129 179.635 41.1129Z" fill="white"/>
<path d="M165.255 37.858C165.255 37.858 160.938 37.5918 158.88 42.1548C156.82 46.7178 155.27 52.668 155.204 59.735C155.157 64.8907 156.319 71.6271 155.422 75.2957C154.649 78.4528 150.343 90.0745 150.343 90.0745C150.343 90.0745 150.673 94.8434 152.261 96.7276C154.313 99.1589 156.544 98.9509 156.544 98.9509C156.544 98.9509 159.214 84.5424 159.484 82.2713C159.754 80.0002 160.632 68 160.39 64.4394C160.148 60.8789 162.248 49.0139 163.077 46.3788C163.906 43.7438 168.899 38.3447 168.899 38.3447L165.255 37.858Z" fill="#2B4047"/>
<path d="M166.109 41.614C166.109 41.614 164.642 43.4379 163.465 46.1936C162.287 48.9493 161.91 55.0014 161.574 58.5349C161.238 62.0684 160.454 65.6185 160.454 65.6185C160.454 65.6185 159.079 61.7751 158.829 59.165C158.576 56.555 158.231 54.546 158.231 54.546L160.109 53.1192L158.37 49.0387C158.37 49.0387 162.959 39.3304 164.897 38.7668C166.835 38.199 166.109 41.614 166.109 41.614Z" fill="#A3C6D8"/>
<path d="M177.607 39.9055C177.607 39.9055 172.14 46.8894 170.532 56.5499C168.924 66.2103 169.939 76.1599 170.532 83.0605C171.279 91.7664 171.945 104.149 171.945 104.149C171.945 104.149 180.853 105.578 185.846 104.551C191.185 103.453 193.062 98.3779 193.062 98.3779C193.062 98.3779 193.062 87.792 188.527 74.9474C187.037 70.7297 187.983 61.5745 189.748 56.3065C190.797 53.1723 189.272 46.9185 186.561 44.0671C184.714 42.1246 180.198 41.2865 177.607 39.9055Z" fill="#2B4047"/>
<path d="M175.915 38.5096C175.915 38.5096 179.037 38.6989 180.224 41.0075C179.669 42.1992 178.361 43.7902 177.77 46.7643C177.181 49.7383 177.389 53.0659 177.389 53.0659L173.866 54.5945L175.924 58.1218L169.817 65.7961C169.817 65.7961 168.903 55.6864 171.312 48.3823C173.723 41.0761 175.915 38.5096 175.915 38.5096Z" fill="#203136"/>
<path d="M160.217 26.0561C162.649 23.1548 167.968 22.4914 171.33 24.4692C172.138 24.7022 172.878 25.0515 173.484 25.5735C175.675 27.464 175.435 30.852 174.78 33.3519C173.793 37.1225 168.27 45.7888 163.165 42.5486C160.45 40.8244 158.686 36.5443 158.249 33.5494C157.857 30.8832 158.444 28.1691 160.217 26.0561Z" fill="#FFC9B6"/>
<path d="M156.691 20.4997C158.393 18.2744 162.744 15.6123 165.601 17.1618C166.584 17.6942 167.14 18.7881 167.078 19.7739C169.845 19.2831 174.83 21.028 176.067 23.3365C178.17 27.2611 176.706 33.9787 174.862 35.996C172.935 34.3655 169.961 30.8985 169.175 27.573C165.997 29.0559 161.654 29.2139 158.532 27.469C155.914 26.007 154.811 22.9559 156.691 20.4997Z" fill="#672A5C"/>
<path d="M170.079 31.4972C170.079 31.4972 171.63 28.9995 173.056 30.8255C175.221 33.5936 172.049 34.9497 172.049 34.9497L170.079 31.4972Z" fill="#FFC9B6"/>
<path d="M157.438 44.7976C157.553 44.2777 158.121 41.3556 158.538 39.4381C158.707 38.6603 158.232 37.5767 158.217 37.3168C158.185 36.7823 158.701 36.437 159.318 36.9944C159.924 37.5414 160.144 38.6374 160.603 39.6169C161.061 40.5965 161.474 42.5141 166.041 40.9542C167.549 40.4385 169.658 41.0811 170.326 41.7508C171.155 42.5827 170.343 43.8763 169.373 44.3401C167.981 45.0035 162.206 46.9232 160.146 48.8178C159.448 49.4605 155.423 48.8178 155.423 48.8178C155.423 48.8178 157.161 46.0496 157.438 44.7976Z" fill="#FFC9B6"/>
<path d="M159.875 38.5751C159.875 38.5751 160.055 41.129 161.337 41.5803C162.62 42.0316 165.29 40.6299 167.273 40.6299C167.74 40.6299 169.789 41.0833 170.324 41.753C170.324 41.753 170.029 40.4427 167.309 40.164C165.095 39.9373 162.755 41.1686 161.703 40.7776C160.652 40.3866 159.875 38.5751 159.875 38.5751Z" fill="#FFB9A4"/>
<path d="M156.985 43.9482C156.923 44.1375 162.238 47.8208 162.238 47.8208C162.238 47.8208 161.242 50.148 159.874 54.7047C158.506 59.2615 156.769 64.8144 154.064 67.4869C151.362 70.1594 145.551 70.9165 144.322 67.254C143.131 63.7018 142.189 59.145 145.891 55.3391C149.596 51.5331 156.985 43.9482 156.985 43.9482Z" fill="#203136"/>
<path d="M184.235 78.1549C184.235 78.1549 180.24 81.1956 179.12 82.7242C178.002 84.2549 178.58 86.7215 178.779 89.6518C178.979 92.5822 181.846 91.8273 184.167 91.5423C186.488 91.2574 187.034 90.1697 185.67 89.6518C184.304 89.134 182.501 89.6518 182.501 89.6518C182.501 89.6518 186.191 87.6594 186.407 84.0198C186.625 80.3823 184.235 78.1549 184.235 78.1549Z" fill="#FFC9B6"/>
<path d="M203.549 69.7494C202.14 66.6652 201.517 65.7147 199.183 61.9981C196.849 58.2816 196.241 56.9818 193.342 53.3651C192.329 46.9719 189.19 43.0994 184.956 42.9081C182.385 44.8131 180.475 58.6601 182.993 62.9049C185.01 66.3033 186.04 67.2537 188.111 68.4142C188.644 69.7515 189.929 70.8371 190.738 71.9581C189.267 72.9772 187.558 74.1731 186.213 75.1443C183.248 77.2927 181.365 80.1295 181.365 80.1295C181.365 80.1295 182.231 81.708 183.565 83.0557C184.899 84.4034 186.1 85.5369 186.1 85.5369C186.1 85.5369 195.571 82.8623 198.357 80.6557C199.759 79.5451 201.38 77.7191 202.035 75.8203C202.539 74.3561 204.29 71.3696 203.549 69.7494Z" fill="#203136"/>
<path d="M56.7283 136.479C58.5421 136.639 60.6895 136.296 62.7933 135.658C62.6929 136.718 62.617 137.749 62.5867 138.712C62.3782 145.274 61.4306 146.46 64.9407 149.074C68.085 151.413 68.447 152.094 69.8856 154.449C70.9185 156.141 68.8052 156.778 67.2359 156.422C63.813 155.647 60.9965 151.966 59.1675 151.235C57.3386 150.506 54.8217 149.578 55.305 147.634C55.8243 145.541 56.372 145.615 56.8307 143.781C57.2514 142.086 57.0505 139.367 56.7283 136.479Z" fill="#FFC9B6"/>
<path d="M55.8185 146.142C55.8185 146.142 56.6941 147.576 56.8969 148.38C58.3392 149.442 60.0753 150.214 61.927 151.764C63.7787 153.314 64.9576 154.282 66.5611 153.448C68.1645 152.614 68.3976 152.029 68.3976 152.029C68.3976 152.029 70.5431 153.682 71.0264 154.683C71.5097 155.685 69.3396 157.875 66.1536 157.181C62.9676 156.487 61.9043 154.396 60.2535 152.874C58.6027 151.353 57.0334 150.836 55.5228 149.623C54.0085 148.41 55.8185 146.142 55.8185 146.142Z" fill="#672A5C"/>
<path d="M38.9782 145.288C40.7901 145.448 42.6456 142.659 44.7494 142.022C44.6489 143.083 44.1922 144.106 44.1618 145.069C43.9534 151.631 42.5849 155.238 46.0969 157.85C49.2413 160.189 49.6033 160.871 51.0418 163.225C52.0748 164.917 49.9615 165.554 48.3922 165.198C44.9692 164.423 42.1529 160.74 40.3239 160.011C38.4949 159.282 35.9779 158.354 36.4612 156.41C36.9805 154.317 37.7444 153.562 38.203 151.729C38.6238 150.034 39.3004 148.174 38.9782 145.288Z" fill="#FFC9B6"/>
<path d="M36.9747 154.915C36.9747 154.915 37.8504 156.349 38.0531 157.153C39.4955 158.214 41.2316 158.987 43.0833 160.537C44.935 162.087 46.1139 163.055 47.7173 162.221C49.3207 161.387 49.5539 160.802 49.5539 160.802C49.5539 160.802 51.6993 162.455 52.1807 163.456C52.664 164.458 50.4939 166.648 47.3079 165.954C44.1219 165.26 43.0586 163.169 41.4078 161.647C39.757 160.126 38.1896 159.609 36.6771 158.396C35.1647 157.183 36.9747 154.915 36.9747 154.915Z" fill="#672A5C"/>
<path d="M59.2656 86.2858C59.2656 86.2858 65.2226 98.0579 67.641 104.913C69.6803 110.688 72.8625 114.765 71.93 117.863C71.0127 120.908 69.523 125.477 67.3681 130.567C64.4569 137.444 62.3228 143.889 62.3228 143.889C62.3228 143.889 59.6125 144.432 57.0311 142.415C57.0046 134.085 56.7676 129.459 57.649 124.932C58.8373 118.834 61.2405 116.95 61.2405 116.95C61.2405 116.95 53.9076 107.093 51.8493 99.398C42.587 94.5566 46.8381 87.4381 47.2058 87.5504C47.5735 87.659 59.2656 86.2858 59.2656 86.2858Z" fill="#203136"/>
<path d="M38.2004 151.726C38.9661 147.154 38.4564 138.146 39.6031 133.55C40.7668 128.88 42.8553 127.486 44.7488 126.017C43.0013 123.924 39.531 113.604 41.3164 103.506C36.9231 95.1372 38.8316 89.2704 42.1427 85.7673C42.247 85.6569 55.7946 90.3271 55.6411 90.3179C55.5805 90.3142 55.5179 90.305 55.4573 90.3013C57.3185 94.1026 57.2711 99.1815 54.176 103.012C54.7143 113.557 57.1081 118.159 55.1161 124.931C54.4263 127.276 45.5618 147.04 43.8617 152.152C41.866 153.236 39.7641 153.687 38.2004 151.726Z" fill="#2B4047"/>
<path d="M59.5006 60.4134C60.4975 59.5114 62.0175 57.5785 64.6994 58.1731C68.8899 59.1046 81.1298 68.0805 81.1298 68.0805L94.2397 67.1969C94.2397 67.1969 95.5171 68.3732 95.4943 70.9872C93.6976 71.937 83.4553 75.2892 80.6275 75.8599C78.3475 76.3201 61.2424 67.1417 61.2424 67.1417L59.5006 60.4134Z" fill="#D31F5E"/>
<path d="M63.7097 80.7096C62.5933 83.215 61.9451 86.5009 63.7495 92.1044C60.1522 95.7824 56.1815 96.6089 49.6427 96.2849C44.1463 96.0125 41.1384 94.803 38.8166 93.0432C39.0516 90.1623 40.3917 85.9118 40.6589 82.278C41.0778 76.5788 42.1107 70.6218 43.8582 66.0105C45.3062 62.1871 49.5024 58.5404 55.1731 56.3663C61.7802 53.8334 63.0785 56.0884 63.0785 56.0884C63.0785 56.0884 67.1515 65.4969 68.3114 69.7437C69.2155 73.0499 69.2174 75.0637 67.6083 77.1144C65.7376 79.502 65.7945 77.9962 63.7097 80.7096Z" fill="#ED117B"/>
<path d="M54.0624 55.0734C54.142 54.7862 59.3579 57.4867 59.3523 57.5861C59.2518 59.2502 60.0061 60.0234 60.8818 61.5678C61.3404 62.376 61.1736 64.0769 61.945 65.7742C62.6084 67.2303 62.2274 66.9983 61.0523 67.6739C59.193 68.7416 55.99 67.7328 53.2949 64.5463C53.7005 64.1284 51.8904 62.5729 52.2202 61.6028C52.6485 60.3363 53.2342 58.061 54.0624 55.0734Z" fill="#FFB9A4"/>
<path d="M56.3852 66.0113L62.272 64.5902C62.272 64.5902 65.2211 71.1731 65.3784 74.1976C65.5358 77.2221 61.3964 83.0409 61.3964 83.0409C61.3964 83.0409 60.3862 75.9371 59.5011 72.828C58.616 69.7188 56.3852 66.0113 56.3852 66.0113Z" fill="white"/>
<path d="M62.0374 57.4868C62.0374 57.4868 65.159 62.9026 66.4099 65.8553C65.3675 66.9395 63.9081 67.7973 63.9081 67.7973L67.5186 69.6069C67.5186 69.6069 67.3347 73.1247 66.0781 76.1106C64.8196 79.0964 60.7674 84.2139 60.7674 84.2139L61.2659 82.0712C61.2659 82.0712 64.2719 77.3384 63.836 73.9089C63.4001 70.4795 61.5806 65.8461 60.3544 62.9302C59.13 60.0124 59.2019 59.4179 59.2019 59.4179L62.0374 57.4868Z" fill="#D31F5E"/>
<path d="M54.1443 55.5605C54.1443 55.5605 53.695 56.9853 53.2345 58.0622C53.4202 59.2292 54.8664 61.2855 55.9334 62.8391C58.9318 67.2056 60.5277 71.0953 61.3067 74.8414C62.0951 78.6372 60.7664 84.2168 60.7664 84.2168C60.7664 84.2168 59.9913 80.6271 57.8629 77.6339C56.9588 76.3619 54.91 72.3968 54.91 72.3968L57.5236 69.2158L53.3445 68.1242C53.3445 68.1242 50.5489 60.8915 51.8073 58.261C53.4108 54.9088 54.1443 55.5605 54.1443 55.5605Z" fill="#D31F5E"/>
<path d="M56.512 42.5003C57.4995 40.1919 59.4971 36.6115 55.4203 35.1075C51.6278 33.7103 50.3769 37.311 50.3769 37.311C50.3769 37.311 47.8334 35.1075 45.0701 38.1412C42.8488 40.5785 46.3494 43.0654 46.3494 43.0654C46.3494 43.0654 43.9045 44.0411 44.1111 47.0417C44.3177 50.0422 47.2004 50.611 49.8235 49.6041C51.3454 49.0205 55.3578 45.2008 56.512 42.5003Z" fill="#F8B505"/>
<path d="M49.4051 42.8438C49.7785 42.3155 50.421 42.1388 51.0237 42.2345C50.9062 41.6823 51.0484 41.0858 51.5317 40.7103C51.9942 40.3495 52.5893 40.355 53.0935 40.633C53.1447 40.6606 53.1996 40.703 53.2527 40.7361C53.2565 40.3845 53.3284 40.0439 53.5407 39.7347C53.8743 39.2505 54.4449 38.967 55.0381 39.1401C56.2208 39.4825 56.8253 41.454 56.5107 42.5015C56.4842 42.5898 56.4083 42.6469 56.3249 42.6745C55.8435 44.2447 54.6855 45.3492 53.3456 46.3175C52.9248 46.6212 52.4282 47.0741 51.8653 47.041C51.2456 47.0041 50.694 46.439 50.3168 46.0266C49.625 45.2719 48.702 43.836 49.4051 42.8438Z" fill="white"/>
<path d="M66.5595 51.1866C66.6125 49.1303 66.3339 46.5255 64.812 44.9553C63.309 43.4053 60.5627 43.0813 58.4703 43.0869C55.2255 43.0961 52.7142 46.4151 53.0061 50.4631C53.2771 54.2018 55.4284 60.0778 59.6284 61.1289C64.3022 62.2997 66.478 54.3141 66.5595 51.1866Z" fill="#FFC9B6"/>
<path d="M71.7128 46.5006C71.292 45.6612 70.5907 45.3224 69.8193 45.2819C70.5434 44.5272 70.8391 43.4595 70.0639 42.4986C69.1162 41.3242 67.473 41.5487 66.5954 42.5391C64.4841 41.2579 62.1131 40.9173 59.6151 41.0848C58.4362 41.164 57.0507 41.2247 55.9495 41.7052C55.5401 41.8838 54.329 43.4669 54.3101 43.4687C54.2172 43.4742 54.1357 43.511 54.0637 43.5589C54.0011 43.5202 53.9329 43.4927 53.8627 43.4945C48.1996 43.5755 50.383 52.9141 53.713 56.5589C54.5792 55.6256 54.7782 54.9279 55.6197 53.2564C55.9533 52.5937 56.5238 50.8652 56.9199 50.2577C57.9775 51.0971 60.3087 51.2812 62.1775 51.2131C62.7973 51.5169 63.4588 51.7543 64.0804 51.9439C66.4079 52.6471 68.9305 52.3526 70.695 50.6075C71.7337 49.584 72.4065 47.8812 71.7128 46.5006Z" fill="#FED03D"/>
<path d="M56.8408 51.9766C56.8408 51.9766 55.6183 49.7345 54.5285 51.0009C53.4387 52.2674 54.1854 55.0545 55.4363 55.0747C56.6872 55.095 56.8408 51.9766 56.8408 51.9766Z" fill="#FFC9B6"/>
<path d="M47.4554 63.5587C51.3142 63.5532 51.841 70.9662 51.8562 73.3667C51.8714 75.7671 50.1372 85.6469 50.1372 85.6469C50.1372 85.6469 54.106 88.6806 56.7102 90.2821C59.3143 91.8818 63.3589 94.3301 63.3589 94.3301L61.5565 97.5682C61.5565 97.5682 54.8736 97.0711 51.4829 96.0292C48.0581 94.9763 42.4839 91.9094 41.7637 89.6158C41.0435 87.3202 41.2217 79.5556 40.7251 73.3685C40.1072 65.6738 44.5954 63.5624 47.4554 63.5587Z" fill="#D31F5E"/>
<path d="M68.0947 91.2504C68.0947 91.2504 67.1925 92.1837 65.773 92.8721C65.1399 93.1796 64.2168 94.0889 63.6255 94.1663C62.8882 93.9012 62.1054 93.5698 62.1054 93.5698C62.1054 93.5698 60.4584 95.7862 61.5558 97.5681C62.7214 98.078 65.5379 99.2046 68.9191 98.3376C71.9194 97.5681 72.5164 96.2887 73.0717 95.5524C73.627 94.8161 72.6282 94.84 72.6282 94.84C72.6282 94.84 73.7958 93.2384 72.8367 93.036C73.1002 92.5371 73.5171 91.9683 72.8499 91.8817C72.1828 91.7952 70.2799 93.2385 69.8478 93.3452C69.4138 93.4538 67.346 93.6287 67.346 93.6287L68.0947 91.2504Z" fill="#FFC9B6"/>
<path d="M93.55 67.2745C93.55 67.2745 95.8831 65.8644 98.3015 65.3214C100.718 64.7802 101.052 64.5372 101.969 64.2132C102.886 63.8892 102.886 64.8041 101.969 65.2772C101.052 65.7503 100.115 66.7278 99.8329 66.9671C99.5505 67.2082 101.385 68.2281 103.135 67.7587C104.886 67.2874 105.688 66.7462 107.164 66.4829C108.248 66.2896 107.524 67.2727 107.524 67.2727C107.524 67.2727 108.513 67.072 108.508 67.5396C108.504 67.8268 107.469 68.3551 107.469 68.3551C107.469 68.3551 108.292 68.252 108.292 68.7343C108.292 69.2516 107.276 69.6105 107.276 69.6105C107.56 69.6105 107.825 69.8866 107.693 70.2033C107.515 70.6303 106.891 70.8586 106.082 71.1219C105.022 71.4661 104.221 71.8839 102.386 71.9649C100.551 72.0459 99.3838 72.0183 98.4892 71.7864C97.2421 71.4606 96.0898 71.3004 94.746 71.3004C94.6569 68.9294 93.55 67.2745 93.55 67.2745Z" fill="#FFC9B6"/>
<path d="M147.451 24.7325L148.249 26.809L146.615 27.6981L145.917 26.4022L147.451 24.7325Z" fill="#C66BC6"/>
<path d="M131.288 17.5082L147.681 26.6995C148.202 26.9922 148.623 26.6811 148.623 26.0073V11.3082C148.623 10.6345 148.2 9.8503 147.681 9.55945L131.288 0.368129C130.767 0.0772767 130.346 0.38655 130.346 1.0603V15.7594C130.346 16.4331 130.769 17.2155 131.288 17.5082Z" fill="#C66BC6"/>
<path d="M145.859 22.3194C145.965 22.7391 147.771 32.49 147.771 32.49L146.158 33.4123L141.496 21.2738L145.859 22.3194Z" fill="#C66BC6"/>
<path d="M131.845 1.94406C131.754 1.88515 130.637 0.346191 130.637 0.346191L128.907 1.37891L129.851 2.89945L131.845 1.94406Z" fill="#C66BC6"/>
<path d="M129.676 18.4329L146.068 27.6241C146.589 27.915 147.01 27.6057 147.01 26.932V12.2329C147.01 11.5591 146.588 10.775 146.068 10.4841L129.676 1.29281C129.155 1.00196 128.734 1.31123 128.734 1.98498V16.684C128.734 17.3578 129.155 18.1402 129.676 18.4329Z" fill="#E79CE1"/>
<path d="M144.246 23.2441C144.353 23.6638 146.159 33.4147 146.159 33.4147L139.881 22.1985L144.246 23.2441Z" fill="#E79CE1"/>
<path d="M141.713 16.6124C141.713 17.6267 142.348 18.803 143.129 19.2411C143.912 19.6792 144.547 19.2135 144.547 18.201C144.547 17.1867 143.912 16.0104 143.129 15.5723C142.348 15.1323 141.713 15.5981 141.713 16.6124Z" fill="white"/>
<path d="M136.454 13.6631C136.454 14.6756 137.089 15.8537 137.869 16.2918C138.652 16.7299 139.287 16.2642 139.287 15.2517C139.287 14.2393 138.652 13.0611 137.869 12.623C137.089 12.1849 136.454 12.6506 136.454 13.6631Z" fill="white"/>
<path d="M131.193 10.7127C131.193 11.727 131.828 12.9033 132.609 13.3415C133.391 13.7796 134.026 13.3138 134.026 12.3014C134.026 11.2871 133.391 10.1108 132.609 9.67265C131.828 9.23269 131.193 9.69843 131.193 10.7127Z" fill="white"/>
<path d="M76.854 48.9475L76.056 51.0221L77.6898 51.9113L78.3872 50.6153L76.854 48.9475Z" fill="#C66BC6"/>
<path d="M93.0186 41.7201L76.626 50.9114C76.1048 51.2041 75.684 50.893 75.684 50.2193V35.5202C75.684 34.8465 76.1067 34.0622 76.626 33.7714L93.0186 24.5801C93.5398 24.2874 93.9604 24.5985 93.9604 25.2723V39.9713C93.9604 40.6451 93.5379 41.4274 93.0186 41.7201Z" fill="#C66BC6"/>
<path d="M78.4475 46.5307C78.3414 46.9504 76.5352 56.7013 76.5352 56.7013L78.1482 57.6236L82.8105 45.4851L78.4475 46.5307Z" fill="#C66BC6"/>
<path d="M92.4627 26.154C92.5537 26.0951 93.67 24.5562 93.67 24.5562L95.4004 25.5889L94.4566 27.1094L92.4627 26.154Z" fill="#C66BC6"/>
<path d="M94.6313 42.6435L78.2388 51.8348C77.7176 52.1275 77.2968 51.8164 77.2968 51.1427V36.4436C77.2968 35.7698 77.7194 34.9857 78.2388 34.6948L94.6313 25.5035C95.1525 25.2127 95.5732 25.5219 95.5732 26.1956V40.8947C95.5732 41.5685 95.1525 42.3527 94.6313 42.6435Z" fill="#E79CE1"/>
<path d="M80.0604 47.4548C79.9543 47.8745 78.1481 57.6254 78.1481 57.6254L84.4253 46.4092L80.0604 47.4548Z" fill="#E79CE1"/>
<path d="M82.5913 40.823C82.5913 41.8355 81.9564 43.0136 81.1755 43.4517C80.3927 43.8898 79.7578 43.4241 79.7578 42.4116C79.7578 41.3973 80.3927 40.221 81.1755 39.7829C81.9583 39.3448 82.5913 39.8105 82.5913 40.823Z" fill="white"/>
<path d="M87.8516 37.8702C87.8516 38.8845 87.2166 40.0608 86.4358 40.499C85.653 40.9371 85.0181 40.4713 85.0181 39.4589C85.0181 38.4464 85.653 37.2683 86.4358 36.8302C87.2166 36.392 87.8516 36.8578 87.8516 37.8702Z" fill="white"/>
<path d="M93.1133 34.9235C93.1133 35.9378 92.4783 37.1141 91.6975 37.5522C90.9147 37.9903 90.2798 37.5246 90.2798 36.5121C90.2798 35.4978 90.9147 34.3215 91.6975 33.8834C92.4783 33.4453 93.1133 33.911 93.1133 34.9235Z" fill="white"/>
<path d="M149.96 173.072L126.811 176.61L120.521 189.566L143.634 186.092L149.96 173.072Z" fill="#954A83"/>
<path d="M150.903 171.134L127.784 174.608L126.812 176.61L149.961 173.072L150.903 171.134Z" fill="white"/>
<path d="M132.869 164.139C132.867 164.143 132.867 164.146 132.865 164.15L127.784 174.611L150.902 171.138L152.688 167.463C153.126 166.677 153.51 165.886 153.838 165.094L153.952 164.86L153.931 164.859C154.189 164.214 154.403 163.57 154.589 162.926L145.033 158.583L132.869 164.139Z" fill="#954A83"/>
<path d="M133.638 161.561C133.485 162.418 133.237 163.28 132.871 164.136L145.037 158.584L154.593 162.927C154.816 162.15 154.976 161.373 155.093 160.598L145.401 156.195L133.638 161.561Z" fill="white"/>
<path d="M103.693 144.215C111.981 143.877 120.046 145.313 125.916 148.604C131.994 152.013 134.499 156.74 133.637 161.562L145.397 156.194L155.09 160.597C156.294 152.733 152.092 145.055 142.168 139.49C130.965 133.207 120.772 125.369 104.906 127.015L92.5733 139.9L103.693 144.215Z" fill="#5A2255"/>
<path d="M98.6031 144.648C100.298 144.431 101.999 144.283 103.694 144.215L92.5741 139.9L99.0864 132.642C97.7749 132.778 96.4651 132.935 95.1611 133.122L88.3817 140.681L98.6031 144.648Z" fill="#DAE0F6"/>
<path d="M69.3361 162.335C70.4127 158.119 74.0573 153.883 80.1867 150.446C85.5599 147.433 92.0249 145.491 98.6035 144.65L88.3801 140.683L95.1597 133.124C84.7677 134.624 74.6165 137.785 66.1122 142.553C53.8041 149.454 47.5117 158.29 47.506 166.67L59.8293 169.352L69.3361 162.335Z" fill="#5A2255"/>
<path d="M69.0057 165.433C68.9565 164.41 69.0721 163.372 69.3374 162.333L59.8325 169.349L47.5092 166.667C47.5092 167.375 47.5395 168.082 47.6286 168.782L60.6342 171.611L69.0057 165.433Z" fill="white"/>
<path d="M94.6269 171.957C87.0608 172.003 69.1995 169.429 69.0061 165.433L60.6327 171.612L47.6271 168.783C48.4194 174.95 52.7178 180.752 60.6516 185.201C69.7074 190.28 81.9056 192.681 94.6269 192.548L104.564 186.026L94.6269 171.957Z" fill="#C66BC6"/>
<path d="M101.302 180.336C99.8961 180.446 98.4936 180.505 97.1006 180.514L104.562 186.026L94.6254 192.548C96.0393 192.533 97.4588 192.485 98.8822 192.408L108.817 185.886L101.302 180.336Z" fill="white"/>
<path d="M163.173 183.076L165.232 182.761C166.231 182.616 167.233 182.502 168.236 182.408L177.322 176.444L169.13 170.395C167.824 170.499 166.517 170.625 165.211 170.781L173.067 176.583L163.173 183.076Z" fill="#DAE0F6"/>
<path d="M138.072 197.601L138.051 197.586L142.693 188.034L127.877 190.298L125.768 188.787L163.173 183.074L173.067 176.58L165.211 170.778C165.012 170.802 164.811 170.818 164.612 170.844L164.61 170.835L164.134 170.907C162.753 171.087 161.375 171.299 160.003 171.538L111.801 178.903C111.801 178.903 105.897 179.813 104.749 179.967C103.6 180.122 102.45 180.245 101.301 180.333L108.816 185.884L98.8808 192.406C101.36 192.271 103.848 192.054 106.326 191.73L106.327 191.754L107.264 191.61C107.815 191.533 108.365 191.445 108.915 191.358L122.161 189.335C121.505 190.031 120.91 190.736 120.347 191.447L119.547 191.568L117.447 195.89C117.297 196.183 117.155 196.476 117.021 196.768L116.647 197.538L116.681 197.527C116.265 198.528 115.929 199.532 115.687 200.535L126.073 195.559L137.058 200.237C137.289 199.359 137.617 198.477 138.072 197.601Z" fill="#7F3371"/>
<path d="M136.715 202.586C136.741 201.809 136.855 201.025 137.06 200.242L126.074 195.565L115.688 200.54C115.489 201.363 115.353 202.186 115.273 203.007L125.828 197.95L136.715 202.586Z" fill="white"/>
<path d="M164.919 218.472C157.304 218.535 150.009 217.081 144.587 214.04C139.141 210.986 136.571 206.873 136.714 202.584L125.827 197.949L115.272 203.006C114.538 210.533 118.812 217.817 128.334 223.156C136.355 227.653 146.84 230.064 157.971 230.469L153.142 223.491L164.919 218.472Z" fill="#7F3371"/>
<path d="M170.833 218.123C168.858 218.34 166.877 218.458 164.917 218.474L153.142 223.491L157.971 230.469C159.218 230.515 160.475 230.532 161.737 230.526L157.179 223.94L170.833 218.123Z" fill="#DAE0F6"/>
<path d="M222.102 201.486C222.738 199.512 223.038 197.535 222.996 195.586C222.845 188.78 218.523 182.304 209.85 177.441C199.201 171.469 184.211 169.188 169.13 170.39L177.321 176.439L168.235 182.403C177.598 181.514 186.989 182.847 193.598 186.553C199.479 189.85 202.038 194.384 201.42 199.041L208.997 205.18L222.102 201.486Z" fill="#C66BC6"/>
<path d="M221.254 203.684L207.604 207.535L200.641 201.892C199.136 205.572 195.675 209.19 190.315 212.197C184.654 215.373 177.776 217.359 170.834 218.119L157.18 223.936L161.738 230.523C176.574 230.466 192.18 226.937 204.39 220.089C212.951 215.288 218.601 209.552 221.254 203.684Z" fill="#7F3371"/>
<path d="M221.255 203.686C221.585 202.955 221.866 202.223 222.103 201.488L208.997 205.184L201.419 199.045C201.294 199.993 201.031 200.947 200.642 201.895L207.605 207.537L221.255 203.686Z" fill="white"/>
<path d="M143.634 186.094L120.521 189.568L119.547 191.571L142.692 188.035L143.634 186.094Z" fill="white"/>
<path d="M222.997 179.65L222.984 195.231L220.666 196.142L219.049 180.681L222.997 179.65Z" fill="#5A2255"/>
<path d="M115.191 188.769V205.181L120.521 205.016L127.784 194.302L115.191 188.769Z" fill="#7F3371"/>
<path d="M143.634 170.123V186.093C143.634 186.093 139.983 193.605 139.959 193.657C139.934 193.708 133.778 189.982 133.778 189.982C133.778 189.982 133.274 181.476 135.241 177.919C137.207 174.365 143.634 170.123 143.634 170.123Z" fill="#7F3371"/>
<path d="M157.974 214.494V230.463C157.974 230.463 144.479 229.086 140.057 224.319C135.636 219.551 132.872 204.384 132.872 204.384L157.974 214.494Z" fill="#7F3371"/>
<path d="M161.739 214.555L159.855 222.511L161.739 230.524C161.739 230.524 198.057 217.743 204.869 214.496C211.68 211.25 221.255 203.684 221.255 203.684V187.715L161.739 214.555Z" fill="#7F3371"/>
<path d="M161.738 214.553V230.522L157.972 230.465V214.494L161.738 214.553Z" fill="#DAE0F6"/>
<path d="M221.255 187.712V203.682L222.102 201.484V185.515L221.255 187.712Z" fill="#DAE0F6"/>
<path d="M168.235 166.434V182.404C168.235 182.404 179.706 179.044 184.779 178.098C189.853 177.152 202.228 176.575 202.228 176.575C202.228 176.575 195.067 168.444 186.517 165.946C177.966 163.448 168.235 166.434 168.235 166.434Z" fill="#C66BC6"/>
<path d="M47.6278 152.811V168.78L58.7513 173.594L69.873 169.347L57.8473 157.439L47.6278 152.811Z" fill="#C66BC6"/>
<path d="M98.8836 176.437V192.407C98.8836 192.407 105.555 192.009 111.427 190.976C115.822 190.201 119.514 189.741 119.514 189.741L120.521 173.597L98.8836 176.437Z" fill="#5A2255"/>
<path d="M47.5056 150.698V166.667L47.627 168.782V152.813L47.5056 150.698Z" fill="#DAE0F6"/>
<path d="M137.061 184.266V189.811C137.061 189.811 136.431 187.622 136.312 186.439C136.191 185.255 137.061 184.266 137.061 184.266Z" fill="#DAE0F6"/>
<path d="M69.3359 146.361V152.668C69.3359 152.668 68.0642 150.372 68.1116 149.067C68.1571 147.762 69.3359 146.361 69.3359 146.361Z" fill="#DAE0F6"/>
<path d="M98.6045 144.646V128.677C98.6045 128.677 92.6266 126.923 82.4773 130.659C72.3279 134.395 69.8716 140.922 69.8716 140.922C69.8716 140.922 78.353 144.162 84.7933 144.433C91.2373 144.701 98.6045 144.646 98.6045 144.646Z" fill="#C66BC6"/>
<path d="M98.6031 128.677V144.646L103.694 144.214V128.245L100.735 128.003L98.6031 128.677Z" fill="#DAE0F6"/>
<path d="M163.174 167.102V183.073L168.236 182.405V166.434L163.174 167.102Z" fill="#DAE0F6"/>
<path d="M94.6265 176.576V192.545L98.8833 192.405V176.436L94.6265 176.576Z" fill="#DAE0F6"/>
<path d="M155.293 141.946V158.184C155.293 158.184 150.877 156.372 149.964 153.379C149.05 150.384 155.293 141.946 155.293 141.946Z" fill="#5A2255"/>
<path d="M154.589 146.953V158.79L155.091 156.965V144.624L154.589 146.953Z" fill="#DAE0F6"/>
<path d="M149.96 157.1L126.811 160.636L120.521 173.592L143.634 170.12L149.96 157.1Z" fill="#954A83"/>
<path d="M150.903 155.162L127.784 158.636L126.812 160.637L149.961 157.101L150.903 155.162Z" fill="#954A83"/>
<path d="M132.869 148.166C132.867 148.169 132.867 148.173 132.865 148.177L127.784 158.638L150.902 155.165L152.688 151.49C153.126 150.704 153.51 149.913 153.838 149.121L153.952 148.887L153.931 148.886C154.189 148.241 154.403 147.597 154.589 146.953L145.033 142.61L132.869 148.166Z" fill="#954A83"/>
<path d="M133.638 145.589C133.485 146.447 133.237 147.308 132.871 148.164L145.037 142.612L154.593 146.955C154.816 146.178 154.976 145.401 155.093 144.626L145.401 140.223L133.638 145.589Z" fill="white"/>
<path d="M103.695 128.243C111.983 127.905 120.048 129.34 125.917 132.632C131.996 136.041 134.501 140.768 133.639 145.589L145.399 140.222L155.092 144.625C156.295 136.761 152.094 129.083 142.17 123.518C130.967 117.235 114.953 115.024 99.0876 116.67L92.5753 123.928L103.695 128.243Z" fill="#954A83"/>
<path d="M98.6031 128.673C99.4503 128.565 100.299 128.475 101.148 128.401C101.998 128.327 102.847 128.274 103.694 128.239L92.5741 123.924L99.0864 116.666C97.7749 116.802 96.4651 116.958 95.1611 117.146L88.3817 124.705L98.6031 128.673Z" fill="white"/>
<path d="M69.3361 146.362C70.4127 142.147 74.0573 137.911 80.1867 134.474C85.5599 131.461 92.0249 129.518 98.6035 128.677L88.3801 124.71L95.1597 117.152C84.7677 118.652 74.6165 121.813 66.1122 126.58C53.8041 133.482 47.5117 142.318 47.506 150.695L59.8293 153.378L69.3361 146.362Z" fill="#E79CE1"/>
<path d="M69.0057 149.462C68.9565 148.438 69.0721 147.4 69.3374 146.362L59.8325 153.377L47.5092 150.695C47.5092 151.404 47.5395 152.111 47.6286 152.81L60.6342 155.639L69.0057 149.462Z" fill="white"/>
<path d="M97.0997 164.541C89.5336 164.587 82.2935 163.136 76.9033 160.114C71.7992 157.251 69.1989 153.457 69.0037 149.459L60.6302 155.639L47.6246 152.809C48.4168 158.976 52.7154 164.777 60.6491 169.226C69.7049 174.305 81.9032 176.705 94.6245 176.573L104.562 170.051L97.0997 164.541Z" fill="#E79CE1"/>
<path d="M101.302 164.363C99.8961 164.473 98.4936 164.532 97.1006 164.54L104.562 170.051L94.6254 176.573C96.0393 176.558 97.4588 176.51 98.8822 176.433L108.817 169.911L101.302 164.363Z" fill="white"/>
<path d="M163.173 167.103L165.232 166.788C166.231 166.643 167.233 166.529 168.236 166.435L177.322 160.47L169.13 154.422C167.824 154.526 166.517 154.652 165.211 154.808L173.067 160.61L163.173 167.103Z" fill="white"/>
<path d="M165.211 154.807C165.012 154.83 164.811 154.847 164.612 154.873L164.61 154.864L164.134 154.935C162.753 155.116 161.375 155.327 160.002 155.567L111.801 162.932C111.801 162.932 105.897 163.841 104.749 163.996C103.602 164.152 102.45 164.274 101.301 164.364L108.816 169.914L98.8807 176.436C101.36 176.302 103.848 176.085 106.325 175.761L106.327 175.785L107.264 175.641C107.815 175.564 108.365 175.475 108.914 175.389L122.161 173.366C122.005 173.532 121.863 173.699 121.713 173.865C123.16 173.487 124.818 173.294 126.359 173.239L125.766 172.814L163.171 167.101L173.065 160.607L165.211 154.807Z" fill="#9E5190"/>
<path d="M127.876 174.324L126.896 173.623C125.994 173.8 125.092 173.971 124.192 174.157C123.146 174.372 122.062 174.665 120.987 174.702C120.771 174.96 120.555 175.217 120.35 175.477L119.55 175.598L117.45 179.921C117.3 180.213 117.158 180.506 117.024 180.799L116.65 181.568L116.684 181.557C116.268 182.558 115.932 183.562 115.689 184.565L126.076 179.589L137.061 184.267C137.29 183.385 137.62 182.503 138.073 181.627L138.052 181.612L142.694 172.06L127.876 174.324Z" fill="#954A83"/>
<path d="M136.715 186.613C136.741 185.836 136.855 185.052 137.06 184.27L126.074 179.592L115.688 184.568C115.489 185.391 115.353 186.214 115.273 187.035L125.828 181.978L136.715 186.613Z" fill="white"/>
<path d="M164.919 202.501C157.304 202.563 150.009 201.109 144.587 198.068C139.141 195.014 136.571 190.902 136.714 186.612L125.827 181.977L115.272 187.034C114.538 194.561 118.812 201.845 128.334 207.184C136.355 211.681 146.84 214.092 157.971 214.497L153.142 207.519L164.919 202.501Z" fill="#954A83"/>
<path d="M170.835 202.15C168.86 202.367 166.879 202.485 164.92 202.501L153.144 207.52L157.973 214.498C159.22 214.544 160.477 214.561 161.739 214.555L157.181 207.969L170.835 202.15Z" fill="white"/>
<path d="M222.102 185.514C224.966 176.654 221.006 167.725 209.851 161.469C199.201 155.498 184.211 153.217 169.13 154.419L177.321 160.468L168.235 166.432C177.598 165.543 186.989 166.876 193.598 170.582C199.48 173.878 202.038 178.412 201.42 183.07L208.998 189.209L222.102 185.514Z" fill="#E79CE1"/>
<path d="M221.254 187.712L207.604 191.563L200.641 185.921C199.136 189.6 195.675 193.218 190.315 196.226C184.654 199.401 177.776 201.387 170.834 202.148L157.18 207.965L161.738 214.551C176.574 214.494 192.18 210.965 204.39 204.117C212.951 199.316 218.601 193.58 221.254 187.712Z" fill="#954A83"/>
<path d="M221.255 187.714C221.585 186.983 221.866 186.248 222.103 185.516L208.997 189.212L201.419 183.073C201.294 184.021 201.031 184.974 200.642 185.922L207.605 191.565L221.255 187.714Z" fill="white"/>
<path d="M120.521 173.595L119.547 175.599L142.692 172.061L143.634 170.123L120.521 173.595Z" fill="#954A83"/>
<path d="M163.172 167.103V183.074L143.633 186.093V170.123L163.172 167.103Z" fill="#5A2255"/>
<path d="M73.2197 154.174C73.2197 153.716 73.5078 153.182 73.8622 152.983C74.0195 152.895 74.1616 152.891 74.2734 152.95L74.2754 152.946L83.8467 158.259L82.9578 159.982L73.4661 154.692L73.468 154.688C73.3163 154.62 73.2197 154.439 73.2197 154.174Z" fill="#672A5C"/>
<path d="M82.7502 159.49C82.7502 159.948 83.0382 160.16 83.3927 159.961C83.7471 159.763 84.0352 159.229 84.0352 158.77C84.0352 158.312 83.7471 158.1 83.3927 158.299C83.0363 158.496 82.7502 159.03 82.7502 159.49Z" fill="#954A83"/>
<path d="M61.3657 147.559C61.3657 147.101 61.6538 146.567 62.0082 146.368C62.1655 146.28 62.3077 146.276 62.4195 146.335L62.4214 146.331L71.9927 151.644L71.1038 153.367L61.6121 148.077L61.6141 148.073C61.4624 148.005 61.3657 147.826 61.3657 147.559Z" fill="#672A5C"/>
<path d="M70.8965 152.871C70.8965 153.329 71.1847 153.541 71.5392 153.342C71.8936 153.144 72.1816 152.61 72.1816 152.151C72.1816 151.691 71.8936 151.481 71.5392 151.68C71.1847 151.877 70.8965 152.411 70.8965 152.871Z" fill="#954A83"/>
<path d="M41.7573 157.699C41.7535 157.719 41.7554 156.65 41.7554 156.65C41.7554 156.65 42.8679 156.375 42.8584 156.416C42.8565 156.421 42.8528 156.462 42.8452 156.523L57.6608 148.215C58.6672 147.652 60.1929 147.589 61.0648 148.079L82.3226 160C82.6713 159.967 83.2323 159.925 83.2323 159.925V160.994C83.2399 161.373 82.9594 161.776 82.4021 162.089L67.3269 170.543C66.3205 171.106 64.7947 171.168 63.9229 170.681L42.3411 158.579C41.926 158.345 41.7364 158.029 41.7573 157.699Z" fill="#672A5C"/>
<path d="M63.9204 169.623C64.7922 170.111 66.3178 170.05 67.3243 169.485L82.3996 161.032C83.406 160.469 83.5159 159.613 82.644 159.123L61.0622 147.021C60.1904 146.533 58.6646 146.594 57.6582 147.159L42.583 155.612C41.5766 156.176 41.4666 157.032 42.3385 157.521L63.9204 169.623Z" fill="#7F3371"/>
<path d="M42.5417 157.407L64.1237 169.508C64.8969 169.941 66.2577 169.888 67.1504 169.387L82.2258 160.934C83.1185 160.433 83.2151 159.669 82.4437 159.237L60.8618 147.135C60.0885 146.702 58.7277 146.756 57.835 147.256L42.7597 155.709C41.867 156.21 41.7704 156.974 42.5417 157.407Z" fill="#954A83"/>
<path d="M77.4448 161.037L78.1063 161.407C78.3167 161.525 78.69 161.51 78.9326 161.374L79.6964 160.945C79.939 160.809 79.9675 160.599 79.7552 160.481L79.0937 160.109C78.8834 159.991 78.51 160.006 78.2674 160.142L77.5036 160.571C77.261 160.711 77.2344 160.919 77.4448 161.037Z" fill="#7F3371"/>
<path d="M75.5653 159.98L76.2267 160.35C76.4371 160.468 76.8106 160.453 77.0532 160.317L77.8169 159.888C78.0614 159.752 78.0879 159.542 77.8756 159.424L77.2142 159.052C77.0038 158.934 76.6305 158.949 76.3879 159.085L75.624 159.514C75.3795 159.654 75.353 159.862 75.5653 159.98Z" fill="#7F3371"/>
<path d="M73.6834 158.925L74.3449 159.297C74.5553 159.414 74.9286 159.4 75.1712 159.264L75.935 158.835C76.1795 158.698 76.2061 158.489 75.9938 158.371L75.3323 157.999C75.122 157.881 74.7485 157.896 74.5059 158.032L73.7422 158.461C73.4996 158.599 73.4731 158.807 73.6834 158.925Z" fill="#7F3371"/>
<path d="M71.8031 157.871L72.4645 158.243C72.6749 158.361 73.0482 158.346 73.2908 158.21L74.0547 157.781C74.2992 157.645 74.3257 157.435 74.1134 157.317L73.452 156.946C73.2416 156.828 72.8683 156.842 72.6257 156.979L71.8618 157.408C71.6192 157.546 71.5908 157.754 71.8031 157.871Z" fill="#7F3371"/>
<path d="M69.9217 156.817L70.5832 157.187C70.7936 157.305 71.1669 157.29 71.4095 157.154L72.1733 156.725C72.4178 156.589 72.4444 156.379 72.2321 156.261L71.5706 155.889C71.3603 155.771 70.9868 155.786 70.7442 155.922L69.9804 156.351C69.7378 156.491 69.7113 156.699 69.9217 156.817Z" fill="#7F3371"/>
<path d="M68.0409 155.759L68.7023 156.129C68.9127 156.247 69.286 156.233 69.5286 156.096L70.2925 155.667C70.537 155.531 70.5635 155.321 70.3512 155.203L69.6898 154.832C69.4794 154.714 69.1059 154.729 68.8634 154.865L68.0996 155.294C67.857 155.434 67.8305 155.642 68.0409 155.759Z" fill="#7F3371"/>
<path d="M66.161 154.705L66.8224 155.077C67.0328 155.195 67.4061 155.18 67.6487 155.044L68.4126 154.615C68.6571 154.479 68.6836 154.269 68.4713 154.151L67.8099 153.779C67.5995 153.661 67.2261 153.676 66.9835 153.812L66.2197 154.241C65.9753 154.379 65.9487 154.587 66.161 154.705Z" fill="#7F3371"/>
<path d="M64.28 153.651L64.9415 154.023C65.1518 154.141 65.5253 154.126 65.7679 153.99L66.5317 153.561C66.7762 153.425 66.8028 153.215 66.5905 153.097L65.9289 152.725C65.7185 152.607 65.3452 152.622 65.1026 152.758L64.3388 153.187C64.0962 153.325 64.0696 153.533 64.28 153.651Z" fill="#7F3371"/>
<path d="M75.37 162.201L76.0314 162.571C76.2418 162.688 76.6151 162.674 76.8577 162.538L77.6216 162.109C77.8661 161.972 77.8926 161.763 77.6803 161.645L77.0189 161.275C76.8085 161.157 76.4351 161.172 76.1925 161.308L75.4286 161.737C75.186 161.873 75.1596 162.081 75.37 162.201Z" fill="#7F3371"/>
<path d="M73.4896 161.145L74.1511 161.516C74.3614 161.633 74.7348 161.619 74.9774 161.482L75.7412 161.053C75.9857 160.917 76.0122 160.707 75.8 160.59L75.1385 160.218C74.9281 160.1 74.5547 160.115 74.3121 160.251L73.5484 160.68C73.3039 160.818 73.2773 161.026 73.4896 161.145Z" fill="#7F3371"/>
<path d="M71.6072 160.09L72.2687 160.462C72.4791 160.58 72.8525 160.565 73.0951 160.429L73.8589 160C74.1034 159.864 74.1299 159.654 73.9176 159.536L73.2561 159.164C73.0457 159.047 72.6724 159.061 72.4298 159.198L71.666 159.626C71.4234 159.765 71.3968 159.973 71.6072 160.09Z" fill="#7F3371"/>
<path d="M69.7287 159.035L70.3902 159.407C70.6006 159.524 70.974 159.51 71.2166 159.373L71.9805 158.944C72.2249 158.808 72.2515 158.598 72.0392 158.481L71.3776 158.111C71.1673 157.993 70.7939 158.007 70.5513 158.144L69.7875 158.573C69.5449 158.709 69.5184 158.917 69.7287 159.035Z" fill="#7F3371"/>
<path d="M67.8465 157.984L68.508 158.354C68.7184 158.471 69.0918 158.457 69.3344 158.321L70.0981 157.892C70.3426 157.755 70.3692 157.546 70.1569 157.428L69.4954 157.058C69.2851 156.94 68.9117 156.955 68.6691 157.091L67.9053 157.52C67.6627 157.656 67.6361 157.864 67.8465 157.984Z" fill="#7F3371"/>
<path d="M65.9657 156.928L66.6271 157.298C66.8375 157.416 67.2109 157.401 67.4535 157.265L68.2173 156.836C68.4618 156.7 68.4883 156.49 68.276 156.372L67.6146 156C67.4042 155.882 67.0309 155.897 66.7883 156.033L66.0244 156.462C65.7818 156.6 65.7553 156.808 65.9657 156.928Z" fill="#7F3371"/>
<path d="M64.0864 155.873L64.7479 156.245C64.9583 156.363 65.3317 156.348 65.5743 156.212L66.338 155.783C66.5806 155.647 66.6091 155.437 66.3968 155.319L65.7353 154.947C65.525 154.83 65.1516 154.844 64.909 154.981L64.1452 155.41C63.9007 155.546 63.8741 155.754 64.0864 155.873Z" fill="#7F3371"/>
<path d="M62.2049 154.818L62.8664 155.189C63.0768 155.307 63.4501 155.293 63.6927 155.156L64.4565 154.727C64.701 154.591 64.7276 154.381 64.5153 154.264L63.8538 153.894C63.6435 153.776 63.2701 153.79 63.0275 153.927L62.2637 154.356C62.0211 154.49 61.9945 154.698 62.2049 154.818Z" fill="#7F3371"/>
<path d="M60.3226 153.765L60.9841 154.137C61.1944 154.255 61.5678 154.24 61.8104 154.104L62.5742 153.675C62.8187 153.539 62.8452 153.329 62.633 153.211L61.9715 152.841C61.7611 152.723 61.3878 152.738 61.1452 152.874L60.3814 153.303C60.1388 153.437 60.1103 153.645 60.3226 153.765Z" fill="#7F3371"/>
<path d="M58.4403 152.709L59.1017 153.079C59.3121 153.196 59.6854 153.182 59.928 153.045L60.6919 152.617C60.9364 152.48 60.9629 152.27 60.7506 152.153L60.0892 151.783C59.8788 151.665 59.5054 151.68 59.2628 151.816L58.499 152.245C58.2564 152.381 58.2299 152.589 58.4403 152.709Z" fill="#7F3371"/>
<path d="M56.5601 151.654L57.2215 152.024C57.4319 152.142 57.8052 152.127 58.0478 151.991L58.8117 151.562C59.0543 151.426 59.0827 151.216 58.8704 151.098L58.209 150.726C57.9986 150.608 57.6251 150.623 57.3825 150.759L56.6188 151.188C56.3762 151.326 56.3497 151.534 56.5601 151.654Z" fill="#7F3371"/>
<path d="M54.6789 150.599L55.3404 150.971C55.5508 151.089 55.9242 151.074 56.1668 150.938L56.9306 150.509C57.1751 150.373 57.2017 150.163 56.9894 150.045L56.328 149.673C56.1176 149.555 55.7441 149.57 55.5015 149.706L54.7377 150.135C54.4951 150.271 54.4686 150.479 54.6789 150.599Z" fill="#7F3371"/>
<path d="M73.2933 163.364L73.9548 163.736C74.1651 163.854 74.5386 163.839 74.7812 163.703L75.5449 163.274C75.7894 163.138 75.8159 162.928 75.6037 162.81L74.9422 162.44C74.7318 162.322 74.3585 162.337 74.1159 162.473L73.3521 162.902C73.1095 163.037 73.0829 163.245 73.2933 163.364Z" fill="#7F3371"/>
<path d="M71.4129 162.311L72.0744 162.681C72.2848 162.799 72.6582 162.784 72.9008 162.648L73.6645 162.219C73.909 162.083 73.9356 161.873 73.7233 161.755L73.0618 161.383C72.8515 161.265 72.4781 161.28 72.2355 161.416L71.4717 161.845C71.2291 161.983 71.2026 162.191 71.4129 162.311Z" fill="#7F3371"/>
<path d="M69.5312 161.255L70.1927 161.627C70.4031 161.745 70.7764 161.73 71.019 161.594L71.7829 161.165C72.0254 161.029 72.0539 160.819 71.8416 160.701L71.1802 160.329C70.9698 160.211 70.5964 160.226 70.3539 160.362L69.59 160.791C69.3474 160.927 69.3209 161.135 69.5312 161.255Z" fill="#7F3371"/>
<path d="M67.6517 160.2L68.3132 160.572C68.5235 160.69 68.8969 160.675 69.1395 160.539L69.9033 160.11C70.1478 159.974 70.1743 159.764 69.9621 159.646L69.3006 159.276C69.0902 159.158 68.7169 159.173 68.4743 159.309L67.7105 159.738C67.4679 159.872 67.4413 160.08 67.6517 160.2Z" fill="#7F3371"/>
<path d="M65.7713 159.146L66.4328 159.518C66.6432 159.636 67.0165 159.621 67.2591 159.485L68.0229 159.056C68.2674 158.92 68.294 158.71 68.0817 158.592L67.4202 158.222C67.2099 158.104 66.8365 158.119 66.5939 158.255L65.8301 158.684C65.5856 158.818 65.5591 159.026 65.7713 159.146Z" fill="#7F3371"/>
<path d="M63.8901 158.092L64.5516 158.462C64.762 158.579 65.1353 158.565 65.3779 158.428L66.1417 157.999C66.3843 157.863 66.4128 157.653 66.2005 157.536L65.539 157.166C65.3287 157.048 64.9552 157.063 64.7126 157.199L63.9489 157.628C63.7063 157.764 63.6798 157.972 63.8901 158.092Z" fill="#7F3371"/>
<path d="M62.0086 157.034L62.6701 157.406C62.8805 157.524 63.2538 157.509 63.4964 157.373L64.2602 156.944C64.5047 156.807 64.5313 156.598 64.319 156.48L63.6575 156.108C63.4472 155.99 63.0737 156.005 62.8311 156.141L62.0674 156.57C61.8229 156.706 61.7964 156.914 62.0086 157.034Z" fill="#7F3371"/>
<path d="M58.2476 154.926L60.7891 156.352C60.9995 156.47 61.3729 156.455 61.6155 156.319L62.3794 155.89C62.6239 155.754 62.6504 155.544 62.4381 155.426L59.8965 154.001C59.6862 153.884 59.3127 153.898 59.0701 154.035L58.3063 154.463C58.0637 154.598 58.0372 154.806 58.2476 154.926Z" fill="#7F3371"/>
<path d="M56.3656 153.871L57.027 154.241C57.2374 154.359 57.6109 154.345 57.8535 154.208L58.6172 153.779C58.8617 153.643 58.8882 153.433 58.6759 153.316L58.0145 152.946C57.8041 152.828 57.4308 152.842 57.1882 152.979L56.4243 153.408C56.1817 153.544 56.1552 153.754 56.3656 153.871Z" fill="#7F3371"/>
<path d="M54.4847 152.816L55.1462 153.186C55.3565 153.304 55.73 153.289 55.9726 153.153L56.7363 152.724C56.9808 152.588 57.0074 152.378 56.7951 152.26L56.1336 151.889C55.9232 151.771 55.5499 151.785 55.3073 151.922L54.5435 152.351C54.3009 152.489 54.2743 152.698 54.4847 152.816Z" fill="#7F3371"/>
<path d="M52.6029 151.761L53.2643 152.133C53.4747 152.251 53.848 152.236 54.0906 152.1L54.8545 151.671C55.099 151.535 55.1255 151.325 54.9132 151.207L54.2518 150.835C54.0414 150.717 53.6681 150.732 53.4255 150.868L52.6616 151.297C52.419 151.433 52.3925 151.643 52.6029 151.761Z" fill="#7F3371"/>
<path d="M71.2186 164.529L71.8801 164.899C72.0904 165.016 72.4638 165.002 72.7064 164.865L73.4702 164.437C73.7147 164.3 73.7412 164.09 73.529 163.973L72.8675 163.603C72.6571 163.485 72.2837 163.5 72.0411 163.636L71.2774 164.065C71.0348 164.201 71.0082 164.411 71.2186 164.529Z" fill="#7F3371"/>
<path d="M69.3377 163.473L69.9992 163.843C70.2096 163.96 70.5829 163.946 70.8255 163.81L71.5893 163.381C71.8338 163.244 71.8604 163.035 71.6481 162.917L70.9866 162.545C70.7763 162.427 70.4028 162.442 70.1602 162.578L69.3965 163.007C69.1539 163.145 69.1274 163.355 69.3377 163.473Z" fill="#7F3371"/>
<path d="M67.4559 162.42L68.1173 162.79C68.3277 162.908 68.7011 162.893 68.9437 162.757L69.7076 162.328C69.9521 162.192 69.9785 161.982 69.7662 161.864L69.1048 161.492C68.8944 161.374 68.5211 161.389 68.2785 161.525L67.5146 161.954C67.272 162.092 67.2455 162.302 67.4559 162.42Z" fill="#7F3371"/>
<path d="M65.5774 161.364L66.2388 161.736C66.4492 161.854 66.8227 161.839 67.0652 161.703L67.8291 161.274C68.0736 161.138 68.1001 160.928 67.8879 160.81L67.2264 160.438C67.016 160.32 66.6426 160.335 66.4 160.471L65.6361 160.9C65.3935 161.037 65.367 161.246 65.5774 161.364Z" fill="#7F3371"/>
<path d="M63.6961 160.312L64.3576 160.682C64.568 160.799 64.9413 160.785 65.1839 160.649L65.9477 160.22C66.1922 160.083 66.2188 159.874 66.0065 159.756L65.345 159.386C65.1347 159.268 64.7612 159.283 64.5186 159.419L63.7548 159.848C63.5103 159.984 63.4839 160.194 63.6961 160.312Z" fill="#7F3371"/>
<path d="M61.8149 159.256L62.4764 159.626C62.6868 159.744 63.0602 159.729 63.3028 159.593L64.0665 159.164C64.3091 159.028 64.3376 158.818 64.1253 158.7L63.4638 158.328C63.2535 158.21 62.8801 158.225 62.6375 158.361L61.8737 158.79C61.6311 158.928 61.6046 159.138 61.8149 159.256Z" fill="#7F3371"/>
<path d="M59.933 158.199L60.5944 158.569C60.8048 158.687 61.1782 158.673 61.4208 158.536L62.1846 158.107C62.4291 157.971 62.4556 157.761 62.2433 157.644L61.5819 157.272C61.3715 157.154 60.9982 157.169 60.7556 157.305L59.9917 157.734C59.7491 157.872 59.7207 158.082 59.933 158.199Z" fill="#7F3371"/>
<path d="M58.0526 157.145L58.714 157.515C58.9244 157.633 59.2977 157.618 59.5403 157.482L60.3042 157.053C60.5487 156.917 60.5752 156.707 60.363 156.589L59.7015 156.217C59.4911 156.099 59.1178 156.114 58.8752 156.25L58.1113 156.679C57.8687 156.817 57.8422 157.027 58.0526 157.145Z" fill="#7F3371"/>
<path d="M56.1707 156.09L56.8322 156.462C57.0426 156.579 57.4159 156.565 57.6585 156.429L58.4223 156C58.6668 155.863 58.6934 155.654 58.4811 155.536L57.8197 155.164C57.6093 155.046 57.2359 155.061 56.9933 155.197L56.2295 155.626C55.9869 155.762 55.9604 155.972 56.1707 156.09Z" fill="#7F3371"/>
<path d="M54.2899 155.031L54.9513 155.402C55.1617 155.519 55.5352 155.505 55.7778 155.368L56.5415 154.939C56.786 154.803 56.8125 154.593 56.6003 154.476L55.9388 154.106C55.7284 153.988 55.3551 154.002 55.1125 154.139L54.3487 154.568C54.1042 154.704 54.0776 154.914 54.2899 155.031Z" fill="#7F3371"/>
<path d="M52.4076 153.977L53.069 154.347C53.2794 154.465 53.6527 154.45 53.8953 154.314L54.6592 153.885C54.9037 153.749 54.9302 153.539 54.7179 153.421L54.0565 153.049C53.8461 152.931 53.4726 152.946 53.23 153.082L52.4663 153.511C52.2237 153.649 52.1972 153.859 52.4076 153.977Z" fill="#7F3371"/>
<path d="M50.5291 152.924L51.1906 153.294C51.401 153.412 51.7743 153.397 52.0169 153.261L52.7807 152.832C53.0252 152.695 53.0518 152.486 52.8395 152.368L52.1781 151.996C51.9677 151.878 51.5943 151.893 51.3517 152.029L50.5879 152.458C50.3434 152.596 50.3169 152.806 50.5291 152.924Z" fill="#7F3371"/>
<path d="M69.145 165.693L69.8065 166.065C70.0169 166.183 70.3903 166.168 70.6329 166.032L71.3966 165.603C71.6392 165.467 71.6677 165.257 71.4554 165.139L70.7939 164.769C70.5835 164.651 70.2102 164.666 69.9676 164.802L69.2038 165.231C68.9612 165.366 68.9346 165.575 69.145 165.693Z" fill="#7F3371"/>
<path d="M67.2655 164.635L67.9269 165.007C68.1373 165.125 68.5108 165.11 68.7534 164.974L69.5171 164.545C69.7616 164.409 69.7881 164.199 69.5758 164.081L68.9144 163.711C68.704 163.593 68.3307 163.608 68.0881 163.744L67.3242 164.173C67.0816 164.307 67.0551 164.517 67.2655 164.635Z" fill="#7F3371"/>
<path d="M65.3836 163.583L66.0451 163.955C66.2555 164.073 66.6288 164.058 66.8714 163.922L67.6352 163.493C67.8797 163.357 67.9063 163.147 67.694 163.029L67.0325 162.658C66.8222 162.54 66.4488 162.554 66.2062 162.691L65.4424 163.12C65.1998 163.256 65.1733 163.466 65.3836 163.583Z" fill="#7F3371"/>
<path d="M57.8605 159.364L64.1642 162.898C64.3746 163.016 64.7479 163.001 64.9905 162.865L65.7544 162.436C65.9989 162.3 66.0254 162.09 65.8131 161.972L59.5094 158.438C59.299 158.32 58.9256 158.334 58.683 158.471L57.9192 158.9C57.6766 159.036 57.6501 159.246 57.8605 159.364Z" fill="#7F3371"/>
<path d="M55.9792 158.307L56.6408 158.679C56.8512 158.797 57.2245 158.782 57.4671 158.646L58.2309 158.217C58.4754 158.081 58.502 157.871 58.2897 157.753L57.6282 157.381C57.4179 157.263 57.0444 157.278 56.8018 157.414L56.038 157.843C55.7954 157.979 55.7688 158.189 55.9792 158.307Z" fill="#7F3371"/>
<path d="M54.0972 157.255L54.7586 157.627C54.969 157.745 55.3423 157.73 55.5849 157.594L56.3488 157.165C56.5914 157.028 56.6198 156.819 56.4075 156.701L55.7461 156.331C55.5357 156.213 55.1623 156.228 54.9197 156.364L54.1558 156.793C53.9132 156.927 53.8868 157.137 54.0972 157.255Z" fill="#7F3371"/>
<path d="M52.2176 156.197L52.8791 156.568C53.0895 156.686 53.4628 156.672 53.7054 156.535L54.4692 156.106C54.7137 155.97 54.7403 155.76 54.528 155.643L53.8665 155.273C53.6561 155.155 53.2827 155.169 53.0401 155.306L52.2764 155.735C52.0319 155.871 52.0053 156.079 52.2176 156.197Z" fill="#7F3371"/>
<path d="M50.3357 155.143L50.9972 155.515C51.2076 155.632 51.581 155.618 51.8236 155.481L52.5875 155.052C52.8319 154.916 52.8584 154.706 52.6461 154.589L51.9846 154.219C51.7743 154.101 51.4009 154.115 51.1583 154.252L50.3945 154.681C50.1519 154.817 50.1254 155.025 50.3357 155.143Z" fill="#7F3371"/>
<path d="M48.4555 154.088L49.117 154.46C49.3274 154.578 49.7008 154.563 49.9434 154.427L50.7072 153.998C50.9498 153.862 50.9782 153.652 50.7659 153.534L50.1044 153.162C49.894 153.044 49.5207 153.059 49.2781 153.195L48.5143 153.624C48.2698 153.762 48.2432 153.97 48.4555 154.088Z" fill="#7F3371"/>
<path d="M62.3977 152.597L63.0591 152.967C63.2695 153.085 63.643 153.07 63.8856 152.934L64.6494 152.505C64.8939 152.369 64.9204 152.159 64.7082 152.041L64.0467 151.671C63.8363 151.553 63.4629 151.568 63.2203 151.704L62.4564 152.133C62.212 152.269 62.1854 152.478 62.3977 152.597Z" fill="#7F3371"/>
<path d="M60.5155 151.542L61.1769 151.912C61.3873 152.03 61.7608 152.015 62.0034 151.879L62.7671 151.45C63.0116 151.314 63.0381 151.104 62.8258 150.986L62.1644 150.614C61.954 150.496 61.5807 150.511 61.3381 150.647L60.5742 151.076C60.3316 151.214 60.3051 151.422 60.5155 151.542Z" fill="#7F3371"/>
<path d="M58.6341 150.489L59.2956 150.859C59.506 150.977 59.8794 150.962 60.122 150.826L60.8857 150.397C61.1302 150.261 61.1568 150.051 60.9445 149.933L60.283 149.561C60.0727 149.444 59.6993 149.458 59.4567 149.595L58.6929 150.024C58.4503 150.162 58.4218 150.37 58.6341 150.489Z" fill="#7F3371"/>
<path d="M56.7529 149.433L57.4144 149.805C57.6248 149.923 57.9981 149.908 58.2407 149.772L59.0045 149.343C59.2471 149.206 59.2756 148.997 59.0633 148.879L58.4018 148.507C58.1915 148.389 57.8181 148.404 57.5755 148.54L56.8117 148.969C56.5691 149.105 56.5425 149.313 56.7529 149.433Z" fill="#7F3371"/>
<path d="M58.7074 148.19L59.6304 148.707C59.7688 148.785 60.0151 148.775 60.1762 148.685L60.4776 148.516C60.6387 148.426 60.6558 148.288 60.5175 148.21L59.5945 147.693C59.4561 147.616 59.2096 147.625 59.0504 147.715L58.7491 147.884C58.5861 147.975 58.5691 148.111 58.7074 148.19Z" fill="#7F3371"/>
<path d="M60.5892 149.243L61.5122 149.76C61.6506 149.838 61.897 149.829 62.0581 149.738L62.3595 149.569C62.5206 149.479 62.5376 149.341 62.3993 149.263L61.4763 148.746C61.3379 148.669 61.0915 148.678 60.9304 148.768L60.629 148.938C60.4679 149.028 60.449 149.164 60.5892 149.243Z" fill="#7F3371"/>
<path d="M62.4706 150.3L63.3936 150.817C63.5319 150.895 63.7783 150.886 63.9375 150.795L64.2389 150.626C64.4 150.536 64.417 150.398 64.2787 150.32L63.3556 149.803C63.2173 149.726 62.971 149.735 62.8099 149.825L62.5085 149.995C62.3493 150.085 62.3322 150.221 62.4706 150.3Z" fill="#7F3371"/>
<path d="M64.349 151.354L65.272 151.871C65.4104 151.948 65.6568 151.939 65.8179 151.849L66.1192 151.679C66.2803 151.589 66.2974 151.451 66.159 151.374L65.236 150.857C65.0977 150.779 64.8513 150.788 64.6921 150.879L64.3906 151.048C64.2276 151.138 64.2106 151.274 64.349 151.354Z" fill="#7F3371"/>
<path d="M66.2313 152.411L67.1543 152.928C67.2927 153.005 67.5391 152.996 67.7002 152.906L68.0016 152.736C68.1627 152.646 68.1797 152.508 68.0414 152.431L67.1183 151.914C66.98 151.836 66.7336 151.845 66.5744 151.936L66.2731 152.105C66.1101 152.195 66.0911 152.331 66.2313 152.411Z" fill="#7F3371"/>
<path d="M68.1116 153.463L69.0346 153.98C69.1729 154.058 69.4193 154.049 69.5785 153.958L69.88 153.789C70.0411 153.699 70.0581 153.561 69.9198 153.483L68.9968 152.966C68.8584 152.889 68.612 152.898 68.4509 152.988L68.1495 153.158C67.9903 153.248 67.9732 153.384 68.1116 153.463Z" fill="#7F3371"/>
<path d="M69.994 154.518L70.917 155.035C71.0554 155.112 71.3018 155.103 71.461 155.013L71.7623 154.844C71.9234 154.753 71.9405 154.615 71.8021 154.538L70.8791 154.021C70.7407 153.943 70.4943 153.953 70.3332 154.043L70.0318 154.212C69.8726 154.302 69.8538 154.439 69.994 154.518Z" fill="#7F3371"/>
<path d="M71.8749 155.575L72.7979 156.092C72.9362 156.169 73.1827 156.16 73.3438 156.07L73.6451 155.901C73.8062 155.81 73.8233 155.672 73.6849 155.595L72.7619 155.078C72.6235 155 72.3772 155.01 72.2161 155.1L71.9148 155.269C71.7537 155.359 71.7365 155.496 71.8749 155.575Z" fill="#7F3371"/>
<path d="M73.7567 156.628L74.6798 157.145C74.8181 157.223 75.0644 157.213 75.2255 157.123L75.5269 156.954C75.688 156.864 75.7052 156.726 75.5668 156.648L74.6438 156.131C74.5054 156.054 74.2589 156.063 74.0997 156.153L73.7984 156.322C73.6335 156.411 73.6165 156.549 73.7567 156.628Z" fill="#7F3371"/>
<path d="M75.6356 157.682L76.5586 158.199C76.697 158.277 76.9434 158.267 77.1026 158.177L77.4039 158.008C77.565 157.918 77.5821 157.779 77.4437 157.702L76.5207 157.185C76.3823 157.108 76.1359 157.117 75.9748 157.207L75.6734 157.376C75.5142 157.465 75.4973 157.603 75.6356 157.682Z" fill="#7F3371"/>
<path d="M77.5179 158.735L78.4409 159.252C78.5793 159.329 78.8257 159.32 78.9868 159.23L79.2882 159.06C79.4493 158.97 79.4663 158.832 79.328 158.755L78.405 158.238C78.2666 158.16 78.0202 158.169 77.8591 158.26L77.5577 158.429C77.3947 158.519 77.3777 158.657 77.5179 158.735Z" fill="#7F3371"/>
<path d="M79.3983 159.792L80.3213 160.31C80.4597 160.387 80.7061 160.378 80.8672 160.287L81.1686 160.118C81.3297 160.028 81.3467 159.89 81.2083 159.813L80.2853 159.295C80.147 159.218 79.9005 159.227 79.7413 159.317L79.4399 159.487C79.2769 159.577 79.2599 159.715 79.3983 159.792Z" fill="#7F3371"/>
<path d="M51.5986 161.534L57.4306 164.805C57.7717 164.996 58.3726 164.972 58.7668 164.751L61.7461 163.08C62.1403 162.859 62.184 162.522 61.8428 162.331L56.0109 159.06C55.6698 158.868 55.069 158.892 54.6748 159.113L51.6953 160.784C51.3011 161.005 51.2575 161.342 51.5986 161.534Z" fill="#7F3371"/>
<path d="M80.2172 162.931L81.868 162.005C81.9533 161.957 82.0234 161.827 82.0234 161.716C82.0234 161.606 81.9533 161.554 81.868 161.602L80.2172 162.528C80.1319 162.576 80.0617 162.707 80.0617 162.817C80.0598 162.927 80.13 162.979 80.2172 162.931Z" fill="white"/>
<path d="M77.7743 164.326L79.4251 163.4C79.5104 163.352 79.5806 163.222 79.5806 163.111C79.5806 163.001 79.5104 162.949 79.4251 162.997L77.7743 163.923C77.689 163.971 77.6189 164.102 77.6189 164.212C77.6189 164.323 77.689 164.374 77.7743 164.326Z" fill="white"/>
<path d="M70.3744 168.478L72.0253 167.552C72.1106 167.504 72.1807 167.374 72.1807 167.263C72.1807 167.153 72.1106 167.101 72.0253 167.149L70.3744 168.075C70.2891 168.123 70.2191 168.254 70.2191 168.364C70.2191 168.475 70.2891 168.526 70.3744 168.478Z" fill="white"/>
<path d="M60.3556 125.694L61.1193 125.269V125.271C61.2614 125.173 61.4548 125.171 61.667 125.289L84.3406 138.004C84.7784 138.249 85.1348 138.911 85.1348 139.478V157.975C85.1348 158.273 85.0343 158.485 84.8751 158.584L84.0582 159.043L83.6489 158.17L61.667 145.844C61.2311 145.599 60.8729 144.936 60.8729 144.369V126.243C60.7156 126.34 60.5925 126.416 60.583 126.416C60.5546 126.414 60.3556 125.694 60.3556 125.694Z" fill="#672A5C"/>
<path d="M83.5188 159.016L60.8454 146.301C60.4076 146.057 60.0512 145.394 60.0512 144.827V126.33C60.0512 125.765 60.4094 125.502 60.8454 125.747L83.5188 138.461C83.9567 138.706 84.313 139.369 84.313 139.936V158.433C84.313 159 83.9567 159.261 83.5188 159.016Z" fill="#7F3371"/>
<path d="M83.3339 158.636L61.028 146.128C60.5978 145.886 60.2472 145.233 60.2472 144.677V126.611C60.2472 126.055 60.5997 125.795 61.028 126.037L83.3339 138.545C83.7641 138.786 84.1167 139.44 84.1167 139.996V158.062C84.1167 158.618 83.7641 158.877 83.3339 158.636Z" fill="#954A83"/>
<path d="M60.9618 127.604L83.4004 140.186V157.066L60.9618 144.484V127.604Z" fill="#672A5C"/>
<path d="M72.5005 133.236C72.5005 133.437 72.3754 133.527 72.2219 133.44C72.0684 133.354 71.9433 133.122 71.9433 132.921C71.9433 132.721 72.0684 132.63 72.2219 132.717C72.3754 132.803 72.5005 133.035 72.5005 133.236Z" fill="white"/>
<path d="M71.1421 132.433C71.1421 132.595 71.0397 132.668 70.9165 132.598C70.7914 132.528 70.6909 132.341 70.6909 132.179C70.6909 132.017 70.7914 131.943 70.9165 132.013C71.0397 132.083 71.1421 132.271 71.1421 132.433Z" fill="white"/>
<path d="M84.3499 140.921C84.3442 140.875 84.2779 140.873 84.276 140.921C84.2343 141.731 84.2722 142.544 84.2627 143.354C84.2532 144.162 84.2608 144.98 84.3063 145.786C84.3101 145.837 84.3935 145.872 84.3935 145.764C84.3935 144.28 84.5205 142.471 84.3499 140.921Z" fill="white"/>
<path d="M82.7482 138.146C82.1435 137.712 79.4314 136.186 78.4118 135.663C78.2544 135.582 78.1805 135.617 78.3378 135.735C79.113 136.32 81.9957 137.968 82.6875 138.249C82.7444 138.275 82.8429 138.216 82.7482 138.146Z" fill="white"/>
<path d="M77.2608 135.083C76.6581 134.649 73.944 133.123 72.9243 132.6C72.767 132.519 72.6931 132.554 72.8504 132.672C73.6256 133.257 76.5084 134.903 77.2002 135.186C77.2571 135.21 77.3556 135.151 77.2608 135.083Z" fill="white"/>
<path d="M60.7582 167.871C62.1759 168.538 63.6429 169.712 65.3316 169.895C66.3153 170.001 67.1169 169.508 67.9509 169.072C68.6673 168.696 69.361 168.275 70.0888 167.919C70.1077 167.91 70.1229 167.934 70.1059 167.947C69.3061 168.514 68.4607 168.994 67.5984 169.466C66.8763 169.86 66.1162 170.176 65.269 170.103C63.8286 169.976 61.9333 168.865 60.7241 167.919C60.6938 167.895 60.7298 167.859 60.7582 167.871Z" fill="white"/>
<path d="M32.1236 152.568C32.0629 152.597 42.1024 146.885 44.9662 145.07C46.5317 144.078 47.883 143.338 48.9216 142.819C49.784 142.386 50.5497 142.209 50.9212 142.062C51.8309 141.699 51.7039 142.263 51.5182 142.743C51.2851 143.345 49.1169 144.199 49.1169 144.199C49.1169 144.199 50.4151 144.961 52.1304 144.527C53.1899 144.258 53.8116 143.886 54.3726 143.571C55.6292 142.865 56.3929 142.509 56.7057 143.266C57.1037 143.312 57.2648 142.911 57.3653 143.798C58.1499 143.798 58.1576 146.421 54.9545 147.833C51.4406 149.383 49.3633 148.33 47.5627 148.853C45.7622 149.376 43.2471 152.796 38.1506 156.019C33.0541 159.242 32.1236 152.568 32.1236 152.568Z" fill="#FFC9B6"/>
<path d="M40.4969 190.222C40.4969 190.222 45.7734 188.419 47.9947 185.494C49.3385 183.725 48.0175 181.623 47.447 180.629C47.0736 179.981 45.7033 179.326 43.9729 178.926C39.5928 177.914 33.3819 178.65 28.3612 180.817C23.3425 182.983 40.4969 190.222 40.4969 190.222Z" fill="#203136"/>
<path d="M59.048 218.414C61.1158 219.212 61.7071 219.933 61.1498 221.222C60.3311 223.118 58.2482 224.292 56.404 224.664C53.6217 225.226 51.5369 228.959 48.5669 225.984C47.805 225.222 48.476 223.214 48.7394 222.161C48.6863 221.426 50.0282 219.108 49.924 217.126C52.856 218.212 53.1858 217.549 53.9743 218.05C53.8549 218.738 53.7165 219.421 53.527 220.086C54.5864 219.769 57.6626 217.881 59.048 218.414Z" fill="#FFB9A4"/>
<path d="M48.7114 221.805C48.7114 221.805 50.4494 222.412 51.5695 222.758C52.6877 223.105 55.3735 223.244 57.4299 221.31C59.0276 219.808 56.5713 218.773 56.5713 218.773C56.5713 218.773 58.7604 216.339 61.3493 217.389C62.551 217.877 63.2674 220.435 62.5832 221.578C61.8535 222.795 60.3411 224.093 59.1773 224.378C58.0155 224.662 55.7202 225.418 54.8408 225.932C53.2241 226.88 50.4797 228.513 48.6336 226.784C46.7876 225.056 48.7114 221.805 48.7114 221.805Z" fill="#954A83"/>
<path d="M34.3753 211.62C34.3109 211.914 35.2945 216.331 35.7286 217.579C36.0678 218.553 36.1493 219.125 37.1141 219.421C39.1003 219.537 39.197 219.872 39.6613 220.843C40.0669 221.691 37.2468 223.396 35.3306 223.153C34.8189 223.088 32.5047 223.035 31.7523 221.849C30.6473 220.108 31.8526 218.58 31.1836 216.575C30.4312 214.324 27.4119 214.411 28.316 212.012C28.5851 211.298 29.4002 209.853 29.7641 209.247C29.9991 208.855 30.3175 207.583 30.5885 205.891C32.7208 206.856 34.5952 206.674 35.6679 207.075C35.1505 208.428 34.8359 209.51 34.3753 211.62Z" fill="#FFC9B6"/>
<path d="M32.4049 221.019C32.1604 219.419 32.1604 216.1 31.3682 214.858C30.7257 213.849 29.179 212.386 27.496 211.769C28.6199 210.026 29.7666 209.249 29.7666 209.249C29.7666 209.249 32.8332 211.366 33.199 214.179C33.5648 216.991 33.5325 220.564 35.5814 220.802C37.6302 221.039 36.7015 219.241 36.7015 219.241C36.7015 219.241 40.0922 217.643 40.4769 220.839C40.6096 221.949 40.115 222.851 38.1306 223.745C37.1242 224.2 35.97 224.443 34.8385 224.375C33.616 223.878 32.6475 222.617 32.4049 221.019Z" fill="#954A83"/>
<path d="M30.2574 217.181C30.0262 215.569 25.7067 214.619 27.4125 211.894C27.4409 211.85 27.4675 211.813 27.4959 211.769C29.1789 212.386 30.7256 213.849 31.3681 214.858C32.1603 216.102 32.1603 219.42 32.4048 221.019C32.6474 222.617 33.6159 223.88 34.8384 224.375C33.7372 224.309 32.6569 223.948 31.7547 223.19C29.9219 221.649 30.4887 218.792 30.2574 217.181Z" fill="#672A5C"/>
<path d="M33.5207 190.719C34.1329 188.447 35.3744 185.789 36.9873 184.326C40.0141 185.635 43.4237 186.214 46.4941 185.736C46.3653 185.889 46.2212 186.029 46.0468 186.128C45.4327 189.51 43.9506 192.354 42.3188 194.949C39.8208 198.924 36.9342 205.297 34.838 209.507C33.5093 208.085 31.0607 207.403 30.295 207.493C30.204 206.018 32.3286 195.139 33.5207 190.719Z" fill="#7F3371"/>
<path d="M50.6923 185.793C53.7816 186.514 52.1592 183.63 55.3414 184.574C58.5899 185.539 58.5691 189.984 57.8565 190.706C57.1723 196.885 55.3414 212.656 53.8801 218.55C52.4681 219.154 50.3264 220.218 49.6498 219.139C49.4034 216.22 46.8789 202.817 46.7007 200.593C46.0582 192.628 48.4918 188.81 50.6923 185.793Z" fill="#2B4047"/>
<path d="M50.6919 201.957V234.319C50.6919 234.773 50.0607 235.141 49.2798 235.141C48.5008 235.141 47.8678 234.773 47.8678 234.319V201.957H50.6919Z" fill="#672A5C"/>
<path d="M27.8408 212.661V247.352C27.8408 247.806 27.2097 248.174 26.4288 248.174C25.648 248.174 25.0167 247.806 25.0167 247.352V212.661H27.8408Z" fill="#672A5C"/>
<path d="M4.98975 200.425V234.26C4.98975 234.715 4.35862 235.083 3.57775 235.083C2.79688 235.083 2.16576 234.715 2.16576 234.26V200.425H4.98975Z" fill="#672A5C"/>
<path d="M0.0261345 204.357L26.4013 219.146L52.7593 204.35L26.3843 189.56L0.0261345 204.357Z" fill="#C66BC6"/>
<path d="M0.0261345 202.345L26.4013 217.134L52.7593 202.337L26.3843 187.546L0.0261345 202.345Z" fill="#E2E2ED"/>
<path d="M52.7593 202.338V204.35L26.4013 219.146V217.134L52.7593 202.338Z" fill="#B1B1B4"/>
<path d="M0.0257492 202.345V204.357L26.4009 219.146V217.134L0.0257492 202.345Z" fill="#B1B1B4"/>
<path d="M21.8621 148.156C21.8621 148.156 20.3914 148.259 18.2478 152.027C16.1042 155.796 15.3044 161.918 19.8228 163.595C24.3412 165.272 24.9819 149.539 24.9819 149.539L21.8621 148.156Z" fill="#D31F5E"/>
<path d="M30.4207 195.143C28.8476 197.51 29.1906 199.426 29.1394 201.97C24.7821 201.68 20.5101 201.77 16.8522 199.712C9.26716 195.447 14.7578 185.053 19.1929 178.472C22.2689 182.478 28.7281 185.432 34.0918 184.967C33.9212 187.126 33.4323 189.335 33.057 190.539C32.4979 192.339 31.4423 193.606 30.4207 195.143Z" fill="#7F3371"/>
<path d="M20.6759 195.521C21.7714 189.785 23.2042 185.691 23.3027 184.334C23.3729 183.37 33.7743 186.503 38.5884 185.498C41.7232 184.844 50.8113 182.928 55.3391 184.577C57.9054 187.178 55.8433 190.816 51.8859 194.472C47.8659 198.186 40.0497 200.916 37.9592 201.424C36.4013 203.078 32.8476 205.239 28.9357 205.222C23.2327 205.198 20.0428 198.834 20.6759 195.521Z" fill="#2B4047"/>
<path d="M22.7717 152.328C22.8058 152.076 23.0238 151.853 23.2645 151.77C26.8618 150.509 27.5611 148.515 27.9402 145.237C27.9951 144.769 28.6016 144.515 29.0072 144.718C31.0466 145.738 33.1219 146.435 35.3697 146.853C33.7872 152.983 37.6215 153.977 39.4334 156.229C39.8901 156.797 35.8758 160.124 33.5768 159.986C31.5905 159.866 29.5929 159.406 27.8265 158.495C25.8743 157.488 22.4286 154.824 22.7717 152.328Z" fill="#FFC9B6"/>
<path d="M27.4305 137.659C27.5272 134.559 29.7939 130.266 33.3666 130.258C37.0074 130.249 39.8845 135.28 40.3603 137.688C41.1714 141.778 41.4197 149.591 34.5113 147.599C29.1306 146.045 27.2865 142.283 27.4305 137.659Z" fill="#FFC9B6"/>
<path d="M42.0929 162.235C42.2597 159.595 40.3 155.987 37.4893 154.391C34.6312 153.914 31.807 156.445 28.5699 154.251C26.269 152.692 26.2292 150.63 25.8123 150.368C22.7703 148.463 21.2729 150.063 19.9765 152.211C16.9611 157.209 18.2045 162.871 19.9406 168.004C21.218 171.783 17.9448 179.126 16.1936 182.309C17.217 184.571 19.9008 186.837 23.3636 187.975C26.3392 188.952 36.2042 189.976 38.2966 185.911C37.5556 182.029 37.3869 179.398 37.5386 177.53C37.7281 175.185 38.4198 174.034 39.1116 173.105C39.8925 172.054 43.1941 169.992 43.4158 168.217C43.666 166.225 41.9602 164.342 42.0929 162.235Z" fill="#ED117B"/>
<path d="M24.3503 148.956C24.3503 148.956 23.5504 150.99 24.6591 152.814C25.7679 154.638 27.8167 155.594 30.2958 155.642C32.7767 155.688 37.9547 154.686 37.9547 154.686C37.9547 154.686 38.1272 153.241 36.5769 152.768C35.0265 152.295 30.4038 153.49 28.4251 152.529C26.4464 151.568 26.4445 150.301 25.7015 149.283C24.9586 148.267 24.3503 148.956 24.3503 148.956Z" fill="#BAC9E5"/>
<path d="M0.861774 168.56L2.69635 167.577L2.70017 167.588C3.09439 167.361 3.6042 167.367 4.16711 167.684L26.1224 179.995C27.3582 180.687 28.3589 182.546 28.3589 184.146V216.131L26.4256 217.163L1.92881 201.31L1.33745 170.574L0.861774 168.56Z" fill="#B1B1B4"/>
<path d="M-3.8147e-06 202.346V170.362C-3.8147e-06 168.762 1.0026 168.026 2.23644 168.72L24.1917 181.031C25.4274 181.724 26.4282 183.583 26.4282 185.183V217.167L-3.8147e-06 202.346Z" fill="#E2E2ED"/>
<path d="M63.4911 157.885C65.3864 156.686 66.7586 155.729 67.8276 155.762C68.4871 155.782 68.7051 156.046 68.3961 156.797C70.3161 157.373 68.9931 161.713 65.8905 163.359C63.4721 164.642 62.1397 163.667 60.3203 164.707C59.7138 165.053 58.6031 166.183 57.8279 167.137C54.731 170.949 53.698 173.055 51.0313 175.03C48.3646 177.003 47.2843 175.787 44.4963 175.336C41.5131 174.853 35.1618 167.175 35.1618 167.175L42.1139 161.167L48.6489 168.926C48.6489 168.926 54.9394 162.903 57.0849 160.994C58.4325 159.793 57.9814 158.82 57.917 157.443C57.862 156.296 57.5341 155.762 58.4856 155.762C59.672 155.762 59.5772 157.837 59.9828 158.619C60.3846 159.401 63.0987 158.131 63.4911 157.885Z" fill="#FFC9B6"/>
<path d="M34.3277 155.928C34.3277 155.928 36.9925 154.141 39.4697 155.01C41.9468 155.879 44.0203 159.818 45.2295 162.06C46.4387 164.302 48.1294 167.178 48.1294 167.178C48.1294 167.178 46.4691 170.296 44.244 171.691C42.0171 173.087 38.6907 174.515 38.6907 174.515C38.6907 174.515 34.5173 171.279 32.9441 166.5C31.3729 161.72 32.0419 156.897 34.3277 155.928Z" fill="#D31F5E"/>
<path d="M40.8692 148.155C39.5596 146.493 37.3325 144.621 36.3507 142.751C35.5225 141.171 36.1877 139.439 37.0918 137.714C38.718 137.871 40.3897 137.32 42.6413 136.357C41.8112 131.411 39.4667 126.737 33.4851 128.933C31.0155 126.643 27.3651 127.954 25.9986 129.57C24.8595 130.92 24.4937 132.714 24.2417 134.386C23.692 138.044 23.4153 140.847 20.8225 143.739C18.1425 146.729 14.9963 149.337 15.2067 153.647C15.3488 156.57 17.1266 160.17 20.1383 161.142C20.2501 161.932 20.4871 162.718 20.8851 163.48C22.1436 165.886 24.6529 167.337 27.3575 167.199C24.9827 163.718 26.4308 161.956 28.3621 160.075C30.2915 162.667 34.6583 162.179 36.057 161.247C38.1476 159.856 39.4079 157.636 39.6865 155.316C40.6872 156.156 41.7087 156.975 42.7189 157.798C44.5384 154.473 43.1967 151.108 40.8692 148.155Z" fill="#672A5C"/>
</svg>
