<svg width="273" height="229" viewBox="0 0 273 229" fill="none" xmlns="http://www.w3.org/2000/svg">
<path d="M206.52 127.774L206.169 150.989L146.532 116.723V93.1072L206.52 127.774Z" fill="#E2E2ED"/>
<path d="M272.378 112.9L206.169 150.989L206.52 127.775L206.657 127.854L272.391 89.4133L272.378 112.9Z" fill="#CACAE0"/>
<path d="M272.391 89.4127L272.314 89.4584L249.507 102.795L247.906 103.732L245.722 105.009L244.223 105.884L239.409 108.7L237.909 109.578L206.657 127.853L206.647 127.847L206.521 127.774L182.234 113.721L180.733 112.853L177.856 111.188L176.196 110.227L175.763 109.977L174.268 109.11L146.532 93.1069L168.827 79.9191L170.595 78.8739L178.303 74.3138L179.814 73.4532L185.654 70.1244L187.169 69.2608L212.618 54.7567L237.404 69.1275L239.095 70.1081L239.46 70.3196L240.948 71.1828L246.182 74.2175L247.669 75.0792L270.533 88.3354L272.391 89.4127Z" fill="#DBDBF3"/>
<path d="M194.266 31.6323C194.266 31.6323 191.136 37.7999 190.864 42.7735C190.593 47.7468 190.231 53.3534 190.231 53.3534C190.231 53.3534 192.583 55.9759 195.476 55.3429C198.37 54.7096 194.266 31.6323 194.266 31.6323Z" fill="#6666BC"/>
<path d="M222.88 62.0379C222.88 62.0379 222.145 63.5095 219.496 63.73C216.838 63.9599 215.146 63.1414 215.146 63.1414V64.843C215.146 64.843 208.074 65.7993 200.855 63.3623C193.636 60.9347 193.562 54.4512 193.562 54.4512C193.562 54.4512 193.264 34.847 193.562 33.2075C193.874 31.4907 195.152 30.5493 196.463 30.0333C197.992 29.4318 199.687 29.399 201.279 29.8041L212.268 32.6007C212.268 32.6007 218.015 34.4582 220.471 38.0267C220.894 38.6334 221.225 39.2956 221.409 40.0129C222.66 44.8772 222.88 62.0379 222.88 62.0379Z" fill="#7C7CD6"/>
<path d="M211.72 31.9561L204.478 36.4744L207.389 40.2854L216.065 33.7796L211.72 31.9561Z" fill="url(#paint0_linear_68_22476)"/>
<path d="M202.053 35.1273L196.509 35.8971L201.264 29.568L203.648 31.3665L202.053 35.1273Z" fill="url(#paint1_linear_68_22476)"/>
<path d="M203.648 31.3669L202.053 35.1277L202.85 38.5453L204.478 36.4751L211.72 31.9568L211.741 31.5138L203.648 31.3669Z" fill="#EAA211"/>
<path d="M214.821 29.6907C218.532 25.9796 218.532 19.9628 214.821 16.2517C211.11 12.5406 205.093 12.5406 201.382 16.2517C197.671 19.9628 197.671 25.9796 201.382 29.6907C205.093 33.4018 211.11 33.4018 214.821 29.6907Z" fill="#F9BB41"/>
<path d="M198.14 17.1974C198.14 17.1974 198.286 20.3155 203.11 21.777C207.933 23.2386 210.174 21.2899 210.174 21.2899C210.174 21.2899 208.713 23.4824 209.638 24.8464C210.564 26.2107 210.613 27.2824 210.613 27.2824L211.538 26.844C211.538 26.844 211.782 23.1413 213.292 23.5311C214.802 23.9209 213.146 27.2338 214.023 27.7698C214.9 28.3059 216.508 27.5263 216.654 27.5263C216.8 27.5263 218.457 25.5287 218.408 20.8029C218.359 16.077 213.683 11.9845 208.275 11.9359C202.866 11.8872 198.14 17.1974 198.14 17.1974Z" fill="#6666BC"/>
<path d="M215.146 63.1426C215.146 63.1426 214.15 64.3697 214.592 65.7577C215.035 67.1459 214.812 67.7011 214.812 67.7011C214.812 67.7011 215.312 68.0342 215.923 67.7011C216.534 67.3681 216.7 66.4241 216.7 66.4241C216.7 66.4241 216.533 68.3121 217.255 68.6451C217.977 68.9782 222.086 67.3123 222.53 66.6462C222.975 65.9798 222.53 62.1483 222.53 62.1483L215.146 63.1426Z" fill="#F9BB41"/>
<path d="M222.88 62.0389C222.88 62.0389 222.145 63.5105 219.496 63.731C216.839 63.9609 215.146 63.1424 215.146 63.1424V63.446L214.594 44.7845C214.543 43.036 215.399 41.385 216.857 40.4193L220.471 38.0274C220.893 38.6341 221.225 39.2963 221.409 40.0136C222.66 44.8783 222.88 62.0389 222.88 62.0389Z" fill="#6666BC"/>
<path d="M169.732 61.7691C169.732 61.7691 166.111 68.9053 165.797 74.6598C165.483 80.4143 165.064 86.901 165.064 86.901C165.064 86.901 167.785 89.935 171.133 89.2028C174.481 88.4706 169.732 61.7691 169.732 61.7691Z" fill="#6666BC"/>
<path d="M202.84 96.9502C202.84 96.9502 201.989 98.6527 198.924 98.908C195.849 99.1739 193.891 98.227 193.891 98.227V100.195C193.891 100.195 185.709 101.302 177.356 98.4822C169.003 95.6732 168.918 88.1718 168.918 88.1718C168.918 88.1718 168.574 65.4892 168.918 63.5925C169.279 61.6062 170.758 60.5169 172.275 59.9199C174.044 59.2237 176.005 59.1857 177.847 59.6546L190.561 62.8904C190.561 62.8904 197.211 65.0398 200.052 69.1683C200.542 69.8703 200.925 70.6366 201.138 71.4665C202.585 77.0951 202.84 96.9502 202.84 96.9502Z" fill="#7C7CD6"/>
<path d="M189.928 62.1447L181.548 67.3722L184.917 71.7819L194.955 64.2545L189.928 62.1447Z" fill="url(#paint2_linear_68_22476)"/>
<path d="M178.742 65.8132L172.328 66.7041L177.829 59.381L180.587 61.462L178.742 65.8132Z" fill="url(#paint3_linear_68_22476)"/>
<path d="M180.587 61.4613L178.742 65.8126L179.664 69.767L181.548 67.3715L189.927 62.144L189.951 61.6316L180.587 61.4613Z" fill="#EAA211"/>
<path d="M196.417 54.3105C197.832 48.4056 194.193 42.4712 188.288 41.0557C182.383 39.6402 176.449 43.2796 175.033 49.1845C173.618 55.0894 177.257 61.0238 183.162 62.4393C189.067 63.8548 195.001 60.2154 196.417 54.3105Z" fill="#F9BB41"/>
<path d="M174.215 45.068C174.215 45.068 174.384 48.6757 179.965 50.3668C185.545 52.058 188.138 49.8032 188.138 49.8032C188.138 49.8032 186.447 52.3398 187.518 53.9184C188.59 55.4967 188.646 56.7371 188.646 56.7371L189.717 56.2296C189.717 56.2296 189.999 51.9455 191.746 52.3965C193.494 52.8476 191.578 56.6807 192.592 57.3007C193.607 57.9208 195.467 57.0189 195.636 57.0189C195.805 57.0189 197.722 54.7077 197.665 49.2396C197.609 43.7718 192.199 39.0366 185.941 38.9801C179.683 38.9234 174.215 45.068 174.215 45.068Z" fill="#6666BC"/>
<path d="M193.892 98.2259C193.892 98.2259 192.739 99.6453 193.251 101.252C193.763 102.858 193.506 103.5 193.506 103.5C193.506 103.5 194.084 103.886 194.791 103.5C195.497 103.115 195.69 102.022 195.69 102.022C195.69 102.022 195.498 104.207 196.333 104.592C197.168 104.978 201.922 103.05 202.436 102.279C202.95 101.509 202.436 97.0757 202.436 97.0757L193.892 98.2259Z" fill="#F9BB41"/>
<path d="M202.84 96.9496C202.84 96.9496 201.989 98.6521 198.924 98.9073C195.849 99.1732 193.891 98.2263 193.891 98.2263V98.5775L193.253 76.9858C193.193 74.9626 194.183 73.0522 195.871 71.935L200.052 69.1676C200.541 69.8697 200.925 70.6359 201.137 71.4658C202.585 77.0944 202.84 96.9496 202.84 96.9496Z" fill="#6666BC"/>
<path d="M212.308 70.8117C212.308 70.8117 209.178 76.9794 208.907 81.9529C208.636 86.9265 208.274 92.5328 208.274 92.5328C208.274 92.5328 210.625 95.1553 213.519 94.5223C216.413 93.8893 212.308 70.8117 212.308 70.8117Z" fill="#6666BC"/>
<path d="M240.923 101.219C240.923 101.219 240.187 102.691 237.538 102.912C234.881 103.141 233.188 102.323 233.188 102.323V104.024C233.188 104.024 226.116 104.981 218.897 102.544C211.678 100.116 211.604 93.6327 211.604 93.6327C211.604 93.6327 211.307 74.0285 211.604 72.3889C211.916 70.6722 213.194 69.7308 214.506 69.2148C216.035 68.6133 217.73 68.5805 219.322 68.9855L230.31 71.7822C230.31 71.7822 236.058 73.6397 238.513 77.2082C238.936 77.8149 239.267 78.4771 239.451 79.1944C240.702 84.0587 240.923 101.219 240.923 101.219Z" fill="#7C7CD6"/>
<path d="M229.763 71.1371L222.521 75.6554L225.433 79.4664L234.108 72.9606L229.763 71.1371Z" fill="url(#paint4_linear_68_22476)"/>
<path d="M220.095 74.3075L214.552 75.0773L219.306 68.7479L221.69 70.5467L220.095 74.3075Z" fill="url(#paint5_linear_68_22476)"/>
<path d="M221.69 70.5474L220.095 74.3082L220.893 77.7255L222.521 75.6556L229.763 71.1373L229.784 70.6943L221.69 70.5474Z" fill="#EAA211"/>
<path d="M235.396 64.3114C236.587 59.2001 233.409 54.0912 228.298 52.9004C223.186 51.7095 218.078 54.8877 216.887 59.999C215.696 65.1103 218.874 70.2193 223.985 71.4101C229.097 72.601 234.206 69.4228 235.396 64.3114Z" fill="#F9BB41"/>
<path d="M216.183 56.3775C216.183 56.3775 216.329 59.4956 221.152 60.9571C225.975 62.4187 228.217 60.47 228.217 60.47C228.217 60.47 226.755 62.6625 227.681 64.0265C228.606 65.3908 228.655 66.4625 228.655 66.4625L229.581 66.0241C229.581 66.0241 229.824 62.3214 231.335 62.7112C232.845 63.101 231.188 66.4139 232.066 66.9499C232.942 67.486 234.55 66.7064 234.696 66.7064C234.843 66.7064 236.499 64.7088 236.451 59.983C236.402 55.2571 231.726 51.1646 226.317 51.116C220.908 51.067 216.183 56.3775 216.183 56.3775Z" fill="#6666BC"/>
<path d="M233.189 102.322C233.189 102.322 232.193 103.549 232.635 104.937C233.078 106.326 232.855 106.881 232.855 106.881C232.855 106.881 233.355 107.214 233.966 106.881C234.577 106.548 234.743 105.604 234.743 105.604C234.743 105.604 234.576 107.492 235.298 107.825C236.02 108.158 240.129 106.492 240.573 105.826C241.018 105.159 240.573 101.328 240.573 101.328L233.189 102.322Z" fill="#F9BB41"/>
<path d="M240.923 101.218C240.923 101.218 240.188 102.69 237.539 102.911C234.881 103.141 233.189 102.322 233.189 102.322V102.626L232.637 83.9641C232.586 82.2156 233.442 80.5646 234.9 79.5989L238.514 77.207C238.936 77.8137 239.268 78.4759 239.452 79.1932C240.702 84.0579 240.923 101.218 240.923 101.218Z" fill="#6666BC"/>
<path opacity="0.34" d="M206.52 73.0179L206.512 127.104L146.532 92.839V38.3503L206.52 73.0179Z" fill="#B7E4FF"/>
<g opacity="0.34">
<path d="M272.378 89.0139L206.512 127.104L206.521 73.0172L206.657 73.096L272.391 34.6553L272.378 89.0139Z" fill="#78ABCE"/>
</g>
<path opacity="0.34" d="M272.391 34.6559L272.314 34.7016L249.507 48.0383L247.906 48.9751L245.722 50.2522L244.223 51.1281L239.409 53.9435L237.909 54.8214L206.657 73.0966L206.647 73.0908L206.521 73.0171L182.234 58.9645L180.733 58.096L177.856 56.4312L176.196 55.4706L175.763 55.2203L174.268 54.3538L146.532 38.3502L168.827 25.1624L170.595 24.1172L178.303 19.5571L179.814 18.6965L185.654 15.3676L187.169 14.5044L212.618 0L237.404 14.3708L239.095 15.3514L239.46 15.5629L240.948 16.4264L246.182 19.4608L247.669 20.3224L270.533 33.579L272.391 34.6559Z" fill="#B7E4FF"/>
<path d="M121.518 180.992C156.8 205.817 86.0835 243.983 54.8889 222.856C23.6936 201.73 96.6732 163.511 121.518 180.992Z" fill="black" fill-opacity="0.3"/>
<path d="M64.6512 191.265C64.6512 191.265 62.4001 198.431 61.6748 202.38C60.9495 206.329 63.1254 211.729 64.9795 212.212C66.8328 212.696 71.3466 207.779 71.3466 203.428C71.3466 199.076 71.8528 193.131 71.8528 193.131C71.8528 193.131 68.1163 184.656 64.6512 191.265Z" fill="#0A1416"/>
<path d="M88.476 146.558C88.476 146.558 90.6875 137.921 83.1096 135.281C75.5317 132.641 72.8497 141.863 71.4157 147.868C69.9808 153.873 65.3107 186.312 64.7145 190.83C64.0099 196.161 69.4904 199.449 71.4877 194.124C72.5636 191.255 73.6246 188.147 75.3828 183.449C80.3308 170.227 87.1826 151.733 88.476 146.558Z" fill="#ED117B"/>
<path d="M118.186 144.536C118.186 144.536 118 135.622 109.992 135.111C101.984 134.599 101.873 144.203 102.101 150.372C102.329 156.542 106.529 189.045 107.166 193.558C107.917 198.883 114.078 200.581 114.574 194.915C114.841 191.863 115.03 188.584 115.464 183.587C116.685 169.522 118.327 149.869 118.186 144.536Z" fill="#ED117B"/>
<path d="M114.537 194.851C114.537 194.851 124.786 200.523 124.805 203.708C124.824 206.893 104.623 201.539 104.049 199.757C103.476 197.976 107.061 192.774 107.061 192.774C107.061 192.774 108.283 197.963 114.537 194.851Z" fill="#0A1416"/>
<path d="M103.024 73.5582C103.024 73.5582 103.787 91.4977 100.758 105.595C97.7305 119.692 90.6802 142.418 88.4771 146.565C86.2739 150.711 82.4449 153.558 77.2438 151.47C72.0428 149.382 72.515 143.436 76.1191 130.438C77.9964 123.668 75.7743 106.602 79.2311 92.9383C82.411 80.3694 91.3625 70.8606 91.3625 70.8606L103.024 73.5582Z" fill="#ED117B"/>
<path d="M118.154 143.987C117.279 148.6 114.466 152.454 108.88 152.001C103.294 151.549 101.982 145.73 101.572 132.248C101.534 130.988 101.387 129.44 101.169 127.669C100.675 123.665 99.8144 118.516 98.9948 112.935C98.1554 107.223 97.3606 101.06 97.0505 95.2188C96.3624 82.272 98.473 70.8304 98.473 70.8304L110.41 69.9513C110.41 69.9513 116.455 86.8586 117.741 101.219C119.027 115.58 119.03 139.374 118.154 143.987Z" fill="#ED117B"/>
<path d="M92.3381 12.9628C89.0209 14.2372 86.9551 17.1301 86.2033 26.5067C85.4508 35.8833 82.6729 41.0926 82.6729 41.0926C82.6729 41.0926 88.2874 43.8126 98.5894 40.861C108.891 37.9094 109.586 36.3464 109.586 36.3464C109.586 36.3464 113.559 4.80848 92.3381 12.9628Z" fill="#422D96"/>
<path d="M129.585 55.7416C129.458 56.9267 129.642 59.813 132.682 59.3689C137.568 58.6543 149.235 44.9053 149.595 42.3441C149.954 39.782 148.48 39.3917 144.485 41.8843C140.488 44.376 130.161 50.3884 129.585 55.7416Z" fill="#2B4047"/>
<path d="M146.563 40.6462C146.075 41.5377 147.763 43.7831 149.365 43.3108C150.968 42.8386 156.124 38.8706 156.133 37.6119C156.141 36.3541 153.094 35.3848 149.36 38.262C149.36 38.262 150.952 35.9662 149.604 35.8446C148.953 35.7867 148.116 37.8088 146.563 40.6462Z" fill="#F29B79"/>
<path d="M133.345 59.2055C132.614 59.667 131.582 59.7298 130.332 59.1782C127.964 58.1321 123.208 55.9454 118.397 53.3991C116.702 52.5018 114.999 51.5606 113.393 50.6087C109.939 48.5619 106.924 46.4679 105.361 44.6659C101.007 39.6443 106.353 34.1017 110.893 35.2082C115.347 36.2949 127.324 47.7332 131.692 51.5491C131.775 51.6218 131.856 51.6921 131.932 51.7591C135.107 54.5023 135.147 58.0667 133.345 59.2055Z" fill="#2B4047"/>
<g opacity="0.25">
<path d="M118.396 53.3989C116.701 52.5016 114.998 51.5605 113.392 50.6086L114.614 43.6865C114.614 43.6865 119.352 48.2524 118.396 53.3989Z" fill="black"/>
</g>
<path d="M109.007 24.6828C109.007 30.7407 104.606 35.6514 99.1787 35.6514C93.7503 35.6514 89.3506 30.7407 89.3506 24.6828C89.3506 18.6258 93.7511 13.7151 99.1787 13.7151C104.606 13.7143 109.007 18.625 109.007 24.6828Z" fill="#422D96"/>
<path d="M114.347 57.2004C113.904 58.0531 113.97 57.8323 113.414 59.0232C113.082 59.7319 112.79 60.4191 112.533 61.0807C111.455 63.8463 110.982 66.1759 110.779 67.8448C110.562 69.6361 110.658 70.6691 110.658 70.6691C108.654 73.8969 105.893 75.1655 103.045 75.3847C100.896 75.5501 98.6972 75.1184 96.7372 74.4799C95.973 74.231 95.2444 73.9506 94.5696 73.6628C91.9405 72.5389 90.4329 71.8699 90.4329 71.8699C90.4626 71.5093 90.1707 70.5707 90.1782 70.2109C90.2385 67.4066 89.6373 64.6228 88.74 61.9797C86.0324 53.9966 80.6238 47.2904 82.5656 45.1551C85.2327 42.2217 93.1446 40.977 93.1446 40.977L100.168 38.8434C100.168 38.8434 104.168 36.4434 108.169 35.3757C112.169 34.3089 113.503 38.3984 115.815 45.2435C117.724 50.8986 116.451 53.1489 114.347 57.2004Z" fill="#2B4047"/>
<path d="M101.338 33.2782V41.0917C101.338 41.8319 101.101 42.5158 100.698 43.0732C100.083 43.9242 99.0823 44.4775 97.9527 44.4775C96.9809 44.4775 96.1043 44.0682 95.4874 43.4123C94.9167 42.8061 94.5669 41.9899 94.5669 41.0909V33.2774C94.5669 31.4075 96.0828 29.8916 97.9527 29.8916C98.888 29.8916 99.734 30.2703 100.347 30.8832C100.959 31.4968 101.338 32.3428 101.338 33.2782Z" fill="#F29B79"/>
<g opacity="0.25">
<path d="M102.053 100.469L101.168 127.668C100.675 123.664 99.8137 118.515 98.9941 112.934L102.053 100.469Z" fill="black"/>
</g>
<g opacity="0.25">
<path d="M112.532 61.0797C111.455 63.8452 110.981 66.1749 110.778 67.8438C109.625 69.1628 108.464 70.4605 107.768 71.1568C106.82 72.1046 104.845 73.8363 103.044 75.3836C100.895 75.549 98.6965 75.1173 96.7365 74.4789L90.2544 64.3125L90.6993 46.8874C90.6993 46.8874 93.9395 52.4714 94.7889 54.4438C95.9732 57.1936 98.5228 65.8234 98.5228 65.8234L111.37 59.4067L112.532 61.0797Z" fill="black"/>
</g>
<path d="M93.6625 74.2911C93.5021 75.4721 93.6054 78.3625 96.6554 78.0036C101.56 77.4263 113.608 64.0106 114.039 61.4593C114.47 58.908 113.008 58.4771 108.944 60.8564C104.879 63.2357 94.3878 68.9561 93.6625 74.2911Z" fill="#2B4047"/>
<path d="M111.056 59.678C110.544 60.5546 112.168 62.847 113.783 62.4203C115.398 61.9936 120.664 58.1711 120.708 56.9133C120.751 55.6562 117.733 54.6018 113.919 57.3731C113.919 57.3731 115.574 55.1228 114.23 54.964C113.582 54.8871 112.688 56.886 111.056 59.678Z" fill="#F29B79"/>
<path d="M93.4198 76.4225C90.4765 71.8219 81.4869 57.116 80.6343 50.5248C79.7817 43.9335 87.3008 42.2704 90.4716 45.7017C93.6423 49.1329 97.3804 65.8409 98.8558 71.1247C100.442 76.8029 95.9728 80.4128 93.4198 76.4225Z" fill="#2B4047"/>
<g opacity="0.25">
<path d="M101.338 35.2656V39.2485C99.9349 39.055 95.5824 38.1469 95.0002 34.3196C94.408 30.4194 99.7538 34.1004 101.338 35.2656Z" fill="black"/>
</g>
<path d="M100.6 36.8089C105.084 36.8089 108.718 32.3258 108.718 26.7955C108.718 21.2653 105.084 16.7821 100.6 16.7821C96.1169 16.7821 92.4824 21.2653 92.4824 26.7955C92.4824 32.3258 96.1169 36.8089 100.6 36.8089Z" fill="#F29B79"/>
<path d="M93.7636 29.1986C94.6989 30.8179 94.5592 32.6489 93.4518 33.2882C92.3444 33.9275 90.6888 33.1327 89.7542 31.5134C88.8189 29.8942 88.9586 28.0632 90.066 27.4239C91.1734 26.7846 92.829 27.5785 93.7636 29.1986Z" fill="#F29B79"/>
<path d="M92.4538 27.6058C92.4538 27.6058 94.9423 26.1586 95.2317 21.8176C95.2317 21.8176 94.1897 24.8849 99.399 25.2323C104.608 25.5796 106.344 23.4956 109.007 24.7113C109.007 24.7113 106.692 13.9462 98.4157 15.7978C90.1382 17.6503 92.4538 27.6058 92.4538 27.6058Z" fill="#422D96"/>
<defs>
<linearGradient id="paint0_linear_68_22476" x1="204.478" y1="36.1207" x2="216.065" y2="36.1207" gradientUnits="userSpaceOnUse">
<stop stop-color="#E2E2E2"/>
<stop offset="1" stop-color="#FDFDFD"/>
</linearGradient>
<linearGradient id="paint1_linear_68_22476" x1="196.509" y1="32.7325" x2="203.648" y2="32.7325" gradientUnits="userSpaceOnUse">
<stop stop-color="#E2E2E2"/>
<stop offset="1" stop-color="#FDFDFD"/>
</linearGradient>
<linearGradient id="paint2_linear_68_22476" x1="181.548" y1="66.9633" x2="194.955" y2="66.9633" gradientUnits="userSpaceOnUse">
<stop stop-color="#E2E2E2"/>
<stop offset="1" stop-color="#FDFDFD"/>
</linearGradient>
<linearGradient id="paint3_linear_68_22476" x1="172.328" y1="63.0425" x2="180.588" y2="63.0425" gradientUnits="userSpaceOnUse">
<stop stop-color="#E2E2E2"/>
<stop offset="1" stop-color="#FDFDFD"/>
</linearGradient>
<linearGradient id="paint4_linear_68_22476" x1="222.521" y1="75.3017" x2="234.108" y2="75.3017" gradientUnits="userSpaceOnUse">
<stop stop-color="#E2E2E2"/>
<stop offset="1" stop-color="#FDFDFD"/>
</linearGradient>
<linearGradient id="paint5_linear_68_22476" x1="214.552" y1="71.9126" x2="221.69" y2="71.9126" gradientUnits="userSpaceOnUse">
<stop stop-color="#E2E2E2"/>
<stop offset="1" stop-color="#FDFDFD"/>
</linearGradient>
</defs>
</svg>
