<svg width="24" height="24" viewBox="0 0 24 24" fill="none" xmlns="http://www.w3.org/2000/svg">
<g id="whatsapp - icon">
<path id="Vector" fill-rule="evenodd" clip-rule="evenodd" d="M24 11.6912C24 18.1469 18.7253 23.3816 12.2187 23.3816C10.1523 23.3816 8.21097 22.8539 6.52328 21.9269L0 23.9999L2.12632 17.7279C1.05333 15.9659 0.436343 13.8996 0.436343 11.6913C0.436343 5.23429 5.71094 2.08637e-09 12.2187 2.08637e-09C18.7253 -0.000120668 24 5.23417 24 11.6912ZM12.2187 1.86193C6.75533 1.86193 2.31264 6.2706 2.31264 11.6912C2.31264 13.8408 3.013 15.8332 4.19931 17.4542L2.96232 21.1038L6.76824 19.8945C8.33188 20.9204 10.2055 21.5194 12.2185 21.5194C17.6796 21.5194 22.1235 17.1104 22.1235 11.6911C22.1236 6.2706 17.6797 1.86193 12.2187 1.86193ZM18.168 14.3838C18.095 14.2641 17.9023 14.1924 17.6146 14.0492C17.3256 13.9062 15.905 13.2122 15.6406 13.1173C15.3762 13.0219 15.1823 12.9739 14.9909 13.2603C14.7982 13.547 14.2446 14.1926 14.0756 14.3839C13.9077 14.5756 13.7396 14.599 13.4507 14.4556C13.1613 14.3126 12.2304 14.0089 11.1277 13.034C10.2697 12.2733 9.69002 11.3361 9.52072 11.0494C9.35311 10.763 9.50407 10.6081 9.64706 10.4651C9.77739 10.3361 9.93631 10.1305 10.0807 9.96382C10.2254 9.79585 10.2735 9.67578 10.3698 9.48452C10.466 9.29314 10.4181 9.12649 10.3451 8.98314C10.2735 8.84014 9.69545 7.42987 9.45447 6.85549C9.21518 6.28279 8.97409 6.30427 8.80479 6.30427C8.63681 6.30427 8.325 6.35423 8.325 6.35423C8.325 6.35423 7.74603 6.4259 7.48176 6.71262C7.21738 6.99896 6.4714 7.69293 6.4714 9.10187C6.4714 10.5119 7.50542 11.8752 7.64974 12.0652C7.79442 12.2568 9.64706 15.2448 12.5834 16.3921C15.5198 17.5391 15.5198 17.1565 16.0494 17.1082C16.5781 17.0615 17.7578 16.4155 17.9987 15.7462C18.2396 15.0765 18.2396 14.5026 18.168 14.3838Z" fill="white"/>
</g>
</svg>
