<svg width="24" height="24" viewBox="0 0 24 24" fill="none" xmlns="http://www.w3.org/2000/svg">
<path d="M4.15087 9.26402V4.95346C4.73522 4.97426 5.24302 5.01659 5.71586 5.098C8.18539 5.52316 9.99481 7.54438 11.7161 9.36549L8.61894 12.3587L6.79109 10.5323C5.82302 9.5985 5.2575 9.28687 4.15087 9.26402Z" fill="#646464"/>
<path d="M19.3599 4.36979V3H22.0001V5.63812H20.5277V4.36979H19.3599Z" fill="#646464"/>
<path d="M19.9273 16.2453L19.9273 20.5459C19.3309 20.5249 18.8135 20.482 18.3317 20.399C15.8538 19.9724 14.0269 17.9609 12.289 16.144L15.4161 13.1577L17.2616 14.9799C18.239 15.9115 18.8099 16.2225 19.9273 16.2453Z" fill="#646464"/>
<path d="M4.05056 20.6465L4 16.4844C5.05173 16.4032 6.19111 15.4693 6.62933 15.0126C8.90471 12.7623 13.8398 7.89646 15.3769 6.43468C16.9141 4.9729 19.0849 4.87816 19.9782 5.0135V9.37858C19.7591 9.32783 19.2198 9.25677 18.8153 9.37858C18.4107 9.5004 17.9051 10.0046 17.7028 10.2414C14.8544 13.0838 8.86426 18.9613 7.69117 19.7328C6.51809 20.5043 4.77531 20.6634 4.05056 20.6465Z" fill="#646464"/>
</svg>
