<?xml version="1.0" encoding="UTF-8"?>
<svg id="Layer_1" xmlns="http://www.w3.org/2000/svg" version="1.1" viewBox="0 0 1920 1080">
  <!-- Generator: Adobe Illustrator 29.5.1, SVG Export Plug-In . SVG Version: 2.1.0 Build 141)  -->
  <defs>
    <style>
      .st0 {
        fill: #233997;
      }

      .st1 {
        fill: #283891;
      }

      .st2 {
        fill: #a64eff;
      }
    </style>
  </defs>
  <g>
    <path class="st0" d="M619.51,469.36h43.59l16.27,19.4,16.69-19.4h43.38l-39.21,43.17,47.34,51.31h-44.22l-24.19-28.16-24.19,28.16h-44.22l47.14-51.31-38.38-43.17Z"/>
    <path class="st0" d="M758.83,611.19v-141.83h33.37v10.43c3.61-4.45,7.75-7.82,12.41-10.12,4.66-2.29,9.84-3.44,15.54-3.44,14.04,0,25.72,4.8,35.04,14.39,9.31,9.59,13.97,21.62,13.97,36.08s-4.56,26.25-13.66,35.77c-9.11,9.53-20.41,14.29-33.89,14.29-6.12,0-11.51-.94-16.16-2.82-4.66-1.88-9.07-4.97-13.24-9.28v56.52h-33.37ZM828.07,501.27c-4.17-4.17-9.25-6.26-15.22-6.26s-11.09,2.08-15.33,6.26c-4.24,4.17-6.36,9.25-6.36,15.23s2.12,11.09,6.36,15.33c4.24,4.24,9.35,6.36,15.33,6.36s11.05-2.08,15.22-6.26c4.17-4.17,6.26-9.25,6.26-15.23s-2.09-11.26-6.26-15.43Z"/>
    <path class="st0" d="M918.18,522.76c.14,7.23,1.91,12.59,5.32,16.06,3.41,3.48,8.52,5.21,15.33,5.21,3.89,0,7.02-.69,9.39-2.08,2.36-1.39,4.59-3.68,6.67-6.88h32.12c-3.34,11.4-9.25,19.64-17.73,24.71-8.48,5.07-18.49,7.61-30.03,7.61-16.83,0-30.17-4.52-40.05-13.56-9.87-9.04-14.81-21.2-14.81-36.5,0-16.96,5.11-29.65,15.33-38.06,10.22-8.41,23.32-12.62,39.32-12.62,17.1,0,29.62,5.39,37.54,16.16,7.93,10.78,11.89,24.09,11.89,39.94h-70.29ZM950.61,492.2c-3.41-2.71-7.48-4.07-12.2-4.07-5.29,0-9.59,1.32-12.93,3.96-3.34,2.64-5.5,6.4-6.47,11.26h38.38c-1.11-4.73-3.37-8.45-6.78-11.16Z"/>
    <path class="st0" d="M1040.81,469.36v15.43c3.89-5.98,8.24-10.29,13.04-12.93,4.8-2.64,10.81-3.96,18.04-3.96h1.67c.69,0,1.39.04,2.09.1.69.07,1.6.18,2.71.31v31.91c-1.39-.69-2.64-1.25-3.75-1.67-1.12-.42-2.23-.76-3.34-1.04-.83-.28-1.77-.45-2.82-.52-1.04-.07-2.19-.1-3.44-.1-8.21,0-14.29,2.16-18.25,6.47-3.96,4.31-5.94,10.99-5.94,20.02v40.46h-33.37v-94.48h33.37Z"/>
    <path class="st0" d="M1096.6,419.72c3.68-3.61,8.1-5.42,13.24-5.42s9.73,1.81,13.35,5.42c3.61,3.62,5.42,8.07,5.42,13.35s-1.81,9.56-5.42,13.24c-3.62,3.69-8.07,5.53-13.35,5.53s-9.56-1.84-13.24-5.53c-3.69-3.68-5.53-8.1-5.53-13.24s1.84-9.73,5.53-13.35ZM1126.53,563.84h-33.37v-94.48h33.37v94.48Z"/>
    <path class="st0" d="M1182.64,522.96c0,5.84,1.42,10.22,4.28,13.14,2.85,2.92,7.06,4.38,12.62,4.38s9.98-1.46,12.83-4.38c2.85-2.92,4.28-7.3,4.28-13.14v-53.6h33.37v59.94c0,12.63-4.28,22.17-12.83,28.62-8.55,6.45-21.1,9.67-37.65,9.67s-28.89-3.23-37.44-9.67c-8.55-6.45-12.83-15.99-12.83-28.62v-59.94h33.37v53.6Z"/>
    <path class="st0" d="M1306.31,469.36v11.47c1.53-1.39,3.02-2.68,4.48-3.86,1.46-1.18,2.88-2.26,4.28-3.23,3.34-2.22,6.78-3.79,10.32-4.69,3.55-.9,7.68-1.36,12.41-1.36,6.95,0,12.96,1.43,18.04,4.28,5.07,2.85,9.49,7.34,13.24,13.45,3.61-5.98,8.1-10.43,13.45-13.35,5.35-2.92,11.5-4.38,18.46-4.38,11.12,0,19.22,3.2,24.3,9.59,5.07,6.4,7.61,14.74,7.61,25.03v61.53h-33.37v-46.72c0-8.76-1.04-14.84-3.13-18.25-2.09-3.41-5.84-5.11-11.26-5.11s-9.04,1.98-11.68,5.94c-2.64,3.96-3.96,9.77-3.96,17.42v46.72h-33.37v-46.72c0-9.04-1.04-15.29-3.13-18.77-2.09-3.47-5.91-5.21-11.47-5.21s-9.14,1.91-11.58,5.74c-2.43,3.83-3.65,9.91-3.65,18.25v46.72h-33.37v-94.48h33.37Z"/>
  </g>
  <g>
    <path class="st2" d="M430.32,492.25c-1.81-2.13-4.27-3.33-6.83-3.33h-28.26c-8.61,0-12.92,12.25-6.83,19.42l32.13,37.82h55.59l-45.79-53.91Z"/>
    <path class="st1" d="M423.57,565.83l-35.59,41.89c-6.09,7.17-1.78,19.42,6.83,19.42h28.25c2.56,0,5.02-1.2,6.83-3.33l30.23-35.58,19.03-22.39s.01-.02.02-.03h-55.59s-.01.02-.02.03Z"/>
    <path class="st2" d="M519.94,543.16c1.81,2.13,4.27,3.33,6.83,3.33h28.26c8.61,0,12.92-12.25,6.83-19.42l-32.13-37.82h-55.59l45.79,53.91Z"/>
    <path class="st1" d="M526.68,469.58l35.59-41.89c6.09-7.17,1.78-19.42-6.83-19.42h-28.25c-2.56,0-5.02,1.2-6.83,3.33l-30.23,35.58-19.03,22.39s-.01.02-.02.03h55.59s.01-.02.02-.03Z"/>
  </g>
</svg>