<?xml version="1.0" encoding="UTF-8"?>
<svg id="Layer_1" xmlns="http://www.w3.org/2000/svg" version="1.1" viewBox="0 0 1920 1080">
  <!-- Generator: Adobe Illustrator 29.5.1, SVG Export Plug-In . SVG Version: 2.1.0 Build 141)  -->
  <defs>
    <style>
      .st0 {
        fill: #233997;
      }

      .st1 {
        fill: #f9be2d;
      }
    </style>
  </defs>
  <g>
    <path class="st0" d="M792.38,482.33c10.64-9.45,24.3-14.18,40.98-14.18s30.14,4.73,40.78,14.18c10.64,9.46,15.96,21.62,15.96,36.5s-5.29,27.04-15.85,36.5c-10.57,9.46-24.19,14.18-40.88,14.18s-30.35-4.73-40.98-14.18c-10.64-9.45-15.96-21.62-15.96-36.5s5.32-27.04,15.96-36.5ZM818.03,533.95c4.24,4.24,9.35,6.36,15.33,6.36s11.05-2.12,15.23-6.36c4.17-4.24,6.26-9.35,6.26-15.33s-2.09-11.26-6.26-15.43-9.25-6.26-15.23-6.26-11.09,2.08-15.33,6.26c-4.24,4.17-6.36,9.32-6.36,15.43s2.12,11.09,6.36,15.33Z"/>
    <path class="st0" d="M942.44,471.69v15.43c3.89-5.98,8.24-10.29,13.04-12.93,4.8-2.64,10.81-3.96,18.04-3.96h1.67c.69,0,1.39.04,2.09.1.69.07,1.6.18,2.71.31v31.91c-1.39-.69-2.64-1.25-3.75-1.67-1.12-.42-2.23-.76-3.34-1.04-.83-.28-1.77-.45-2.82-.52-1.04-.07-2.19-.1-3.44-.1-8.21,0-14.29,2.16-18.25,6.47-3.96,4.31-5.94,10.99-5.94,20.02v40.46h-33.37v-94.48h33.37Z"/>
    <path class="st0" d="M1043.59,520.08l22.94-48.39h37.33l-49.22,94.48h-22.32l-48.8-94.48h37.54l22.53,48.39Z"/>
    <path class="st0" d="M1118.57,422.05c3.68-3.61,8.1-5.42,13.24-5.42s9.73,1.81,13.35,5.42c3.61,3.62,5.42,8.07,5.42,13.35s-1.81,9.56-5.42,13.24c-3.62,3.69-8.07,5.53-13.35,5.53s-9.56-1.84-13.24-5.53c-3.69-3.68-5.53-8.1-5.53-13.24s1.84-9.73,5.53-13.35ZM1148.5,566.17h-33.37v-94.48h33.37v94.48Z"/>
    <path class="st0" d="M1168.73,471.69h43.59l16.27,19.4,16.69-19.4h43.38l-39.21,43.17,47.34,51.31h-44.22l-24.19-28.16-24.19,28.16h-44.22l47.14-51.31-38.38-43.17Z"/>
  </g>
  <g>
    <rect class="st0" x="617.78" y="485.29" width="33.37" height="33.37" transform="translate(540.78 -301.61) rotate(45)"/>
    <path class="st1" d="M724.17,480.9c-5.81-6.2-13.57-10.42-22.51-9.76-11.8.87-18.32,5.57-21.8,9.04l-7.72,7.72-45.4-45.41c-2.06-2.06-3.2-4.81-3.2-7.72,0-3.01,1.21-5.82,3.41-7.91,2.19-2.08,5.05-3.14,8.07-2.99,5.41.27,9.84,4.52,10.32,9.88.13,1.43-.02,2.81-.4,4.12l14.7,14.72c4.13-5.83,6.13-12.97,5.58-20.24-1.16-15.15-13.47-27.34-28.65-28.35-10.95-.74-21.26,4.19-27.79,13.63-3.46,5-5.14,11.02-5.14,17.11v.03h0c0,8.24,3.21,15.98,9.03,21.81l7.72,7.72-45.41,45.39c-2.07,2.07-4.82,3.2-7.73,3.2h-.33c-2.89-.09-5.56-1.29-7.57-3.4-2.08-2.19-3.15-5.07-2.99-8.1.27-5.32,4.63-9.85,9.92-10.3,1.4-.12,2.75.03,4.04.4l14.7-14.74c-5.83-4.1-12.96-6.09-20.2-5.53-15.17,1.17-27.34,13.5-28.33,28.69-.56,8.64,2.38,16.86,8.27,23.15,5.81,6.2,14.01,9.75,22.5,9.75,0,0,11.41.66,21.8-9.04l7.72-7.72,45.4,45.4c2.06,2.07,3.2,4.82,3.2,7.73v.3c-.08,2.9-1.28,5.59-3.41,7.6-2.19,2.08-5.06,3.15-8.09,2.98-5.32-.28-9.84-4.64-10.29-9.93-.11-1.36.02-2.67.37-3.92l-14.74-14.76c-4.08,5.82-6.06,12.92-5.5,20.15,1.17,15.15,13.5,27.33,28.68,28.32.7.05,1.4.07,2.09.07,7.87,0,15.28-2.92,21.06-8.33,5.11-4.78,9.76-14.02,9.19-25.19-.25-4.87-1.71-9.64-4.26-13.79-1.18-1.91-2.54-3.66-4.21-5.33l-7.72-7.72,45.4-45.4c2.07-2.06,4.82-3.2,7.73-3.2h.33c2.89.09,5.57,1.29,7.58,3.41,2.08,2.2,3.14,5.09,2.97,8.12-.29,5.32-4.66,9.83-9.96,10.26-1.37.11-2.71-.03-3.98-.4l-14.73,14.72c5.83,4.11,12.95,6.1,20.19,5.54,15.16-1.16,27.35-13.49,28.34-28.67.57-8.64-2.37-16.86-8.26-23.16ZM634.46,525.58l-23.6-23.6,23.6-23.6,23.6,23.6-23.6,23.6Z"/>
  </g>
</svg>