<?xml version="1.0" encoding="UTF-8"?>
<svg id="Layer_1" xmlns="http://www.w3.org/2000/svg" version="1.1" viewBox="0 0 1920 1080">
  <!-- Generator: Adobe Illustrator 29.5.1, SVG Export Plug-In . SVG Version: 2.1.0 Build 141)  -->
  <defs>
    <style>
      .st0 {
        fill: #233997;
      }

      .st1 {
        fill: #1db29f;
      }
    </style>
  </defs>
  <g>
    <path class="st1" d="M560.33,488c-.69-19.43-16.43-35.09-35.48-35.09-4.62,0-9.16.91-13.52,2.72-9.14-17.67-27.02-28.6-46.89-28.6-28.76,0-52.23,23.13-52.77,51.78-9.51.27-18.31,4.21-24.86,11.18-6.79,7.21-10.19,16.64-9.59,26.57,1.09,18.07,17.63,33.34,36.11,33.34h33.88c16.27,0,30.03-11.01,34.22-25.95h-21.17c-2.95,4.01-7.7,6.62-13.05,6.62h-34.51c-4.54,0-8.9-1.92-11.97-5.27-3.11-3.4-4.59-7.81-4.18-12.43.71-7.99,8.29-14.73,16.55-14.73h17.89v-17.64c0-18.03,13.78-32.99,31.38-34.06,29.73-2.16,38.46,29.68,39.35,33.32l.4,1.62,1.28-1.07c12.03-10.1,23.52-8.62,30.26-3.86,8.64,6.09,11.64,17.72,7.47,28.92l-.52,1.4h14.04c6.34,0,11.72,4.75,12.25,10.82.3,3.39-.79,6.63-3.07,9.12-2.25,2.46-5.45,3.86-8.78,3.86h-38.83c-16.06,0-29.65,10.7-34.05,25.34.36,0,13.78,0,21.47,0,2.98-3.66,7.5-6.01,12.57-6.01h38.83c17.22,0,31.24-14.01,31.24-31.23,0-15.07-11.09-28.1-25.95-30.66Z"/>
    <path class="st0" d="M495.61,503.5l-13.97-22.35c-.97-1.55-2.63-2.47-4.45-2.47h0c-1.82,0-3.49.92-4.45,2.47l-13.97,22.35c-1.03,1.64-1.08,3.63-.14,5.33.94,1.69,2.66,2.7,4.59,2.7h4.27c-.14,2.15-.71,4.19-1.61,6.04h20.25c.4-1.96.65-3.97.71-6.04h4.32c1.94,0,3.65-1.01,4.59-2.7.94-1.69.89-3.68-.14-5.33Z"/>
    <path class="st0" d="M499.55,569.57h-4.26c.17-2.65.99-5.13,2.29-7.28h-20.65c-.57,2.35-.91,4.78-.98,7.28h-4.31c-1.94,0-3.66,1.01-4.6,2.71-.94,1.7-.89,3.69.14,5.33l13.96,22.33c.97,1.55,2.63,2.47,4.46,2.47s3.49-.92,4.46-2.47l13.96-22.33c1.03-1.64,1.08-3.64.14-5.33-.94-1.7-2.66-2.71-4.6-2.71Z"/>
  </g>
  <g>
    <path class="st0" d="M748.43,398.1v152.88h-33.37v-10.43c-3.62,4.45-7.75,7.79-12.41,10.01-4.66,2.22-9.84,3.34-15.54,3.34-14.04,0-25.73-4.76-35.04-14.29-9.32-9.52-13.97-21.51-13.97-35.98s4.55-26.1,13.66-35.77c9.11-9.66,20.4-14.5,33.89-14.5,6.12,0,11.5.97,16.16,2.92,4.66,1.95,9.07,5.08,13.24,9.38v-67.58h33.37ZM679.19,519.07c4.17,4.17,9.25,6.26,15.23,6.26s11.05-2.08,15.22-6.26c4.17-4.17,6.26-9.25,6.26-15.23s-2.09-11.26-6.26-15.43c-4.17-4.17-9.25-6.26-15.22-6.26s-11.05,2.12-15.23,6.36c-4.17,4.24-6.26,9.35-6.26,15.33s2.09,11.05,6.26,15.23Z"/>
    <path class="st0" d="M783.58,467.13c10.64-9.45,24.3-14.18,40.98-14.18s30.14,4.73,40.78,14.18c10.64,9.46,15.96,21.62,15.96,36.5s-5.29,27.04-15.85,36.5c-10.57,9.46-24.19,14.18-40.88,14.18s-30.35-4.73-40.98-14.18c-10.64-9.45-15.96-21.62-15.96-36.5s5.32-27.04,15.96-36.5ZM809.23,518.75c4.24,4.24,9.35,6.36,15.33,6.36s11.05-2.12,15.23-6.36c4.17-4.24,6.26-9.35,6.26-15.33s-2.09-11.26-6.26-15.43-9.25-6.26-15.23-6.26-11.09,2.08-15.33,6.26c-4.24,4.17-6.36,9.32-6.36,15.43s2.12,11.09,6.36,15.33Z"/>
    <path class="st0" d="M971.6,487.16c-2.5-1.8-4.87-3.16-7.09-4.07-2.23-.9-4.45-1.49-6.67-1.77-.42-.14-.83-.21-1.25-.21h-1.25c-7.23,0-13.04,2.05-17.42,6.15-4.38,4.1-6.57,9.56-6.57,16.37s2.15,12.38,6.47,16.69c4.31,4.31,9.94,6.46,16.89,6.46,3.06,0,5.98-.52,8.76-1.56,2.78-1.04,5.49-2.68,8.13-4.9v28.37c-1.95.97-3.83,1.74-5.63,2.29-1.81.55-3.62,1.04-5.42,1.46-1.95.55-3.96.94-6.05,1.15-2.09.21-4.24.31-6.47.31-14.74,0-27.01-4.8-36.81-14.39-9.8-9.59-14.7-21.62-14.7-36.08s5.07-26.07,15.23-35.67c10.15-9.59,22.73-14.39,37.75-14.39,2.64,0,5.07.14,7.3.42,2.22.28,4.45.77,6.67,1.46,1.39.42,2.74.91,4.07,1.46,1.32.56,2.67,1.18,4.07,1.88v28.57Z"/>
    <path class="st0" d="M1023.95,510.1c0,5.84,1.42,10.22,4.28,13.14,2.85,2.92,7.06,4.38,12.62,4.38s9.98-1.46,12.83-4.38c2.85-2.92,4.28-7.3,4.28-13.14v-53.6h33.37v59.94c0,12.63-4.28,22.17-12.83,28.62-8.55,6.45-21.1,9.67-37.65,9.67s-28.89-3.23-37.44-9.67c-8.55-6.45-12.83-15.99-12.83-28.62v-59.94h33.37v53.6Z"/>
    <path class="st0" d="M1162.85,504.88l22.94-48.39h37.33l-49.22,94.48h-22.32l-48.8-94.48h37.54l22.53,48.39Z"/>
    <path class="st0" d="M1264.43,509.89c.14,7.23,1.91,12.59,5.32,16.06,3.41,3.48,8.52,5.21,15.33,5.21,3.89,0,7.02-.69,9.39-2.08,2.36-1.39,4.59-3.68,6.67-6.88h32.12c-3.34,11.4-9.25,19.64-17.73,24.71-8.48,5.07-18.49,7.61-30.03,7.61-16.83,0-30.17-4.52-40.05-13.56-9.87-9.04-14.81-21.2-14.81-36.5,0-16.96,5.11-29.65,15.33-38.06,10.22-8.41,23.32-12.62,39.32-12.62,17.1,0,29.62,5.39,37.54,16.16,7.93,10.78,11.89,24.09,11.89,39.94h-70.29ZM1296.86,479.33c-3.41-2.71-7.48-4.07-12.2-4.07-5.29,0-9.59,1.32-12.93,3.96-3.34,2.64-5.5,6.4-6.47,11.26h38.38c-1.11-4.73-3.37-8.45-6.78-11.16Z"/>
    <path class="st0" d="M1351.19,456.5h43.59l16.27,19.4,16.69-19.4h43.38l-39.21,43.17,47.34,51.31h-44.22l-24.19-28.16-24.19,28.16h-44.22l47.14-51.31-38.38-43.17Z"/>
  </g>
</svg>