<svg width="70" height="70" viewBox="0 0 70 70" fill="none" xmlns="http://www.w3.org/2000/svg">
<g filter="url(#filter0_d_10554_4879)">
<rect x="8" y="4" width="54" height="54" rx="16" fill="#BE4EFF"/>
<g clip-path="url(#clip0_10554_4879)">
<path d="M32.1337 48.9993C31.6256 48.7885 31.1938 48.4913 31.0618 47.8995C30.9881 47.554 31.049 47.1933 31.2322 46.8912C31.4153 46.5891 31.7069 46.3683 32.0473 46.2739C32.1942 46.2358 32.3451 46.2153 32.4969 46.2129C34.1733 46.2129 35.8472 46.2129 37.5211 46.2129C38.2831 46.2129 38.8241 46.6447 38.9613 47.3077C39.032 47.6248 38.9891 47.9567 38.8401 48.2454C38.6911 48.5342 38.4454 48.7614 38.1459 48.8876C38.0621 48.9231 37.9808 48.9663 37.8919 49.0069L32.1337 48.9993ZM35.0522 47.2899H32.5121C32.3191 47.2899 32.1387 47.3229 32.1413 47.5566C32.1438 47.7903 32.3216 47.8309 32.5147 47.8334H37.4449C37.6532 47.8334 37.8792 47.8182 37.8665 47.5413C37.8538 47.2645 37.6379 47.2873 37.4423 47.2873L35.0522 47.2899Z" fill="white"/>
<path d="M34.9964 42.1902C33.6604 42.1902 32.3243 42.1902 30.9882 42.1902C30.3939 42.1902 30.2567 42.0073 30.2262 41.4079C30.1957 40.6494 30.1176 39.8935 29.9925 39.1447C29.7856 38.1654 29.2839 37.2728 28.5549 36.5869C26.34 34.3491 25.4408 31.6389 25.9361 28.5273C26.5813 24.4785 29.7004 21.4711 33.7848 20.8564C35.6957 20.5958 37.6402 20.9384 39.347 21.8364C41.0537 22.7344 42.4374 24.1429 43.3049 25.8654C45.0829 29.5408 44.4403 33.6709 41.5269 36.5463C40.3991 37.6588 40.0028 38.9949 39.8631 40.4859C39.8327 40.8338 39.8479 41.1869 39.8276 41.5374C39.7996 42.0048 39.6117 42.1877 39.1392 42.1877C37.7625 42.1928 36.3807 42.1902 34.9964 42.1902ZM31.3819 41.0243C31.4119 41.0341 31.4424 41.0417 31.4734 41.0472C33.8085 41.0472 36.1411 41.0472 38.4712 41.0472C38.6769 41.0472 38.7252 40.9634 38.743 40.778C38.7582 40.463 38.7786 40.1455 38.8217 39.8331C39.0046 38.4868 39.4009 37.227 40.3204 36.183C40.769 35.7259 41.1929 35.2451 41.5904 34.7428C43.7316 31.6948 43.6224 27.8847 41.3796 24.9281C39.1926 22.0477 34.9583 21.0342 31.6614 22.5582C30.148 23.2479 28.8816 24.3836 28.0318 25.8132C27.1819 27.2427 26.7893 28.8979 26.9064 30.5568C27.0184 32.509 27.8618 34.3474 29.2686 35.7055C30.1928 36.5821 30.8213 37.7246 31.067 38.9745C31.2067 39.6476 31.2803 40.336 31.3819 41.0243Z" fill="white"/>
<path d="M34.9558 45.6214C33.7239 45.6214 32.4945 45.6214 31.2626 45.6214C30.9393 45.6084 30.6308 45.4823 30.3909 45.2651C30.1511 45.048 29.995 44.7535 29.95 44.4331C29.9049 44.1127 29.9738 43.7866 30.1445 43.5118C30.3152 43.2369 30.5769 43.0306 30.8841 42.929C31.0756 42.8739 31.2741 42.8466 31.4734 42.8477C33.8289 42.8477 36.1843 42.8477 38.5398 42.8477C39.4466 42.8477 40.0638 43.3913 40.0867 44.1812C40.0937 44.3753 40.0601 44.5687 39.9882 44.7491C39.9163 44.9295 39.8075 45.0929 39.6689 45.2289C39.5303 45.3649 39.3648 45.4705 39.1831 45.5389C39.0014 45.6074 38.8073 45.6372 38.6134 45.6265C37.3942 45.6265 36.175 45.6265 34.9558 45.6265V45.6214ZM35.0193 43.9297H34.0718C33.1803 43.9297 32.2938 43.9297 31.4023 43.9297C31.2854 43.9297 31.1711 44.0898 31.0543 44.1838C31.154 44.2888 31.2628 44.3849 31.3794 44.4708C31.4404 44.5089 31.5394 44.4708 31.6334 44.4708H38.4001C38.5043 44.4871 38.6108 44.4811 38.7125 44.453C38.809 44.3997 38.9309 44.2777 38.9284 44.199C38.9259 44.1203 38.7989 43.9983 38.7023 43.945C38.6058 43.8916 38.5195 43.945 38.4255 43.945L35.0193 43.9297Z" fill="white"/>
<path d="M28.839 19.452C28.7168 19.6199 28.5705 19.7689 28.4047 19.8939C28.3525 19.9226 28.2952 19.9406 28.236 19.947C28.1768 19.9535 28.117 19.9481 28.0599 19.9314C28.0028 19.9146 27.9495 19.8868 27.9032 19.8494C27.8569 19.812 27.8184 19.7659 27.79 19.7136C27.5715 19.4113 27.3759 19.0887 27.1753 18.7738L25.7376 16.5258C25.5878 16.2896 25.5166 16.0178 25.7224 15.8146C25.8746 15.681 26.071 15.6085 26.2736 15.6114C26.357 15.629 26.436 15.6633 26.5058 15.7121C26.5757 15.761 26.6349 15.8235 26.68 15.8959C27.3556 16.9119 28.0135 17.9609 28.6688 18.9998C28.7394 19.145 28.7963 19.2963 28.839 19.452Z" fill="white"/>
<path d="M34.4553 15.4918C34.4553 14.8847 34.4553 14.2751 34.4553 13.6655C34.4604 13.254 34.6966 13 35.0344 13C35.1135 13.0067 35.1904 13.029 35.2608 13.0657C35.3312 13.1023 35.3936 13.1526 35.4444 13.2136C35.4952 13.2745 35.5334 13.345 35.5568 13.4208C35.5801 13.4966 35.5882 13.5763 35.5805 13.6553C35.5805 14.8746 35.5805 16.0929 35.5805 17.3104C35.5805 17.7245 35.3468 17.981 35.0116 17.9709C34.6763 17.9607 34.468 17.7016 34.4654 17.285C34.4527 16.6881 34.4553 16.0912 34.4553 15.4918Z" fill="white"/>
<path d="M45.9843 24.5725C45.8624 24.4684 45.6414 24.3718 45.6008 24.2245C45.5721 24.0152 45.6001 23.802 45.6821 23.6073C45.7075 23.5286 45.837 23.4727 45.9361 23.4219C46.9843 22.8529 48.0341 22.2865 49.0857 21.7226C49.3397 21.5905 49.5937 21.5295 49.8071 21.7226C49.9318 21.8616 49.9966 22.0441 49.9874 22.2306C49.9656 22.3186 49.9263 22.4014 49.8717 22.4738C49.8172 22.5463 49.7485 22.607 49.6699 22.6522C48.5879 23.2568 47.4931 23.8384 46.3984 24.4303C46.2641 24.4879 46.1257 24.5354 45.9843 24.5725Z" fill="white"/>
<path d="M20.5076 21.5488C20.673 21.6016 20.835 21.6644 20.9928 21.7368C22.0088 22.2905 23.0528 22.8442 24.0713 23.4183C24.2451 23.5043 24.3795 23.6532 24.4472 23.8349C24.4649 23.9331 24.4599 24.034 24.4326 24.1299C24.4053 24.2259 24.3564 24.3144 24.2898 24.3886C24.1982 24.44 24.0971 24.472 23.9926 24.4825C23.8881 24.493 23.7826 24.4818 23.6827 24.4496C23.3495 24.3047 23.0277 24.1349 22.72 23.9415L20.3502 22.6512C20.0962 22.5115 19.9387 22.2854 20.0606 22.0162C20.147 21.8257 20.3654 21.6936 20.5076 21.5488Z" fill="white"/>
<path d="M44.7348 16.2213C44.6689 16.3852 44.5925 16.5447 44.5062 16.6988C43.8288 17.7148 43.1515 18.7308 42.4741 19.7468C42.2404 20.0948 41.9661 20.1736 41.6791 19.9831C41.3921 19.7926 41.3489 19.4903 41.5724 19.1499C42.2557 18.1136 42.9466 17.0849 43.6375 16.0536C43.6883 15.9379 43.7824 15.8466 43.8995 15.7991C44.0167 15.7517 44.1478 15.7519 44.2648 15.7996C44.4409 15.9169 44.5991 16.0589 44.7348 16.2213Z" fill="white"/>
<path d="M42.1921 29.9767C42.1108 26.347 39.0679 23.304 35.334 23.1313C34.7727 23.1059 34.4755 23.2812 34.4552 23.6393C34.4348 23.9975 34.7092 24.2083 35.2781 24.2362C36.6916 24.2982 38.0387 24.8536 39.0852 25.8059C40.1316 26.7581 40.8113 28.047 41.0059 29.4484C41.0466 29.738 41.0466 30.0326 41.0847 30.3196C41.084 30.3948 41.0987 30.4692 41.1278 30.5385C41.1569 30.6078 41.1998 30.6704 41.2538 30.7226C41.3079 30.7748 41.372 30.8154 41.4423 30.842C41.5125 30.8686 41.5875 30.8806 41.6625 30.8774C41.7376 30.8741 41.8112 30.8556 41.8789 30.8229C41.9465 30.7903 42.0069 30.7442 42.0562 30.6875C42.1055 30.6309 42.1427 30.5647 42.1657 30.4932C42.1886 30.4216 42.1967 30.3462 42.1896 30.2714C42.1947 30.1647 42.1921 30.0707 42.1921 29.9767Z" fill="white"/>
<path d="M42.1922 29.9784C42.1922 30.0724 42.1922 30.1664 42.1922 30.2603C42.1992 30.3346 42.1912 30.4094 42.1686 30.4805C42.146 30.5515 42.1093 30.6173 42.0607 30.6738C42.012 30.7303 41.9525 30.7764 41.8856 30.8093C41.8187 30.8423 41.7459 30.8614 41.6714 30.8655C41.597 30.8696 41.5225 30.8586 41.4524 30.8332C41.3823 30.8079 41.3181 30.7686 41.2635 30.7178C41.209 30.6669 41.1652 30.6056 41.1349 30.5375C41.1047 30.4694 41.0885 30.3958 41.0873 30.3213C41.0492 30.0343 41.0492 29.7396 41.0085 29.4501C40.8114 28.0522 40.1317 26.7673 39.0871 25.8177C38.0424 24.8682 36.6987 24.3138 35.2884 24.2506C34.7219 24.2227 34.4451 24.022 34.4654 23.6537C34.4857 23.2854 34.7829 23.1076 35.3443 23.1457C39.068 23.3057 42.1109 26.3487 42.1922 29.9784Z" fill="white"/>
</g>
</g>
<defs>
<filter id="filter0_d_10554_4879" x="0" y="0" width="70" height="70" filterUnits="userSpaceOnUse" color-interpolation-filters="sRGB">
<feFlood flood-opacity="0" result="BackgroundImageFix"/>
<feColorMatrix in="SourceAlpha" type="matrix" values="0 0 0 0 0 0 0 0 0 0 0 0 0 0 0 0 0 0 127 0" result="hardAlpha"/>
<feOffset dy="4"/>
<feGaussianBlur stdDeviation="4"/>
<feComposite in2="hardAlpha" operator="out"/>
<feColorMatrix type="matrix" values="0 0 0 0 0.0352941 0 0 0 0 0.137255 0 0 0 0 0.258824 0 0 0 0.08 0"/>
<feBlend mode="normal" in2="BackgroundImageFix" result="effect1_dropShadow_10554_4879"/>
<feBlend mode="normal" in="SourceGraphic" in2="effect1_dropShadow_10554_4879" result="shape"/>
</filter>
<clipPath id="clip0_10554_4879">
<rect width="36" height="36" fill="white" transform="translate(17 13)"/>
</clipPath>
</defs>
</svg>
