<svg width="70" height="70" viewBox="0 0 70 70" fill="none" xmlns="http://www.w3.org/2000/svg">
<g filter="url(#filter0_d_10564_2837)">
<rect x="8" y="4" width="54" height="54" rx="16" fill="#50BCFF"/>
<path d="M35.0002 46.8327C31.3321 45.9091 28.3037 43.8043 25.915 40.5183C23.5263 37.2324 22.3324 33.5844 22.3335 29.5744V19.916L35.0002 15.166L47.6668 19.916V27.8327H44.5002V22.0931L35.0002 18.5306L25.5002 22.0931V29.5744C25.5002 32.7674 26.3974 35.6702 28.1918 38.2827C29.9863 40.8952 32.2557 42.6368 35.0002 43.5077C35.6863 43.2966 36.3397 43.0264 36.9603 42.697C37.581 42.3677 38.1943 41.9782 38.8002 41.5285L41.0168 43.7452C40.146 44.4577 39.2029 45.0778 38.1874 45.6056C37.172 46.1334 36.1096 46.5424 35.0002 46.8327ZM49.2502 46.8327C48.8016 46.8327 48.4258 46.6807 48.1228 46.3767C47.8199 46.0727 47.6679 45.6969 47.6668 45.2493C47.6658 44.8018 47.8178 44.426 48.1228 44.122C48.4279 43.818 48.8037 43.666 49.2502 43.666C49.6967 43.666 50.073 43.818 50.3791 44.122C50.6852 44.426 50.8367 44.8018 50.8335 45.2493C50.8303 45.6969 50.6783 46.0732 50.3775 46.3783C50.0767 46.6833 49.7009 46.8348 49.2502 46.8327ZM47.6668 40.4993V30.9993H50.8335V40.4993H47.6668ZM35.0002 34.166C35.871 34.166 36.6167 33.8562 37.2374 33.2366C37.8581 32.617 38.1679 31.8712 38.1668 30.9993C38.1658 30.1275 37.856 29.3822 37.2374 28.7637C36.6189 28.1451 35.8731 27.8348 35.0002 27.8327C34.1272 27.8306 33.382 28.1409 32.7645 28.7637C32.147 29.3865 31.8367 30.1317 31.8335 30.9993C31.8303 31.867 32.1407 32.6128 32.7645 33.2366C33.3883 33.8604 34.1336 34.1702 35.0002 34.166ZM35.0002 37.3327C33.2585 37.3327 31.7675 36.7125 30.5272 35.4723C29.287 34.232 28.6668 32.741 28.6668 30.9993C28.6668 29.2577 29.287 27.7667 30.5272 26.5264C31.7675 25.2862 33.2585 24.666 35.0002 24.666C36.7418 24.666 38.2328 25.2862 39.4731 26.5264C40.7134 27.7667 41.3335 29.2577 41.3335 30.9993C41.3335 31.5799 41.2612 32.1409 41.1166 32.6824C40.972 33.2239 40.754 33.7449 40.4627 34.2452L45.1731 38.916L42.9168 41.1723L38.1668 36.4618C37.6918 36.7521 37.1841 36.9701 36.6437 37.1158C36.1032 37.2614 35.5554 37.3337 35.0002 37.3327Z" fill="white"/>
</g>
<defs>
<filter id="filter0_d_10564_2837" x="0" y="0" width="70" height="70" filterUnits="userSpaceOnUse" color-interpolation-filters="sRGB">
<feFlood flood-opacity="0" result="BackgroundImageFix"/>
<feColorMatrix in="SourceAlpha" type="matrix" values="0 0 0 0 0 0 0 0 0 0 0 0 0 0 0 0 0 0 127 0" result="hardAlpha"/>
<feOffset dy="4"/>
<feGaussianBlur stdDeviation="4"/>
<feComposite in2="hardAlpha" operator="out"/>
<feColorMatrix type="matrix" values="0 0 0 0 0.0352941 0 0 0 0 0.137255 0 0 0 0 0.258824 0 0 0 0.08 0"/>
<feBlend mode="normal" in2="BackgroundImageFix" result="effect1_dropShadow_10564_2837"/>
<feBlend mode="normal" in="SourceGraphic" in2="effect1_dropShadow_10564_2837" result="shape"/>
</filter>
</defs>
</svg>
