<svg width="70" height="70" viewBox="0 0 70 70" fill="none" xmlns="http://www.w3.org/2000/svg">
<g filter="url(#filter0_d_10586_2783)">
<rect x="8" y="4" width="54" height="54" rx="16" fill="#E03C31"/>
<path d="M33.1146 17.7994C33.5866 17.328 34.2181 17.0506 34.8846 17.022C35.551 16.9934 36.204 17.2155 36.7146 17.6447L36.8853 17.8007L39.4186 20.3327H43C43.6725 20.3328 44.3202 20.587 44.8132 21.0445C45.3062 21.5019 45.6082 22.1287 45.6586 22.7994L45.6666 22.9994V26.5807L48.2 29.114C48.6717 29.5861 48.9493 30.2178 48.9779 30.8846C49.0066 31.5513 48.7842 32.2046 48.3546 32.7154L48.1986 32.8847L45.6653 35.418V38.9994C45.6655 39.6721 45.4114 40.3201 44.954 40.8134C44.4965 41.3067 43.8695 41.6089 43.1986 41.6594L43 41.666H39.42L36.8866 44.1994C36.4146 44.6711 35.7828 44.9487 35.116 44.9773C34.4493 45.006 33.7961 44.7836 33.2853 44.354L33.116 44.1994L30.5826 41.666H27C26.3272 41.6662 25.6792 41.4121 25.1859 40.9547C24.6926 40.4972 24.3904 39.8702 24.34 39.1994L24.3333 38.9994V35.418L21.8 32.8847C21.3282 32.4126 21.0506 31.7809 21.022 31.1141C20.9934 30.4474 21.2158 29.7941 21.6453 29.2834L21.8 29.114L24.3333 26.5807V22.9994C24.3334 22.3268 24.5877 21.6792 25.0451 21.1861C25.5025 20.6931 26.1293 20.3911 26.8 20.3407L27 20.3327H30.5813L33.1146 17.7994ZM35 19.6874L32.4666 22.2207C32.0237 22.6629 31.4394 22.9352 30.816 22.99L30.5813 22.9994H27V26.5807C27.0001 27.2072 26.7797 27.8138 26.3773 28.294L26.2186 28.4674L23.6853 31.0007L26.2186 33.5327C26.6613 33.9754 26.9341 34.5597 26.9893 35.1834L27 35.418V38.9994H30.5813C31.2078 38.9992 31.8144 39.2196 32.2946 39.622L32.468 39.7807L35 42.314L37.5333 39.7807C37.976 39.338 38.5603 39.0652 39.184 39.01L39.4186 38.9994H43V35.418C42.9998 34.7915 43.2202 34.1849 43.6226 33.7047L43.7813 33.5314L46.3146 30.9994L43.7813 28.466C43.3386 28.0233 43.0658 27.439 43.0106 26.8154L43 26.5807V22.9994H39.4186C38.7921 22.9995 38.1855 22.7791 37.7053 22.3767L37.532 22.218L34.9986 19.6847L35 19.6874ZM39.1066 26.978C39.3466 26.7389 39.6685 26.6001 40.0071 26.5897C40.3457 26.5794 40.6756 26.6983 40.9297 26.9223C41.1838 27.1464 41.343 27.4588 41.3752 27.796C41.4073 28.1332 41.3098 28.47 41.1026 28.738L40.9906 28.8634L34.484 35.37C34.2299 35.6244 33.8913 35.7766 33.5324 35.7977C33.1736 35.8189 32.8194 35.7075 32.5373 35.4847L32.4093 35.3714L29.204 32.166C28.9623 31.9266 28.8213 31.6039 28.8097 31.264C28.7982 30.924 28.917 30.5925 29.1419 30.3372C29.3668 30.082 29.6807 29.9224 30.0195 29.8911C30.3582 29.8597 30.6961 29.9591 30.964 30.1687L31.0893 30.2794L33.4466 32.6367L39.1066 26.978Z" fill="white"/>
</g>
<defs>
<filter id="filter0_d_10586_2783" x="0" y="0" width="70" height="70" filterUnits="userSpaceOnUse" color-interpolation-filters="sRGB">
<feFlood flood-opacity="0" result="BackgroundImageFix"/>
<feColorMatrix in="SourceAlpha" type="matrix" values="0 0 0 0 0 0 0 0 0 0 0 0 0 0 0 0 0 0 127 0" result="hardAlpha"/>
<feOffset dy="4"/>
<feGaussianBlur stdDeviation="4"/>
<feComposite in2="hardAlpha" operator="out"/>
<feColorMatrix type="matrix" values="0 0 0 0 0.0352941 0 0 0 0 0.137255 0 0 0 0 0.258824 0 0 0 0.08 0"/>
<feBlend mode="normal" in2="BackgroundImageFix" result="effect1_dropShadow_10586_2783"/>
<feBlend mode="normal" in="SourceGraphic" in2="effect1_dropShadow_10586_2783" result="shape"/>
</filter>
</defs>
</svg>
