<svg width="70" height="70" viewBox="0 0 70 70" fill="none" xmlns="http://www.w3.org/2000/svg">
<g filter="url(#filter0_d_10554_4895)">
<rect x="8" y="4" width="54" height="54" rx="16" fill="#BE4EFF"/>
<g clip-path="url(#clip0_10554_4895)">
<path d="M43.8864 49.0001C43.2652 48.8905 42.6511 48.7438 42.0474 48.5607C41.0012 48.1977 40.0532 47.5978 39.2772 46.8077C38.5013 46.0177 37.9185 45.0589 37.5744 44.0064C37.5515 43.9404 37.5287 43.8718 37.5033 43.8083C37.4867 43.776 37.4672 43.7454 37.4449 43.7168L36.279 44.4052C35.517 44.8548 34.755 45.2917 34.0107 45.7514C33.8664 45.8517 33.6949 45.9055 33.5192 45.9055C33.3435 45.9055 33.172 45.8517 33.0277 45.7514C28.6589 43.1606 24.2858 40.5765 19.9084 37.9992C19.7581 37.9241 19.633 37.8067 19.5486 37.6613C19.4642 37.516 19.4241 37.3491 19.4334 37.1813C19.4334 32.025 19.4334 26.8704 19.4334 21.7175C19.4222 21.5373 19.4644 21.3578 19.5547 21.2014C19.6451 21.0451 19.7796 20.9189 19.9414 20.8387C24.3001 18.2733 28.6538 15.7019 33.0023 13.1246C33.1508 13.0194 33.3283 12.9629 33.5103 12.9629C33.6923 12.9629 33.8698 13.0194 34.0183 13.1246C38.3669 15.7036 42.7205 18.2741 47.0792 20.8362C47.2397 20.9181 47.3722 21.0459 47.4599 21.2032C47.5477 21.3606 47.5867 21.5405 47.572 21.7201C47.572 26.0051 47.572 30.2902 47.5568 34.5752C47.5442 34.7049 47.574 34.8352 47.6418 34.9465C47.7096 35.0578 47.8117 35.1441 47.9327 35.1925C50.4931 36.6149 51.8494 38.8196 51.8291 41.7331C51.8063 44.5906 50.4321 46.7395 47.9327 48.139C47.1588 48.564 46.3085 48.8316 45.4308 48.9265C45.3396 48.9422 45.2496 48.9642 45.1615 48.9925L43.8864 49.0001ZM30.033 26.6478C30.1753 26.7417 30.2692 26.8078 30.3658 26.8637C31.3157 27.4276 32.2683 27.9787 33.2081 28.5553C33.2951 28.6189 33.4 28.6532 33.5078 28.6532C33.6156 28.6532 33.7205 28.6189 33.8075 28.5553C37.3043 26.4827 40.807 24.4108 44.3157 22.3399C44.4335 22.2642 44.5576 22.1988 44.6865 22.1443C44.8139 22.0991 44.9529 22.0988 45.0804 22.1435C45.2079 22.1882 45.3163 22.2752 45.3875 22.3901C45.4587 22.5049 45.4885 22.6407 45.4719 22.7748C45.4553 22.9089 45.3932 23.0333 45.2961 23.1273C45.1722 23.2349 45.0367 23.3286 44.8923 23.4067C41.4006 25.4793 37.9063 27.5452 34.4095 29.6044C34.3071 29.6528 34.2222 29.7318 34.1667 29.8306C34.1112 29.9293 34.0877 30.0429 34.0996 30.1556C34.1098 33.268 34.1098 36.3795 34.0996 39.4902C34.1098 39.6306 34.1098 39.7715 34.0996 39.9119C34.0901 40.0487 34.0294 40.1769 33.9296 40.271C33.8298 40.3652 33.6983 40.4183 33.5611 40.4199C33.4193 40.4422 33.2744 40.4086 33.1569 40.3262C33.0393 40.2437 32.9584 40.1189 32.9312 39.9779C32.9017 39.8403 32.8915 39.6992 32.9007 39.5588C32.9007 36.4108 32.9007 33.2646 32.9007 30.12C32.9142 30.0172 32.895 29.9128 32.8458 29.8216C32.7965 29.7304 32.7197 29.6571 32.6264 29.612C31.6637 29.0735 30.7163 28.4944 29.7689 27.9457C29.6723 27.8873 29.5758 27.8365 29.431 27.7578V28.2074C29.431 29.4494 29.431 30.6941 29.431 31.9387C29.431 32.721 28.984 32.9801 28.3134 32.5838C26.9774 31.7964 25.6515 31.0014 24.3103 30.2267C24.1466 30.1468 24.0106 30.0196 23.92 29.8615C23.8295 29.7035 23.7884 29.5219 23.8023 29.3402C23.815 27.8162 23.8023 26.3125 23.815 24.7986C23.8263 24.6792 23.7998 24.5593 23.7391 24.4558C23.6785 24.3523 23.5869 24.2705 23.4772 24.222C22.6415 23.747 21.8185 23.2492 20.9905 22.7615C20.8965 22.7056 20.7949 22.6624 20.6679 22.5964C20.6679 22.7107 20.6526 22.7793 20.6526 22.8504C20.6526 27.4885 20.6526 32.1258 20.6526 36.7622C20.6503 36.8595 20.6778 36.9552 20.7313 37.0365C20.7849 37.1177 20.862 37.1807 20.9524 37.2169C24.8132 39.4928 28.6716 41.7712 32.5273 44.0521C32.634 44.1156 32.7432 44.169 32.8931 44.2502C32.8931 43.6483 32.8931 43.1098 32.8931 42.5713C32.8931 41.9668 33.0862 41.6797 33.4976 41.6772C33.9091 41.6747 34.1047 41.9591 34.1047 42.5637C34.1047 43.1072 34.1047 43.6533 34.1047 44.1969C34.1809 44.1969 34.2088 44.1969 34.2241 44.1969C35.1639 43.6432 36.1063 43.0945 37.0385 42.5256C37.0846 42.4815 37.1216 42.4287 37.1473 42.3703C37.173 42.3119 37.187 42.249 37.1883 42.1852C37.2467 41.5324 37.2239 40.8669 37.3382 40.2268C37.6506 38.5812 38.5258 37.0956 39.8137 36.0246C41.1016 34.9536 42.722 34.3639 44.397 34.3568C45.037 34.3568 45.667 34.4584 46.3299 34.5143C46.3299 34.466 46.3452 34.3847 46.3452 34.3035C46.3452 30.2394 46.3452 26.1753 46.3452 22.1113C46.3507 22.0245 46.3292 21.9381 46.2838 21.864C46.2383 21.7899 46.171 21.7316 46.0912 21.6972C44.9075 21.0063 43.7238 20.3129 42.5351 19.6017C42.4481 19.5381 42.3431 19.5039 42.2354 19.5039C42.1276 19.5039 42.0227 19.5381 41.9357 19.6017C39.9493 20.7854 37.958 21.9563 35.9691 23.1323L30.033 26.6478ZM25.6489 24.0874C26.6446 24.6767 27.6047 25.2355 28.5547 25.8146C28.6333 25.8711 28.7281 25.9005 28.8248 25.8982C28.9215 25.8959 29.0149 25.8621 29.0907 25.8019C32.9752 23.5007 36.8615 21.2036 40.7495 18.9108C40.8358 18.86 40.9171 18.799 41.0289 18.7254C40.9069 18.6441 40.813 18.5781 40.7139 18.5196C39.8782 18.0243 39.0349 17.5366 38.2043 17.0286C38.1135 16.9592 38.0024 16.9216 37.8881 16.9216C37.7738 16.9216 37.6627 16.9592 37.5719 17.0286C36.0047 17.971 34.4273 18.8956 32.8499 19.8227C32.7314 19.8972 32.6064 19.9609 32.4765 20.0132C32.35 20.0658 32.2086 20.0702 32.079 20.0258C31.9494 19.9813 31.8406 19.891 31.773 19.7719C31.697 19.653 31.666 19.5109 31.6856 19.3712C31.7051 19.2315 31.7739 19.1033 31.8796 19.0099C31.9792 18.9278 32.0863 18.8555 32.1997 18.794L36.3171 16.3581L36.6752 16.1396C35.6745 15.5402 34.7118 14.9814 33.7643 14.3997C33.6872 14.3414 33.5931 14.3098 33.4964 14.3098C33.3996 14.3098 33.3056 14.3414 33.2284 14.3997C29.3438 16.7094 25.4584 19.0124 21.5721 21.3086C21.4807 21.3645 21.3918 21.4254 21.275 21.5016C22.258 22.0833 23.2079 22.6396 24.1503 23.2111C24.2323 23.2715 24.3316 23.3041 24.4335 23.3041C24.5354 23.3041 24.6347 23.2715 24.7167 23.2111C26.4363 22.1824 28.1763 21.1664 29.8908 20.1478C30.0103 20.0749 30.1361 20.0129 30.2667 19.9624C30.3921 19.9222 30.5273 19.9248 30.6511 19.9698C30.7749 20.0148 30.8802 20.0996 30.9505 20.2109C31.0209 20.3222 31.0522 20.4538 31.0397 20.5849C31.0272 20.716 30.9715 20.8392 30.8814 20.9352C30.7702 21.0367 30.6453 21.1222 30.5105 21.1892C29.0102 22.0799 27.5065 22.9698 25.9994 23.8588C25.8902 23.9223 25.7886 24.001 25.6489 24.0874ZM44.5189 47.7784C47.8946 47.7555 50.6709 44.964 50.615 41.6416C50.6105 40.4326 50.2476 39.2521 49.5723 38.2494C48.8969 37.2466 47.9394 36.4665 46.8209 36.0078C45.7023 35.5491 44.4728 35.4323 43.2878 35.6722C42.1029 35.9122 41.0157 36.498 40.1636 37.3557C39.3116 38.2135 38.733 39.3045 38.5009 40.4911C38.2689 41.6776 38.3938 42.9062 38.86 44.0218C39.3261 45.1373 40.1125 46.0896 41.1198 46.7582C42.127 47.4269 43.3099 47.7819 44.5189 47.7784ZM25.052 25.1568C25.052 26.5182 25.052 27.806 25.052 29.0964C25.052 29.1878 25.1765 29.3072 25.273 29.3656C26.1569 29.899 27.051 30.4223 27.9324 30.9455C28.0149 30.986 28.0997 31.0217 28.1864 31.0522C28.1864 29.7263 28.1864 28.4385 28.1864 27.1507C28.1796 27.1069 28.1637 27.065 28.1396 27.0278C28.1155 26.9906 28.0839 26.9589 28.0467 26.9348C27.0764 26.3506 26.0985 25.7765 25.052 25.1568Z" fill="white"/>
<path d="M25.5575 36.1543C25.5575 35.8012 25.5575 35.4507 25.5575 35.1002C25.5588 35.0765 25.5588 35.0527 25.5575 35.0291C25.5347 34.6049 25.3035 34.3509 24.9606 34.3407C24.6177 34.3305 24.3434 34.5947 24.3332 35.0291C24.3205 35.7911 24.3332 36.5277 24.3332 37.277C24.3332 37.7215 24.5873 37.9907 24.9429 37.9907C25.2985 37.9907 25.5448 37.7164 25.5575 37.277C25.5652 36.9036 25.5575 36.5277 25.5575 36.1543ZM23.0962 34.9376V33.7794C23.1021 33.6944 23.0906 33.6091 23.0623 33.5287C23.034 33.4484 22.9896 33.3747 22.9318 33.3121C22.874 33.2495 22.804 33.1995 22.7262 33.1649C22.6483 33.1304 22.5642 33.1122 22.479 33.1113C22.3965 33.1128 22.3151 33.1312 22.2399 33.1653C22.1648 33.1994 22.0974 33.2486 22.0419 33.3097C21.9865 33.3709 21.9441 33.4428 21.9175 33.5209C21.8909 33.5991 21.8806 33.6818 21.8872 33.7641C21.8872 34.5465 21.8872 35.3313 21.8872 36.1162C21.8797 36.1984 21.8896 36.2812 21.9162 36.3593C21.9427 36.4375 21.9854 36.5091 22.0414 36.5697C22.0975 36.6303 22.1656 36.6784 22.2414 36.711C22.3172 36.7436 22.399 36.7599 22.4816 36.7588C22.5672 36.7615 22.6524 36.7458 22.7314 36.7127C22.8105 36.6797 22.8815 36.6301 22.9398 36.5672C22.998 36.5044 23.0421 36.4298 23.0691 36.3485C23.0961 36.2672 23.1054 36.1811 23.0962 36.0959C23.1115 35.7098 23.0962 35.3237 23.0962 34.9376Z" fill="white"/>
<path d="M49.4109 41.6719C49.3779 41.3696 49.3627 41.0648 49.3043 40.7651C49.0775 39.5143 48.3665 38.4035 47.3256 37.6738C47.1122 37.5189 46.8582 37.4198 46.6448 37.6027C46.5581 37.6665 46.4859 37.7479 46.4329 37.8416C46.38 37.9353 46.3474 38.0391 46.3375 38.1463C46.3872 38.3799 46.5187 38.588 46.7083 38.733C47.2932 39.183 47.7316 39.7961 47.9685 40.4949C48.2054 41.1938 48.23 41.9471 48.0393 42.6599C47.7713 43.5848 47.1501 44.3671 46.31 44.8377C45.4699 45.3082 44.4784 45.4293 43.5497 45.1747C42.6211 44.9201 41.8299 44.3103 41.3473 43.477C40.8646 42.6438 40.7292 41.6541 40.9704 40.7219C41.1713 39.9741 41.6045 39.3094 42.2076 38.8237C42.8106 38.3379 43.5523 38.0563 44.3258 38.0193C44.8541 37.9914 45.1234 37.7653 45.103 37.3589C45.0827 36.9525 44.7881 36.7696 44.2521 36.8026C43.603 36.834 42.9668 36.9952 42.3811 37.2766C41.7953 37.5579 41.2719 37.9538 40.8416 38.4409C40.4114 38.9279 40.0832 39.4962 39.8762 40.1122C39.6693 40.7282 39.5879 41.3795 39.6369 42.0275C39.7371 43.3104 40.336 44.5029 41.305 45.3495C42.2741 46.1961 43.5364 46.6294 44.8211 46.5564C47.3103 46.4192 49.3906 44.2424 49.4109 41.6719ZM43.5688 42.3628C43.4253 42.1849 43.2718 42.0153 43.1091 41.8548C43.0536 41.7939 42.9863 41.7451 42.9113 41.7112C42.8362 41.6774 42.7551 41.6592 42.6728 41.6578C42.5905 41.6564 42.5087 41.6718 42.4326 41.7031C42.3565 41.7345 42.2875 41.781 42.23 41.8399C42.1725 41.8988 42.1276 41.9688 42.0981 42.0457C42.0686 42.1225 42.0552 42.2046 42.0585 42.2868C42.0619 42.3691 42.082 42.4498 42.1176 42.524C42.1533 42.5982 42.2037 42.6643 42.2658 42.7184C42.552 43.0316 42.8509 43.3305 43.1624 43.615C43.213 43.674 43.2753 43.7218 43.3455 43.7554C43.4156 43.789 43.4919 43.8076 43.5696 43.8099C43.6473 43.8123 43.7246 43.7985 43.7967 43.7693C43.8687 43.7401 43.9338 43.6962 43.988 43.6404C44.9354 42.7158 45.8676 41.7709 46.8023 40.8311C46.8353 40.8006 46.876 40.7498 46.8734 40.7143C46.8811 40.483 46.8395 40.2527 46.7515 40.0386C46.6729 39.9339 46.557 39.8635 46.4278 39.8422C46.2986 39.8209 46.1661 39.8503 46.0581 39.9243C45.9399 40.0005 45.8316 40.0909 45.7355 40.1936C45.0243 40.8946 44.3232 41.6007 43.5638 42.3628H43.5688Z" fill="white"/>
<path d="M25.5576 36.1556C25.5576 36.5289 25.5576 36.9176 25.5576 37.2783C25.5576 37.7177 25.3036 37.992 24.9429 37.992C24.5822 37.992 24.3409 37.7228 24.3333 37.2783C24.3333 36.5162 24.3206 35.7796 24.3333 35.0303C24.3333 34.5833 24.5873 34.3343 24.9607 34.342C25.3341 34.3496 25.5347 34.596 25.5576 35.0303C25.5588 35.054 25.5588 35.0778 25.5576 35.1014C25.5601 35.452 25.5576 35.8025 25.5576 36.1556Z" fill="white"/>
<path d="M23.0962 34.9382C23.0962 35.3243 23.0962 35.7002 23.0962 36.0965C23.1053 36.1814 23.0961 36.2674 23.0692 36.3485C23.0424 36.4296 22.9985 36.5041 22.9405 36.5668C22.8826 36.6296 22.8119 36.6793 22.7331 36.7125C22.6544 36.7457 22.5695 36.7617 22.484 36.7594C22.4017 36.7598 22.3202 36.7429 22.2448 36.7099C22.1694 36.6768 22.1018 36.6283 22.0463 36.5676C21.9908 36.5068 21.9486 36.435 21.9225 36.357C21.8964 36.2789 21.8869 36.1962 21.8947 36.1142C21.8947 35.3294 21.8947 34.5445 21.8947 33.7622C21.8881 33.6799 21.8985 33.5971 21.9251 33.519C21.9517 33.4408 21.994 33.3689 22.0495 33.3078C22.1049 33.2466 22.1723 33.1974 22.2475 33.1633C22.3227 33.1292 22.404 33.1108 22.4866 33.1094C22.5713 33.1112 22.6548 33.1303 22.732 33.1654C22.8091 33.2006 22.8783 33.251 22.9354 33.3138C22.9924 33.3765 23.0361 33.4502 23.0637 33.5303C23.0914 33.6105 23.1024 33.6954 23.0962 33.7799V34.9382Z" fill="white"/>
<path d="M49.4109 41.6721C49.3906 44.2401 47.3103 46.4194 44.8211 46.5464C43.5364 46.6194 42.2741 46.1862 41.305 45.3396C40.336 44.493 39.7371 43.3005 39.6369 42.0176C39.5879 41.3696 39.6693 40.7183 39.8762 40.1023C40.0832 39.4863 40.4114 38.918 40.8416 38.4309C41.2719 37.9439 41.7953 37.548 42.3811 37.2666C42.9668 36.9853 43.603 36.8241 44.2521 36.7927C44.7881 36.7597 45.0802 36.9527 45.103 37.349C45.1259 37.7452 44.849 37.9814 44.3258 38.0094C43.8379 38.0336 43.3599 38.1555 42.9199 38.3678C42.48 38.58 42.0871 38.8784 41.7645 39.2452C41.4419 39.612 41.1961 40.0398 41.0418 40.5032C40.8874 40.9666 40.8276 41.4563 40.8658 41.9433C40.904 42.4303 41.0395 42.9047 41.2643 43.3383C41.4891 43.772 41.7986 44.1562 42.1745 44.4681C42.5504 44.7801 42.985 45.0135 43.4527 45.1545C43.9204 45.2955 44.4116 45.3413 44.8973 45.2891C45.6266 45.2189 46.3174 44.929 46.8784 44.4578C47.4394 43.9866 47.8442 43.3562 48.0393 42.65C48.2311 41.9382 48.2081 41.1855 47.973 40.4867C47.738 39.788 47.3015 39.1744 46.7185 38.7231C46.5271 38.5823 46.392 38.3779 46.3375 38.1465C46.3488 38.0411 46.382 37.9393 46.4349 37.8474C46.4878 37.7556 46.5593 37.6758 46.6448 37.6131C46.8582 37.4404 47.1122 37.5293 47.3256 37.6842C48.3665 38.4139 49.0775 39.5247 49.3043 40.7755C49.3627 41.065 49.3779 41.3698 49.4109 41.6721Z" fill="white"/>
<path d="M43.5636 42.3638C44.3256 41.6018 45.0241 40.8957 45.7302 40.1921C45.8263 40.0895 45.9347 39.999 46.0528 39.9229C46.1609 39.8489 46.2933 39.8195 46.4225 39.8408C46.5517 39.862 46.6677 39.9324 46.7462 40.0372C46.8342 40.2512 46.8758 40.4815 46.8682 40.7128C46.8682 40.7484 46.8301 40.7992 46.797 40.8297C45.8623 41.7695 44.9301 42.7144 43.9827 43.6389C43.9286 43.6947 43.8634 43.7386 43.7914 43.7678C43.7193 43.797 43.642 43.8109 43.5643 43.8085C43.4866 43.8061 43.4103 43.7875 43.3402 43.7539C43.2701 43.7204 43.2077 43.6726 43.1572 43.6135C42.8473 43.3291 42.5484 43.0302 42.2605 42.7169C42.1984 42.6629 42.148 42.5967 42.1123 42.5225C42.0767 42.4483 42.0566 42.3676 42.0532 42.2854C42.0499 42.2031 42.0634 42.1211 42.0929 42.0442C42.1223 41.9673 42.1672 41.8973 42.2247 41.8384C42.2823 41.7795 42.3512 41.733 42.4273 41.7017C42.5035 41.6704 42.5852 41.6549 42.6675 41.6563C42.7498 41.6577 42.831 41.6759 42.906 41.7098C42.981 41.7436 43.0483 41.7925 43.1038 41.8533C43.2666 42.0146 43.4201 42.1851 43.5636 42.3638Z" fill="white"/>
</g>
</g>
<defs>
<filter id="filter0_d_10554_4895" x="0" y="0" width="70" height="70" filterUnits="userSpaceOnUse" color-interpolation-filters="sRGB">
<feFlood flood-opacity="0" result="BackgroundImageFix"/>
<feColorMatrix in="SourceAlpha" type="matrix" values="0 0 0 0 0 0 0 0 0 0 0 0 0 0 0 0 0 0 127 0" result="hardAlpha"/>
<feOffset dy="4"/>
<feGaussianBlur stdDeviation="4"/>
<feComposite in2="hardAlpha" operator="out"/>
<feColorMatrix type="matrix" values="0 0 0 0 0.0352941 0 0 0 0 0.137255 0 0 0 0 0.258824 0 0 0 0.08 0"/>
<feBlend mode="normal" in2="BackgroundImageFix" result="effect1_dropShadow_10554_4895"/>
<feBlend mode="normal" in="SourceGraphic" in2="effect1_dropShadow_10554_4895" result="shape"/>
</filter>
<clipPath id="clip0_10554_4895">
<rect width="36" height="36" fill="white" transform="translate(17 13)"/>
</clipPath>
</defs>
</svg>
