<svg width="70" height="70" viewBox="0 0 70 70" fill="none" xmlns="http://www.w3.org/2000/svg">
<g filter="url(#filter0_d_10564_3940)">
<rect x="8" y="4" width="54" height="54" rx="16" fill="#00B39F"/>
<path d="M49.8439 31.0002C49.8439 31.4726 49.6563 31.9257 49.3222 32.2597C48.9882 32.5938 48.5351 32.7814 48.0627 32.7814H35.0002C34.5278 32.7814 34.0747 32.5938 33.7406 32.2597C33.4066 31.9257 33.2189 31.4726 33.2189 31.0002C33.2189 30.5278 33.4066 30.0747 33.7406 29.7407C34.0747 29.4066 34.5278 29.2189 35.0002 29.2189H48.0627C48.5351 29.2189 48.9882 29.4066 49.3222 29.7407C49.6563 30.0747 49.8439 30.5278 49.8439 31.0002ZM35.0002 23.2814H48.0627C48.5351 23.2814 48.9882 23.0938 49.3222 22.7597C49.6563 22.4257 49.8439 21.9726 49.8439 21.5002C49.8439 21.0278 49.6563 20.5747 49.3222 20.2407C48.9882 19.9066 48.5351 19.7189 48.0627 19.7189H35.0002C34.5278 19.7189 34.0747 19.9066 33.7406 20.2407C33.4066 20.5747 33.2189 21.0278 33.2189 21.5002C33.2189 21.9726 33.4066 22.4257 33.7406 22.7597C34.0747 23.0938 34.5278 23.2814 35.0002 23.2814ZM48.0627 38.7189H35.0002C34.5278 38.7189 34.0747 38.9066 33.7406 39.2407C33.4066 39.5747 33.2189 40.0278 33.2189 40.5002C33.2189 40.9726 33.4066 41.4257 33.7406 41.7597C34.0747 42.0938 34.5278 42.2814 35.0002 42.2814H48.0627C48.5351 42.2814 48.9882 42.0938 49.3222 41.7597C49.6563 41.4257 49.8439 40.9726 49.8439 40.5002C49.8439 40.0278 49.6563 39.5747 49.3222 39.2407C48.9882 38.9066 48.5351 38.7189 48.0627 38.7189ZM27.8024 17.865L24.3127 21.3518L23.1979 20.2355C22.8633 19.9009 22.4094 19.7129 21.9362 19.7129C21.463 19.7129 21.0091 19.9009 20.6745 20.2355C20.3398 20.5701 20.1519 21.024 20.1519 21.4972C20.1519 21.9705 20.3398 22.4243 20.6745 22.7589L23.0495 25.1339C23.215 25.3 23.4116 25.4318 23.6281 25.5217C23.8446 25.6116 24.0768 25.6579 24.3112 25.6579C24.5456 25.6579 24.7778 25.6116 24.9943 25.5217C25.2108 25.4318 25.4074 25.3 25.5729 25.1339L30.3229 20.3839C30.6575 20.0493 30.8455 19.5955 30.8455 19.1222C30.8455 18.649 30.6575 18.1951 30.3229 17.8605C29.9883 17.5259 29.5344 17.3379 29.0612 17.3379C28.588 17.3379 28.1341 17.5259 27.7995 17.8605L27.8024 17.865ZM27.8024 27.365L24.3127 30.8518L23.1979 29.7355C22.8633 29.4009 22.4094 29.2129 21.9362 29.2129C21.463 29.2129 21.0091 29.4009 20.6745 29.7355C20.3398 30.0701 20.1519 30.524 20.1519 30.9972C20.1519 31.4705 20.3398 31.9243 20.6745 32.2589L23.0495 34.6339C23.215 34.8 23.4116 34.9318 23.6281 35.0217C23.8446 35.1116 24.0768 35.1579 24.3112 35.1579C24.5456 35.1579 24.7778 35.1116 24.9943 35.0217C25.2108 34.9318 25.4074 34.8 25.5729 34.6339L30.3229 29.8839C30.6575 29.5493 30.8455 29.0955 30.8455 28.6222C30.8455 28.149 30.6575 27.6951 30.3229 27.3605C29.9883 27.0259 29.5344 26.8379 29.0612 26.8379C28.588 26.8379 28.1341 27.0259 27.7995 27.3605L27.8024 27.365ZM27.8024 36.865L24.3127 40.3518L23.1979 39.2355C23.0322 39.0698 22.8355 38.9384 22.619 38.8487C22.4025 38.759 22.1705 38.7129 21.9362 38.7129C21.7019 38.7129 21.4698 38.759 21.2534 38.8487C21.0369 38.9384 20.8402 39.0698 20.6745 39.2355C20.5088 39.4012 20.3774 39.5979 20.2877 39.8144C20.198 40.0309 20.1519 40.2629 20.1519 40.4972C20.1519 40.7316 20.198 40.9636 20.2877 41.1801C20.3774 41.3966 20.5088 41.5933 20.6745 41.7589L23.0495 44.1339C23.215 44.3 23.4116 44.4318 23.6281 44.5217C23.8446 44.6116 24.0768 44.6579 24.3112 44.6579C24.5456 44.6579 24.7778 44.6116 24.9943 44.5217C25.2108 44.4318 25.4074 44.3 25.5729 44.1339L30.3229 39.3839C30.6575 39.0493 30.8455 38.5955 30.8455 38.1222C30.8455 37.649 30.6575 37.1951 30.3229 36.8605C29.9883 36.5259 29.5344 36.3379 29.0612 36.3379C28.588 36.3379 28.1341 36.5259 27.7995 36.8605L27.8024 36.865Z" fill="white"/>
</g>
<defs>
<filter id="filter0_d_10564_3940" x="0" y="0" width="70" height="70" filterUnits="userSpaceOnUse" color-interpolation-filters="sRGB">
<feFlood flood-opacity="0" result="BackgroundImageFix"/>
<feColorMatrix in="SourceAlpha" type="matrix" values="0 0 0 0 0 0 0 0 0 0 0 0 0 0 0 0 0 0 127 0" result="hardAlpha"/>
<feOffset dy="4"/>
<feGaussianBlur stdDeviation="4"/>
<feComposite in2="hardAlpha" operator="out"/>
<feColorMatrix type="matrix" values="0 0 0 0 0.0352941 0 0 0 0 0.137255 0 0 0 0 0.258824 0 0 0 0.08 0"/>
<feBlend mode="normal" in2="BackgroundImageFix" result="effect1_dropShadow_10564_3940"/>
<feBlend mode="normal" in="SourceGraphic" in2="effect1_dropShadow_10564_3940" result="shape"/>
</filter>
</defs>
</svg>
