<svg width="24" height="24" viewBox="0 0 24 24" fill="none" xmlns="http://www.w3.org/2000/svg">
<path d="M12.0859 17.0445C12.4891 15.5232 13.9498 14.2914 15.5049 14.1524C15.8298 14.1234 16.1565 14.1084 16.484 14.1067C17.7943 14.1014 19.1046 14.1067 20.4149 14.1067C20.5973 14.1084 20.7782 14.0742 20.9471 14.0059C21.116 13.9377 21.2693 13.8368 21.3983 13.7092C21.5272 13.5817 21.629 13.4299 21.6978 13.2629C21.7667 13.0959 21.8011 12.917 21.7991 12.7367C21.8115 11.8754 21.0487 11.2991 20.4051 11.329C19.9841 11.3501 19.5604 11.329 19.1375 11.329H18.7922C18.8313 11.1961 18.8589 11.0985 18.8874 11.0017C19.1117 10.2573 19.1286 9.51562 18.7984 8.79767C18.388 7.90287 17.6848 7.38992 16.6843 7.33713C16.1004 7.30633 15.5583 7.4911 15.066 7.80169C14.8293 7.95126 14.6058 8.12283 14.3539 8.2988C14.3112 8.16154 14.2738 8.04452 14.2382 7.92662C13.9929 7.08116 13.5772 6.29346 13.016 5.61087C11.2945 3.53532 7.90309 3.85119 6.62218 6.35346C6.32781 6.92244 6.17205 7.55154 6.16732 8.19058C6.16197 8.76512 6.16732 9.33965 6.16732 9.91419V10.2925C6.03647 10.3004 5.9252 10.3119 5.81126 10.3128C5.21932 10.3128 4.62738 10.3004 4.03632 10.3216C3.57553 10.3415 3.13734 10.5245 2.8017 10.8372C2.46605 11.1499 2.25532 11.5715 2.20794 12.025C2.16056 12.4785 2.27969 12.9337 2.5436 13.3076C2.80751 13.6815 3.1986 13.9492 3.64555 14.0618C3.7792 14.0901 3.91569 14.1031 4.05235 14.1005C5.37331 14.1005 6.69428 14.0952 8.01525 14.1049C8.26918 14.1132 8.52185 14.0661 8.75535 13.9671C8.98886 13.8682 9.19749 13.7196 9.36648 13.5321C9.42298 13.4657 9.49467 13.4135 9.57562 13.3798C9.65657 13.3461 9.74445 13.332 9.83202 13.3385C10.5183 13.3473 11.2046 13.3385 11.9274 13.3385C11.9034 13.4468 11.8918 13.5348 11.8642 13.6157C11.5952 14.4031 11.0871 15.0894 10.4091 15.5811C9.73122 16.0728 8.91644 16.346 8.07577 16.3635C6.75481 16.3828 5.43414 16.3828 4.11376 16.3635C2.10472 16.33 0.328893 14.7903 0.0458285 12.8062C-0.291534 10.4491 1.2849 8.61642 3.09099 8.18442C3.26902 8.14043 3.46307 8.12283 3.64822 8.08764C3.74881 8.06916 3.84761 8.04012 3.94019 8.01725C4.10041 4.72311 6.44682 2.66692 8.68641 2.14517C10.9794 1.6111 13.9142 2.5235 15.4159 5.33372C16.7431 4.82781 18.0195 4.93076 19.1972 5.75341C20.3748 6.57606 20.9196 7.72162 21.0326 9.11442C21.1288 9.14433 21.2169 9.17688 21.3068 9.2024C22.747 9.56402 24.1277 11.0052 23.9906 12.9857C23.9407 13.7957 23.6161 14.5655 23.069 15.1705C22.5219 15.7756 21.7844 16.1807 20.9757 16.3203C20.7352 16.3544 20.4922 16.3691 20.2493 16.3643C18.8865 16.3687 17.5228 16.3767 16.16 16.3643C15.5449 16.3582 15.0189 16.5253 14.5898 16.9714C14.5246 17.0368 14.4377 17.0768 14.345 17.084C13.6267 17.0911 12.9083 17.084 12.19 17.084C12.1536 17.0756 12.1186 17.0623 12.0859 17.0445Z" fill="#F5F5F5"/>
<path d="M11.3372 18.6817C11.3523 18.5163 11.3594 18.3835 11.379 18.2515C11.3986 18.1195 11.4288 17.9876 11.4564 17.8477H13.7503C13.68 18.1213 13.615 18.3756 13.5376 18.6817C13.7397 18.6817 13.8847 18.6765 14.0298 18.6817C14.1363 18.6803 14.2414 18.7064 14.3345 18.7575C14.4276 18.8086 14.5056 18.8829 14.5606 18.9731C14.6156 19.0633 14.6457 19.1661 14.648 19.2713C14.6504 19.3766 14.6247 19.4806 14.5737 19.573C14.5359 19.6477 14.494 19.7202 14.4482 19.7904L13.0534 22.0647C13.0204 22.1184 12.9902 22.1739 12.9537 22.2249C12.6813 22.6067 12.2237 22.6111 11.9514 22.231C11.8784 22.1299 11.8187 22.0181 11.7529 21.9117C11.3137 21.1984 10.8755 20.4848 10.4381 19.771C10.3917 19.7016 10.3498 19.6293 10.3126 19.5546C10.2671 19.4628 10.2458 19.3612 10.2507 19.2592C10.2556 19.1572 10.2865 19.058 10.3406 18.971C10.3948 18.8839 10.4703 18.8119 10.5602 18.7614C10.65 18.711 10.7514 18.6839 10.8547 18.6826C11.0069 18.6756 11.1636 18.6817 11.3372 18.6817Z" fill="#F5F5F5"/>
<path d="M12.603 11.8833L12.5024 12.5625H10.2379C10.286 12.3417 10.3269 12.1428 10.383 11.8991L9.9513 11.8833C9.37182 11.8578 9.10567 11.395 9.40298 10.9014C9.90858 10.0597 10.4222 9.22234 10.9438 8.38942C11.242 7.91343 11.7236 7.92135 12.0244 8.4035C12.5389 9.22821 13.0469 10.0567 13.5484 10.8891C13.8528 11.3932 13.5804 11.8648 12.9876 11.8824C12.8638 11.8868 12.7401 11.8833 12.603 11.8833Z" fill="#F5F5F5"/>
</svg>
