<svg width="70" height="70" viewBox="0 0 70 70" fill="none" xmlns="http://www.w3.org/2000/svg">
<g filter="url(#filter0_d_10564_3934)">
<rect x="8" y="4" width="54" height="54" rx="16" fill="#00B39F"/>
<path d="M38.9567 42.0827H35.79C31.3124 42.0827 29.072 42.0827 27.6818 40.6909C26.29 39.3008 26.29 37.0603 26.29 32.5827V24.666C26.29 20.1883 26.29 17.9479 27.6818 16.5578C29.072 15.166 31.3108 15.166 35.79 15.166H37.9165C39.2116 15.166 39.8576 15.166 40.4403 15.4067C41.0214 15.6473 41.4805 16.1065 42.3957 17.0217L46.6026 21.227C47.5178 22.1422 47.9754 22.6013 48.216 23.1824C48.4567 23.7635 48.4567 24.4111 48.4567 25.7063V32.5827C48.4567 37.0603 48.4567 39.3008 47.065 40.6909C45.6748 42.0827 43.4328 42.0827 38.9567 42.0827Z" stroke="white" stroke-width="2" stroke-linecap="round" stroke-linejoin="round"/>
<path d="M39.7484 15.957V17.5404C39.7484 20.5265 39.7484 22.018 40.6762 22.9459C41.604 23.8737 43.0955 23.8737 46.0817 23.8737H47.665M26.29 19.9154C25.0303 19.9154 23.8221 20.4158 22.9313 21.3066C22.0405 22.1974 21.54 23.4056 21.54 24.6654V37.332C21.54 41.8097 21.54 44.0501 22.9318 45.4403C24.322 46.832 26.5608 46.832 31.04 46.832H38.9567C40.2165 46.832 41.4247 46.3316 42.3155 45.4408C43.2063 44.55 43.7067 43.3418 43.7067 42.082M31.8333 29.4154H38.1666M31.8333 35.7487H42.9166" stroke="white" stroke-width="2" stroke-linecap="round" stroke-linejoin="round"/>
</g>
<defs>
<filter id="filter0_d_10564_3934" x="0" y="0" width="70" height="70" filterUnits="userSpaceOnUse" color-interpolation-filters="sRGB">
<feFlood flood-opacity="0" result="BackgroundImageFix"/>
<feColorMatrix in="SourceAlpha" type="matrix" values="0 0 0 0 0 0 0 0 0 0 0 0 0 0 0 0 0 0 127 0" result="hardAlpha"/>
<feOffset dy="4"/>
<feGaussianBlur stdDeviation="4"/>
<feComposite in2="hardAlpha" operator="out"/>
<feColorMatrix type="matrix" values="0 0 0 0 0.0352941 0 0 0 0 0.137255 0 0 0 0 0.258824 0 0 0 0.08 0"/>
<feBlend mode="normal" in2="BackgroundImageFix" result="effect1_dropShadow_10564_3934"/>
<feBlend mode="normal" in="SourceGraphic" in2="effect1_dropShadow_10564_3934" result="shape"/>
</filter>
</defs>
</svg>
