<svg width="70" height="70" viewBox="0 0 70 70" fill="none" xmlns="http://www.w3.org/2000/svg">
<g filter="url(#filter0_d_10407_2349)">
<rect x="8" y="4" width="54" height="54" rx="16" fill="#F80E80"/>
<path d="M35.2051 13.5602C40.1814 13.5602 45.1576 13.5602 50.1338 13.5602C51.0261 13.5343 51.8984 13.8272 52.5941 14.3864C53.2899 14.9456 53.7637 15.7344 53.9303 16.6113C53.9823 16.9159 54.0048 17.2248 53.9974 17.5336C53.9974 26.503 53.9974 35.4715 53.9974 44.439C53.9974 46.8521 52.4101 48.4393 49.9756 48.4393H20.3381C18.2978 48.4393 16.7829 47.273 16.3942 45.4016C16.3381 45.0848 16.3139 44.7633 16.3218 44.4417C16.3218 35.4902 16.3218 26.537 16.3218 17.5819C16.3218 15.126 17.8983 13.5602 20.3623 13.5602H35.2051ZM35.1328 46.5384C40.0634 46.5384 44.9967 46.5116 49.9274 46.5545C51.4047 46.5679 52.142 45.5464 52.1393 44.3506C52.1098 35.4411 52.1232 26.5316 52.1232 17.6248C52.1232 16.1609 51.3913 15.4343 49.9166 15.4343H20.4239C18.9279 15.4343 18.2066 16.1582 18.2066 17.657C18.2066 26.537 18.2227 35.4169 18.1905 44.2942C18.1905 45.5919 18.96 46.5705 20.4347 46.5571C25.3251 46.5116 30.2289 46.5411 35.1328 46.5411V46.5384Z" fill="white"/>
<path d="M34.2102 34.3412C33.9421 34.2902 33.7035 34.2607 33.4782 34.1991C32.9169 34.0578 32.4149 33.7422 32.0443 33.2975C31.6738 32.8528 31.454 32.302 31.4164 31.7244C31.3488 30.9214 31.3488 30.1142 31.4164 29.3113C31.4674 28.6799 31.7358 28.0858 32.1758 27.6301C32.6158 27.1745 33.2003 26.8855 33.8295 26.8125C33.9448 26.7937 34.06 26.7669 34.2156 26.7374V26.2548C34.2156 24.0187 34.2156 21.7844 34.2156 19.5519C34.2074 19.3467 34.231 19.1414 34.2853 18.9433C34.3389 18.7568 34.4526 18.5931 34.6087 18.4778C34.7648 18.3624 34.9545 18.3017 35.1486 18.3052C35.3491 18.2986 35.5461 18.3591 35.7083 18.4771C35.8705 18.5951 35.9887 18.7639 36.0441 18.9567C36.0905 19.1489 36.1122 19.3462 36.1085 19.5439C36.1085 21.7674 36.1085 23.9892 36.1085 26.2092V26.7133C36.2452 26.7428 36.3524 26.7723 36.465 26.791C37.8485 27.0162 38.7869 27.9627 38.9049 29.3542C38.9733 30.1464 38.9733 30.9429 38.9049 31.7351C38.7842 33.1052 37.8324 34.0436 36.4919 34.2661C36.3792 34.2849 36.2666 34.3144 36.1192 34.3465V34.8828C36.1192 37.4013 36.1192 39.918 36.1192 42.4329C36.1248 42.6382 36.1059 42.8434 36.0629 43.0442C36.0075 43.2388 35.8898 43.4099 35.7278 43.5312C35.5659 43.6525 35.3686 43.7173 35.1663 43.7158C34.964 43.7143 34.7677 43.6465 34.6076 43.5227C34.4475 43.399 34.3324 43.2262 34.2799 43.0308C34.2391 42.8442 34.2211 42.6533 34.2263 42.4624C34.2263 39.9314 34.2263 37.4004 34.2263 34.8694L34.2102 34.3412ZM37.0281 30.5366C37.0281 30.1988 37.0469 29.8583 37.0281 29.5204C37.026 29.2961 36.9362 29.0816 36.7778 28.9227C36.6194 28.7638 36.4051 28.6733 36.1808 28.6705C35.5052 28.6464 34.8269 28.6464 34.1512 28.6705C34.0397 28.6698 33.9292 28.6911 33.826 28.7332C33.7227 28.7753 33.6288 28.8374 33.5496 28.9158C33.4704 28.9943 33.4074 29.0876 33.3644 29.1904C33.3213 29.2933 33.299 29.4036 33.2986 29.5151C33.2745 30.1907 33.2745 30.8557 33.2986 31.5447C33.2979 31.6562 33.3192 31.7667 33.3613 31.87C33.4034 31.9732 33.4654 32.0671 33.5439 32.1463C33.6224 32.2255 33.7157 32.2885 33.8185 32.3316C33.9214 32.3746 34.0317 32.397 34.1432 32.3973C34.8188 32.4215 35.4837 32.4215 36.1728 32.3973C36.3973 32.3966 36.6126 32.3077 36.7721 32.1497C36.9316 31.9917 37.0226 31.7773 37.0254 31.5528C37.0469 31.2149 37.0281 30.8744 37.0281 30.5366Z" fill="white"/>
<path d="M44.5918 39.994C44.3237 39.9511 44.1145 39.9269 43.9 39.8733C43.3094 39.7293 42.7821 39.3962 42.3982 38.9248C42.0144 38.4534 41.7952 37.8694 41.7739 37.2619C41.7524 36.5996 41.7551 35.9374 41.7739 35.2751C41.7597 34.5833 42.0031 33.911 42.457 33.3887C42.9109 32.8664 43.5428 32.5316 44.2298 32.4492C44.3424 32.4304 44.455 32.4009 44.5998 32.3715V19.4697C44.5998 18.719 44.9511 18.2766 45.5382 18.2793C46.1254 18.282 46.4766 18.7244 46.4766 19.4751V32.3902C46.7153 32.4278 46.9324 32.4492 47.1442 32.5002C47.7407 32.6474 48.2729 32.9852 48.66 33.4623C49.0471 33.9394 49.268 34.5298 49.2892 35.1438C49.3079 35.7765 49.2892 36.4093 49.2892 37.042C49.3139 37.7493 49.0708 38.4398 48.6086 38.9756C48.1463 39.5114 47.4989 39.8531 46.7957 39.9323C46.6965 39.9484 46.5946 39.9698 46.4632 39.9967C46.4632 40.8975 46.4632 41.793 46.4632 42.6778C46.4837 42.9074 46.4198 43.1366 46.2837 43.3226C46.1475 43.5086 45.9483 43.6387 45.7232 43.6886C45.5864 43.7213 45.4439 43.7219 45.3067 43.6905C45.1696 43.6591 45.0416 43.5965 44.9326 43.5075C44.8236 43.4185 44.7367 43.3055 44.6785 43.1775C44.6203 43.0494 44.5925 42.9096 44.5971 42.769C44.5757 42.0048 44.5971 41.238 44.5971 40.4739L44.5918 39.994ZM45.5195 38.0609C45.8278 38.0609 46.1388 38.0609 46.4471 38.0609C46.5694 38.0682 46.6919 38.0504 46.8071 38.0088C46.9223 37.9671 47.0278 37.9024 47.1172 37.8186C47.2065 37.7348 47.2778 37.6336 47.3267 37.5213C47.3756 37.409 47.4011 37.2879 47.4016 37.1654C47.4365 36.5219 47.4338 35.8704 47.4016 35.2242C47.4033 35.1015 47.3797 34.9798 47.3324 34.8666C47.285 34.7535 47.2149 34.6512 47.1264 34.5662C47.038 34.4813 46.9329 34.4154 46.8179 34.3727C46.7029 34.33 46.5804 34.3113 46.4579 34.318C45.8251 34.3019 45.1897 34.3019 44.5569 34.318C44.4384 34.3151 44.3204 34.336 44.2101 34.3795C44.0998 34.423 43.9993 34.4882 43.9145 34.5711C43.8298 34.6541 43.7626 34.7532 43.7168 34.8626C43.671 34.972 43.6476 35.0895 43.648 35.2081C43.6239 35.8543 43.6266 36.5031 43.648 37.152C43.6477 37.2705 43.6707 37.3879 43.7158 37.4975C43.7609 37.6071 43.8272 37.7068 43.9109 37.7907C43.9946 37.8746 44.094 37.9412 44.2035 37.9867C44.313 38.0321 44.4304 38.0555 44.5489 38.0555C44.8706 38.0743 45.195 38.0609 45.5195 38.0609Z" fill="white"/>
<path d="M23.8325 29.3648C23.4574 29.293 23.0882 29.1935 22.7279 29.0671C22.2252 28.8646 21.7939 28.5176 21.4885 28.0699C21.183 27.6223 21.0172 27.0941 21.0119 26.5522C20.9851 26.016 21.0119 25.4637 21.0119 24.9167C21.0119 23.0399 21.945 21.9675 23.8405 21.7369C23.8405 20.8199 23.8271 19.8976 23.8405 18.9726C23.8331 18.8186 23.8641 18.6652 23.9308 18.5262C23.9975 18.3872 24.0978 18.2671 24.2226 18.1766C24.3474 18.0861 24.4928 18.0282 24.6457 18.008C24.7985 17.9878 24.954 18.006 25.098 18.061C25.2876 18.1279 25.4496 18.2558 25.5588 18.4246C25.668 18.5935 25.7181 18.7937 25.7013 18.9941C25.7013 19.7448 25.7013 20.4955 25.7013 21.2462V21.6135C26.2539 21.7921 26.7918 22.0135 27.3099 22.2758C27.6829 22.5041 27.9908 22.8245 28.204 23.2063C28.4171 23.5881 28.5285 24.0183 28.5272 24.4556C28.5486 25.1339 28.5486 25.8095 28.5272 26.4879C28.5324 27.1947 28.2685 27.8771 27.789 28.3965C27.3095 28.9158 26.6503 29.2333 25.9452 29.2843C25.8863 29.2843 25.83 29.3031 25.7066 29.3245V29.834C25.7066 33.9093 25.7066 37.9856 25.7066 42.0627C25.7066 42.2236 25.7066 42.3871 25.7066 42.548C25.701 42.7865 25.601 43.013 25.4286 43.1778C25.2562 43.3427 25.0255 43.4324 24.787 43.4274C24.549 43.4327 24.3182 43.3459 24.1428 43.185C23.9675 43.0241 23.8611 42.8016 23.8459 42.5641C23.8459 42.4193 23.8459 42.2692 23.8459 42.1217V29.3648H23.8325ZM26.6611 25.5334C26.6611 25.2385 26.6611 24.9462 26.6611 24.6513C26.6704 24.5221 26.6528 24.3924 26.6092 24.2704C26.5657 24.1484 26.4972 24.0369 26.4082 23.9428C26.3191 23.8487 26.2115 23.7742 26.0921 23.724C25.9727 23.6738 25.8442 23.649 25.7147 23.6512C25.0846 23.6244 24.4518 23.6244 23.8218 23.6512C23.6993 23.649 23.5777 23.6715 23.4642 23.7174C23.3507 23.7632 23.2475 23.8315 23.1609 23.9181C23.0744 24.0047 23.0061 24.1078 22.9603 24.2213C22.9144 24.3349 22.8919 24.4565 22.8941 24.5789C22.8673 25.209 22.8673 25.8417 22.8941 26.4718C22.8917 26.5978 22.9153 26.723 22.9634 26.8396C23.0114 26.9561 23.0829 27.0616 23.1734 27.1493C23.264 27.2371 23.3716 27.3053 23.4895 27.3497C23.6075 27.3941 23.7334 27.4138 23.8593 27.4075C24.476 27.4075 25.0926 27.4236 25.7093 27.4075C25.8348 27.4101 25.9594 27.3872 26.0758 27.3402C26.1921 27.2932 26.2977 27.2231 26.3862 27.1341C26.4747 27.0452 26.5442 26.9392 26.5905 26.8226C26.6368 26.7059 26.659 26.5811 26.6557 26.4557C26.6692 26.1501 26.6584 25.8417 26.6611 25.5334Z" fill="white"/>
</g>
<defs>
<filter id="filter0_d_10407_2349" x="0" y="0" width="70" height="70" filterUnits="userSpaceOnUse" color-interpolation-filters="sRGB">
<feFlood flood-opacity="0" result="BackgroundImageFix"/>
<feColorMatrix in="SourceAlpha" type="matrix" values="0 0 0 0 0 0 0 0 0 0 0 0 0 0 0 0 0 0 127 0" result="hardAlpha"/>
<feOffset dy="4"/>
<feGaussianBlur stdDeviation="4"/>
<feComposite in2="hardAlpha" operator="out"/>
<feColorMatrix type="matrix" values="0 0 0 0 0.0352941 0 0 0 0 0.137255 0 0 0 0 0.258824 0 0 0 0.08 0"/>
<feBlend mode="normal" in2="BackgroundImageFix" result="effect1_dropShadow_10407_2349"/>
<feBlend mode="normal" in="SourceGraphic" in2="effect1_dropShadow_10407_2349" result="shape"/>
</filter>
</defs>
</svg>
