<svg width="70" height="70" viewBox="0 0 70 70" fill="none" xmlns="http://www.w3.org/2000/svg">
<g filter="url(#filter0_d_10586_2777)">
<rect x="8" y="4" width="54" height="54" rx="16" fill="#E03C31"/>
<path d="M32.3332 37.0007L36.3332 38.334C36.3332 38.334 46.3332 36.334 47.6665 36.334C48.9998 36.334 48.9998 37.6673 47.6665 39.0007C46.3332 40.334 41.6665 44.334 37.6665 44.334C33.6665 44.334 30.9998 42.334 28.3332 42.334H21.6665" stroke="white" stroke-width="2" stroke-linecap="round" stroke-linejoin="round"/>
<path d="M21.6665 34.334C22.9998 33.0007 25.6665 31.0007 28.3332 31.0007C30.9998 31.0007 37.3332 33.6673 38.3332 35.0007C39.3332 36.334 36.3332 38.334 36.3332 38.334M29.6665 27.0007V21.6673C29.6665 21.3137 29.807 20.9746 30.057 20.7245C30.3071 20.4745 30.6462 20.334 30.9998 20.334H46.9998C47.3535 20.334 47.6926 20.4745 47.9426 20.7245C48.1927 20.9746 48.3332 21.3137 48.3332 21.6673V32.334" stroke="white" stroke-width="2" stroke-linecap="round" stroke-linejoin="round"/>
<path d="M35.6665 20.334H42.3332V26.334H35.6665V20.334Z" stroke="white" stroke-width="2" stroke-linecap="round" stroke-linejoin="round"/>
</g>
<defs>
<filter id="filter0_d_10586_2777" x="0" y="0" width="70" height="70" filterUnits="userSpaceOnUse" color-interpolation-filters="sRGB">
<feFlood flood-opacity="0" result="BackgroundImageFix"/>
<feColorMatrix in="SourceAlpha" type="matrix" values="0 0 0 0 0 0 0 0 0 0 0 0 0 0 0 0 0 0 127 0" result="hardAlpha"/>
<feOffset dy="4"/>
<feGaussianBlur stdDeviation="4"/>
<feComposite in2="hardAlpha" operator="out"/>
<feColorMatrix type="matrix" values="0 0 0 0 0.0352941 0 0 0 0 0.137255 0 0 0 0 0.258824 0 0 0 0.08 0"/>
<feBlend mode="normal" in2="BackgroundImageFix" result="effect1_dropShadow_10586_2777"/>
<feBlend mode="normal" in="SourceGraphic" in2="effect1_dropShadow_10586_2777" result="shape"/>
</filter>
</defs>
</svg>
