<svg width="25" height="24" viewBox="0 0 25 24" fill="none" xmlns="http://www.w3.org/2000/svg">
<path d="M12.3664 0.00131159C13.498 0.0518327 14.6747 0.137855 15.8063 0.499696C17.2001 0.934038 18.5019 1.6219 19.6462 2.52873C21.6296 4.13312 23.0315 6.12666 23.7413 8.59537C24.5999 11.5775 24.3692 14.4763 23.0315 17.2604C22.3083 18.783 21.2593 20.1278 19.9588 21.1997C18.8615 22.1104 17.62 22.8317 16.2854 23.3339C15.3883 23.6478 14.4549 23.8461 13.5076 23.9237C12.0281 24.0853 10.5319 23.993 9.08353 23.6507C7.14206 23.1898 5.35713 22.2231 3.91005 20.8488C2.04256 19.1314 0.761076 16.8709 0.246294 14.3862C-0.140969 12.5362 -0.0706807 10.6196 0.45105 8.80291C0.872685 7.21723 1.62439 5.7385 2.65695 4.46356C3.53935 3.37254 4.60105 2.43982 5.79652 1.70538C7.7963 0.475118 9.98991 -0.0137082 12.3664 0.00131159ZM23.8709 13.7649C23.7822 13.7553 23.6935 13.7513 23.6061 13.7376C23.4635 13.7275 23.3229 13.6976 23.1884 13.6488C22.6424 13.3758 22.1073 13.0863 21.5681 12.8036C21.3552 12.693 21.1491 12.5824 20.8993 12.7231C20.8145 12.7643 20.7184 12.7758 20.6263 12.7558C20.1226 12.6412 19.6052 12.5551 19.2721 12.0895C19.1908 11.9702 19.0934 11.8627 18.9828 11.77C18.8499 11.6539 18.702 11.5561 18.5432 11.4792C18.2006 11.3262 17.817 11.2457 17.5072 11.0463C17.1154 10.7937 16.6758 10.5397 16.6253 9.97992C16.6 9.89105 16.5469 9.8126 16.4738 9.75599C16.1831 9.47471 15.8937 9.19206 15.5879 8.9299C15.4876 8.83591 15.3555 8.78325 15.218 8.78243C14.7894 8.83568 14.7225 8.79608 14.6433 8.3728C14.6304 8.24853 14.5832 8.13032 14.5068 8.03144C14.3049 7.82829 14.0836 7.64537 13.8461 7.48527C13.2748 7.11588 12.6023 6.93446 11.9228 6.9664C11.2707 6.96322 10.6258 7.10305 10.0336 7.37603C9.91126 7.43192 9.80234 7.5134 9.71417 7.61498C9.39339 8.0014 9.11629 8.41376 9.03166 8.92717C9.00836 9.03348 8.96173 9.13329 8.89515 9.21937C8.59075 9.64539 8.27816 10.0659 7.9683 10.4879C7.93208 10.552 7.88602 10.6101 7.83179 10.6599C7.53285 10.8661 7.238 11.0846 6.92131 11.2621C6.42171 11.5351 6.11321 11.9994 5.75284 12.4145C5.67155 12.5126 5.56686 12.5887 5.44844 12.6357C4.68038 12.8979 3.90914 13.1509 3.13471 13.3949C2.83109 13.4957 2.51908 13.5693 2.20239 13.6147C1.73282 13.6721 1.25642 13.683 0.782753 13.7185C0.674777 13.7324 0.567678 13.7525 0.46197 13.7786C0.504286 13.8523 0.539777 13.881 0.576633 13.8851C1.29055 13.9643 2.00309 14.0776 2.71974 14.1063C3.30807 14.1281 3.90186 14.0448 4.49428 14.0189C4.6144 14.0189 4.73726 14.0653 4.85875 14.0708C5.00617 14.0708 5.18226 14.1049 5.29556 14.0394C5.51843 13.9131 5.78104 13.8765 6.02995 13.937C6.13903 13.9702 6.25565 13.9693 6.36421 13.9344C6.47276 13.8995 6.56808 13.8323 6.63739 13.7417C6.78719 13.5466 6.98728 13.396 7.21616 13.3061C7.65249 13.1705 8.06245 12.9613 8.42831 12.6876C8.60167 12.5579 8.75455 12.4459 8.80779 12.2138C8.89379 11.8437 9.05623 11.5188 9.44936 11.3645C9.52716 11.3344 9.58586 11.2402 9.64319 11.1678C9.86569 10.8948 10.0841 10.6217 10.3052 10.3404L10.368 10.3868C10.3675 10.411 10.3634 10.4349 10.3557 10.4578C10.1141 10.8675 9.87661 11.2921 9.62681 11.7031C9.56916 11.7866 9.53354 11.8834 9.52328 11.9843C9.51302 12.0853 9.52844 12.1873 9.56812 12.2807C9.67186 12.5374 9.77287 12.7968 9.86433 13.059C9.88477 13.122 9.88477 13.1899 9.86433 13.2529C9.74693 13.5874 9.62681 13.9219 9.49713 14.2524C9.43161 14.4162 9.43707 14.5255 9.61316 14.6292C9.99127 14.8491 10.3721 15.0703 10.5591 15.5086C10.5878 15.5782 10.7175 15.6301 10.8062 15.6451C11.1993 15.7038 11.6034 15.7079 11.987 15.798C12.5794 15.9346 13.1527 16.1572 13.7451 16.2978C14.8371 16.5545 15.921 16.7975 17.0212 17.0024C17.2942 17.0529 17.6041 16.9327 17.9494 16.8836C17.8552 16.7757 17.7952 16.717 17.7488 16.6514C17.4225 16.1886 17.0594 15.7462 16.7851 15.2546C16.5688 14.8237 16.3911 14.3746 16.2541 13.9124C16.1423 13.6314 16.0746 13.3347 16.0534 13.033C16.0425 12.45 15.8473 12.0185 15.2972 11.77C15.207 11.7062 15.1426 11.6123 15.1156 11.5051C15.0119 11.1952 14.9504 10.8702 14.8303 10.5671C14.6829 10.1957 14.4932 9.84064 14.3212 9.47471C14.5774 9.77 14.818 10.0786 15.0419 10.3991C15.2794 10.7186 15.4814 11.0818 15.7858 11.3249C16.0824 11.5596 16.3364 11.8437 16.5366 12.1646C16.8096 12.592 17.0144 13.0849 17.5386 13.3007C17.6711 13.3748 17.798 13.4588 17.918 13.5519C18.4286 13.8632 18.8736 14.281 19.4714 14.4517C19.6994 14.5173 19.8987 14.6825 20.1171 14.7903C20.2219 14.8311 20.3296 14.8639 20.4393 14.8887L20.5007 14.7958C20.427 14.6643 20.3351 14.5439 20.2277 14.4381C19.7496 14.0721 19.251 13.7339 18.7343 13.4249C18.1883 13.1191 17.9631 12.5838 17.6423 12.1114C17.742 12.1545 17.8363 12.2091 17.9235 12.2739C18.1869 12.4568 18.4313 12.6835 18.7193 12.8118C19.1252 12.9732 19.5416 13.1068 19.9656 13.2119C20.3039 13.3159 20.648 13.3997 20.9962 13.4631C21.605 13.5601 22.2247 13.5997 22.7817 13.9055C23.1243 14.0926 23.5078 14.0216 23.8709 13.7649Z" fill="white"/>
<path d="M15.4091 13.0263C15.4241 12.6344 15.4091 12.6453 15.0692 12.2576C14.8959 12.0623 14.7047 11.8315 14.6529 11.5899C14.5976 11.3198 14.4487 11.078 14.2324 10.9071C14.1408 10.8407 14.0689 10.7506 14.0244 10.6465C13.9799 10.5423 13.9646 10.4281 13.9799 10.3159C13.9908 10.1971 13.9594 10.0073 13.8816 9.96089C13.6886 9.86177 13.4821 9.79139 13.2687 9.75198C13.2237 9.74106 13.1172 9.82162 13.1036 9.87487C13.0435 10.1247 12.9384 10.3733 13.0872 10.6341C13.236 10.8949 13.3329 11.1297 13.4748 11.3673C13.5355 11.457 13.6208 11.5272 13.7206 11.5694C14.409 11.8868 14.9942 12.3917 15.4091 13.0263ZM10.293 14.3412C10.3674 14.1809 10.4517 14.0254 10.5455 13.8756C10.6595 13.7183 10.7287 13.533 10.7458 13.3394C10.7628 13.1458 10.7271 12.9513 10.6424 12.7764C10.6382 12.769 10.6346 12.7612 10.6315 12.7532C10.5966 12.6806 10.5856 12.5988 10.6 12.5196C10.6145 12.4403 10.6537 12.3677 10.712 12.3122C10.7422 12.2703 10.762 12.2218 10.7699 12.1708C10.7777 12.1198 10.7733 12.0676 10.7571 12.0186C10.6697 11.8473 10.5679 11.6837 10.4527 11.5298C10.3626 11.7783 10.2916 11.9927 10.2056 12.2002C10.1601 12.2807 10.1397 12.373 10.147 12.4652C10.1543 12.5574 10.189 12.6453 10.2465 12.7177C10.3279 12.8351 10.3704 12.975 10.368 13.1178C10.3598 13.5356 10.3189 13.9534 10.293 14.3412ZM6.07227 12.4637L6.10776 12.5675C6.75069 12.375 7.39498 12.1866 8.03792 11.9886C8.11523 11.969 8.18185 11.92 8.22356 11.852C8.3 11.6308 8.33549 11.3946 8.41876 11.1693C8.46705 11.0518 8.55049 10.9521 8.65764 10.8839C8.96068 10.6969 9.28692 10.5412 9.46847 10.2681C9.17635 10.4251 8.85148 10.5917 8.53615 10.7733C8.41431 10.8277 8.31058 10.9158 8.23721 11.0273C7.93827 11.71 7.34994 11.9927 6.70428 12.2166C6.49133 12.2931 6.28248 12.3818 6.07227 12.4637Z" fill="white"/>
<path d="M15.4092 13.0277C14.9952 12.3906 14.41 11.8833 13.7206 11.564C13.6209 11.5218 13.5356 11.4516 13.4749 11.3619C13.3384 11.1243 13.2238 10.869 13.0873 10.6287C12.9507 10.3884 13.0436 10.1194 13.1036 9.8695C13.1173 9.81624 13.2238 9.73295 13.2688 9.74661C13.4822 9.78602 13.6887 9.8564 13.8817 9.95552C13.9595 10.0019 13.9909 10.1917 13.98 10.3105C13.9646 10.4227 13.98 10.537 14.0245 10.6411C14.069 10.7452 14.1409 10.8353 14.2325 10.9018C14.4488 11.0726 14.5977 11.3144 14.6529 11.5845C14.7048 11.8262 14.8959 12.0569 15.0693 12.2522C15.4119 12.6468 15.4242 12.6359 15.4092 13.0277Z" fill="white"/>
<path d="M10.2929 14.3433C10.3188 13.9555 10.3598 13.5377 10.368 13.1144C10.3703 12.9716 10.3278 12.8317 10.2465 12.7143C10.1889 12.6419 10.1543 12.554 10.147 12.4618C10.1397 12.3696 10.1601 12.2773 10.2055 12.1968C10.2915 11.9893 10.3625 11.7749 10.4526 11.5264C10.5679 11.6803 10.6697 11.8439 10.757 12.0152C10.7733 12.0642 10.7777 12.1164 10.7698 12.1674C10.762 12.2184 10.7422 12.2669 10.712 12.3088C10.6537 12.3643 10.6145 12.4369 10.6 12.5162C10.5855 12.5954 10.5965 12.6772 10.6314 12.7498C10.6345 12.7578 10.6382 12.7655 10.6424 12.773C10.7271 12.9479 10.7628 13.1424 10.7457 13.336C10.7286 13.5295 10.6594 13.7149 10.5454 13.8722C10.4515 14.0238 10.3672 14.1811 10.2929 14.3433Z" fill="white"/>
<path d="M6.07227 12.4654C6.28248 12.3834 6.49133 12.2947 6.70428 12.2209C7.34994 11.997 7.93281 11.7089 8.23721 11.0316C8.31058 10.9202 8.41431 10.8321 8.53615 10.7777C8.85148 10.5961 9.17635 10.4295 9.46847 10.2725C9.28692 10.5455 8.96068 10.7012 8.65764 10.8883C8.55049 10.9565 8.46705 11.0562 8.41876 11.1736C8.33549 11.3921 8.3 11.6283 8.22356 11.8564C8.18185 11.9244 8.11523 11.9734 8.03792 11.9929C7.39498 12.1909 6.75069 12.3793 6.10776 12.5719L6.07227 12.4654Z" fill="white"/>
</svg>
