<svg width="70" height="70" viewBox="0 0 70 70" fill="none" xmlns="http://www.w3.org/2000/svg">
<g filter="url(#filter0_d_10407_2337)">
<rect x="8" y="4" width="54" height="54" rx="16" fill="#F80E80"/>
<g clip-path="url(#clip0_10407_2337)">
<path d="M54 28.5152C53.142 29.282 52.3162 30.0917 51.4126 30.8049C50.5445 31.4708 49.8675 32.3541 49.45 33.3654C48.9889 34.4781 48.4205 35.5425 47.9137 36.6364C47.8602 36.7726 47.8602 36.9239 47.9137 37.0601C48.769 38.8457 47.6912 40.7172 45.7098 40.878C45.6769 40.884 45.6446 40.893 45.6133 40.9048C45.4498 42.476 44.5864 43.3796 42.9858 43.5404C42.8222 45.2295 41.7417 46.0661 40.3609 46.1706C40.346 46.702 40.1735 47.2169 39.8654 47.6499C39.5572 48.083 39.1273 48.4147 38.6302 48.6029C38.1331 48.7911 37.5913 48.8274 37.0736 48.707C36.5558 48.5866 36.0856 48.315 35.7225 47.9268C34.9879 48.7874 34.0843 49.2674 32.9234 48.9992C31.7625 48.7311 31.1404 47.9268 30.9152 46.7471C30.6875 46.7605 30.4592 46.7605 30.2315 46.7471C29.644 46.686 29.0959 46.4226 28.6811 46.002C28.2664 45.5814 28.0107 45.0296 27.9579 44.4413C27.9365 44.2643 27.9391 44.1303 27.6898 44.0954C26.1669 43.8943 25.2928 42.8567 25.3277 41.3258C25.3277 41.2775 25.3277 41.2266 25.3277 41.1596C25.2473 41.1354 25.1695 41.1086 25.0891 41.0898C24.6626 41.0063 24.2641 40.8163 23.9306 40.5375C23.5972 40.2587 23.3396 39.9002 23.1818 39.4952C23.024 39.0903 22.9711 38.652 23.028 38.2211C23.0848 37.7902 23.2497 37.3807 23.5072 37.0306C23.5442 36.9964 23.5738 36.955 23.594 36.9088C23.6143 36.8627 23.6247 36.8128 23.6247 36.7625C23.6247 36.7121 23.6143 36.6622 23.594 36.6161C23.5738 36.5699 23.5442 36.5285 23.5072 36.4943C22.5232 35.1913 21.566 33.8695 20.5767 32.5691C20.3401 32.292 20.076 32.0396 19.7884 31.8157C18.8527 31.0114 17.9116 30.207 16.9652 29.3839C16.4504 28.9389 16.4289 28.6064 16.8526 28.0728C19.0851 25.3202 21.3158 22.5649 23.5447 19.8068C23.9496 19.3028 24.2418 19.2572 24.7995 19.6111C25.9417 20.335 27.0758 21.0723 28.226 21.7802C28.5611 21.9881 28.9216 22.1522 29.2985 22.2681C30.4299 22.6006 31.5694 22.9009 32.7116 23.1985C32.8973 23.2454 33.0917 23.2454 33.2773 23.1985C34.2747 22.9304 35.2721 22.6623 36.2588 22.3432C36.8736 22.1512 37.5157 22.0606 38.1597 22.0751C39.5244 22.0965 40.8891 22.0751 42.2538 22.0751C42.4433 22.07 42.6281 22.0154 42.7901 21.9169C43.9993 21.1635 45.2031 20.3913 46.3989 19.6272C46.9887 19.2518 47.2756 19.3001 47.7019 19.8551L53.6997 27.6439C53.7935 27.7672 53.89 27.8878 53.9839 28.0085L54 28.5152ZM34.8083 42.9935C34.8243 43.0096 34.8431 43.0337 34.8619 43.039C35.2467 43.1099 35.6106 43.2667 35.9263 43.4978C36.242 43.7289 36.5015 44.0284 36.6853 44.3738C36.8691 44.7192 36.9725 45.1017 36.9878 45.4927C37.003 45.8837 36.9298 46.2731 36.7735 46.6318C36.7441 46.7015 36.7575 46.857 36.803 46.8838C37.0538 47.0664 37.3328 47.2068 37.6288 47.2994C37.8463 47.3298 38.0678 47.2898 38.2608 47.185C38.4539 47.0803 38.6082 46.9165 38.7013 46.7176C38.8098 46.5106 38.8506 46.2748 38.8179 46.0434C38.7852 45.812 38.6806 45.5967 38.519 45.428C38.0525 44.9293 37.5645 44.4547 37.0846 43.9694L36.8164 43.7013C36.4652 43.3286 36.4384 42.8969 36.7467 42.5967C36.8208 42.5237 36.9093 42.4671 37.0065 42.4304C37.1038 42.3937 37.2076 42.3777 37.3114 42.3835C37.4151 42.3893 37.5165 42.4168 37.6091 42.4641C37.7016 42.5114 37.7832 42.5776 37.8487 42.6583C38.3849 43.1945 38.9212 43.7397 39.4574 44.2938C39.5944 44.4513 39.7727 44.5673 39.9721 44.6289C40.1715 44.6905 40.3842 44.6952 40.5861 44.6424C41.4629 44.4252 41.7203 43.3903 41.058 42.7066C40.133 41.7521 39.1812 40.8298 38.2562 39.8726C38.1144 39.7397 37.9818 39.5973 37.8594 39.4463C37.7559 39.3093 37.7045 39.14 37.7144 38.9686C37.7242 38.7972 37.7946 38.6349 37.913 38.5106C38.0369 38.3823 38.2032 38.3036 38.381 38.2893C38.5587 38.275 38.7355 38.326 38.8783 38.4328C38.974 38.5078 39.0637 38.5903 39.1464 38.6795C40.1169 39.659 41.0848 40.6421 42.0501 41.6288C42.1893 41.7999 42.3747 41.9275 42.5843 41.9964C42.7939 42.0653 43.0188 42.0726 43.2324 42.0175C44.1119 41.7816 44.3532 40.7574 43.6856 40.0764C42.2395 38.6107 40.7917 37.1468 39.3421 35.6846C39.1898 35.5445 39.0474 35.394 38.9158 35.2342C38.8024 35.0889 38.7501 34.905 38.7701 34.7218C38.7902 34.5385 38.8809 34.3703 39.023 34.2529C39.1483 34.1352 39.3109 34.0654 39.4825 34.0556C39.6541 34.0458 39.8236 34.0966 39.9614 34.1993C40.0749 34.2916 40.1815 34.3919 40.2805 34.4996C41.7516 35.9867 43.2253 37.4756 44.7017 38.9664C45.238 39.516 45.9377 39.5509 46.4123 39.0709C46.8869 38.591 46.8332 37.9261 46.297 37.3899C43.4961 34.5836 40.6898 31.7773 37.8782 28.971C37.7396 28.8445 37.5636 28.7664 37.3768 28.7485C36.5028 28.6681 35.626 28.6305 34.752 28.5501C34.6479 28.5262 34.5388 28.5401 34.444 28.5892C34.3493 28.6383 34.275 28.7194 34.2345 28.8182C33.6983 29.8102 33.1415 30.7933 32.5641 31.7675C32.2214 32.3641 31.6557 32.8001 30.9915 32.9796C30.3273 33.1591 29.6189 33.0674 29.0223 32.7246C28.4257 32.3819 27.9897 31.8162 27.8102 31.152C27.6307 30.4878 27.7224 29.7794 28.0652 29.1828C28.907 27.6599 29.7784 26.1531 30.6364 24.641C30.7061 24.5149 30.7731 24.3863 30.8616 24.2227C30.1725 24.0377 29.521 23.85 28.8615 23.6865C28.7649 23.6623 28.5933 23.7696 28.521 23.8634C26.4189 26.4248 24.3187 28.9862 22.2202 31.5476C22.121 31.6683 22.0299 31.7916 21.9334 31.9149L24.762 35.7222C25.1107 35.4103 25.5376 35.199 25.997 35.1107C26.4564 35.0224 26.9312 35.0604 27.3707 35.2208C28.3279 35.5506 28.8454 36.2933 29.0679 37.2317C30.8402 37.0091 32.1325 38.0548 32.2531 39.8109C34.205 39.9798 35.0362 41.492 34.8083 42.9827V42.9935ZM46.7179 35.7222C47.3695 34.3575 48.0049 33.041 48.6162 31.7192C48.6296 31.6428 48.6262 31.5644 48.6063 31.4894C48.5864 31.4144 48.5504 31.3446 48.5009 31.2849C46.5437 28.778 44.573 26.2845 42.6024 23.7776C42.5519 23.6977 42.4811 23.6325 42.3973 23.5887C42.3135 23.5449 42.2196 23.5241 42.1251 23.5283C40.6371 23.5283 39.1517 23.5283 37.6637 23.5283C37.4704 23.5313 37.2783 23.5601 37.0926 23.6141C35.7359 24.0002 34.39 24.4184 33.0199 24.7697C32.7038 24.8374 32.4082 24.9789 32.1571 25.1825C31.906 25.3861 31.7065 25.6461 31.5748 25.9413C30.8857 27.2685 30.1109 28.5528 29.3789 29.8585C29.2921 29.9864 29.2325 30.1309 29.204 30.2829C29.1754 30.4348 29.1784 30.5911 29.2129 30.7418C29.2473 30.8926 29.3125 31.0346 29.4042 31.1591C29.496 31.2835 29.6124 31.3878 29.7462 31.4653C29.88 31.5428 30.0283 31.5919 30.1819 31.6096C30.3356 31.6273 30.4912 31.6131 30.6391 31.568C30.787 31.5229 30.924 31.4478 31.0417 31.3475C31.1593 31.2471 31.255 31.1236 31.3228 30.9846C31.9805 29.846 32.6276 28.702 33.2639 27.5527C33.3423 27.3806 33.4741 27.2383 33.6398 27.147C33.8055 27.0557 33.9962 27.0203 34.1836 27.046C35.3981 27.1425 36.6154 27.2229 37.8299 27.298C38.1713 27.317 38.4913 27.4703 38.7201 27.7243C41.2689 30.2893 43.8268 32.8489 46.3935 35.4031L46.7179 35.7222ZM27.3573 22.976L24.392 21.0992L18.3218 28.6225L20.9065 30.8452L27.3573 22.976ZM49.6753 30.3813L52.2599 28.1533L46.8332 21.0992L43.884 22.9894L49.6753 30.3813ZM28.0303 42.6503C28.2225 42.6156 28.4053 42.5407 28.5665 42.4304C29.2395 41.7977 29.9071 41.1515 30.5291 40.4678C30.7311 40.2545 30.84 39.9697 30.832 39.676C30.8239 39.3824 30.6996 39.104 30.4862 38.902C30.2729 38.7001 29.9881 38.5911 29.6945 38.5992C29.4008 38.6072 29.1224 38.7316 28.9204 38.9449C28.2823 39.5428 27.663 40.1648 27.0597 40.803C26.9107 40.9595 26.8147 41.159 26.7853 41.3731C26.756 41.5873 26.7947 41.8052 26.8962 41.9961C27.0865 42.4251 27.4431 42.6315 28.0303 42.6503ZM32.1405 41.3097C31.9331 41.364 31.737 41.4547 31.5614 41.5778C30.9125 42.1838 30.2798 42.8111 29.6846 43.4546C29.5035 43.6649 29.4084 43.9358 29.4183 44.2132C29.4283 44.4905 29.5425 44.7539 29.7382 44.9507C29.926 45.1559 30.1862 45.2801 30.4638 45.2971C30.7414 45.3141 31.0148 45.2226 31.2262 45.0419C31.8885 44.4332 32.5266 43.7924 33.1379 43.1329C33.2849 42.9734 33.3772 42.7712 33.4013 42.5556C33.4254 42.3401 33.3801 42.1224 33.272 41.9344C33.0575 41.5269 32.7116 41.3365 32.1405 41.3017V41.3097ZM35.5134 45.4253C35.4979 45.2447 35.4335 45.0717 35.3273 44.9248C35.221 44.7779 35.0768 44.6627 34.9101 44.5914C34.7234 44.4839 34.5074 44.4382 34.2931 44.4608C34.0788 44.4835 33.8772 44.5733 33.717 44.7174C33.3336 45.048 32.9751 45.4064 32.6446 45.7899C32.497 45.9558 32.4069 46.1649 32.3875 46.3861C32.3682 46.6073 32.4207 46.8289 32.5373 47.0179C32.635 47.2086 32.7876 47.3658 32.9754 47.469C33.1632 47.5722 33.3776 47.6168 33.591 47.597C34.264 47.5622 35.508 46.2591 35.5134 45.4172V45.4253ZM27.6094 37.5507C27.6 37.3602 27.5371 37.1762 27.4281 37.0198C27.319 36.8633 27.1682 36.7407 26.9927 36.6659C26.8045 36.5605 26.5881 36.5165 26.3737 36.54C26.1594 36.5636 25.9577 36.6535 25.7969 36.7973C25.4154 37.13 25.0571 37.4883 24.7244 37.8698C24.5822 38.0311 24.4941 38.233 24.4725 38.447C24.4508 38.6609 24.4968 38.8763 24.6038 39.0629C24.6928 39.2513 24.8348 39.4098 25.0124 39.5188C25.19 39.6278 25.3955 39.6828 25.6039 39.6769C26.301 39.6849 27.604 38.3577 27.6094 37.5507Z" fill="white"/>
<path d="M45.0908 14.9039C44.9872 15.1247 44.8596 15.3333 44.71 15.5259C43.0871 17.1614 41.4614 18.7898 39.833 20.411C39.4737 20.7702 39.0448 20.7863 38.7338 20.478C38.4227 20.1697 38.4308 19.746 38.7927 19.3814C40.4157 17.7513 42.0414 16.1238 43.6698 14.499C43.9379 14.2309 44.2408 14.1076 44.5572 14.2952C44.7644 14.4704 44.9443 14.6755 45.0908 14.9039Z" fill="white"/>
<path d="M26.2633 14.123C26.4767 14.2186 26.679 14.3373 26.8665 14.477C28.5181 16.1125 30.1626 17.7551 31.7998 19.4049C31.8788 19.4691 31.943 19.5495 31.9882 19.6406C32.0334 19.7317 32.0585 19.8315 32.0618 19.9332C32.0652 20.0349 32.0466 20.1361 32.0074 20.23C31.9682 20.3239 31.9093 20.4082 31.8347 20.4774C31.7641 20.5497 31.6791 20.6065 31.5852 20.644C31.4913 20.6815 31.3906 20.6989 31.2895 20.6951C31.1885 20.6913 31.0894 20.6664 30.9986 20.622C30.9078 20.5776 30.8272 20.5146 30.7622 20.4372C29.1124 18.7963 27.468 17.1519 25.8289 15.5038C25.699 15.4076 25.6092 15.267 25.5765 15.1087C25.5439 14.9504 25.5707 14.7856 25.652 14.6459C25.8291 14.4427 26.0351 14.2666 26.2633 14.123Z" fill="white"/>
<path d="M34.5509 17.8602C34.5509 17.2033 34.5509 16.5464 34.5509 15.8895C34.5401 15.7871 34.551 15.6836 34.5828 15.5857C34.6147 15.4878 34.6667 15.3977 34.7356 15.3212C34.8045 15.2447 34.8887 15.1835 34.9827 15.1416C35.0768 15.0998 35.1786 15.0781 35.2815 15.0781C35.3845 15.0781 35.4863 15.0998 35.5803 15.1416C35.6744 15.1835 35.7586 15.2447 35.8274 15.3212C35.8963 15.3977 35.9484 15.4878 35.9802 15.5857C36.012 15.6836 36.0229 15.7871 36.0121 15.8895C36.0121 17.2301 36.0121 18.5707 36.0121 19.9113C36.0182 20.0109 36.0037 20.1108 35.9698 20.2047C35.9358 20.2986 35.8829 20.3845 35.8145 20.4572C35.7461 20.5299 35.6635 20.5879 35.5718 20.6275C35.4802 20.6671 35.3814 20.6875 35.2815 20.6875C35.1817 20.6875 35.0829 20.6671 34.9912 20.6275C34.8995 20.5879 34.817 20.5299 34.7485 20.4572C34.6801 20.3845 34.6272 20.2986 34.5933 20.2047C34.5593 20.1108 34.5449 20.0109 34.5509 19.9113C34.5455 19.2383 34.5509 18.5439 34.5509 17.8602Z" fill="white"/>
<path d="M35.2826 12.1426C35.3799 12.1426 35.4762 12.1619 35.5659 12.1995C35.6555 12.2372 35.7368 12.2923 35.805 12.3617C35.8731 12.4311 35.9268 12.5134 35.9628 12.6037C35.9987 12.6941 36.0164 12.7907 36.0146 12.8879C36.0033 13.0741 35.9214 13.2489 35.7856 13.3767C35.6499 13.5045 35.4704 13.5756 35.284 13.5756C35.0975 13.5756 34.9181 13.5045 34.7823 13.3767C34.6465 13.2489 34.5646 13.0741 34.5533 12.8879C34.5516 12.7909 34.5691 12.6945 34.6049 12.6043C34.6407 12.5142 34.6941 12.432 34.762 12.3626C34.8299 12.2933 34.9108 12.2381 35.0002 12.2003C35.0896 12.1625 35.1856 12.1429 35.2826 12.1426Z" fill="white"/>
</g>
</g>
<defs>
<filter id="filter0_d_10407_2337" x="0" y="0" width="70" height="70" filterUnits="userSpaceOnUse" color-interpolation-filters="sRGB">
<feFlood flood-opacity="0" result="BackgroundImageFix"/>
<feColorMatrix in="SourceAlpha" type="matrix" values="0 0 0 0 0 0 0 0 0 0 0 0 0 0 0 0 0 0 127 0" result="hardAlpha"/>
<feOffset dy="4"/>
<feGaussianBlur stdDeviation="4"/>
<feComposite in2="hardAlpha" operator="out"/>
<feColorMatrix type="matrix" values="0 0 0 0 0.0352941 0 0 0 0 0.137255 0 0 0 0 0.258824 0 0 0 0.08 0"/>
<feBlend mode="normal" in2="BackgroundImageFix" result="effect1_dropShadow_10407_2337"/>
<feBlend mode="normal" in="SourceGraphic" in2="effect1_dropShadow_10407_2337" result="shape"/>
</filter>
<clipPath id="clip0_10407_2337">
<rect width="38" height="38" fill="white" transform="translate(16 12)"/>
</clipPath>
</defs>
</svg>
