<svg width="24" height="24" viewBox="0 0 24 24" fill="none" xmlns="http://www.w3.org/2000/svg">
<path d="M12.75 19H12.5C10.1333 19 8.125 18.175 6.475 16.525C4.825 14.875 4 12.8667 4 10.5C4 8.13333 4.825 6.125 6.475 4.475C8.125 2.825 10.1333 2 12.5 2C13.6833 2 14.7877 2.22067 15.813 2.662C16.8383 3.10333 17.7383 3.71167 18.513 4.487C19.2877 5.26233 19.8957 6.16233 20.337 7.187C20.7783 8.21167 20.9993 9.316 21 10.5C21 12.7333 20.3707 14.8083 19.112 16.725C17.8533 18.6417 16.266 20.1417 14.35 21.225C14.1833 21.3083 14.0167 21.3543 13.85 21.363C13.6833 21.3717 13.5333 21.334 13.4 21.25C13.2667 21.166 13.15 21.0577 13.05 20.925C12.95 20.7923 12.8917 20.634 12.875 20.45L12.75 19ZM12.475 15.975C12.7583 15.975 13 15.875 13.2 15.675C13.4 15.475 13.5 15.2333 13.5 14.95C13.5 14.6667 13.4 14.425 13.2 14.225C13 14.025 12.7583 13.925 12.475 13.925C12.1917 13.925 11.95 14.025 11.75 14.225C11.55 14.425 11.45 14.6667 11.45 14.95C11.45 15.2333 11.55 15.475 11.75 15.675C11.95 15.875 12.1917 15.975 12.475 15.975ZM10.3 8.375C10.4833 8.45833 10.6667 8.46267 10.85 8.388C11.0333 8.31333 11.1833 8.19233 11.3 8.025C11.45 7.825 11.625 7.67067 11.825 7.562C12.025 7.45333 12.25 7.39933 12.5 7.4C12.9 7.4 13.225 7.51233 13.475 7.737C13.725 7.96167 13.85 8.24933 13.85 8.6C13.85 8.81667 13.7877 9.03333 13.663 9.25C13.5383 9.46667 13.3173 9.73333 13 10.05C12.5833 10.4167 12.275 10.7627 12.075 11.088C11.875 11.4133 11.775 11.7423 11.775 12.075C11.775 12.275 11.846 12.446 11.988 12.588C12.13 12.73 12.3007 12.8007 12.5 12.8C12.6993 12.7993 12.866 12.7243 13 12.575C13.134 12.4257 13.234 12.2507 13.3 12.05C13.3833 11.7667 13.5333 11.5083 13.75 11.275C13.9667 11.0417 14.1667 10.8333 14.35 10.65C14.7 10.3 14.9627 9.95 15.138 9.6C15.3133 9.25 15.4007 8.9 15.4 8.55C15.4 7.78333 15.1373 7.16667 14.612 6.7C14.0867 6.23333 13.3827 6 12.5 6C11.9667 6 11.475 6.12933 11.025 6.388C10.575 6.64667 10.2083 7.00067 9.925 7.45C9.825 7.63333 9.81233 7.81267 9.887 7.988C9.96167 8.16333 10.0993 8.29233 10.3 8.375Z" fill="#F5F5F5"/>
</svg>
