<svg width="24" height="24" viewBox="0 0 24 24" fill="none" xmlns="http://www.w3.org/2000/svg">
<path d="M5.88162 16.0127C5.87989 16.263 5.80623 16.5071 5.66992 16.7141C5.53364 16.9212 5.34086 17.0818 5.11602 17.1757C4.89118 17.2696 4.64441 17.2926 4.40692 17.2416C4.16946 17.1907 3.95194 17.0682 3.782 16.8897C3.61206 16.7111 3.49728 16.4845 3.45222 16.2385C3.40719 15.9926 3.43387 15.7384 3.52894 15.5081C3.62398 15.2779 3.78316 15.0819 3.98623 14.9451C4.18931 14.8082 4.42718 14.7366 4.66973 14.7393C4.993 14.7459 5.30093 14.8828 5.5275 15.1208C5.75405 15.3589 5.88119 15.6791 5.88162 16.0127Z" fill="white"/>
<path d="M18.4634 13.7856C18.4723 13.4565 18.6053 13.144 18.834 12.9145C19.0628 12.685 19.3692 12.5566 19.6883 12.5566C20.0073 12.5566 20.3138 12.685 20.5426 12.9145C20.7713 13.144 20.9042 13.4565 20.9132 13.7856C20.9178 13.9546 20.8895 14.1227 20.83 14.2802C20.7705 14.4377 20.681 14.5813 20.5668 14.7025C20.4526 14.8237 20.316 14.92 20.1651 14.9857C20.0143 15.0516 19.852 15.0854 19.6883 15.0854C19.5245 15.0854 19.3623 15.0516 19.2114 14.9857C19.0605 14.92 18.924 14.8237 18.8097 14.7025C18.6955 14.5813 18.6061 14.4377 18.5465 14.2802C18.487 14.1227 18.4588 13.9546 18.4634 13.7856Z" fill="white"/>
<path d="M9.2493 1C9.40978 1.00039 9.56861 1.03341 9.71676 1.09718C9.86482 1.16095 9.99936 1.2542 10.1125 1.37163C10.2257 1.48905 10.3154 1.62834 10.3763 1.78153C10.4373 1.93471 10.4684 2.09879 10.4679 2.2644C10.4566 2.5906 10.3223 2.89934 10.0937 3.12491C9.86505 3.35047 9.5601 3.47503 9.24381 3.47205C8.92751 3.46907 8.62482 3.33879 8.40018 3.10896C8.17554 2.87914 8.04673 2.56791 8.04126 2.24156C8.04575 1.91287 8.17459 1.59902 8.40033 1.36704C8.62601 1.13506 8.93073 1.00334 9.2493 1Z" fill="#ED0000"/>
<path d="M17.0665 16.429C17.0703 16.2043 17.1382 15.9858 17.2619 15.8008C17.3855 15.6159 17.5593 15.4727 17.7615 15.3892C17.9637 15.3058 18.1853 15.2858 18.3984 15.3318C18.6115 15.3777 18.8068 15.4875 18.9598 15.6475C19.1127 15.8075 19.2164 16.0104 19.258 16.231C19.2996 16.4516 19.2771 16.6798 19.1934 16.8873C19.1098 17.0948 18.9686 17.2721 18.7877 17.3971C18.6068 17.5222 18.3941 17.5893 18.1763 17.5901C18.0293 17.5898 17.8839 17.5595 17.7484 17.5009C17.6128 17.4423 17.4898 17.3565 17.3866 17.2485C17.2834 17.1405 17.2019 17.0124 17.147 16.8718C17.0921 16.7312 17.0647 16.5806 17.0665 16.429Z" fill="white"/>
<path d="M16.1645 12.2222C16.1596 11.921 16.2703 11.63 16.4724 11.4127C16.6745 11.1954 16.9517 11.0693 17.2435 11.0621C17.4645 11.0551 17.6823 11.1163 17.8694 11.2377C18.0565 11.359 18.2044 11.5351 18.2941 11.7436C18.3838 11.952 18.4113 12.1832 18.3732 12.4078C18.3351 12.6324 18.233 12.8403 18.08 13.0047C17.927 13.1693 17.7299 13.2831 17.5139 13.3316C17.298 13.3802 17.073 13.3612 16.8675 13.2773C16.6621 13.1933 16.4854 13.0482 16.3602 12.8602C16.235 12.6723 16.1669 12.4502 16.1645 12.2222Z" fill="white"/>
<path d="M7.22084 15.8538C7.00124 15.8557 6.78607 15.7903 6.60264 15.6657C6.41921 15.5411 6.27584 15.363 6.19072 15.1542C6.10564 14.9453 6.08269 14.715 6.12477 14.4927C6.16685 14.2703 6.27211 14.0658 6.42711 13.9053C6.58209 13.7448 6.77987 13.6356 6.99525 13.5913C7.2106 13.5471 7.43385 13.57 7.63658 13.6571C7.83931 13.7441 8.01234 13.8914 8.13372 14.0802C8.2551 14.2691 8.31932 14.4909 8.31822 14.7175C8.3188 14.8666 8.2909 15.0143 8.236 15.1522C8.1811 15.29 8.10041 15.4154 7.99845 15.521C7.89646 15.6266 7.77523 15.7104 7.64184 15.7675C7.50837 15.8246 7.36529 15.8539 7.22084 15.8538Z" fill="white"/>
<path d="M8.17179 5.08173C8.16945 4.93257 8.1963 4.78442 8.25083 4.64626C8.30535 4.50807 8.38641 4.3827 8.48907 4.27767C8.59181 4.17264 8.71399 4.09013 8.8484 4.03509C8.98277 3.98004 9.12655 3.95362 9.2711 3.95738C9.55513 3.96609 9.82465 4.08863 10.0226 4.299C10.2205 4.50937 10.3312 4.79102 10.3312 5.08422C10.3312 5.37742 10.2205 5.65907 10.0226 5.86944C9.82465 6.07981 9.55513 6.20235 9.2711 6.21106C9.12626 6.2143 8.9823 6.18733 8.84785 6.13176C8.71339 6.07622 8.5912 5.99325 8.48855 5.88779C8.38589 5.78236 8.30489 5.65661 8.25054 5.5181C8.19607 5.37959 8.1693 5.23118 8.17179 5.08173Z" fill="#ED0000"/>
<path d="M3.02769 14.6203C2.81506 14.6215 2.60686 14.5576 2.42936 14.4368C2.25186 14.316 2.11304 14.1436 2.03039 13.9414C1.94776 13.7393 1.92501 13.5163 1.96503 13.3009C2.00505 13.0854 2.10604 12.887 2.25526 12.7306C2.40447 12.5743 2.59521 12.4671 2.80343 12.4225C3.01163 12.378 3.22796 12.3981 3.42513 12.4803C3.62228 12.5624 3.79141 12.7031 3.91119 12.8843C4.03095 13.0657 4.09601 13.2795 4.09809 13.4989C4.09937 13.7938 3.98754 14.0773 3.78698 14.2874C3.58645 14.4974 3.31348 14.6172 3.02769 14.6203Z" fill="white"/>
<path d="M12.4785 1.00014C12.6179 0.997829 12.7562 1.02457 12.8854 1.07874C13.0144 1.13292 13.1316 1.21343 13.2298 1.31544C13.3281 1.41745 13.4054 1.53888 13.457 1.67243C13.5087 1.80599 13.5337 1.94894 13.5306 2.09271C13.5352 2.23755 13.5117 2.38188 13.4613 2.51716C13.4109 2.65242 13.3347 2.77589 13.2373 2.88022C13.1398 2.98455 13.023 3.06762 12.8938 3.12451C12.7647 3.1814 12.6258 3.21096 12.4853 3.21143C12.3449 3.21188 12.2057 3.18325 12.0762 3.12722C11.9467 3.07118 11.8294 2.98889 11.7313 2.8852C11.6331 2.78153 11.5562 2.65858 11.505 2.52364C11.4538 2.3887 11.4293 2.24453 11.4331 2.09966C11.4288 1.95583 11.4527 1.81259 11.5035 1.67856C11.5543 1.54453 11.6308 1.42249 11.7284 1.31977C11.8261 1.21705 11.9429 1.13577 12.0718 1.08084C12.2007 1.02591 12.3391 0.998462 12.4785 1.00014Z" fill="#ED0000"/>
<path d="M14.9821 14.2559C14.9772 14.1155 14.9996 13.9755 15.0481 13.8442C15.0966 13.7128 15.1701 13.5928 15.2643 13.4914C15.3586 13.39 15.4716 13.309 15.5967 13.2535C15.7218 13.1979 15.8564 13.1689 15.9926 13.168C16.1288 13.1672 16.2638 13.1945 16.3895 13.2484C16.5153 13.3024 16.6293 13.3819 16.7247 13.4821C16.8201 13.5824 16.8951 13.7014 16.9452 13.8321C16.9952 13.9628 17.0193 14.1025 17.016 14.243C17.021 14.3834 16.9985 14.5235 16.9501 14.6548C16.9016 14.7862 16.828 14.9061 16.7338 15.0075C16.6396 15.109 16.5265 15.1899 16.4015 15.2455C16.2763 15.301 16.1417 15.3301 16.0055 15.3309C15.8694 15.3319 15.7344 15.3045 15.6086 15.2505C15.4828 15.1966 15.3689 15.1171 15.2735 15.0168C15.178 14.9166 15.1031 14.7976 15.053 14.6669C15.003 14.5362 14.9788 14.3964 14.9821 14.2559Z" fill="white"/>
<path d="M12.4626 5.75963C12.1969 5.75306 11.9445 5.63782 11.7611 5.43926C11.5777 5.24067 11.4783 4.97508 11.4847 4.70083C11.4911 4.42662 11.6027 4.16624 11.7952 3.977C11.9876 3.78774 12.245 3.68512 12.5107 3.6917C12.6423 3.69497 12.7721 3.72494 12.8924 3.77992C13.0128 3.83489 13.1214 3.91379 13.2123 4.0121C13.3031 4.11041 13.3743 4.22623 13.4216 4.35294C13.4691 4.47964 13.4919 4.61474 13.4887 4.7505C13.4856 4.88629 13.4565 5.02011 13.4033 5.14429C13.35 5.26851 13.2735 5.38065 13.1782 5.47436C13.0829 5.56807 12.9707 5.6415 12.8479 5.69043C12.7251 5.7394 12.5942 5.7629 12.4626 5.75963Z" fill="#ED0000"/>
<path d="M5.93049 11.6201C6.13006 11.6207 6.32498 11.6825 6.49046 11.7977C6.65595 11.9128 6.7845 12.0761 6.85986 12.2668C6.93523 12.4576 6.95395 12.667 6.91366 12.8688C6.87338 13.0704 6.77591 13.2552 6.63363 13.3997C6.49136 13.5441 6.31068 13.6416 6.11458 13.6799C5.91848 13.7181 5.71575 13.6954 5.53221 13.6146C5.34864 13.5337 5.1925 13.3984 5.08362 13.2258C4.97478 13.0532 4.91805 12.8511 4.92075 12.6451C4.92402 12.3715 5.03199 12.1101 5.22112 11.9182C5.41022 11.7262 5.66519 11.6191 5.93049 11.6201Z" fill="white"/>
<path d="M10.572 13.2759C10.5687 13.5477 10.4607 13.807 10.2719 13.9967C10.0832 14.1864 9.82914 14.291 9.56569 14.2875C9.30227 14.2839 9.05092 14.1725 8.86706 13.9778C8.6832 13.783 8.58182 13.5209 8.58529 13.249C8.58874 12.9771 8.69674 12.7178 8.88541 12.5282C9.07416 12.3385 9.3282 12.2339 9.59171 12.2374C9.85515 12.2409 10.1065 12.3524 10.2903 12.5471C10.4742 12.7419 10.5755 13.004 10.572 13.2759Z" fill="white"/>
<path d="M16.4386 19.636C16.2429 19.6344 16.0522 19.5732 15.8901 19.46C15.7281 19.3469 15.6021 19.1869 15.5279 19.0001C15.4538 18.8134 15.4347 18.6081 15.4733 18.4102C15.5118 18.2123 15.6062 18.0306 15.7445 17.8878C15.8829 17.7451 16.059 17.6477 16.2508 17.6079C16.4425 17.5682 16.6414 17.5878 16.8225 17.6643C17.0035 17.7408 17.1586 17.8708 17.2683 18.038C17.3778 18.2052 17.4372 18.4021 17.4387 18.604C17.4399 18.7398 17.415 18.8746 17.3652 19.0004C17.3153 19.1262 17.2417 19.2405 17.1486 19.3366C17.0555 19.4327 16.9447 19.5087 16.8228 19.5601C16.7008 19.6115 16.5702 19.6372 16.4386 19.636Z" fill="white"/>
<path d="M14.9526 9.91418C15.0856 9.91207 15.2175 9.9376 15.3408 9.98905C15.464 10.0405 15.576 10.1169 15.6701 10.2138C15.7642 10.3107 15.8385 10.4261 15.8887 10.5532C15.9388 10.6802 15.9637 10.8163 15.962 10.9535C15.9603 11.0907 15.9319 11.2261 15.8786 11.3518C15.8252 11.4774 15.748 11.5908 15.6515 11.6851C15.5549 11.7794 15.4411 11.8528 15.3166 11.9009C15.1921 11.9491 15.0595 11.9709 14.9267 11.9652C14.6681 11.9542 14.4237 11.8396 14.2458 11.6456C14.0678 11.4517 13.9701 11.1937 13.9735 10.9267C13.9769 10.6596 14.081 10.4044 14.2639 10.2153C14.4467 10.0263 14.6938 9.91824 14.9526 9.91418Z" fill="white"/>
<path d="M10.2274 7.72986C10.2205 7.92862 10.1566 8.12082 10.0439 8.28222C9.93137 8.44362 9.77488 8.567 9.59438 8.63674C9.41391 8.70658 9.2174 8.71969 9.02969 8.67437C8.84207 8.62907 8.67152 8.52749 8.53975 8.38235C8.40793 8.23724 8.3207 8.05509 8.28912 7.85887C8.25746 7.66268 8.28287 7.46123 8.36205 7.27988C8.44124 7.09854 8.57066 6.94547 8.73409 6.83996C8.89749 6.73441 9.08754 6.68119 9.2802 6.68695C9.53965 6.696 9.7851 6.8109 9.96265 7.00639C10.1402 7.20189 10.2354 7.46204 10.2274 7.72986Z" fill="#ED0000"/>
<path d="M2.79686 10.9401C2.79915 11.1343 2.74535 11.3249 2.64231 11.4875C2.53927 11.6501 2.39166 11.7773 2.21829 11.853C2.04491 11.9287 1.85362 11.9495 1.66878 11.9126C1.48394 11.8756 1.31394 11.7829 1.18041 11.6459C1.04688 11.509 0.955875 11.3341 0.919004 11.1436C0.882125 10.9531 0.901044 10.7556 0.973343 10.5763C1.04564 10.3969 1.16805 10.2438 1.32497 10.1365C1.4819 10.0292 1.66623 9.97253 1.85449 9.97366C1.97801 9.97276 2.10047 9.99707 2.21483 10.0452C2.32919 10.0934 2.43318 10.1645 2.52079 10.2543C2.6084 10.3442 2.6779 10.451 2.72528 10.5687C2.77266 10.6865 2.79699 10.8126 2.79686 10.9401Z" fill="white"/>
<path d="M14.3778 15.2052C14.6246 15.2089 14.86 15.3136 15.032 15.4964C15.204 15.6791 15.2987 15.9248 15.2951 16.1796C15.2916 16.4343 15.19 16.6771 15.0129 16.8546C14.8358 17.0322 14.5976 17.1298 14.3508 17.1261C14.2286 17.1243 14.1078 17.0977 13.9956 17.0477C13.8834 16.9977 13.7817 16.9254 13.6966 16.835C13.6114 16.7445 13.5443 16.6376 13.4992 16.5204C13.454 16.4032 13.4317 16.2779 13.4334 16.1518C13.4353 16.0256 13.4611 15.9011 13.5095 15.7852C13.5579 15.6694 13.6279 15.5645 13.7156 15.4766C13.8033 15.3888 13.9069 15.3196 14.0206 15.273C14.1341 15.2264 14.2555 15.2034 14.3778 15.2052Z" fill="white"/>
<path d="M16.115 3.45694C15.9941 3.45985 15.8736 3.43783 15.761 3.39215C15.6483 3.34649 15.5455 3.2781 15.4588 3.19097C15.372 3.10385 15.303 2.99975 15.2557 2.88477C15.2084 2.76979 15.1838 2.64622 15.1833 2.5213C15.1808 2.39341 15.2033 2.2663 15.2493 2.14752C15.2953 2.02875 15.3641 1.92072 15.4513 1.82986C15.5386 1.73899 15.6426 1.66712 15.7573 1.61852C15.872 1.56992 15.995 1.54557 16.1189 1.54693C16.3634 1.55305 16.5962 1.65656 16.7685 1.83577C16.9407 2.01499 17.0391 2.25602 17.043 2.50839C17.0429 2.63367 17.0188 2.75769 16.972 2.87331C16.9251 2.98892 16.8567 3.09383 16.7704 3.182C16.6842 3.27017 16.5818 3.33986 16.4694 3.38705C16.3569 3.43424 16.2365 3.45799 16.115 3.45694Z" fill="#ED0000"/>
<path d="M14.6579 6.26705C14.4166 6.27165 14.1835 6.17719 14.0097 6.00441C13.836 5.83164 13.7358 5.59473 13.7314 5.34581C13.7268 5.09686 13.8184 4.85631 13.9859 4.67702C14.1533 4.49773 14.3829 4.39441 14.6242 4.38981C14.7436 4.38752 14.8623 4.40955 14.9736 4.45461C15.0848 4.49967 15.1863 4.5669 15.2723 4.65242C15.3584 4.73797 15.4272 4.84016 15.4749 4.95317C15.5227 5.06618 15.5484 5.18779 15.5507 5.31105C15.5528 5.43431 15.5316 5.55682 15.4879 5.67157C15.4442 5.78632 15.379 5.89105 15.2961 5.97984C15.2132 6.06861 15.1142 6.13965 15.0047 6.18894C14.8951 6.23823 14.7773 6.26477 14.6579 6.26705Z" fill="#ED0000"/>
<path d="M13.663 11.9398C13.7837 11.9362 13.904 11.9576 14.0166 12.0027C14.1291 12.0477 14.2319 12.1155 14.3187 12.2022C14.4055 12.2888 14.4746 12.3925 14.5221 12.5071C14.5695 12.6217 14.5943 12.7449 14.5948 12.8695C14.5925 13.1209 14.4938 13.3612 14.3202 13.5376C14.1467 13.7141 13.9125 13.8124 13.6688 13.8111C13.4305 13.8075 13.2032 13.7071 13.036 13.5318C12.8688 13.3566 12.7753 13.1204 12.7755 12.8745C12.7736 12.7527 12.7951 12.6319 12.8388 12.5189C12.8825 12.4058 12.9476 12.3028 13.0301 12.2159C13.1126 12.1289 13.2111 12.0598 13.3197 12.0124C13.4284 11.965 13.5451 11.9403 13.663 11.9398Z" fill="white"/>
<path d="M8.29374 12.2139C8.17537 12.2167 8.05767 12.195 7.94758 12.1499C7.83754 12.1048 7.73738 12.0374 7.65299 11.9515C7.56871 11.8658 7.50198 11.7634 7.45677 11.6504C7.41156 11.5375 7.38882 11.4163 7.38989 11.2942C7.38592 11.1692 7.40638 11.0447 7.45 10.928C7.49361 10.8114 7.55954 10.7049 7.64381 10.6151C7.72806 10.5252 7.82898 10.4538 7.94057 10.405C8.05217 10.3563 8.17213 10.3311 8.29327 10.3311C8.41442 10.3311 8.53438 10.3563 8.64597 10.405C8.75757 10.4538 8.85849 10.5252 8.9427 10.6151C9.02701 10.7049 9.09296 10.8114 9.13658 10.928C9.18019 11.0447 9.2006 11.1692 9.19669 11.2942C9.19706 11.4161 9.17388 11.5369 9.12853 11.6494C9.08312 11.7619 9.0165 11.864 8.9324 11.9497C8.84833 12.0353 8.74854 12.1028 8.63891 12.1482C8.52917 12.1935 8.41187 12.2159 8.29374 12.2139Z" fill="white"/>
<path d="M4.79134 9.25463C4.97028 9.26285 5.14285 9.32559 5.28715 9.43516C5.43145 9.5447 5.54093 9.69595 5.60174 9.86985C5.66254 10.0437 5.67192 10.2323 5.62865 10.4116C5.58542 10.591 5.49148 10.7531 5.35881 10.8773C5.22612 11.0014 5.06066 11.0821 4.88346 11.1091C4.70625 11.1361 4.52526 11.1081 4.36351 11.0288C4.2017 10.9494 4.06643 10.8222 3.97483 10.6634C3.88321 10.5046 3.83939 10.3212 3.84894 10.1367C3.85323 10.0144 3.88118 9.89422 3.93116 9.78332C3.98111 9.67239 4.05211 9.57286 4.13994 9.49067C4.22775 9.40845 4.33063 9.34524 4.44252 9.30476C4.55437 9.26418 4.67297 9.24719 4.79134 9.25463Z" fill="white"/>
<path d="M12.0255 8.5447C11.9073 8.54461 11.7904 8.52007 11.6816 8.47252C11.5728 8.42497 11.4745 8.35534 11.3922 8.26782C11.31 8.18031 11.2456 8.07661 11.203 7.96296C11.1602 7.84928 11.1401 7.72793 11.1437 7.60609C11.1513 7.36565 11.248 7.1374 11.4138 6.96832C11.5797 6.79922 11.802 6.70221 12.0351 6.69727C12.2739 6.70285 12.5015 6.80336 12.6702 6.9779C12.8391 7.15239 12.936 7.38742 12.9409 7.6339C12.9395 7.75598 12.9146 7.87654 12.8678 7.9886C12.8209 8.10069 12.7529 8.20204 12.6677 8.28678C12.5825 8.37152 12.4819 8.43794 12.3717 8.48222C12.2614 8.52649 12.1437 8.54771 12.0255 8.5447Z" fill="#ED0000"/>
<path d="M15.1816 20.6028C15.1803 20.8437 15.0865 21.0743 14.9207 21.244C14.7548 21.4136 14.5305 21.5084 14.297 21.5076C14.0634 21.504 13.8404 21.4065 13.6753 21.2359C13.5103 21.0652 13.4163 20.8349 13.4133 20.5939C13.413 20.4717 13.4363 20.3507 13.482 20.238C13.5277 20.1253 13.5949 20.0233 13.6795 19.9379C13.7642 19.8525 13.8646 19.7855 13.9748 19.7409C14.085 19.6962 14.2027 19.6749 14.3211 19.678C14.4369 19.6788 14.5514 19.7035 14.6578 19.7507C14.7643 19.7978 14.8604 19.8666 14.9407 19.9528C15.0209 20.039 15.0836 20.1409 15.125 20.2526C15.1664 20.3643 15.1856 20.4833 15.1816 20.6028Z" fill="white"/>
<path d="M1.89786 7.9188C1.89771 8.14928 1.81062 8.37068 1.65502 8.53605C1.49941 8.70145 1.28754 8.79785 1.06427 8.80476C0.952899 8.80612 0.842357 8.78491 0.738963 8.74217C0.635566 8.69942 0.541332 8.63613 0.461647 8.55584C0.381961 8.47556 0.318378 8.37988 0.274535 8.27422C0.230691 8.16859 0.207442 8.05508 0.206115 7.94016C0.204788 7.82524 0.225408 7.71118 0.266799 7.6045C0.308191 7.4978 0.369543 7.40056 0.447353 7.31834C0.52516 7.23612 0.617907 7.17051 0.720287 7.12527C0.822671 7.08004 0.932684 7.05605 1.04405 7.05469C1.26739 7.05564 1.48155 7.14649 1.641 7.30786C1.80045 7.46923 1.8926 7.6884 1.89786 7.9188Z" fill="white"/>
<path d="M12.7039 18.7223C12.5935 18.7231 12.4839 18.7009 12.382 18.657C12.28 18.613 12.1878 18.5481 12.1108 18.4664C12.0338 18.3846 11.9737 18.2876 11.934 18.1811C11.8943 18.0747 11.8759 17.9612 11.88 17.8472C11.8782 17.7315 11.8991 17.6167 11.9411 17.5095C11.9832 17.4023 12.0457 17.3048 12.125 17.223C12.2042 17.1412 12.2986 17.0766 12.4025 17.0331C12.5064 16.9896 12.6178 16.9681 12.7298 16.9698C12.8419 16.9716 12.9526 16.9965 13.0551 17.0432C13.1578 17.0898 13.2502 17.1573 13.327 17.2415C13.4039 17.3257 13.4636 17.4251 13.5026 17.5336C13.5415 17.642 13.559 17.7575 13.5539 17.8731C13.5539 17.9869 13.5318 18.0997 13.4887 18.2046C13.4457 18.3095 13.3827 18.4044 13.3034 18.4836C13.2241 18.5629 13.1302 18.6248 13.0272 18.6658C12.9242 18.7068 12.8142 18.726 12.7039 18.7223Z" fill="white"/>
<path d="M16.3742 6.04271C16.3725 5.93129 16.3923 5.82064 16.4323 5.71718C16.4724 5.61369 16.5319 5.51943 16.6074 5.43981C16.683 5.3602 16.7731 5.29682 16.8725 5.25335C16.9719 5.20988 17.0787 5.18716 17.1867 5.18652C17.405 5.1873 17.6142 5.27731 17.7684 5.43683C17.9227 5.59635 18.0094 5.8124 18.0097 6.03773C18.01 6.1486 17.9892 6.25846 17.9483 6.361C17.9075 6.46356 17.8475 6.55681 17.7717 6.63544C17.6959 6.71407 17.6059 6.77653 17.5068 6.81924C17.4076 6.86199 17.3013 6.88416 17.1939 6.88448C17.0864 6.8848 16.9799 6.86329 16.8806 6.82116C16.7812 6.77902 16.6908 6.71711 16.6146 6.63894C16.5384 6.56078 16.4779 6.4679 16.4365 6.3656C16.395 6.26329 16.3736 6.15355 16.3733 6.04271H16.3742Z" fill="#ED0000"/>
<path d="M18.4619 3.57647C18.4638 3.41011 18.5134 3.24805 18.6045 3.11075C18.6956 2.97345 18.8239 2.86705 18.9736 2.80497C19.1232 2.7429 19.2872 2.72792 19.445 2.76193C19.6029 2.79595 19.7474 2.87744 19.8604 2.99612C19.9734 3.11478 20.0498 3.26534 20.08 3.42876C20.1102 3.5922 20.0928 3.76119 20.03 3.91443C19.9672 4.06767 19.8618 4.19828 19.7272 4.28979C19.5925 4.3813 19.4346 4.42964 19.2734 4.42868C19.0566 4.42553 18.8498 4.33428 18.6979 4.1747C18.5459 4.01515 18.4612 3.80016 18.4619 3.57647Z" fill="#ED0000"/>
<path d="M12.1781 15.4582C11.9611 15.4547 11.7543 15.3625 11.6032 15.2017C11.4521 15.041 11.3691 14.8249 11.3724 14.601C11.3757 14.377 11.4651 14.1637 11.6209 14.0078C11.7767 13.8519 11.9862 13.7662 12.2031 13.7696C12.3106 13.7713 12.4167 13.7948 12.5153 13.8389C12.6139 13.8828 12.7032 13.9465 12.778 14.026C12.8528 14.1056 12.9117 14.1997 12.9513 14.3027C12.9909 14.4058 13.0105 14.5159 13.0088 14.6268C13.0072 14.7377 12.9844 14.8471 12.9417 14.9489C12.8991 15.0507 12.8374 15.1428 12.7603 15.22C12.6832 15.2972 12.5921 15.3579 12.4922 15.3988C12.3922 15.4397 12.2855 15.4598 12.1781 15.4582Z" fill="white"/>
<path d="M4.05986 8.71624C3.84286 8.70976 3.63724 8.61466 3.48822 8.45175C3.33918 8.28885 3.25898 8.07153 3.26523 7.84762C3.27148 7.62373 3.36369 7.41154 3.52156 7.25777C3.67943 7.10401 3.89001 7.02124 4.10703 7.02769C4.21446 7.03091 4.32027 7.05588 4.41835 7.10129C4.51643 7.14667 4.60487 7.21153 4.67867 7.29218C4.75244 7.37284 4.81012 7.46771 4.84838 7.57138C4.88664 7.67501 4.90473 7.78542 4.90163 7.89629C4.89853 8.00717 4.87431 8.11633 4.83032 8.21754C4.78636 8.31874 4.72347 8.41002 4.64533 8.48616C4.56713 8.56228 4.47522 8.62181 4.37476 8.66123C4.27431 8.70073 4.16732 8.7194 4.05986 8.71624Z" fill="white"/>
<path d="M8.03693 9.15769C8.03901 9.26888 8.01924 9.37943 7.97893 9.48252C7.93856 9.58566 7.87839 9.67928 7.80207 9.75777C7.72567 9.83632 7.63474 9.89802 7.53463 9.93932C7.43455 9.98056 7.32741 10.0006 7.21964 9.99801C7.11186 9.99839 7.00507 9.97665 6.90549 9.93414C6.8059 9.89154 6.71549 9.82902 6.63955 9.75007C6.56358 9.67115 6.50359 9.57747 6.46307 9.47438C6.42252 9.3713 6.40224 9.26097 6.40336 9.14978C6.41014 8.93082 6.49751 8.72268 6.64774 8.5679C6.79797 8.41307 6.99972 8.32315 7.21194 8.31644C7.31972 8.31551 7.42659 8.33658 7.52644 8.3784C7.62631 8.42025 7.71716 8.48201 7.79385 8.56015C7.87049 8.63831 7.93141 8.73142 7.97314 8.8339C8.01481 8.93646 8.03655 9.04652 8.03693 9.15769Z" fill="white"/>
<path d="M15.2259 7.94054C15.2275 8.15942 15.1468 8.37042 15.0006 8.52899C14.8544 8.68761 14.6543 8.78153 14.4423 8.79079C14.2251 8.78876 14.0171 8.69988 13.8621 8.54277C13.7071 8.38562 13.6173 8.17258 13.6116 7.94847C13.6163 7.72959 13.7035 7.52119 13.8546 7.36748C14.0057 7.21378 14.2089 7.12684 14.4211 7.12507C14.526 7.12363 14.63 7.14362 14.7274 7.18391C14.8247 7.22419 14.9133 7.28399 14.9881 7.35978C15.063 7.43561 15.1225 7.52596 15.1633 7.62563C15.2041 7.7253 15.2253 7.83233 15.2259 7.94054Z" fill="#ED0000"/>
<path d="M12.2708 22.4002C12.2687 22.5569 12.2218 22.7094 12.1359 22.8387C12.0501 22.9679 11.9291 23.068 11.7882 23.1265C11.6473 23.185 11.4928 23.1992 11.3441 23.1673C11.1954 23.1354 11.0592 23.0589 10.9525 22.9474C10.8459 22.8358 10.7736 22.6942 10.7448 22.5404C10.7159 22.3865 10.7317 22.2273 10.7903 22.0828C10.8489 21.9382 10.9476 21.8148 11.074 21.7279C11.2004 21.6411 11.3488 21.5947 11.5007 21.5947C11.6027 21.5947 11.7037 21.6157 11.7979 21.6562C11.892 21.6969 11.9774 21.7564 12.049 21.8313C12.1206 21.9062 12.1772 21.9951 12.2152 22.0928C12.2533 22.1905 12.2722 22.295 12.2708 22.4002Z" fill="white"/>
<path d="M0.760097 6.06626C0.65789 6.06473 0.557 6.04221 0.463313 6.00005C0.369623 5.95785 0.285009 5.89684 0.214405 5.82058C0.143802 5.7443 0.0886212 5.65429 0.0520818 5.55581C0.0155421 5.45729 -0.00162476 5.35226 0.00158035 5.24683C-0.00521825 5.1375 0.00996798 5.0279 0.0461845 4.92493C0.0824013 4.82193 0.138866 4.72778 0.212032 4.6484C0.285197 4.56901 0.373483 4.50609 0.471344 4.46358C0.569204 4.4211 0.674525 4.39991 0.780689 4.40144C0.886858 4.40295 0.991571 4.42709 1.08826 4.47238C1.18494 4.51764 1.27152 4.58305 1.34253 4.66449C1.41354 4.74593 1.46747 4.84163 1.50092 4.94562C1.53437 5.0496 1.54662 5.15961 1.5369 5.26868C1.53808 5.37409 1.51876 5.47868 1.48008 5.57627C1.44141 5.67383 1.38418 5.76241 1.31176 5.83676C1.23934 5.91114 1.1532 5.96974 1.05845 6.00916C0.963701 6.04858 0.862244 6.068 0.760097 6.06626Z" fill="white"/>
<path d="M22.9998 5.28779C22.998 5.38966 22.9768 5.49017 22.9374 5.58359C22.898 5.67701 22.8411 5.76149 22.77 5.83225C22.699 5.90298 22.6151 5.95858 22.5232 5.99588C22.4313 6.03319 22.3333 6.05145 22.2345 6.04963C22.1358 6.0478 22.0384 6.02593 21.9479 5.98523C21.8573 5.94457 21.7754 5.88591 21.7069 5.81257C21.6383 5.73927 21.5844 5.6527 21.5483 5.55789C21.5122 5.46309 21.4945 5.36185 21.4962 5.25998C21.498 5.15811 21.5192 5.0576 21.5586 4.96418C21.598 4.87075 21.6549 4.78628 21.7259 4.71555C21.797 4.64479 21.8809 4.58919 21.9727 4.55189C22.0647 4.51458 22.1628 4.49635 22.2615 4.49817C22.3602 4.49999 22.4576 4.52187 22.5481 4.56254C22.6387 4.6032 22.7206 4.66186 22.7891 4.7352C22.8577 4.80853 22.9116 4.89506 22.9478 4.98987C22.9839 5.08468 23.0015 5.18592 22.9998 5.28779Z" fill="#ED0000"/>
<path d="M11.524 19.2575C11.5249 19.3605 11.5054 19.4626 11.4666 19.5576C11.4277 19.6524 11.3705 19.7382 11.2984 19.8094C11.2262 19.8806 11.1406 19.9357 11.047 19.9716C10.9534 20.0073 10.8536 20.0229 10.7539 20.0173C10.5575 20.0111 10.3713 19.9254 10.2355 19.7788C10.0998 19.6322 10.0253 19.4364 10.0282 19.2336C10.0345 19.0311 10.1155 18.8387 10.2547 18.6958C10.3939 18.5529 10.5808 18.4703 10.777 18.4648C10.8769 18.465 10.9756 18.4859 11.0675 18.5261C11.1594 18.5663 11.2427 18.625 11.3122 18.6989C11.3819 18.7727 11.4364 18.8602 11.4728 18.9561C11.5092 19.0521 11.5266 19.1545 11.524 19.2575Z" fill="white"/>
<path d="M19.5315 8.01794C19.3358 8.01255 19.1497 7.92921 19.0122 7.78531C18.8747 7.64142 18.7966 7.44821 18.7942 7.24618C18.8025 7.04423 18.885 6.85316 19.0251 6.71178C19.1651 6.57044 19.3521 6.48946 19.5479 6.48535C19.7436 6.49233 19.9288 6.57741 20.0648 6.72269C20.2008 6.86801 20.2767 7.06211 20.2766 7.26406C20.2762 7.36422 20.2566 7.46329 20.2188 7.55555C20.1811 7.64781 20.126 7.73145 20.0566 7.80158C19.9874 7.8717 19.9052 7.92692 19.8151 7.96405C19.725 8.00121 19.6286 8.01953 19.5315 8.01794Z" fill="#ED0000"/>
<path d="M3.74115 4.92092C3.93349 4.92242 4.1177 5.0012 4.25468 5.14058C4.39162 5.27993 4.47058 5.46888 4.47471 5.66733C4.47882 5.86575 4.40786 6.05806 4.27682 6.20337C4.14577 6.34865 3.96501 6.43553 3.7729 6.44555C3.67415 6.45073 3.57538 6.43536 3.48248 6.40043C3.38958 6.3655 3.30441 6.31167 3.232 6.24218C3.15962 6.17267 3.10147 6.08888 3.06102 5.99578C3.02059 5.90265 2.99865 5.80214 2.99651 5.70012C2.99439 5.5981 3.01211 5.4967 3.04866 5.40189C3.08518 5.30705 3.13979 5.22077 3.20922 5.1481C3.27865 5.07546 3.36151 5.01793 3.45287 4.97892C3.54424 4.93988 3.64226 4.92017 3.74115 4.92092Z" fill="white"/>
<path d="M11.163 16.0735C11.1603 16.2703 11.0838 16.4582 10.9495 16.5979C10.8152 16.7376 10.6337 16.8181 10.443 16.8224C10.2465 16.8227 10.0579 16.7431 9.91791 16.6009C9.77795 16.4587 9.69785 16.2653 9.69507 16.0626C9.69695 15.9625 9.71802 15.8636 9.75712 15.7719C9.79616 15.6802 9.85239 15.5974 9.92272 15.5282C9.99296 15.4591 10.0758 15.4049 10.1664 15.369C10.257 15.333 10.3536 15.3159 10.4507 15.3186C10.6419 15.3223 10.8238 15.4037 10.9573 15.545C11.0906 15.6864 11.1646 15.8763 11.163 16.0735Z" fill="white"/>
<path d="M6.6761 7.58964C6.58143 7.59271 6.48714 7.57607 6.39885 7.54073C6.31055 7.50539 6.23003 7.45209 6.16211 7.38396C6.09422 7.31583 6.0403 7.23428 6.00357 7.14421C5.96685 7.05412 5.94809 6.95731 5.94838 6.85958C5.94647 6.7591 5.96404 6.65922 6.00007 6.56583C6.0361 6.47244 6.08987 6.38744 6.1582 6.31581C6.22656 6.24418 6.30809 6.18737 6.39804 6.14874C6.48795 6.1101 6.58447 6.09039 6.68189 6.09083C6.87295 6.09821 7.05395 6.18109 7.18742 6.32232C7.32093 6.46358 7.39667 6.65239 7.39901 6.84965C7.39912 6.94739 7.38049 7.04414 7.34414 7.13437C7.30779 7.22461 7.25445 7.30651 7.18722 7.37531C7.11999 7.44413 7.0402 7.49851 6.95245 7.53529C6.86473 7.57207 6.77079 7.59057 6.6761 7.58964Z" fill="white"/>
<path d="M17.4388 8.66389C17.442 8.76154 17.4257 8.85884 17.3908 8.94974C17.3559 9.04056 17.3031 9.12304 17.2359 9.1918C17.1687 9.26065 17.0884 9.3144 17 9.34967C16.9117 9.38495 16.8172 9.40107 16.7226 9.39685C16.5372 9.39798 16.3587 9.324 16.2255 9.19091C16.0924 9.05772 16.0151 8.876 16.0103 8.68473C16.0101 8.4877 16.0837 8.29823 16.2158 8.1559C16.3478 8.01357 16.528 7.92938 16.7187 7.9209C16.9096 7.92119 17.0926 7.99953 17.2276 8.13882C17.3625 8.27809 17.4385 8.46689 17.4388 8.66389Z" fill="#ED0000"/>
<path d="M4.43424 3.32485C4.43682 3.41428 4.42212 3.50336 4.39104 3.5869C4.35995 3.67043 4.3131 3.74676 4.25319 3.81145C4.19325 3.87614 4.12148 3.92788 4.04204 3.96371C3.96257 3.99954 3.87699 4.0187 3.79028 4.02012C3.61528 4.02333 3.44618 3.95492 3.31994 3.82984C3.19367 3.70476 3.12051 3.53321 3.11649 3.35266C3.11484 3.17195 3.18143 2.99769 3.3022 2.86679C3.42294 2.73589 3.58834 2.65865 3.76334 2.65143C3.93881 2.64904 4.10805 2.71862 4.23383 2.84488C4.35964 2.97115 4.43173 3.14378 4.43424 3.32485Z" fill="white"/>
<path d="M8.1671 21.1566C8.0803 21.1579 7.99415 21.1411 7.91375 21.1072C7.83335 21.0733 7.76039 21.0231 7.69927 20.9595C7.63812 20.8959 7.58993 20.8203 7.55775 20.7371C7.52548 20.6539 7.50979 20.5649 7.51162 20.4753C7.51263 20.2944 7.5827 20.1212 7.70671 19.9933C7.83063 19.8654 7.99857 19.793 8.17387 19.792C8.34939 19.7953 8.5167 19.8692 8.64028 19.9979C8.76374 20.1267 8.83369 20.3001 8.83519 20.4812C8.83453 20.5709 8.81676 20.6596 8.78278 20.7422C8.74878 20.8247 8.69938 20.8995 8.63727 20.9624C8.57522 21.0251 8.50168 21.0746 8.42099 21.108C8.34036 21.1413 8.25403 21.1579 8.1671 21.1566Z" fill="white"/>
<path d="M22.556 8.76303C22.5582 8.85211 22.5432 8.94075 22.5116 9.02375C22.4801 9.10667 22.4327 9.18229 22.3723 9.24596C22.3118 9.3096 22.2395 9.36002 22.1598 9.39434C22.0801 9.42858 21.9945 9.44597 21.9081 9.44542C21.739 9.44047 21.578 9.36922 21.458 9.24611C21.3381 9.12299 21.2681 8.95739 21.2622 8.78288C21.2622 8.69371 21.2793 8.60539 21.3125 8.52299C21.3457 8.4406 21.3943 8.36581 21.4555 8.30287C21.5168 8.23992 21.5895 8.19009 21.6695 8.15623C21.7494 8.12234 21.8352 8.10512 21.9216 8.10552C22.0054 8.10442 22.0886 8.12074 22.1663 8.15342C22.2439 8.18612 22.3143 8.23457 22.3735 8.29589C22.4327 8.35719 22.4793 8.43015 22.5106 8.51037C22.542 8.59063 22.5573 8.67658 22.556 8.76303Z" fill="#ED0000"/>
<path d="M6.42203 3.81055C6.59101 3.81593 6.7514 3.88868 6.86951 4.01353C6.98762 4.13835 7.05424 4.30554 7.0554 4.47999C7.05389 4.65517 6.98495 4.82254 6.86384 4.9453C6.74272 5.06804 6.57929 5.13614 6.4095 5.13455C6.23973 5.13295 6.07752 5.06185 5.95857 4.93685C5.83959 4.81189 5.77364 4.64325 5.77517 4.46807C5.78105 4.2939 5.85137 4.12868 5.97168 4.00638C6.09202 3.88408 6.25316 3.81399 6.42203 3.81055Z" fill="white"/>
<path d="M9.1176 17.2162C9.1213 17.3898 9.05804 17.5578 8.94164 17.6833C8.88405 17.7454 8.81514 17.7952 8.73888 17.8298C8.66265 17.8645 8.58052 17.8833 8.49719 17.8852C8.32896 17.889 8.16614 17.8237 8.04456 17.7036C7.92301 17.5836 7.85263 17.4186 7.84886 17.245C7.84661 17.1585 7.8609 17.0724 7.89091 16.9916C7.92093 16.9107 7.9661 16.8368 8.02387 16.7741C8.08169 16.7113 8.15089 16.661 8.22758 16.6259C8.30422 16.5908 8.38687 16.5717 8.47071 16.5696C8.55464 16.5672 8.63811 16.5821 8.71633 16.6135C8.79447 16.645 8.86584 16.6921 8.92607 16.7524C8.98638 16.8126 9.03436 16.8847 9.06721 16.9643C9.10009 17.044 9.11722 17.1296 9.1176 17.2162Z" fill="white"/>
<path d="M19.4656 9.84872C19.4641 10.0181 19.3977 10.18 19.2811 10.2993C19.1645 10.4185 19.007 10.4854 18.8427 10.4854C18.679 10.4792 18.5236 10.4091 18.4081 10.2893C18.2924 10.1694 18.2253 10.0088 18.22 9.83978C18.2192 9.7531 18.2356 9.66715 18.2683 9.58733C18.3009 9.50743 18.3491 9.43533 18.4098 9.37537C18.4705 9.31546 18.5425 9.26895 18.6212 9.2388C18.7 9.2087 18.7839 9.19553 18.8678 9.2001C18.9492 9.19912 19.0299 9.21553 19.1049 9.2482C19.1799 9.28085 19.2476 9.32915 19.3037 9.38996C19.3597 9.45082 19.4032 9.523 19.431 9.60192C19.4588 9.68087 19.4706 9.76491 19.4656 9.84872Z" fill="#ED0000"/>
<path d="M6.33251 18.4727C6.33077 18.5829 6.29766 18.6901 6.23732 18.7811C6.17695 18.8721 6.09201 18.9427 5.99303 18.9843C5.89406 19.0259 5.78544 19.0364 5.68068 19.0147C5.57591 18.9932 5.47965 18.9402 5.40383 18.8624C5.32803 18.7848 5.27603 18.6858 5.25429 18.5779C5.23259 18.4699 5.24208 18.3578 5.28167 18.2554C5.32123 18.153 5.38913 18.0648 5.47688 18.0019C5.56462 17.939 5.66835 17.9041 5.77517 17.9015C5.84853 17.8997 5.92149 17.9131 5.98971 17.941C6.05789 17.9691 6.11988 18.011 6.17195 18.0644C6.22404 18.1177 6.26511 18.1814 6.29269 18.2516C6.32027 18.3217 6.33381 18.3969 6.33251 18.4727Z" fill="white"/>
<path d="M7.18545 2.15979C7.18323 2.23545 7.16647 2.30991 7.13614 2.37884C7.10584 2.44777 7.06254 2.50981 7.00883 2.56136C6.95511 2.61291 6.89202 2.65295 6.8232 2.67915C6.75438 2.70536 6.68119 2.71721 6.60788 2.71402C6.46466 2.70756 6.32962 2.6432 6.232 2.53484C6.13438 2.42649 6.082 2.28284 6.08617 2.13496C6.08935 1.98428 6.15045 1.84108 6.25593 1.73686C6.36145 1.63264 6.50277 1.57594 6.64881 1.57924C6.79484 1.58253 6.93361 1.64555 7.03462 1.75442C7.13562 1.86329 7.19058 2.00911 7.18736 2.15979H7.18545Z" fill="white"/>
<path d="M21.1355 11.1017C21.2064 11.0984 21.2772 11.1104 21.3434 11.137C21.4096 11.1636 21.4696 11.2041 21.5197 11.256C21.5697 11.3079 21.6089 11.37 21.6343 11.4383C21.6598 11.5066 21.6713 11.5797 21.6679 11.6529C21.6688 11.7261 21.6551 11.7985 21.6276 11.866C21.6003 11.9334 21.5597 11.9943 21.5085 12.0449C21.4573 12.0955 21.3966 12.1347 21.3302 12.16C21.2637 12.1854 21.1928 12.1964 21.1221 12.1922C20.9817 12.1904 20.8477 12.131 20.7497 12.0273C20.6517 11.9236 20.5976 11.7839 20.5994 11.639C20.6011 11.4941 20.6587 11.3559 20.7592 11.2547C20.8598 11.1536 20.9951 11.0978 21.1355 11.0997V11.1017Z" fill="#ED0000"/>
</svg>
