<svg width="24" height="24" viewBox="0 0 24 24" fill="none" xmlns="http://www.w3.org/2000/svg">
<path d="M3.6106 13.4877C2.58735 13.4877 1.6424 13.4951 0.697444 13.4813C0.511885 13.4813 0.274845 13.4463 0.161149 13.3316C0.103603 13.2588 0.0627607 13.1745 0.0414603 13.0844C0.02016 12.9944 0.0189112 12.9009 0.0378009 12.8103C0.0710513 12.6798 0.263043 12.5492 0.412134 12.4982C0.561225 12.4472 0.765018 12.4759 0.948431 12.4759C4.14795 12.4759 7.34856 12.4759 10.5492 12.4621C10.6608 12.4538 10.769 12.4208 10.8661 12.3657C10.9631 12.3106 11.0465 12.2347 11.1102 12.1436C11.1874 12.0013 11.1037 11.7051 10.9879 11.5543C10.9021 11.4418 10.6511 11.4163 10.473 11.4153C8.41043 11.4057 6.35323 11.4057 4.29813 11.4057C3.96026 11.4057 3.62454 11.3898 3.59987 10.9428C3.57627 10.5415 3.79616 10.3674 4.19086 10.3684C5.03072 10.3684 5.87053 10.3684 6.71144 10.3684C7.06327 10.3684 7.39256 10.3387 7.37215 9.88856C7.35288 9.48829 7.07935 9.30356 6.69213 9.30146C5.54772 9.30146 4.40326 9.30146 3.25986 9.30146C2.38355 9.30146 1.50725 9.29402 0.630945 9.30146C0.283422 9.30146 0.00884124 9.22925 0.000260444 8.83536C-0.00939306 8.42345 0.250175 8.30454 0.635236 8.31088C3.33494 8.32681 6.03142 8.32681 8.73434 8.30239C8.96391 8.30239 9.3039 8.13889 9.39828 7.95416C9.58062 7.59424 9.32107 7.35112 8.80731 7.35007C7.16303 7.35007 5.51765 7.35007 3.87338 7.35007C3.71249 7.35007 3.5516 7.34158 3.39072 7.35007C2.97026 7.37025 2.73536 7.15471 2.74716 6.76082C2.75896 6.36694 2.996 6.1928 3.42182 6.20343C4.54802 6.2268 5.67426 6.19599 6.80049 6.22041C7.14048 6.22785 7.32282 6.11424 7.45583 5.81804C7.70895 5.25746 7.98034 4.70431 8.25706 4.15331C8.4619 3.74669 8.92419 3.61185 9.35751 3.89212C10.2842 4.49197 11.1809 5.1343 12.0959 5.75432C12.5324 6.05161 12.9732 6.34037 13.4141 6.63023C14.6787 7.46049 15.9454 8.28541 17.2067 9.11988C17.5682 9.35879 17.7023 9.91828 17.4867 10.3547C16.6061 12.1393 15.7126 13.9187 14.8224 15.7003C14.2796 16.786 13.7358 17.8721 13.1909 18.9586C13.0829 19.1799 12.9637 19.3957 12.8338 19.6051C12.5613 20.0298 12.1538 20.0765 11.7494 19.792C10.8023 19.1274 9.84235 18.4808 8.88452 17.8321C7.55021 16.9269 6.21415 16.0234 4.87626 15.1217C4.65529 14.973 4.4172 14.8488 4.18549 14.7171C3.73823 14.4676 3.5441 14.0822 3.6106 13.4877Z" fill="#F5F5F5"/>
<path d="M21.4907 10.2659C22.1514 10.2659 22.8132 10.2659 23.4739 10.2659C24.0402 10.2659 24.1175 10.4039 23.8568 10.9454C23.4621 11.7533 23.047 12.5507 22.6469 13.3544C21.6952 15.2654 20.746 17.1743 19.7992 19.0811C19.5558 19.5695 19.3402 20.0759 19.0484 20.5325C18.924 20.7257 18.6333 20.9242 18.4124 20.9295C16.9665 20.9656 15.5164 20.9508 14.0716 20.9497C13.5578 20.9497 13.6951 20.61 13.8056 20.3637C14.0641 19.7861 14.3644 19.2255 14.6497 18.6586C15.59 16.7858 16.531 14.9122 17.4728 13.038C17.8675 12.2502 18.2236 11.4454 18.6633 10.68C18.7845 10.4676 19.1417 10.3041 19.4034 10.2829C20.0942 10.2298 20.7935 10.2659 21.4907 10.2659Z" fill="#F5F5F5"/>
<path d="M23.2616 8.86692C21.8168 8.86692 20.5222 8.95611 19.2501 8.82657C18.6699 8.76819 18.1175 8.30529 17.5822 7.97722C17.0921 7.67678 16.6523 7.29668 16.1707 6.97925C14.8236 6.08956 13.4603 5.22109 12.1142 4.32501C11.5554 3.95449 11.0234 3.54678 10.4785 3.15715L10.53 3.01913C11.3881 3.01913 12.2569 3.01276 13.1203 3.01913C13.6362 3.02444 14.1929 2.93526 14.6562 3.10194C15.2901 3.33127 15.8618 3.73895 16.4389 4.11161C16.9387 4.43013 17.3967 4.81233 17.8922 5.13829C19.5784 6.25197 21.273 7.35191 22.9602 8.46349C23.0589 8.53886 23.1136 8.6684 23.2616 8.86692Z" fill="#F5F5F5"/>
</svg>
