<svg width="70" height="70" viewBox="0 0 70 70" fill="none" xmlns="http://www.w3.org/2000/svg">
<g filter="url(#filter0_d_10564_2831)">
<rect x="8" y="4" width="54" height="54" rx="16" fill="#50BCFF"/>
<path d="M50.8332 30.9993C50.8332 22.2546 43.7446 15.166 34.9998 15.166C26.2551 15.166 19.1665 22.2546 19.1665 30.9993C19.1665 39.7441 26.2551 46.8327 34.9998 46.8327" stroke="white" stroke-width="2" stroke-linecap="round" stroke-linejoin="round"/>
<path d="M36.5832 15.2461C36.5832 15.2461 41.3332 21.5003 41.3332 31.0003M33.4166 46.7544C33.4166 46.7544 28.6666 40.5003 28.6666 31.0003C28.6666 21.5003 33.4166 15.2461 33.4166 15.2461M20.1641 36.5419H34.9999M20.1641 25.4586H49.8357" stroke="white" stroke-width="2" stroke-linecap="round" stroke-linejoin="round"/>
<path d="M50.6416 40.3688C51.4237 40.8501 51.3747 42.0202 50.5703 42.112L46.5059 42.5728L44.6835 46.2334C44.3225 46.9602 43.2062 46.6039 43.021 45.7046L41.0339 36.0209C40.8772 35.2609 41.5612 34.7828 42.2214 35.1897L50.6416 40.3688Z" stroke="white" stroke-width="2"/>
</g>
<defs>
<filter id="filter0_d_10564_2831" x="0" y="0" width="70" height="70" filterUnits="userSpaceOnUse" color-interpolation-filters="sRGB">
<feFlood flood-opacity="0" result="BackgroundImageFix"/>
<feColorMatrix in="SourceAlpha" type="matrix" values="0 0 0 0 0 0 0 0 0 0 0 0 0 0 0 0 0 0 127 0" result="hardAlpha"/>
<feOffset dy="4"/>
<feGaussianBlur stdDeviation="4"/>
<feComposite in2="hardAlpha" operator="out"/>
<feColorMatrix type="matrix" values="0 0 0 0 0.0352941 0 0 0 0 0.137255 0 0 0 0 0.258824 0 0 0 0.08 0"/>
<feBlend mode="normal" in2="BackgroundImageFix" result="effect1_dropShadow_10564_2831"/>
<feBlend mode="normal" in="SourceGraphic" in2="effect1_dropShadow_10564_2831" result="shape"/>
</filter>
</defs>
</svg>
