<svg width="26" height="24" viewBox="0 0 26 24" fill="none" xmlns="http://www.w3.org/2000/svg">
<path d="M9.89367 18.1426C9.93969 18.1564 10.0011 18.1564 10.0302 18.1869C10.5579 18.7324 11.081 19.2824 11.6762 19.9043C11.6762 19.9822 11.6762 20.1763 11.7023 20.3627C11.7307 20.6193 11.8353 20.8617 12.0028 21.0588C12.1704 21.2559 12.3931 21.3986 12.6426 21.4689C12.9036 21.5451 13.1818 21.5395 13.4395 21.4529C13.6971 21.3662 13.9218 21.2027 14.083 20.9845C14.2495 20.7698 14.3429 20.5078 14.3495 20.2365C14.3562 19.9653 14.2757 19.699 14.1198 19.4765C14.0205 19.3368 13.908 19.2068 13.7839 19.0884C12.1026 17.4138 10.4193 15.7387 8.73397 14.0632C8.63426 13.9638 8.51614 13.8813 8.39496 13.7805C8.10941 13.9848 7.8489 14.2217 7.61875 14.4864C7.26061 14.8577 6.83813 15.1615 6.37162 15.3833C4.9404 16.0326 3.57974 15.8783 2.37095 14.8943C1.19131 13.9256 0.738778 12.6468 1.087 11.154C1.44288 9.62615 2.43691 8.67732 3.9479 8.31674C4.84254 8.09632 5.78818 8.23111 6.58484 8.6926C6.69238 8.76286 6.79489 8.84046 6.89164 8.92484C6.36241 9.54975 5.77336 10.0662 5.21958 10.6407C5.00319 10.6409 4.78702 10.6542 4.57224 10.6804C4.26574 10.7267 3.98551 10.8794 3.78093 11.1114C3.57635 11.3434 3.46056 11.6398 3.45395 11.9485C3.43443 12.1949 3.48965 12.4413 3.61246 12.656C3.73528 12.8707 3.92001 13.0437 4.14272 13.1525C4.35837 13.274 4.60458 13.3309 4.85189 13.3165C5.0992 13.3022 5.3371 13.2171 5.53712 13.0716C5.67544 12.9703 5.80339 12.8556 5.91909 12.7293C7.58705 11.071 9.25348 9.41173 10.9184 7.75142C11.0196 7.65058 11.1071 7.53751 11.2252 7.39694C11.104 7.24416 11.0043 7.1204 10.8908 6.99969C10.6223 6.7155 10.3278 6.45271 10.0808 6.15018C9.6412 5.61462 9.35816 4.9688 9.26276 4.28358C9.16737 3.59836 9.26329 2.9002 9.54001 2.2657C9.81673 1.63119 10.2636 1.08486 10.8315 0.686631C11.3994 0.288401 12.0665 0.0536589 12.7595 0.00815715C13.4526 -0.0373446 14.1448 0.108152 14.7603 0.428685C15.3758 0.749218 15.8907 1.2324 16.2487 1.82524C16.6066 2.41807 16.7937 3.09764 16.7895 3.78941C16.7852 4.48118 16.5897 5.15841 16.2245 5.74682C16.1815 5.79448 16.1331 5.83703 16.0803 5.87363C15.9622 5.77585 15.8272 5.68265 15.7121 5.56805C15.344 5.209 14.9865 4.83925 14.6168 4.48172C14.5222 4.4053 14.4476 4.30709 14.3995 4.19557C14.3514 4.08404 14.3312 3.96254 14.3407 3.84153C14.3495 3.64666 14.3139 3.45233 14.2364 3.27315C14.1685 3.10146 14.065 2.94596 13.9327 2.81679C13.8004 2.68763 13.6422 2.5877 13.4685 2.52354C13.2948 2.45938 13.1095 2.43242 12.9246 2.44443C12.7397 2.45644 12.5595 2.50715 12.3956 2.59324C12.2329 2.67941 12.0898 2.79798 11.975 2.94159C11.8603 3.0852 11.7765 3.25078 11.7287 3.42803C11.6809 3.60529 11.6703 3.79043 11.6974 3.97196C11.7245 4.15349 11.7888 4.32752 11.8863 4.48325C11.9686 4.60462 12.0637 4.71681 12.1701 4.81786C13.9087 6.54947 15.6436 8.27803 17.375 10.0035C17.4547 10.0732 17.5382 10.1385 17.625 10.1991C17.9548 10.0005 18.1849 9.71323 18.435 9.45502C19.2511 8.61621 20.2604 8.25257 21.4109 8.22048C22.0294 8.1978 22.6396 8.36763 23.1566 8.70635C24.505 9.58642 25.183 10.8194 24.9974 12.4359C24.8256 13.9256 23.9865 14.96 22.5921 15.504C21.394 15.9623 20.2405 15.8095 19.1513 15.1113C19.1796 15.0329 19.2177 14.9585 19.2649 14.8897C19.7757 14.3626 20.2911 13.8401 20.8249 13.2962C21.0211 13.3077 21.2178 13.3077 21.414 13.2962C21.6848 13.2674 21.9399 13.1557 22.1444 12.9766C22.3489 12.7975 22.4926 12.5597 22.5558 12.2959C22.619 12.0321 22.5987 11.7552 22.4975 11.5034C22.3963 11.2516 22.2193 11.0372 21.9908 10.8897C21.7672 10.7346 21.4999 10.6543 21.2275 10.6603C20.9551 10.6664 20.6916 10.7585 20.4752 10.9233C20.3583 11.0125 20.2485 11.1106 20.1469 11.2167C18.4524 12.9096 16.7527 14.6035 15.0479 16.2985C14.9651 16.381 14.8945 16.4788 14.8009 16.5918C15.0464 16.9555 15.3716 17.2183 15.6615 17.5086C16.1883 18.0308 16.5449 18.699 16.6847 19.4261C16.8799 20.2865 16.7641 21.1878 16.3578 21.9716C15.9515 22.7554 15.2806 23.3713 14.4633 23.711C13.646 24.0506 12.7346 24.0923 11.8895 23.8286C11.0444 23.565 10.3197 23.0129 9.84305 22.2695C8.92725 20.8959 9.1052 19.0716 9.89367 18.1426ZM13.0031 9.18917C12.3665 9.67962 10.472 11.5971 10.2051 12.0219C10.719 12.633 12.572 14.4543 13.0246 14.7965C13.382 14.5475 13.6581 14.2037 13.9726 13.9012C14.287 13.5987 14.6353 13.2534 14.9589 12.9203C15.2565 12.6147 15.5986 12.3397 15.8394 11.9929C15.3041 11.3588 13.4633 9.53447 13.0031 9.18917Z" fill="#F5F5F5"/>
</svg>
