<svg width="70" height="70" viewBox="0 0 70 70" fill="none" xmlns="http://www.w3.org/2000/svg">
<g filter="url(#filter0_d_10554_4908)">
<rect x="8" y="4" width="54" height="54" rx="16" fill="#BE4EFF"/>
<g clip-path="url(#clip0_10554_4908)">
<path d="M52.9999 28.6458C52.1871 29.3723 51.4047 30.1393 50.5487 30.815C49.7263 31.4458 49.0849 32.2826 48.6894 33.2407C48.2526 34.2949 47.7141 35.3033 47.234 36.3396C47.1833 36.4686 47.1833 36.6119 47.234 36.7409C48.0443 38.4326 47.0232 40.2055 45.1461 40.3579C45.1149 40.3636 45.0843 40.3721 45.0546 40.3833C44.8997 41.8718 44.0818 42.7278 42.5654 42.8802C42.4105 44.4804 41.3868 45.2729 40.0787 45.372C40.0646 45.8753 39.9012 46.3631 39.6092 46.7734C39.3173 47.1837 38.91 47.498 38.439 47.6763C37.9681 47.8546 37.4548 47.8889 36.9643 47.7748C36.4739 47.6608 36.0284 47.4035 35.6844 47.0357C34.9885 47.8511 34.1325 48.3057 33.0326 48.0517C31.9328 47.7977 31.3435 47.0357 31.1301 45.9181C30.9144 45.9308 30.6981 45.9308 30.4824 45.9181C29.9258 45.8602 29.4066 45.6107 29.0136 45.2122C28.6207 44.8137 28.3785 44.291 28.3285 43.7336C28.3081 43.566 28.3107 43.439 28.0745 43.406C26.6317 43.2155 25.8037 42.2325 25.8367 40.7821C25.8367 40.7364 25.8367 40.6881 25.8367 40.6246C25.7605 40.6018 25.6868 40.5764 25.6106 40.5586C25.2066 40.4794 24.8291 40.2994 24.5132 40.0353C24.1973 39.7712 23.9532 39.4316 23.8037 39.0479C23.6542 38.6643 23.6041 38.2491 23.658 37.8409C23.7119 37.4326 23.8681 37.0447 24.112 36.713C24.1471 36.6806 24.1751 36.6414 24.1943 36.5976C24.2134 36.5539 24.2233 36.5067 24.2233 36.459C24.2233 36.4112 24.2134 36.364 24.1943 36.3203C24.1751 36.2766 24.1471 36.2373 24.112 36.205C23.1798 34.9705 22.273 33.7183 21.3357 32.4863C21.1116 32.2238 20.8614 31.9847 20.589 31.7726C19.7025 31.0106 18.8109 30.2486 17.9143 29.4688C17.4266 29.0471 17.4063 28.7322 17.8076 28.2267C19.9226 25.6189 22.0359 23.0086 24.1476 20.3958C24.5311 19.9182 24.808 19.875 25.3363 20.2103C26.4184 20.8961 27.4928 21.5947 28.5825 22.2652C28.8999 22.4623 29.2414 22.6176 29.5985 22.7275C30.6704 23.0425 31.7499 23.327 32.832 23.6089C33.0079 23.6533 33.192 23.6533 33.3679 23.6089C34.3128 23.3549 35.2577 23.1009 36.1924 22.7986C36.775 22.6167 37.3832 22.5309 37.9933 22.5446C39.2862 22.5649 40.5791 22.5446 41.872 22.5446C42.0515 22.5398 42.2266 22.4881 42.38 22.3948C43.5255 21.681 44.666 20.9495 45.7989 20.2256C46.3577 19.87 46.6295 19.9157 47.0333 20.4415L52.7154 27.8203C52.8043 27.9371 52.8957 28.0514 52.9846 28.1657L52.9999 28.6458ZM34.8183 42.362C34.8335 42.3773 34.8513 42.4001 34.8691 42.4052C35.2336 42.4723 35.5784 42.6209 35.8775 42.8398C36.1766 43.0588 36.4224 43.3425 36.5965 43.6697C36.7706 43.997 36.8686 44.3593 36.8831 44.7297C36.8975 45.1001 36.8282 45.469 36.6801 45.8089C36.6522 45.8749 36.6649 46.0222 36.7081 46.0476C36.9457 46.2206 37.2099 46.3536 37.4904 46.4413C37.6964 46.4702 37.9063 46.4322 38.0891 46.333C38.272 46.2338 38.4183 46.0786 38.5064 45.8901C38.6093 45.6941 38.6479 45.4707 38.6169 45.2514C38.5859 45.0322 38.4869 44.8283 38.3337 44.6684C37.8917 44.1959 37.4294 43.7463 36.9748 43.2866L36.7208 43.0326C36.388 42.6795 36.3626 42.2706 36.6547 41.9861C36.7249 41.917 36.8087 41.8634 36.9008 41.8286C36.993 41.7938 37.0913 41.7787 37.1896 41.7842C37.2879 41.7897 37.384 41.8157 37.4717 41.8605C37.5593 41.9054 37.6367 41.968 37.6987 42.0445C38.2067 42.5525 38.7147 43.069 39.2227 43.5939C39.3525 43.7431 39.5214 43.853 39.7103 43.9114C39.8993 43.9697 40.1008 43.9741 40.2921 43.9242C41.1227 43.7184 41.3665 42.738 40.7391 42.0902C39.8628 41.186 38.9611 40.3122 38.0848 39.4054C37.9504 39.2795 37.8248 39.1446 37.7088 39.0016C37.6108 38.8718 37.5621 38.7114 37.5714 38.549C37.5807 38.3866 37.6474 38.2328 37.7596 38.1151C37.8769 37.9935 38.0346 37.919 38.2029 37.9054C38.3713 37.8919 38.5388 37.9402 38.6741 38.0414C38.7648 38.1125 38.8497 38.1906 38.9281 38.2751C39.8476 39.2031 40.7645 40.1344 41.6789 41.0691C41.8108 41.2313 41.9865 41.3522 42.185 41.4174C42.3836 41.4827 42.5967 41.4897 42.7991 41.4375C43.6322 41.2139 43.8608 40.2436 43.2284 39.5985C41.8584 38.2099 40.4868 36.823 39.1135 35.4379C38.9692 35.3051 38.8343 35.1625 38.7096 35.0111C38.6022 34.8735 38.5526 34.6993 38.5716 34.5257C38.5906 34.3521 38.6766 34.1927 38.8112 34.0815C38.9299 33.97 39.084 33.9038 39.2465 33.8945C39.409 33.8853 39.5697 33.9334 39.7002 34.0307C39.8077 34.1181 39.9087 34.2132 40.0025 34.3152C41.3961 35.7241 42.7923 37.1346 44.191 38.5469C44.699 39.0676 45.362 39.1006 45.8116 38.6459C46.2612 38.1913 46.2104 37.5613 45.7024 37.0533C43.0489 34.3948 40.3903 31.7362 37.7266 29.0776C37.5953 28.9577 37.4286 28.8837 37.2516 28.8668C36.4236 28.7906 35.593 28.755 34.7649 28.6788C34.6664 28.6562 34.563 28.6693 34.4732 28.7159C34.3834 28.7624 34.3131 28.8393 34.2747 28.9328C33.7667 29.8726 33.2392 30.804 32.6923 31.7269C32.3676 32.2921 31.8316 32.7051 31.2024 32.8752C30.5731 33.0453 29.9021 32.9584 29.3369 32.6337C28.7717 32.309 28.3586 31.773 28.1885 31.1438C28.0185 30.5145 28.1054 29.8435 28.4301 29.2783C29.2276 27.8355 30.0532 26.408 30.866 24.9754C30.932 24.8561 30.9955 24.7341 31.0793 24.5792C30.4265 24.4039 29.8093 24.2261 29.1845 24.0712C29.093 24.0483 28.9305 24.1499 28.8619 24.2388C26.8705 26.6654 24.8808 29.092 22.8928 31.5186C22.7988 31.6329 22.7124 31.7497 22.621 31.8666L25.3007 35.4734C25.6311 35.178 26.0355 34.9778 26.4708 34.8941C26.906 34.8105 27.3558 34.8465 27.7722 34.9984C28.679 35.3109 29.1692 36.0145 29.38 36.9035C31.059 36.6927 32.2833 37.6833 32.3976 39.347C34.2468 39.507 35.0342 40.9396 34.8183 42.3519V42.362ZM46.1011 35.4734C46.7184 34.1806 47.3204 32.9334 47.8995 31.6812C47.9121 31.6087 47.9089 31.5345 47.8901 31.4634C47.8712 31.3924 47.8372 31.3263 47.7903 31.2697C45.936 28.8947 44.0691 26.5325 42.2022 24.1576C42.1543 24.0818 42.0873 24.0201 42.0079 23.9786C41.9285 23.9371 41.8395 23.9173 41.75 23.9213C40.3403 23.9213 38.9331 23.9213 37.5234 23.9213C37.3403 23.9242 37.1583 23.9515 36.9824 24.0026C35.6971 24.3684 34.422 24.7646 33.1241 25.0974C32.8246 25.1616 32.5445 25.2956 32.3066 25.4885C32.0687 25.6813 31.8797 25.9276 31.755 26.2074C31.1022 27.4647 30.3681 28.6814 29.6747 29.9184C29.5924 30.0396 29.536 30.1764 29.5089 30.3204C29.4819 30.4644 29.4848 30.6124 29.5174 30.7552C29.55 30.898 29.6117 31.0326 29.6987 31.1505C29.7856 31.2684 29.8959 31.3672 30.0226 31.4406C30.1494 31.514 30.2899 31.5606 30.4354 31.5773C30.581 31.594 30.7284 31.5806 30.8685 31.5379C31.0087 31.4952 31.1385 31.4241 31.2499 31.329C31.3613 31.2339 31.452 31.1168 31.5162 30.9852C32.1394 29.9065 32.7524 28.8228 33.3552 27.7339C33.4295 27.5709 33.5544 27.4361 33.7113 27.3496C33.8683 27.2631 34.0489 27.2295 34.2264 27.2539C35.3771 27.3453 36.5303 27.4215 37.6809 27.4926C38.0043 27.5107 38.3074 27.6558 38.5242 27.8965C40.9389 30.3265 43.3621 32.7514 45.7938 35.1712L46.1011 35.4734ZM27.7595 23.3981L24.9502 21.6201L19.1996 28.7474L21.6482 30.8531L27.7595 23.3981ZM48.9028 30.4137L51.3514 28.3029L46.2104 21.6201L43.4163 23.4108L48.9028 30.4137ZM28.3971 42.0369C28.5792 42.004 28.7523 41.9331 28.9051 41.8286C29.5426 41.2292 30.1751 40.617 30.7644 39.9693C30.9557 39.7672 31.0589 39.4974 31.0513 39.2192C31.0436 38.941 30.9258 38.6772 30.7237 38.4859C30.5216 38.2946 30.2518 38.1914 29.9736 38.199C29.6954 38.2066 29.4317 38.3245 29.2403 38.5266C28.6358 39.093 28.0491 39.6823 27.4776 40.2868C27.3364 40.4351 27.2454 40.6241 27.2176 40.827C27.1898 41.0298 27.2265 41.2363 27.3226 41.4171C27.503 41.8235 27.8408 42.0191 28.3971 42.0369ZM32.2909 40.7669C32.0944 40.8183 31.9086 40.9043 31.7423 41.0209C31.1276 41.5949 30.5281 42.1893 29.9643 42.7989C29.7927 42.9981 29.7026 43.2548 29.712 43.5175C29.7214 43.7803 29.8297 44.0298 30.0151 44.2163C30.193 44.4107 30.4394 44.5283 30.7025 44.5444C30.9655 44.5606 31.2245 44.4738 31.4248 44.3026C32.0522 43.726 32.6567 43.119 33.2358 42.4941C33.3751 42.343 33.4625 42.1514 33.4854 41.9472C33.5082 41.743 33.4653 41.5368 33.3628 41.3587C33.1596 40.9726 32.832 40.7923 32.2909 40.7593V40.7669ZM35.4863 44.6658C35.4716 44.4947 35.4106 44.3308 35.31 44.1917C35.2093 44.0526 35.0727 43.9434 34.9148 43.8759C34.7379 43.774 34.5333 43.7307 34.3303 43.7522C34.1272 43.7736 33.9362 43.8587 33.7845 43.9953C33.4212 44.3084 33.0816 44.648 32.7685 45.0113C32.6287 45.1685 32.5433 45.3666 32.525 45.5761C32.5066 45.7857 32.5564 45.9956 32.6669 46.1746C32.7594 46.3553 32.9039 46.5042 33.0819 46.602C33.2598 46.6998 33.4629 46.742 33.6651 46.7233C34.3026 46.6903 35.4812 45.4558 35.4863 44.6582V44.6658ZM27.9983 37.2057C27.9894 37.0253 27.9298 36.851 27.8265 36.7027C27.7232 36.5545 27.5803 36.4383 27.4141 36.3675C27.2358 36.2676 27.0308 36.2259 26.8277 36.2483C26.6246 36.2706 26.4335 36.3558 26.2812 36.492C25.9198 36.8071 25.5803 37.1466 25.2652 37.508C25.1305 37.6609 25.047 37.8521 25.0265 38.0548C25.006 38.2575 25.0495 38.4616 25.1509 38.6383C25.2352 38.8169 25.3697 38.9669 25.538 39.0702C25.7062 39.1735 25.901 39.2256 26.0983 39.22C26.7587 39.2276 27.9932 37.9703 27.9983 37.2057Z" fill="white"/>
<path d="M44.5594 15.7499C44.4613 15.9591 44.3403 16.1567 44.1987 16.3392C42.6611 17.8886 41.121 19.4313 39.5783 20.9671C39.238 21.3075 38.8316 21.3228 38.5369 21.0306C38.2423 20.7385 38.2499 20.3372 38.5928 19.9918C40.1304 18.4474 41.6705 16.9056 43.2131 15.3664C43.4671 15.1124 43.7542 14.9955 44.0539 15.1733C44.2502 15.3392 44.4206 15.5336 44.5594 15.7499Z" fill="white"/>
<path d="M26.7235 15.0117C26.9257 15.1023 27.1173 15.2147 27.295 15.347C28.8596 16.8964 30.4175 18.4526 31.9687 20.0156C32.0434 20.0764 32.1043 20.1525 32.1471 20.2389C32.19 20.3252 32.2137 20.4197 32.2169 20.5161C32.22 20.6124 32.2024 20.7083 32.1653 20.7972C32.1282 20.8862 32.0724 20.9661 32.0017 21.0316C31.9348 21.1002 31.8542 21.1539 31.7653 21.1895C31.6763 21.225 31.5809 21.2415 31.4852 21.2379C31.3895 21.2343 31.2956 21.2107 31.2096 21.1686C31.1235 21.1265 31.0472 21.0669 30.9857 20.9935C29.4227 19.439 27.8648 17.8811 26.312 16.3198C26.1889 16.2287 26.1038 16.0954 26.0729 15.9455C26.042 15.7955 26.0674 15.6394 26.1443 15.507C26.3122 15.3145 26.5073 15.1477 26.7235 15.0117Z" fill="white"/>
<path d="M34.5746 18.5516C34.5746 17.9293 34.5746 17.307 34.5746 16.6847C34.5644 16.5877 34.5747 16.4897 34.6049 16.3969C34.635 16.3041 34.6843 16.2188 34.7496 16.1463C34.8148 16.0738 34.8946 16.0159 34.9837 15.9762C35.0728 15.9365 35.1692 15.916 35.2668 15.916C35.3643 15.916 35.4607 15.9365 35.5498 15.9762C35.6389 16.0159 35.7187 16.0738 35.784 16.1463C35.8492 16.2188 35.8985 16.3041 35.9287 16.3969C35.9588 16.4897 35.9691 16.5877 35.9589 16.6847C35.9589 17.9547 35.9589 19.2248 35.9589 20.4948C35.9647 20.5892 35.951 20.6838 35.9188 20.7727C35.8866 20.8617 35.8365 20.9431 35.7717 21.012C35.7069 21.0809 35.6286 21.1358 35.5418 21.1733C35.455 21.2108 35.3614 21.2302 35.2668 21.2302C35.1722 21.2302 35.0786 21.2108 34.9917 21.1733C34.9049 21.1358 34.8267 21.0809 34.7618 21.012C34.697 20.9431 34.6469 20.8617 34.6147 20.7727C34.5825 20.6838 34.5689 20.5892 34.5746 20.4948C34.5695 19.8572 34.5746 19.1994 34.5746 18.5516Z" fill="white"/>
<path d="M35.2682 13.1348C35.3603 13.1348 35.4515 13.1531 35.5365 13.1887C35.6215 13.2244 35.6985 13.2766 35.763 13.3423C35.8276 13.4081 35.8784 13.486 35.9125 13.5716C35.9466 13.6572 35.9633 13.7488 35.9616 13.8409C35.9509 14.0172 35.8733 14.1828 35.7447 14.3039C35.6161 14.425 35.4461 14.4924 35.2694 14.4924C35.0928 14.4924 34.9228 14.425 34.7942 14.3039C34.6655 14.1828 34.588 14.0172 34.5773 13.8409C34.5756 13.749 34.5922 13.6577 34.6261 13.5722C34.6601 13.4868 34.7106 13.4089 34.7749 13.3432C34.8392 13.2775 34.9159 13.2253 35.0006 13.1895C35.0853 13.1537 35.1762 13.1351 35.2682 13.1348Z" fill="white"/>
</g>
</g>
<defs>
<filter id="filter0_d_10554_4908" x="0" y="0" width="70" height="70" filterUnits="userSpaceOnUse" color-interpolation-filters="sRGB">
<feFlood flood-opacity="0" result="BackgroundImageFix"/>
<feColorMatrix in="SourceAlpha" type="matrix" values="0 0 0 0 0 0 0 0 0 0 0 0 0 0 0 0 0 0 127 0" result="hardAlpha"/>
<feOffset dy="4"/>
<feGaussianBlur stdDeviation="4"/>
<feComposite in2="hardAlpha" operator="out"/>
<feColorMatrix type="matrix" values="0 0 0 0 0.0352941 0 0 0 0 0.137255 0 0 0 0 0.258824 0 0 0 0.08 0"/>
<feBlend mode="normal" in2="BackgroundImageFix" result="effect1_dropShadow_10554_4908"/>
<feBlend mode="normal" in="SourceGraphic" in2="effect1_dropShadow_10554_4908" result="shape"/>
</filter>
<clipPath id="clip0_10554_4908">
<rect width="36" height="36" fill="white" transform="translate(17 13)"/>
</clipPath>
</defs>
</svg>
