<svg width="70" height="70" viewBox="0 0 70 70" fill="none" xmlns="http://www.w3.org/2000/svg">
<g filter="url(#filter0_d_10564_2819)">
<rect x="8" y="4" width="54" height="54" rx="16" fill="#50BCFF"/>
<path d="M35 46.8327L34.6042 42.0827H34.2083C30.4611 42.0827 27.2812 40.7764 24.6687 38.1639C22.0562 35.5514 20.75 32.3716 20.75 28.6243C20.75 24.8771 22.0562 21.6973 24.6687 19.0848C27.2812 16.4723 30.4611 15.166 34.2083 15.166C36.0819 15.166 37.8305 15.5154 39.4539 16.2142C41.0774 16.913 42.5024 17.8762 43.7289 19.1038C44.9555 20.3314 45.9181 21.7564 46.6169 23.3788C47.3157 25.0012 47.6656 26.7497 47.6667 28.6243C47.6667 30.6035 47.3437 32.5035 46.6977 34.3243C46.0517 36.1452 45.1671 37.8341 44.044 39.391C42.9209 40.948 41.5882 42.3598 40.0461 43.6264C38.5039 44.8931 36.8219 45.9618 35 46.8327ZM38.1667 41.0535C40.0403 39.4702 41.5645 37.6166 42.7393 35.4928C43.9142 33.3691 44.5011 31.0796 44.5 28.6243C44.5 25.748 43.5036 23.3138 41.5107 21.322C39.5178 19.3302 37.0837 18.3337 34.2083 18.3327C31.333 18.3316 28.8989 19.3281 26.906 21.322C24.9131 23.316 23.9167 25.7501 23.9167 28.6243C23.9167 31.4986 24.9131 33.9333 26.906 35.9283C28.8989 37.9233 31.333 38.9192 34.2083 38.916H38.1667V41.0535ZM34.1687 37.2931C34.6174 37.2931 35 37.1348 35.3167 36.8181C35.6333 36.5014 35.7917 36.1188 35.7917 35.6702C35.7917 35.2216 35.6333 34.8389 35.3167 34.5223C35 34.2056 34.6174 34.0473 34.1687 34.0473C33.7201 34.0473 33.3375 34.2056 33.0208 34.5223C32.7042 34.8389 32.5458 35.2216 32.5458 35.6702C32.5458 36.1188 32.7042 36.5014 33.0208 36.8181C33.3375 37.1348 33.7201 37.2931 34.1687 37.2931ZM33.0208 32.266H35.3958C35.3958 31.4743 35.475 30.9202 35.6333 30.6035C35.7917 30.2868 36.2931 29.7063 37.1375 28.8618C37.6125 28.3868 38.0083 27.8723 38.325 27.3181C38.6417 26.7639 38.8 26.1702 38.8 25.5368C38.8 24.191 38.3451 23.1819 37.4352 22.5095C36.5253 21.8371 35.4497 21.5004 34.2083 21.4993C33.0472 21.4993 32.0708 21.8229 31.2792 22.4699C30.4875 23.117 29.9333 23.9018 29.6167 24.8243L31.8333 25.6952C31.9653 25.2466 32.216 24.8048 32.5854 24.3699C32.9549 23.935 33.4958 23.7171 34.2083 23.716C34.9208 23.715 35.4555 23.9129 35.8122 24.3098C36.169 24.7067 36.3469 25.1421 36.3458 25.616C36.3458 26.0646 36.2139 26.4673 35.95 26.8241C35.6861 27.1809 35.3694 27.5435 35 27.9118C34.0764 28.7035 33.5159 29.3305 33.3185 29.7928C33.1211 30.2552 33.0219 31.0796 33.0208 32.266Z" fill="white"/>
</g>
<defs>
<filter id="filter0_d_10564_2819" x="0" y="0" width="70" height="70" filterUnits="userSpaceOnUse" color-interpolation-filters="sRGB">
<feFlood flood-opacity="0" result="BackgroundImageFix"/>
<feColorMatrix in="SourceAlpha" type="matrix" values="0 0 0 0 0 0 0 0 0 0 0 0 0 0 0 0 0 0 127 0" result="hardAlpha"/>
<feOffset dy="4"/>
<feGaussianBlur stdDeviation="4"/>
<feComposite in2="hardAlpha" operator="out"/>
<feColorMatrix type="matrix" values="0 0 0 0 0.0352941 0 0 0 0 0.137255 0 0 0 0 0.258824 0 0 0 0.08 0"/>
<feBlend mode="normal" in2="BackgroundImageFix" result="effect1_dropShadow_10564_2819"/>
<feBlend mode="normal" in="SourceGraphic" in2="effect1_dropShadow_10564_2819" result="shape"/>
</filter>
</defs>
</svg>
