<svg width="70" height="70" viewBox="0 0 70 70" fill="none" xmlns="http://www.w3.org/2000/svg">
<g filter="url(#filter0_d_10564_2825)">
<rect x="8" y="4" width="54" height="54" rx="16" fill="#50BCFF"/>
<path d="M51.625 47.625H42.125V38.125H51.625V47.625ZM44.5 45.25H49.25V40.5H44.5V45.25ZM39.75 44.0625H25.5C23.6103 44.0625 21.7981 43.3118 20.4619 41.9756C19.1257 40.6394 18.375 38.8272 18.375 36.9375C18.375 35.0478 19.1257 33.2356 20.4619 31.8994C21.7981 30.5632 23.6103 29.8125 25.5 29.8125H27.875V32.1875H25.5C24.2402 32.1875 23.032 32.6879 22.1412 33.5787C21.2504 34.4695 20.75 35.6777 20.75 36.9375C20.75 38.1973 21.2504 39.4055 22.1412 40.2963C23.032 41.1871 24.2402 41.6875 25.5 41.6875H39.75V44.0625Z" fill="white"/>
<path d="M39.75 35.75H30.25V26.25H39.75V35.75ZM32.625 33.375H37.375V28.625H32.625V33.375Z" fill="white"/>
<path d="M44.5 32.1875H42.125V29.8125H44.5C45.7598 29.8125 46.968 29.3121 47.8588 28.4213C48.7496 27.5305 49.25 26.3223 49.25 25.0625C49.25 23.8027 48.7496 22.5945 47.8588 21.7037C46.968 20.8129 45.7598 20.3125 44.5 20.3125H30.25V17.9375H44.5C46.3897 17.9375 48.2019 18.6882 49.5381 20.0244C50.8743 21.3606 51.625 23.1728 51.625 25.0625C51.625 26.9522 50.8743 28.7644 49.5381 30.1006C48.2019 31.4368 46.3897 32.1875 44.5 32.1875ZM27.875 23.875H18.375V14.375H27.875V23.875ZM20.75 21.5H25.5V16.75H20.75V21.5Z" fill="white"/>
</g>
<defs>
<filter id="filter0_d_10564_2825" x="0" y="0" width="70" height="70" filterUnits="userSpaceOnUse" color-interpolation-filters="sRGB">
<feFlood flood-opacity="0" result="BackgroundImageFix"/>
<feColorMatrix in="SourceAlpha" type="matrix" values="0 0 0 0 0 0 0 0 0 0 0 0 0 0 0 0 0 0 127 0" result="hardAlpha"/>
<feOffset dy="4"/>
<feGaussianBlur stdDeviation="4"/>
<feComposite in2="hardAlpha" operator="out"/>
<feColorMatrix type="matrix" values="0 0 0 0 0.0352941 0 0 0 0 0.137255 0 0 0 0 0.258824 0 0 0 0.08 0"/>
<feBlend mode="normal" in2="BackgroundImageFix" result="effect1_dropShadow_10564_2825"/>
<feBlend mode="normal" in="SourceGraphic" in2="effect1_dropShadow_10564_2825" result="shape"/>
</filter>
</defs>
</svg>
