<svg width="70" height="70" viewBox="0 0 70 70" fill="none" xmlns="http://www.w3.org/2000/svg">
<g filter="url(#filter0_d_10564_3946)">
<rect x="8" y="4" width="54" height="54" rx="16" fill="#00B39F"/>
<path d="M49.25 29.4173C49.25 38.2048 43.17 46.4223 35 48.4173C26.83 46.4223 20.75 38.2048 20.75 29.4173V19.9173L35 13.584L49.25 19.9173V29.4173ZM35 45.2507C40.9375 43.6673 46.0833 36.6057 46.0833 29.7657V21.9757L35 17.0357L23.9167 21.9757V29.7657C23.9167 36.6057 29.0625 43.6673 35 45.2507ZM39.4333 29.4173V27.0423C39.4333 24.8257 37.2167 23.084 35 23.084C32.7833 23.084 30.5667 24.8257 30.5667 27.0423V29.4173C29.6167 29.4173 28.6667 30.3673 28.6667 31.3173V36.859C28.6667 37.9673 29.6167 38.9173 30.5667 38.9173H39.275C40.3833 38.9173 41.3333 37.9673 41.3333 37.0173V31.4757C41.3333 30.3673 40.3833 29.4173 39.4333 29.4173ZM37.375 29.4173H32.625V27.0423C32.625 25.7757 33.7333 24.984 35 24.984C36.2667 24.984 37.375 25.7757 37.375 27.0423V29.4173Z" fill="white"/>
</g>
<defs>
<filter id="filter0_d_10564_3946" x="0" y="0" width="70" height="70" filterUnits="userSpaceOnUse" color-interpolation-filters="sRGB">
<feFlood flood-opacity="0" result="BackgroundImageFix"/>
<feColorMatrix in="SourceAlpha" type="matrix" values="0 0 0 0 0 0 0 0 0 0 0 0 0 0 0 0 0 0 127 0" result="hardAlpha"/>
<feOffset dy="4"/>
<feGaussianBlur stdDeviation="4"/>
<feComposite in2="hardAlpha" operator="out"/>
<feColorMatrix type="matrix" values="0 0 0 0 0.0352941 0 0 0 0 0.137255 0 0 0 0 0.258824 0 0 0 0.08 0"/>
<feBlend mode="normal" in2="BackgroundImageFix" result="effect1_dropShadow_10564_3946"/>
<feBlend mode="normal" in="SourceGraphic" in2="effect1_dropShadow_10564_3946" result="shape"/>
</filter>
</defs>
</svg>
