<svg width="70" height="70" viewBox="0 0 70 70" fill="none" xmlns="http://www.w3.org/2000/svg">
<g filter="url(#filter0_d_10586_2789)">
<rect x="8" y="4" width="54" height="54" rx="16" fill="#E03C31"/>
<path d="M21.6665 41.6673V39.0007H34.9998V41.6673H21.6665ZM25.6665 37.6673C24.9332 37.6673 24.3056 37.4064 23.7838 36.8847C23.2621 36.3629 23.0007 35.7349 22.9998 35.0007V23.0007C22.9998 22.2673 23.2612 21.6398 23.7838 21.118C24.3065 20.5962 24.9341 20.3349 25.6665 20.334H44.3332C45.0665 20.334 45.6945 20.5953 46.2172 21.118C46.7398 21.6407 47.0007 22.2682 46.9998 23.0007H25.6665V35.0007H34.9998V37.6673H25.6665ZM45.6665 39.0007V28.334H40.3332V39.0007H45.6665ZM39.6665 41.6673C39.1109 41.6673 38.6389 41.4731 38.2505 41.0847C37.8621 40.6962 37.6674 40.2238 37.6665 39.6673V27.6673C37.6665 27.1118 37.8612 26.6398 38.2505 26.2513C38.6398 25.8629 39.1118 25.6682 39.6665 25.6673H46.3332C46.8887 25.6673 47.3612 25.862 47.7505 26.2513C48.1398 26.6407 48.3341 27.1127 48.3332 27.6673V39.6673C48.3332 40.2229 48.1389 40.6953 47.7505 41.0847C47.3621 41.474 46.8896 41.6682 46.3332 41.6673H39.6665ZM42.9998 31.6673C43.2887 31.6673 43.5278 31.5673 43.7172 31.3673C43.9065 31.1673 44.0007 30.934 43.9998 30.6673C43.9998 30.3784 43.9052 30.1398 43.7158 29.9513C43.5265 29.7629 43.2878 29.6682 42.9998 29.6673C42.7332 29.6673 42.4998 29.762 42.2998 29.9513C42.0998 30.1407 41.9998 30.3793 41.9998 30.6673C41.9998 30.934 42.0998 31.1673 42.2998 31.3673C42.4998 31.5673 42.7332 31.6673 42.9998 31.6673Z" fill="white"/>
</g>
<defs>
<filter id="filter0_d_10586_2789" x="0" y="0" width="70" height="70" filterUnits="userSpaceOnUse" color-interpolation-filters="sRGB">
<feFlood flood-opacity="0" result="BackgroundImageFix"/>
<feColorMatrix in="SourceAlpha" type="matrix" values="0 0 0 0 0 0 0 0 0 0 0 0 0 0 0 0 0 0 127 0" result="hardAlpha"/>
<feOffset dy="4"/>
<feGaussianBlur stdDeviation="4"/>
<feComposite in2="hardAlpha" operator="out"/>
<feColorMatrix type="matrix" values="0 0 0 0 0.0352941 0 0 0 0 0.137255 0 0 0 0 0.258824 0 0 0 0.08 0"/>
<feBlend mode="normal" in2="BackgroundImageFix" result="effect1_dropShadow_10586_2789"/>
<feBlend mode="normal" in="SourceGraphic" in2="effect1_dropShadow_10586_2789" result="shape"/>
</filter>
</defs>
</svg>
