<svg width="25" height="24" viewBox="0 0 25 24" fill="none" xmlns="http://www.w3.org/2000/svg">
<path d="M15.9685 20.732C18.7033 19.3748 20.475 17.2299 20.993 14.1704C21.3165 12.2642 21.345 10.3143 20.6625 8.45914C19.416 5.07341 17.0204 3.04204 13.4885 2.57165C8.80175 1.94842 4.56868 5.25984 3.83025 10.0304C3.77842 10.4424 3.7488 10.8571 3.74152 11.2725C3.70288 12.1113 3.2106 12.602 2.3863 12.6093C2.01709 12.6093 1.64787 12.6093 1.27866 12.6093C0.524487 12.5962 0.0150264 12.0865 0.00787082 11.3234C-0.00262361 10.5022 -0.00262361 9.68134 0.00787082 8.86101C0.0193193 7.91595 0.809266 7.34514 1.68937 7.63778L1.78239 7.66987C3.77301 2.85126 7.22761 0.00146016 12.4367 5.57491e-07C17.6458 -0.00145301 21.1061 2.83962 23.0838 7.62759C23.3342 7.5838 23.5884 7.56673 23.8423 7.57662C24.1296 7.61721 24.3928 7.76251 24.5828 7.98561C24.7728 8.20871 24.8769 8.49442 24.8755 8.78966C24.8884 9.58037 24.8755 10.3726 24.8755 11.1633C24.8755 12.037 24.5163 12.4739 23.6677 12.6282C23.6219 13.1248 23.5947 13.6258 23.5246 14.1209C23.1224 17.106 21.7601 19.5568 19.4746 21.4572C17.5327 23.0934 15.0924 23.9921 12.5712 23.9998C11.7126 24.0128 11.2031 23.5075 11.1974 22.6397C11.1974 22.2538 11.1974 21.8679 11.1974 21.4835C11.2131 20.767 11.6954 20.2354 12.4009 20.215C13.2595 20.1889 14.1182 20.2005 14.9668 20.215C15.3661 20.2195 15.575 20.3476 15.9685 20.732Z" fill="#F5F5F5"/>
<path d="M12.4537 19.5798C10.9785 19.5819 9.53593 19.139 8.30802 18.3071C7.08011 17.4753 6.12198 16.2919 5.55469 14.9063C4.98738 13.5207 4.83633 11.9951 5.12062 10.5222C5.40491 9.0493 6.1118 7.69513 7.15198 6.63077C8.19209 5.56647 9.51896 4.83968 10.9648 4.54222C12.4107 4.24475 13.9107 4.38998 15.2756 4.95953C16.6404 5.52913 17.8087 6.49747 18.633 7.74229C19.4572 8.98717 19.9005 10.4526 19.9067 11.9537C19.9093 13.9698 19.1263 15.9047 17.7292 17.3343C16.3321 18.7638 14.4349 19.5714 12.4537 19.5798ZM8.04312 9.6791C7.04995 11.5095 7.35621 13.822 8.78155 15.4049C9.4879 16.1763 10.412 16.7058 11.4264 16.9204C12.4408 17.135 13.4957 17.0243 14.4457 16.6033C16.163 15.8388 17.2148 14.0419 17.2492 13.0254C13.6014 13.6021 10.5432 12.4692 8.04312 9.6791ZM17.1404 10.4582C16.1243 7.14965 12.3364 5.96575 9.76039 7.76123C11.4963 10.1582 14.5359 11.1134 17.1462 10.4582H17.1404Z" fill="#F5F5F5"/>
<path d="M17.146 10.4582C14.5358 11.1136 11.4962 10.1583 9.76318 7.76137C12.3362 5.96588 16.1242 7.14979 17.146 10.4582Z" fill="#F5F5F5"/>
</svg>
