<svg width="70" height="71" viewBox="0 0 70 71" fill="none" xmlns="http://www.w3.org/2000/svg">
<g filter="url(#filter0_d_10407_2328)">
<rect x="8" y="4.5" width="54" height="54" rx="16" fill="#F80E80"/>
<path d="M16 24.7975C16.0697 24.4623 16.1233 24.1218 16.2118 23.7921C17.0296 20.6685 19.019 18.7139 22.1425 17.9632C25.5288 17.1589 29.261 19.0357 30.7222 22.2263C30.9635 22.7625 30.8321 23.2317 30.3817 23.4623C29.9313 23.6929 29.4782 23.532 29.21 23.0199C28.7485 22.1004 28.0816 21.2995 27.2608 20.6792C26.5972 20.1892 25.8395 19.8415 25.0352 19.6579C24.231 19.4742 23.3974 19.4586 22.5869 19.6121C21.7763 19.7655 21.0061 20.0847 20.3246 20.5495C19.6431 21.0144 19.0649 21.615 18.6263 22.3137C18.1876 23.0124 17.898 23.7941 17.7755 24.6099C17.6529 25.4257 17.7002 26.2581 17.9142 27.0548C18.1283 27.8515 18.5046 28.5954 19.0194 29.24C19.5343 29.8845 20.1768 30.4158 20.9065 30.8006C21.0594 30.8821 21.208 30.9716 21.3516 31.0687C21.5357 31.1855 21.6679 31.3686 21.7208 31.5801C21.7737 31.7917 21.7433 32.0154 21.6358 32.2051C21.5284 32.3949 21.3521 32.5361 21.1435 32.5995C20.9349 32.663 20.7099 32.6438 20.5151 32.546C19.1384 31.917 17.9788 30.8945 17.1824 29.6075C16.5729 28.649 16.1897 27.5643 16.0617 26.4357C16.0483 26.3779 16.0275 26.322 16 26.2694V24.7975Z" fill="white"/>
<path d="M33.0949 39.5443C32.9528 39.3942 32.8616 39.2976 32.7678 39.2038C29.0445 35.4824 25.3177 31.76 21.5873 28.0368C20.9496 27.4304 20.5486 26.6168 20.4559 25.7417C20.287 24.133 21.6705 22.4412 23.2711 22.275C23.8101 22.2079 24.3573 22.2702 24.8673 22.4567C25.3774 22.6432 25.8357 22.9485 26.2043 23.3474C27.0623 24.2135 27.9283 25.0714 28.7889 25.9348C28.8828 26.0259 28.982 26.1144 29.0865 26.2029C29.2541 25.7028 29.5366 25.2491 29.9113 24.878C30.286 24.5069 30.7425 24.2288 31.2441 24.0661C31.7458 23.9034 32.2786 23.8606 32.7997 23.9412C33.3209 24.0217 33.8159 24.2233 34.2451 24.5298C34.4036 24.0228 34.6809 23.5609 35.054 23.1827C35.4271 22.8045 35.8851 22.5208 36.39 22.3554C36.891 22.1839 37.4261 22.1362 37.9495 22.2165C38.4729 22.2969 38.9691 22.5027 39.3956 22.8166C39.4358 22.7335 39.4787 22.6664 39.5082 22.5914C39.7015 22.0695 40.0245 21.6055 40.4468 21.2431C40.8691 20.8807 41.3768 20.6319 41.9219 20.52C42.467 20.4081 43.0316 20.437 43.5625 20.6038C44.0934 20.7705 44.5731 21.0698 44.9563 21.4733C47.238 23.9319 49.5143 26.4066 51.7048 28.9537C53.4877 31.045 54.091 33.5466 53.7022 36.2733C53.403 38.3385 52.4225 40.2447 50.9165 41.6892C49.9835 42.6196 49.0638 43.566 48.104 44.4669C46.358 46.1403 44.023 47.0583 41.6048 47.022C36.2747 47.0381 30.9437 47.0381 25.6118 47.022C23.6894 47.022 22.4936 45.4133 22.9976 43.5553C23.4454 41.8957 24.6573 40.8742 26.3973 40.606C28.6012 40.2682 30.8186 39.9089 33.0949 39.5443ZM33.977 45.2873C36.4651 45.2873 38.9505 45.2873 41.4386 45.2873C42.462 45.3181 43.4813 45.1442 44.4366 44.7758C45.3919 44.4075 46.2641 43.8522 47.002 43.1424C48.0235 42.1638 49.0424 41.1771 49.9969 40.1342C52.8094 37.0669 52.8094 32.6805 50.0237 29.5892C48.3265 27.7124 46.6106 25.8356 44.9053 23.9587C44.5166 23.5298 44.1332 23.0954 43.7364 22.6745C43.4594 22.373 43.0755 22.192 42.6667 22.1702C42.2579 22.1484 41.8569 22.2876 41.5495 22.5578C41.2421 22.8281 41.0527 23.208 41.0219 23.6162C40.9912 24.0244 41.1215 24.4284 41.385 24.7416C41.4827 24.8511 41.5723 24.9676 41.6531 25.0902C41.7398 25.219 41.7861 25.3707 41.7861 25.5259C41.7861 25.6811 41.7398 25.8328 41.6531 25.9616C41.5841 26.1018 41.4708 26.2154 41.3307 26.2847C41.1906 26.354 41.0316 26.3752 40.8783 26.345C40.6217 26.2785 40.3852 26.1506 40.1892 25.9723C39.5672 25.4093 39.0041 24.798 38.3767 24.2322C38.0848 23.9895 37.7125 23.8651 37.3332 23.8834C36.954 23.9018 36.5955 24.0617 36.3283 24.3314C36.0551 24.6003 35.89 24.9601 35.8643 25.3425C35.8386 25.725 35.9541 26.1036 36.1889 26.4066C36.3048 26.5498 36.4302 26.6851 36.5643 26.8115C37.0496 27.3021 37.5429 27.7821 38.0228 28.2781C38.4223 28.691 38.4384 29.2138 38.0872 29.5597C37.7359 29.9055 37.2372 29.8921 36.8029 29.49C36.7305 29.4229 36.6635 29.3532 36.5938 29.2835C35.5508 28.2379 34.5078 27.1895 33.4595 26.1519C32.7892 25.4897 31.9178 25.4227 31.2663 25.9669C30.5183 26.5943 30.4968 27.6212 31.2341 28.38C32.3066 29.4524 33.3791 30.5249 34.4515 31.5974C34.5708 31.7111 34.677 31.8379 34.7679 31.9754C34.8703 32.1386 34.9124 32.3324 34.8869 32.5234C34.8615 32.7143 34.77 32.8904 34.6285 33.021C34.4929 33.1479 34.319 33.2262 34.1342 33.2436C33.9493 33.2611 33.7639 33.2168 33.607 33.1176C33.456 33.012 33.3158 32.8917 33.1887 32.7583C30.4879 30.0646 27.7906 27.3674 25.097 24.6666C24.9791 24.5411 24.8538 24.4229 24.7216 24.3127C24.5041 24.1234 24.2364 24.0012 23.951 23.9608C23.6655 23.9204 23.3745 23.9634 23.1129 24.0848C22.8525 24.186 22.626 24.3588 22.4595 24.5831C22.293 24.8075 22.1933 25.0744 22.1718 25.3529C22.0968 25.9589 22.3783 26.4093 22.7885 26.8195C26.989 31.0129 31.1823 35.1981 35.3685 39.3754C35.658 39.665 35.8484 39.9733 35.7224 40.3942C35.5964 40.8152 35.2505 40.9599 34.851 41.0216C33.6954 41.2013 32.5425 41.3782 31.387 41.5578C29.6871 41.826 27.9846 42.078 26.2928 42.3622C25.8337 42.4466 25.417 42.6848 25.1114 43.0376C24.8059 43.3905 24.6296 43.8369 24.6117 44.3033C24.594 44.4183 24.6003 44.5357 24.6302 44.6482C24.6602 44.7606 24.7131 44.8656 24.7857 44.9565C24.8582 45.0475 24.9488 45.1224 25.0518 45.1766C25.1547 45.2307 25.2678 45.263 25.3839 45.2712C25.5422 45.29 25.7017 45.298 25.8611 45.2954L33.977 45.2873Z" fill="white"/>
</g>
<defs>
<filter id="filter0_d_10407_2328" x="0" y="0.5" width="70" height="70" filterUnits="userSpaceOnUse" color-interpolation-filters="sRGB">
<feFlood flood-opacity="0" result="BackgroundImageFix"/>
<feColorMatrix in="SourceAlpha" type="matrix" values="0 0 0 0 0 0 0 0 0 0 0 0 0 0 0 0 0 0 127 0" result="hardAlpha"/>
<feOffset dy="4"/>
<feGaussianBlur stdDeviation="4"/>
<feComposite in2="hardAlpha" operator="out"/>
<feColorMatrix type="matrix" values="0 0 0 0 0.0352941 0 0 0 0 0.137255 0 0 0 0 0.258824 0 0 0 0.08 0"/>
<feBlend mode="normal" in2="BackgroundImageFix" result="effect1_dropShadow_10407_2328"/>
<feBlend mode="normal" in="SourceGraphic" in2="effect1_dropShadow_10407_2328" result="shape"/>
</filter>
</defs>
</svg>
