<svg width="70" height="70" viewBox="0 0 70 70" fill="none" xmlns="http://www.w3.org/2000/svg">
<g filter="url(#filter0_d_10564_3952)">
<rect x="8" y="4" width="54" height="54" rx="16" fill="#00B39F"/>
<path d="M38.8966 39.6623L35.255 36.0207C35.0598 35.8317 34.9047 35.6055 34.7987 35.3554C34.6928 35.1053 34.6382 34.8364 34.6382 34.5648C34.6382 34.2932 34.6928 34.0243 34.7987 33.7742C34.9047 33.5241 35.0598 33.2979 35.255 33.1089L40.6383 28.8498C41.0364 28.4877 41.5552 28.2871 42.0934 28.2871C42.6315 28.2871 43.1503 28.4877 43.5485 28.8498L46.7151 32.0164C47.6205 32.921 48.3025 34.0243 48.707 35.2385L49.5445 37.7576L52.8205 41.0319" stroke="white" stroke-width="2" stroke-linecap="round" stroke-linejoin="round"/>
<path d="M36.425 37.1765L35.7378 37.8621C35.4418 38.158 35.2073 38.5097 35.048 38.8968C34.8887 39.2839 34.8077 39.6988 34.8098 40.1174C34.8119 40.536 34.8969 40.9501 35.06 41.3356C35.2231 41.7211 35.461 42.0705 35.76 42.3635L37.147 43.722L41.8163 45.4795L45.0906 48.7538M31.1034 22.3391L34.7451 25.9807C34.9402 26.1697 35.0953 26.3959 35.2013 26.646C35.3073 26.8961 35.3619 27.165 35.3619 27.4366C35.3619 27.7082 35.3073 27.9771 35.2013 28.2272C35.0953 28.4773 34.9402 28.7035 34.7451 28.8925L29.3618 33.1517C28.9636 33.5137 28.4448 33.7143 27.9067 33.7143C27.3685 33.7143 26.8497 33.5137 26.4516 33.1517L23.2849 29.985C22.3828 29.0805 21.7036 27.9784 21.301 26.7661L20.4634 24.247L17.1875 20.9727" stroke="white" stroke-width="2" stroke-linecap="round" stroke-linejoin="round"/>
<path d="M33.5829 24.8259L34.2701 24.1403C34.5662 23.8443 34.8006 23.4926 34.9599 23.1055C35.1192 22.7184 35.2002 22.3035 35.1981 21.8849C35.196 21.4663 35.111 21.0523 34.9479 20.6668C34.7848 20.2812 34.5469 19.9319 34.2479 19.6389L32.8609 18.2804L28.1917 16.5165L24.9173 13.2422M45.2917 19.1797L47.6667 16.8047M40.5417 16.8047V13.638M47.6667 23.9297H50.8333M23.9167 40.5547L21.5417 42.9297M28.6667 42.9297V46.0964M21.5417 35.8047H18.375" stroke="white" stroke-width="2" stroke-linecap="round" stroke-linejoin="round"/>
</g>
<defs>
<filter id="filter0_d_10564_3952" x="0" y="0" width="70" height="70" filterUnits="userSpaceOnUse" color-interpolation-filters="sRGB">
<feFlood flood-opacity="0" result="BackgroundImageFix"/>
<feColorMatrix in="SourceAlpha" type="matrix" values="0 0 0 0 0 0 0 0 0 0 0 0 0 0 0 0 0 0 127 0" result="hardAlpha"/>
<feOffset dy="4"/>
<feGaussianBlur stdDeviation="4"/>
<feComposite in2="hardAlpha" operator="out"/>
<feColorMatrix type="matrix" values="0 0 0 0 0.0352941 0 0 0 0 0.137255 0 0 0 0 0.258824 0 0 0 0.08 0"/>
<feBlend mode="normal" in2="BackgroundImageFix" result="effect1_dropShadow_10564_3952"/>
<feBlend mode="normal" in="SourceGraphic" in2="effect1_dropShadow_10564_3952" result="shape"/>
</filter>
</defs>
</svg>
