<svg width="70" height="70" viewBox="0 0 70 70" fill="none" xmlns="http://www.w3.org/2000/svg">
<g filter="url(#filter0_d_10554_4868)">
<rect x="8" y="4" width="54" height="54" rx="16" fill="#BE4EFF"/>
<g clip-path="url(#clip0_10554_4868)">
<path d="M53.0001 23.7486C52.8655 24.4369 52.7753 25.1456 52.5861 25.8136C52.039 27.759 50.9189 29.4946 49.3715 30.7944C47.8241 32.0942 45.9212 32.8979 43.9106 33.101C38.4978 33.6217 33.6552 29.7367 32.944 24.3061C32.2035 18.6443 36.246 13.4525 41.8608 12.8454C41.9393 12.8308 42.0166 12.81 42.0919 12.7832H43.7696C43.8445 12.81 43.9213 12.8308 43.9995 12.8454C46 13.0657 47.8886 13.8807 49.4213 15.1852C50.9539 16.4897 52.0603 18.2237 52.5975 20.1633C52.783 20.8237 52.8693 21.5146 53.0001 22.1953V23.7486ZM42.9441 15.0476C38.626 15.0413 35.1081 18.5872 35.0979 22.9472C35.0878 27.3072 38.5905 30.8785 42.8997 30.8924C47.2088 30.9064 50.7598 27.3516 50.7623 22.9751C50.7649 18.5986 47.2558 15.054 42.9441 15.0476Z" fill="white"/>
<path d="M24.6798 21.8382H29.3103C30.1104 21.8382 30.6261 22.2878 30.621 22.9812C30.6159 23.6746 30.1041 24.1039 29.3268 24.1039C28.0797 24.1039 26.8325 24.1039 25.5853 24.1039H25.1777C25.4825 25.4908 25.7797 26.8459 26.0781 28.1997C26.703 31.0209 27.3282 33.8454 27.9539 36.6733C28.1114 37.3807 28.495 37.683 29.2163 37.683C34.6579 37.683 40.1 37.683 45.5424 37.683C46.274 37.683 46.6474 37.3909 46.8493 36.667C46.989 36.1691 47.1236 35.67 47.2646 35.1721C47.4615 34.4736 48.0266 34.1206 48.6616 34.2907C49.2814 34.4546 49.6027 35.0743 49.4236 35.7729C49.2763 36.3304 49.1252 36.8867 48.9588 37.4379C48.494 38.9873 47.2201 39.9487 45.6275 39.9487C40.1385 39.9487 34.6495 39.9487 29.1605 39.9487C27.4726 39.9487 26.1619 38.9022 25.7898 37.2321C24.5723 31.7659 23.3628 26.2977 22.1614 20.8273C22.136 20.713 22.1144 20.5974 22.0852 20.4831C21.9404 19.9103 21.5365 19.5814 20.9498 19.5763C20.1103 19.5699 19.2721 19.5763 18.4326 19.5763C17.6985 19.5763 17.1892 19.0988 17.1969 18.4333C17.2045 17.7678 17.7049 17.3118 18.425 17.3182C19.4613 17.3258 20.5103 17.2509 21.5302 17.3893C22.9716 17.5862 23.8746 18.5133 24.2518 19.9294C24.4169 20.5529 24.5363 21.1892 24.6798 21.8382Z" fill="white"/>
<path d="M31.7325 49.0003C31.0594 49.0069 30.3995 48.8131 29.8367 48.4438C29.274 48.0744 28.8337 47.5461 28.5719 46.9259C28.3101 46.3058 28.2386 45.6218 28.3665 44.9609C28.4943 44.3 28.8158 43.6921 29.29 43.2143C29.7642 42.7365 30.3697 42.4105 31.0296 42.2777C31.6895 42.1449 32.374 42.2112 32.9961 42.4683C33.6182 42.7254 34.1498 43.1617 34.5234 43.7217C34.897 44.2816 35.0957 44.94 35.0942 45.6132C35.0946 46.5072 34.7413 47.3651 34.1115 47.9997C33.4817 48.6342 32.6265 48.9939 31.7325 49.0003ZM31.7325 46.7371C31.9572 46.7404 32.1779 46.6767 32.3662 46.5541C32.5546 46.4314 32.7022 46.2555 32.7902 46.0487C32.8782 45.8418 32.9026 45.6135 32.8603 45.3927C32.818 45.172 32.711 44.9688 32.5527 44.8091C32.3945 44.6495 32.1923 44.5406 31.972 44.4963C31.7516 44.452 31.523 44.4743 31.3154 44.5604C31.1078 44.6465 30.9305 44.7925 30.8062 44.9798C30.6819 45.1671 30.6162 45.3871 30.6174 45.6119C30.6194 45.9091 30.738 46.1935 30.9478 46.404C31.1576 46.6145 31.4417 46.7341 31.7388 46.7371H31.7325Z" fill="white"/>
<path d="M42.9328 49.0002C42.2597 49.0085 41.5993 48.8165 41.0356 48.4487C40.4719 48.0808 40.0302 47.5536 39.7668 46.9342C39.5034 46.3147 39.4301 45.6309 39.5562 44.9697C39.6823 44.3085 40.0022 43.6997 40.4751 43.2206C40.948 42.7416 41.5527 42.414 42.2122 42.2795C42.8718 42.1449 43.5565 42.2095 44.1792 42.4649C44.802 42.7204 45.3348 43.1552 45.7098 43.7142C46.0849 44.2732 46.2853 44.931 46.2856 45.6042C46.2877 46.498 45.9365 47.3565 45.3085 47.9926C44.6805 48.6287 43.8266 48.9908 42.9328 49.0002ZM42.9252 44.4751C42.7004 44.4734 42.4802 44.5386 42.2926 44.6625C42.1051 44.7864 41.9587 44.9633 41.8721 45.1708C41.7855 45.3782 41.7627 45.6067 41.8064 45.8272C41.8502 46.0476 41.9587 46.2501 42.118 46.4086C42.2773 46.5672 42.4802 46.6748 42.7009 46.7176C42.9216 46.7604 43.15 46.7365 43.357 46.6489C43.564 46.5614 43.7403 46.4142 43.8633 46.2261C43.9864 46.038 44.0506 45.8175 44.0478 45.5927C44.0452 45.2963 43.9259 45.0128 43.7158 44.8036C43.5057 44.5945 43.2216 44.4764 42.9252 44.4751Z" fill="white"/>
<path d="M40.6783 24.7651C40.7976 24.6508 40.8904 24.5658 40.9793 24.4769C42.4703 22.9681 43.96 21.4606 45.4485 19.9543C46.1051 19.2939 47.1312 19.5504 47.3611 20.4217C47.4174 20.6095 47.4211 20.8092 47.3716 20.9989C47.322 21.1886 47.2213 21.361 47.0804 21.4974C45.2177 23.3923 43.3478 25.2829 41.4708 27.1693C41.3701 27.2768 41.2484 27.3624 41.1131 27.4206C40.9779 27.4789 40.8321 27.5086 40.6849 27.5079C40.5376 27.5072 40.3921 27.476 40.2574 27.4165C40.1228 27.3569 40.0019 27.2702 39.9023 27.1617C39.153 26.42 38.4117 25.6702 37.6785 24.9125C37.5698 24.8084 37.4831 24.6835 37.4235 24.5453C37.3639 24.4071 37.3326 24.2583 37.3316 24.1078C37.3305 23.9573 37.3596 23.8081 37.4173 23.669C37.4749 23.53 37.5598 23.4039 37.667 23.2983C38.1128 22.8525 38.7885 22.8576 39.2635 23.3275C39.7384 23.7974 40.1995 24.2762 40.6783 24.7651Z" fill="white"/>
</g>
</g>
<defs>
<filter id="filter0_d_10554_4868" x="0" y="0" width="70" height="70" filterUnits="userSpaceOnUse" color-interpolation-filters="sRGB">
<feFlood flood-opacity="0" result="BackgroundImageFix"/>
<feColorMatrix in="SourceAlpha" type="matrix" values="0 0 0 0 0 0 0 0 0 0 0 0 0 0 0 0 0 0 127 0" result="hardAlpha"/>
<feOffset dy="4"/>
<feGaussianBlur stdDeviation="4"/>
<feComposite in2="hardAlpha" operator="out"/>
<feColorMatrix type="matrix" values="0 0 0 0 0.0352941 0 0 0 0 0.137255 0 0 0 0 0.258824 0 0 0 0.08 0"/>
<feBlend mode="normal" in2="BackgroundImageFix" result="effect1_dropShadow_10554_4868"/>
<feBlend mode="normal" in="SourceGraphic" in2="effect1_dropShadow_10554_4868" result="shape"/>
</filter>
<clipPath id="clip0_10554_4868">
<rect width="36" height="36" fill="white" transform="translate(17 13)"/>
</clipPath>
</defs>
</svg>
