<svg width="24" height="24" viewBox="0 0 24 24" fill="none" xmlns="http://www.w3.org/2000/svg">
<path d="M12.2769 17.2611C10.3631 19.5267 8.65748 21.5762 6.90298 23.5892C6.7003 23.8218 6.27683 23.9449 5.94656 23.965C5.08424 24.016 4.21649 24.0033 3.35236 23.9777C2.16882 23.9422 1.59334 22.8923 2.32355 21.9419C3.4908 20.4233 4.76664 18.9904 6.02347 17.542C6.16463 17.3787 6.45961 17.2757 6.68491 17.2729C8.44303 17.2511 10.2021 17.2611 12.2769 17.2611Z" fill="#F5F5F5"/>
<path d="M11.3774 6.75282C13.2441 4.54739 14.9063 2.54626 16.6256 0.587083C16.878 0.298862 17.3494 0.0899927 17.7331 0.0544212C18.5961 -0.0121705 19.4626 -0.0176566 20.3264 0.0380035C21.4402 0.0936411 22.0311 1.15258 21.3561 2.04461C20.1744 3.59516 18.8687 5.05451 17.5955 6.53939C17.4779 6.67621 17.2182 6.74644 17.0237 6.74826C15.2285 6.75921 13.4369 6.75282 11.3774 6.75282Z" fill="#F5F5F5"/>
<path d="M11.7168 8.91631C13.7708 8.91631 15.5669 8.89169 17.3612 8.94094C17.6544 8.94915 18.0001 9.22734 18.2172 9.4736C19.1764 10.5572 20.1527 11.6325 21.0023 12.8009C21.3163 13.2332 21.5208 13.9866 21.3643 14.4509C21.2394 14.8157 20.4974 15.0693 19.9898 15.1696C17.9087 15.581 16.3578 14.8604 15.1507 13.0381C14.2151 11.6353 12.9917 10.4258 11.7168 8.91631Z" fill="#F5F5F5"/>
<path d="M11.9121 15.1223C9.82284 15.1223 8.03215 15.1423 6.24236 15.1004C5.97091 15.094 5.65602 14.8468 5.46057 14.6233C4.48424 13.5069 3.48439 12.4033 2.61573 11.2039C2.30537 10.7761 2.11897 10.0109 2.28908 9.55485C2.41938 9.20552 3.17855 9.0076 3.68979 8.90362C5.82613 8.47676 7.37885 9.27393 8.59134 11.1182C9.47719 12.4662 10.6508 13.6228 11.9121 15.1223Z" fill="#F5F5F5"/>
</svg>
