<svg width="394" height="76" viewBox="0 0 394 76" fill="none" xmlns="http://www.w3.org/2000/svg">
<path d="M121.191 24.6647V0H132.846L132.89 0.0528494C132.912 0.0751024 132.946 0.097356 132.954 0.125172C132.98 0.215865 132.997 0.309106 133.004 0.403335C133.004 18.89 133.004 37.3776 133.004 55.8662C132.992 56.0166 132.97 56.1662 132.94 56.314H121.207V52.7285C121.058 52.8058 120.917 52.8991 120.788 53.0067C117.424 57.0372 113.048 58.1443 108.111 57.2514C101.213 55.9997 96.7236 51.7633 94.6706 45.118C92.924 39.4629 93.3875 33.8579 96.4504 28.6897C99 24.3837 102.675 21.527 107.681 20.623C109.844 20.2239 112.064 20.2626 114.212 20.737C116.462 21.251 118.53 22.3733 120.195 23.9832C120.432 24.2057 120.68 24.4171 120.929 24.6313C121.015 24.6511 121.102 24.6623 121.191 24.6647ZM114.13 46.9538C115.743 46.9595 117.304 46.3743 118.522 45.3071C121.207 43.0262 122.002 40.0943 121.18 36.7425C119.855 31.3294 113.238 29.1264 109.039 32.6674C106.939 34.4421 106.02 36.7397 106.133 39.4991C106.31 43.6771 109.673 46.9761 114.13 46.9622V46.9538Z" fill="white"/>
<path d="M38.3134 58.1723C39.5634 53.3629 44.0915 49.4686 48.9121 49.0292C49.9193 48.9374 50.9319 48.8901 51.9474 48.8845C56.0091 48.8678 60.0709 48.8845 64.1327 48.8845C64.6981 48.8901 65.259 48.7818 65.7825 48.5661C66.3059 48.3504 66.7814 48.0315 67.181 47.6281C67.5807 47.2247 67.8964 46.745 68.1097 46.2171C68.3231 45.6891 68.4297 45.1236 68.4235 44.5535C68.4621 41.8303 66.0973 40.0083 64.1023 40.1029C62.7971 40.1697 61.4837 40.1029 60.173 40.1029H59.1024C59.2238 39.6829 59.3093 39.3741 59.3976 39.0682C60.093 36.7149 60.1454 34.37 59.1217 32.1002C57.8496 29.2713 55.6697 27.6496 52.5682 27.4827C50.7581 27.3853 49.0777 27.9695 47.5517 28.9514C46.8177 29.4243 46.1251 29.9667 45.3443 30.523C45.2118 30.0891 45.0959 29.7191 44.9855 29.3464C44.2252 26.6734 42.9365 24.1831 41.1969 22.0251C35.8604 15.4633 25.3472 16.4619 21.3765 24.3728C20.464 26.1716 19.9812 28.1605 19.9665 30.1809C19.9499 31.9973 19.9665 33.8137 19.9665 35.6301V36.8262C19.5609 36.8512 19.216 36.8874 18.8628 36.8901C17.0278 36.8901 15.1928 36.8512 13.3606 36.918C11.9322 36.981 10.5739 37.5597 9.53339 38.5483C8.49293 39.5369 7.83968 40.8696 7.69281 42.3033C7.54593 43.737 7.91522 45.1762 8.73331 46.3583C9.5514 47.5404 10.7638 48.3866 12.1493 48.7426C12.5636 48.8321 12.9867 48.8732 13.4103 48.865C17.5052 48.865 21.6 48.8483 25.6949 48.8789C26.4821 48.9051 27.2653 48.7564 27.9892 48.4435C28.713 48.1305 29.3598 47.661 29.8836 47.0681C30.0588 46.858 30.281 46.693 30.5319 46.5866C30.7829 46.4802 31.0553 46.4355 31.3268 46.4562C33.4542 46.484 35.5817 46.4562 37.8223 46.4562C37.7478 46.7983 37.7119 47.0765 37.6264 47.3324C36.7923 49.8218 35.2173 51.9916 33.1158 53.546C31.0143 55.1005 28.4885 55.9642 25.8826 56.0194C21.7877 56.0806 17.6937 56.0806 13.6007 56.0194C7.37283 55.9137 1.86793 51.0458 0.990453 44.7733C-0.0553411 37.3213 4.83147 31.5272 10.4302 30.1614C10.9821 30.0223 11.5836 29.9667 12.1575 29.8554C12.4693 29.797 12.7756 29.7052 13.0626 29.6329C13.5593 19.2185 20.8329 12.7178 27.7755 11.0683C34.8836 9.37988 43.9811 12.2644 48.6362 21.1489C52.7504 19.5495 56.7073 19.8749 60.3579 22.4758C64.0085 25.0766 65.6972 28.6983 66.0477 33.1016C66.3457 33.1961 66.6188 33.2991 66.8975 33.3797C71.3622 34.523 75.6419 39.0793 75.217 45.3407C75.0625 47.9015 74.056 50.335 72.3602 52.248C70.6643 54.161 68.3781 55.4417 65.8711 55.8831C65.1255 55.9907 64.3725 56.0372 63.6194 56.0222C59.3949 56.0361 55.1675 56.0611 50.943 56.0222C49.0363 56.0027 47.4055 56.5312 46.0755 57.9415C45.8733 58.1483 45.6038 58.2747 45.3167 58.2975C43.0899 58.3198 40.8631 58.2975 38.6363 58.2975C38.5235 58.2709 38.4149 58.2288 38.3134 58.1723Z" fill="#00B39F"/>
<path d="M160.354 57.6383C156.513 57.6716 153.017 57.0819 149.788 55.3629C144.545 52.5813 141.118 48.3727 140.175 42.4033C139.322 37.0153 140.175 31.9388 143.627 27.5439C145.757 24.7931 148.632 22.7228 151.905 21.5828C157.307 19.6969 162.785 19.5968 168.166 21.555C173.919 23.6496 177.958 27.5939 179.625 33.6523C180.792 37.8943 180.668 42.1669 178.952 46.2531C176.532 52.0082 172.078 55.4157 166.159 56.9707C164.263 57.4564 162.31 57.6809 160.354 57.6383ZM160.155 30.8178C158.605 30.7847 157.086 31.2515 155.817 32.1502C152.975 34.1641 151.761 37.5994 152.666 41.0514C154.129 46.6397 160.864 48.7899 165.103 45.0069C165.918 44.2881 166.579 43.4087 167.045 42.4228C167.511 41.4369 167.772 40.3653 167.812 39.274C168.097 34.6787 164.628 30.829 160.155 30.8178Z" fill="white"/>
<path d="M376.397 37.4603L393.152 56.3503C392.672 56.3725 392.39 56.3976 392.106 56.3976C387.556 56.3976 383 56.3837 378.453 56.4143C378.149 56.4302 377.846 56.369 377.572 56.2363C377.298 56.1037 377.061 55.9037 376.883 55.6549C374.518 52.7453 372.117 49.8635 369.728 46.9734C369.482 46.673 369.217 46.3893 368.9 46.0304C368.097 46.9957 367.338 47.8997 366.588 48.8121C364.637 51.1681 362.68 53.5214 360.746 55.8913C360.622 56.0605 360.459 56.1965 360.271 56.2872C360.083 56.3779 359.876 56.4206 359.667 56.4115C354.852 56.3948 350.04 56.4115 345.225 56.3976C345.128 56.3976 345.032 56.3781 344.761 56.3447C346.105 54.634 347.545 53.1375 348.9 51.577C350.255 50.0165 351.64 48.4699 353.014 46.9178L357.198 42.189C358.577 40.6397 359.938 39.0875 361.359 37.477L347.797 21.605C348.202 21.5716 348.415 21.541 348.624 21.541C353.208 21.541 357.794 21.541 362.377 21.5271C362.633 21.509 362.89 21.5579 363.122 21.669C363.354 21.7801 363.553 21.9497 363.701 22.1613C365.018 23.8442 366.378 25.4993 367.725 27.1683C368.116 27.655 368.511 28.139 368.972 28.7065C369.248 28.4005 369.485 28.1502 369.709 27.872C371.285 25.9749 372.858 24.0742 374.427 22.1697C374.728 21.8053 375.015 21.5355 375.556 21.5382C380.271 21.5605 384.987 21.5522 389.703 21.5549C389.888 21.5727 390.072 21.6006 390.255 21.6384L376.397 37.4603Z" fill="white"/>
<path d="M341.856 41.254H316.779C316.82 43.3875 317.135 45.3096 318.434 46.9368C319.364 48.0996 320.642 48.692 322.052 48.9535C322.697 49.0645 323.349 49.1295 324.003 49.1482C326.304 49.2456 328.158 48.3916 329.453 46.4334C329.55 46.2462 329.699 46.091 329.882 45.986C330.064 45.8811 330.272 45.8307 330.482 45.8409C333.92 45.8604 337.361 45.8409 340.799 45.8576C340.919 45.8701 341.038 45.8925 341.155 45.9243C341.103 46.183 341.075 46.4334 341.003 46.667C339.348 51.9187 335.926 55.3679 330.656 56.8422C325.17 58.3749 319.718 58.1718 314.533 55.7546C308.782 53.0703 305.67 48.3555 304.938 42.0189C304.591 39.0978 304.761 36.1379 305.438 33.2763C306.738 27.7965 310.178 24.1804 315.278 22.1498C319.879 20.2989 324.944 19.9668 329.745 21.2013C334.019 22.2499 337.016 24.9564 339.011 28.8618C340.377 31.5013 341.236 34.3768 341.544 37.3375C341.671 38.5725 341.743 39.8131 341.856 41.254ZM317.077 34.0218H330.658C330.476 32.7569 329.926 31.575 329.077 30.6254C326.594 27.777 322.295 28.0385 320.062 29.4015C318.374 30.439 317.48 32.0134 317.077 34.019V34.0218Z" fill="white"/>
<path d="M219.277 21.582H231.104V22.7976C231.104 28.8421 231.087 34.8838 231.12 40.9255C231.123 41.98 231.25 43.0305 231.498 44.0548C231.967 45.9435 233.228 47.1146 235.107 47.5902C236.545 47.9499 238.051 47.9288 239.478 47.529C241.156 47.0645 242.32 46.0019 242.814 44.3357C243.092 43.3881 243.236 42.4058 243.242 41.4178C243.281 35.212 243.261 29.0034 243.264 22.7976V21.582H255.03C255.058 21.8602 255.11 22.1384 255.11 22.4165C255.11 29.582 255.129 36.7475 255.093 43.9101C255.081 45.0978 254.951 46.2813 254.704 47.4428C253.918 51.2564 251.686 53.9574 248.25 55.682C246.241 56.66 244.079 57.281 241.86 57.5178C238.087 58.0249 234.257 57.9093 230.521 57.1757C228.848 56.8471 227.232 56.2706 225.726 55.465C221.758 53.3065 219.754 49.8739 219.379 45.415C219.316 44.6612 219.296 43.899 219.294 43.1396C219.294 36.3376 219.294 29.5356 219.294 22.7336L219.277 21.582Z" fill="white"/>
<path d="M259.288 21.577H272.593C275.209 27.4184 277.836 33.2876 280.595 39.3794C280.871 38.8564 281.04 38.531 281.194 38.1916C283.592 32.9482 286.001 27.7077 288.368 22.4448C288.686 21.7355 289.05 21.488 289.831 21.4963C293.531 21.5436 297.231 21.5158 300.934 21.5158H301.762C301.794 21.5595 301.824 21.605 301.851 21.6521C301.851 21.6827 301.881 21.7188 301.873 21.7439C301.839 21.8714 301.796 21.9961 301.743 22.1166C296.027 33.512 290.305 44.9166 284.577 56.3306H276.575L259.288 21.577Z" fill="white"/>
<path d="M212.415 45.3045C212.451 45.6049 212.481 45.7329 212.481 45.8608C212.481 48.8622 212.481 51.8664 212.498 54.8677C212.525 55.0943 212.472 55.3233 212.349 55.5148C212.226 55.7064 212.041 55.8485 211.824 55.9164C201.648 60.214 189.879 55.7523 186.623 44.6536C184.852 38.6175 185.544 32.7956 189.465 27.6857C192.702 23.4576 197.001 21.0682 202.305 20.5036C205.533 20.1586 208.629 20.4618 211.601 21.8415C212.26 22.1475 212.514 22.5147 212.503 23.2546C212.462 26.0585 212.487 28.8623 212.484 31.6662C212.484 31.9444 212.456 32.2448 212.431 32.6954L211.275 31.9861C210.162 31.2795 208.909 30.8266 207.604 30.6589C206.299 30.4912 204.974 30.6129 203.72 31.0153C200.685 31.9444 198.836 34.0139 198.317 37.1738C197.964 39.3296 198.124 41.4548 199.203 43.4241C201.833 48.228 207.865 48.3977 211.182 46.1474L212.415 45.3045Z" fill="white"/>
<path d="M35.9929 63.3479C36.0398 62.825 36.0619 62.4049 36.1226 61.9877C36.1833 61.5705 36.2771 61.1532 36.3627 60.7109H43.4735C43.2555 61.576 43.0541 62.3799 42.814 63.3479C43.4404 63.3479 43.8902 63.3312 44.3399 63.3479C44.6701 63.3432 44.9957 63.4258 45.2844 63.5874C45.573 63.749 45.8146 63.984 45.9852 64.269C46.1557 64.554 46.2492 64.8791 46.2563 65.2119C46.2635 65.5447 46.184 65.8735 46.0259 66.1657C45.9087 66.4017 45.7788 66.631 45.6368 66.8528L41.3129 74.0433C41.2108 74.2129 41.117 74.3882 41.0039 74.5495C40.1595 75.7567 38.7412 75.7707 37.8969 74.569C37.6706 74.2491 37.4857 73.8958 37.2815 73.5593C35.9202 71.3043 34.5617 69.0484 33.206 66.7916C33.062 66.572 32.9321 66.3435 32.8169 66.1073C32.6758 65.8174 32.6097 65.4961 32.6249 65.1735C32.6401 64.8509 32.7361 64.5375 32.9038 64.2623C33.0715 63.9872 33.3056 63.7593 33.5843 63.5999C33.8629 63.4405 34.177 63.3548 34.4973 63.3507C34.9692 63.3284 35.4548 63.3479 35.9929 63.3479Z" fill="white"/>
<path d="M39.9165 41.855L39.6046 44.0024H32.5849C32.7339 43.3042 32.8608 42.6756 33.0346 41.9051L31.6963 41.855C29.9 41.7743 29.075 40.3112 29.9966 38.7507C31.5639 36.0896 33.156 33.4424 34.773 30.8092C35.6974 29.3043 37.1902 29.3293 38.1229 30.8537C39.7178 33.461 41.2924 36.0803 42.8469 38.7118C43.7906 40.3056 42.9462 41.7966 41.1085 41.8522C40.7249 41.8661 40.3414 41.855 39.9165 41.855Z" fill="white"/>
</svg>
