<svg xmlns="http://www.w3.org/2000/svg" width="227" height="43" viewBox="0 0 227 43" fill="none">
  <path d="M69.6339 14.1246V0.130859H76.3781L76.4037 0.160844C76.4164 0.17347 76.4356 0.186095 76.4404 0.201877C76.4556 0.253333 76.4652 0.306234 76.4691 0.359696C76.4691 10.8483 76.4691 21.3375 76.4691 31.8271C76.4622 31.9125 76.45 31.9974 76.4324 32.0812H69.6434V30.0469C69.5571 30.0908 69.4757 30.1437 69.4008 30.2048C67.4544 32.4916 64.9222 33.1197 62.0657 32.6131C58.0741 31.9029 55.4764 29.4993 54.2885 25.729C53.2778 22.5206 53.546 19.3405 55.3183 16.4083C56.7936 13.9652 58.9203 12.3444 61.8167 11.8315C63.0683 11.6051 64.353 11.6271 65.5959 11.8962C66.8977 12.1878 68.0944 12.8246 69.0575 13.738C69.1948 13.8642 69.3385 13.9842 69.4822 14.1057C69.532 14.1169 69.5828 14.1233 69.6339 14.1246ZM65.548 26.7706C66.4819 26.7738 67.3851 26.4419 68.0899 25.8363C69.6435 24.5422 70.1033 22.8788 69.6275 20.9771C68.8611 17.906 65.0323 16.656 62.6022 18.6651C61.3872 19.672 60.8555 20.9755 60.9209 22.5411C61.0231 24.9115 62.9694 26.7833 65.548 26.7754V26.7706Z" fill="#0D349A"/>
  <path d="M21.6785 33.1338C22.4018 30.4051 25.0219 28.1957 27.8113 27.9463C28.394 27.8942 28.98 27.8674 29.5676 27.8643C31.9178 27.8548 34.2681 27.8643 36.6184 27.8643C36.9456 27.8674 37.2701 27.806 37.573 27.6836C37.8759 27.5612 38.151 27.3803 38.3823 27.1514C38.6135 26.9226 38.7962 26.6504 38.9196 26.3509C39.0431 26.0513 39.1048 25.7304 39.1012 25.407C39.1235 23.862 37.7552 22.8283 36.6008 22.8819C35.8456 22.9198 35.0856 22.8819 34.3272 22.8819H33.7077C33.7779 22.6436 33.8274 22.4684 33.8785 22.2948C34.2809 20.9597 34.3112 19.6293 33.7189 18.3415C32.9828 16.7365 31.7215 15.8164 29.9268 15.7217C28.8794 15.6665 27.907 15.9979 27.0241 16.555C26.5994 16.8233 26.1986 17.131 25.7468 17.4467C25.6701 17.2005 25.6031 16.9906 25.5392 16.7791C25.0993 15.2626 24.3536 13.8497 23.347 12.6253C20.2591 8.90236 14.1758 9.46893 11.8783 13.9573C11.3503 14.9779 11.0709 16.1063 11.0624 17.2525C11.0528 18.2831 11.0624 19.3136 11.0624 20.3442V21.0228C10.8277 21.037 10.6281 21.0575 10.4237 21.0591C9.36194 21.0591 8.30017 21.037 7.23999 21.0749C6.41346 21.1107 5.62748 21.439 5.02543 21.9999C4.42338 22.5608 4.04539 23.3169 3.96041 24.1303C3.87542 24.9438 4.0891 25.7603 4.56248 26.431C5.03585 27.1017 5.73737 27.5818 6.53906 27.7838C6.77878 27.8345 7.02362 27.8578 7.26873 27.8532C9.63816 27.8532 12.0076 27.8437 14.377 27.8611C14.8325 27.8759 15.2857 27.7916 15.7046 27.614C16.1234 27.4365 16.4976 27.1701 16.8007 26.8337C16.9021 26.7145 17.0307 26.6209 17.1759 26.5605C17.3211 26.5001 17.4787 26.4748 17.6358 26.4865C18.8668 26.5023 20.0978 26.4865 21.3943 26.4865C21.3512 26.6806 21.3304 26.8384 21.2809 26.9836C20.7983 28.396 19.887 29.6271 18.671 30.509C17.455 31.391 15.9935 31.881 14.4856 31.9123C12.1162 31.947 9.74727 31.947 7.3789 31.9123C3.77526 31.8523 0.589938 29.0905 0.082203 25.5317C-0.522928 21.3037 2.30474 18.0164 5.54435 17.2415C5.86368 17.1626 6.21175 17.131 6.54385 17.0679C6.72427 17.0347 6.9015 16.9827 7.06755 16.9416C7.35495 11.0329 11.5637 7.34469 15.5809 6.40883C19.6939 5.45087 24.958 7.08745 27.6516 12.1282C30.0322 11.2207 32.3218 11.4054 34.4342 12.881C36.5465 14.3566 37.5237 16.4114 37.7265 18.9096C37.8989 18.9633 38.057 19.0217 38.2182 19.0675C40.8016 19.7161 43.278 22.3012 43.0321 25.8536C42.9427 27.3066 42.3604 28.6872 41.3791 29.7726C40.3978 30.8579 39.0749 31.5845 37.6243 31.835C37.1928 31.896 36.7571 31.9224 36.3214 31.9139C33.8769 31.9218 31.4309 31.936 28.9864 31.9139C27.8831 31.9028 26.9395 32.2027 26.1699 33.0028C26.0529 33.1202 25.897 33.1919 25.7308 33.2048C24.4423 33.2175 23.1538 33.2048 21.8653 33.2048C21.8001 33.1897 21.7372 33.1658 21.6785 33.1338Z" fill="#00B39F"/>
  <path d="M92.2954 32.8313C90.0728 32.8502 88.0498 32.5156 86.1818 31.5403C83.1481 29.9621 81.1651 27.5743 80.619 24.1876C80.1257 21.1306 80.619 18.2504 82.6165 15.7569C83.8494 14.1962 85.513 13.0216 87.4064 12.3748C90.5326 11.3048 93.702 11.248 96.8155 12.3591C100.144 13.5474 102.482 15.7853 103.446 19.2226C104.122 21.6293 104.05 24.0534 103.057 26.3718C101.657 29.637 99.0795 31.5703 95.6547 32.4525C94.5573 32.7281 93.4273 32.8555 92.2954 32.8313ZM92.1804 17.6144C91.2836 17.5956 90.4042 17.8605 89.6705 18.3704C88.0259 19.513 87.3234 21.462 87.8471 23.4206C88.6933 26.5911 92.5907 27.8111 95.0432 25.6647C95.5151 25.2569 95.8976 24.758 96.1673 24.1986C96.4369 23.6392 96.5879 23.0313 96.6111 22.4121C96.7756 19.8049 94.7686 17.6207 92.1804 17.6144Z" fill="#0D349A"/>
  <path d="M217.305 21.3837L227 32.1012C226.722 32.1138 226.559 32.128 226.395 32.128C223.762 32.128 221.126 32.1201 218.495 32.1375C218.319 32.1465 218.144 32.1118 217.985 32.0366C217.826 31.9613 217.689 31.8478 217.586 31.7066C216.218 30.0559 214.829 28.4209 213.446 26.7811C213.304 26.6107 213.151 26.4497 212.967 26.2461C212.502 26.7937 212.063 27.3067 211.629 27.8243C210.5 29.161 209.368 30.4962 208.249 31.8408C208.177 31.9368 208.083 32.0139 207.974 32.0654C207.865 32.1169 207.745 32.1411 207.625 32.1359C204.838 32.1264 202.054 32.1359 199.268 32.128C199.212 32.128 199.156 32.117 199 32.098C199.777 31.1275 200.611 30.2784 201.394 29.393C202.178 28.5077 202.98 27.6302 203.775 26.7496L206.196 24.0666C206.994 23.1876 207.781 22.307 208.603 21.3932L200.756 12.3881C200.991 12.3691 201.113 12.3518 201.235 12.3518C203.887 12.3518 206.54 12.3518 209.193 12.3439C209.341 12.3336 209.489 12.3613 209.624 12.4244C209.758 12.4874 209.873 12.5836 209.959 12.7037C210.721 13.6585 211.508 14.5975 212.287 15.5444C212.514 15.8206 212.742 16.0952 213.009 16.4172C213.168 16.2436 213.306 16.1015 213.435 15.9437C214.347 14.8674 215.257 13.789 216.165 12.7084C216.339 12.5017 216.505 12.3486 216.818 12.3502C219.547 12.3628 222.275 12.3581 225.004 12.3597C225.111 12.3698 225.218 12.3856 225.324 12.407L217.305 21.3837Z" fill="#0D349A"/>
  <path d="M197.318 23.5369H182.808C182.832 24.7473 183.014 25.8379 183.766 26.7611C184.304 27.4208 185.043 27.7569 185.859 27.9053C186.232 27.9682 186.609 28.0052 186.988 28.0158C188.319 28.071 189.392 27.5865 190.141 26.4755C190.198 26.3692 190.284 26.2812 190.389 26.2217C190.495 26.1621 190.615 26.1335 190.737 26.1393C192.726 26.1503 194.717 26.1393 196.706 26.1488C196.776 26.1559 196.845 26.1686 196.912 26.1866C196.882 26.3334 196.866 26.4755 196.825 26.608C195.867 29.5876 193.887 31.5446 190.837 32.381C187.663 33.2506 184.508 33.1354 181.508 31.764C178.181 30.241 176.38 27.566 175.956 23.9709C175.756 22.3136 175.853 20.6342 176.245 19.0106C176.997 15.9016 178.988 13.85 181.939 12.6979C184.602 11.6478 187.533 11.4594 190.31 12.1597C192.784 12.7547 194.517 14.2903 195.672 16.5061C196.462 18.0036 196.959 19.635 197.138 21.3148C197.211 22.0155 197.253 22.7194 197.318 23.5369ZM182.98 19.4336H190.839C190.733 18.716 190.415 18.0454 189.924 17.5066C188.487 15.8906 185.999 16.0389 184.708 16.8122C183.731 17.4009 183.213 18.2941 182.98 19.432V19.4336Z" fill="#0D349A"/>
  <path d="M126.39 12.375H133.233V13.0647C133.233 16.4941 133.224 19.9219 133.243 23.3497C133.244 23.948 133.318 24.544 133.462 25.1252C133.733 26.1968 134.463 26.8612 135.55 27.131C136.382 27.3351 137.253 27.3231 138.079 27.0963C139.05 26.8328 139.724 26.2299 140.01 25.2846C140.17 24.7469 140.253 24.1896 140.257 23.629C140.279 20.1081 140.268 16.5856 140.27 13.0647V12.375H147.078C147.094 12.5328 147.124 12.6906 147.124 12.8485C147.124 16.9139 147.135 20.9793 147.115 25.0431C147.108 25.717 147.032 26.3884 146.89 27.0474C146.435 29.2111 145.143 30.7435 143.155 31.722C141.992 32.2769 140.741 32.6292 139.457 32.7636C137.274 33.0512 135.058 32.9857 132.896 32.5695C131.928 32.383 130.993 32.0559 130.122 31.5989C127.826 30.3742 126.666 28.4267 126.449 25.8969C126.412 25.4692 126.401 25.0368 126.4 24.6059C126.4 20.7467 126.4 16.8876 126.4 13.0284L126.39 12.375Z" fill="#0D349A"/>
  <path d="M149.542 12.3721H157.241C158.754 15.6862 160.274 19.0162 161.871 22.4724C162.031 22.1757 162.128 21.9911 162.217 21.7986C163.605 18.8237 164.999 15.8504 166.369 12.8644C166.552 12.462 166.763 12.3216 167.215 12.3263C169.356 12.3531 171.497 12.3373 173.64 12.3373H174.119C174.137 12.3622 174.154 12.388 174.17 12.4147C174.17 12.432 174.187 12.4525 174.183 12.4667C174.163 12.5391 174.138 12.6098 174.108 12.6782C170.8 19.1435 167.489 25.6141 164.175 32.0899H159.545L149.542 12.3721Z" fill="#0D349A"/>
  <path d="M122.42 25.8346C122.44 26.005 122.458 26.0776 122.458 26.1502C122.458 27.8531 122.458 29.5575 122.467 31.2604C122.483 31.3889 122.453 31.5188 122.381 31.6275C122.31 31.7362 122.203 31.8168 122.078 31.8554C116.189 34.2937 109.38 31.7623 107.496 25.4653C106.471 22.0406 106.871 18.7375 109.14 15.8384C111.013 13.4395 113.501 12.0839 116.569 11.7635C118.437 11.5678 120.229 11.7398 121.949 12.5226C122.33 12.6962 122.477 12.9045 122.471 13.3243C122.447 14.9151 122.461 16.5059 122.459 18.0968C122.459 18.2546 122.443 18.425 122.429 18.6807L121.76 18.2783C121.116 17.8774 120.391 17.6204 119.636 17.5252C118.881 17.4301 118.114 17.4991 117.388 17.7275C115.632 18.2546 114.562 19.4287 114.262 21.2216C114.058 22.4447 114.15 23.6504 114.775 24.7677C116.296 27.4933 119.787 27.5895 121.706 26.3128L122.42 25.8346Z" fill="#0D349A"/>
  <path d="M20.3358 36.0723C20.3629 35.7756 20.3757 35.5373 20.4108 35.3006C20.446 35.0638 20.5003 34.8271 20.5497 34.5762H24.6643C24.5382 35.067 24.4216 35.5231 24.2827 36.0723C24.6452 36.0723 24.9054 36.0628 25.1657 36.0723C25.3567 36.0696 25.5451 36.1165 25.7121 36.2082C25.8792 36.2998 26.019 36.4332 26.1177 36.5949C26.2163 36.7566 26.2704 36.941 26.2746 37.1298C26.2787 37.3186 26.2327 37.5052 26.1412 37.671C26.0734 37.8049 25.9982 37.935 25.9161 38.0608L23.4141 42.1404C23.3551 42.2367 23.3008 42.3361 23.2353 42.4276C22.7467 43.1126 21.9261 43.1205 21.4375 42.4387C21.3066 42.2572 21.1996 42.0568 21.0814 41.8658C20.2938 40.5864 19.5077 39.3065 18.7232 38.0261C18.6399 37.9015 18.5647 37.7719 18.4981 37.6379C18.4164 37.4734 18.3782 37.2911 18.387 37.1081C18.3958 36.9251 18.4513 36.7472 18.5483 36.5911C18.6454 36.435 18.7808 36.3057 18.9421 36.2152C19.1033 36.1248 19.2851 36.0762 19.4704 36.0739C19.7434 36.0612 20.0245 36.0723 20.3358 36.0723Z" fill="#0D349A"/>
  <path d="M22.6061 23.8774L22.4256 25.0958H18.3638C18.45 24.6997 18.5234 24.343 18.624 23.9058L17.8496 23.8774C16.8102 23.8317 16.3328 23.0015 16.8661 22.1162C17.773 20.6064 18.6943 19.1045 19.6299 17.6105C20.1648 16.7567 21.0286 16.7709 21.5682 17.6357C22.4911 19.115 23.4023 20.6011 24.3017 22.0941C24.8478 22.9984 24.3592 23.8443 23.2958 23.8759C23.0739 23.8838 22.8519 23.8774 22.6061 23.8774Z" fill="#0D349A"/>
</svg>