<svg xmlns="http://www.w3.org/2000/svg" width="208" height="37" viewBox="0 0 208 37" fill="none">
  <path d="M66.0934 10.9606V28.6394H60.0916V10.9606H66.0934ZM63.0925 0.654297C64.0318 0.654297 64.8309 0.997242 65.4896 1.68304C66.1483 2.36883 66.4777 3.19439 66.4777 4.15954C66.4777 5.13746 66.1483 5.96936 65.4896 6.65515C64.8309 7.34104 64.0379 7.68389 63.1108 7.68389C62.1593 7.68389 61.3602 7.34104 60.7137 6.65515C60.055 5.95668 59.7256 5.1121 59.7256 4.1215C59.7256 3.18162 60.055 2.37517 60.7137 1.70205C61.3725 1.01626 62.1654 0.666977 63.0925 0.654297ZM70.3699 10.9606H76.3716V13.1895C77.067 12.3513 77.7074 11.7607 78.293 11.4179C79.2445 10.859 80.4156 10.5796 81.8062 10.5796C83.88 10.5796 85.5147 11.2273 86.71 12.5228C87.2956 13.1451 87.704 13.8118 87.9364 14.523C88.1678 15.2342 88.284 16.1868 88.284 17.3806V28.6394H82.282V19.6857C82.282 18.3268 82.16 17.406 81.916 16.9234C81.7208 16.5043 81.3976 16.1741 80.9462 15.9328C80.5071 15.6787 80.0313 15.5517 79.519 15.5517C78.4699 15.5517 77.6343 15.9455 77.0121 16.7329C76.5851 17.279 76.3716 18.0918 76.3716 19.1714V28.6394H70.3699V10.9606ZM105.881 11.4749L103.85 15.5137C102.716 14.9421 101.624 14.6564 100.575 14.6564C100.038 14.6564 99.5986 14.7771 99.2575 15.0184C98.9156 15.2469 98.7451 15.5454 98.7451 15.9137C98.7451 16.3836 99.0617 16.7393 99.6969 16.9806C99.8796 17.0568 100.459 17.2028 101.435 17.4187C102.837 17.7108 103.905 18.1617 104.637 18.7713C105.796 19.7112 106.375 21.0066 106.375 22.6576C106.375 24.8294 105.546 26.5248 103.887 27.744C102.46 28.7855 100.599 29.3062 98.3057 29.3062C96 29.3062 93.7375 28.6268 91.5171 27.2679L93.6944 22.8481C95.4145 24.042 97.0062 24.6388 98.4706 24.6388C99.0196 24.6388 99.4711 24.5118 99.8243 24.2578C100.178 24.0038 100.356 23.68 100.356 23.2862C100.356 22.8418 100.191 22.5179 99.8609 22.3147C99.5442 22.0988 98.8547 21.8765 97.7932 21.6479C96.3542 21.3304 95.2805 20.924 94.5732 20.4287C93.4021 19.6159 92.8165 18.384 92.8165 16.7329C92.8165 14.8913 93.4442 13.3737 94.7015 12.1798C96.0066 10.9479 97.8972 10.332 100.373 10.332C102.276 10.332 104.112 10.713 105.881 11.4749ZM115.592 10.9606V20.9811C115.592 23.1656 116.611 24.2578 118.648 24.2578C120.673 24.2578 121.685 23.1656 121.685 20.9811V10.9606H127.688V22.1813C127.688 24.3023 127.059 25.9597 125.803 27.1535C124.217 28.6521 121.832 29.4014 118.648 29.4014C115.452 29.4014 113.061 28.6521 111.475 27.1535C110.219 25.9597 109.59 24.3023 109.59 22.1813V10.9606H115.592ZM131.927 10.9606H137.929V13.1324C138.82 12.2433 139.68 11.6147 140.509 11.2464C141.339 10.8653 142.309 10.6748 143.419 10.6748C144.748 10.6748 145.871 10.9416 146.785 11.4749C147.7 11.9957 148.505 12.8276 149.201 13.9705C150.518 11.7607 152.428 10.6558 154.928 10.6558C155.929 10.6558 156.862 10.8717 157.728 11.3035C158.594 11.7226 159.265 12.3005 159.741 13.0371C160.363 13.9897 160.674 15.3612 160.674 17.1521V28.6394H154.672V19.8953C154.672 18.9936 154.654 18.3903 154.617 18.0855C154.581 17.768 154.495 17.4314 154.361 17.0758C153.946 16.047 153.214 15.5327 152.165 15.5327C151.665 15.5327 151.183 15.6852 150.72 15.9899C150.268 16.2948 149.933 16.6821 149.713 17.1521C149.433 17.787 149.292 18.7014 149.292 19.8953V28.6394H143.29V19.8953C143.29 18.4983 143.205 17.5711 143.035 17.1139C142.863 16.6186 142.552 16.2122 142.101 15.8947C141.662 15.5772 141.192 15.4184 140.693 15.4184C140.229 15.4184 139.771 15.5645 139.32 15.8565C138.868 16.136 138.539 16.4853 138.332 16.9044C138.064 17.4759 137.929 18.4728 137.929 19.8953V28.6394H131.927V10.9606ZM182.956 20.9431H170.33C170.366 23.5974 171.587 24.9246 173.99 24.9246C174.709 24.9246 175.283 24.8039 175.71 24.5626C176.148 24.3086 176.558 23.8705 176.935 23.2482H182.718C182.339 24.569 181.833 25.6167 181.199 26.3915C180.394 27.3694 179.375 28.0997 178.143 28.5823C176.814 29.0903 175.417 29.3444 173.953 29.3444C170.574 29.3444 168 28.2393 166.231 26.0295C164.913 24.3785 164.255 22.3591 164.255 19.9715C164.255 18.0537 164.682 16.3075 165.536 14.7326C167.085 11.8877 169.811 10.4653 173.715 10.4653C176.399 10.4653 178.534 11.2083 180.12 12.6942C181.132 13.6467 181.858 14.7706 182.297 16.0662C182.737 17.3489 182.956 18.9745 182.956 20.9431ZM177.375 17.3234C177.168 16.4471 176.753 15.7613 176.131 15.266C175.521 14.758 174.77 14.504 173.879 14.504C172.965 14.504 172.209 14.7516 171.611 15.2469C171.026 15.7422 170.653 16.4345 170.494 17.3234H177.375ZM191.898 19.038L185 10.9606H192.814L195.741 14.5993L198.723 10.9606H206.518L199.492 19.038L208 28.6394H200.059L195.686 23.3815L191.33 28.6394H183.407L191.898 19.038Z" fill="#0D349A"/>
  <path d="M7.61711 21.7042C5.6001 21.7042 3.73745 21.7189 1.87478 21.6917C1.50901 21.6917 1.04177 21.6226 0.817652 21.3966C0.704219 21.2531 0.623712 21.0868 0.581725 20.9094C0.539739 20.7319 0.537277 20.5476 0.574512 20.3691C0.640054 20.1117 1.0185 19.8542 1.31239 19.7538C1.60627 19.6533 2.00798 19.7098 2.36952 19.7098C8.67632 19.7098 14.9853 19.7098 21.2943 19.6826C21.5142 19.6662 21.7276 19.6012 21.9189 19.4926C22.1102 19.384 22.2746 19.2344 22.4 19.0548C22.5522 18.7743 22.3873 18.1905 22.1589 17.8933C21.9899 17.6715 21.4951 17.6213 21.1442 17.6191C17.0784 17.6003 13.0233 17.6003 8.97235 17.6003C8.30635 17.6003 7.64459 17.5689 7.59597 16.6879C7.54945 15.8968 7.98287 15.5536 8.7609 15.5557C10.4164 15.5557 12.0718 15.5557 13.7294 15.5557C14.4229 15.5557 15.072 15.4971 15.0318 14.6097C14.9938 13.8207 14.4546 13.4566 13.6913 13.4525C11.4355 13.4525 9.17958 13.4525 6.92575 13.4525C5.19839 13.4525 3.47105 13.4378 1.7437 13.4525C1.05867 13.4525 0.517428 13.3101 0.500513 12.5337C0.481485 11.7218 0.993138 11.4874 1.75216 11.4999C7.07374 11.5313 12.389 11.5313 17.7169 11.4831C18.1694 11.4831 18.8396 11.1608 19.0256 10.7967C19.385 10.0872 18.8734 9.60802 17.8607 9.60595C14.6196 9.60595 11.3762 9.60595 8.1351 9.60595C7.81796 9.60595 7.50082 9.58921 7.18368 9.60595C6.35489 9.64572 5.89187 9.22085 5.91513 8.44444C5.93839 7.66803 6.40563 7.32477 7.245 7.34573C9.46493 7.3918 11.6849 7.33106 13.9049 7.3792C14.5751 7.39387 14.9345 7.16992 15.1967 6.58606C15.6957 5.48105 16.2306 4.39071 16.7761 3.3046C17.1799 2.50308 18.0911 2.23729 18.9453 2.78975C20.772 3.97214 22.5396 5.23829 24.343 6.46045C25.2035 7.04647 26.0724 7.61566 26.9414 8.18701C29.4342 9.8236 31.9311 11.4497 34.4174 13.0945C35.13 13.5655 35.3942 14.6683 34.9692 15.5285C33.2335 19.0464 31.4723 22.5539 29.7175 26.0656C28.6476 28.2058 27.5757 30.3467 26.5016 32.4883C26.2887 32.9246 26.0537 33.3499 25.7976 33.7628C25.2606 34.5999 24.4572 34.692 23.6601 34.1311C21.7932 32.8211 19.901 31.5466 18.0129 30.2679C15.3828 28.4834 12.7492 26.7025 10.1119 24.9251C9.67638 24.632 9.20706 24.3872 8.75031 24.1277C7.8687 23.6359 7.48602 22.8762 7.61711 21.7042Z" fill="#E03C31"/>
  <path d="M42.8618 15.3537C44.1642 15.3537 45.4687 15.3537 46.7711 15.3537C47.8874 15.3537 48.0396 15.6258 47.5259 16.6931C46.7478 18.2857 45.9296 19.8574 45.141 21.4416C43.2649 25.2086 41.3938 28.9714 39.5277 32.7301C39.0477 33.6927 38.6228 34.6909 38.0477 35.5909C37.8024 35.9717 37.2294 36.3631 36.7939 36.3736C33.9439 36.4447 31.0854 36.4154 28.2376 36.4133C27.2248 36.4133 27.4954 35.7437 27.7132 35.2581C28.2227 34.1197 28.8147 33.0147 29.3771 31.8971C31.2306 28.2055 33.0855 24.5124 34.9418 20.8179C35.7198 19.2651 36.4218 17.6788 37.2886 16.1699C37.5275 15.7513 38.2317 15.4291 38.7475 15.3872C40.1091 15.2825 41.4875 15.3537 42.8618 15.3537Z" fill="#E03C31"/>
  <path d="M46.3525 12.5959C43.5046 12.5959 40.9526 12.7718 38.4451 12.5164C37.3013 12.4013 36.2125 11.4889 35.1575 10.8422C34.1913 10.25 33.3244 9.50074 32.3751 8.87504C29.7196 7.1213 27.0324 5.4094 24.379 3.64306C23.2775 2.91272 22.2288 2.10904 21.1548 1.34103L21.2562 1.06896C22.9477 1.06896 24.6602 1.05641 26.3622 1.06896C27.3791 1.07943 28.4764 0.90364 29.3898 1.2322C30.6393 1.68424 31.7662 2.48785 32.9037 3.22242C33.8889 3.85028 34.7918 4.60365 35.7685 5.24618C39.0921 7.44144 42.4326 9.60961 45.7583 11.8007C45.9529 11.9493 46.0607 12.2046 46.3525 12.5959Z" fill="#0D349A"/>
</svg>