<svg width="388" height="69" viewBox="0 0 388 69" fill="none" xmlns="http://www.w3.org/2000/svg">
<path d="M122.771 19.6215V53.279H111.567V19.6215H122.771ZM117.169 0C118.922 0 120.414 0.65291 121.644 1.95854C122.873 3.26418 123.488 4.83592 123.488 6.67339C123.488 8.53518 122.873 10.119 121.644 11.4246C120.414 12.7304 118.934 13.3832 117.203 13.3832C115.427 13.3832 113.935 12.7304 112.728 11.4246C111.499 10.0948 110.884 8.4869 110.884 6.60096C110.884 4.81159 111.499 3.27625 112.728 1.99475C113.958 0.68912 115.438 0.0241406 117.169 0ZM130.754 19.6215H141.958V23.865C143.256 22.2691 144.451 21.1447 145.544 20.492C147.321 19.428 149.507 18.8961 152.103 18.8961C155.974 18.8961 159.025 20.1292 161.257 22.5956C162.35 23.7803 163.112 25.0498 163.546 26.4037C163.978 27.7578 164.195 29.5713 164.195 31.844V53.279H152.991V36.2326C152.991 33.6455 152.763 31.8925 152.308 30.9737C151.943 30.1757 151.34 29.5471 150.497 29.0877C149.678 28.604 148.789 28.3622 147.833 28.3622C145.875 28.3622 144.315 29.1119 143.153 30.611C142.356 31.6507 141.958 33.1981 141.958 35.2534V53.279H130.754V19.6215ZM197.045 20.6006L193.253 28.2898C191.135 27.2016 189.098 26.6577 187.139 26.6577C186.137 26.6577 185.316 26.8874 184.68 27.3468C184.041 27.7819 183.723 28.3501 183.723 29.0513C183.723 29.946 184.314 30.6231 185.5 31.0825C185.841 31.2275 186.922 31.5055 188.744 31.9166C191.362 32.4728 193.356 33.3311 194.722 34.4917C196.885 36.2811 197.966 38.7473 197.966 41.8906C197.966 46.0253 196.418 49.2531 193.321 51.5743C190.658 53.557 187.184 54.5484 182.903 54.5484C178.599 54.5484 174.375 53.2549 170.23 50.6677L174.295 42.2533C177.506 44.5262 180.477 45.6625 183.211 45.6625C184.236 45.6625 185.079 45.4207 185.738 44.9371C186.399 44.4536 186.73 43.8371 186.73 43.0874C186.73 42.2412 186.422 41.6247 185.806 41.2377C185.215 40.8267 183.928 40.4035 181.946 39.9683C179.26 39.3638 177.256 38.59 175.935 37.6471C173.749 36.0996 172.656 33.7543 172.656 30.611C172.656 27.1049 173.828 24.2156 176.175 21.9427C178.611 19.5973 182.14 18.4247 186.763 18.4247C190.315 18.4247 193.743 19.15 197.045 20.6006ZM215.172 19.6215V38.6988C215.172 42.8577 217.075 44.9371 220.877 44.9371C224.658 44.9371 226.547 42.8577 226.547 38.6988V19.6215H237.752V40.9838C237.752 45.0218 236.578 48.1772 234.233 50.4501C231.272 53.3032 226.821 54.7297 220.877 54.7297C214.911 54.7297 210.448 53.3032 207.487 50.4501C205.142 48.1772 203.968 45.0218 203.968 40.9838V19.6215H215.172ZM245.666 19.6215H256.869V23.7562C258.532 22.0636 260.138 20.8667 261.686 20.1656C263.235 19.44 265.045 19.0774 267.118 19.0774C269.599 19.0774 271.695 19.5853 273.401 20.6006C275.11 21.5921 276.612 23.1759 277.912 25.3519C280.371 21.1447 283.935 19.0412 288.603 19.0412C290.471 19.0412 292.213 19.4523 293.829 20.2744C295.446 21.0721 296.699 22.1724 297.587 23.5748C298.748 25.3883 299.329 27.9996 299.329 31.4089V53.279H288.124V36.6317C288.124 34.9149 288.09 33.7664 288.022 33.1861C287.954 32.5816 287.795 31.9408 287.543 31.2637C286.77 29.3052 285.402 28.326 283.445 28.326C282.511 28.326 281.611 28.6162 280.747 29.1964C279.904 29.7769 279.278 30.5143 278.867 31.4089C278.344 32.6178 278.082 34.3587 278.082 36.6317V53.279H266.878V36.6317C266.878 33.9719 266.719 32.2067 266.401 31.3363C266.081 30.3934 265.5 29.6196 264.657 29.0151C263.839 28.4107 262.961 28.1084 262.028 28.1084C261.163 28.1084 260.307 28.3865 259.466 28.9425C258.623 29.4745 258.008 30.1395 257.621 30.9375C257.121 32.0255 256.869 33.9235 256.869 36.6317V53.279H245.666V19.6215ZM340.923 38.6264H317.353C317.421 43.6798 319.7 46.2066 324.186 46.2066C325.529 46.2066 326.6 45.9769 327.397 45.5174C328.215 45.0339 328.98 44.1997 329.685 43.015H340.479C339.772 45.5295 338.828 47.5243 337.644 48.9993C336.142 50.8611 334.239 52.2514 331.939 53.1702C329.457 54.1373 326.85 54.621 324.118 54.621C317.81 54.621 313.004 52.5173 309.702 48.3101C307.243 45.1668 306.013 41.3224 306.013 36.7767C306.013 33.1255 306.811 29.801 308.404 26.8027C311.297 21.3865 316.386 18.6785 323.674 18.6785C328.682 18.6785 332.668 20.093 335.629 22.9219C337.518 24.7354 338.873 26.8752 339.694 29.3416C340.514 31.7837 340.923 34.8785 340.923 38.6264ZM330.505 31.7352C330.118 30.0669 329.344 28.7613 328.182 27.8183C327.044 26.851 325.643 26.3675 323.98 26.3675C322.273 26.3675 320.861 26.8389 319.746 27.7819C318.652 28.7249 317.956 30.0428 317.661 31.7352H330.505ZM357.616 34.9994L344.739 19.6215H359.325L364.79 26.5489L370.357 19.6215H384.908L371.791 34.9994L387.675 53.279H372.851L364.687 43.2688L356.556 53.279H341.766L357.616 34.9994Z" fill="white"/>
<path d="M13.611 40.0751C9.84578 40.0751 6.36868 40.1031 2.89156 40.0512C2.20876 40.0512 1.33653 39.9198 0.91817 39.4895C0.706419 39.2162 0.556134 38.8997 0.477756 38.5618C0.399377 38.224 0.394782 37.873 0.46429 37.5332C0.586641 37.0431 1.29311 36.553 1.84171 36.3618C2.39032 36.1705 3.14021 36.2781 3.81511 36.2781C15.5883 36.2781 27.3655 36.2781 39.1428 36.2263C39.5533 36.195 39.9517 36.0713 40.3088 35.8645C40.6659 35.6578 40.9728 35.373 41.2069 35.031C41.491 34.4971 41.1831 33.3855 40.7569 32.8197C40.4413 32.3974 39.5176 32.3018 38.8626 32.2977C31.2728 32.2619 23.703 32.2619 16.1409 32.2619C14.8977 32.2619 13.6623 32.2021 13.5716 30.5248C13.4847 29.0187 14.2938 28.3653 15.7462 28.3693C18.8366 28.3693 21.9268 28.3693 25.0211 28.3693C26.3157 28.3693 27.5274 28.2578 27.4523 26.5684C27.3814 25.0663 26.3749 24.373 24.95 24.3651C20.739 24.3651 16.5278 24.3651 12.3204 24.3651C9.09589 24.3651 5.87138 24.3372 2.64687 24.3651C1.3681 24.3651 0.357728 24.0941 0.326154 22.616C0.290632 21.0702 1.24576 20.6239 2.66265 20.6477C12.5967 20.7075 22.5188 20.7075 32.4647 20.6159C33.3094 20.6159 34.5605 20.0023 34.9078 19.309C35.5787 17.9583 34.6237 17.046 32.7332 17.042C26.6828 17.042 20.6284 17.042 14.578 17.042C13.986 17.042 13.3939 17.0102 12.8019 17.042C11.2548 17.1177 10.3904 16.3089 10.4339 14.8307C10.4773 13.3525 11.3495 12.699 12.9164 12.7389C17.0604 12.8266 21.2046 12.711 25.3488 12.8027C26.5998 12.8306 27.2708 12.4042 27.7602 11.2926C28.6916 9.1889 29.6902 7.11308 30.7085 5.0453C31.4622 3.51935 33.1633 3.01333 34.7578 4.06512C38.1678 6.31618 41.4674 8.72673 44.834 11.0535C46.4402 12.1692 48.0624 13.2528 49.6845 14.3406C54.3379 17.4564 58.999 20.5521 63.6403 23.6837C64.9705 24.5803 65.4637 26.6799 64.6704 28.3176C61.4302 35.0151 58.1425 41.6927 54.8667 48.3784C52.8696 52.4531 50.8685 56.529 48.8636 60.6062C48.4661 61.4368 48.0275 62.2465 47.5493 63.0326C46.5468 64.6263 45.0471 64.8016 43.5592 63.7338C40.0742 61.2397 36.5418 58.8132 33.0173 56.3789C28.1075 52.9816 23.1912 49.591 18.2682 46.207C17.4551 45.6491 16.579 45.183 15.7264 44.689C14.0807 43.7526 13.3663 42.3063 13.611 40.0751Z" fill="#E03C31"/>
<path d="M79.4043 27.9864C81.8355 27.9864 84.2708 27.9864 86.7019 27.9864C88.7859 27.9864 89.07 28.5044 88.1109 30.5364C86.6585 33.5684 85.1311 36.5607 83.659 39.5768C80.1568 46.7485 76.664 53.9121 73.1803 61.068C72.2844 62.9008 71.4911 64.8012 70.4176 66.5146C69.9596 67.2397 68.8901 67.9847 68.077 68.0047C62.7569 68.14 57.4208 68.0844 52.1046 68.0802C50.2139 68.0802 50.7191 66.8054 51.1257 65.8811C52.0769 63.7136 53.182 61.6099 54.2319 59.4823C57.6918 52.454 61.1544 45.4231 64.6197 38.3893C66.0721 35.433 67.3825 32.413 69.0006 29.5403C69.4466 28.7434 70.761 28.13 71.7239 28.0501C74.2657 27.8509 76.8389 27.9864 79.4043 27.9864Z" fill="#E03C31"/>
<path d="M85.9204 22.736C80.6042 22.736 75.8403 23.0707 71.1595 22.5846C69.0243 22.3655 66.9916 20.6283 65.0222 19.3972C63.2186 18.2697 61.6004 16.8432 59.8283 15.652C54.8712 12.3132 49.8548 9.054 44.9015 5.6912C42.8453 4.30075 40.8878 2.77069 38.8828 1.30851L39.0722 0.790551C42.2297 0.790551 45.4265 0.766654 48.6037 0.790551C50.5021 0.810473 52.5505 0.475801 54.2554 1.10132C56.588 1.96194 58.6916 3.49186 60.815 4.89036C62.6542 6.0857 64.3395 7.52 66.1628 8.74326C72.3673 12.9227 78.6031 17.0505 84.8114 21.222C85.1746 21.5048 85.3759 21.991 85.9204 22.736Z" fill="white"/>
</svg>
