<svg width="264" height="89" viewBox="0 0 264 89" fill="none" xmlns="http://www.w3.org/2000/svg">
<rect width="14.1203" height="12.9794" transform="matrix(0.640588 -0.767885 0.750113 0.66131 32.0647 46.0039)" fill="white"/>
<path d="M33.1461 62.2598C33.2648 62.2962 33.4232 62.2962 33.4984 62.3773C34.8602 63.8244 36.2101 65.2836 37.7461 66.9333C37.7461 67.14 37.7461 67.6548 37.8134 68.1493C37.8866 68.8302 38.1567 69.4733 38.589 69.9961C39.0214 70.5189 39.5962 70.8977 40.24 71.084C40.9135 71.2862 41.6315 71.2714 42.2964 71.0415C42.9614 70.8116 43.5412 70.3779 43.9572 69.799C44.387 69.2294 44.6279 68.5342 44.645 67.8146C44.6621 67.0951 44.4544 66.3887 44.0522 65.7984C43.7959 65.4277 43.5056 65.0829 43.1853 64.7688C38.8466 60.3263 34.5026 55.8825 30.1533 51.4373C29.896 51.1738 29.5912 50.9549 29.2785 50.6874C28.5416 51.2293 27.8693 51.8578 27.2754 52.56C26.3511 53.545 25.2609 54.351 24.057 54.9394C20.3635 56.6621 16.8522 56.2527 13.7327 53.6423C10.6885 51.0724 9.52072 47.6798 10.4193 43.7196C11.3377 39.6662 13.903 37.1491 17.8023 36.1925C20.111 35.6078 22.5513 35.9653 24.6072 37.1896C24.8847 37.376 25.1493 37.5819 25.399 37.8057C24.0332 39.4636 22.5131 40.8336 21.084 42.3577C20.5256 42.3583 19.9677 42.3935 19.4134 42.4631C18.6225 42.5861 17.8993 42.9909 17.3714 43.6064C16.8434 44.2219 16.5446 45.0084 16.5276 45.8274C16.4772 46.4808 16.6197 47.1347 16.9366 47.7043C17.2536 48.2738 17.7303 48.7327 18.305 49.0214C18.8615 49.3436 19.4969 49.4947 20.1351 49.4566C20.7733 49.4185 21.3873 49.1928 21.9034 48.8066C22.2604 48.5379 22.5906 48.2338 22.8892 47.8987C27.1936 43.4994 31.494 39.0974 35.7905 34.6927C36.0517 34.4252 36.2774 34.1253 36.5822 33.7524C36.2695 33.347 36.0122 33.0187 35.7192 32.6985C35.0265 31.9446 34.2664 31.2474 33.629 30.4448C32.4945 29.024 31.7641 27.3107 31.5179 25.4929C31.2718 23.675 31.5193 21.8229 32.2334 20.1396C32.9475 18.4563 34.1006 17.0069 35.5662 15.9505C37.0318 14.894 38.7533 14.2713 40.5417 14.1505C42.3302 14.0298 44.1166 14.4158 45.705 15.2662C47.2933 16.1165 48.6222 17.3984 49.546 18.9711C50.4697 20.5438 50.9525 22.3467 50.9415 24.1819C50.9305 26.0171 50.4261 27.8137 49.4835 29.3747C49.3725 29.5012 49.2477 29.614 49.1114 29.7112C48.8066 29.4517 48.4582 29.2045 48.1613 28.9005C47.2113 27.9479 46.2889 26.967 45.3348 26.0185C45.0905 25.8158 44.898 25.5553 44.7738 25.2594C44.6497 24.9635 44.5977 24.6412 44.6223 24.3202C44.645 23.8032 44.5529 23.2876 44.3531 22.8123C44.1779 22.3568 43.9108 21.9443 43.5694 21.6016C43.2279 21.2589 42.8198 20.9939 42.3715 20.8236C41.9232 20.6534 41.4449 20.5819 40.9678 20.6138C40.4907 20.6456 40.0256 20.7802 39.6027 21.0086C39.1828 21.2372 38.8134 21.5517 38.5173 21.9327C38.2213 22.3137 38.0049 22.7529 37.8816 23.2232C37.7583 23.6934 37.7308 24.1846 37.8008 24.6662C37.8708 25.1478 38.0368 25.6095 38.2884 26.0226C38.5006 26.3446 38.7462 26.6422 39.0208 26.9103C43.5072 31.5041 47.9845 36.0898 52.4525 40.6674C52.6583 40.8522 52.8737 41.0254 53.0978 41.1863C53.9489 40.6593 54.5427 39.8973 55.188 39.2123C57.294 36.987 59.8988 36.0223 62.8678 35.9371C64.4638 35.877 66.0384 36.3275 67.3728 37.2261C70.8525 39.5609 72.6022 42.8319 72.1232 47.1204C71.6798 51.0724 69.5144 53.8166 65.916 55.2596C62.8243 56.4756 59.8473 56.0703 57.0367 54.2179C57.1095 54.01 57.208 53.8125 57.3296 53.6301C58.6479 52.2317 59.978 50.8455 61.3556 49.4025C61.8619 49.433 62.3695 49.433 62.8757 49.4025C63.5745 49.3261 64.2329 49.0299 64.7606 48.5547C65.2883 48.0795 65.6592 47.4486 65.8223 46.7488C65.9855 46.0489 65.9329 45.3145 65.6718 44.6465C65.4107 43.9785 64.9539 43.4097 64.3642 43.0184C63.7872 42.6069 63.0974 42.3938 62.3944 42.4098C61.6914 42.4258 61.0116 42.6702 60.453 43.1076C60.1513 43.344 59.8681 43.6042 59.6059 43.8858C55.2328 48.3769 50.8466 52.8708 46.4472 57.3673C46.2335 57.5862 46.0514 57.8456 45.8099 58.1456C46.4433 59.1103 47.2825 59.8075 48.0307 60.5776C49.3902 61.963 50.3104 63.7357 50.6711 65.6646C51.1748 67.9471 50.8761 70.3384 49.8276 72.4177C48.779 74.497 47.0478 76.1309 44.9387 77.0321C42.8295 77.9332 40.4775 78.0437 38.2966 77.3443C36.1157 76.6448 34.2456 75.1801 33.0154 73.2079C30.6521 69.564 31.1113 64.7242 33.1461 62.2598ZM41.1703 38.507C39.5275 39.8081 34.6385 44.8951 33.9497 46.0219C35.2758 47.6433 40.0579 52.4749 41.2257 53.3829C42.1481 52.7222 42.8607 51.8102 43.6722 51.0076C44.4837 50.205 45.3823 49.289 46.2176 48.4053C46.9856 47.5947 47.8684 46.865 48.4899 45.9449C47.1083 44.2628 42.3579 39.423 41.1703 38.507Z" fill="#FFC001"/>
<path d="M86.1525 50.0625C86.2792 44.5215 89.4343 39.7304 95.3208 36.8242C98.8282 35.0934 102.593 34.688 106.445 35.065C108.47 35.2163 110.458 35.7036 112.331 36.508C116.84 38.5347 120.197 41.745 121.519 46.7306C123.895 55.6035 119.762 63.8521 111.057 66.7827C106.563 68.2843 101.719 68.2843 97.2249 66.7827C95.1645 66.1188 93.2546 65.0397 91.6076 63.6089C87.8825 60.3946 86.1208 56.2561 86.1525 50.0625ZM110.946 51.3231C110.963 50.3981 110.799 49.4789 110.462 48.6203C110.125 47.7618 109.623 46.9814 108.985 46.3259C108.348 45.6703 107.588 45.153 106.751 44.8047C105.914 44.4564 105.017 44.2843 104.113 44.2986C102.319 44.3112 100.601 45.0445 99.3288 46.3407C98.0569 47.637 97.3327 49.3926 97.312 51.2299C97.3044 53.0954 98.0131 54.8892 99.2854 56.2245C100.558 57.5598 102.291 58.3296 104.113 58.3679C107.894 58.4003 111.116 55.036 110.946 51.3231Z" fill="white"/>
<path d="M221.686 66.714H208.226C207.977 66.0776 208.468 65.8384 208.741 65.5344C212.758 61.0352 216.782 56.5441 220.815 52.061C221.326 51.4895 221.832 50.9139 222.284 50.4032C222.343 49.5925 221.801 49.2682 221.444 48.8507C218.285 45.1973 215.126 41.5601 211.967 37.9391C211.571 37.4648 211.176 36.9662 210.807 36.5163C210.997 35.9975 211.358 36.111 211.647 36.111C215.447 36.111 219.243 36.111 223.044 36.0867C223.419 36.068 223.793 36.1467 224.13 36.3153C224.468 36.484 224.759 36.7371 224.975 37.0514C226.084 38.4701 227.24 39.8441 228.388 41.2304C228.665 41.5668 228.974 41.8749 229.338 42.264C231.254 40.3468 232.766 38.1823 234.544 36.2934C236 36.0542 245.925 36.0218 247.853 36.2569C247.948 36.8649 247.457 37.1568 247.148 37.5094C243.878 41.2142 240.602 44.9122 237.319 48.6035C236.923 49.0777 236.527 49.5804 236.072 50.1316C237.22 51.6395 238.49 52.896 239.67 54.2336C240.85 55.5712 242.16 56.998 243.403 58.3802C244.646 59.7624 245.822 61.0393 247.005 62.389C248.189 63.7388 249.48 64.9548 250.493 66.3897C250.459 66.4814 250.413 66.5685 250.358 66.6491C250.32 66.6945 250.266 66.7235 250.208 66.7302H236.982C234.401 63.8928 232.05 60.7717 229.338 57.8128C227.818 59.1828 226.686 60.8082 225.379 62.2715C224.073 63.7347 222.921 65.2183 221.686 66.714Z" fill="white"/>
<path d="M174.182 66.7797H167.207C162.227 56.911 157.26 47.0667 152.306 37.2468C152.194 36.9973 152.097 36.7415 152.013 36.4807C152.116 36.3064 152.136 36.2375 152.179 36.205C152.235 36.1735 152.298 36.1555 152.362 36.1523C155.843 36.1523 159.321 36.1402 162.797 36.1159C163.077 36.135 163.355 36.1688 163.632 36.2172C166.035 41.2353 168.22 46.3871 170.706 51.5917C171.826 49.8325 172.456 48.0652 173.259 46.3912C174.063 44.7171 174.843 43.0026 175.635 41.3082C176.426 39.6139 177.218 37.9358 177.97 36.3226C179.554 36.0551 187.606 36.0267 189.423 36.2577C189.712 36.8333 189.292 37.2508 189.074 37.6845C186.784 42.2297 184.478 46.7668 182.158 51.2958C179.818 55.8896 177.478 60.4834 175.14 65.0772C174.839 65.6285 174.518 66.1798 174.182 66.7797Z" fill="white"/>
<path d="M138.664 36.2851V40.1521C139.151 40.5047 139.329 40.1926 139.531 39.9575C139.733 39.7224 139.927 39.4589 140.141 39.2117C141.713 37.308 143.931 36.0842 146.348 35.7866C147.69 35.5672 149.059 35.5768 150.398 35.8149C150.514 36.1673 150.592 36.5315 150.631 36.9013C150.651 39.5603 150.631 42.2152 150.631 44.8742C150.618 45.1178 150.589 45.3602 150.544 45.5998C150.061 46.0051 149.669 45.6768 149.27 45.5349C147.578 44.9572 145.763 44.8758 144.028 45.2998C141.21 45.8835 139.606 47.6994 139.048 50.4963C138.826 51.7072 138.715 52.9366 138.716 54.1686C138.676 57.6667 138.716 61.1688 138.696 64.6709C138.696 65.3033 138.641 65.9356 138.613 66.5274C137.101 66.8314 130.826 66.8962 128.443 66.6571C127.968 66.045 128.162 65.3073 128.158 64.6304C128.158 58.8584 128.158 53.0864 128.158 47.3144C128.158 44.2662 128.158 41.2343 128.158 38.17C128.158 37.5376 128.023 36.8688 128.396 36.2811C129.892 36.0379 136.626 36.0257 138.664 36.2851Z" fill="white"/>
<path d="M203.927 66.621C201.797 66.852 195.119 66.8237 193.611 66.5967C193.239 65.9724 193.401 65.2428 193.397 64.57C193.397 58.0305 193.397 51.4951 193.397 44.9638V36.4801C193.674 36.3301 193.837 36.168 193.999 36.168C197.213 36.168 200.432 36.168 203.745 36.168C203.859 36.5307 203.937 36.9041 203.979 37.2826C204.002 39.3499 203.979 41.4211 203.979 43.4924C203.979 50.4804 203.979 57.4685 203.979 64.4565C203.983 65.1293 203.947 65.8265 203.927 66.621Z" fill="white"/>
<path d="M198.618 30.4404C197.444 30.4185 196.302 30.0402 195.337 29.3534C194.372 28.6666 193.628 27.7021 193.199 26.5821C192.77 25.4622 192.675 24.237 192.926 23.0617C193.177 21.8863 193.763 20.8138 194.61 19.9797C195.457 19.1455 196.526 18.5874 197.683 18.3759C198.839 18.1644 200.031 18.3091 201.108 18.7916C202.184 19.274 203.097 20.0726 203.73 21.0863C204.362 22.1 204.687 23.2831 204.663 24.486C204.631 26.0957 203.977 27.6267 202.843 28.743C201.71 29.8593 200.191 30.4697 198.618 30.4404Z" fill="white"/>
</svg>
