<svg xmlns="http://www.w3.org/2000/svg" width="186" height="62" viewBox="0 0 186 62" fill="none">
  <rect width="9.78985" height="9.03669" transform="matrix(0.650963 -0.75911 0.759067 0.651012 22.5913 31.5684)" fill="#0D349A"/>
  <path d="M23.3527 42.7093C23.4364 42.7343 23.548 42.7343 23.601 42.7898C24.5604 43.7816 25.5115 44.7818 26.5936 45.9125C26.5936 46.0542 26.5936 46.407 26.641 46.7459C26.6927 47.2126 26.883 47.6533 27.1875 48.0117C27.4921 48.37 27.8971 48.6296 28.3507 48.7573C28.8252 48.8959 29.3311 48.8857 29.7996 48.7282C30.2681 48.5707 30.6766 48.2734 30.9697 47.8766C31.2724 47.4862 31.4422 47.0097 31.4542 46.5165C31.4663 46.0234 31.32 45.5392 31.0366 45.1346C30.856 44.8805 30.6515 44.6443 30.4258 44.4289C27.369 41.3841 24.3084 38.3383 21.2442 35.2916C21.0629 35.111 20.8481 34.961 20.6278 34.7776C20.1086 35.1491 19.635 35.5798 19.2165 36.0611C18.5654 36.7362 17.7972 37.2887 16.949 37.6919C14.3468 38.8726 11.8729 38.592 9.67515 36.8029C7.53036 35.0416 6.70758 32.7162 7.3407 30.002C7.98776 27.2238 9.79508 25.4986 12.5423 24.8429C14.1689 24.4422 15.8882 24.6872 17.3367 25.5264C17.5322 25.6541 17.7186 25.7952 17.8945 25.9486C16.9323 27.0849 15.8613 28.0239 14.8544 29.0685C14.461 29.0689 14.068 29.0931 13.6775 29.1408C13.1202 29.225 12.6107 29.5026 12.2387 29.9244C11.8668 30.3462 11.6562 30.8853 11.6442 31.4466C11.6087 31.8945 11.7091 32.3427 11.9324 32.733C12.1557 33.1234 12.4916 33.4379 12.8965 33.6358C13.2886 33.8566 13.7363 33.9602 14.1859 33.934C14.6356 33.9079 15.0681 33.7533 15.4318 33.4886C15.6833 33.3044 15.9159 33.096 16.1263 32.8663C19.1589 29.851 22.1888 26.834 25.2158 23.815C25.3999 23.6317 25.5589 23.4261 25.7736 23.1705C25.5533 22.8927 25.372 22.6676 25.1656 22.4482C24.6775 21.9314 24.142 21.4536 23.693 20.9035C22.8937 19.9297 22.3791 18.7554 22.2056 17.5095C22.0322 16.2636 22.2066 14.9941 22.7097 13.8404C23.2128 12.6867 24.0252 11.6933 25.0578 10.9692C26.0904 10.2451 27.3032 9.81827 28.5633 9.73554C29.8234 9.6528 31.082 9.91735 32.201 10.5002C33.3201 11.083 34.2564 11.9616 34.9072 13.0395C35.558 14.1175 35.8982 15.3531 35.8904 16.6109C35.8827 17.8688 35.5273 19.1002 34.8632 20.1701C34.785 20.2567 34.697 20.3341 34.601 20.4007C34.3863 20.2229 34.1408 20.0534 33.9317 19.845C33.2623 19.1922 32.6124 18.5199 31.9403 17.8698C31.7681 17.7308 31.6325 17.5522 31.545 17.3495C31.4576 17.1467 31.4209 16.9258 31.4382 16.7057C31.4542 16.3514 31.3894 15.998 31.2486 15.6722C31.1251 15.3601 30.937 15.0773 30.6964 14.8424C30.4559 14.6076 30.1683 14.4259 29.8524 14.3092C29.5366 14.1926 29.1996 14.1436 28.8635 14.1654C28.5274 14.1872 28.1996 14.2794 27.9017 14.436C27.6059 14.5926 27.3456 14.8082 27.137 15.0694C26.9284 15.3305 26.776 15.6316 26.6891 15.9539C26.6023 16.2762 26.5829 16.6128 26.6322 16.9429C26.6815 17.2729 26.7984 17.5894 26.9757 17.8725C27.1253 18.0932 27.2983 18.2972 27.4917 18.481C30.6526 21.6295 33.8071 24.7726 36.955 27.91C37.1 28.0367 37.2517 28.1554 37.4096 28.2656C38.0093 27.9045 38.4276 27.3822 38.8822 26.9127C40.366 25.3875 42.2012 24.7263 44.293 24.6679C45.4175 24.6267 46.5269 24.9355 47.467 25.5514C49.9186 27.1516 51.1513 29.3936 50.8139 32.3329C50.5015 35.0416 48.9759 36.9224 46.4406 37.9114C44.2623 38.7448 42.165 38.467 40.1847 37.1974C40.2361 37.0549 40.3054 36.9196 40.3911 36.7946C41.3199 35.8361 42.257 34.886 43.2276 33.897C43.5843 33.9179 43.9419 33.9179 44.2986 33.897C44.7909 33.8446 45.2548 33.6416 45.6266 33.3159C45.9983 32.9902 46.2597 32.5578 46.3746 32.0781C46.4896 31.5985 46.4525 31.0951 46.2686 30.6372C46.0846 30.1794 45.7628 29.7896 45.3473 29.5214C44.9408 29.2393 44.4548 29.0933 43.9595 29.1042C43.4642 29.1152 42.9852 29.2827 42.5917 29.5825C42.3791 29.7446 42.1796 29.9229 41.9948 30.1159C38.9139 33.1941 35.8236 36.2741 32.724 39.356C32.5734 39.5061 32.4451 39.6839 32.2749 39.8894C32.7212 40.5506 33.3125 41.0285 33.8396 41.5563C34.7975 42.5058 35.4458 43.7209 35.6999 45.0429C36.0548 46.6074 35.8443 48.2463 35.1056 49.6715C34.3668 51.0966 33.1472 52.2165 31.6612 52.8341C30.1752 53.4517 28.5181 53.5275 26.9815 53.0481C25.445 52.5687 24.1274 51.5648 23.2607 50.2131C21.5956 47.7155 21.9191 44.3984 23.3527 42.7093ZM29.0062 26.4293C27.8487 27.3211 24.4042 30.8076 23.9189 31.58C24.8532 32.6912 28.2224 36.0028 29.0452 36.6251C29.6951 36.1723 30.1971 35.5472 30.7689 34.9971C31.3406 34.447 31.9737 33.8192 32.5622 33.2135C33.1033 32.6579 33.7253 32.1578 34.1631 31.5272C33.1898 30.3743 29.8429 27.0571 29.0062 26.4293Z" fill="#FFC001"/>
  <path d="M60.6985 34.3503C60.7878 30.5526 63.0107 27.2688 67.158 25.2769C69.6291 24.0906 72.2815 23.8128 74.9953 24.0712C76.4224 24.1748 77.8231 24.5089 79.1426 25.0602C82.3194 26.4493 84.6845 28.6496 85.616 32.0667C87.2895 38.1481 84.3777 43.8016 78.2446 45.8102C75.0784 46.8395 71.6657 46.8395 68.4996 45.8102C67.0479 45.3552 65.7023 44.6156 64.5419 43.6349C61.9174 41.4319 60.6762 38.5954 60.6985 34.3503ZM78.1665 35.2143C78.1789 34.5803 78.063 33.9503 77.8257 33.3619C77.5885 32.7734 77.2347 32.2386 76.7854 31.7893C76.3362 31.34 75.8007 30.9854 75.2109 30.7467C74.6211 30.5079 73.9891 30.39 73.3525 30.3998C72.0882 30.4084 70.8779 30.911 69.9818 31.7995C69.0857 32.6879 68.5755 33.8912 68.5609 35.1504C68.5555 36.429 69.0549 37.6585 69.9512 38.5737C70.8476 39.4889 72.0692 40.0165 73.3525 40.0428C76.0161 40.065 78.2864 37.7591 78.1665 35.2143Z" fill="#0D349A"/>
  <path d="M156.188 45.7631H146.705C146.529 45.327 146.875 45.163 147.068 44.9547C149.898 41.8709 152.733 38.7927 155.574 35.7201C155.934 35.3284 156.291 34.9339 156.609 34.5838C156.651 34.0282 156.269 33.8059 156.018 33.5198C153.792 31.0157 151.566 28.5228 149.341 26.041C149.062 25.7159 148.783 25.3742 148.524 25.0659C148.657 24.7102 148.911 24.788 149.115 24.788C151.792 24.788 154.467 24.788 157.145 24.7714C157.409 24.7586 157.672 24.8125 157.91 24.9281C158.148 25.0437 158.353 25.2172 158.506 25.4326C159.287 26.4049 160.101 27.3467 160.91 28.2968C161.105 28.5274 161.323 28.7386 161.579 29.0053C162.929 27.6912 163.994 26.2077 165.247 24.9131C166.273 24.7491 173.265 24.7269 174.624 24.888C174.691 25.3048 174.345 25.5048 174.127 25.7465C171.823 28.2857 169.515 30.8203 167.202 33.3503C166.923 33.6754 166.644 34.0199 166.323 34.3977C167.132 35.4312 168.027 36.2924 168.859 37.2092C169.69 38.126 170.613 39.1039 171.489 40.0512C172.364 40.9986 173.193 41.8737 174.027 42.7988C174.861 43.724 175.77 44.5574 176.484 45.5409C176.46 45.6037 176.428 45.6634 176.389 45.7187C176.362 45.7498 176.324 45.7696 176.283 45.7742H166.965C165.146 43.8295 163.49 41.6903 161.579 39.6623C160.508 40.6013 159.71 41.7153 158.79 42.7183C157.87 43.7212 157.058 44.738 156.188 45.7631Z" fill="#0D349A"/>
  <path d="M122.719 45.8078H117.805C114.296 39.0439 110.797 32.2967 107.306 25.5662C107.228 25.3952 107.159 25.2199 107.1 25.0411C107.173 24.9216 107.187 24.8744 107.217 24.8522C107.257 24.8306 107.301 24.8182 107.346 24.8161C109.798 24.8161 112.249 24.8077 114.698 24.7911C114.895 24.8041 115.091 24.8273 115.286 24.8605C116.979 28.2999 118.519 31.8309 120.27 35.3981C121.059 34.1923 121.503 32.9811 122.069 31.8337C122.635 30.6863 123.185 29.5111 123.742 28.3499C124.3 27.1886 124.858 26.0384 125.388 24.9327C126.504 24.7494 132.177 24.7299 133.457 24.8883C133.66 25.2828 133.365 25.5689 133.211 25.8662C131.597 28.9814 129.973 32.0911 128.339 35.1953C126.69 38.3438 125.041 41.4924 123.394 44.641C123.182 45.0188 122.956 45.3966 122.719 45.8078Z" fill="#0D349A"/>
  <path d="M97.6955 24.9068V27.5572C98.0386 27.7989 98.1641 27.585 98.3064 27.4238C98.4486 27.2627 98.5853 27.0821 98.7359 26.9126C99.8435 25.6078 101.406 24.7691 103.109 24.5651C104.055 24.4148 105.019 24.4213 105.962 24.5845C106.044 24.826 106.099 25.0757 106.127 25.3291C106.141 27.1516 106.127 28.9713 106.127 30.7937C106.118 30.9607 106.097 31.1268 106.066 31.291C105.725 31.5688 105.449 31.3438 105.167 31.2466C103.976 30.8506 102.697 30.7948 101.475 31.0854C99.4889 31.4855 98.3593 32.7301 97.9661 34.647C97.8098 35.477 97.7314 36.3196 97.7318 37.164C97.7039 39.5616 97.7318 41.9619 97.7179 44.3622C97.7179 44.7956 97.6788 45.229 97.6593 45.6346C96.5939 45.843 92.1732 45.8874 90.4942 45.7235C90.1595 45.304 90.2962 44.7984 90.2934 44.3345C90.2934 40.3784 90.2934 36.4223 90.2934 32.4662C90.2934 30.377 90.2934 28.2989 90.2934 26.1987C90.2934 25.7653 90.1985 25.3069 90.4607 24.904C91.515 24.7373 96.2592 24.729 97.6955 24.9068Z" fill="#0D349A"/>
  <path d="M143.676 45.6985C142.175 45.8568 137.47 45.8374 136.407 45.6818C136.145 45.254 136.26 44.7539 136.257 44.2927C136.257 39.8106 136.257 35.3313 136.257 30.8548V25.0401C136.452 24.9373 136.566 24.8262 136.681 24.8262C138.945 24.8262 141.213 24.8262 143.547 24.8262C143.628 25.0748 143.683 25.3307 143.712 25.5902C143.729 27.007 143.712 28.4267 143.712 29.8463C143.712 34.6358 143.712 39.4254 143.712 44.2149C143.715 44.6761 143.69 45.1539 143.676 45.6985Z" fill="#0D349A"/>
  <path d="M139.936 20.9002C139.108 20.8852 138.303 20.6259 137.623 20.1552C136.944 19.6844 136.42 19.0234 136.117 18.2558C135.815 17.4881 135.748 16.6484 135.925 15.8429C136.102 15.0373 136.515 14.3022 137.111 13.7305C137.708 13.1588 138.461 12.7763 139.276 12.6313C140.091 12.4863 140.931 12.5855 141.689 12.9162C142.448 13.2468 143.091 13.7942 143.537 14.489C143.982 15.1837 144.211 15.9946 144.194 16.8191C144.172 17.9224 143.711 18.9717 142.912 19.7368C142.114 20.5019 141.043 20.9203 139.936 20.9002Z" fill="#0D349A"/>
</svg>