<svg width="244" height="56" viewBox="0 0 244 56" fill="none" xmlns="http://www.w3.org/2000/svg">
<ellipse cx="27.7027" cy="28.2542" rx="11.7205" ry="11.9534" fill="white"/>
<path d="M37.9911 24.8206C32.2076 26.3015 25.4726 24.1428 21.6328 18.7264C27.3339 14.669 35.7272 17.3443 37.9911 24.8206Z" fill="#50BCFF"/>
<path d="M27.5939 45.4329C24.3255 45.4375 21.129 44.4367 18.4083 42.5569C15.6876 40.6773 13.5646 38.0029 12.3077 34.8718C11.0507 31.7408 10.716 28.2933 11.3459 24.9649C11.9758 21.6366 13.5421 18.5765 15.8468 16.1713C18.1514 13.7662 21.0914 12.1239 24.2951 11.4517C27.4987 10.7795 30.8224 11.1077 33.8465 12.3947C36.8705 13.6819 39.4592 15.8701 41.2856 18.6831C43.1119 21.4962 44.094 24.8077 44.1078 28.1997C44.1136 32.7556 42.3786 37.1281 39.283 40.3585C36.1875 43.589 31.9839 45.4138 27.5939 45.4329ZM17.8213 23.0597C15.6208 27.196 16.2993 32.4217 19.4575 35.9986C21.0226 37.7418 23.0701 38.9383 25.3177 39.4233C27.5655 39.9083 29.9028 39.658 32.0078 38.7068C35.8128 36.9792 38.1434 32.9186 38.2195 30.6216C30.137 31.9247 23.3608 29.3646 17.8213 23.0597ZM37.9785 24.8203C35.7271 17.3438 27.334 14.6685 21.6264 18.7259C25.4727 24.1423 32.2076 26.301 37.9912 24.8203H37.9785Z" fill="#50BCFF"/>
<path d="M35.382 48.0347C41.4414 44.9678 45.367 40.1208 46.5149 33.2071C47.2315 28.8995 47.2948 24.4934 45.7824 20.3011C43.0205 12.6502 37.7126 8.05979 29.8869 6.99683C19.5023 5.5885 10.123 13.0715 8.48679 23.8517C8.37196 24.7829 8.30633 25.7199 8.29019 26.6585C8.20458 28.554 7.11381 29.663 5.2874 29.6794C4.46932 29.6794 3.65123 29.6794 2.83316 29.6794C1.16212 29.6498 0.0332945 28.4981 0.0174396 26.7737C-0.0058132 24.9178 -0.0058132 23.063 0.0174396 21.2092C0.0428063 19.0736 1.79311 17.7837 3.74319 18.445L3.9493 18.5175C8.35996 7.62869 16.0144 1.18885 27.5563 1.18555C39.0983 1.18226 46.7654 7.60239 51.1475 18.422C51.7023 18.323 52.2655 18.2845 52.828 18.3068C53.4647 18.3985 54.0478 18.7269 54.4689 19.231C54.8899 19.7352 55.1204 20.3808 55.1173 21.048C55.1458 22.8348 55.1173 24.625 55.1173 26.4118C55.1173 28.3862 54.3215 29.3734 52.4411 29.7222C52.3396 30.8443 52.2795 31.9763 52.1241 33.0952C51.2331 39.8409 48.2144 45.3791 43.1505 49.6735C38.8477 53.3708 33.4406 55.4017 27.8544 55.419C25.9519 55.4486 24.823 54.3067 24.8104 52.3455C24.8104 51.4735 24.8104 50.6015 24.8104 49.7328C24.8452 48.1137 25.9139 46.9126 27.4771 46.8665C29.3796 46.8074 31.2821 46.8337 33.1624 46.8665C34.0471 46.8765 34.51 47.166 35.382 48.0347Z" fill="#50BCFF"/>
<path d="M94.6604 18.2711L91.3698 24.7163C89.5317 23.8042 87.763 23.3482 86.0633 23.3482C85.1937 23.3482 84.4821 23.5408 83.9287 23.9259C83.3755 24.2906 83.0987 24.7669 83.0987 25.3546C83.0987 26.1046 83.6125 26.6721 84.6403 27.0572C84.9367 27.1788 85.8755 27.4118 87.4567 27.7564C89.7295 28.2226 91.4588 28.942 92.6445 29.9149C94.5221 31.4148 95.4609 33.482 95.4609 36.1168C95.4609 39.5826 94.117 42.2882 91.429 44.2339C89.1167 45.8958 86.1027 46.7268 82.3872 46.7268C78.6519 46.7268 74.9857 45.6425 71.3887 43.474L74.9165 36.4208C77.7032 38.326 80.2824 39.2784 82.654 39.2784C83.5433 39.2784 84.2746 39.0758 84.8478 38.6705C85.4209 38.2651 85.7075 37.7484 85.7075 37.12C85.7075 36.4107 85.4406 35.8939 84.9071 35.5695C84.3932 35.225 83.2765 34.8703 81.5571 34.5054C79.225 33.9988 77.4857 33.3502 76.3394 32.5597C74.4421 31.2627 73.4935 29.2968 73.4935 26.662C73.4935 23.7231 74.5113 21.3012 76.5471 19.396C78.6618 17.4301 81.7251 16.4471 85.7371 16.4471C88.8203 16.4471 91.7947 17.0551 94.6604 18.2711ZM116.115 16.4166C121.57 16.4166 125.829 18.1192 128.892 21.5241C131.422 24.3211 132.687 27.6652 132.687 31.5566C132.687 36.137 131.027 39.8866 127.706 42.8051C124.742 45.4197 120.829 46.7268 115.967 46.7268C112.884 46.7268 109.998 46.0479 107.31 44.6899C104.8 43.4131 102.834 41.4674 101.411 38.8529C100.186 36.6437 99.5729 34.1305 99.5729 31.3133C99.5729 26.9559 101.233 23.2975 104.553 20.3385C107.419 17.8051 111.273 16.4977 116.115 16.4166ZM116.115 25.0203C114.376 25.0203 112.903 25.6485 111.698 26.9051C110.472 28.182 109.86 29.6818 109.86 31.4045C109.86 33.2488 110.472 34.8094 111.698 36.0864C112.903 37.3429 114.386 37.9713 116.145 37.9713C117.864 37.9713 119.337 37.3429 120.562 36.0864C121.787 34.8094 122.4 33.2793 122.4 31.4957C122.4 29.692 121.797 28.1718 120.592 26.9356C119.386 25.679 117.894 25.0405 116.115 25.0203ZM148.242 0V45.6628H138.518V0H148.242ZM163.174 17.4503L169.756 31.9214L176.368 17.4503H187.248L172.928 45.6628H166.436L152.235 17.4503H163.174ZM200.548 17.4503V45.6628H190.825V17.4503H200.548ZM195.687 1.0032C197.209 1.0032 198.504 1.55048 199.571 2.64489C200.638 3.7393 201.171 5.05676 201.171 6.59697C201.171 8.15757 200.638 9.48515 199.571 10.5796C198.504 11.6741 197.218 12.2213 195.717 12.2213C194.175 12.2213 192.88 11.6741 191.833 10.5796C190.766 9.46491 190.232 8.1171 190.232 6.53626C190.232 5.03637 190.766 3.74942 191.833 2.67524C192.9 1.58083 194.186 1.02343 195.687 1.0032ZM217.913 30.3404L206.737 17.4503H219.394L224.137 23.257L228.97 17.4503H241.599L230.215 30.3404L244 45.6628H231.135L224.049 37.272L216.993 45.6628H204.156L217.913 30.3404Z" fill="white"/>
</svg>
