<svg xmlns="http://www.w3.org/2000/svg" width="164" height="37" viewBox="0 0 164 37" fill="none">
  <circle cx="19.0632" cy="18.8947" r="7.85371" fill="#0D349A"/>
  <path d="M25.957 16.6388C22.0816 17.6117 17.5686 16.1934 14.9956 12.6346C18.8158 9.96885 24.44 11.7266 25.957 16.6388Z" fill="#50BCFF"/>
  <path d="M24.2088 31.8926C28.2692 29.8775 30.8996 26.6929 31.6688 22.1504C32.149 19.3202 32.1914 16.4252 31.178 13.6708C29.3273 8.64393 25.7705 5.6279 20.5267 4.92951C13.5681 4.00419 7.28321 8.92072 6.18685 16.0036C6.1099 16.6154 6.06592 17.2311 6.05511 17.8478C5.99774 19.0932 5.26684 19.8218 4.04299 19.8326C3.49481 19.8326 2.94663 19.8326 2.39845 19.8326C1.27872 19.8132 0.52231 19.0565 0.511686 17.9235C0.496105 16.7041 0.496105 15.4854 0.511686 14.2674C0.528684 12.8643 1.70153 12.0168 3.00824 12.4513L3.14635 12.4989C6.10186 5.34466 11.231 1.1135 18.965 1.11133C26.6991 1.10917 31.8366 5.32738 34.773 12.4362C35.1448 12.3712 35.5222 12.3458 35.8991 12.3605C36.3258 12.4208 36.7165 12.6365 36.9986 12.9677C37.2808 13.299 37.4352 13.7232 37.4331 14.1615C37.4522 15.3355 37.4331 16.5117 37.4331 17.6857C37.4331 18.9829 36.8999 19.6315 35.6399 19.8607C35.5719 20.598 35.5316 21.3418 35.4274 22.0769C34.8304 26.509 32.8076 30.1478 29.4144 32.9693C26.5311 35.3985 22.908 36.7329 19.1647 36.7443C17.8899 36.7637 17.1335 36.0134 17.125 34.7249C17.125 34.152 17.125 33.579 17.125 33.0083C17.1483 31.9445 17.8644 31.1553 18.9119 31.125C20.1867 31.0862 21.4616 31.1034 22.7216 31.125C23.3143 31.1316 23.6245 31.3218 24.2088 31.8926Z" fill="#50BCFF"/>
  <path d="M18.9903 30.1831C16.8001 30.1861 14.6582 29.5285 12.8351 28.2935C11.012 27.0585 9.58948 25.3014 8.74721 23.2442C7.90492 21.1869 7.68066 18.9219 8.10274 16.735C8.52483 14.5482 9.57437 12.5376 11.1187 10.9573C12.663 9.37716 14.633 8.29809 16.7798 7.85643C18.9265 7.41478 21.1536 7.63041 23.18 8.47603C25.2063 9.32173 26.941 10.7594 28.1648 12.6077C29.3886 14.456 30.0467 16.6317 30.0559 18.8603C30.0598 21.8537 28.8972 24.7266 26.8229 26.8491C24.7487 28.9715 21.9319 30.1705 18.9903 30.1831ZM12.4418 15.4833C10.9673 18.2009 11.422 21.6343 13.5382 23.9845C14.5869 25.1298 15.9589 25.9159 17.465 26.2346C18.9712 26.5533 20.5374 26.3888 21.9479 25.7638C24.4976 24.6288 26.0593 21.9608 26.1103 20.4516C20.6943 21.3078 16.1537 19.6257 12.4418 15.4833ZM25.9488 16.64C24.4402 11.7277 18.8161 9.96998 14.9915 12.6358C17.5689 16.1946 22.0818 17.6128 25.9573 16.64H25.9488Z" fill="#50BCFF"/>
  <path d="M63.9304 12.3367L61.7254 16.5713C60.4937 15.972 59.3085 15.6725 58.1696 15.6725C57.5869 15.6725 57.1101 15.799 56.7393 16.052C56.3686 16.2916 56.1831 16.6046 56.1831 16.9908C56.1831 17.4835 56.5274 17.8564 57.2161 18.1094C57.4147 18.1893 58.0438 18.3424 59.1033 18.5688C60.6263 18.8751 61.785 19.3478 62.5796 19.987C63.8377 20.9724 64.4668 22.3307 64.4668 24.0618C64.4668 26.3389 63.5663 28.1166 61.7651 29.395C60.2157 30.4869 58.1961 31.0329 55.7063 31.0329C53.2034 31.0329 50.7467 30.3205 48.3364 28.8957L50.7003 24.2615C52.5677 25.5133 54.2959 26.1391 55.8851 26.1391C56.481 26.1391 56.9711 26.0059 57.3551 25.7396C57.7392 25.4733 57.9312 25.1338 57.9312 24.7209C57.9312 24.2549 57.7524 23.9153 57.3949 23.7022C57.0505 23.4759 56.3022 23.2428 55.1501 23.0031C53.5874 22.6702 52.422 22.244 51.6539 21.7247C50.3825 20.8725 49.7468 19.5808 49.7468 17.8497C49.7468 15.9188 50.4289 14.3275 51.793 13.0758C53.21 11.7841 55.2627 11.1383 57.951 11.1383C60.017 11.1383 62.0101 11.5377 63.9304 12.3367ZM78.3068 11.1182C81.9619 11.1182 84.8158 12.2368 86.8686 14.474C88.5637 16.3117 89.4113 18.5088 89.4113 21.0656C89.4113 24.0751 88.2988 26.5387 86.074 28.4562C84.0875 30.174 81.4653 31.0329 78.2074 31.0329C76.1415 31.0329 74.2079 30.5868 72.4069 29.6946C70.725 28.8557 69.4073 27.5773 68.4538 25.8595C67.6327 24.408 67.2222 22.7567 67.2222 20.9057C67.2222 18.0428 68.3346 15.6392 70.5594 13.695C72.4797 12.0305 75.0622 11.1715 78.3068 11.1182ZM78.3068 16.7711C77.1414 16.7711 76.1547 17.1838 75.3469 18.0095C74.5258 18.8484 74.1153 19.8339 74.1153 20.9657C74.1153 22.1775 74.5258 23.2028 75.3469 24.0418C76.1547 24.8674 77.148 25.2802 78.3266 25.2802C79.4788 25.2802 80.4654 24.8674 81.2865 24.0418C82.1076 23.2028 82.5181 22.1975 82.5181 21.0256C82.5181 19.8405 82.1142 18.8417 81.3064 18.0295C80.4985 17.2039 79.4987 16.7844 78.3068 16.7711ZM99.8343 0.332031V30.3338H93.3188V0.332031H99.8343ZM109.84 11.7974L114.25 21.3053L118.681 11.7974H125.971L116.376 30.3338H112.026L102.51 11.7974H109.84ZM134.884 11.7974V30.3338H128.369V11.7974H134.884ZM131.626 0.991161C132.646 0.991161 133.514 1.35074 134.229 2.0698C134.944 2.78886 135.301 3.65447 135.301 4.66643C135.301 5.69179 134.944 6.56404 134.229 7.2831C133.514 8.00226 132.653 8.36174 131.647 8.36174C130.613 8.36174 129.746 8.00226 129.044 7.2831C128.329 6.55075 127.971 5.6652 127.971 4.62654C127.971 3.64107 128.329 2.79551 129.044 2.08974C129.759 1.37068 130.62 1.00446 131.626 0.991161ZM146.52 20.2666L139.031 11.7974H147.512L150.691 15.6126L153.929 11.7974H162.391L154.763 20.2666L164 30.3338H155.379L150.632 24.8208L145.903 30.3338H137.302L146.52 20.2666Z" fill="#0D349A"/>
</svg>