<svg xmlns="http://www.w3.org/2000/svg" width="214" height="46" viewBox="0 0 214 46" fill="none">
  <path d="M207.229 31.8762C207.229 28.5941 207.245 25.5261 207.219 22.4547C207.189 21.6366 207.117 20.8207 207.003 20.0102C206.843 18.597 205.967 17.5692 204.633 17.7405C203.591 17.8809 202.276 18.5798 201.766 19.4415C201.161 20.4693 201.161 21.9219 201.123 23.1998C201.042 26.0468 201.098 28.899 201.098 31.8813H194.316C194.316 30.6617 194.346 29.3992 194.316 28.1384C194.236 25.3496 194.166 22.5557 193.999 19.7704C193.92 18.4411 193.08 17.6959 191.743 17.5743C190.308 17.4441 189.126 17.8912 188.702 19.3627C188.419 20.4114 188.272 21.4928 188.266 22.5797C188.21 25.634 188.247 28.69 188.247 31.8796H181.516V12.7882H188.086L188.395 14.5748C192.864 11.4229 197.123 11.0906 201.047 15.6951C202.806 13.3791 205.081 12.1389 207.996 12.2862C211.417 12.4575 213.728 14.4069 213.888 17.8467C214.103 22.4718 213.942 27.0969 213.942 31.8762H207.229Z" fill="#0D349A"/>
  <path d="M76.5352 12.654C78.4844 12.654 80.3112 12.5598 82.116 12.7088C82.6666 12.7534 83.1611 13.4643 83.7763 13.9422C88.244 11.0918 92.9072 11.4875 96.2737 15.1927C99.6096 18.8637 99.8238 24.9757 96.7597 28.9739C93.6957 32.972 89.0071 33.6298 83.2393 30.6766V41.6244H76.5352V12.654ZM87.3484 26.7315C87.9253 26.7477 88.4996 26.6481 89.0379 26.4385C89.5762 26.2289 90.0678 25.9134 90.484 25.5105C90.9003 25.1076 91.2329 24.6253 91.4625 24.0916C91.6921 23.5579 91.8141 22.9836 91.8214 22.4019C91.8287 21.8202 91.7212 21.2429 91.5051 20.7035C91.2891 20.1642 90.9687 19.6735 90.5627 19.2601C90.1568 18.8466 89.6733 18.5187 89.1404 18.2954C88.6076 18.0721 88.036 17.9578 87.4589 17.9592C85.0101 17.9387 83.0065 19.8709 82.9776 22.2811C82.9487 24.6913 84.9285 26.6973 87.3484 26.7315Z" fill="#0D349A"/>
  <path d="M47.9596 12.6576C51.0186 12.6576 53.6305 12.5651 56.2323 12.7244C56.8713 12.7638 57.5188 13.5706 58.0609 14.1239C58.761 14.8365 59.3592 15.6502 60.1002 16.5341C61.3747 15.1637 62.5082 13.9338 63.6689 12.7295C63.776 12.6165 64.0598 12.6576 64.2603 12.6576C66.8094 12.6576 69.3585 12.6576 72.3987 12.6576L64.4472 21.5087L74.0268 32.006C70.8761 32.006 68.2097 32.0574 65.5484 31.9597C65.0624 31.9409 64.5288 31.3842 64.1362 30.9576C62.8209 29.505 61.5633 27.9993 60.1087 26.3102C58.688 27.9599 57.4083 29.517 56.0437 30.9902C55.6205 31.4458 54.9731 31.9478 54.4106 31.97C51.8615 32.0745 49.292 32.0163 46.1719 32.0163C49.501 28.3624 52.4936 25.0786 55.7293 21.5241L47.9596 12.6576Z" fill="#0D349A"/>
  <path d="M123.056 23.6142H109.171C109.009 27.0556 112.315 29.4384 114.806 27.5061C117.426 25.4694 120.045 26.5606 122.693 26.1152C121.911 31.6225 116.029 33.2961 111.212 32.6657C104.871 31.8366 101.251 27.083 102.108 20.75C102.922 14.7288 107.886 11.421 114.901 12.2193C120.176 12.8188 123.694 17.6307 123.056 23.6142ZM116.553 19.5252C116.283 17.6598 115.156 16.6303 113.249 16.5052C111.21 16.3716 109.903 17.3617 109.341 19.5235L116.553 19.5252Z" fill="#0D349A"/>
  <path d="M169.9 12.7402H176.438C176.438 17.612 176.634 22.4273 176.353 27.2134C176.219 29.5037 174.404 31.0746 172.217 31.8488C168.385 33.2038 164.491 33.2364 160.661 31.8694C157.733 30.8227 156.22 28.5667 156.161 25.4662C156.081 21.3087 156.14 17.1478 156.14 12.819H162.984C162.984 16.4575 162.972 20.0531 162.984 23.6504C162.984 25.2657 163.421 26.595 165.229 27.0764C167.948 27.7941 169.799 26.5043 169.87 23.599C169.967 20.0514 169.9 16.5071 169.9 12.7402Z" fill="#0D349A"/>
  <path d="M134.109 31.919H127.312V12.7864H133.825C133.905 13.5075 133.985 14.2321 134.08 15.0886C135.217 14.3007 136.198 13.3482 137.369 12.8823C138.568 12.4078 139.955 12.4078 141.457 12.168V18.6311C140.448 18.5335 139.513 18.3536 138.584 18.3673C135.865 18.4102 134.335 19.6452 134.165 22.3775C133.958 25.4832 134.109 28.6094 134.109 31.919Z" fill="#0D349A"/>
  <path d="M151.328 31.9277H144.843V12.8105H151.328V31.9277Z" fill="#0D349A"/>
  <path d="M19.3011 32.4184C15.7068 36.6735 12.5035 40.5226 9.20834 44.3032C8.82767 44.74 8.03235 44.9713 7.41207 45.009C5.79254 45.1049 4.16281 45.0809 2.53989 45.033C0.317068 44.9662 -0.763751 42.9945 0.607666 41.2095C2.79989 38.3574 5.19605 35.6662 7.55652 32.946C7.82163 32.6394 8.37563 32.4458 8.79878 32.4406C12.1007 32.3995 15.4044 32.4184 19.3011 32.4184Z" fill="#0D349A"/>
  <path d="M17.6118 12.6825C21.1177 8.54049 24.2395 4.78215 27.4683 1.10261C27.9425 0.561296 28.8279 0.169016 29.5484 0.102209C31.1692 -0.0228576 32.7967 -0.033161 34.4189 0.0713747C36.5109 0.175868 37.6206 2.16467 36.3528 3.83999C34.1334 6.75211 31.6812 9.49292 29.2901 12.2817C29.0692 12.5386 28.5815 12.6705 28.2161 12.674C24.8445 12.6945 21.4797 12.6825 17.6118 12.6825Z" fill="#0D349A"/>
  <path d="M18.249 16.7459C22.1067 16.7459 25.48 16.6997 28.8499 16.7922C29.4005 16.8076 30.0497 17.3301 30.4575 17.7926C32.2589 19.8276 34.0925 21.8473 35.6883 24.0416C36.278 24.8536 36.662 26.2685 36.368 27.1405C36.1335 27.8257 34.74 28.3019 33.7867 28.4903C29.878 29.2629 26.9653 27.9096 24.6983 24.487C22.9411 21.8524 20.6435 19.581 18.249 16.7459Z" fill="#BE4EFF"/>
  <path d="M18.6161 28.4005C14.6922 28.4005 11.3291 28.4382 7.96765 28.3594C7.45783 28.3474 6.86644 27.8832 6.49937 27.4635C4.66571 25.3668 2.78787 23.2941 1.15645 21.0414C0.573554 20.238 0.223477 18.8008 0.542965 17.9443C0.787679 17.2882 2.21348 16.9165 3.17364 16.7212C7.18593 15.9196 10.1021 17.4167 12.3793 20.8804C14.043 23.4123 16.2471 25.5843 18.6161 28.4005Z" fill="#BE4EFF"/>
  <path d="M148.165 9.01248C147.66 9.03046 147.157 8.94554 146.685 8.7628C146.214 8.58005 145.784 8.30325 145.421 7.94897C145.058 7.59468 144.77 7.17021 144.573 6.70098C144.377 6.23174 144.277 5.7274 144.279 5.21817C144.269 4.70828 144.36 4.20153 144.547 3.72763C144.734 3.25373 145.013 2.82223 145.367 2.45844C145.722 2.09465 146.145 1.8059 146.612 1.60912C147.078 1.41234 147.579 1.3115 148.085 1.31251C149.072 1.32572 150.016 1.71975 150.723 2.41348C151.43 3.10722 151.847 4.04785 151.887 5.04173C151.909 5.55072 151.829 6.059 151.653 6.53643C151.476 7.01385 151.207 7.45069 150.86 7.82102C150.512 8.19136 150.095 8.48765 149.632 8.69231C149.169 8.89698 148.67 9.00586 148.165 9.01248Z" fill="#0D349A"/>
</svg>