<svg width="366" height="84" viewBox="0 0 366 84" fill="none" xmlns="http://www.w3.org/2000/svg">
<g filter="url(#filter0_d_10586_3177)">
<path d="M350.205 53.1778C350.205 47.7025 350.23 42.5844 350.188 37.4606C350.138 36.0959 350.018 34.7347 349.828 33.3827C349.561 31.0251 348.099 29.3105 345.873 29.5962C344.135 29.8306 341.941 30.9965 341.091 32.4339C340.081 34.1485 340.081 36.5718 340.019 38.7037C339.883 43.4531 339.976 48.2112 339.976 53.1864H328.662C328.662 51.1517 328.713 49.0456 328.662 46.9424C328.529 42.29 328.412 37.6292 328.135 32.9826C328.001 30.765 326.601 29.5219 324.37 29.319C321.977 29.1018 320.004 29.8477 319.298 32.3024C318.825 34.052 318.58 35.856 318.569 37.6692C318.476 42.7644 318.538 47.8625 318.538 53.1835H307.309V21.3347H318.269L318.785 24.3152C326.241 19.0571 333.345 18.5027 339.891 26.1841C342.826 22.3206 346.622 20.2516 351.484 20.4974C357.19 20.7831 361.046 24.0352 361.312 29.7734C361.672 37.4891 361.403 45.2049 361.403 53.1778H350.205Z" fill="white"/>
<path d="M132.178 21.1124C135.43 21.1124 138.477 20.9553 141.488 21.2039C142.407 21.2782 143.232 22.4641 144.258 23.2614C151.711 18.5062 159.49 19.1664 165.106 25.3475C170.671 31.4715 171.029 41.6678 165.917 48.3376C160.806 55.0074 152.984 56.1048 143.362 51.1781V69.4416H132.178V21.1124ZM150.217 44.5969C151.179 44.6239 152.137 44.4577 153.035 44.108C153.933 43.7583 154.753 43.2321 155.448 42.56C156.142 41.8878 156.697 41.0832 157.08 40.1929C157.463 39.3026 157.667 38.3444 157.679 37.3741C157.691 36.4037 157.512 35.4407 157.151 34.5408C156.791 33.641 156.256 32.8225 155.579 32.1328C154.902 31.4431 154.095 30.896 153.206 30.5235C152.318 30.1509 151.364 29.9603 150.401 29.9627C146.316 29.9284 142.974 33.1519 142.925 37.1726C142.877 41.1934 146.18 44.5397 150.217 44.5969Z" fill="white"/>
<path d="M84.5078 21.1168C89.6108 21.1168 93.9681 20.9625 98.3085 21.2283C99.3744 21.294 100.455 22.64 101.359 23.563C102.527 24.7518 103.525 26.1092 104.761 27.5838C106.887 25.2976 108.778 23.2458 110.714 21.2368C110.893 21.0482 111.366 21.1168 111.701 21.1168C115.953 21.1168 120.206 21.1168 125.278 21.1168L112.013 35.8825L127.994 53.3943C122.738 53.3943 118.289 53.4801 113.85 53.3172C113.039 53.2857 112.149 52.357 111.494 51.6454C109.3 49.2221 107.202 46.7102 104.775 43.8925C102.405 46.6445 100.27 49.2421 97.9938 51.6997C97.2879 52.4599 96.2078 53.2972 95.2694 53.3343C91.0169 53.5086 86.7304 53.4115 81.5254 53.4115C87.0791 47.316 92.0715 41.8379 97.4693 35.9082L84.5078 21.1168Z" fill="white"/>
<path d="M209.785 39.3951H186.621C186.351 45.1362 191.865 49.1112 196.022 45.8878C200.393 42.49 204.762 44.3103 209.179 43.5673C207.875 52.7548 198.063 55.5467 190.026 54.4951C179.448 53.112 173.41 45.1819 174.839 34.6171C176.197 24.5723 184.478 19.0541 196.18 20.3858C204.98 21.386 210.849 29.4132 209.785 39.3951ZM198.936 32.5738C198.485 29.4618 196.606 27.7443 193.425 27.5357C190.023 27.3128 187.843 28.9646 186.904 32.571L198.936 32.5738Z" fill="white"/>
<path d="M287.932 21.2539H298.838C298.838 29.3812 299.164 37.4141 298.696 45.3985C298.472 49.2192 295.445 51.8397 291.796 53.1313C285.403 55.3918 278.908 55.4461 272.518 53.1656C267.633 51.4196 265.11 47.656 265.011 42.4836C264.878 35.548 264.977 28.6067 264.977 21.3854H276.393C276.393 27.4551 276.374 33.4534 276.393 39.4545C276.393 42.1493 277.122 44.3668 280.138 45.1698C284.674 46.3672 287.762 44.2154 287.881 39.3688C288.042 33.4505 287.932 27.5379 287.932 21.2539Z" fill="white"/>
<path d="M228.224 53.2479H216.884V21.3305H227.751C227.884 22.5335 228.017 23.7423 228.176 25.1712C230.073 23.8566 231.708 22.2678 233.662 21.4905C235.663 20.6989 237.977 20.6989 240.483 20.2988V31.0809C238.799 30.918 237.239 30.6179 235.689 30.6408C231.153 30.7122 228.601 32.7726 228.318 37.3306C227.972 42.5116 228.224 47.7269 228.224 53.2479Z" fill="white"/>
<path d="M256.948 53.2628H246.13V21.3711H256.948V53.2628Z" fill="white"/>
<path d="M36.6985 54.0814C30.7026 61.1799 25.3586 67.6011 19.8616 73.908C19.2265 74.6367 17.8998 75.0225 16.865 75.0854C14.1633 75.2454 11.4445 75.2054 8.7371 75.1254C5.02894 75.0139 3.22589 71.7247 5.51372 68.747C9.17085 63.989 13.1682 59.4996 17.106 54.9616C17.5482 54.4501 18.4724 54.1271 19.1783 54.1186C24.6867 54.05 30.1979 54.0814 36.6985 54.0814Z" fill="white"/>
<path d="M33.8806 21.1573C39.7292 14.2475 44.9371 7.9777 50.3235 1.8394C51.1145 0.936367 52.5915 0.281957 53.7935 0.170507C56.4974 -0.0381316 59.2124 -0.05532 61.9186 0.119069C65.4085 0.293388 67.2597 3.61116 65.1448 6.40597C61.4423 11.264 57.3514 15.8363 53.3626 20.4886C52.9941 20.9173 52.1804 21.1373 51.5709 21.143C45.9463 21.1773 40.333 21.1573 33.8806 21.1573Z" fill="white"/>
<path d="M34.9436 27.9353C41.379 27.9353 47.0065 27.8581 52.6282 28.0125C53.5468 28.0382 54.6297 28.9098 55.3101 29.6813C58.3152 33.0763 61.3742 36.4455 64.0362 40.1062C65.0199 41.4607 65.6606 43.8212 65.1702 45.2757C64.779 46.4188 62.4543 47.2132 60.8639 47.5276C54.3434 48.8164 49.4842 46.5588 45.7024 40.8492C42.771 36.4541 38.9381 32.6648 34.9436 27.9353Z" fill="#BE4EFF"/>
<path d="M35.5559 47.3794C29.0099 47.3794 23.3995 47.4423 17.7919 47.3109C16.9414 47.2909 15.9548 46.5164 15.3425 45.8163C12.2835 42.3185 9.15088 38.8607 6.42929 35.1028C5.45689 33.7626 4.87289 31.365 5.40586 29.9361C5.8141 28.8417 8.19265 28.2215 9.79442 27.8958C16.4878 26.5584 21.3526 29.056 25.1515 34.8342C27.927 39.0579 31.6039 42.6814 35.5559 47.3794Z" fill="#BE4EFF"/>
<path d="M251.672 15.0367C250.83 15.0667 249.99 14.925 249.204 14.6202C248.417 14.3153 247.7 13.8535 247.094 13.2625C246.489 12.6715 246.008 11.9634 245.681 11.1806C245.353 10.3978 245.186 9.55646 245.189 8.70693C245.172 7.85633 245.324 7.01095 245.636 6.22038C245.948 5.42981 246.413 4.70997 247.005 4.10309C247.596 3.49621 248.302 3.0145 249.081 2.68623C249.859 2.35796 250.695 2.18973 251.539 2.19142C253.185 2.21346 254.76 2.8708 255.94 4.0281C257.12 5.18539 257.814 6.75458 257.881 8.41259C257.918 9.2617 257.785 10.1096 257.491 10.9061C257.196 11.7025 256.746 12.4313 256.167 13.0491C255.588 13.6669 254.892 14.1612 254.12 14.5026C253.348 14.844 252.515 15.0257 251.672 15.0367Z" fill="white"/>
</g>
<defs>
<filter id="filter0_d_10586_3177" x="0.5" y="0" width="365" height="83.1953" filterUnits="userSpaceOnUse" color-interpolation-filters="sRGB">
<feFlood flood-opacity="0" result="BackgroundImageFix"/>
<feColorMatrix in="SourceAlpha" type="matrix" values="0 0 0 0 0 0 0 0 0 0 0 0 0 0 0 0 0 0 127 0" result="hardAlpha"/>
<feOffset dy="4"/>
<feGaussianBlur stdDeviation="2"/>
<feComposite in2="hardAlpha" operator="out"/>
<feColorMatrix type="matrix" values="0 0 0 0 0 0 0 0 0 0 0 0 0 0 0 0 0 0 0.25 0"/>
<feBlend mode="normal" in2="BackgroundImageFix" result="effect1_dropShadow_10586_3177"/>
<feBlend mode="normal" in="SourceGraphic" in2="effect1_dropShadow_10586_3177" result="shape"/>
</filter>
</defs>
</svg>
